<?xml version="1.0" encoding="utf-8"?>
<!-- Generator: Adobe Illustrator 25.4.1, SVG Export Plug-In . SVG Version: 6.00 Build 0)  -->
<svg version="1.1" id="Capa_1" xmlns="http://www.w3.org/2000/svg" xmlns:xlink="http://www.w3.org/1999/xlink" x="0px" y="0px"
	 viewBox="0 0 2977.2 1522.6" style="enable-background:new 0 0 2977.2 1522.6;" xml:space="preserve">
<style type="text/css">
	.st0{fill:none;stroke:#000000;stroke-width:3.22;stroke-linejoin:bevel;}
	.st1{fill:none;stroke:#000000;stroke-width:3.97;stroke-linejoin:bevel;}
	.st2{fill:none;stroke:#000000;stroke-width:2.98;stroke-linejoin:bevel;}
	.st3{fill:none;stroke:#000000;stroke-width:2.08;stroke-linejoin:bevel;}
	.st4{fill-rule:evenodd;clip-rule:evenodd;}
	.st5{fill:none;stroke:#000000;stroke-width:3.97;stroke-linecap:square;stroke-miterlimit:2;}
</style>
<desc>Generated by MuseScore 3.6.2</desc>
<line class="st0" x1="212.6" y1="758.5" x2="2764.6" y2="758.5"/>
<line class="st0" x1="212.6" y1="783.3" x2="2764.6" y2="783.3"/>
<line class="st0" x1="212.6" y1="808.1" x2="2764.6" y2="808.1"/>
<line class="st0" x1="212.6" y1="832.9" x2="2764.6" y2="832.9"/>
<line class="st0" x1="212.6" y1="857.7" x2="2764.6" y2="857.7"/>
<line class="st0" x1="212.6" y1="1093.3" x2="2764.6" y2="1093.3"/>
<line class="st0" x1="212.6" y1="1118.1" x2="2764.6" y2="1118.1"/>
<line class="st0" x1="212.6" y1="1142.9" x2="2764.6" y2="1142.9"/>
<line class="st0" x1="212.6" y1="1167.7" x2="2764.6" y2="1167.7"/>
<line class="st0" x1="212.6" y1="1192.5" x2="2764.6" y2="1192.5"/>
<line class="st0" x1="212.6" y1="1781.6" x2="2764.6" y2="1781.6"/>
<line class="st0" x1="212.6" y1="1806.4" x2="2764.6" y2="1806.4"/>
<line class="st0" x1="212.6" y1="1831.2" x2="2764.6" y2="1831.2"/>
<line class="st0" x1="212.6" y1="1856" x2="2764.6" y2="1856"/>
<line class="st0" x1="212.6" y1="1880.8" x2="2764.6" y2="1880.8"/>
<path d="M1328.3,259.6c4.8,1,8.5,3.2,11.2,6.4c2.7,3.2,4,7.5,4,12.8c0,5.2-1.3,9.6-4,13.1s-6.9,6.2-12.8,8
	c-5.9,1.8-13.7,2.7-23.3,2.7c-3.4,0-7.3-0.1-11.5-0.4c-4.2-0.3-8-0.7-11.5-1.2V222c3.8-0.8,8.1-1.5,12.7-2s9.1-0.8,13.4-0.8
	c12,0,20.8,1.9,26.4,5.6c5.6,3.7,8.3,9.4,8.3,17.1c0,4.3-1.1,8.1-3.4,11.2C1335.6,256.2,1332.4,258.4,1328.3,259.6 M1308.8,232.3
	c-3.7,0-7.3,0.3-10.8,1v20.1h11.6c5.3,0,9.2-0.9,11.5-2.6c2.3-1.7,3.4-4.4,3.4-7.9c0-2.5-0.5-4.5-1.5-6.1c-1-1.5-2.7-2.7-5-3.4
	C1315.7,232.6,1312.6,232.3,1308.8,232.3 M1308.1,289.4c4.7,0,8.5-0.4,11.2-1.2c2.7-0.8,4.7-2.1,5.9-3.7s1.8-3.8,1.8-6.4
	c0-4-1.2-6.8-3.7-8.6c-2.4-1.8-6.4-2.7-11.9-2.7H1298V289C1300.7,289.3,1304.1,289.4,1308.1,289.4 M1373.8,240.5
	c6.6,0,11.9,0.8,15.9,2.4c4,1.6,7,4.3,9,7.9c1.9,3.7,2.9,8.7,2.9,15v35.8h-14.5l-1.2-5.9h-0.8c-1.8,2.4-4,4.2-6.8,5.3
	s-5.8,1.7-9.2,1.7c-4,0-7.5-0.7-10.4-2.2c-2.9-1.4-5.2-3.5-6.7-6.1c-1.6-2.6-2.3-5.7-2.3-9.1c0-5.8,2-10.2,6-13.4
	c4-3.2,10.3-5,19-5.6l9.8-0.8v-0.8c0-2.8-0.5-5-1.4-6.5c-0.9-1.6-2.3-2.7-4.3-3.4c-1.9-0.7-4.6-1-8.1-1c-2.5,0-5.1,0.2-8,0.6
	s-5.7,1-8.3,1.8V243c2.9-0.8,6-1.4,9.5-1.9C1367.4,240.7,1370.7,240.5,1373.8,240.5 M1374.9,290.5c1.7,0,3.4-0.3,5.1-0.9
	c1.7-0.6,3.1-1.6,4.5-2.9v-11.3l-8,0.6c-3.3,0.3-5.7,1-7.2,2.3c-1.5,1.3-2.2,3-2.2,5.3c0,2.2,0.7,3.9,2,5.1
	C1370.3,289.9,1372.3,290.5,1374.9,290.5 M1438,302.7c-4.1,0-8.2-0.3-12.2-0.9c-4.1-0.6-7.8-1.4-11.2-2.5v-86.6h17.6v34.5h0.8
	c1.8-2.2,4-3.8,6.6-5c2.6-1.2,5.6-1.8,9-1.8c4.4,0,8.3,1.1,11.8,3.2c3.5,2.1,6.3,5.4,8.4,9.9s3.1,10,3.1,16.7
	c0,10.7-2.8,18.7-8.5,24.2C1457.8,300,1449.4,302.7,1438,302.7 M1439.3,289.4c5.1,0,8.8-1.4,11.3-4.2c2.4-2.8,3.7-7.3,3.7-13.5
	c0-6.2-1.1-10.5-3.2-13.1c-2.1-2.5-5.2-3.8-9.2-3.8c-1.9,0-3.7,0.3-5.4,0.9c-1.7,0.6-3.2,1.5-4.4,2.7v30
	C1434.4,289.1,1436.8,289.4,1439.3,289.4 M1503.8,240.5c6.6,0,11.9,0.8,15.9,2.4c4,1.6,7,4.3,9,7.9c1.9,3.7,2.9,8.7,2.9,15v35.8
	h-14.5l-1.2-5.9h-0.8c-1.8,2.4-4,4.2-6.8,5.3s-5.8,1.7-9.2,1.7c-4,0-7.5-0.7-10.4-2.2c-2.9-1.4-5.2-3.5-6.7-6.1
	c-1.6-2.6-2.3-5.7-2.3-9.1c0-5.8,2-10.2,6-13.4c4-3.2,10.3-5,19-5.6l9.8-0.8v-0.8c0-2.8-0.5-5-1.4-6.5c-0.9-1.6-2.3-2.7-4.3-3.4
	c-1.9-0.7-4.6-1-8.1-1c-2.5,0-5.1,0.2-8,0.6s-5.7,1-8.3,1.8V243c2.9-0.8,6-1.4,9.5-1.9C1497.4,240.7,1500.7,240.5,1503.8,240.5
	 M1504.9,290.5c1.7,0,3.4-0.3,5.1-0.9c1.7-0.6,3.1-1.6,4.5-2.9v-11.3l-8,0.6c-3.3,0.3-5.7,1-7.2,2.3c-1.5,1.3-2.2,3-2.2,5.3
	c0,2.2,0.7,3.9,2,5.1C1500.3,289.9,1502.3,290.5,1504.9,290.5 M1573.2,302.8c-10.2,0-17.9-2.6-23.3-7.8c-5.3-5.2-8-13-8-23.3
	c0-10.4,2.8-18.2,8.5-23.4s13.9-7.7,24.6-7.7c5,0,9.5,0.5,13.5,1.4v13.9c-3.9-0.8-7.5-1.2-11.1-1.2c-4.1,0-7.4,0.6-9.9,1.7
	c-2.5,1.1-4.4,2.9-5.6,5.4c-1.2,2.5-1.8,5.7-1.8,9.7c0,6.1,1.3,10.4,3.9,13.1c2.6,2.7,6.6,4,12,4c1.9,0,3.8-0.2,5.7-0.5
	c1.9-0.3,4.2-0.8,6.8-1.5v13.9C1583.9,302,1578.8,302.8,1573.2,302.8 M1618.8,240.5c6.6,0,11.9,0.8,15.9,2.4c4,1.6,7,4.3,9,7.9
	c1.9,3.7,2.9,8.7,2.9,15v35.8h-14.5l-1.2-5.9h-0.8c-1.8,2.4-4,4.2-6.8,5.3s-5.8,1.7-9.2,1.7c-4,0-7.5-0.7-10.4-2.2
	c-2.9-1.4-5.2-3.5-6.7-6.1c-1.6-2.6-2.3-5.7-2.3-9.1c0-5.8,2-10.2,6-13.4c4-3.2,10.3-5,19-5.6l9.8-0.8v-0.8c0-2.8-0.5-5-1.4-6.5
	c-0.9-1.6-2.3-2.7-4.3-3.4c-1.9-0.7-4.6-1-8.1-1c-2.5,0-5.1,0.2-8,0.6s-5.7,1-8.3,1.8V243c2.9-0.8,6-1.4,9.5-1.9
	C1612.4,240.7,1615.7,240.5,1618.8,240.5 M1619.9,290.5c1.7,0,3.4-0.3,5.1-0.9c1.7-0.6,3.1-1.6,4.5-2.9v-11.3l-8,0.6
	c-3.3,0.3-5.7,1-7.2,2.3c-1.5,1.3-2.2,3-2.2,5.3c0,2.2,0.7,3.9,2,5.1C1615.3,289.9,1617.3,290.5,1619.9,290.5 M1659.7,241.4h14.3
	l1.4,7.8h0.8c1.7-2.9,3.9-5,6.6-6.5c2.8-1.4,5.9-2.1,9.3-2.1c1.8,0,3.4,0.1,4.8,0.4v15.9c-1.6-0.3-3.6-0.5-5.9-0.5
	c-2.7,0-5.3,0.5-7.9,1.5c-2.6,1-4.5,2.4-5.9,4.2v39.4h-17.6V241.4"/>
<path d="M1258.7,375.9h5.4l0.4,4.9h0.4c1.8-1.8,3.8-3.2,6.2-4.2c2.3-1,4.8-1.4,7.5-1.4c4.3,0,7.8,1.2,10.2,3.7
	c2.5,2.4,3.7,6.4,3.7,11.7v28.7h-6.4v-28.4c0-3.6-0.8-6.1-2.3-7.6c-1.6-1.5-3.8-2.3-6.8-2.3c-2.2,0-4.3,0.5-6.5,1.4
	c-2.2,0.9-4,2.4-5.5,4.4v32.6h-6.4V375.9 M1281.3,365.5c-1,0-2-0.1-2.9-0.4c-0.9-0.3-2.1-0.7-3.5-1.3c-1.1-0.5-2-0.9-2.8-1.1
	c-0.8-0.3-1.6-0.4-2.3-0.4c-1.3,0-2.5,0.2-3.5,0.7c-1,0.5-2.1,1.3-3.1,2.3v-4.6c1.7-1.8,3.9-2.7,6.7-2.7c1,0,2,0.1,2.8,0.4
	s2.1,0.7,3.5,1.3c1.1,0.5,2,0.9,2.8,1.1c0.8,0.3,1.6,0.4,2.3,0.4c1.3,0,2.4-0.2,3.5-0.7c1-0.5,2.1-1.3,3.1-2.3v4.6
	C1286.3,364.6,1284.1,365.5,1281.3,365.5 M1316.6,375.3c3.8,0,6.9,0.5,9.3,1.5c2.4,1,4.2,2.6,5.5,4.9c1.2,2.3,1.8,5.4,1.8,9.2v28.4
	h-5.4l-0.5-4.8h-0.4c-1.4,1.8-3.2,3.1-5.4,4.1c-2.2,1-4.6,1.5-7.1,1.5c-2.7,0-5-0.5-7-1.4c-2-0.9-3.5-2.3-4.6-4.1
	c-1.1-1.8-1.6-3.9-1.6-6.3c0-3.8,1.2-6.8,3.8-8.9s6.5-3.4,11.9-3.9l9.9-1.1v-3.7c0-2.6-0.4-4.6-1.2-6.1c-0.8-1.5-2-2.5-3.6-3.1
	c-1.6-0.6-3.7-0.9-6.3-0.9c-1.8,0-3.7,0.2-5.7,0.5s-4,0.8-6,1.5v-5.3c1.8-0.6,3.8-1.1,6.1-1.4
	C1312.4,375.4,1314.5,375.3,1316.6,375.3 M1316,415.1c2.1,0,4-0.4,5.9-1.3c1.9-0.9,3.6-2.2,5-4v-11.2l-9.5,1
	c-3.4,0.3-5.9,1.2-7.4,2.5c-1.5,1.3-2.3,3.1-2.3,5.5c0,2.5,0.7,4.3,2.1,5.6C1311.2,414.5,1313.3,415.1,1316,415.1 M1362.6,414.5
	c1.5,0,3.3-0.2,5.3-0.6v5.4c-2.3,0.5-4.5,0.8-6.7,0.8c-9.4,0-14-4.8-14-14.4v-24.5h-8.2v-5.3h8.2l1-15.8h5.4v15.8h13.6v5.3h-13.6
	v23.5c0,3.6,0.7,6.1,2.2,7.6C1357.2,413.8,1359.5,414.5,1362.6,414.5 M1387.6,375.3c3.8,0,6.9,0.5,9.3,1.5c2.4,1,4.2,2.6,5.5,4.9
	c1.2,2.3,1.8,5.4,1.8,9.2v28.4h-5.4l-0.5-4.8h-0.4c-1.4,1.8-3.2,3.1-5.4,4.1c-2.2,1-4.6,1.5-7.1,1.5c-2.7,0-5-0.5-7-1.4
	c-2-0.9-3.5-2.3-4.6-4.1c-1.1-1.8-1.6-3.9-1.6-6.3c0-3.8,1.2-6.8,3.8-8.9s6.5-3.4,11.9-3.9l9.9-1.1v-3.7c0-2.6-0.4-4.6-1.2-6.1
	c-0.8-1.5-2-2.5-3.6-3.1c-1.6-0.6-3.7-0.9-6.3-0.9c-1.8,0-3.7,0.2-5.7,0.5s-4,0.8-6,1.5v-5.3c1.8-0.6,3.8-1.1,6.1-1.4
	C1383.4,375.4,1385.5,375.3,1387.6,375.3 M1387,415.1c2.1,0,4-0.4,5.9-1.3c1.9-0.9,3.6-2.2,5-4v-11.2l-9.5,1
	c-3.4,0.3-5.9,1.2-7.4,2.5c-1.5,1.3-2.3,3.1-2.3,5.5c0,2.5,0.7,4.3,2.1,5.6C1382.2,414.5,1384.3,415.1,1387,415.1 M1435.7,419.3
	v-64.6h6.4v64.6H1435.7 M1466.6,375.3c3.8,0,6.9,0.5,9.3,1.5c2.4,1,4.2,2.6,5.5,4.9c1.2,2.3,1.8,5.4,1.8,9.2v28.4h-5.4l-0.5-4.8
	h-0.4c-1.4,1.8-3.2,3.1-5.4,4.1c-2.2,1-4.6,1.5-7.1,1.5c-2.7,0-5-0.5-7-1.4c-2-0.9-3.5-2.3-4.6-4.1c-1.1-1.8-1.6-3.9-1.6-6.3
	c0-3.8,1.2-6.8,3.8-8.9s6.5-3.4,11.9-3.9l9.9-1.1v-3.7c0-2.6-0.4-4.6-1.2-6.1c-0.8-1.5-2-2.5-3.6-3.1c-1.6-0.6-3.7-0.9-6.3-0.9
	c-1.8,0-3.7,0.2-5.7,0.5s-4,0.8-6,1.5v-5.3c1.8-0.6,3.8-1.1,6.1-1.4C1462.4,375.4,1464.5,375.3,1466.6,375.3 M1466,415.1
	c2.1,0,4-0.4,5.9-1.3c1.9-0.9,3.6-2.2,5-4v-11.2l-9.5,1c-3.4,0.3-5.9,1.2-7.4,2.5c-1.5,1.3-2.3,3.1-2.3,5.5c0,2.5,0.7,4.3,2.1,5.6
	C1461.2,414.5,1463.3,415.1,1466,415.1 M1523.8,375.9h6.4l-23,61h-6.4l6.7-17.6h-1.9l-16.4-43.4h6.8l13.8,38L1523.8,375.9
	 M1571.5,420.1c-3.3,0-6.2-0.7-8.8-2.2c-2.6-1.5-4.6-3.8-6.1-7c-1.5-3.2-2.2-7.3-2.2-12.3c0-7.8,1.8-13.6,5.5-17.5
	c3.7-3.9,9.1-5.8,16.4-5.8c2.1,0,4.4,0.2,7,0.6v-21.2h6.4v64.6h-5.5l-0.4-4.7h-0.4c-1.4,1.7-3.1,3-5.1,4
	C1576.2,419.6,1574,420.1,1571.5,420.1 M1572.9,414.6c2,0,4-0.4,5.8-1.3c1.8-0.9,3.4-2.2,4.6-4v-28c-1-0.2-2.2-0.4-3.4-0.5
	c-1.3-0.1-2.5-0.2-3.7-0.2c-5.2,0-9,1.4-11.5,4.1c-2.5,2.8-3.8,7.2-3.8,13.3c0,6.1,1,10.3,3.1,12.9
	C1566.1,413.3,1569.1,414.6,1572.9,414.6 M1594.5,435c2.6-3.5,4.4-6.9,5.5-10.4c1.1-3.5,1.7-7.5,1.7-12.1v-36.6h6.4v36.2
	c0,5.1-0.7,9.7-2.2,13.7c-1.4,4-3.8,8-7.1,12.1L1594.5,435 M1604.8,366.3c-1.4,0-2.6-0.4-3.3-1.1s-1.2-1.7-1.2-3
	c0-1.3,0.4-2.3,1.2-3c0.8-0.7,1.9-1.1,3.3-1.1c1.4,0,2.5,0.4,3.3,1.1c0.8,0.7,1.2,1.7,1.2,3c0,1.3-0.4,2.3-1.2,3
	C1607.3,366,1606.2,366.3,1604.8,366.3 M1633.6,375.3c3.8,0,6.9,0.5,9.3,1.5c2.4,1,4.2,2.6,5.5,4.9c1.2,2.3,1.8,5.4,1.8,9.2v28.4
	h-5.4l-0.5-4.8h-0.4c-1.4,1.8-3.2,3.1-5.4,4.1c-2.2,1-4.6,1.5-7.1,1.5c-2.7,0-5-0.5-7-1.4c-2-0.9-3.5-2.3-4.6-4.1
	c-1.1-1.8-1.6-3.9-1.6-6.3c0-3.8,1.2-6.8,3.8-8.9s6.5-3.4,11.9-3.9l9.9-1.1v-3.7c0-2.6-0.4-4.6-1.2-6.1c-0.8-1.5-2-2.5-3.6-3.1
	c-1.6-0.6-3.7-0.9-6.3-0.9c-1.8,0-3.7,0.2-5.7,0.5s-4,0.8-6,1.5v-5.3c1.8-0.6,3.8-1.1,6.1-1.4
	C1629.4,375.4,1631.5,375.3,1633.6,375.3 M1633,415.1c2.1,0,4-0.4,5.9-1.3c1.9-0.9,3.6-2.2,5-4v-11.2l-9.5,1
	c-3.4,0.3-5.9,1.2-7.4,2.5c-1.5,1.3-2.3,3.1-2.3,5.5c0,2.5,0.7,4.3,2.1,5.6C1628.2,414.5,1630.3,415.1,1633,415.1 M1661.7,375.9h5.3
	l0.5,5.8h0.4c1.4-2,3.3-3.5,5.5-4.6s4.6-1.6,7.1-1.6c1.2,0,2.3,0.1,3.5,0.3v6c-1.1-0.2-2.4-0.3-3.8-0.3c-2.3,0-4.5,0.5-6.8,1.6
	c-2.3,1.1-4.1,2.6-5.5,4.5v31.7h-6.4V375.9 M1697.7,388.7c3.6-1.1,6.5-2.3,8.6-3.6c2.1-1.3,3.6-2.8,4.5-4.4c0.9-1.6,1.3-3.6,1.3-5.8
	c0-3.3-1.1-5.8-3.3-7.5c-2.2-1.7-5.4-2.6-9.7-2.6c-4.5,0-8.8,0.7-12.9,2.2v-5.4c1.9-0.7,4-1.2,6.4-1.6c2.4-0.4,4.8-0.6,7.1-0.6
	c6.1,0,10.7,1.3,13.9,3.9c3.2,2.6,4.8,6.3,4.8,11.1c0,2.9-0.5,5.3-1.5,7.5c-1,2.1-2.6,4-4.8,5.6c-2.2,1.6-5.1,3.1-8.7,4.5l-0.6,12.9
	h-4.1L1697.7,388.7 M1700.8,419.8c-1.4,0-2.5-0.4-3.4-1.2c-0.9-0.8-1.3-1.8-1.3-3.1c0-1.3,0.4-2.4,1.3-3.2c0.8-0.8,2-1.2,3.4-1.2
	c1.4,0,2.5,0.4,3.3,1.2c0.9,0.8,1.3,1.9,1.3,3.2c0,1.3-0.4,2.3-1.3,3.1C1703.3,419.4,1702.2,419.8,1700.8,419.8"/>
<path d="M2483.5,460.6l-4.2-12h-15.6l-4.2,12h-4.1l13.3-37h5.7l13.3,37H2483.5 M2464.8,445.2h13.2l-6.6-18.7L2464.8,445.2
	 M2492.4,433.5h3.3l0.3,3.6h0.2c0.9-1.2,2-2.2,3.5-2.9c1.4-0.7,2.9-1,4.5-1c0.7,0,1.5,0.1,2.2,0.2v3.7c-0.7-0.1-1.5-0.2-2.3-0.2
	c-1.4,0-2.8,0.3-4.3,1c-1.4,0.7-2.6,1.6-3.4,2.8v19.8h-4V433.5 M2510.4,460.6v-27.1h4v27.1H2510.4 M2512.4,427.6
	c-0.9,0-1.6-0.2-2.1-0.7c-0.5-0.4-0.7-1.1-0.7-1.9c0-0.8,0.2-1.4,0.7-1.9c0.5-0.4,1.2-0.7,2.1-0.7c0.9,0,1.6,0.2,2,0.7
	c0.5,0.4,0.7,1.1,0.7,1.9c0,0.8-0.2,1.4-0.7,1.9C2514,427.4,2513.3,427.6,2512.4,427.6 M2542.4,448.4H2525c0.1,2.3,0.4,4.1,1.1,5.5
	c0.7,1.4,1.7,2.4,3,3c1.3,0.6,3,0.9,5.1,0.9c2,0,4.2-0.4,6.8-1.1v3.3c-2.5,0.7-4.9,1.1-7.2,1.1c-4.3,0-7.5-1.1-9.7-3.3
	c-2.1-2.2-3.2-5.8-3.2-10.7c0-4.6,1-8.1,2.9-10.5c1.9-2.3,4.6-3.5,8.1-3.5c3.4,0,6,1.2,7.8,3.5s2.7,5.9,2.7,10.6V448.4 M2531.9,436
	c-2.2,0-3.8,0.8-5,2.2c-1.2,1.5-1.8,4-1.8,7.4h13.5c-0.1-3.4-0.7-5.9-1.8-7.4C2535.7,436.8,2534.1,436,2531.9,436 M2548.4,460.6
	v-40.4h4v40.4H2548.4 M2590.7,441.5c2.5,0.4,4.4,1.5,5.7,3c1.3,1.6,1.9,3.6,1.9,6c0,2.3-0.6,4.2-1.7,5.8c-1.1,1.5-2.8,2.7-5.2,3.5
	c-2.4,0.8-5.5,1.2-9.4,1.2c-2.9,0-6-0.2-9.1-0.6v-36.1c3.3-0.7,6.7-1,10.2-1c4.9,0,8.5,0.8,10.8,2.4c2.3,1.6,3.4,4.1,3.4,7.5
	c0,2.1-0.5,3.9-1.6,5.4C2594.5,440,2592.9,441,2590.7,441.5 M2583.4,426.5c-2.5,0-4.7,0.2-6.6,0.5v13h7.3c3.3,0,5.6-0.6,7.1-1.6
	c1.4-1.1,2.2-2.8,2.2-5.1c0-1.6-0.3-2.9-1-3.9c-0.7-1-1.7-1.7-3.2-2.2C2587.7,426.7,2585.8,426.5,2583.4,426.5 M2582.8,457.7
	c2.9,0,5.2-0.3,6.8-0.8c1.7-0.5,2.9-1.3,3.6-2.4c0.7-1.1,1.1-2.4,1.1-4.1c0-2.4-0.8-4.2-2.3-5.4c-1.6-1.2-4-1.7-7.3-1.7h-8v14.1
	C2578.5,457.6,2580.5,457.7,2582.8,457.7 M2603.4,433.5h3.3l0.3,3.6h0.2c0.9-1.2,2-2.2,3.5-2.9c1.4-0.7,2.9-1,4.5-1
	c0.7,0,1.5,0.1,2.2,0.2v3.7c-0.7-0.1-1.5-0.2-2.3-0.2c-1.4,0-2.8,0.3-4.3,1c-1.4,0.7-2.6,1.6-3.4,2.8v19.8h-4V433.5 M2629.8,461.1
	c-2.7,0-4.8-0.8-6.3-2.3c-1.5-1.5-2.3-3.9-2.3-7.3v-18h4v17.8c0,2.2,0.5,3.8,1.5,4.7c1,1,2.3,1.4,4.1,1.4c1.3,0,2.7-0.3,4-0.9
	c1.3-0.6,2.5-1.5,3.4-2.7v-20.4h4v27.1h-3.4l-0.3-3h-0.2c-1.1,1.1-2.4,2-3.8,2.6C2632.9,460.8,2631.4,461.1,2629.8,461.1
	 M2667.6,460.6l-9.6-12.2h-4.6v12.2h-4v-40.4h4v24.8h4.6l8.9-11.5h4.4l-10,13.2l10.8,14H2667.6 M2702.3,433.1c2.5,0,4.5,0.8,6,2.3
	s2.2,4,2.2,7.3v18h-4v-17.8c0-2.2-0.4-3.8-1.3-4.8c-0.9-1-2.2-1.5-3.8-1.5c-1.2,0-2.3,0.3-3.5,0.8c-1.2,0.6-2.2,1.4-3,2.6
	c0.1,0.8,0.1,1.6,0.1,2.5v18h-3.9v-17.8c0-2.2-0.4-3.8-1.3-4.8c-0.9-1-2.1-1.4-3.7-1.4c-1.2,0-2.4,0.3-3.6,0.9
	c-1.2,0.6-2.2,1.5-3,2.8v20.2h-4v-27.1h3.4l0.3,3.1h0.3c1-1.1,2.2-2,3.5-2.6c1.3-0.6,2.8-0.9,4.3-0.9c3.3,0,5.5,1.3,6.8,3.9
	c1.2-1.4,2.5-2.3,4-3C2699.3,433.4,2700.8,433.1,2702.3,433.1 M2725.5,433.1c2.4,0,4.3,0.3,5.8,0.9c1.5,0.6,2.7,1.6,3.4,3.1
	s1.2,3.4,1.2,5.8v17.8h-3.4l-0.3-3h-0.3c-0.9,1.1-2,2-3.4,2.6c-1.4,0.6-2.9,0.9-4.5,0.9c-1.7,0-3.1-0.3-4.4-0.9
	c-1.2-0.6-2.2-1.4-2.8-2.6c-0.7-1.1-1-2.4-1-4c0-2.4,0.8-4.2,2.4-5.6c1.6-1.3,4.1-2.1,7.5-2.5l6.2-0.7v-2.3c0-1.6-0.3-2.9-0.8-3.8
	c-0.5-0.9-1.3-1.6-2.3-1.9s-2.3-0.6-3.9-0.6c-1.1,0-2.3,0.1-3.6,0.3c-1.3,0.2-2.5,0.5-3.7,0.9v-3.3c1.1-0.4,2.4-0.7,3.8-0.9
	C2722.8,433.2,2724.2,433.1,2725.5,433.1 M2725.1,458c1.3,0,2.5-0.3,3.7-0.8c1.2-0.5,2.2-1.4,3.1-2.5v-7l-5.9,0.7
	c-2.1,0.2-3.6,0.7-4.6,1.6c-1,0.8-1.4,2-1.4,3.4c0,1.5,0.4,2.7,1.3,3.5C2722.1,457.6,2723.4,458,2725.1,458 M2743.4,433.5h3.4
	l0.3,3.1h0.3c1.1-1.1,2.4-2,3.9-2.6c1.5-0.6,3-0.9,4.7-0.9c2.7,0,4.8,0.8,6.4,2.3s2.3,4,2.3,7.3v17.9h-4v-17.8
	c0-2.2-0.5-3.8-1.5-4.8c-1-1-2.4-1.5-4.2-1.5c-1.3,0-2.7,0.3-4.1,0.9c-1.3,0.6-2.5,1.5-3.4,2.7v20.4h-4V433.5"/>
<path d="M250.9,243.8v24.3c-2.1,0.4-4.1,0.6-5.9,0.8c-1.8,0.2-3.6,0.2-5.5,0.2c-8.7,0-15.3-2.1-19.6-6.3c-4.3-4.2-6.5-10.7-6.6-19.6
	c0-9,2.2-15.6,6.6-19.9s10.5-6.4,18.5-6.4c3.8,0,7.6,0.5,11.5,1.5v4.9c-2-0.6-3.9-0.9-5.7-1.2s-3.6-0.4-5.4-0.4
	c-6.4,0-11.2,1.7-14.5,5c-3.3,3.3-5,8.8-5,16.4c0,4.9,0.7,9,2.2,12.1c1.5,3.1,3.7,5.4,6.6,6.8c2.9,1.4,6.7,2.2,11.1,2.2
	c2.3,0,4.5-0.1,6.5-0.4v-20H250.9 M272.3,269.2c-3.7,0-6.6-1-8.8-3.1s-3.2-5.4-3.2-10v-24.9h5.5v24.6c0,3,0.7,5.2,2,6.5
	c1.3,1.3,3.2,2,5.6,2c1.8,0,3.7-0.4,5.5-1.2c1.9-0.8,3.4-2.1,4.6-3.7v-28.2h5.5v37.4h-4.7l-0.4-4.1h-0.3c-1.5,1.6-3.3,2.7-5.3,3.5
	C276.6,268.8,274.5,269.2,272.3,269.2 M299.8,268.6v-37.4h5.5v37.4H299.8 M300,225.4l7.5-12.5h6l-8.3,12.5H300 M327,230.6
	c3.3,0,5.9,0.4,8,1.3c2.1,0.8,3.7,2.3,4.7,4.2c1.1,2,1.6,4.6,1.6,8v24.5h-4.6l-0.4-4.2h-0.4c-1.2,1.5-2.7,2.7-4.6,3.5
	c-1.9,0.8-4,1.3-6.2,1.3c-2.3,0-4.3-0.4-6-1.2c-1.7-0.8-3-2-3.9-3.5c-0.9-1.5-1.4-3.4-1.4-5.5c0-3.3,1.1-5.9,3.2-7.7
	c2.2-1.8,5.6-2.9,10.3-3.4l8.5-0.9v-3.2c0-2.2-0.3-4-1-5.2c-0.7-1.3-1.7-2.2-3.1-2.7c-1.4-0.5-3.2-0.8-5.5-0.8c-1.5,0-3.2,0.1-5,0.4
	c-1.8,0.3-3.5,0.7-5.2,1.3v-4.5c1.5-0.5,3.3-0.9,5.2-1.2C323.3,230.7,325.2,230.6,327,230.6 M326.5,264.9c1.8,0,3.5-0.4,5.1-1.1
	c1.6-0.7,3.1-1.9,4.3-3.5v-9.7l-8.2,0.9c-2.9,0.3-5,1-6.4,2.1c-1.3,1.1-2,2.7-2,4.7c0,2.1,0.6,3.7,1.8,4.8
	C322.3,264.4,324.1,264.9,326.5,264.9 M390.3,269.3c-7.4,0-13.1-2.1-17.1-6.2c-4-4.1-6-10.7-6-19.9c0-9,2-15.6,6.1-19.9
	c4.1-4.3,9.9-6.4,17.6-6.4c3.7,0,7.4,0.5,11,1.5v4.9c-3.5-1-7.1-1.5-10.8-1.5c-4,0-7.3,0.7-9.9,2.1c-2.6,1.4-4.6,3.7-6,6.8
	s-2.1,7.3-2.1,12.4c0,5.3,0.7,9.5,2.1,12.6c1.4,3.1,3.4,5.4,5.9,6.7s5.8,2,9.6,2c1.9,0,3.7-0.2,5.5-0.5c1.8-0.3,3.7-0.8,5.7-1.5v4.9
	C398.3,268.6,394.5,269.3,390.3,269.3 M409.8,268.6v-55.8h5.5v55.8H409.8 M437,230.6c3.3,0,5.9,0.4,8,1.3c2.1,0.8,3.7,2.3,4.7,4.2
	c1.1,2,1.6,4.6,1.6,8v24.5h-4.6l-0.4-4.2h-0.4c-1.2,1.5-2.7,2.7-4.6,3.5c-1.9,0.8-4,1.3-6.2,1.3c-2.3,0-4.3-0.4-6-1.2
	c-1.7-0.8-3-2-3.9-3.5c-0.9-1.5-1.4-3.4-1.4-5.5c0-3.3,1.1-5.9,3.2-7.7c2.2-1.8,5.6-2.9,10.3-3.4l8.5-0.9v-3.2c0-2.2-0.3-4-1-5.2
	c-0.7-1.3-1.7-2.2-3.1-2.7c-1.4-0.5-3.2-0.8-5.5-0.8c-1.5,0-3.2,0.1-5,0.4c-1.8,0.3-3.5,0.7-5.2,1.3v-4.5c1.5-0.5,3.3-0.9,5.2-1.2
	C433.3,230.7,435.2,230.6,437,230.6 M436.5,264.9c1.8,0,3.5-0.4,5.1-1.1c1.6-0.7,3.1-1.9,4.3-3.5v-9.7l-8.2,0.9
	c-2.9,0.3-5,1-6.4,2.1c-1.3,1.1-2,2.7-2,4.7c0,2.1,0.6,3.7,1.8,4.8C432.3,264.4,434.1,264.9,436.5,264.9 M487,231.2h5.6l-14.2,37.4
	h-7.1l-14.1-37.4h5.9l12,32.5L487,231.2 M497.8,268.6v-37.4h5.5v37.4H497.8 M500.6,223.1c-1.2,0-2.2-0.3-2.9-0.9
	c-0.7-0.6-1-1.5-1-2.6s0.3-2,1-2.6c0.7-0.6,1.6-0.9,2.8-0.9c1.2,0,2.2,0.3,2.8,0.9c0.7,0.6,1,1.5,1,2.6s-0.3,2-1,2.6
	C502.7,222.7,501.8,223.1,500.6,223.1 M513.8,231.2h4.7l0.4,4.2h0.4c1.5-1.6,3.3-2.8,5.3-3.6c2-0.8,4.2-1.2,6.4-1.2
	c3.8,0,6.7,1.1,8.8,3.2s3.2,5.5,3.2,10.1v24.7h-5.5v-24.5c0-3.1-0.7-5.2-2-6.6c-1.3-1.3-3.3-2-5.8-2c-1.9,0-3.7,0.4-5.6,1.2
	c-1.9,0.8-3.4,2.1-4.7,3.8v28.1h-5.5V231.2 M580.4,251.7h-24c0.1,3.2,0.6,5.7,1.6,7.6c1,1.9,2.4,3.3,4.2,4.1s4.2,1.3,7,1.3
	c2.7,0,5.8-0.5,9.3-1.5v4.5c-3.4,1-6.7,1.5-10,1.5c-5.9,0-10.4-1.5-13.3-4.6c-2.9-3.1-4.4-8-4.4-14.8c0-6.4,1.3-11.2,4-14.5
	c2.7-3.2,6.4-4.8,11.2-4.8c4.7,0,8.2,1.6,10.7,4.8c2.5,3.2,3.7,8.1,3.7,14.6V251.7 M565.9,234.6c-3,0-5.3,1-6.9,3.1
	c-1.6,2.1-2.5,5.5-2.6,10.2h18.7c-0.1-4.8-0.9-8.2-2.4-10.2C571.1,235.6,568.9,234.6,565.9,234.6 M604.3,264.5
	c1.3,0,2.8-0.2,4.6-0.5v4.7c-1.9,0.5-3.9,0.7-5.8,0.7c-8.1,0-12.1-4.1-12.1-12.4v-21.1h-7.1v-4.6h7.1l0.9-13.6h4.6v13.6h11.8v4.6
	h-11.8V256c0,3.1,0.6,5.2,1.9,6.5C599.7,263.8,601.6,264.5,604.3,264.5"/>
<path d="M231.7,1729.2l-0.6,2.8h-17.3l0.4-1.8l10.9-11.2c1.8-1.9,3.2-3.5,4.1-4.9c0.9-1.3,1.5-2.6,1.7-3.9c0.4-1.9,0.2-3.2-0.7-4.1
	c-0.9-0.9-2.4-1.3-4.5-1.3c-2.3,0-4.5,0.4-6.7,1.2l0.6-2.8c0.9-0.3,2-0.6,3.3-0.8c1.2-0.2,2.5-0.3,3.7-0.3c6.2,0,8.8,2.6,7.6,7.9
	c-0.2,1.1-0.6,2.1-1.1,3.2s-1.2,2.1-2.1,3.2c-0.9,1.2-2.1,2.5-3.5,3.9l-8.7,9H231.7 M248.9,1714.9c1.8,0,3.4,0.3,4.6,1
	c1.2,0.6,2.1,1.6,2.6,2.9c0.5,1.3,0.5,2.9,0.1,4.8c-0.4,1.9-1.1,3.5-2.2,4.8c-1,1.3-2.3,2.3-3.8,3c-1.5,0.7-3.1,1-4.9,1
	c-6.9,0-9.3-4.7-7.3-14.2c2.3-10.8,7.6-16.1,16-16.1c2.1,0,3.9,0.3,5.2,0.9l-0.6,2.7c-0.7-0.3-1.5-0.5-2.4-0.7
	c-0.9-0.2-1.8-0.2-2.7-0.2c-3.2,0-5.7,1-7.7,3c-2,2-3.4,5.2-4.4,9.5c1-0.7,2.2-1.2,3.5-1.6C246.3,1715.1,247.6,1714.9,248.9,1714.9
	 M245.9,1729.8c1.8,0,3.3-0.5,4.6-1.5c1.3-1,2.2-2.5,2.6-4.6c0.4-2.1,0.2-3.6-0.8-4.7s-2.5-1.5-4.5-1.5c-1.1,0-2.3,0.2-3.6,0.6
	c-1.2,0.4-2.3,1-3.3,1.7c-0.6,3.6-0.5,6.2,0.4,7.7C242.2,1729,243.7,1729.8,245.9,1729.8"/>
<line class="st1" x1="214.6" y1="1091.7" x2="214.6" y2="1194.1"/>
<line class="st1" x1="1374.2" y1="1091.7" x2="1374.2" y2="1194.1"/>
<line class="st1" x1="2204.8" y1="1091.7" x2="2204.8" y2="1194.1"/>
<line class="st1" x1="214.6" y1="756.8" x2="214.6" y2="1093.3"/>
<line class="st1" x1="1374.2" y1="756.8" x2="1374.2" y2="1093.3"/>
<line class="st1" x1="2204.8" y1="756.8" x2="2204.8" y2="1093.3"/>
<line class="st2" x1="597.1" y1="1184.8" x2="597.1" y2="1260.7"/>
<line class="st2" x1="645.5" y1="1135.2" x2="645.5" y2="1239"/>
<line class="st2" x1="693.8" y1="1098" x2="693.8" y2="1217.3"/>
<line class="st2" x1="858.2" y1="1135.2" x2="858.2" y2="1217.3"/>
<line class="st2" x1="1061.4" y1="1135.2" x2="1061.4" y2="1211.1"/>
<line class="st2" x1="1109.8" y1="1098" x2="1109.8" y2="1192.5"/>
<line class="st2" x1="1477.4" y1="1160" x2="1477.4" y2="1235.9"/>
<line class="st2" x1="1526.6" y1="1122.8" x2="1526.6" y2="1217.3"/>
<line class="st2" x1="1692.5" y1="1122.8" x2="1692.5" y2="1204.9"/>
<line class="st2" x1="1948.2" y1="1110.4" x2="1948.2" y2="1192.5"/>
<line class="st2" x1="2134" y1="1110.4" x2="2134" y2="1192.5"/>
<line class="st2" x1="772.4" y1="852" x2="772.4" y2="733.7"/>
<line class="st2" x1="936.7" y1="852" x2="936.7" y2="749.2"/>
<line class="st2" x1="1014.1" y1="852" x2="1014.1" y2="739.9"/>
<line class="st2" x1="1188.3" y1="852" x2="1188.3" y2="739.9"/>
<line class="st2" x1="1236.7" y1="852" x2="1236.7" y2="739.9"/>
<line class="st2" x1="1285.1" y1="852" x2="1285.1" y2="739.9"/>
<line class="st2" x1="1333.5" y1="852" x2="1333.5" y2="739.9"/>
<line class="st2" x1="1440" y1="839.6" x2="1440" y2="733.7"/>
<line class="st2" x1="1605.9" y1="839.6" x2="1605.9" y2="733.7"/>
<line class="st2" x1="1771.8" y1="852" x2="1771.8" y2="749.2"/>
<line class="st2" x1="2027.5" y1="864.4" x2="2027.5" y2="758.5"/>
<line class="st3" x1="2056.1" y1="853.7" x2="2056.1" y2="796.9"/>
<line class="st2" x1="2115" y1="864.4" x2="2115" y2="758.5"/>
<path d="M603.3,1196.2c0.7,0.1,1.3,0.2,2,0.2c9.5,0,23.7-13,23.4-23.4c-0.3-2.6-0.2-6-5.4-8.1c-1.5-0.7-3.1-1-4.8-1
	c-10.6,0-22.1,12.2-22.9,20.3c0,0.6-0.1,1.2-0.1,1.8C595.6,1190.9,597.8,1194.9,603.3,1196.2"/>
<path d="M651.7,1146.6c0.7,0.1,1.3,0.2,2,0.2c9.5,0,23.7-13,23.4-23.4c-0.3-2.6-0.2-6-5.4-8.1c-1.5-0.7-3.1-1-4.8-1
	c-10.6,0-22.1,12.2-22.9,20.3c0,0.6-0.1,1.2-0.1,1.8C644,1141.3,646.2,1145.3,651.7,1146.6"/>
<path d="M700.1,1109.4c0.7,0.1,1.3,0.2,2,0.2c9.5,0,23.7-13,23.4-23.4c-0.3-2.6-0.2-6-5.4-8.1c-1.5-0.7-3.1-1-4.8-1
	c-10.6,0-22.1,12.2-22.9,20.3c0,0.6-0.1,1.2-0.1,1.8C692.4,1104.1,694.5,1108.1,700.1,1109.4"/>
<path d="M864.4,1146.6c0.7,0.1,1.3,0.2,2,0.2c9.5,0,23.7-13,23.4-23.4c-0.3-2.6-0.2-6-5.4-8.1c-1.5-0.7-3.1-1-4.8-1
	c-10.6,0-22.1,12.2-22.9,20.3c0,0.6-0.1,1.2-0.1,1.8C856.7,1141.3,858.9,1145.3,864.4,1146.6"/>
<path d="M1067.6,1146.6c0.7,0.1,1.3,0.2,2,0.2c9.5,0,23.7-13,23.4-23.4c-0.3-2.6-0.2-6-5.4-8.1c-1.5-0.7-3.1-1-4.8-1
	c-10.6,0-22.1,12.2-22.9,20.3c0,0.6-0.1,1.2-0.1,1.8C1059.9,1141.3,1062.1,1145.3,1067.6,1146.6"/>
<path d="M1116,1109.4c0.7,0.1,1.3,0.2,2,0.2c9.5,0,23.7-13,23.4-23.4c-0.3-2.6-0.2-6-5.4-8.1c-1.5-0.7-3.1-1-4.8-1
	c-10.6,0-22.1,12.2-22.9,20.3c0,0.6-0.1,1.2-0.1,1.8C1108.3,1104.1,1110.5,1108.1,1116,1109.4"/>
<path d="M1483.7,1171.4c0.7,0.1,1.3,0.2,2,0.2c9.5,0,23.7-13,23.4-23.4c-0.3-2.6-0.2-6-5.4-8.1c-1.5-0.7-3.1-1-4.8-1
	c-10.6,0-22.1,12.2-22.9,20.3c0,0.6-0.1,1.2-0.1,1.8C1476,1166.1,1478.1,1170.1,1483.7,1171.4"/>
<path d="M1532.9,1134.2c0.7,0.1,1.3,0.2,2,0.2c9.5,0,23.7-13,23.4-23.4c-0.3-2.6-0.2-6-5.4-8.1c-1.5-0.7-3.1-1-4.8-1
	c-10.6,0-22.1,12.2-22.9,20.3c0,0.6-0.1,1.2-0.1,1.8C1525.1,1128.9,1527.3,1132.9,1532.9,1134.2"/>
<path d="M1698.8,1134.2c0.7,0.1,1.3,0.2,2,0.2c9.5,0,23.7-13,23.4-23.4c-0.3-2.6-0.2-6-5.4-8.1c-1.5-0.7-3.1-1-4.8-1
	c-10.6,0-22.1,12.2-22.9,20.3c0,0.6-0.1,1.2-0.1,1.8C1691,1128.9,1693.2,1132.9,1698.8,1134.2"/>
<path d="M1954.4,1121.8c0.7,0.1,1.3,0.2,2,0.2c9.5,0,23.7-13,23.4-23.4c-0.3-2.6-0.2-6-5.4-8.1c-1.5-0.7-3.1-1-4.8-1
	c-10.6,0-22.1,12.2-22.9,20.3c0,0.6-0.1,1.2-0.1,1.8C1946.7,1116.5,1948.9,1120.5,1954.4,1121.8"/>
<path d="M2140.2,1121.8c0.7,0.1,1.3,0.2,2,0.2c9.5,0,23.7-13,23.4-23.4c-0.3-2.6-0.2-6-5.4-8.1c-1.5-0.7-3.1-1-4.8-1
	c-10.6,0-22.1,12.2-22.9,20.3c0,0.6-0.1,1.2-0.1,1.8C2132.5,1116.5,2134.7,1120.5,2140.2,1121.8"/>
<path d="M748.5,873.7c0.7,0.1,1.3,0.2,2,0.2c9.5,0,23.7-13,23.4-23.4c-0.3-2.6-0.2-6-5.4-8.1c-1.5-0.7-3.1-1-4.8-1
	c-10.6,0-22.1,12.2-22.9,20.3c0,0.6-0.1,1.2-0.1,1.8C740.7,868.5,742.9,872.5,748.5,873.7"/>
<path d="M748.5,836.5c0.7,0.1,1.3,0.2,2,0.2c9.5,0,23.7-13,23.4-23.4c-0.3-2.6-0.2-6-5.4-8.1c-1.5-0.7-3.1-1-4.8-1
	c-10.6,0-22.1,12.2-22.9,20.3c0,0.6-0.1,1.2-0.1,1.8C740.7,831.3,742.9,835.3,748.5,836.5"/>
<path d="M912.8,873.7c0.7,0.1,1.3,0.2,2,0.2c9.5,0,23.7-13,23.4-23.4c-0.3-2.6-0.2-6-5.4-8.1c-1.5-0.7-3.1-1-4.8-1
	c-10.6,0-22.1,12.2-22.9,20.3c0,0.6-0.1,1.2-0.1,1.8C905.1,868.5,907.3,872.5,912.8,873.7"/>
<path d="M912.8,848.9c0.7,0.1,1.3,0.2,2,0.2c9.5,0,23.7-13,23.4-23.4c-0.3-2.6-0.2-6-5.4-8.1c-1.5-0.7-3.1-1-4.8-1
	c-10.6,0-22.1,12.2-22.9,20.3c0,0.6-0.1,1.2-0.1,1.8C905.1,843.7,907.3,847.7,912.8,848.9"/>
<path d="M990.2,873.7c0.7,0.1,1.3,0.2,2,0.2c9.5,0,23.7-13,23.4-23.4c-0.3-2.6-0.2-6-5.4-8.1c-1.5-0.7-3.1-1-4.8-1
	c-10.6,0-22.1,12.2-22.9,20.3c0,0.6-0.1,1.2-0.1,1.8C982.5,868.5,984.7,872.5,990.2,873.7"/>
<path d="M990.2,836.5c0.7,0.1,1.3,0.2,2,0.2c9.5,0,23.7-13,23.4-23.4c-0.3-2.6-0.2-6-5.4-8.1c-1.5-0.7-3.1-1-4.8-1
	c-10.6,0-22.1,12.2-22.9,20.3c0,0.6-0.1,1.2-0.1,1.8C982.5,831.3,984.7,835.3,990.2,836.5"/>
<path d="M1164.4,873.7c0.7,0.1,1.3,0.2,2,0.2c9.5,0,23.7-13,23.4-23.4c-0.3-2.6-0.2-6-5.4-8.1c-1.5-0.7-3.1-1-4.8-1
	c-10.6,0-22.1,12.2-22.9,20.3c0,0.6-0.1,1.2-0.1,1.8C1156.7,868.5,1158.9,872.5,1164.4,873.7"/>
<path d="M1164.4,836.5c0.7,0.1,1.3,0.2,2,0.2c9.5,0,23.7-13,23.4-23.4c-0.3-2.6-0.2-6-5.4-8.1c-1.5-0.7-3.1-1-4.8-1
	c-10.6,0-22.1,12.2-22.9,20.3c0,0.6-0.1,1.2-0.1,1.8C1156.7,831.3,1158.9,835.3,1164.4,836.5"/>
<path d="M1212.8,873.7c0.7,0.1,1.3,0.2,2,0.2c9.5,0,23.7-13,23.4-23.4c-0.3-2.6-0.2-6-5.4-8.1c-1.5-0.7-3.1-1-4.8-1
	c-10.6,0-22.1,12.2-22.9,20.3c0,0.6-0.1,1.2-0.1,1.8C1205.1,868.5,1207.2,872.5,1212.8,873.7"/>
<path d="M1212.8,836.5c0.7,0.1,1.3,0.2,2,0.2c9.5,0,23.7-13,23.4-23.4c-0.3-2.6-0.2-6-5.4-8.1c-1.5-0.7-3.1-1-4.8-1
	c-10.6,0-22.1,12.2-22.9,20.3c0,0.6-0.1,1.2-0.1,1.8C1205.1,831.3,1207.2,835.3,1212.8,836.5"/>
<path d="M1261.2,873.7c0.7,0.1,1.3,0.2,2,0.2c9.5,0,23.7-13,23.4-23.4c-0.3-2.6-0.2-6-5.4-8.1c-1.5-0.7-3.1-1-4.8-1
	c-10.6,0-22.1,12.2-22.9,20.3c0,0.6-0.1,1.2-0.1,1.8C1253.4,868.5,1255.6,872.5,1261.2,873.7"/>
<path d="M1261.2,848.9c0.7,0.1,1.3,0.2,2,0.2c9.5,0,23.7-13,23.4-23.4c-0.3-2.6-0.2-6-5.4-8.1c-1.5-0.7-3.1-1-4.8-1
	c-10.6,0-22.1,12.2-22.9,20.3c0,0.6-0.1,1.2-0.1,1.8C1253.4,843.7,1255.6,847.7,1261.2,848.9"/>
<path d="M1309.6,873.7c0.7,0.1,1.3,0.2,2,0.2c9.5,0,23.7-13,23.4-23.4c-0.3-2.6-0.2-6-5.4-8.1c-1.5-0.7-3.1-1-4.8-1
	c-10.6,0-22.1,12.2-22.9,20.3c0,0.6-0.1,1.2-0.1,1.8C1301.8,868.5,1304,872.5,1309.6,873.7"/>
<path d="M1309.6,836.5c0.7,0.1,1.3,0.2,2,0.2c9.5,0,23.7-13,23.4-23.4c-0.3-2.6-0.2-6-5.4-8.1c-1.5-0.7-3.1-1-4.8-1
	c-10.6,0-22.1,12.2-22.9,20.3c0,0.6-0.1,1.2-0.1,1.8C1301.8,831.3,1304,835.3,1309.6,836.5"/>
<path d="M1416.1,861.3c0.7,0.1,1.3,0.2,2,0.2c9.5,0,23.7-13,23.4-23.4c-0.3-2.6-0.2-6-5.4-8.1c-1.5-0.7-3.1-1-4.8-1
	c-10.6,0-22.1,12.2-22.9,20.3c0,0.6-0.1,1.2-0.1,1.8C1408.4,856.1,1410.6,860.1,1416.1,861.3"/>
<path d="M1416.1,836.5c0.7,0.1,1.3,0.2,2,0.2c9.5,0,23.7-13,23.4-23.4c-0.3-2.6-0.2-6-5.4-8.1c-1.5-0.7-3.1-1-4.8-1
	c-10.6,0-22.1,12.2-22.9,20.3c0,0.6-0.1,1.2-0.1,1.8C1408.4,831.3,1410.6,835.3,1416.1,836.5"/>
<path d="M1582,861.3c0.7,0.1,1.3,0.2,2,0.2c9.5,0,23.7-13,23.4-23.4c-0.3-2.6-0.2-6-5.4-8.1c-1.5-0.7-3.1-1-4.8-1
	c-10.6,0-22.1,12.2-22.9,20.3c0,0.6-0.1,1.2-0.1,1.8C1574.3,856.1,1576.5,860.1,1582,861.3"/>
<path d="M1582,836.5c0.7,0.1,1.3,0.2,2,0.2c9.5,0,23.7-13,23.4-23.4c-0.3-2.6-0.2-6-5.4-8.1c-1.5-0.7-3.1-1-4.8-1
	c-10.6,0-22.1,12.2-22.9,20.3c0,0.6-0.1,1.2-0.1,1.8C1574.3,831.3,1576.5,835.3,1582,836.5"/>
<path d="M1747.9,873.7c0.7,0.1,1.3,0.2,2,0.2c9.5,0,23.7-13,23.4-23.4c-0.3-2.6-0.2-6-5.4-8.1c-1.5-0.7-3.1-1-4.8-1
	c-10.6,0-22.1,12.2-22.9,20.3c0,0.6-0.1,1.2-0.1,1.8C1740.2,868.5,1742.4,872.5,1747.9,873.7"/>
<path d="M1747.9,848.9c0.7,0.1,1.3,0.2,2,0.2c9.5,0,23.7-13,23.4-23.4c-0.3-2.6-0.2-6-5.4-8.1c-1.5-0.7-3.1-1-4.8-1
	c-10.6,0-22.1,12.2-22.9,20.3c0,0.6-0.1,1.2-0.1,1.8C1740.2,843.7,1742.4,847.7,1747.9,848.9"/>
<path d="M2003.6,886.1c0.7,0.1,1.3,0.2,2,0.2c9.5,0,23.7-13,23.4-23.4c-0.3-2.6-0.2-6-5.4-8.1c-1.5-0.7-3.1-1-4.8-1
	c-10.6,0-22.1,12.2-22.9,20.3c0,0.6-0.1,1.2-0.1,1.8C1995.8,880.9,1998,884.9,2003.6,886.1"/>
<path d="M2003.6,848.9c0.7,0.1,1.3,0.2,2,0.2c9.5,0,23.7-13,23.4-23.4c-0.3-2.6-0.2-6-5.4-8.1c-1.5-0.7-3.1-1-4.8-1
	c-10.6,0-22.1,12.2-22.9,20.3c0,0.6-0.1,1.2-0.1,1.8C1995.8,843.7,1998,847.7,2003.6,848.9"/>
<path d="M2039.4,868.9c0.5,0.1,0.9,0.1,1.4,0.1c6.7,0,16.6-9.1,16.4-16.4c-0.2-1.8-0.1-4.2-3.8-5.7c-1-0.5-2.1-0.7-3.3-0.7
	c-7.4,0-15.5,8.6-16,14.2c0,0.4-0.1,0.8-0.1,1.3C2033.9,865.2,2035.5,868,2039.4,868.9"/>
<path d="M2091.1,886.1c0.7,0.1,1.3,0.2,2,0.2c9.5,0,23.7-13,23.4-23.4c-0.3-2.6-0.2-6-5.4-8.1c-1.5-0.7-3.1-1-4.8-1
	c-10.6,0-22.1,12.2-22.9,20.3c0,0.6-0.1,1.2-0.1,1.8C2083.3,880.9,2085.5,884.9,2091.1,886.1"/>
<path d="M2091.1,848.9c0.7,0.1,1.3,0.2,2,0.2c9.5,0,23.7-13,23.4-23.4c-0.3-2.6-0.2-6-5.4-8.1c-1.5-0.7-3.1-1-4.8-1
	c-10.6,0-22.1,12.2-22.9,20.3c0,0.6-0.1,1.2-0.1,1.8C2083.3,843.7,2085.5,847.7,2091.1,848.9"/>
<path d="M267.6,1166.7c13.1-1.9,21.6-9.6,27.7-20.7c4-7.3,4.9-15.3,5-24.2c0-1.5-0.2-3.8-0.5-6c-1.6-12.7-10-19.1-21.2-19.1
	c-0.8,0-1.7,0-2.5,0.1c-10.4,0.9-19.7,4.7-27.1,12.1c-3.3,3.3-6.4,6.5-7.8,11.2c-0.4,1.5-0.6,2.9-0.6,4.2c0,4.5,2.4,8,7.1,10.2
	c0.3,0.1,0.5,0.3,0.8,0.4c1.5,0.8,2.9,1.2,4.3,1.2c2,0,3.9-0.8,5.6-2.3c4-3.2,5.8-7.1,5.8-11.6c0-1.6-0.2-3.2-0.6-4.8
	c-0.1-0.6-0.2-1.2-0.2-1.8c0-2.7,1.6-4.6,4.8-4.8c0.8-0.1,1.5-0.1,2.2-0.1c4.8,0,9.1,1.4,12.6,4.9c4.5,4.4,6.9,10,8.3,16.3
	c0.2,0.7,0.2,1.5,0.2,2.1c0,2.3-0.8,4.3-2.1,6.4c-2,3.3-4.4,6-7.5,8.4c-6.2,4.7-13.3,6.7-20.7,6.7h-6.4c-4.1,0-8-0.2-12-1.4
	c-1.5-0.5-2.7,0.7-2.7,2.1c0,0.3,0,0.6,0.1,0.9c0.3,1.1,0.6,2.2,1.1,3.2c1.2,2.6,2.3,5.1,5.8,5.8c4.4,0.9,8.5,1.4,12.9,1.4
	C262.3,1167.3,264.9,1167.1,267.6,1166.7 M310,1111.7c1.6,0.1,3.5-0.3,4.3-1.8c1.3-2.2,2.6-4.3,2.6-6.9c0-0.7-0.1-1.5-0.3-2.3
	c-0.8-3.1-3.1-1.7-4.7-2.5c-1.2-0.6-1.5,1-2,1.8c-1.9,2.9-1.4,6.4-2.3,9.5c-0.3,1.1,0.2,2.3,1.7,2.3L310,1111.7 M306.9,1137.4
	c3.6-0.1,6.7-4.9,6.7-9.1c0-3-1.7-2.5-3.1-3c-1.5-0.6-1.9,0.6-2.5,1.5c-1.8,2.6-1.8,5.7-2.8,8.4c-0.4,1.1,0,2.2,1.4,2.2H306.9"/>
<path d="M263.5,888.3c0.5,0,1-0.1,1.6-0.3c1.2-0.4,2.2-1,3-1.9c8.2-8.6,11.6-19.1,11.9-30.7c0-0.9,0.1-2.4,0.1-2.4s1.4-0.8,2-1
	c3.3-1.6,6.4-3.4,9.3-5.7c7.5-6.1,11.9-14.3,13.9-23.4c0.4-1.5,0.5-3,0.5-4.4c0-6.2-3.5-10.8-11.4-12.3c-2-0.4-4-0.6-6-0.6
	c-5,0-9.7,1.3-14.2,4c-0.6,0.3-1.2,0.7-1.2,0.7l-2.6-9.6c-0.1-0.5-0.1-1.4-0.1-1.4s10.1-18,11.5-27.2c0.5-2.7,0.7-5.3,0.7-8
	c0-2.1-0.1-4.1-0.4-6c-1-7.1-3.7-13.9-5.5-20.9c-0.5-2.1-1.2-4.6-3.6-4.6c-1.8,0-3.1,1.7-4.2,3.2c-5.1,7-7.5,15.1-8,23.7
	c-0.1,1.4-0.1,2.8-0.1,4.2c0,8,1.3,16.1,2.4,24c0,0.6,0.2,1.2,0.3,1.7c-4.5,6.4-9.4,12.3-13.7,18.9c-3,4.7-6.2,9.3-8.3,14.6
	c-1.1,2.6-1.6,5.5-1.6,8.5c0,6.2,2.1,12.4,5.7,15.9c2.1,2,5.3,4.2,8.6,5.4c4.6,1.7,9.1,2.8,14,2.8c1.4,0,2.9-0.1,4.4-0.3l1.2-0.2
	c0,0,0.1,0.9,0,1.4c-1.1,6-2.6,11.8-6.2,16.8c-1.9,2.6-3.7,5.5-7.4,5.8c-1.1,0.1-1.6,0.8-1.6,1.7c0,0.4,0.1,0.7,0.2,1.1
	c0.6,1.5,1.3,3.1,2,4.6C261.3,887.6,262.3,888.3,263.5,888.3 M267.5,783.5c-0.8-4.8-1.3-9.4-1.3-14.1c0-8.6,1.8-17.1,6.9-25.1
	c1.2,3.7,1.8,7.3,1.8,11.1c0,1.9-0.2,3.9-0.5,5.9C273,769,271.2,776.5,267.5,783.5 M257.2,842.2c-1.4-0.1-2.6-0.6-3.9-1
	c-2.6-0.9-4.8-1.9-5.5-3.6c-0.3-0.8-0.4-1.7-0.4-2.6c0-1.1,0.2-2.3,0.4-3.5c0.1-0.6,0.7-2.3,0.9-2.6c3.9-6.8,8.5-13.1,13.4-19.3
	l4.2-5.5l0.7,2.2c0.8,2.5,1.5,6.4,1.5,6.4s-2.8,3.6-4.6,5.4c-5,4.9-7.3,10.9-7.3,17.6c0,1.7,0.2,3.4,0.5,5.1
	C257.2,841.3,257.2,841.6,257.2,842.2 M278.7,839.1c-0.8-6.4-2.3-11.6-3.7-17.9c-0.1-0.7-0.1-1.2,0.2-1.6c2.6-0.5,5.1-0.7,7.6-0.7
	c2.5,0,4.9,0.2,7.3,0.7c3,0.6,6,1.1,8.2,3.5c0.2,0.2,0.4,0.4,0.6,0.5c-4,7.9-9.8,13.9-18.2,17.6l-1.8,0.7L278.7,839.1 M268.2,843.9
	c-3.5,0-6.9-0.9-6.9-0.9s-0.3-1.4-0.3-3.4c0-1.3,0.1-2.9,0.5-4.5c1-4.8,4.4-8.1,7.9-11.3c0.3-0.3,0.6-0.5,0.8-0.5
	c0.4,0,0.5,0.4,0.6,1.1c0.9,5.9,2.4,11.6,2.8,17.5c0.1,0.6,0,1.5,0,1.5S271,844.1,268.2,843.9"/>
<path d="M381.6,1142.8c1,0.3,1.8-0.6,2.3-1.4c1.3-1.7,1.5-3.7,1.8-5.7c1.1-9.4,0.9-18.9,1.3-28.4v-1c3.5-0.7,6.7-1.9,10-3.4
	c4.9-2.3,5.7-3.5,5.5-8.7c0-2.5-0.5-3.6-1.8-3.7c-0.6,0-1.5,0.3-2.6,0.9l-0.7,0.3c-3.4,1.5-6.9,2.7-10.4,3.4c0-4.4-0.2-8.7-0.4-13.1
	c-0.2-3.7-0.3-7.4-0.6-11.1c-0.1-0.8,0-2.4-1.3-2.4c-1.2,0-2.1,0.8-2.2,2.3c-0.1,1.8-0.6,3.6-0.5,5.3c0.1,6.6,0.3,13.1,0.3,19.5
	c-1.2,0.1-2.4,0.1-3.5,0c-6-0.4-12-1.4-18.2-1.3c-2.2,0-4.4,0.1-6.6,0.4c2.2-4.2,4-8,6.3-11.8c5.3-8.6,10.9-17.2,14.6-26.8
	c0.9-2.3,1.6-4.6,1.6-6.9c0-0.7-0.1-1.4-0.2-2.1c-0.1-0.6-0.1-1.7-0.9-1.7c-0.8-0.1-1.8,0.2-2.3,1c-0.3,0.6-0.7,1.1-0.9,1.7
	c-1.4,4.5-3.9,8.3-6.2,12.3c-2.9,4.9-6.2,9.5-9,14.4c-4.1,6.9-7.4,14-12.4,20.2c-1.6,2-3.1,4.1-3.1,6.5c0,0.9,0.2,1.8,0.6,2.7
	c0.4,0.9,0.9,1.8,0.9,2.7c0.1,1.5,0.4,2,1.2,2.1c0.4,0,1-0.2,1.7-0.6c4.4-1.9,8.8-2.9,13.5-2.9c6.2,0,12.3,1,18.5,1.4
	c0.7,0.1,1.4,0.1,2.1,0.2c0.7,0,1.4,0,2.1-0.2c-0.2,5.6-0.3,11.3-0.7,17c-0.2,4.4-0.7,8.7-0.7,13.3c0,1.1,0,2.1,0.1,3.1
	C380.9,1141.3,380.8,1142.5,381.6,1142.8"/>
<path d="M381.6,1240.1c1,0.3,1.8-0.6,2.3-1.4c1.3-1.7,1.5-3.7,1.8-5.7c1.1-9.4,0.9-18.9,1.3-28.4v-1c3.5-0.7,6.7-1.9,10-3.4
	c4.9-2.3,5.7-3.5,5.5-8.7c0-2.5-0.5-3.6-1.8-3.7c-0.6,0-1.5,0.3-2.6,0.9l-0.7,0.3c-3.4,1.5-6.9,2.7-10.4,3.4c0-4.4-0.2-8.7-0.4-13.1
	c-0.2-3.7-0.3-7.4-0.6-11.1c-0.1-0.8,0-2.4-1.3-2.4c-1.2,0-2.1,0.8-2.2,2.3c-0.1,1.8-0.6,3.6-0.5,5.3c0.1,6.6,0.3,13.1,0.3,19.5
	c-1.2,0.1-2.4,0.1-3.5,0c-6-0.4-12-1.4-18.2-1.3c-2.2,0-4.4,0.1-6.6,0.4c2.2-4.2,4-8,6.3-11.8c5.3-8.6,10.9-17.2,14.6-26.8
	c0.9-2.3,1.6-4.6,1.6-6.9c0-0.7-0.1-1.4-0.2-2.1c-0.1-0.6-0.1-1.7-0.9-1.7c-0.8-0.1-1.8,0.2-2.3,1c-0.3,0.6-0.7,1.1-0.9,1.7
	c-1.4,4.5-3.9,8.3-6.2,12.3c-2.9,4.9-6.2,9.5-9,14.4c-4.1,6.9-7.4,14-12.4,20.2c-1.6,2-3.1,4.1-3.1,6.5c0,0.9,0.2,1.8,0.6,2.7
	c0.4,0.9,0.9,1.8,0.9,2.7c0.1,1.5,0.4,2,1.2,2.1c0.4,0,1-0.2,1.7-0.6c4.4-1.9,8.8-2.9,13.5-2.9c6.2,0,12.3,1,18.5,1.4
	c0.7,0.1,1.4,0.1,2.1,0.2c0.7,0,1.4,0,2.1-0.2c-0.2,5.6-0.3,11.3-0.7,17c-0.2,4.4-0.7,8.7-0.7,13.3c0,1.1,0,2.1,0.1,3.1
	C380.9,1238.6,380.8,1239.8,381.6,1240.1"/>
<path d="M381.6,807.9c1,0.3,1.8-0.6,2.3-1.4c1.3-1.7,1.5-3.7,1.8-5.7c1.1-9.4,0.9-18.9,1.3-28.4v-1c3.5-0.7,6.7-1.9,10-3.4
	c4.9-2.3,5.7-3.5,5.5-8.7c0-2.5-0.5-3.6-1.8-3.7c-0.6,0-1.5,0.3-2.6,0.9l-0.7,0.3c-3.4,1.5-6.9,2.7-10.4,3.4c0-4.4-0.2-8.7-0.4-13.1
	c-0.2-3.7-0.3-7.4-0.6-11.1c-0.1-0.8,0-2.4-1.3-2.4c-1.2,0-2.1,0.8-2.2,2.3c-0.1,1.8-0.6,3.6-0.5,5.3c0.1,6.6,0.3,13.1,0.3,19.5
	c-1.2,0.1-2.4,0.1-3.5,0c-6-0.4-12-1.4-18.2-1.3c-2.2,0-4.4,0.1-6.6,0.4c2.2-4.2,4-8,6.3-11.8c5.3-8.6,10.9-17.2,14.6-26.8
	c0.9-2.3,1.6-4.6,1.6-6.9c0-0.7-0.1-1.4-0.2-2.1c-0.1-0.6-0.1-1.7-0.9-1.7c-0.8-0.1-1.8,0.2-2.3,1c-0.3,0.6-0.7,1.1-0.9,1.7
	c-1.4,4.5-3.9,8.3-6.2,12.3c-2.9,4.9-6.2,9.5-9,14.4c-4.1,6.9-7.4,14-12.4,20.2c-1.6,2-3.1,4.1-3.1,6.5c0,0.9,0.2,1.8,0.6,2.7
	c0.4,0.9,0.9,1.8,0.9,2.7c0.1,1.5,0.4,2,1.2,2.1c0.4,0,1-0.2,1.7-0.6c4.4-1.9,8.8-2.9,13.5-2.9c6.2,0,12.3,1,18.5,1.4
	c0.7,0.1,1.4,0.1,2.1,0.2c0.7,0,1.4,0,2.1-0.2c-0.2,5.6-0.3,11.3-0.7,17c-0.2,4.4-0.7,8.7-0.7,13.3c0,1.1,0,2.1,0.1,3.1
	C380.9,806.4,380.8,807.6,381.6,807.9"/>
<path d="M381.6,905.2c1,0.3,1.8-0.6,2.3-1.4c1.3-1.7,1.5-3.7,1.8-5.7c1.1-9.4,0.9-18.9,1.3-28.4v-1c3.5-0.7,6.7-1.9,10-3.4
	c4.9-2.3,5.7-3.5,5.5-8.7c0-2.5-0.5-3.6-1.8-3.7c-0.6,0-1.5,0.3-2.6,0.9l-0.7,0.3c-3.4,1.5-6.9,2.7-10.4,3.4c0-4.4-0.2-8.7-0.4-13.1
	c-0.2-3.7-0.3-7.4-0.6-11.1c-0.1-0.8,0-2.4-1.3-2.4c-1.2,0-2.1,0.8-2.2,2.3c-0.1,1.8-0.6,3.6-0.5,5.3c0.1,6.6,0.3,13.1,0.3,19.5
	c-1.2,0.1-2.4,0.1-3.5,0c-6-0.4-12-1.4-18.2-1.3c-2.2,0-4.4,0.1-6.6,0.4c2.2-4.2,4-8,6.3-11.8c5.3-8.6,10.9-17.2,14.6-26.8
	c0.9-2.3,1.6-4.6,1.6-6.9c0-0.7-0.1-1.4-0.2-2.1c-0.1-0.6-0.1-1.7-0.9-1.7c-0.8-0.1-1.8,0.2-2.3,1c-0.3,0.6-0.7,1.1-0.9,1.7
	c-1.4,4.5-3.9,8.3-6.2,12.3c-2.9,4.9-6.2,9.5-9,14.4c-4.1,6.9-7.4,14-12.4,20.2c-1.6,2-3.1,4.1-3.1,6.5c0,0.9,0.2,1.8,0.6,2.7
	c0.4,0.9,0.9,1.8,0.9,2.7c0.1,1.5,0.4,2,1.2,2.1c0.4,0,1-0.2,1.7-0.6c4.4-1.9,8.8-2.9,13.5-2.9c6.2,0,12.3,1,18.5,1.4
	c0.7,0.1,1.4,0.1,2.1,0.2c0.7,0,1.4,0,2.1-0.2c-0.2,5.6-0.3,11.3-0.7,17c-0.2,4.4-0.7,8.7-0.7,13.3c0,1.1,0,2.1,0.1,3.1
	C380.9,903.7,380.8,904.9,381.6,905.2"/>
<path d="M755.1,1175.4c0.9,0.4,1.9-0.2,2.6-0.9c2.3-2.3,3.7-5.1,4.2-8.2c0.4-2.6,0.7-5.3,1.2-7.7c1.8-9.1,4.3-18,7.1-26.7
	c1.2-3.7,3.6-6.7,3.6-10.8c0-0.9-0.2-1.6-0.9-2c-0.4-0.2-0.9-0.3-1.5-0.3c-0.9,0-1.8,0.3-2.6,1c-0.2,0.1-0.3,0.2-0.4,0.3
	c-4,2.7-7.4,6-12.3,8.1c0.4-1.3,0.8-2.2,0.9-3.1c0.1-0.4,0.1-0.8,0.1-1.2c0-1.8-0.8-4-1.8-4.3c-0.4-0.1-0.9-0.2-1.3-0.2
	c-2.6,0-6.2,1.7-7.3,3.6c-1.4,2.4-1.9,5-1.9,7.5c0,7.1,2.3,10.5,6.7,10.5c1.6,0,3.4-0.5,5.6-1.3c2.4-0.9,4.3-2.5,7-3.8
	c-1.8,3.6-2.5,6.9-3.4,10.3c-0.9,3.5-3.8,4-6.4,5.1c-0.6,0.3-1.4,0.3-1.4-0.6v-0.2c0.1-1.6-0.8-2.7-1.3-4c-1.1-3.2-3.9-2.6-6.1-3.1
	c-1.8-0.4-2.8,1.3-3.6,2.7c-0.9,1.8-1.2,3.6-1.2,5.5c0,1.4,0.1,2.8,0.4,4.1c0.8,5.3,2.2,7.4,5.3,7.4c1.4,0,3.2-0.3,5.3-1.2
	c1.5-0.6,3-1.2,4.1-2.4c0.3-0.4,0.7-0.8,1.2-0.8c0.2,0,0.3,0,0.5,0.1c0.3,1-0.3,2-0.6,3c-1,4.1-2.3,8.2-2.3,12.5
	C754.6,1174.8,754.7,1175.2,755.1,1175.4"/>
<path d="M822.7,1175.4c0.9,0.4,1.9-0.2,2.6-0.9c2.3-2.3,3.7-5.1,4.2-8.2c0.4-2.6,0.7-5.3,1.2-7.7c1.8-9.1,4.3-18,7.1-26.7
	c1.2-3.7,3.6-6.7,3.6-10.8c0-0.9-0.2-1.6-0.9-2c-0.4-0.2-0.9-0.3-1.5-0.3c-0.9,0-1.8,0.3-2.6,1c-0.2,0.1-0.3,0.2-0.4,0.3
	c-4,2.7-7.4,6-12.3,8.1c0.4-1.3,0.8-2.2,0.9-3.1c0.1-0.4,0.1-0.8,0.1-1.2c0-1.8-0.8-4-1.8-4.3c-0.4-0.1-0.9-0.2-1.3-0.2
	c-2.6,0-6.2,1.7-7.3,3.6c-1.4,2.4-1.9,5-1.9,7.5c0,7.1,2.3,10.5,6.7,10.5c1.6,0,3.4-0.5,5.6-1.3c2.4-0.9,4.3-2.5,7-3.8
	c-1.8,3.6-2.5,6.9-3.4,10.3c-0.9,3.5-3.8,4-6.4,5.1c-0.6,0.3-1.4,0.3-1.4-0.6v-0.2c0.1-1.6-0.8-2.7-1.3-4c-1.1-3.2-3.9-2.6-6.1-3.1
	c-1.8-0.4-2.8,1.3-3.6,2.7c-0.9,1.8-1.2,3.6-1.2,5.5c0,1.4,0.1,2.8,0.4,4.1c0.8,5.3,2.2,7.4,5.3,7.4c1.4,0,3.2-0.3,5.3-1.2
	c1.5-0.6,3-1.2,4.1-2.4c0.3-0.4,0.7-0.8,1.2-0.8c0.2,0,0.3,0,0.5,0.1c0.3,1-0.3,2-0.6,3c-1,4.1-2.3,8.2-2.3,12.5
	C822.2,1174.8,822.3,1175.2,822.7,1175.4"/>
<path d="M916.4,1168.7c1.8-0.1,2.7-1.2,3.3-2.4c1.8-3.3,3.2-6.7,4.5-10.3c3.9-10.6,5.7-21.9,9.2-32.7c0.2-0.6,0.4-1.3,0.4-2v-0.5
	c-0.1-1.4-0.4-2.3-1.6-2.3c-0.3,0-0.5,0-0.8,0.1c-2.4,0.4-4.6,1.4-6.2,2.9c-2.5,2.4-5.3,4.2-8.1,6c-0.4,0.2-0.8,0.4-1.2,0.4
	c-0.4,0-0.8-0.2-1.2-0.6c-0.4-0.4-0.6-0.9-0.6-1.3c0-0.4,0.1-0.7,0.3-1.1c0.4-0.7,0.8-1.6,0.8-2.5c0-1.7,0.5-3.9-1.4-4.8
	c-0.9-0.4-1.7-0.6-2.3-0.6c-1.3,0-2.1,0.9-3.2,2.8c-1.9,3.3-2.5,6.9-3.1,10.6c-0.1,0.8-0.2,1.5-0.2,2.2c0,4.6,2.4,8.6,7.5,8.6
	c1.2,0,2.7-0.2,4.3-0.8c2.9-1.1,5.3-2.7,8.1-4.5C922.7,1147.2,918.4,1157.6,916.4,1168.7"/>
<path d="M993.8,1168.7c1.8-0.1,2.7-1.2,3.3-2.4c1.8-3.3,3.2-6.7,4.5-10.3c3.9-10.6,5.7-21.9,9.2-32.7c0.2-0.6,0.4-1.3,0.4-2v-0.5
	c-0.1-1.4-0.4-2.3-1.6-2.3c-0.3,0-0.5,0-0.8,0.1c-2.4,0.4-4.6,1.4-6.2,2.9c-2.5,2.4-5.3,4.2-8.1,6c-0.4,0.2-0.8,0.4-1.2,0.4
	c-0.4,0-0.8-0.2-1.2-0.6c-0.4-0.4-0.6-0.9-0.6-1.3c0-0.4,0.1-0.7,0.3-1.1c0.4-0.7,0.8-1.6,0.8-2.5c0-1.7,0.5-3.9-1.4-4.8
	c-0.9-0.4-1.7-0.6-2.3-0.6c-1.3,0-2.1,0.9-3.2,2.8c-1.9,3.3-2.5,6.9-3.1,10.6c-0.1,0.8-0.2,1.5-0.2,2.2c0,4.6,2.4,8.6,7.5,8.6
	c1.2,0,2.7-0.2,4.3-0.8c2.9-1.1,5.3-2.7,8.1-4.5C1000.2,1147.2,995.8,1157.6,993.8,1168.7"/>
<path d="M1167.1,1184c0.8-0.5,0.7-1.5,0.9-2.3c0-0.4-0.2-0.8-0.3-1.2c-0.8-3.5-1.7-6.9-2.5-10.3c-0.1-0.4-0.1-0.8-0.1-1.1
	c0-3.4,2.5-7.4,5.3-8.6c0.7-0.4,1.3-0.1,2,0.1c3.2,1,4.9,3.7,6.7,6.2c0.5,0.7,1.2,1.6,2,1.6c0.2,0,0.3,0,0.5-0.1
	c0.9-0.4,1.3-1.3,1.3-2.2l-0.1-0.7c-0.4-2.3-0.8-4.7-2.3-6.4c-3-3.6-4.6-7.9-6.6-12c-0.3-0.6-0.5-1.1-0.5-1.5c0-0.7,0.4-1.3,1.1-2
	c1.8-1.9,3.7-3.6,4.9-5.9c1.1-1.8,1.8-3.7,1.8-5.5c0-1.3-0.3-2.6-1.2-4c-3-5-6.1-9.8-8.5-15.1c-1.7-3.6-3.8-6.9-6.7-9.6
	c-0.7-0.7-1.6-1.6-2.6-1.6c-0.4,0-0.8,0.1-1.3,0.4c-1,0.6-1.4,1.4-1.4,2.1c0,0.8,0.4,1.6,1,2.4c3.1,4,5,8.6,7.9,12.6
	c0.9,1.1,1.3,1.9,1.3,2.6c0,0.9-0.8,1.6-2.4,2.6c-2.1,1.2-4.3,2.4-6.2,3.9c-1,0.7-1.5,1.5-1.5,2.3c0,0.5,0.2,1,0.4,1.5
	c1,2.3,2.3,4.4,3.7,6.4c2.2,3.1,4.2,6.4,5.8,9.9c-0.7,0.6-1.3,0.4-1.9,0.5c-6.7,0.9-11.2,6-10.7,12c0.7,7.3,3.4,14,6.7,20.4
	c0.4,0.8,0.9,1.6,1.9,1.9c0.6,0.2,1,0.9,1.5,0.9C1166.8,1184.1,1167,1184.1,1167.1,1184"/>
<path d="M1422.8,1175.4c0.9,0.4,1.9-0.2,2.6-0.9c2.3-2.3,3.7-5.1,4.2-8.2c0.4-2.6,0.7-5.3,1.2-7.7c1.8-9.1,4.3-18,7.1-26.7
	c1.2-3.7,3.6-6.7,3.6-10.8c0-0.9-0.2-1.6-0.9-2c-0.4-0.2-0.9-0.3-1.5-0.3c-0.9,0-1.8,0.3-2.6,1c-0.2,0.1-0.3,0.2-0.4,0.3
	c-4,2.7-7.4,6-12.3,8.1c0.4-1.3,0.8-2.2,0.9-3.1c0.1-0.4,0.1-0.8,0.1-1.2c0-1.8-0.8-4-1.8-4.3c-0.4-0.1-0.9-0.2-1.3-0.2
	c-2.6,0-6.2,1.7-7.3,3.6c-1.4,2.4-1.9,5-1.9,7.5c0,7.1,2.3,10.5,6.7,10.5c1.6,0,3.4-0.5,5.6-1.3c2.4-0.9,4.3-2.5,7-3.8
	c-1.8,3.6-2.5,6.9-3.4,10.3c-0.9,3.5-3.8,4-6.4,5.1c-0.6,0.3-1.4,0.3-1.4-0.6v-0.2c0.1-1.6-0.8-2.7-1.3-4c-1.1-3.2-3.9-2.6-6.1-3.1
	c-1.8-0.4-2.8,1.3-3.6,2.7c-0.9,1.8-1.2,3.6-1.2,5.5c0,1.4,0.1,2.8,0.4,4.1c0.8,5.3,2.2,7.4,5.3,7.4c1.4,0,3.2-0.3,5.3-1.2
	c1.5-0.6,3-1.2,4.1-2.4c0.3-0.4,0.7-0.8,1.2-0.8c0.2,0,0.3,0,0.5,0.1c0.3,1-0.3,2-0.6,3c-1,4.1-2.3,8.2-2.3,12.5
	C1422.3,1174.8,1422.4,1175.2,1422.8,1175.4"/>
<path d="M1588.7,1175.4c0.9,0.4,1.9-0.2,2.6-0.9c2.3-2.3,3.7-5.1,4.2-8.2c0.4-2.6,0.7-5.3,1.2-7.7c1.8-9.1,4.3-18,7.1-26.7
	c1.2-3.7,3.6-6.7,3.6-10.8c0-0.9-0.2-1.6-0.9-2c-0.4-0.2-0.9-0.3-1.5-0.3c-0.9,0-1.8,0.3-2.6,1c-0.2,0.1-0.3,0.2-0.4,0.3
	c-4,2.7-7.4,6-12.3,8.1c0.4-1.3,0.8-2.2,0.9-3.1c0.1-0.4,0.1-0.8,0.1-1.2c0-1.8-0.8-4-1.8-4.3c-0.4-0.1-0.9-0.2-1.3-0.2
	c-2.6,0-6.2,1.7-7.3,3.6c-1.4,2.4-1.9,5-1.9,7.5c0,7.1,2.3,10.5,6.7,10.5c1.6,0,3.4-0.5,5.6-1.3c2.4-0.9,4.3-2.5,7-3.8
	c-1.8,3.6-2.5,6.9-3.4,10.3c-0.9,3.5-3.8,4-6.4,5.1c-0.6,0.3-1.4,0.3-1.4-0.6v-0.2c0.1-1.6-0.8-2.7-1.3-4c-1.1-3.2-3.9-2.6-6.1-3.1
	c-1.8-0.4-2.8,1.3-3.6,2.7c-0.9,1.8-1.2,3.6-1.2,5.5c0,1.4,0.1,2.8,0.4,4.1c0.8,5.3,2.2,7.4,5.3,7.4c1.4,0,3.2-0.3,5.3-1.2
	c1.5-0.6,3-1.2,4.1-2.4c0.3-0.4,0.7-0.8,1.2-0.8c0.2,0,0.3,0,0.5,0.1c0.3,1-0.3,2-0.6,3c-1,4.1-2.3,8.2-2.3,12.5
	C1588.2,1174.8,1588.3,1175.2,1588.7,1175.4"/>
<path d="M1656.2,1175.4c0.9,0.4,1.9-0.2,2.6-0.9c2.3-2.3,3.7-5.1,4.2-8.2c0.4-2.6,0.7-5.3,1.2-7.7c1.8-9.1,4.3-18,7.1-26.7
	c1.2-3.7,3.6-6.7,3.6-10.8c0-0.9-0.2-1.6-0.9-2c-0.4-0.2-0.9-0.3-1.5-0.3c-0.9,0-1.8,0.3-2.6,1c-0.2,0.1-0.3,0.2-0.4,0.3
	c-4,2.7-7.4,6-12.3,8.1c0.4-1.3,0.8-2.2,0.9-3.1c0.1-0.4,0.1-0.8,0.1-1.2c0-1.8-0.8-4-1.8-4.3c-0.4-0.1-0.9-0.2-1.3-0.2
	c-2.6,0-6.2,1.7-7.3,3.6c-1.4,2.4-1.9,5-1.9,7.5c0,7.1,2.3,10.5,6.7,10.5c1.6,0,3.4-0.5,5.6-1.3c2.4-0.9,4.3-2.5,7-3.8
	c-1.8,3.6-2.5,6.9-3.4,10.3c-0.9,3.5-3.8,4-6.4,5.1c-0.6,0.3-1.4,0.3-1.4-0.6v-0.2c0.1-1.6-0.8-2.7-1.3-4c-1.1-3.2-3.9-2.6-6.1-3.1
	c-1.8-0.4-2.8,1.3-3.6,2.7c-0.9,1.8-1.2,3.6-1.2,5.5c0,1.4,0.1,2.8,0.4,4.1c0.8,5.3,2.2,7.4,5.3,7.4c1.4,0,3.2-0.3,5.3-1.2
	c1.5-0.6,3-1.2,4.1-2.4c0.3-0.4,0.7-0.8,1.2-0.8c0.2,0,0.3,0,0.5,0.1c0.3,1-0.3,2-0.6,3c-1,4.1-2.3,8.2-2.3,12.5
	C1655.7,1174.8,1655.8,1175.2,1656.2,1175.4"/>
<path d="M1751.5,1168.7c1.8-0.1,2.7-1.2,3.3-2.4c1.8-3.3,3.2-6.7,4.5-10.3c3.9-10.6,5.7-21.9,9.2-32.7c0.2-0.6,0.4-1.3,0.4-2v-0.5
	c-0.1-1.4-0.4-2.3-1.6-2.3c-0.3,0-0.5,0-0.8,0.1c-2.4,0.4-4.6,1.4-6.2,2.9c-2.5,2.4-5.3,4.2-8.1,6c-0.4,0.2-0.8,0.4-1.2,0.4
	c-0.4,0-0.8-0.2-1.2-0.6c-0.4-0.4-0.6-0.9-0.6-1.3c0-0.4,0.1-0.7,0.3-1.1c0.4-0.7,0.8-1.6,0.8-2.5c0-1.7,0.5-3.9-1.4-4.8
	c-0.9-0.4-1.7-0.6-2.3-0.6c-1.3,0-2.1,0.9-3.2,2.8c-1.9,3.3-2.5,6.9-3.1,10.6c-0.1,0.8-0.2,1.5-0.2,2.2c0,4.6,2.4,8.6,7.5,8.6
	c1.2,0,2.7-0.2,4.3-0.8c2.9-1.1,5.3-2.7,8.1-4.5C1757.8,1147.2,1753.5,1157.6,1751.5,1168.7"/>
<path d="M1830.2,1168.7c1.8-0.1,2.7-1.2,3.3-2.4c1.8-3.3,3.2-6.7,4.5-10.3c3.9-10.6,5.7-21.9,9.2-32.7c0.2-0.6,0.4-1.3,0.4-2v-0.5
	c-0.1-1.4-0.4-2.3-1.6-2.3c-0.3,0-0.5,0-0.8,0.1c-2.4,0.4-4.6,1.4-6.2,2.9c-2.5,2.4-5.3,4.2-8.1,6c-0.4,0.2-0.8,0.4-1.2,0.4
	c-0.4,0-0.8-0.2-1.2-0.6c-0.4-0.4-0.6-0.9-0.6-1.3c0-0.4,0.1-0.7,0.3-1.1c0.4-0.7,0.8-1.6,0.8-2.5c0-1.7,0.5-3.9-1.4-4.8
	c-0.9-0.4-1.7-0.6-2.3-0.6c-1.3,0-2.1,0.9-3.2,2.8c-1.9,3.3-2.5,6.9-3.1,10.6c-0.1,0.8-0.2,1.5-0.2,2.2c0,4.6,2.4,8.6,7.5,8.6
	c1.2,0,2.7-0.2,4.3-0.8c2.9-1.1,5.3-2.7,8.1-4.5C1836.5,1147.2,1832.2,1157.6,1830.2,1168.7"/>
<path d="M1911.9,1175.4c0.9,0.4,1.9-0.2,2.6-0.9c2.3-2.3,3.7-5.1,4.2-8.2c0.4-2.6,0.7-5.3,1.2-7.7c1.8-9.1,4.3-18,7.1-26.7
	c1.2-3.7,3.6-6.7,3.6-10.8c0-0.9-0.2-1.6-0.9-2c-0.4-0.2-0.9-0.3-1.5-0.3c-0.9,0-1.8,0.3-2.6,1c-0.2,0.1-0.3,0.2-0.4,0.3
	c-4,2.7-7.4,6-12.3,8.1c0.4-1.3,0.8-2.2,0.9-3.1c0.1-0.4,0.1-0.8,0.1-1.2c0-1.8-0.8-4-1.8-4.3c-0.4-0.1-0.9-0.2-1.3-0.2
	c-2.6,0-6.2,1.7-7.3,3.6c-1.4,2.4-1.9,5-1.9,7.5c0,7.1,2.3,10.5,6.7,10.5c1.6,0,3.4-0.5,5.6-1.3c2.4-0.9,4.3-2.5,7-3.8
	c-1.8,3.6-2.5,6.9-3.4,10.3c-0.9,3.5-3.8,4-6.4,5.1c-0.6,0.3-1.4,0.3-1.4-0.6v-0.2c0.1-1.6-0.8-2.7-1.3-4c-1.1-3.2-3.9-2.6-6.1-3.1
	c-1.8-0.4-2.8,1.3-3.6,2.7c-0.9,1.8-1.2,3.6-1.2,5.5c0,1.4,0.1,2.8,0.4,4.1c0.8,5.3,2.2,7.4,5.3,7.4c1.4,0,3.2-0.3,5.3-1.2
	c1.5-0.6,3-1.2,4.1-2.4c0.3-0.4,0.7-0.8,1.2-0.8c0.2,0,0.3,0,0.5,0.1c0.3,1-0.3,2-0.6,3c-1,4.1-2.3,8.2-2.3,12.5
	C1911.4,1174.8,1911.5,1175.2,1911.9,1175.4"/>
<path d="M2007.2,1168.7c1.8-0.1,2.7-1.2,3.3-2.4c1.8-3.3,3.2-6.7,4.5-10.3c3.9-10.6,5.7-21.9,9.2-32.7c0.2-0.6,0.4-1.3,0.4-2v-0.5
	c-0.1-1.4-0.4-2.3-1.6-2.3c-0.3,0-0.5,0-0.8,0.1c-2.4,0.4-4.6,1.4-6.2,2.9c-2.5,2.4-5.3,4.2-8.1,6c-0.4,0.2-0.8,0.4-1.2,0.4
	c-0.4,0-0.8-0.2-1.2-0.6c-0.4-0.4-0.6-0.9-0.6-1.3c0-0.4,0.1-0.7,0.3-1.1c0.4-0.7,0.8-1.6,0.8-2.5c0-1.7,0.5-3.9-1.4-4.8
	c-0.9-0.4-1.7-0.6-2.3-0.6c-1.3,0-2.1,0.9-3.2,2.8c-1.9,3.3-2.5,6.9-3.1,10.6c-0.1,0.8-0.2,1.5-0.2,2.2c0,4.6,2.4,8.6,7.5,8.6
	c1.2,0,2.7-0.2,4.3-0.8c2.9-1.1,5.3-2.7,8.1-4.5C2013.5,1147.2,2009.2,1157.6,2007.2,1168.7"/>
<path d="M2097.7,1175.4c0.9,0.4,1.9-0.2,2.6-0.9c2.3-2.3,3.7-5.1,4.2-8.2c0.4-2.6,0.7-5.3,1.2-7.7c1.8-9.1,4.3-18,7.1-26.7
	c1.2-3.7,3.6-6.7,3.6-10.8c0-0.9-0.2-1.6-0.9-2c-0.4-0.2-0.9-0.3-1.5-0.3c-0.9,0-1.8,0.3-2.6,1c-0.2,0.1-0.3,0.2-0.4,0.3
	c-4,2.7-7.4,6-12.3,8.1c0.4-1.3,0.8-2.2,0.9-3.1c0.1-0.4,0.1-0.8,0.1-1.2c0-1.8-0.8-4-1.8-4.3c-0.4-0.1-0.9-0.2-1.3-0.2
	c-2.6,0-6.2,1.7-7.3,3.6c-1.4,2.4-1.9,5-1.9,7.5c0,7.1,2.3,10.5,6.7,10.5c1.6,0,3.4-0.5,5.6-1.3c2.4-0.9,4.3-2.5,7-3.8
	c-1.8,3.6-2.5,6.9-3.4,10.3c-0.9,3.5-3.8,4-6.4,5.1c-0.6,0.3-1.4,0.3-1.4-0.6v-0.2c0.1-1.6-0.8-2.7-1.3-4c-1.1-3.2-3.9-2.6-6.1-3.1
	c-1.8-0.4-2.8,1.3-3.6,2.7c-0.9,1.8-1.2,3.6-1.2,5.5c0,1.4,0.1,2.8,0.4,4.1c0.8,5.3,2.2,7.4,5.3,7.4c1.4,0,3.2-0.3,5.3-1.2
	c1.5-0.6,3-1.2,4.1-2.4c0.3-0.4,0.7-0.8,1.2-0.8c0.2,0,0.3,0,0.5,0.1c0.3,1-0.3,2-0.6,3c-1,4.1-2.3,8.2-2.3,12.5
	C2097.2,1174.8,2097.3,1175.2,2097.7,1175.4"/>
<path d="M606.9,833.9c1.8-0.1,2.7-1.2,3.3-2.4c1.8-3.3,3.2-6.7,4.5-10.3c3.9-10.6,5.7-21.9,9.2-32.7c0.2-0.6,0.4-1.3,0.4-2v-0.5
	c-0.1-1.4-0.4-2.3-1.6-2.3c-0.3,0-0.5,0-0.8,0.1c-2.4,0.4-4.6,1.4-6.2,2.9c-2.5,2.4-5.3,4.2-8.1,6c-0.4,0.2-0.8,0.4-1.2,0.4
	c-0.4,0-0.8-0.2-1.2-0.6c-0.4-0.4-0.6-0.9-0.6-1.3c0-0.4,0.1-0.7,0.3-1.1c0.4-0.7,0.8-1.6,0.8-2.5c0-1.7,0.5-3.9-1.4-4.8
	c-0.9-0.4-1.7-0.6-2.3-0.6c-1.3,0-2.1,0.9-3.2,2.8c-1.9,3.3-2.5,6.9-3.1,10.6c-0.1,0.8-0.2,1.5-0.2,2.2c0,4.6,2.4,8.6,7.5,8.6
	c1.2,0,2.7-0.2,4.3-0.8c2.9-1.1,5.3-2.7,8.1-4.5C613.2,812.3,608.9,822.7,606.9,833.9"/>
<path d="M819.6,833.9c1.8-0.1,2.7-1.2,3.3-2.4c1.8-3.3,3.2-6.7,4.5-10.3c3.9-10.6,5.7-21.9,9.2-32.7c0.2-0.6,0.4-1.3,0.4-2v-0.5
	c-0.1-1.4-0.4-2.3-1.6-2.3c-0.3,0-0.5,0-0.8,0.1c-2.4,0.4-4.6,1.4-6.2,2.9c-2.5,2.4-5.3,4.2-8.1,6c-0.4,0.2-0.8,0.4-1.2,0.4
	c-0.4,0-0.8-0.2-1.2-0.6c-0.4-0.4-0.6-0.9-0.6-1.3c0-0.4,0.1-0.7,0.3-1.1c0.4-0.7,0.8-1.6,0.8-2.5c0-1.7,0.5-3.9-1.4-4.8
	c-0.9-0.4-1.7-0.6-2.3-0.6c-1.3,0-2.1,0.9-3.2,2.8c-1.9,3.3-2.5,6.9-3.1,10.6c-0.1,0.8-0.2,1.5-0.2,2.2c0,4.6,2.4,8.6,7.5,8.6
	c1.2,0,2.7-0.2,4.3-0.8c2.9-1.1,5.3-2.7,8.1-4.5C826,812.3,821.6,822.7,819.6,833.9"/>
<path d="M1071.2,833.9c1.8-0.1,2.7-1.2,3.3-2.4c1.8-3.3,3.2-6.7,4.5-10.3c3.9-10.6,5.7-21.9,9.2-32.7c0.2-0.6,0.4-1.3,0.4-2v-0.5
	c-0.1-1.4-0.4-2.3-1.6-2.3c-0.3,0-0.5,0-0.8,0.1c-2.4,0.4-4.6,1.4-6.2,2.9c-2.5,2.4-5.3,4.2-8.1,6c-0.4,0.2-0.8,0.4-1.2,0.4
	c-0.4,0-0.8-0.2-1.2-0.6c-0.4-0.4-0.6-0.9-0.6-1.3c0-0.4,0.1-0.7,0.3-1.1c0.4-0.7,0.8-1.6,0.8-2.5c0-1.7,0.5-3.9-1.4-4.8
	c-0.9-0.4-1.7-0.6-2.3-0.6c-1.3,0-2.1,0.9-3.2,2.8c-1.9,3.3-2.5,6.9-3.1,10.6c-0.1,0.8-0.2,1.5-0.2,2.2c0,4.6,2.4,8.6,7.5,8.6
	c1.2,0,2.7-0.2,4.3-0.8c2.9-1.1,5.3-2.7,8.1-4.5C1077.6,812.3,1073.2,822.7,1071.2,833.9"/>
<path d="M1490.3,840.5c0.9,0.4,1.9-0.2,2.6-0.9c2.3-2.3,3.7-5.1,4.2-8.2c0.4-2.6,0.7-5.3,1.2-7.7c1.8-9.1,4.3-18,7.1-26.7
	c1.2-3.7,3.6-6.7,3.6-10.8c0-0.9-0.2-1.6-0.9-2c-0.4-0.2-0.9-0.3-1.5-0.3c-0.9,0-1.8,0.3-2.6,1c-0.2,0.1-0.3,0.2-0.4,0.3
	c-4,2.7-7.4,6-12.3,8.1c0.4-1.3,0.8-2.2,0.9-3.1c0.1-0.4,0.1-0.8,0.1-1.2c0-1.8-0.8-4-1.8-4.3c-0.4-0.1-0.9-0.2-1.3-0.2
	c-2.6,0-6.2,1.7-7.3,3.6c-1.4,2.4-1.9,5-1.9,7.5c0,7.1,2.3,10.5,6.7,10.5c1.6,0,3.4-0.5,5.6-1.3c2.4-0.9,4.3-2.5,7-3.8
	c-1.8,3.6-2.5,6.9-3.4,10.3c-0.9,3.5-3.8,4-6.4,5.1c-0.6,0.3-1.4,0.3-1.4-0.6v-0.2c0.1-1.6-0.8-2.7-1.3-4c-1.1-3.2-3.9-2.6-6.1-3.1
	c-1.8-0.4-2.8,1.3-3.6,2.7c-0.9,1.8-1.2,3.6-1.2,5.5c0,1.4,0.1,2.8,0.4,4.1c0.8,5.3,2.2,7.4,5.3,7.4c1.4,0,3.2-0.3,5.3-1.2
	c1.5-0.6,3-1.2,4.1-2.4c0.3-0.4,0.7-0.8,1.2-0.8c0.2,0,0.3,0,0.5,0.1c0.3,1-0.3,2-0.6,3c-1,4.1-2.3,8.2-2.3,12.5
	C1489.8,839.9,1489.9,840.3,1490.3,840.5"/>
<path d="M1539.5,840.5c0.9,0.4,1.9-0.2,2.6-0.9c2.3-2.3,3.7-5.1,4.2-8.2c0.4-2.6,0.7-5.3,1.2-7.7c1.8-9.1,4.3-18,7.1-26.7
	c1.2-3.7,3.6-6.7,3.6-10.8c0-0.9-0.2-1.6-0.9-2c-0.4-0.2-0.9-0.3-1.5-0.3c-0.9,0-1.8,0.3-2.6,1c-0.2,0.1-0.3,0.2-0.4,0.3
	c-4,2.7-7.4,6-12.3,8.1c0.4-1.3,0.8-2.2,0.9-3.1c0.1-0.4,0.1-0.8,0.1-1.2c0-1.8-0.8-4-1.8-4.3c-0.4-0.1-0.9-0.2-1.3-0.2
	c-2.6,0-6.2,1.7-7.3,3.6c-1.4,2.4-1.9,5-1.9,7.5c0,7.1,2.3,10.5,6.7,10.5c1.6,0,3.4-0.5,5.6-1.3c2.4-0.9,4.3-2.5,7-3.8
	c-1.8,3.6-2.5,6.9-3.4,10.3c-0.9,3.5-3.8,4-6.4,5.1c-0.6,0.3-1.4,0.3-1.4-0.6v-0.2c0.1-1.6-0.8-2.7-1.3-4c-1.1-3.2-3.9-2.6-6.1-3.1
	c-1.8-0.4-2.8,1.3-3.6,2.7c-0.9,1.8-1.2,3.6-1.2,5.5c0,1.4,0.1,2.8,0.4,4.1c0.8,5.3,2.2,7.4,5.3,7.4c1.4,0,3.2-0.3,5.3-1.2
	c1.5-0.6,3-1.2,4.1-2.4c0.3-0.4,0.7-0.8,1.2-0.8c0.2,0,0.3,0,0.5,0.1c0.3,1-0.3,2-0.6,3c-1,4.1-2.3,8.2-2.3,12.5
	C1539,839.9,1539.1,840.3,1539.5,840.5"/>
<path d="M1653.2,833.9c1.8-0.1,2.7-1.2,3.3-2.4c1.8-3.3,3.2-6.7,4.5-10.3c3.9-10.6,5.7-21.9,9.2-32.7c0.2-0.6,0.4-1.3,0.4-2v-0.5
	c-0.1-1.4-0.4-2.3-1.6-2.3c-0.3,0-0.5,0-0.8,0.1c-2.4,0.4-4.6,1.4-6.2,2.9c-2.5,2.4-5.3,4.2-8.1,6c-0.4,0.2-0.8,0.4-1.2,0.4
	c-0.4,0-0.8-0.2-1.2-0.6c-0.4-0.4-0.6-0.9-0.6-1.3c0-0.4,0.1-0.7,0.3-1.1c0.4-0.7,0.8-1.6,0.8-2.5c0-1.7,0.5-3.9-1.4-4.8
	c-0.9-0.4-1.7-0.6-2.3-0.6c-1.3,0-2.1,0.9-3.2,2.8c-1.9,3.3-2.5,6.9-3.1,10.6c-0.1,0.8-0.2,1.5-0.2,2.2c0,4.6,2.4,8.6,7.5,8.6
	c1.2,0,2.7-0.2,4.3-0.8c2.9-1.1,5.3-2.7,8.1-4.5C1659.5,812.3,1655.2,822.7,1653.2,833.9"/>
<path d="M1829.3,849.1c0.8-0.5,0.7-1.5,0.9-2.3c0-0.4-0.2-0.8-0.3-1.2c-0.8-3.5-1.7-6.9-2.5-10.3c-0.1-0.4-0.1-0.8-0.1-1.1
	c0-3.4,2.5-7.4,5.3-8.6c0.7-0.4,1.3-0.1,2,0.1c3.2,1,4.9,3.7,6.7,6.2c0.5,0.7,1.2,1.6,2,1.6c0.2,0,0.3,0,0.5-0.1
	c0.9-0.4,1.3-1.3,1.3-2.2l-0.1-0.7c-0.4-2.3-0.8-4.7-2.3-6.4c-3-3.6-4.6-7.9-6.6-12c-0.3-0.6-0.5-1.1-0.5-1.5c0-0.7,0.4-1.3,1.1-2
	c1.8-1.9,3.7-3.6,4.9-5.9c1.1-1.8,1.8-3.7,1.8-5.5c0-1.3-0.3-2.6-1.2-4c-3-5-6.1-9.8-8.5-15.1c-1.7-3.6-3.8-6.9-6.7-9.6
	c-0.7-0.7-1.6-1.6-2.6-1.6c-0.4,0-0.8,0.1-1.3,0.4c-1,0.6-1.4,1.4-1.4,2.1c0,0.8,0.4,1.6,1,2.4c3.1,4,5,8.6,7.9,12.6
	c0.9,1.1,1.3,1.9,1.3,2.6c0,0.9-0.8,1.6-2.4,2.6c-2.1,1.2-4.3,2.4-6.2,3.9c-1,0.7-1.5,1.5-1.5,2.3c0,0.5,0.2,1,0.4,1.5
	c1,2.3,2.3,4.4,3.7,6.4c2.2,3.1,4.2,6.4,5.8,9.9c-0.7,0.6-1.3,0.4-1.9,0.5c-6.7,0.9-11.2,6-10.7,12c0.7,7.3,3.4,14,6.7,20.4
	c0.4,0.8,0.9,1.6,1.9,1.9c0.6,0.2,1,0.9,1.5,0.9C1829,849.2,1829.2,849.2,1829.3,849.1"/>
<path d="M925.3,888.6c1.3-1.9,2.1-3.9,2-6.2c0-0.8,0-1.7-0.2-2.5c-0.4-1.3-1.9-1.3-2.3-2.6c-0.7-2-2.8-2.1-4.3-2.7
	c-1.3,0.2-2.3,0.4-2.8,1.9c-0.8,2.4-0.9,4.9-1.4,7.3c-0.2,0.8,0.1,1.5,1.1,1.7c1.5,0.4,2.4,1.4,3.2,2.7c0.7,1.3,1.6,1.9,2.3,1.9
	C923.7,890.2,924.6,889.7,925.3,888.6"/>
<path d="M1002.7,888.6c1.3-1.9,2.1-3.9,2-6.2c0-0.8,0-1.7-0.2-2.5c-0.4-1.3-1.9-1.3-2.3-2.6c-0.7-2-2.8-2.1-4.3-2.7
	c-1.3,0.2-2.3,0.4-2.8,1.9c-0.8,2.4-0.9,4.9-1.4,7.3c-0.2,0.8,0.1,1.5,1.1,1.7c1.5,0.4,2.4,1.4,3.2,2.7c0.7,1.3,1.6,1.9,2.3,1.9
	C1001.1,890.2,1002,889.7,1002.7,888.6"/>
<path class="st4" d="M595.6,1253.9l99.7-44.7v13.6l-99.7,44.7V1253.9"/>
<path class="st4" d="M595.6,1235.3l99.7-44.7v13.6l-99.7,44.7V1235.3"/>
<path class="st4" d="M1059.9,1204.5l51.4-19.8v13.3l-51.4,19.8V1204.5"/>
<path class="st4" d="M1059.9,1185.9l51.4-19.8v13.3l-51.4,19.8V1185.9"/>
<path class="st4" d="M1476,1229.3l52.1-19.7v13.3l-52.1,19.7V1229.3"/>
<path class="st4" d="M1476,1210.7l52.1-19.7v13.3l-52.1,19.7V1210.7"/>
<path class="st4" d="M1186.8,733.7H1335v12.4h-148.1V733.7"/>
<path class="st4" d="M1186.8,752.3H1335v12.4h-148.1V752.3"/>
<path class="st4" d="M2026,752.3h90.4v12.4H2026V752.3"/>
<path d="M860.8,1217.3c0.9,0,0.9-1.1,1.1-1.7c0.7-2,0.6-4.2,1.5-6.2c1.5-3.8,4.4-6.3,7.1-9c5.8-5.7,11.7-11.2,14.8-19
	c1.8-4.5,3.1-9,3.5-13.9c0.1-2.4,0.5-4.8,0.4-6.8c0.1-3.4-0.3-6.6-0.7-9.7c0.2-1.5,0.2-2.9,0.3-4c0.1-3.1-0.1-5.7-1-8.1
	c-0.3-0.8-0.6-1.5-1.1-2.1c-0.3-0.3-0.7-0.8-1.2-0.8h-0.2c-0.4,0.2-0.5,0.4-0.5,0.7c0,0.3,0.1,0.6,0.1,0.8
	c0.1,9.9-4.1,18.1-10.4,25.1c-7.1,7.8-12.5,16.3-15.4,26.4c-1.6,5.4-2.4,10.9-2.4,16.6v5.7c0,1.2,0.4,4.5,2,5.5
	C859,1217,860.7,1217.3,860.8,1217.3 M862.6,1198c1.1-3.4,2.7-6.4,4.1-9.6c3-6.9,8.3-12.1,12.8-18c2.3-2.9,4.2-6.1,5.7-9.3
	c0,0.6,0.1,1.2,0.1,1.8c0,6.4-2.6,12.2-6.7,17.4c-3.4,4.2-7.4,7.8-11.2,11.6C865.5,1193.7,863.9,1195.8,862.6,1198"/>
<path d="M1695.1,1204.9c0.9,0,0.9-1.1,1.1-1.7c0.7-2,0.6-4.2,1.5-6.2c1.5-3.8,4.4-6.3,7.1-9c5.8-5.7,11.7-11.2,14.8-19
	c1.8-4.5,3.1-9,3.5-13.9c0.1-2.4,0.5-4.8,0.4-6.8c0.1-3.4-0.3-6.6-0.7-9.7c0.2-1.5,0.2-2.9,0.3-4c0.1-3.1-0.1-5.7-1-8.1
	c-0.3-0.8-0.6-1.5-1.1-2.1c-0.3-0.3-0.7-0.8-1.2-0.8h-0.2c-0.4,0.2-0.5,0.4-0.5,0.7c0,0.3,0.1,0.6,0.1,0.8
	c0.1,9.9-4.1,18.1-10.4,25.1c-7.1,7.8-12.5,16.3-15.4,26.4c-1.6,5.4-2.4,10.9-2.4,16.6v5.7c0,1.2,0.4,4.5,2,5.5
	C1693.3,1204.6,1695,1204.9,1695.1,1204.9 M1697,1185.6c1.1-3.4,2.7-6.4,4.1-9.6c3-6.9,8.3-12.1,12.8-18c2.3-2.9,4.2-6.1,5.7-9.3
	c0,0.6,0.1,1.2,0.1,1.8c0,6.4-2.6,12.2-6.7,17.4c-3.4,4.2-7.4,7.8-11.2,11.6C1699.9,1181.3,1698.3,1183.4,1697,1185.6"/>
<path d="M1950.7,1192.5c0.9,0,0.9-1.1,1.1-1.7c0.7-2,0.6-4.2,1.5-6.2c1.5-3.8,4.4-6.3,7.1-9c5.8-5.7,11.7-11.2,14.8-19
	c1.8-4.5,3.1-9,3.5-13.9c0.1-2.4,0.5-4.8,0.4-6.8c0.1-3.4-0.3-6.6-0.7-9.7c0.2-1.5,0.2-2.9,0.3-4c0.1-3.1-0.1-5.7-1-8.1
	c-0.3-0.8-0.6-1.5-1.1-2.1c-0.3-0.3-0.7-0.8-1.2-0.8h-0.2c-0.4,0.2-0.5,0.4-0.5,0.7c0,0.3,0.1,0.6,0.1,0.8
	c0.1,9.9-4.1,18.1-10.4,25.1c-7.1,7.8-12.5,16.3-15.4,26.4c-1.6,5.4-2.4,10.9-2.4,16.6v5.7c0,1.2,0.4,4.5,2,5.5
	C1949,1192.2,1950.6,1192.5,1950.7,1192.5 M1952.6,1173.2c1.1-3.4,2.7-6.4,4.1-9.6c3-6.9,8.3-12.1,12.8-18c2.3-2.9,4.2-6.1,5.7-9.3
	c0,0.6,0.1,1.2,0.1,1.8c0,6.4-2.6,12.2-6.7,17.4c-3.4,4.2-7.4,7.8-11.2,11.6C1955.5,1168.9,1953.9,1171,1952.6,1173.2"/>
<path d="M2136.6,1192.5c0.9,0,0.9-1.1,1.1-1.7c0.7-2,0.6-4.2,1.5-6.2c1.5-3.8,4.4-6.3,7.1-9c5.8-5.7,11.7-11.2,14.8-19
	c1.8-4.5,3.1-9,3.5-13.9c0.1-2.4,0.5-4.8,0.4-6.8c0.1-3.4-0.3-6.6-0.7-9.7c0.2-1.5,0.2-2.9,0.3-4c0.1-3.1-0.1-5.7-1-8.1
	c-0.3-0.8-0.6-1.5-1.1-2.1c-0.3-0.3-0.7-0.8-1.2-0.8h-0.2c-0.4,0.2-0.5,0.4-0.5,0.7c0,0.3,0.1,0.6,0.1,0.8
	c0.1,9.9-4.1,18.1-10.4,25.1c-7.1,7.8-12.5,16.3-15.4,26.4c-1.6,5.4-2.4,10.9-2.4,16.6v5.7c0,1.2,0.4,4.5,2,5.5
	C2134.8,1192.2,2136.5,1192.5,2136.6,1192.5 M2138.4,1173.2c1.1-3.4,2.7-6.4,4.1-9.6c3-6.9,8.3-12.1,12.8-18
	c2.3-2.9,4.2-6.1,5.7-9.3c0,0.6,0.1,1.2,0.1,1.8c0,6.4-2.6,12.2-6.7,17.4c-3.4,4.2-7.4,7.8-11.2,11.6
	C2141.3,1168.9,2139.7,1171,2138.4,1173.2"/>
<path d="M799.5,814.9c0.6,0.2,1-0.4,1.4-0.8c0.5-0.6,0.8-1.3,1.1-2.1c0.9-2.5,1.1-5.1,1-8.1c-0.1-1.1-0.1-2.5-0.3-4
	c0.4-3.2,0.8-6.3,0.7-9.7c0.1-2.1-0.3-4.5-0.4-6.8c-0.4-4.9-1.7-9.4-3.5-13.9c-3.1-7.8-9-13.3-14.8-19c-2.8-2.7-5.7-5.3-7.1-9
	c-0.9-2-0.8-4.2-1.5-6.2c-0.2-0.6-0.2-1.7-1.1-1.7c-0.1,0-0.2,0.1-0.4,0.1c-0.9,0.3-1.8,0.6-1.8,2.1c0,0.8,0.1,1.6,0.1,2.5
	c-0.6,0.1-1.1,0.3-1.3,0.8c-0.3,0.7-0.6,1.4-0.6,2.1c-0.1,1.4-0.1,2.7-0.1,4.2c0,5.7,0.8,11.2,2.4,16.6c2.9,10.1,8.3,18.6,15.4,26.4
	c6.3,7,10.5,15.2,10.4,25.1C799.1,813.9,798.8,814.6,799.5,814.9 M799.4,789.9c-1.5-3.3-3.4-6.4-5.7-9.3c-4.5-5.8-9.8-11-12.8-18
	c-1.4-3.2-3-6.2-4.1-9.6c1.3,2.2,2.9,4.3,4.8,6.2c3.8,3.8,7.8,7.4,11.2,11.6C797.3,776.4,799.9,782.8,799.4,789.9"/>
<path d="M953.5,829.8c2.5-2.8,4.9-5.8,6-9.3c1.2-3.9,1.7-7.7,1.7-11.6c0-2.6-0.2-5.2-0.6-7.7c-1.2-8.4-3.9-16.2-9.2-22.9
	c-2.4-3-4.7-6-7.1-9c-2.8-3.6-4.5-6.9-4.6-11.4c0-0.9-0.2-2.4-0.2-3.5c0-1.8-0.7-3.5-1.4-5.2h-0.5c-2,0.9-2.4,2.5-2.4,4.4v5.5
	c0,7.6,2,14.6,6.7,20.7c1.9,2.3,3.7,4.8,5.5,7c4.8,5.7,8.3,12,9,19.5c0.1,1.4,0.6,2.8,0.6,4.1c0,0.7-0.1,1.4-0.4,2
	c-1,2.2-2,4.5-3.8,6c-1.6,1.3-2,2.8-2,4.4c0,0.8,0.1,1.7,0.2,2.6c0.1,1.3,0.6,2.6,0.7,3.9c0.1,0.8,0.4,1.2,0.7,1.2
	C952.8,830.4,953.1,830.2,953.5,829.8"/>
<path d="M1030.9,820.5c2.5-2.8,4.9-5.8,6-9.3c1.2-3.9,1.7-7.7,1.7-11.6c0-2.6-0.2-5.2-0.6-7.7c-1.2-8.4-3.9-16.2-9.2-22.9
	c-2.4-3-4.7-6-7.1-9c-2.8-3.6-4.5-6.9-4.6-11.4c0-0.9-0.2-2.4-0.2-3.5c0-1.8-0.7-3.5-1.4-5.2h-0.5c-2,0.9-2.4,2.5-2.4,4.4v5.5
	c0,7.6,2,14.6,6.7,20.7c1.9,2.3,3.7,4.8,5.5,7c4.8,5.7,8.3,12,9,19.5c0.1,1.4,0.6,2.8,0.6,4.1c0,0.7-0.1,1.4-0.4,2
	c-1,2.2-2,4.5-3.8,6c-1.6,1.3-2,2.8-2,4.4c0,0.8,0.1,1.7,0.2,2.6c0.1,1.3,0.6,2.6,0.7,3.9c0.1,0.8,0.4,1.2,0.7,1.2
	C1030.2,821.1,1030.5,820.9,1030.9,820.5"/>
<path d="M1467.1,814.9c0.6,0.2,1-0.4,1.4-0.8c0.5-0.6,0.8-1.3,1.1-2.1c0.9-2.5,1.1-5.1,1-8.1c-0.1-1.1-0.1-2.5-0.3-4
	c0.4-3.2,0.8-6.3,0.7-9.7c0.1-2.1-0.3-4.5-0.4-6.8c-0.4-4.9-1.7-9.4-3.5-13.9c-3.1-7.8-9-13.3-14.8-19c-2.8-2.7-5.7-5.3-7.1-9
	c-0.9-2-0.8-4.2-1.5-6.2c-0.2-0.6-0.2-1.7-1.1-1.7c-0.1,0-0.2,0.1-0.4,0.1c-0.9,0.3-1.8,0.6-1.8,2.1c0,0.8,0.1,1.6,0.1,2.5
	c-0.6,0.1-1.1,0.3-1.3,0.8c-0.3,0.7-0.6,1.4-0.6,2.1c-0.1,1.4-0.1,2.7-0.1,4.2c0,5.7,0.8,11.2,2.4,16.6c2.9,10.1,8.3,18.6,15.4,26.4
	c6.3,7,10.5,15.2,10.4,25.1C1466.7,813.9,1466.4,814.6,1467.1,814.9 M1467,789.9c-1.5-3.3-3.4-6.4-5.7-9.3c-4.5-5.8-9.8-11-12.8-18
	c-1.4-3.2-3-6.2-4.1-9.6c1.3,2.2,2.9,4.3,4.8,6.2c3.8,3.8,7.8,7.4,11.2,11.6C1464.9,776.4,1467.5,782.8,1467,789.9"/>
<path d="M1633,814.9c0.6,0.2,1-0.4,1.4-0.8c0.5-0.6,0.8-1.3,1.1-2.1c0.9-2.5,1.1-5.1,1-8.1c-0.1-1.1-0.1-2.5-0.3-4
	c0.4-3.2,0.8-6.3,0.7-9.7c0.1-2.1-0.3-4.5-0.4-6.8c-0.4-4.9-1.7-9.4-3.5-13.9c-3.1-7.8-9-13.3-14.8-19c-2.8-2.7-5.7-5.3-7.1-9
	c-0.9-2-0.8-4.2-1.5-6.2c-0.2-0.6-0.2-1.7-1.1-1.7c-0.1,0-0.2,0.1-0.4,0.1c-0.9,0.3-1.8,0.6-1.8,2.1c0,0.8,0.1,1.6,0.1,2.5
	c-0.6,0.1-1.1,0.3-1.3,0.8c-0.3,0.7-0.6,1.4-0.6,2.1c-0.1,1.4-0.1,2.7-0.1,4.2c0,5.7,0.8,11.2,2.4,16.6c2.9,10.1,8.3,18.6,15.4,26.4
	c6.3,7,10.5,15.2,10.4,25.1C1632.6,813.9,1632.3,814.6,1633,814.9 M1632.9,789.9c-1.5-3.3-3.4-6.4-5.7-9.3c-4.5-5.8-9.8-11-12.8-18
	c-1.4-3.2-3-6.2-4.1-9.6c1.3,2.2,2.9,4.3,4.8,6.2c3.8,3.8,7.8,7.4,11.2,11.6C1630.8,776.4,1633.4,782.8,1632.9,789.9"/>
<path d="M1788.6,829.8c2.5-2.8,4.9-5.8,6-9.3c1.2-3.9,1.7-7.7,1.7-11.6c0-2.6-0.2-5.2-0.6-7.7c-1.2-8.4-3.9-16.2-9.2-22.9
	c-2.4-3-4.7-6-7.1-9c-2.8-3.6-4.5-6.9-4.6-11.4c0-0.9-0.2-2.4-0.2-3.5c0-1.8-0.7-3.5-1.4-5.2h-0.5c-2,0.9-2.4,2.5-2.4,4.4v5.5
	c0,7.6,2,14.6,6.7,20.7c1.9,2.3,3.7,4.8,5.5,7c4.8,5.7,8.3,12,9,19.5c0.1,1.4,0.6,2.8,0.6,4.1c0,0.7-0.1,1.4-0.4,2
	c-1,2.2-2,4.5-3.8,6c-1.6,1.3-2,2.8-2,4.4c0,0.8,0.1,1.7,0.2,2.6c0.1,1.3,0.6,2.6,0.7,3.9c0.1,0.8,0.4,1.2,0.7,1.2
	C1787.9,830.4,1788.2,830.2,1788.6,829.8"/>
<path d="M2075,853.8c0.4,0.1,0.7-0.3,1-0.6c0.3-0.4,0.6-0.9,0.8-1.5c0.6-1.7,0.8-3.5,0.7-5.7c-0.1-0.8-0.1-1.7-0.2-2.8
	c0.3-2.2,0.6-4.4,0.5-6.8c0.1-1.5-0.2-3.1-0.3-4.8c-0.3-3.4-1.2-6.6-2.4-9.7c-2.1-5.4-6.3-9.3-10.3-13.3c-2-1.9-4-3.7-5-6.3
	c-0.6-1.4-0.6-2.9-1-4.3c-0.1-0.4-0.1-1.2-0.8-1.2c-0.1,0-0.1,0.1-0.3,0.1c-0.6,0.2-1.2,0.4-1.2,1.5c0,0.6,0.1,1.1,0.1,1.7
	c-0.4,0.1-0.8,0.2-0.9,0.6c-0.2,0.5-0.4,1-0.4,1.5c-0.1,1-0.1,1.9-0.1,2.9c0,4,0.6,7.8,1.7,11.6c2,7.1,5.8,13.1,10.8,18.5
	c4.4,4.9,7.4,10.6,7.3,17.6C2074.8,853.1,2074.6,853.6,2075,853.8 M2075,836.3c-1-2.3-2.4-4.5-4-6.5c-3.1-4.1-6.9-7.7-9-12.6
	c-1-2.2-2.1-4.4-2.8-6.7c0.9,1.5,2,3,3.3,4.3c2.6,2.6,5.5,5.2,7.8,8.1C2073.5,826.8,2075.3,831.3,2075,836.3"/>
<path d="M343.2,715.9c1.1,0,2.3-0.2,3.3-0.8c2.2-1.2,4-2.8,5.5-4.7c1.2-1.5,2.4-3.2,2.4-5.2c0-2.8,0.1-5.6,0.1-8.5
	c0-4.2-0.1-8.6-0.3-12.8c-0.1-0.3-0.1-0.6-0.1-0.9c-0.2-0.2,0-0.7-0.4-0.7h-0.1c-0.4,0.1-0.8,0.2-0.9,0.6c-0.1,0.4-0.1,0.7-0.1,1
	v8.5h0c0,2.8,0,5.6,0,8.4c0,0.7,0,1.1-0.6,1.1c-0.1,0-0.3-0.1-0.5-0.1c-0.4-0.1-0.8-0.2-1.2-0.2c-0.3,0-0.6,0-0.9,0.1
	c-2.7,0.9-5,2.5-6.8,4.7c-1.6,1.9-2.9,4.1-2.9,6.8C339.7,715.1,340.8,715.9,343.2,715.9"/>
<path d="M373.2,683v-7.3h26v7.3H373.2 M373.2,696.4v-7.3h26v7.3H373.2 M434.8,663.9c5.4,0,9.7,1.7,12.7,5.2
	c3.1,3.5,4.6,8.8,4.6,16.1c0,8.1-1.8,14.1-5.5,18.1c-3.7,4-9,6.1-16,6.1c-3.7,0-6.7-0.4-9-1.3v-7.5c2.5,0.9,5.4,1.4,8.6,1.4
	c4.1,0,7.1-1.1,9.2-3.2c2-2.2,3.1-5.5,3.3-10.1c-1.2,0.8-2.6,1.4-4.2,1.8c-1.6,0.4-3.3,0.7-4.9,0.7c-2.8,0-5.2-0.5-7.4-1.4
	c-2.1-1-3.8-2.4-5-4.4c-1.2-2-1.8-4.5-1.8-7.5c0-2.9,0.6-5.3,1.9-7.4c1.3-2.1,3.1-3.7,5.4-4.8C428.9,664.4,431.6,663.9,434.8,663.9
	 M428.2,677.5c0,2.2,0.6,3.9,1.9,5c1.3,1.1,3,1.6,5.3,1.6c1.3,0,2.5-0.2,3.8-0.5c1.2-0.4,2.4-0.9,3.4-1.6c-0.1-2.8-0.5-5-1.2-6.6
	c-0.7-1.6-1.5-2.8-2.7-3.5c-1.1-0.7-2.5-1-4-1c-2,0-3.6,0.6-4.8,1.7C428.8,673.7,428.2,675.3,428.2,677.5 M477.4,682.1
	c2.8,0,5.2,0.5,7.4,1.4c2.1,1,3.8,2.4,5,4.4s1.8,4.5,1.8,7.5c0,2.9-0.6,5.3-1.9,7.4c-1.3,2.1-3.1,3.7-5.4,4.8
	c-2.3,1.1-5.1,1.7-8.2,1.7c-5.4,0-9.7-1.7-12.7-5.2c-3.1-3.5-4.6-8.8-4.6-16.1c0-8.1,1.8-14.1,5.5-18.1c3.7-4,9-6.1,16-6.1
	c3.7,0,6.7,0.4,9.1,1.3v7.5c-2.5-0.9-5.4-1.4-8.6-1.4c-4.1,0-7.1,1.1-9.2,3.3c-2,2.2-3.1,5.5-3.3,10.1c1.2-0.8,2.6-1.4,4.2-1.8
	C474.1,682.4,475.8,682.1,477.4,682.1 M476.2,702.4c2,0,3.6-0.6,4.8-1.7c1.2-1.1,1.8-2.8,1.8-4.9c0-2.2-0.6-3.9-1.9-5
	c-1.3-1.1-3-1.6-5.3-1.6c-1.3,0-2.5,0.2-3.8,0.5c-1.2,0.4-2.4,0.9-3.4,1.6c0.1,2.8,0.5,5,1.2,6.6c0.7,1.6,1.5,2.8,2.7,3.4
	C473.3,702.1,474.6,702.4,476.2,702.4"/>
<path d="M687.8,663.3c-2.2,0-4.3-0.2-6.5-0.5s-4.1-0.8-6-1.4v-7.9c1.9,0.6,3.9,1.1,6.1,1.4s4.3,0.5,6.3,0.5c2.9,0,4.9-0.4,6.2-1.3
	c1.3-0.9,1.9-2.2,1.9-3.9c0-0.9-0.2-1.7-0.6-2.4c-0.4-0.6-1-1.2-2-1.6c-0.9-0.5-2.2-0.9-3.9-1.4l-3.3-0.9c-4-1-6.9-2.5-8.9-4.6
	c-2-2.1-2.9-4.8-2.9-8.2c0-4.3,1.6-7.6,4.7-10c3.1-2.3,7.7-3.5,13.8-3.5c1.9,0,3.8,0.1,5.6,0.3c1.8,0.2,3.4,0.5,4.9,1v7.9
	c-1.4-0.4-3-0.8-4.8-1c-1.8-0.2-3.5-0.4-5.2-0.4c-3.3,0-5.7,0.4-7.1,1.3c-1.4,0.9-2.2,2.2-2.2,3.8c0,0.9,0.2,1.7,0.5,2.3
	c0.3,0.6,0.9,1.1,1.7,1.6c0.8,0.4,1.9,0.9,3.4,1.3l3.4,0.8c4.3,1.1,7.5,2.7,9.5,4.7c2,2.1,3,4.8,3,8.2c0,2.8-0.7,5.3-2.1,7.3
	c-1.4,2.1-3.5,3.6-6.1,4.7C694.8,662.7,691.6,663.3,687.8,663.3 M752.1,629.9h8.7l-8.8,32.8h-10.6L735,639l-6.5,23.7h-10.6
	l-8.8-32.8h9.1l5.6,22.5l6.1-22.5h10.6l5.9,22.2L752.1,629.9 M765.3,662.7v-32.8h9.6v32.8H765.3 M770.1,625.1c-2,0-3.5-0.4-4.5-1.3
	c-1-0.9-1.5-2.1-1.5-3.7c0-1.6,0.5-2.9,1.5-3.7c1-0.9,2.5-1.3,4.5-1.3c2,0,3.5,0.4,4.4,1.3c1,0.9,1.5,2.1,1.5,3.7
	c0,1.6-0.5,2.8-1.5,3.7C773.5,624.7,772.1,625.1,770.1,625.1 M782.3,629.9h7.9l0.7,3.3h0.4c1.2-1.2,2.6-2.2,4.3-2.9
	c1.6-0.7,3.4-1,5.4-1c3.5,0,6.2,1,8.2,3.1c2,2.1,3,5.3,3,9.8v20.4h-9.6v-19.9c0-1.9-0.4-3.2-1.2-4c-0.8-0.8-1.9-1.2-3.4-1.2
	c-1.1,0-2.3,0.2-3.3,0.7c-1.1,0.5-2,1.1-2.7,2v22.4h-9.6V629.9 M831.1,676.5c-4,0-7.6-0.4-11-1.3v-7.5c3.5,1,7,1.5,10.3,1.5
	c2.2,0,3.9-0.3,5.2-0.8s2.3-1.3,3-2.5c0.6-1.1,0.9-2.6,0.9-4.5v-2.2H839c-1,1.2-2.2,2.1-3.6,2.8s-3.1,1-4.9,1
	c-2.3,0-4.5-0.6-6.4-1.7c-1.9-1.2-3.5-2.9-4.6-5.3c-1.2-2.4-1.7-5.4-1.7-8.9c0-5.7,1.6-10.1,4.7-13.1s7.8-4.5,14-4.5
	c2.2,0,4.4,0.2,6.6,0.5c2.3,0.3,4.3,0.8,6,1.3v28.4c0,3.9-0.7,7.2-2,9.6c-1.3,2.5-3.3,4.3-5.9,5.5
	C838.5,675.9,835.2,676.5,831.1,676.5 M834.2,655.1c1,0,2-0.2,2.9-0.5c0.9-0.3,1.7-0.8,2.4-1.5V637c-1.2-0.3-2.5-0.4-3.9-0.4
	c-2.7,0-4.8,0.8-6.1,2.3c-1.4,1.5-2,3.9-2,7.2c0,3.3,0.6,5.6,1.7,7C830.3,654.4,832,655.1,834.2,655.1"/>
<path class="st5" d="M279.6,565.7h241.8v81.8H279.6V565.7"/>
<path d="M294.6,632.1V581h11.2v51.1H294.6 M348.1,581h10.6v51.1h-11.3l-22.2-34.2v34.2h-10.6V581h11.3l22.2,34.2V581 M379.6,632.1
	v-41.7h-16.1V581h43.5v9.4h-16.1v41.7H379.6 M441.7,632.1l-13-18.7H428c-1.6,0-3.4-0.1-5.4-0.2v18.9h-11.1v-49.9
	c2.4-0.5,5-1,7.8-1.3c2.8-0.3,5.5-0.5,8.2-0.5c7.4,0,12.9,1.3,16.6,4c3.7,2.7,5.5,6.8,5.5,12.4c0,3.6-0.9,6.7-2.6,9.2
	c-1.8,2.5-4.3,4.3-7.6,5.6l14.5,20.5H441.7 M422.7,604.7c1.9,0.2,3.8,0.3,5.6,0.3c3.7,0,6.5-0.6,8.2-1.9s2.7-3.4,2.7-6.2
	c0-2.8-0.8-4.9-2.5-6.2c-1.7-1.3-4.3-2-7.9-2c-2,0-4,0.2-6,0.5V604.7 M480,632.8c-4.9,0-9.2-1-12.8-2.9s-6.4-4.8-8.4-8.8
	c-2-3.9-3-8.8-3-14.6c0-5.8,1-10.6,3-14.6c2-3.9,4.8-6.8,8.4-8.8c3.6-1.9,7.9-2.9,12.8-2.9c4.9,0,9.2,1,12.8,2.9s6.4,4.9,8.3,8.8
	c2,3.9,2.9,8.8,2.9,14.5s-1,10.6-3,14.5c-2,3.9-4.8,6.8-8.4,8.8C489.2,631.8,484.9,632.8,480,632.8 M480,623.7c4.1,0,7.2-1.3,9.3-4
	c2.1-2.7,3.2-7,3.2-12.8c0-6.1-1.1-10.5-3.2-13.2s-5.2-4.1-9.3-4.1c-4.1,0-7.2,1.3-9.3,4s-3.2,7-3.2,12.8c0,6.1,1.1,10.5,3.2,13.2
	S475.9,623.7,480,623.7"/>
<path class="st5" d="M523,464.6h80.8v80.8H523V464.6"/>
<path d="M577.1,531l-4.2-13.6h-19l-4.2,13.6h-11l16.5-51.1h16.4l16.5,51.1H577.1 M556.7,508.4h13.5l-6.7-21.8L556.7,508.4"/>
<path d="M637.6,801.3c0.1,0,0.1,0,0.2-0.1c2.1-0.3,4.1-0.3,6.2-0.5c1.1-0.1,1.8-0.9,1.8-1.8c0.2-1.6,0.5-3.3,0.5-5.1
	c0-0.5,0-1-0.1-1.5c-0.2-1.6-0.8-2.4-2-2.4c-0.3,0-0.6,0-0.9,0.1c-1.4,0.2-2.9,0.4-4.3,0.7c-0.9,0.2-1.9,0.6-2,1.7
	c-0.2,2.6-0.3,5.2-0.3,7.7C636.7,800.7,636.7,801.3,637.6,801.3"/>
</svg>
