<?xml version="1.0" encoding="UTF-8" standalone="no"?>
<svg width="2977.23px" height="4208.47px" viewBox="0 0 2977.23 4208.47"
 xmlns="http://www.w3.org/2000/svg" xmlns:xlink="http://www.w3.org/1999/xlink" version="1.2" baseProfile="tiny">
<title>Score (6)</title>
<desc>Generated by MuseScore 3.6.2</desc>
<polyline class="StaffLines" fill="none" stroke="#000000" stroke-width="3.22" stroke-linejoin="bevel" points="373.843,386.22 2764.63,386.22"/>
<polyline class="StaffLines" fill="none" stroke="#000000" stroke-width="3.22" stroke-linejoin="bevel" points="373.843,411.024 2764.63,411.024"/>
<polyline class="StaffLines" fill="none" stroke="#000000" stroke-width="3.22" stroke-linejoin="bevel" points="373.843,435.827 2764.63,435.827"/>
<polyline class="StaffLines" fill="none" stroke="#000000" stroke-width="3.22" stroke-linejoin="bevel" points="373.843,460.63 2764.63,460.63"/>
<polyline class="StaffLines" fill="none" stroke="#000000" stroke-width="3.22" stroke-linejoin="bevel" points="373.843,485.433 2764.63,485.433"/>
<polyline class="StaffLines" fill="none" stroke="#000000" stroke-width="3.22" stroke-linejoin="bevel" points="373.843,1068.31 1216.88,1068.31"/>
<polyline class="StaffLines" fill="none" stroke="#000000" stroke-width="3.22" stroke-linejoin="bevel" points="373.843,1093.11 1216.88,1093.11"/>
<polyline class="StaffLines" fill="none" stroke="#000000" stroke-width="3.22" stroke-linejoin="bevel" points="373.843,1117.91 1216.88,1117.91"/>
<polyline class="StaffLines" fill="none" stroke="#000000" stroke-width="3.22" stroke-linejoin="bevel" points="373.843,1142.72 1216.88,1142.72"/>
<polyline class="StaffLines" fill="none" stroke="#000000" stroke-width="3.22" stroke-linejoin="bevel" points="373.843,1167.52 1216.88,1167.52"/>
<path class="MeasureNumber" d="M389.124,306.911 L391.186,306.911 L384.858,336.614 L381.624,336.614 L387.077,310.989 L378.655,316.208 L379.343,313.005 L389.124,306.911 M413.718,326.88 L413.155,329.52 L408.983,329.52 L407.468,336.614 L404.468,336.614 L405.968,329.52 L391.311,329.52 L391.702,327.708 L407.593,307.005 L410.843,307.005 L395.608,326.88 L406.53,326.88 L409.046,317.005 L411.639,317.005 L409.53,326.88 L413.718,326.88 M437.718,326.88 L437.155,329.52 L432.983,329.52 L431.468,336.614 L428.468,336.614 L429.968,329.52 L415.311,329.52 L415.702,327.708 L431.593,307.005 L434.843,307.005 L419.608,326.88 L430.53,326.88 L433.046,317.005 L435.639,317.005 L433.53,326.88 L437.718,326.88 "/>
<path class="MeasureNumber" d="M389.124,988.998 L391.186,988.998 L384.858,1018.7 L381.624,1018.7 L387.077,993.076 L378.655,998.295 L379.343,995.091 L389.124,988.998 M413.718,1008.97 L413.155,1011.61 L408.983,1011.61 L407.468,1018.7 L404.468,1018.7 L405.968,1011.61 L391.311,1011.61 L391.702,1009.79 L407.593,989.091 L410.843,989.091 L395.608,1008.97 L406.53,1008.97 L409.046,999.091 L411.639,999.091 L409.53,1008.97 L413.718,1008.97 M417.374,989.091 L434.764,989.091 L434.374,990.888 L417.608,1018.7 L414.218,1018.7 L430.561,991.888 L416.78,991.888 L417.374,989.091 "/>
<path class="InstrumentName" d="M212.817,418.389 C216.203,417.754 219.369,417.436 222.317,417.436 C227.255,417.436 230.963,418.46 233.442,420.506 C235.921,422.553 237.161,425.738 237.161,430.061 C237.161,434.228 235.895,437.376 233.364,439.506 C230.833,441.637 226.958,442.702 221.739,442.702 C220.208,442.702 218.583,442.629 216.864,442.483 L216.864,454.827 L212.817,454.827 L212.817,418.389 M221.817,439.405 C225.765,439.405 228.64,438.655 230.442,437.155 C232.244,435.655 233.145,433.316 233.145,430.139 C233.145,426.889 232.283,424.514 230.559,423.014 C228.835,421.514 226.182,420.764 222.598,420.764 C220.526,420.764 218.614,420.915 216.864,421.217 L216.864,439.108 C218.468,439.306 220.119,439.405 221.817,439.405 M243.38,427.702 L246.739,427.702 L247.02,430.78 L247.302,430.78 C248.416,429.644 249.703,428.777 251.161,428.178 C252.619,427.579 254.171,427.28 255.817,427.28 C258.536,427.28 260.666,428.043 262.208,429.569 C263.749,431.095 264.52,433.54 264.52,436.905 L264.52,454.827 L260.52,454.827 L260.52,437.077 C260.52,434.868 260.033,433.28 259.059,432.311 C258.085,431.342 256.682,430.858 254.848,430.858 C253.494,430.858 252.143,431.15 250.794,431.733 C249.445,432.316 248.302,433.223 247.364,434.452 L247.364,454.827 L243.38,454.827 L243.38,427.702 M281.473,455.296 C277.838,455.296 275.007,454.15 272.981,451.858 C270.955,449.566 269.942,446.051 269.942,441.311 C269.942,436.561 270.95,433.035 272.966,430.733 C274.981,428.431 277.817,427.28 281.473,427.28 C285.14,427.28 287.981,428.423 289.997,430.71 C292.012,432.996 293.02,436.519 293.02,441.28 C293.02,446.009 292.002,449.527 289.966,451.835 C287.929,454.142 285.098,455.296 281.473,455.296 M281.473,452.046 C283.901,452.046 285.747,451.225 287.012,449.585 C288.278,447.944 288.911,445.202 288.911,441.358 C288.911,437.441 288.278,434.663 287.012,433.022 C285.747,431.381 283.901,430.561 281.473,430.561 C279.057,430.561 277.21,431.376 275.934,433.006 C274.658,434.637 274.02,437.379 274.02,441.233 C274.02,445.129 274.653,447.905 275.919,449.561 C277.184,451.217 279.036,452.046 281.473,452.046 M300.348,455.155 C299.494,455.155 298.802,454.905 298.27,454.405 C297.739,453.905 297.473,453.228 297.473,452.374 C297.473,451.53 297.736,450.853 298.262,450.342 C298.789,449.832 299.484,449.577 300.348,449.577 C301.213,449.577 301.911,449.835 302.442,450.35 C302.973,450.866 303.239,451.54 303.239,452.374 C303.239,453.207 302.973,453.879 302.442,454.389 C301.911,454.9 301.213,455.155 300.348,455.155"/>
<path class="InstrumentName" d="M212.817,1100.48 C216.203,1099.84 219.369,1099.52 222.317,1099.52 C227.255,1099.52 230.963,1100.55 233.442,1102.59 C235.921,1104.64 237.161,1107.82 237.161,1112.15 C237.161,1116.31 235.895,1119.46 233.364,1121.59 C230.833,1123.72 226.958,1124.79 221.739,1124.79 C220.208,1124.79 218.583,1124.72 216.864,1124.57 L216.864,1136.91 L212.817,1136.91 L212.817,1100.48 M221.817,1121.49 C225.765,1121.49 228.64,1120.74 230.442,1119.24 C232.244,1117.74 233.145,1115.4 233.145,1112.23 C233.145,1108.98 232.283,1106.6 230.559,1105.1 C228.835,1103.6 226.182,1102.85 222.598,1102.85 C220.526,1102.85 218.614,1103 216.864,1103.3 L216.864,1121.19 C218.468,1121.39 220.119,1121.49 221.817,1121.49 M243.38,1109.79 L246.739,1109.79 L247.02,1112.87 L247.302,1112.87 C248.416,1111.73 249.703,1110.86 251.161,1110.26 C252.619,1109.67 254.171,1109.37 255.817,1109.37 C258.536,1109.37 260.666,1110.13 262.208,1111.66 C263.749,1113.18 264.52,1115.63 264.52,1118.99 L264.52,1136.91 L260.52,1136.91 L260.52,1119.16 C260.52,1116.96 260.033,1115.37 259.059,1114.4 C258.085,1113.43 256.682,1112.94 254.848,1112.94 C253.494,1112.94 252.143,1113.24 250.794,1113.82 C249.445,1114.4 248.302,1115.31 247.364,1116.54 L247.364,1136.91 L243.38,1136.91 L243.38,1109.79 M281.473,1137.38 C277.838,1137.38 275.007,1136.24 272.981,1133.94 C270.955,1131.65 269.942,1128.14 269.942,1123.4 C269.942,1118.65 270.95,1115.12 272.966,1112.82 C274.981,1110.52 277.817,1109.37 281.473,1109.37 C285.14,1109.37 287.981,1110.51 289.997,1112.8 C292.012,1115.08 293.02,1118.61 293.02,1123.37 C293.02,1128.1 292.002,1131.61 289.966,1133.92 C287.929,1136.23 285.098,1137.38 281.473,1137.38 M281.473,1134.13 C283.901,1134.13 285.747,1133.31 287.012,1131.67 C288.278,1130.03 288.911,1127.29 288.911,1123.44 C288.911,1119.53 288.278,1116.75 287.012,1115.11 C285.747,1113.47 283.901,1112.65 281.473,1112.65 C279.057,1112.65 277.21,1113.46 275.934,1115.09 C274.658,1116.72 274.02,1119.47 274.02,1123.32 C274.02,1127.22 274.653,1129.99 275.919,1131.65 C277.184,1133.3 279.036,1134.13 281.473,1134.13 M300.348,1137.24 C299.494,1137.24 298.802,1136.99 298.27,1136.49 C297.739,1135.99 297.473,1135.31 297.473,1134.46 C297.473,1133.62 297.736,1132.94 298.262,1132.43 C298.789,1131.92 299.484,1131.66 300.348,1131.66 C301.213,1131.66 301.911,1131.92 302.442,1132.44 C302.973,1132.95 303.239,1133.63 303.239,1134.46 C303.239,1135.29 302.973,1135.97 302.442,1136.48 C301.911,1136.99 301.213,1137.24 300.348,1137.24"/>
<polyline class="BarLine" fill="none" stroke="#000000" stroke-width="3.97" stroke-linejoin="bevel" points="375.827,384.608 375.827,487.045"/>
<polyline class="BarLine" fill="none" stroke="#000000" stroke-width="3.97" stroke-linejoin="bevel" points="1252.38,384.608 1252.38,487.045"/>
<polyline class="BarLine" fill="none" stroke="#000000" stroke-width="3.97" stroke-linejoin="bevel" points="2008.84,384.608 2008.84,487.045"/>
<polyline class="BarLine" fill="none" stroke="#000000" stroke-width="3.97" stroke-linejoin="bevel" points="2748.76,384.608 2748.76,487.045"/>
<polyline class="BarLine" fill="none" stroke="#000000" stroke-width="3.97" stroke-linejoin="bevel" points="2762.65,384.608 2762.65,487.045"/>
<polyline class="BarLine" fill="none" stroke="#000000" stroke-width="3.97" stroke-linejoin="bevel" points="375.827,1066.69 375.827,1169.13"/>
<polyline class="BarLine" fill="none" stroke="#000000" stroke-width="3.97" stroke-linejoin="bevel" points="1192.57,1066.69 1192.57,1169.13"/>
<polyline class="BarLine" fill="none" stroke="#000000" stroke-width="12.40" stroke-linejoin="bevel" points="1210.68,1066.69 1210.68,1169.13"/>
<polyline class="Stem" fill="none" stroke="#000000" stroke-width="2.98" stroke-linejoin="bevel" points="575.934,430.688 575.934,367.618"/>
<polyline class="Stem" fill="none" stroke="#000000" stroke-width="2.98" stroke-linejoin="bevel" points="768.414,466.642 768.414,522.638"/>
<polyline class="Stem" fill="none" stroke="#000000" stroke-width="2.98" stroke-linejoin="bevel" points="1051.77,430.688 1051.77,367.618"/>
<polyline class="Stem" fill="none" stroke="#000000" stroke-width="2.98" stroke-linejoin="bevel" points="1295.74,466.642 1295.74,522.638"/>
<polyline class="Stem" fill="none" stroke="#000000" stroke-width="2.98" stroke-linejoin="bevel" points="1576.16,430.688 1576.16,367.618"/>
<polyline class="Stem" fill="none" stroke="#000000" stroke-width="2.98" stroke-linejoin="bevel" points="1765.71,466.642 1765.71,522.638"/>
<polyline class="Stem" fill="none" stroke="#000000" stroke-width="2.98" stroke-linejoin="bevel" points="2089.99,430.688 2089.99,367.618"/>
<path class="Note" transform="matrix(0.992126,0,0,0.992126,529.009,448.228)" d="M5.5,25.4063 C6.40625,25.4063 7.29688,25.2969 8.09375,25.0938 C8.5,25.2031 8.79688,25.2969 9.09375,25.2969 C10,25.2969 10.5938,24.7969 11.2031,24 C16.7031,16.5 23.2031,9.70313 29.1094,2.40625 C35.4063,-5.40625 41.4063,-13.4063 48.2031,-20.7969 C48.6094,-21.2969 48.7969,-21.7031 48.7969,-22.0938 C48.7969,-22.7031 48.4063,-23.2031 47.7031,-23.7031 C46.2031,-24.7969 44.2969,-25 42.5,-25.2969 C42.2031,-25.2969 41.9063,-25.4063 41.5,-25.4063 C39.7031,-25.4063 38.2031,-24.5938 36.9063,-23 C34.7969,-20.0938 32.4063,-17.4063 30.1094,-14.5938 C20.4063,-2.5 10.5938,9.5 0.90625,21.5 C0.5,22 0,22.4063 0,23 C0,23.2031 0.09375,23.4063 0.203125,23.7031 C0.59375,24.7969 1.40625,25.0938 2.40625,25.2031 C3.5,25.2969 4.5,25.4063 5.5,25.4063"/>
<path class="Note" transform="matrix(0.992126,0,0,0.992126,766.926,448.228)" d="M5.5,25.4063 C6.40625,25.4063 7.29688,25.2969 8.09375,25.0938 C8.5,25.2031 8.79688,25.2969 9.09375,25.2969 C10,25.2969 10.5938,24.7969 11.2031,24 C16.7031,16.5 23.2031,9.70313 29.1094,2.40625 C35.4063,-5.40625 41.4063,-13.4063 48.2031,-20.7969 C48.6094,-21.2969 48.7969,-21.7031 48.7969,-22.0938 C48.7969,-22.7031 48.4063,-23.2031 47.7031,-23.7031 C46.2031,-24.7969 44.2969,-25 42.5,-25.2969 C42.2031,-25.2969 41.9063,-25.4063 41.5,-25.4063 C39.7031,-25.4063 38.2031,-24.5938 36.9063,-23 C34.7969,-20.0938 32.4063,-17.4063 30.1094,-14.5938 C20.4063,-2.5 10.5938,9.5 0.90625,21.5 C0.5,22 0,22.4063 0,23 C0,23.2031 0.09375,23.4063 0.203125,23.7031 C0.59375,24.7969 1.40625,25.0938 2.40625,25.2031 C3.5,25.2969 4.5,25.4063 5.5,25.4063"/>
<path class="Note" transform="matrix(0.992126,0,0,0.992126,1004.84,448.228)" d="M5.5,25.4063 C6.40625,25.4063 7.29688,25.2969 8.09375,25.0938 C8.5,25.2031 8.79688,25.2969 9.09375,25.2969 C10,25.2969 10.5938,24.7969 11.2031,24 C16.7031,16.5 23.2031,9.70313 29.1094,2.40625 C35.4063,-5.40625 41.4063,-13.4063 48.2031,-20.7969 C48.6094,-21.2969 48.7969,-21.7031 48.7969,-22.0938 C48.7969,-22.7031 48.4063,-23.2031 47.7031,-23.7031 C46.2031,-24.7969 44.2969,-25 42.5,-25.2969 C42.2031,-25.2969 41.9063,-25.4063 41.5,-25.4063 C39.7031,-25.4063 38.2031,-24.5938 36.9063,-23 C34.7969,-20.0938 32.4063,-17.4063 30.1094,-14.5938 C20.4063,-2.5 10.5938,9.5 0.90625,21.5 C0.5,22 0,22.4063 0,23 C0,23.2031 0.09375,23.4063 0.203125,23.7031 C0.59375,24.7969 1.40625,25.0938 2.40625,25.2031 C3.5,25.2969 4.5,25.4063 5.5,25.4063"/>
<path class="Note" transform="matrix(0.992126,0,0,0.992126,1294.25,448.228)" d="M5.5,25.4063 C6.40625,25.4063 7.29688,25.2969 8.09375,25.0938 C8.5,25.2031 8.79688,25.2969 9.09375,25.2969 C10,25.2969 10.5938,24.7969 11.2031,24 C16.7031,16.5 23.2031,9.70313 29.1094,2.40625 C35.4063,-5.40625 41.4063,-13.4063 48.2031,-20.7969 C48.6094,-21.2969 48.7969,-21.7031 48.7969,-22.0938 C48.7969,-22.7031 48.4063,-23.2031 47.7031,-23.7031 C46.2031,-24.7969 44.2969,-25 42.5,-25.2969 C42.2031,-25.2969 41.9063,-25.4063 41.5,-25.4063 C39.7031,-25.4063 38.2031,-24.5938 36.9063,-23 C34.7969,-20.0938 32.4063,-17.4063 30.1094,-14.5938 C20.4063,-2.5 10.5938,9.5 0.90625,21.5 C0.5,22 0,22.4063 0,23 C0,23.2031 0.09375,23.4063 0.203125,23.7031 C0.59375,24.7969 1.40625,25.0938 2.40625,25.2031 C3.5,25.2969 4.5,25.4063 5.5,25.4063"/>
<path class="Note" transform="matrix(0.992126,0,0,0.992126,1529.24,448.228)" d="M5.5,25.4063 C6.40625,25.4063 7.29688,25.2969 8.09375,25.0938 C8.5,25.2031 8.79688,25.2969 9.09375,25.2969 C10,25.2969 10.5938,24.7969 11.2031,24 C16.7031,16.5 23.2031,9.70313 29.1094,2.40625 C35.4063,-5.40625 41.4063,-13.4063 48.2031,-20.7969 C48.6094,-21.2969 48.7969,-21.7031 48.7969,-22.0938 C48.7969,-22.7031 48.4063,-23.2031 47.7031,-23.7031 C46.2031,-24.7969 44.2969,-25 42.5,-25.2969 C42.2031,-25.2969 41.9063,-25.4063 41.5,-25.4063 C39.7031,-25.4063 38.2031,-24.5938 36.9063,-23 C34.7969,-20.0938 32.4063,-17.4063 30.1094,-14.5938 C20.4063,-2.5 10.5938,9.5 0.90625,21.5 C0.5,22 0,22.4063 0,23 C0,23.2031 0.09375,23.4063 0.203125,23.7031 C0.59375,24.7969 1.40625,25.0938 2.40625,25.2031 C3.5,25.2969 4.5,25.4063 5.5,25.4063"/>
<path class="Note" transform="matrix(0.992126,0,0,0.992126,1764.23,448.228)" d="M5.5,25.4063 C6.40625,25.4063 7.29688,25.2969 8.09375,25.0938 C8.5,25.2031 8.79688,25.2969 9.09375,25.2969 C10,25.2969 10.5938,24.7969 11.2031,24 C16.7031,16.5 23.2031,9.70313 29.1094,2.40625 C35.4063,-5.40625 41.4063,-13.4063 48.2031,-20.7969 C48.6094,-21.2969 48.7969,-21.7031 48.7969,-22.0938 C48.7969,-22.7031 48.4063,-23.2031 47.7031,-23.7031 C46.2031,-24.7969 44.2969,-25 42.5,-25.2969 C42.2031,-25.2969 41.9063,-25.4063 41.5,-25.4063 C39.7031,-25.4063 38.2031,-24.5938 36.9063,-23 C34.7969,-20.0938 32.4063,-17.4063 30.1094,-14.5938 C20.4063,-2.5 10.5938,9.5 0.90625,21.5 C0.5,22 0,22.4063 0,23 C0,23.2031 0.09375,23.4063 0.203125,23.7031 C0.59375,24.7969 1.40625,25.0938 2.40625,25.2031 C3.5,25.2969 4.5,25.4063 5.5,25.4063"/>
<path class="Note" transform="matrix(0.992126,0,0,0.992126,2043.07,448.228)" d="M5.5,25.4063 C6.40625,25.4063 7.29688,25.2969 8.09375,25.0938 C8.5,25.2031 8.79688,25.2969 9.09375,25.2969 C10,25.2969 10.5938,24.7969 11.2031,24 C16.7031,16.5 23.2031,9.70313 29.1094,2.40625 C35.4063,-5.40625 41.4063,-13.4063 48.2031,-20.7969 C48.6094,-21.2969 48.7969,-21.7031 48.7969,-22.0938 C48.7969,-22.7031 48.4063,-23.2031 47.7031,-23.7031 C46.2031,-24.7969 44.2969,-25 42.5,-25.2969 C42.2031,-25.2969 41.9063,-25.4063 41.5,-25.4063 C39.7031,-25.4063 38.2031,-24.5938 36.9063,-23 C34.7969,-20.0938 32.4063,-17.4063 30.1094,-14.5938 C20.4063,-2.5 10.5938,9.5 0.90625,21.5 C0.5,22 0,22.4063 0,23 C0,23.2031 0.09375,23.4063 0.203125,23.7031 C0.59375,24.7969 1.40625,25.0938 2.40625,25.2031 C3.5,25.2969 4.5,25.4063 5.5,25.4063"/>
<path class="Clef" transform="matrix(0.992126,0,0,0.992126,401.126,460.63)" d="M21.7031,83.4063 C22.7031,83.8125 23.7031,84 24.5938,84 C26.2969,84 27.9063,83.4063 29.4063,82.1094 C32.4063,79.6094 33.7969,76.2969 34.4063,72.6094 C34.5,71.7969 34.6094,71 34.6094,70.1094 C34.6094,68.1094 34.1094,66.1094 32.5,64.5 C31.7969,63.7969 31.6094,63.2969 31.6094,62.7031 C31.6094,62.2031 31.7969,61.6094 32,61 C32.7031,59 33.4063,56.7969 33.4063,54.6094 C33.4063,53.6094 33.2031,52.6094 32.9063,51.5 C32.7031,50.7969 32.4063,50 32,49.5 C37.7031,41.7031 40.1094,32.7031 40.4063,22.7969 C40.4063,21.9063 40.5,20.4063 40.5,20.4063 C40.5,20.4063 41.9063,19.5938 42.5,19.4063 C45.7969,17.7969 49,16 51.9063,13.7031 C59.5,7.59375 63.9063,-0.703125 65.9063,-9.90625 C66.2969,-11.4063 66.4063,-12.9063 66.4063,-14.2969 C66.4063,-20.5938 62.9063,-25.2031 54.9063,-26.7031 C52.9063,-27.1094 50.9063,-27.2969 48.9063,-27.2969 C43.9063,-27.2969 39.1094,-26 34.6094,-23.2969 C34,-23 33.4063,-22.5938 33.4063,-22.5938 L30.7969,-32.2969 C30.7031,-32.7969 30.7031,-33.7031 30.7031,-33.7031 C30.7031,-33.7031 40.9063,-51.7969 42.2969,-61.1094 C42.7969,-63.7969 43,-66.5 43,-69.2031 C43,-71.2969 42.9063,-73.2969 42.6094,-75.2969 C41.6094,-82.5 38.9063,-89.3125 37.1094,-96.3125 C36.6094,-98.4063 35.9063,-100.906 33.5,-100.906 C31.7031,-100.906 30.4063,-99.2031 29.2969,-97.7031 C24.2031,-90.6094 21.7031,-82.5 21.2031,-73.7969 C21.0938,-72.4063 21.0938,-71 21.0938,-69.6094 C21.0938,-61.5 22.4063,-53.4063 23.5,-45.4063 C23.5,-44.7969 23.7031,-44.2031 23.7969,-43.7031 C19.2969,-37.2969 14.2969,-31.2969 10,-24.7031 C7,-20 3.70313,-15.2969 1.59375,-10 C0.5,-7.40625 0,-4.40625 0,-1.40625 C0,4.79688 2.09375,11.0938 5.70313,14.5938 C7.79688,16.5938 11.0938,18.7969 14.4063,20 C19,21.7031 23.5938,22.7969 28.5,22.7969 C29.9063,22.7969 31.4063,22.7031 32.9063,22.5 L34.1094,22.2969 C34.1094,22.2969 34.2031,23.2031 34.1094,23.7031 C33,29.7031 31.5,35.6094 27.9063,40.6094 C26,43.2031 24.2031,46.1094 20.4063,46.4063 C19.2969,46.5 18.7969,47.2031 18.7969,48.1094 C18.7969,48.5 18.9063,48.7969 19,49.2031 C19.5938,50.7031 20.2969,52.2969 21,53.7969 C21.2969,54.5 21.7031,55 22.2031,55.4063 C20.9063,57.5 20.2031,59.7969 20.2031,62.2969 C20.2031,63.6094 20.4063,65.1094 20.9063,66.6094 C21.0938,67.5 20.7969,67.9063 20.2969,68.4063 C18.4063,70.2969 17.2969,72.5 17.5938,75.1094 C17.5938,75.7969 17.5,76.2969 17.5938,76.8125 C17.7969,79.8125 18.9063,82.1094 21.7031,83.4063 M27.7969,-49.7969 C27,-54.6094 26.5,-59.2969 26.5,-64 C26.5,-72.7031 28.2969,-81.2031 33.4063,-89.3125 C34.6094,-85.6094 35.2031,-81.9063 35.2031,-78.1094 C35.2031,-76.2031 35,-74.2031 34.7031,-72.2031 C33.4063,-64.4063 31.6094,-56.7969 27.7969,-49.7969 M17.5,9.40625 C16.0938,9.29688 14.9063,8.79688 13.5938,8.40625 C11,7.5 8.79688,6.5 8.09375,4.79688 C7.79688,4 7.70313,3.09375 7.70313,2.20313 C7.70313,1.09375 7.90625,-0.09375 8.09375,-1.29688 C8.20313,-1.90625 8.79688,-3.59375 9,-3.90625 C12.9063,-10.7969 17.5938,-17.0938 22.5,-23.4063 L26.7031,-28.9063 L27.4063,-26.7031 C28.2031,-24.2031 28.9063,-20.2031 28.9063,-20.2031 C28.9063,-20.2031 26.1094,-16.5938 24.2969,-14.7969 C19.2969,-9.90625 16.9063,-3.79688 16.9063,2.90625 C16.9063,4.59375 17.0938,6.29688 17.4063,8.09375 C17.5,8.5 17.5,8.79688 17.5,9.40625 M39.1094,6.29688 C38.2969,-0.203125 36.7969,-5.40625 35.4063,-11.7031 C35.2969,-12.4063 35.2969,-12.9063 35.6094,-13.2969 C38.2031,-13.7969 40.7031,-14 43.2969,-14 C45.7969,-14 48.2031,-13.7969 50.7031,-13.2969 C53.7031,-12.7031 56.7031,-12.2031 59,-9.79688 C59.2031,-9.59375 59.4063,-9.40625 59.6094,-9.29688 C55.6094,-1.29688 49.7031,4.70313 41.2969,8.40625 L39.5,9.09375 L39.1094,6.29688 M28.5,11.0938 C25,11.0938 21.5938,10.2031 21.5938,10.2031 C21.5938,10.2031 21.2969,8.79688 21.2969,6.79688 C21.2969,5.5 21.4063,3.90625 21.7969,2.29688 C22.7969,-2.5 26.2031,-5.90625 29.7969,-9.09375 C30.1094,-9.40625 30.4063,-9.59375 30.6094,-9.59375 C31,-9.59375 31.1094,-9.20313 31.2031,-8.5 C32.1094,-2.59375 33.6094,3.20313 34,9.09375 C34.1094,9.70313 34,10.5938 34,10.5938 C34,10.5938 31.4063,11.2969 28.5,11.0938 M25.2969,62.5 C23.9063,62.2031 23.2969,60.7969 23.2969,59.7969 C23.5,56.2969 26.2969,54.7969 29,54.9063 C29.9063,54.9063 30.4063,55.6094 30.4063,56.4063 L30.4063,56.7969 C30.2031,58.2031 29.7969,59.6094 29.1094,60.9063 C28.4063,62.2031 27.4063,62.7031 26.4063,62.7031 C26,62.7031 25.7031,62.6094 25.2969,62.5 M26.2969,79.2031 C24.9063,79.1094 23.7969,79 22.9063,78.5 C20.9063,77.5 19.5938,76.5 19.5938,75.1094 C19.5938,74.2031 20.2031,73.2031 21.5938,72 C23.4063,70.4063 25.4063,69 27.7031,68.1094 C28.1094,68 28.4063,67.9063 28.7031,67.9063 C29.2969,67.9063 29.9063,68.2031 30.4063,68.7969 C31.4063,70 32.1094,71.5 32.1094,72.9063 C32.1094,73.5 32,74 31.7969,74.6094 C30.7969,77.1094 28.9063,78.8125 26.2969,79.2031"/>
<path class="Clef" transform="matrix(0.992126,0,0,0.992126,401.126,1142.72)" d="M21.7031,83.4063 C22.7031,83.8125 23.7031,84 24.5938,84 C26.2969,84 27.9063,83.4063 29.4063,82.1094 C32.4063,79.6094 33.7969,76.2969 34.4063,72.6094 C34.5,71.7969 34.6094,71 34.6094,70.1094 C34.6094,68.1094 34.1094,66.1094 32.5,64.5 C31.7969,63.7969 31.6094,63.2969 31.6094,62.7031 C31.6094,62.2031 31.7969,61.6094 32,61 C32.7031,59 33.4063,56.7969 33.4063,54.6094 C33.4063,53.6094 33.2031,52.6094 32.9063,51.5 C32.7031,50.7969 32.4063,50 32,49.5 C37.7031,41.7031 40.1094,32.7031 40.4063,22.7969 C40.4063,21.9063 40.5,20.4063 40.5,20.4063 C40.5,20.4063 41.9063,19.5938 42.5,19.4063 C45.7969,17.7969 49,16 51.9063,13.7031 C59.5,7.59375 63.9063,-0.703125 65.9063,-9.90625 C66.2969,-11.4063 66.4063,-12.9063 66.4063,-14.2969 C66.4063,-20.5938 62.9063,-25.2031 54.9063,-26.7031 C52.9063,-27.1094 50.9063,-27.2969 48.9063,-27.2969 C43.9063,-27.2969 39.1094,-26 34.6094,-23.2969 C34,-23 33.4063,-22.5938 33.4063,-22.5938 L30.7969,-32.2969 C30.7031,-32.7969 30.7031,-33.7031 30.7031,-33.7031 C30.7031,-33.7031 40.9063,-51.7969 42.2969,-61.1094 C42.7969,-63.7969 43,-66.5 43,-69.2031 C43,-71.2969 42.9063,-73.2969 42.6094,-75.2969 C41.6094,-82.5 38.9063,-89.3125 37.1094,-96.3125 C36.6094,-98.4063 35.9063,-100.906 33.5,-100.906 C31.7031,-100.906 30.4063,-99.2031 29.2969,-97.7031 C24.2031,-90.6094 21.7031,-82.5 21.2031,-73.7969 C21.0938,-72.4063 21.0938,-71 21.0938,-69.6094 C21.0938,-61.5 22.4063,-53.4063 23.5,-45.4063 C23.5,-44.7969 23.7031,-44.2031 23.7969,-43.7031 C19.2969,-37.2969 14.2969,-31.2969 10,-24.7031 C7,-20 3.70313,-15.2969 1.59375,-10 C0.5,-7.40625 0,-4.40625 0,-1.40625 C0,4.79688 2.09375,11.0938 5.70313,14.5938 C7.79688,16.5938 11.0938,18.7969 14.4063,20 C19,21.7031 23.5938,22.7969 28.5,22.7969 C29.9063,22.7969 31.4063,22.7031 32.9063,22.5 L34.1094,22.2969 C34.1094,22.2969 34.2031,23.2031 34.1094,23.7031 C33,29.7031 31.5,35.6094 27.9063,40.6094 C26,43.2031 24.2031,46.1094 20.4063,46.4063 C19.2969,46.5 18.7969,47.2031 18.7969,48.1094 C18.7969,48.5 18.9063,48.7969 19,49.2031 C19.5938,50.7031 20.2969,52.2969 21,53.7969 C21.2969,54.5 21.7031,55 22.2031,55.4063 C20.9063,57.5 20.2031,59.7969 20.2031,62.2969 C20.2031,63.6094 20.4063,65.1094 20.9063,66.6094 C21.0938,67.5 20.7969,67.9063 20.2969,68.4063 C18.4063,70.2969 17.2969,72.5 17.5938,75.1094 C17.5938,75.7969 17.5,76.2969 17.5938,76.8125 C17.7969,79.8125 18.9063,82.1094 21.7031,83.4063 M27.7969,-49.7969 C27,-54.6094 26.5,-59.2969 26.5,-64 C26.5,-72.7031 28.2969,-81.2031 33.4063,-89.3125 C34.6094,-85.6094 35.2031,-81.9063 35.2031,-78.1094 C35.2031,-76.2031 35,-74.2031 34.7031,-72.2031 C33.4063,-64.4063 31.6094,-56.7969 27.7969,-49.7969 M17.5,9.40625 C16.0938,9.29688 14.9063,8.79688 13.5938,8.40625 C11,7.5 8.79688,6.5 8.09375,4.79688 C7.79688,4 7.70313,3.09375 7.70313,2.20313 C7.70313,1.09375 7.90625,-0.09375 8.09375,-1.29688 C8.20313,-1.90625 8.79688,-3.59375 9,-3.90625 C12.9063,-10.7969 17.5938,-17.0938 22.5,-23.4063 L26.7031,-28.9063 L27.4063,-26.7031 C28.2031,-24.2031 28.9063,-20.2031 28.9063,-20.2031 C28.9063,-20.2031 26.1094,-16.5938 24.2969,-14.7969 C19.2969,-9.90625 16.9063,-3.79688 16.9063,2.90625 C16.9063,4.59375 17.0938,6.29688 17.4063,8.09375 C17.5,8.5 17.5,8.79688 17.5,9.40625 M39.1094,6.29688 C38.2969,-0.203125 36.7969,-5.40625 35.4063,-11.7031 C35.2969,-12.4063 35.2969,-12.9063 35.6094,-13.2969 C38.2031,-13.7969 40.7031,-14 43.2969,-14 C45.7969,-14 48.2031,-13.7969 50.7031,-13.2969 C53.7031,-12.7031 56.7031,-12.2031 59,-9.79688 C59.2031,-9.59375 59.4063,-9.40625 59.6094,-9.29688 C55.6094,-1.29688 49.7031,4.70313 41.2969,8.40625 L39.5,9.09375 L39.1094,6.29688 M28.5,11.0938 C25,11.0938 21.5938,10.2031 21.5938,10.2031 C21.5938,10.2031 21.2969,8.79688 21.2969,6.79688 C21.2969,5.5 21.4063,3.90625 21.7969,2.29688 C22.7969,-2.5 26.2031,-5.90625 29.7969,-9.09375 C30.1094,-9.40625 30.4063,-9.59375 30.6094,-9.59375 C31,-9.59375 31.1094,-9.20313 31.2031,-8.5 C32.1094,-2.59375 33.6094,3.20313 34,9.09375 C34.1094,9.70313 34,10.5938 34,10.5938 C34,10.5938 31.4063,11.2969 28.5,11.0938 M25.2969,62.5 C23.9063,62.2031 23.2969,60.7969 23.2969,59.7969 C23.5,56.2969 26.2969,54.7969 29,54.9063 C29.9063,54.9063 30.4063,55.6094 30.4063,56.4063 L30.4063,56.7969 C30.2031,58.2031 29.7969,59.6094 29.1094,60.9063 C28.4063,62.2031 27.4063,62.7031 26.4063,62.7031 C26,62.7031 25.7031,62.6094 25.2969,62.5 M26.2969,79.2031 C24.9063,79.1094 23.7969,79 22.9063,78.5 C20.9063,77.5 19.5938,76.5 19.5938,75.1094 C19.5938,74.2031 20.2031,73.2031 21.5938,72 C23.4063,70.4063 25.4063,69 27.7031,68.1094 C28.1094,68 28.4063,67.9063 28.7031,67.9063 C29.2969,67.9063 29.9063,68.2031 30.4063,68.7969 C31.4063,70 32.1094,71.5 32.1094,72.9063 C32.1094,73.5 32,74 31.7969,74.6094 C30.7969,77.1094 28.9063,78.8125 26.2969,79.2031"/>
<path class="Rest" transform="matrix(0.992126,0,0,0.992126,2264.88,435.827)" d="M11.4063,26 C13.2031,25.9063 14.0938,24.7969 14.7031,23.5938 C16.5,20.2969 17.9063,16.7969 19.2031,13.2031 C23.0938,2.5 24.9063,-8.90625 28.5,-19.7969 C28.7031,-20.4063 28.9063,-21.0938 28.9063,-21.7969 L28.9063,-22.2969 C28.7969,-23.7031 28.5,-24.5938 27.2969,-24.5938 C27,-24.5938 26.7969,-24.5938 26.5,-24.5 C24.0938,-24.0938 21.9063,-23.0938 20.2969,-21.5938 C17.7969,-19.2031 15,-17.4063 12.0938,-15.5938 C11.7031,-15.4063 11.2969,-15.2031 10.9063,-15.2031 C10.5,-15.2031 10.0938,-15.4063 9.70313,-15.7969 C9.29688,-16.2031 9.09375,-16.7031 9.09375,-17.0938 C9.09375,-17.5 9.20313,-17.7969 9.40625,-18.2031 C9.79688,-18.9063 10.2031,-19.7969 10.2031,-20.7031 C10.2031,-22.4063 10.7031,-24.5938 8.79688,-25.5 C7.90625,-25.9063 7.09375,-26.1094 6.5,-26.1094 C5.20313,-26.1094 4.40625,-25.2031 3.29688,-23.2969 C1.40625,-20 0.796875,-16.2969 0.203125,-12.5938 C0.09375,-11.7969 0,-11.0938 0,-10.4063 C0,-5.79688 2.40625,-1.70313 7.59375,-1.70313 C8.79688,-1.70313 10.2969,-1.90625 11.9063,-2.5 C14.7969,-3.59375 17.2031,-5.20313 20.0938,-7 C17.7969,4.29688 13.4063,14.7969 11.4063,26"/>
<path class="Rest" transform="matrix(0.992126,0,0,0.992126,2398.74,435.827)" d="M10.5,41.4063 C11.2969,40.9063 11.2031,39.9063 11.4063,39.1094 C11.4063,38.7031 11.2031,38.2969 11.0938,37.9063 C10.2969,34.4063 9.40625,31 8.59375,27.5 C8.5,27.1094 8.5,26.7031 8.5,26.4063 C8.5,23 11,18.9063 13.7969,17.7031 C14.5,17.2969 15.0938,17.5938 15.7969,17.7969 C19,18.7969 20.7031,21.5 22.5,24 C23,24.7031 23.7031,25.6094 24.5,25.6094 C24.7031,25.6094 24.7969,25.6094 25,25.5 C25.9063,25.0938 26.2969,24.2031 26.2969,23.2969 L26.2031,22.5938 C25.7969,20.2969 25.4063,17.9063 23.9063,16.0938 C20.9063,12.5 19.2969,8.09375 17.2969,4 C17,3.40625 16.7969,2.90625 16.7969,2.5 C16.7969,1.79688 17.2031,1.20313 17.9063,0.5 C19.7031,-1.40625 21.5938,-3.09375 22.7969,-5.40625 C23.9063,-7.20313 24.5938,-9.09375 24.5938,-11 C24.5938,-12.2969 24.2969,-13.5938 23.4063,-15 C20.4063,-20 17.2969,-24.9063 14.7969,-30.2031 C13.0938,-33.7969 11,-37.2031 8,-39.9063 C7.29688,-40.6094 6.40625,-41.5 5.40625,-41.5 C5,-41.5 4.59375,-41.4063 4.09375,-41.1094 C3.09375,-40.5 2.70313,-39.7031 2.70313,-39 C2.70313,-38.2031 3.09375,-37.4063 3.70313,-36.6094 C6.79688,-32.6094 8.70313,-27.9063 11.7031,-23.9063 C12.5938,-22.7969 13,-22 13,-21.2969 C13,-20.4063 12.2031,-19.7031 10.5938,-18.7031 C8.5,-17.5 6.29688,-16.2969 4.29688,-14.7969 C3.29688,-14.0938 2.79688,-13.2969 2.79688,-12.5 C2.79688,-12 3,-11.5 3.20313,-11 C4.20313,-8.70313 5.5,-6.59375 6.90625,-4.5 C9.09375,-1.40625 11.0938,2 12.7031,5.5 C12,6.09375 11.4063,5.90625 10.7969,6 C4,6.90625 -0.5,12 0,18.0938 C0.703125,25.4063 3.40625,32.2031 6.70313,38.7031 C7.09375,39.5 7.59375,40.2969 8.59375,40.6094 C9.20313,40.7969 9.59375,41.5 10.0938,41.5 C10.2031,41.5 10.4063,41.5 10.5,41.4063"/>
<path class="Rest" transform="matrix(0.992126,0,0,0.992126,2612.91,435.827)" d="M11.4063,26 C13.2031,25.9063 14.0938,24.7969 14.7031,23.5938 C16.5,20.2969 17.9063,16.7969 19.2031,13.2031 C23.0938,2.5 24.9063,-8.90625 28.5,-19.7969 C28.7031,-20.4063 28.9063,-21.0938 28.9063,-21.7969 L28.9063,-22.2969 C28.7969,-23.7031 28.5,-24.5938 27.2969,-24.5938 C27,-24.5938 26.7969,-24.5938 26.5,-24.5 C24.0938,-24.0938 21.9063,-23.0938 20.2969,-21.5938 C17.7969,-19.2031 15,-17.4063 12.0938,-15.5938 C11.7031,-15.4063 11.2969,-15.2031 10.9063,-15.2031 C10.5,-15.2031 10.0938,-15.4063 9.70313,-15.7969 C9.29688,-16.2031 9.09375,-16.7031 9.09375,-17.0938 C9.09375,-17.5 9.20313,-17.7969 9.40625,-18.2031 C9.79688,-18.9063 10.2031,-19.7969 10.2031,-20.7031 C10.2031,-22.4063 10.7031,-24.5938 8.79688,-25.5 C7.90625,-25.9063 7.09375,-26.1094 6.5,-26.1094 C5.20313,-26.1094 4.40625,-25.2031 3.29688,-23.2969 C1.40625,-20 0.796875,-16.2969 0.203125,-12.5938 C0.09375,-11.7969 0,-11.0938 0,-10.4063 C0,-5.79688 2.40625,-1.70313 7.59375,-1.70313 C8.79688,-1.70313 10.2969,-1.90625 11.9063,-2.5 C14.7969,-3.59375 17.2031,-5.20313 20.0938,-7 C17.7969,4.29688 13.4063,14.7969 11.4063,26"/>
<path class="Rest" transform="matrix(0.992126,0,0,0.992126,800.836,1031.1)" d="M9.20313,37.2031 C11.7031,38.4063 14.5,38.7969 17.2969,38.9063 C24.4063,38.9063 31.5,35.7031 35.2031,32.1094 C40.7969,26.7031 44.6094,20.0938 47,12.7031 C47.7969,10.4063 48.2031,8.09375 48.2031,5.90625 C48.2031,-0.796875 44.6094,-6.5 37.5,-9.59375 C34.7969,-10.7031 32.1094,-11.5938 29.2969,-12 C28.2969,-12.0938 27.7969,-12.2969 27.7969,-13 C27.7969,-13.2031 27.9063,-13.5938 28.1094,-14 C28.9063,-15.7969 29.6094,-17.7031 29.7031,-19.7031 C29.9063,-21.2969 30.7031,-21.7031 32.6094,-21.7031 C39.5,-21.7031 46,-23.7969 52.6094,-25.7969 C57,-27.2031 58.2969,-30 58.2969,-34 C58.2969,-37.5 57.9063,-38.9063 56.4063,-38.9063 C55.6094,-38.9063 54.5,-38.6094 53,-37.9063 C52.9063,-37.9063 52.7031,-37.7969 52.6094,-37.7031 C46.2031,-35.1094 39.6094,-33.6094 32.2969,-33.6094 C31.4063,-33.6094 29.5,-33.7969 27.5,-33.6094 C26.2031,-33.5 25.4063,-32.9063 24.5,-31.5 C22.4063,-28.1094 21.0938,-24.4063 19.5,-20.7969 C18.2031,-17.7031 17,-14.7031 17,-11.4063 C17,-11 17.0938,-10.5 17.0938,-10 C17.2969,-8 16.9063,-6.20313 16.2031,-4.40625 C15.7969,-3.5 15.5938,-2.79688 15.5938,-2.40625 C15.5938,-1.5 16.4063,-1.29688 18.2969,-1 C22.5938,-0.5 26.9063,0 30.9063,1.79688 C34.7969,3.59375 38,6.20313 39.5,10.5 C39.7969,11.2031 39.9063,11.7969 39.9063,12.5 C39.9063,15.0938 38,17 36.6094,19.0938 C33.6094,23.2031 29.1094,25.5 24.0938,25.5 C22.0938,25.5 20.0938,25.2031 18.0938,24.4063 C14.2969,23.0938 10.7031,21.2969 6.59375,20.7969 C5.09375,20.5938 4.5,21 3.79688,22.2969 C2,25.5 2.79688,29.1094 2,32.5 C1.79688,33.5 2.5,34.7031 3.90625,35.1094 C5.70313,35.7031 7.5,36.4063 9.20313,37.2031"/>
<polyline class="Rest" fill="none" stroke="#000000" stroke-width="17.36" stroke-linecap="square" stroke-linejoin="bevel" points="505.446,1117.91 1152.14,1117.91"/>
<polyline class="Rest" fill="none" stroke="#000000" stroke-width="4.96" stroke-linecap="square" stroke-linejoin="bevel" points="496.765,1093.11 496.765,1142.72"/>
<polyline class="Rest" fill="none" stroke="#000000" stroke-width="4.96" stroke-linecap="square" stroke-linejoin="bevel" points="1160.82,1093.11 1160.82,1142.72"/>
<path class="StaffText" d="M551.853,968.209 L540.353,952.881 C539.52,952.923 538.864,952.944 538.384,952.944 C536.718,952.944 534.999,952.876 533.228,952.741 L533.228,968.209 L529.228,968.209 L529.228,931.819 C532.645,931.152 535.937,930.819 539.103,930.819 C543.999,930.819 547.632,931.709 550.002,933.491 C552.371,935.272 553.556,938.038 553.556,941.788 C553.567,944.642 552.801,946.952 551.259,948.717 C549.718,950.483 547.442,951.699 544.431,952.366 L556.4,968.209 L551.853,968.209 M533.228,949.444 C534.249,949.538 535.121,949.603 535.845,949.639 C536.569,949.676 537.421,949.694 538.4,949.694 C542.338,949.694 545.205,949.061 547.002,947.795 C548.799,946.53 549.697,944.543 549.697,941.834 C549.697,939.991 549.34,938.501 548.627,937.366 C547.913,936.23 546.799,935.402 545.283,934.881 C543.767,934.36 541.791,934.1 539.353,934.1 C538.155,934.1 537.093,934.142 536.166,934.225 C535.239,934.308 534.259,934.439 533.228,934.616 L533.228,949.444 M580.775,955.991 L563.416,955.991 C563.478,958.272 563.856,960.103 564.549,961.483 C565.241,962.863 566.254,963.863 567.588,964.483 C568.921,965.103 570.619,965.413 572.681,965.413 C574.65,965.413 576.9,965.043 579.431,964.303 L579.431,967.584 C576.963,968.314 574.556,968.678 572.213,968.678 C567.89,968.678 564.666,967.564 562.541,965.334 C560.416,963.105 559.353,959.538 559.353,954.631 C559.353,949.985 560.317,946.496 562.244,944.163 C564.171,941.829 566.869,940.663 570.338,940.663 C573.713,940.663 576.296,941.827 578.088,944.155 C579.879,946.483 580.775,950.011 580.775,954.741 L580.775,955.991 M570.275,943.584 C568.098,943.584 566.426,944.334 565.259,945.834 C564.093,947.334 563.478,949.803 563.416,953.241 L576.931,953.241 C576.858,949.793 576.27,947.321 575.166,945.827 C574.062,944.332 572.431,943.584 570.275,943.584 M586.791,941.084 L590.213,941.084 L590.478,944.084 L590.728,944.084 C591.582,943.043 592.65,942.212 593.931,941.592 C595.213,940.972 596.64,940.663 598.213,940.663 C600.254,940.663 602.075,941.113 603.674,942.014 C605.272,942.915 606.541,944.368 607.478,946.373 C608.416,948.379 608.884,950.965 608.884,954.131 C608.884,959.006 607.733,962.65 605.431,965.061 C603.129,967.472 599.713,968.678 595.181,968.678 C593.983,968.678 592.515,968.564 590.775,968.334 L590.775,979.209 L586.791,979.209 L586.791,941.084 M595.259,965.413 C598.478,965.413 600.874,964.551 602.447,962.827 C604.02,961.103 604.806,958.329 604.806,954.506 C604.806,950.694 604.147,948.009 602.83,946.452 C601.512,944.894 599.661,944.116 597.275,944.116 C596.015,944.116 594.809,944.394 593.658,944.952 C592.507,945.509 591.546,946.345 590.775,947.459 L590.775,964.928 C591.411,965.064 592.129,965.178 592.931,965.272 C593.733,965.366 594.509,965.413 595.259,965.413 M614.791,968.209 L614.791,941.084 L618.775,941.084 L618.775,968.209 L614.791,968.209 M616.791,935.225 C615.884,935.225 615.189,935.004 614.705,934.561 C614.22,934.118 613.978,933.496 613.978,932.694 C613.978,931.892 614.226,931.267 614.72,930.819 C615.215,930.371 615.905,930.147 616.791,930.147 C617.666,930.147 618.345,930.371 618.83,930.819 C619.314,931.267 619.556,931.892 619.556,932.694 C619.556,933.496 619.314,934.118 618.83,934.561 C618.345,935.004 617.666,935.225 616.791,935.225 M638.009,965.209 C638.957,965.209 640.067,965.074 641.338,964.803 L641.338,968.178 C639.921,968.511 638.525,968.678 637.15,968.678 C631.306,968.678 628.384,965.683 628.384,959.694 L628.384,944.397 L623.259,944.397 L623.259,941.084 L628.384,941.084 L629.041,931.225 L632.384,931.225 L632.384,941.084 L640.9,941.084 L640.9,944.397 L632.384,944.397 L632.384,959.069 C632.384,961.277 632.838,962.853 633.744,963.795 C634.65,964.738 636.072,965.209 638.009,965.209 M665.775,955.991 L648.416,955.991 C648.478,958.272 648.856,960.103 649.549,961.483 C650.241,962.863 651.254,963.863 652.588,964.483 C653.921,965.103 655.619,965.413 657.681,965.413 C659.65,965.413 661.9,965.043 664.431,964.303 L664.431,967.584 C661.963,968.314 659.556,968.678 657.213,968.678 C652.89,968.678 649.666,967.564 647.541,965.334 C645.416,963.105 644.353,959.538 644.353,954.631 C644.353,949.985 645.317,946.496 647.244,944.163 C649.171,941.829 651.869,940.663 655.338,940.663 C658.713,940.663 661.296,941.827 663.088,944.155 C664.879,946.483 665.775,950.011 665.775,954.741 L665.775,955.991 M655.275,943.584 C653.098,943.584 651.426,944.334 650.259,945.834 C649.093,947.334 648.478,949.803 648.416,953.241 L661.931,953.241 C661.858,949.793 661.27,947.321 660.166,945.827 C659.062,944.332 657.431,943.584 655.275,943.584 M703.775,955.991 L686.416,955.991 C686.478,958.272 686.856,960.103 687.549,961.483 C688.241,962.863 689.254,963.863 690.588,964.483 C691.921,965.103 693.619,965.413 695.681,965.413 C697.65,965.413 699.9,965.043 702.431,964.303 L702.431,967.584 C699.963,968.314 697.556,968.678 695.213,968.678 C690.89,968.678 687.666,967.564 685.541,965.334 C683.416,963.105 682.353,959.538 682.353,954.631 C682.353,949.985 683.317,946.496 685.244,944.163 C687.171,941.829 689.869,940.663 693.338,940.663 C696.713,940.663 699.296,941.827 701.088,944.155 C702.879,946.483 703.775,950.011 703.775,954.741 L703.775,955.991 M693.275,943.584 C691.098,943.584 689.426,944.334 688.259,945.834 C687.093,947.334 686.478,949.803 686.416,953.241 L699.931,953.241 C699.858,949.793 699.27,947.321 698.166,945.827 C697.062,944.332 695.431,943.584 693.275,943.584 M709.791,968.209 L709.791,927.819 L713.775,927.819 L713.775,968.209 L709.791,968.209 M741.853,940.663 C744.218,940.663 746.158,940.972 747.674,941.592 C749.189,942.212 750.332,943.238 751.103,944.67 C751.874,946.103 752.259,948.027 752.259,950.444 L752.259,968.209 L748.9,968.209 L748.603,965.178 L748.338,965.178 C747.463,966.282 746.338,967.139 744.963,967.748 C743.588,968.358 742.103,968.663 740.509,968.663 C738.822,968.663 737.364,968.366 736.134,967.772 C734.905,967.178 733.96,966.324 733.299,965.209 C732.637,964.095 732.306,962.777 732.306,961.256 C732.306,958.86 733.09,957.009 734.658,955.702 C736.226,954.394 738.718,953.574 742.134,953.241 L748.338,952.569 L748.338,950.241 C748.338,948.626 748.082,947.36 747.572,946.444 C747.062,945.527 746.301,944.881 745.291,944.506 C744.28,944.131 742.963,943.944 741.338,943.944 C740.213,943.944 739.015,944.043 737.744,944.241 C736.473,944.439 735.228,944.746 734.009,945.163 L734.009,941.866 C735.124,941.48 736.39,941.183 737.806,940.975 C739.223,940.767 740.572,940.663 741.853,940.663 M741.509,965.553 C742.791,965.553 744.022,965.288 745.205,964.756 C746.387,964.225 747.431,963.392 748.338,962.256 L748.338,955.256 L742.4,955.913 C740.286,956.131 738.749,956.65 737.791,957.467 C736.832,958.285 736.353,959.423 736.353,960.881 C736.353,962.413 736.788,963.574 737.658,964.366 C738.528,965.157 739.812,965.553 741.509,965.553 M759.791,941.084 L763.134,941.084 L763.463,944.709 L763.713,944.709 C764.608,943.459 765.759,942.498 767.166,941.827 C768.572,941.155 770.062,940.819 771.634,940.819 C772.364,940.819 773.088,940.886 773.806,941.022 L773.806,944.741 C773.088,944.626 772.306,944.569 771.463,944.569 C770.046,944.569 768.624,944.897 767.197,945.553 C765.77,946.209 764.629,947.157 763.775,948.397 L763.775,968.209 L759.791,968.209 L759.791,941.084 M777.791,941.084 L781.213,941.084 L781.478,944.084 L781.728,944.084 C782.582,943.043 783.65,942.212 784.931,941.592 C786.213,940.972 787.64,940.663 789.213,940.663 C791.254,940.663 793.075,941.113 794.674,942.014 C796.272,942.915 797.541,944.368 798.478,946.373 C799.416,948.379 799.884,950.965 799.884,954.131 C799.884,959.006 798.733,962.65 796.431,965.061 C794.129,967.472 790.713,968.678 786.181,968.678 C784.983,968.678 783.515,968.564 781.775,968.334 L781.775,979.209 L777.791,979.209 L777.791,941.084 M786.259,965.413 C789.478,965.413 791.874,964.551 793.447,962.827 C795.02,961.103 795.806,958.329 795.806,954.506 C795.806,950.694 795.147,948.009 793.83,946.452 C792.512,944.894 790.661,944.116 788.275,944.116 C787.015,944.116 785.809,944.394 784.658,944.952 C783.507,945.509 782.546,946.345 781.775,947.459 L781.775,964.928 C782.411,965.064 783.129,965.178 783.931,965.272 C784.733,965.366 785.509,965.413 786.259,965.413 M825.775,955.991 L808.416,955.991 C808.478,958.272 808.856,960.103 809.549,961.483 C810.241,962.863 811.254,963.863 812.588,964.483 C813.921,965.103 815.619,965.413 817.681,965.413 C819.65,965.413 821.9,965.043 824.431,964.303 L824.431,967.584 C821.963,968.314 819.556,968.678 817.213,968.678 C812.89,968.678 809.666,967.564 807.541,965.334 C805.416,963.105 804.353,959.538 804.353,954.631 C804.353,949.985 805.317,946.496 807.244,944.163 C809.171,941.829 811.869,940.663 815.338,940.663 C818.713,940.663 821.296,941.827 823.088,944.155 C824.879,946.483 825.775,950.011 825.775,954.741 L825.775,955.991 M815.275,943.584 C813.098,943.584 811.426,944.334 810.259,945.834 C809.093,947.334 808.478,949.803 808.416,953.241 L821.931,953.241 C821.858,949.793 821.27,947.321 820.166,945.827 C819.062,944.332 817.431,943.584 815.275,943.584 M840.056,979.709 C838.754,979.709 837.395,979.605 835.978,979.397 C834.562,979.189 833.265,978.881 832.088,978.475 L832.088,975.131 C834.796,975.985 837.384,976.413 839.853,976.413 C841.853,976.413 843.478,976.136 844.728,975.584 C845.978,975.032 846.911,974.139 847.525,972.905 C848.14,971.67 848.447,970.022 848.447,967.959 L848.447,965.334 L848.197,965.334 C847.353,966.334 846.291,967.121 845.009,967.694 C843.728,968.267 842.296,968.553 840.713,968.553 C838.744,968.553 836.983,968.1 835.431,967.194 C833.879,966.288 832.645,964.84 831.728,962.85 C830.812,960.86 830.353,958.308 830.353,955.194 C830.353,950.36 831.507,946.735 833.814,944.319 C836.121,941.902 839.551,940.683 844.103,940.663 C845.509,940.663 846.95,940.772 848.424,940.991 C849.897,941.209 851.239,941.511 852.447,941.897 L852.447,967.334 C852.447,970.272 851.989,972.647 851.072,974.459 C850.155,976.272 848.791,977.6 846.978,978.444 C845.166,979.288 842.858,979.709 840.056,979.709 M841.9,965.131 C843.171,965.131 844.39,964.868 845.556,964.342 C846.723,963.816 847.687,963.038 848.447,962.006 L848.447,944.491 C846.957,944.126 845.4,943.944 843.775,943.944 C840.661,943.944 838.325,944.808 836.767,946.538 C835.21,948.267 834.431,951.027 834.431,954.819 C834.431,958.6 835.085,961.264 836.392,962.811 C837.7,964.358 839.536,965.131 841.9,965.131 M859.791,968.209 L859.791,941.084 L863.775,941.084 L863.775,968.209 L859.791,968.209 M861.791,935.225 C860.884,935.225 860.189,935.004 859.705,934.561 C859.22,934.118 858.978,933.496 858.978,932.694 C858.978,931.892 859.226,931.267 859.72,930.819 C860.215,930.371 860.905,930.147 861.791,930.147 C862.666,930.147 863.345,930.371 863.83,930.819 C864.314,931.267 864.556,931.892 864.556,932.694 C864.556,933.496 864.314,934.118 863.83,934.561 C863.345,935.004 862.666,935.225 861.791,935.225 M881.884,968.678 C878.249,968.678 875.418,967.532 873.392,965.241 C871.366,962.949 870.353,959.433 870.353,954.694 C870.353,949.944 871.361,946.418 873.377,944.116 C875.392,941.814 878.228,940.663 881.884,940.663 C885.551,940.663 888.392,941.806 890.408,944.092 C892.424,946.379 893.431,949.902 893.431,954.663 C893.431,959.392 892.413,962.91 890.377,965.217 C888.34,967.525 885.509,968.678 881.884,968.678 M881.884,965.428 C884.312,965.428 886.158,964.608 887.424,962.967 C888.689,961.327 889.322,958.584 889.322,954.741 C889.322,950.824 888.689,948.045 887.424,946.405 C886.158,944.764 884.312,943.944 881.884,943.944 C879.468,943.944 877.621,944.759 876.345,946.389 C875.069,948.019 874.431,950.761 874.431,954.616 C874.431,958.511 875.064,961.288 876.33,962.944 C877.595,964.6 879.447,965.428 881.884,965.428 M921.025,968.678 C918.963,968.678 917.132,968.22 915.533,967.303 C913.934,966.386 912.671,964.926 911.744,962.92 C910.817,960.915 910.353,958.345 910.353,955.209 C910.353,950.366 911.507,946.73 913.814,944.303 C916.121,941.876 919.536,940.663 924.056,940.663 C925.358,940.663 926.822,940.788 928.447,941.038 L928.447,927.819 L932.447,927.819 L932.447,968.209 L929.025,968.209 L928.759,965.256 L928.509,965.256 C927.655,966.308 926.588,967.142 925.306,967.756 C924.025,968.371 922.598,968.678 921.025,968.678 M921.963,965.241 C923.223,965.241 924.429,964.959 925.58,964.397 C926.731,963.834 927.687,962.996 928.447,961.881 L928.447,944.413 C927.822,944.277 927.108,944.165 926.306,944.077 C925.504,943.988 924.728,943.944 923.978,943.944 C920.759,943.944 918.364,944.806 916.791,946.53 C915.218,948.254 914.431,951.022 914.431,954.834 C914.431,958.616 915.085,961.295 916.392,962.873 C917.7,964.452 919.556,965.241 921.963,965.241 M959.775,955.991 L942.416,955.991 C942.478,958.272 942.856,960.103 943.549,961.483 C944.241,962.863 945.254,963.863 946.588,964.483 C947.921,965.103 949.619,965.413 951.681,965.413 C953.65,965.413 955.9,965.043 958.431,964.303 L958.431,967.584 C955.963,968.314 953.556,968.678 951.213,968.678 C946.89,968.678 943.666,967.564 941.541,965.334 C939.416,963.105 938.353,959.538 938.353,954.631 C938.353,949.985 939.317,946.496 941.244,944.163 C943.171,941.829 945.869,940.663 949.338,940.663 C952.713,940.663 955.296,941.827 957.088,944.155 C958.879,946.483 959.775,950.011 959.775,954.741 L959.775,955.991 M949.275,943.584 C947.098,943.584 945.426,944.334 944.259,945.834 C943.093,947.334 942.478,949.803 942.416,953.241 L955.931,953.241 C955.858,949.793 955.27,947.321 954.166,945.827 C953.062,944.332 951.431,943.584 949.275,943.584 M965.791,968.209 L965.791,927.819 L969.775,927.819 L969.775,968.209 L965.791,968.209 M989.791,941.084 L993.213,941.084 L993.478,944.084 L993.728,944.084 C994.582,943.043 995.65,942.212 996.931,941.592 C998.213,940.972 999.64,940.663 1001.21,940.663 C1003.25,940.663 1005.07,941.113 1006.67,942.014 C1008.27,942.915 1009.54,944.368 1010.48,946.373 C1011.42,948.379 1011.88,950.965 1011.88,954.131 C1011.88,959.006 1010.73,962.65 1008.43,965.061 C1006.13,967.472 1002.71,968.678 998.181,968.678 C996.983,968.678 995.515,968.564 993.775,968.334 L993.775,979.209 L989.791,979.209 L989.791,941.084 M998.259,965.413 C1001.48,965.413 1003.87,964.551 1005.45,962.827 C1007.02,961.103 1007.81,958.329 1007.81,954.506 C1007.81,950.694 1007.15,948.009 1005.83,946.452 C1004.51,944.894 1002.66,944.116 1000.28,944.116 C999.015,944.116 997.809,944.394 996.658,944.952 C995.507,945.509 994.546,946.345 993.775,947.459 L993.775,964.928 C994.411,965.064 995.129,965.178 995.931,965.272 C996.733,965.366 997.509,965.413 998.259,965.413 M1017.79,941.084 L1021.13,941.084 L1021.46,944.709 L1021.71,944.709 C1022.61,943.459 1023.76,942.498 1025.17,941.827 C1026.57,941.155 1028.06,940.819 1029.63,940.819 C1030.36,940.819 1031.09,940.886 1031.81,941.022 L1031.81,944.741 C1031.09,944.626 1030.31,944.569 1029.46,944.569 C1028.05,944.569 1026.62,944.897 1025.2,945.553 C1023.77,946.209 1022.63,947.157 1021.78,948.397 L1021.78,968.209 L1017.79,968.209 L1017.79,941.084 M1035.79,968.209 L1035.79,941.084 L1039.78,941.084 L1039.78,968.209 L1035.79,968.209 M1037.79,935.225 C1036.88,935.225 1036.19,935.004 1035.7,934.561 C1035.22,934.118 1034.98,933.496 1034.98,932.694 C1034.98,931.892 1035.23,931.267 1035.72,930.819 C1036.22,930.371 1036.91,930.147 1037.79,930.147 C1038.67,930.147 1039.35,930.371 1039.83,930.819 C1040.31,931.267 1040.56,931.892 1040.56,932.694 C1040.56,933.496 1040.31,934.118 1039.83,934.561 C1039.35,935.004 1038.67,935.225 1037.79,935.225 M1047.79,941.084 L1051.15,941.084 L1051.43,944.163 L1051.71,944.163 C1052.83,943.027 1054.11,942.16 1055.57,941.561 C1057.03,940.962 1058.58,940.663 1060.23,940.663 C1062.95,940.663 1065.08,941.426 1066.62,942.952 C1068.16,944.478 1068.93,946.923 1068.93,950.288 L1068.93,968.209 L1064.93,968.209 L1064.93,950.459 C1064.93,948.251 1064.44,946.663 1063.47,945.694 C1062.5,944.725 1061.09,944.241 1059.26,944.241 C1057.91,944.241 1056.55,944.532 1055.2,945.116 C1053.86,945.699 1052.71,946.605 1051.78,947.834 L1051.78,968.209 L1047.79,968.209 L1047.79,941.084 M1086.35,968.678 C1082.43,968.678 1079.44,967.545 1077.41,965.28 C1075.37,963.014 1074.35,959.475 1074.35,954.663 C1074.35,949.85 1075.45,946.314 1077.64,944.053 C1079.83,941.793 1083.07,940.663 1087.35,940.663 C1089.37,940.663 1091.23,940.897 1092.93,941.366 L1092.93,944.772 C1091.15,944.314 1089.44,944.084 1087.81,944.084 C1085.67,944.084 1083.92,944.428 1082.56,945.116 C1081.2,945.803 1080.19,946.913 1079.52,948.444 C1078.85,949.975 1078.51,952.017 1078.51,954.569 C1078.51,957.152 1078.82,959.23 1079.45,960.803 C1080.07,962.376 1081,963.517 1082.24,964.225 C1083.47,964.933 1085.04,965.288 1086.93,965.288 C1088.68,965.288 1090.68,964.913 1092.93,964.163 L1092.93,967.553 C1090.82,968.303 1088.62,968.678 1086.35,968.678 M1097.79,968.209 L1097.79,941.084 L1101.78,941.084 L1101.78,968.209 L1097.79,968.209 M1099.79,935.225 C1098.88,935.225 1098.19,935.004 1097.7,934.561 C1097.22,934.118 1096.98,933.496 1096.98,932.694 C1096.98,931.892 1097.23,931.267 1097.72,930.819 C1098.22,930.371 1098.91,930.147 1099.79,930.147 C1100.67,930.147 1101.35,930.371 1101.83,930.819 C1102.31,931.267 1102.56,931.892 1102.56,932.694 C1102.56,933.496 1102.31,934.118 1101.83,934.561 C1101.35,935.004 1100.67,935.225 1099.79,935.225 M1109.79,941.084 L1113.21,941.084 L1113.48,944.084 L1113.73,944.084 C1114.58,943.043 1115.65,942.212 1116.93,941.592 C1118.21,940.972 1119.64,940.663 1121.21,940.663 C1123.25,940.663 1125.07,941.113 1126.67,942.014 C1128.27,942.915 1129.54,944.368 1130.48,946.373 C1131.42,948.379 1131.88,950.965 1131.88,954.131 C1131.88,959.006 1130.73,962.65 1128.43,965.061 C1126.13,967.472 1122.71,968.678 1118.18,968.678 C1116.98,968.678 1115.51,968.564 1113.78,968.334 L1113.78,979.209 L1109.79,979.209 L1109.79,941.084 M1118.26,965.413 C1121.48,965.413 1123.87,964.551 1125.45,962.827 C1127.02,961.103 1127.81,958.329 1127.81,954.506 C1127.81,950.694 1127.15,948.009 1125.83,946.452 C1124.51,944.894 1122.66,944.116 1120.28,944.116 C1119.01,944.116 1117.81,944.394 1116.66,944.952 C1115.51,945.509 1114.55,946.345 1113.78,947.459 L1113.78,964.928 C1114.41,965.064 1115.13,965.178 1115.93,965.272 C1116.73,965.366 1117.51,965.413 1118.26,965.413 M1137.79,968.209 L1137.79,941.084 L1141.78,941.084 L1141.78,968.209 L1137.79,968.209 M1139.79,935.225 C1138.88,935.225 1138.19,935.004 1137.7,934.561 C1137.22,934.118 1136.98,933.496 1136.98,932.694 C1136.98,931.892 1137.23,931.267 1137.72,930.819 C1138.22,930.371 1138.91,930.147 1139.79,930.147 C1140.67,930.147 1141.35,930.371 1141.83,930.819 C1142.31,931.267 1142.56,931.892 1142.56,932.694 C1142.56,933.496 1142.31,934.118 1141.83,934.561 C1141.35,935.004 1140.67,935.225 1139.79,935.225 M1159.88,968.678 C1156.25,968.678 1153.42,967.532 1151.39,965.241 C1149.37,962.949 1148.35,959.433 1148.35,954.694 C1148.35,949.944 1149.36,946.418 1151.38,944.116 C1153.39,941.814 1156.23,940.663 1159.88,940.663 C1163.55,940.663 1166.39,941.806 1168.41,944.092 C1170.42,946.379 1171.43,949.902 1171.43,954.663 C1171.43,959.392 1170.41,962.91 1168.38,965.217 C1166.34,967.525 1163.51,968.678 1159.88,968.678 M1159.88,965.428 C1162.31,965.428 1164.16,964.608 1165.42,962.967 C1166.69,961.327 1167.32,958.584 1167.32,954.741 C1167.32,950.824 1166.69,948.045 1165.42,946.405 C1164.16,944.764 1162.31,943.944 1159.88,943.944 C1157.47,943.944 1155.62,944.759 1154.35,946.389 C1153.07,948.019 1152.43,950.761 1152.43,954.616 C1152.43,958.511 1153.06,961.288 1154.33,962.944 C1155.6,964.6 1157.45,965.428 1159.88,965.428 M1189.79,941.084 L1193.21,941.084 L1193.48,944.084 L1193.73,944.084 C1194.58,943.043 1195.65,942.212 1196.93,941.592 C1198.21,940.972 1199.64,940.663 1201.21,940.663 C1203.25,940.663 1205.07,941.113 1206.67,942.014 C1208.27,942.915 1209.54,944.368 1210.48,946.373 C1211.42,948.379 1211.88,950.965 1211.88,954.131 C1211.88,959.006 1210.73,962.65 1208.43,965.061 C1206.13,967.472 1202.71,968.678 1198.18,968.678 C1196.98,968.678 1195.51,968.564 1193.78,968.334 L1193.78,979.209 L1189.79,979.209 L1189.79,941.084 M1198.26,965.413 C1201.48,965.413 1203.87,964.551 1205.45,962.827 C1207.02,961.103 1207.81,958.329 1207.81,954.506 C1207.81,950.694 1207.15,948.009 1205.83,946.452 C1204.51,944.894 1202.66,944.116 1200.28,944.116 C1199.01,944.116 1197.81,944.394 1196.66,944.952 C1195.51,945.509 1194.55,946.345 1193.78,947.459 L1193.78,964.928 C1194.41,965.064 1195.13,965.178 1195.93,965.272 C1196.73,965.366 1197.51,965.413 1198.26,965.413 M1237.78,955.991 L1220.42,955.991 C1220.48,958.272 1220.86,960.103 1221.55,961.483 C1222.24,962.863 1223.25,963.863 1224.59,964.483 C1225.92,965.103 1227.62,965.413 1229.68,965.413 C1231.65,965.413 1233.9,965.043 1236.43,964.303 L1236.43,967.584 C1233.96,968.314 1231.56,968.678 1229.21,968.678 C1224.89,968.678 1221.67,967.564 1219.54,965.334 C1217.42,963.105 1216.35,959.538 1216.35,954.631 C1216.35,949.985 1217.32,946.496 1219.24,944.163 C1221.17,941.829 1223.87,940.663 1227.34,940.663 C1230.71,940.663 1233.3,941.827 1235.09,944.155 C1236.88,946.483 1237.78,950.011 1237.78,954.741 L1237.78,955.991 M1227.28,943.584 C1225.1,943.584 1223.43,944.334 1222.26,945.834 C1221.09,947.334 1220.48,949.803 1220.42,953.241 L1233.93,953.241 C1233.86,949.793 1233.27,947.321 1232.17,945.827 C1231.06,944.332 1229.43,943.584 1227.28,943.584 M1243.79,941.084 L1247.13,941.084 L1247.46,944.709 L1247.71,944.709 C1248.61,943.459 1249.76,942.498 1251.17,941.827 C1252.57,941.155 1254.06,940.819 1255.63,940.819 C1256.36,940.819 1257.09,940.886 1257.81,941.022 L1257.81,944.741 C1257.09,944.626 1256.31,944.569 1255.46,944.569 C1254.05,944.569 1252.62,944.897 1251.2,945.553 C1249.77,946.209 1248.63,947.157 1247.78,948.397 L1247.78,968.209 L1243.79,968.209 L1243.79,941.084 M1270.88,968.678 C1267.25,968.678 1264.42,967.532 1262.39,965.241 C1260.37,962.949 1259.35,959.433 1259.35,954.694 C1259.35,949.944 1260.36,946.418 1262.38,944.116 C1264.39,941.814 1267.23,940.663 1270.88,940.663 C1274.55,940.663 1277.39,941.806 1279.41,944.092 C1281.42,946.379 1282.43,949.902 1282.43,954.663 C1282.43,959.392 1281.41,962.91 1279.38,965.217 C1277.34,967.525 1274.51,968.678 1270.88,968.678 M1270.88,965.428 C1273.31,965.428 1275.16,964.608 1276.42,962.967 C1277.69,961.327 1278.32,958.584 1278.32,954.741 C1278.32,950.824 1277.69,948.045 1276.42,946.405 C1275.16,944.764 1273.31,943.944 1270.88,943.944 C1268.47,943.944 1266.62,944.759 1265.35,946.389 C1264.07,948.019 1263.43,950.761 1263.43,954.616 C1263.43,958.511 1264.06,961.288 1265.33,962.944 C1266.6,964.6 1268.45,965.428 1270.88,965.428 M1300.79,941.084 L1304.13,941.084 L1304.46,944.709 L1304.71,944.709 C1305.61,943.459 1306.76,942.498 1308.17,941.827 C1309.57,941.155 1311.06,940.819 1312.63,940.819 C1313.36,940.819 1314.09,940.886 1314.81,941.022 L1314.81,944.741 C1314.09,944.626 1313.31,944.569 1312.46,944.569 C1311.05,944.569 1309.62,944.897 1308.2,945.553 C1306.77,946.209 1305.63,947.157 1304.78,948.397 L1304.78,968.209 L1300.79,968.209 L1300.79,941.084 M1325.85,940.663 C1328.22,940.663 1330.16,940.972 1331.67,941.592 C1333.19,942.212 1334.33,943.238 1335.1,944.67 C1335.87,946.103 1336.26,948.027 1336.26,950.444 L1336.26,968.209 L1332.9,968.209 L1332.6,965.178 L1332.34,965.178 C1331.46,966.282 1330.34,967.139 1328.96,967.748 C1327.59,968.358 1326.1,968.663 1324.51,968.663 C1322.82,968.663 1321.36,968.366 1320.13,967.772 C1318.91,967.178 1317.96,966.324 1317.3,965.209 C1316.64,964.095 1316.31,962.777 1316.31,961.256 C1316.31,958.86 1317.09,957.009 1318.66,955.702 C1320.23,954.394 1322.72,953.574 1326.13,953.241 L1332.34,952.569 L1332.34,950.241 C1332.34,948.626 1332.08,947.36 1331.57,946.444 C1331.06,945.527 1330.3,944.881 1329.29,944.506 C1328.28,944.131 1326.96,943.944 1325.34,943.944 C1324.21,943.944 1323.01,944.043 1321.74,944.241 C1320.47,944.439 1319.23,944.746 1318.01,945.163 L1318.01,941.866 C1319.12,941.48 1320.39,941.183 1321.81,940.975 C1323.22,940.767 1324.57,940.663 1325.85,940.663 M1325.51,965.553 C1326.79,965.553 1328.02,965.288 1329.2,964.756 C1330.39,964.225 1331.43,963.392 1332.34,962.256 L1332.34,955.256 L1326.4,955.913 C1324.29,956.131 1322.75,956.65 1321.79,957.467 C1320.83,958.285 1320.35,959.423 1320.35,960.881 C1320.35,962.413 1320.79,963.574 1321.66,964.366 C1322.53,965.157 1323.81,965.553 1325.51,965.553 M1343.79,968.209 L1343.79,927.819 L1347.78,927.819 L1347.78,968.209 L1343.79,968.209 M1375.78,955.991 L1358.42,955.991 C1358.48,958.272 1358.86,960.103 1359.55,961.483 C1360.24,962.863 1361.25,963.863 1362.59,964.483 C1363.92,965.103 1365.62,965.413 1367.68,965.413 C1369.65,965.413 1371.9,965.043 1374.43,964.303 L1374.43,967.584 C1371.96,968.314 1369.56,968.678 1367.21,968.678 C1362.89,968.678 1359.67,967.564 1357.54,965.334 C1355.42,963.105 1354.35,959.538 1354.35,954.631 C1354.35,949.985 1355.32,946.496 1357.24,944.163 C1359.17,941.829 1361.87,940.663 1365.34,940.663 C1368.71,940.663 1371.3,941.827 1373.09,944.155 C1374.88,946.483 1375.78,950.011 1375.78,954.741 L1375.78,955.991 M1365.28,943.584 C1363.1,943.584 1361.43,944.334 1360.26,945.834 C1359.09,947.334 1358.48,949.803 1358.42,953.241 L1371.93,953.241 C1371.86,949.793 1371.27,947.321 1370.17,945.827 C1369.06,944.332 1367.43,943.584 1365.28,943.584 M1381.79,941.084 L1385.15,941.084 L1385.43,944.163 L1385.71,944.163 C1386.83,943.027 1388.11,942.16 1389.57,941.561 C1391.03,940.962 1392.58,940.663 1394.23,940.663 C1396.95,940.663 1399.08,941.426 1400.62,942.952 C1402.16,944.478 1402.93,946.923 1402.93,950.288 L1402.93,968.209 L1398.93,968.209 L1398.93,950.459 C1398.93,948.251 1398.44,946.663 1397.47,945.694 C1396.5,944.725 1395.09,944.241 1393.26,944.241 C1391.91,944.241 1390.55,944.532 1389.2,945.116 C1387.86,945.699 1386.71,946.605 1385.78,947.834 L1385.78,968.209 L1381.79,968.209 L1381.79,941.084 M1421.01,965.209 C1421.96,965.209 1423.07,965.074 1424.34,964.803 L1424.34,968.178 C1422.92,968.511 1421.53,968.678 1420.15,968.678 C1414.31,968.678 1411.38,965.683 1411.38,959.694 L1411.38,944.397 L1406.26,944.397 L1406.26,941.084 L1411.38,941.084 L1412.04,931.225 L1415.38,931.225 L1415.38,941.084 L1423.9,941.084 L1423.9,944.397 L1415.38,944.397 L1415.38,959.069 C1415.38,961.277 1415.84,962.853 1416.74,963.795 C1417.65,964.738 1419.07,965.209 1421.01,965.209 M1436.85,940.663 C1439.22,940.663 1441.16,940.972 1442.67,941.592 C1444.19,942.212 1445.33,943.238 1446.1,944.67 C1446.87,946.103 1447.26,948.027 1447.26,950.444 L1447.26,968.209 L1443.9,968.209 L1443.6,965.178 L1443.34,965.178 C1442.46,966.282 1441.34,967.139 1439.96,967.748 C1438.59,968.358 1437.1,968.663 1435.51,968.663 C1433.82,968.663 1432.36,968.366 1431.13,967.772 C1429.91,967.178 1428.96,966.324 1428.3,965.209 C1427.64,964.095 1427.31,962.777 1427.31,961.256 C1427.31,958.86 1428.09,957.009 1429.66,955.702 C1431.23,954.394 1433.72,953.574 1437.13,953.241 L1443.34,952.569 L1443.34,950.241 C1443.34,948.626 1443.08,947.36 1442.57,946.444 C1442.06,945.527 1441.3,944.881 1440.29,944.506 C1439.28,944.131 1437.96,943.944 1436.34,943.944 C1435.21,943.944 1434.01,944.043 1432.74,944.241 C1431.47,944.439 1430.23,944.746 1429.01,945.163 L1429.01,941.866 C1430.12,941.48 1431.39,941.183 1432.81,940.975 C1434.22,940.767 1435.57,940.663 1436.85,940.663 M1436.51,965.553 C1437.79,965.553 1439.02,965.288 1440.2,964.756 C1441.39,964.225 1442.43,963.392 1443.34,962.256 L1443.34,955.256 L1437.4,955.913 C1435.29,956.131 1433.75,956.65 1432.79,957.467 C1431.83,958.285 1431.35,959.423 1431.35,960.881 C1431.35,962.413 1431.79,963.574 1432.66,964.366 C1433.53,965.157 1434.81,965.553 1436.51,965.553 M1454.79,941.084 L1458.15,941.084 L1458.43,944.163 L1458.71,944.163 C1459.83,943.027 1461.11,942.16 1462.57,941.561 C1464.03,940.962 1465.58,940.663 1467.23,940.663 C1469.95,940.663 1472.08,941.426 1473.62,942.952 C1475.16,944.478 1475.93,946.923 1475.93,950.288 L1475.93,968.209 L1471.93,968.209 L1471.93,950.459 C1471.93,948.251 1471.44,946.663 1470.47,945.694 C1469.5,944.725 1468.09,944.241 1466.26,944.241 C1464.91,944.241 1463.55,944.532 1462.2,945.116 C1460.86,945.699 1459.71,946.605 1458.78,947.834 L1458.78,968.209 L1454.79,968.209 L1454.79,941.084 M1492.03,968.678 C1489.96,968.678 1488.13,968.22 1486.53,967.303 C1484.93,966.386 1483.67,964.926 1482.74,962.92 C1481.82,960.915 1481.35,958.345 1481.35,955.209 C1481.35,950.366 1482.51,946.73 1484.81,944.303 C1487.12,941.876 1490.54,940.663 1495.06,940.663 C1496.36,940.663 1497.82,940.788 1499.45,941.038 L1499.45,927.819 L1503.45,927.819 L1503.45,968.209 L1500.03,968.209 L1499.76,965.256 L1499.51,965.256 C1498.66,966.308 1497.59,967.142 1496.31,967.756 C1495.03,968.371 1493.6,968.678 1492.03,968.678 M1492.96,965.241 C1494.22,965.241 1495.43,964.959 1496.58,964.397 C1497.73,963.834 1498.69,962.996 1499.45,961.881 L1499.45,944.413 C1498.82,944.277 1498.11,944.165 1497.31,944.077 C1496.5,943.988 1495.73,943.944 1494.98,943.944 C1491.76,943.944 1489.36,944.806 1487.79,946.53 C1486.22,948.254 1485.43,951.022 1485.43,954.834 C1485.43,958.616 1486.08,961.295 1487.39,962.873 C1488.7,964.452 1490.56,965.241 1492.96,965.241 M1520.88,968.678 C1517.25,968.678 1514.42,967.532 1512.39,965.241 C1510.37,962.949 1509.35,959.433 1509.35,954.694 C1509.35,949.944 1510.36,946.418 1512.38,944.116 C1514.39,941.814 1517.23,940.663 1520.88,940.663 C1524.55,940.663 1527.39,941.806 1529.41,944.092 C1531.42,946.379 1532.43,949.902 1532.43,954.663 C1532.43,959.392 1531.41,962.91 1529.38,965.217 C1527.34,967.525 1524.51,968.678 1520.88,968.678 M1520.88,965.428 C1523.31,965.428 1525.16,964.608 1526.42,962.967 C1527.69,961.327 1528.32,958.584 1528.32,954.741 C1528.32,950.824 1527.69,948.045 1526.42,946.405 C1525.16,944.764 1523.31,943.944 1520.88,943.944 C1518.47,943.944 1516.62,944.759 1515.35,946.389 C1514.07,948.019 1513.43,950.761 1513.43,954.616 C1513.43,958.511 1514.06,961.288 1515.33,962.944 C1516.6,964.6 1518.45,965.428 1520.88,965.428"/>
<path class="Harmony" d="M565.492,324.213 L561.273,312.244 L545.648,312.244 L541.429,324.213 L537.351,324.213 L550.617,287.228 L556.336,287.228 L569.617,324.213 L565.492,324.213 M546.851,308.822 L560.039,308.822 L553.445,290.166 L546.851,308.822 "/>
<path class="Harmony" d="M603.789,296.666 C606.32,296.666 608.315,297.429 609.773,298.955 C611.231,300.481 611.961,302.916 611.961,306.259 L611.961,324.213 L607.961,324.213 L607.961,306.447 C607.961,304.249 607.513,302.666 606.617,301.697 C605.721,300.728 604.466,300.244 602.851,300.244 C601.685,300.244 600.513,300.522 599.336,301.08 C598.158,301.637 597.153,302.515 596.32,303.713 C596.424,304.463 596.476,305.28 596.476,306.166 L596.476,324.213 L592.523,324.213 L592.523,306.447 C592.523,304.228 592.091,302.64 591.226,301.681 C590.362,300.723 589.127,300.244 587.523,300.244 C586.304,300.244 585.096,300.551 583.898,301.166 C582.7,301.78 581.69,302.713 580.867,303.963 L580.867,324.213 L576.882,324.213 L576.882,297.088 L580.242,297.088 L580.523,300.166 L580.804,300.166 C581.836,299.02 583.018,298.15 584.351,297.556 C585.685,296.963 587.117,296.666 588.648,296.666 C591.929,296.666 594.185,297.968 595.414,300.572 C596.601,299.218 597.919,298.228 599.367,297.603 C600.815,296.978 602.289,296.666 603.789,296.666"/>
<path class="Harmony" d="M554.023,274.28 C548.658,274.28 544.526,272.793 541.625,269.819 C538.724,266.845 537.273,262.035 537.273,255.389 C537.273,248.879 538.747,244.077 541.695,240.983 C544.643,237.889 548.882,236.342 554.414,236.342 C557.112,236.342 559.778,236.702 562.414,237.42 L562.414,240.967 C559.862,240.238 557.247,239.874 554.57,239.874 C551.685,239.874 549.289,240.381 547.382,241.397 C545.476,242.413 544.026,244.053 543.031,246.319 C542.036,248.584 541.539,251.577 541.539,255.295 C541.539,259.108 542.039,262.152 543.039,264.428 C544.039,266.704 545.474,268.329 547.343,269.303 C549.213,270.277 551.539,270.764 554.32,270.764 C555.685,270.764 557.013,270.655 558.304,270.436 C559.596,270.217 560.966,269.858 562.414,269.358 L562.414,272.905 C559.82,273.821 557.023,274.28 554.023,274.28"/>
<path class="Harmony" d="M584.07,274.28 C579.257,274.28 575.497,272.73 572.789,269.631 C570.08,266.532 568.726,261.759 568.726,255.311 C568.726,250.967 569.356,247.387 570.617,244.569 C571.877,241.751 573.651,239.676 575.937,238.342 C578.224,237.009 580.935,236.342 584.07,236.342 C588.882,236.342 592.643,237.892 595.351,240.991 C598.06,244.09 599.414,248.863 599.414,255.311 C599.414,259.644 598.786,263.222 597.531,266.045 C596.276,268.868 594.505,270.946 592.218,272.28 C589.932,273.613 587.216,274.28 584.07,274.28 M584.07,270.78 C587.632,270.78 590.382,269.577 592.32,267.17 C594.257,264.764 595.226,260.853 595.226,255.436 C595.226,249.905 594.257,245.923 592.32,243.491 C590.382,241.058 587.632,239.842 584.07,239.842 C580.518,239.842 577.773,241.045 575.836,243.452 C573.898,245.858 572.929,249.769 572.929,255.186 C572.929,260.717 573.895,264.699 575.828,267.131 C577.76,269.564 580.507,270.78 584.07,270.78"/>
<path class="Harmony" d="M628.945,273.811 L617.445,258.483 C616.612,258.525 615.955,258.545 615.476,258.545 C613.81,258.545 612.091,258.478 610.32,258.342 L610.32,273.811 L606.32,273.811 L606.32,237.42 C609.737,236.754 613.028,236.42 616.195,236.42 C621.091,236.42 624.724,237.311 627.093,239.092 C629.463,240.874 630.648,243.639 630.648,247.389 C630.658,250.243 629.893,252.553 628.351,254.319 C626.81,256.084 624.533,257.301 621.523,257.967 L633.492,273.811 L628.945,273.811 M610.32,255.045 C611.341,255.139 612.213,255.204 612.937,255.241 C613.661,255.277 614.513,255.295 615.492,255.295 C619.429,255.295 622.297,254.663 624.093,253.397 C625.89,252.131 626.789,250.144 626.789,247.436 C626.789,245.592 626.432,244.103 625.718,242.967 C625.005,241.832 623.89,241.004 622.375,240.483 C620.859,239.962 618.882,239.702 616.445,239.702 C615.247,239.702 614.185,239.743 613.257,239.827 C612.33,239.91 611.351,240.04 610.32,240.217 L610.32,255.045 M644.742,273.811 L644.742,240.374 L632.445,240.374 L632.445,236.827 L661.148,236.827 L661.148,240.374 L648.82,240.374 L648.82,273.811 L644.742,273.811 M669.351,270.358 L688.445,270.358 L688.445,273.811 L665.32,273.811 L665.32,236.827 L688.195,236.827 L688.195,240.264 L669.351,240.264 L669.351,253.124 L685.773,253.124 L685.773,256.545 L669.351,256.545 L669.351,270.358 M701.648,274.28 C700.148,274.28 698.606,274.152 697.023,273.897 C695.44,273.642 693.94,273.269 692.523,272.78 L692.523,269.28 C694.023,269.801 695.56,270.186 697.132,270.436 C698.705,270.686 700.226,270.811 701.695,270.811 C707.716,270.811 710.726,268.556 710.726,264.045 C710.726,262.795 710.479,261.749 709.984,260.905 C709.489,260.061 708.713,259.353 707.656,258.78 C706.599,258.207 705.164,257.686 703.351,257.217 L701.351,256.686 C698.185,255.874 695.825,254.655 694.273,253.03 C692.721,251.405 691.945,249.269 691.945,246.624 C691.945,244.488 692.442,242.65 693.437,241.108 C694.432,239.566 695.908,238.387 697.867,237.569 C699.825,236.751 702.242,236.342 705.117,236.342 C706.554,236.342 707.974,236.439 709.375,236.631 C710.776,236.824 712.049,237.103 713.195,237.467 L713.195,240.967 C710.695,240.207 708.044,239.827 705.242,239.827 C702.127,239.827 699.817,240.387 698.312,241.506 C696.807,242.626 696.054,244.249 696.054,246.374 C696.054,247.582 696.273,248.603 696.711,249.436 C697.148,250.269 697.859,250.975 698.843,251.553 C699.828,252.131 701.169,252.644 702.867,253.092 L704.867,253.592 C708.304,254.457 710.823,255.707 712.422,257.342 C714.02,258.978 714.82,261.129 714.82,263.795 C714.82,266.004 714.304,267.892 713.273,269.459 C712.242,271.027 710.742,272.222 708.773,273.045 C706.804,273.868 704.429,274.28 701.648,274.28"/>
<path class="Page" d="M230.531,230.13 C233.073,230.13 235.318,230.57 237.266,231.45 C239.214,232.33 240.74,233.687 241.844,235.52 C242.948,237.354 243.5,239.645 243.5,242.395 C243.5,245.01 242.924,247.276 241.773,249.192 C240.622,251.109 238.979,252.575 236.844,253.591 C234.708,254.606 232.198,255.114 229.313,255.114 C224.354,255.114 220.466,253.526 217.648,250.348 C214.831,247.171 213.422,242.244 213.422,235.567 C213.422,228.182 215.109,222.637 218.484,218.934 C221.859,215.231 226.734,213.38 233.109,213.38 C236.464,213.38 239.234,213.791 241.422,214.614 L241.422,221.458 C239.089,220.624 236.464,220.208 233.547,220.208 C229.807,220.208 227.003,221.2 225.133,223.184 C223.263,225.169 222.266,228.244 222.141,232.411 C223.245,231.692 224.534,231.132 226.008,230.731 C227.482,230.33 228.99,230.13 230.531,230.13 M229.375,248.692 C231.208,248.692 232.669,248.182 233.758,247.161 C234.846,246.14 235.391,244.635 235.391,242.645 C235.391,240.583 234.81,239.054 233.648,238.059 C232.487,237.065 230.859,236.567 228.766,236.567 C227.599,236.567 226.443,236.731 225.297,237.059 C224.151,237.387 223.109,237.88 222.172,238.536 C222.276,241.088 222.633,243.106 223.242,244.591 C223.852,246.075 224.664,247.13 225.68,247.755 C226.695,248.38 227.927,248.692 229.375,248.692"/>
<path class="Bracket" transform="matrix(3.59646,0,0,0.992126,335.88,485.433)" d="M6.90625,-0.09375 C7.5,-0.5 7.09375,-1.09375 7,-1.5 C6.79688,-2.09375 6.40625,-2.5 5.90625,-2.70313 C2.90625,-3.79688 1.70313,-6 1.5,-9 C1.40625,-12.2969 1.59375,-15.5938 2,-18.7969 C2.59375,-23.7969 3.09375,-28.7969 3.79688,-33.7969 C4.29688,-37.4063 4.70313,-41 4.70313,-44.7031 C4.70313,-47.2969 4.5,-50 3,-52.4063 C2.79688,-52.7031 2.59375,-52.9063 3,-53.2031 C4.20313,-54.2969 4.70313,-55.7969 5.09375,-57.2969 C5.70313,-59.7031 6,-62.2031 6,-64.7031 C6,-66 5.90625,-67.4063 5.79688,-68.7969 C5.5,-73.9063 4.09375,-78.8125 3.40625,-83.8125 C3.20313,-85 3.09375,-86.3125 3.09375,-87.5 C3.09375,-89.6094 3.40625,-91.8125 4.20313,-93.9063 C4.70313,-95.3125 5.40625,-96.8125 6.79688,-97.3125 C7.70313,-97.7031 7.79688,-98.1094 7.79688,-98.9063 C7.79688,-99.2031 7.59375,-99.6094 7.29688,-99.8125 C6.79688,-100 6.29688,-99.6094 5.90625,-99.3125 C5.5,-99 5.20313,-98.6094 4.90625,-98.3125 C3.59375,-96.8125 3,-95 2.59375,-93.2031 C2.20313,-91.6094 2.09375,-90 2.09375,-88.4063 C2.09375,-85.8125 2.5,-83.1094 3,-80.5 C3.79688,-75.7969 4.90625,-71.1094 4.90625,-66.2969 C4.90625,-65.2969 4.90625,-64.4063 4.79688,-63.5 C4.5,-61.4063 4.20313,-59.2969 3.5,-57.2969 C3,-56 2.20313,-55.1094 0.90625,-54.6094 C0.296875,-54.2969 0,-53.7969 0,-53.2031 C0,-52.7031 0.203125,-52.2031 0.796875,-51.9063 C3.20313,-50.6094 3.59375,-48.2031 3.59375,-45.7969 C3.59375,-40.7031 2.70313,-35.7969 2,-30.7969 C1.29688,-25 0.40625,-19.2031 0.09375,-13.4063 L0.09375,-12.2969 C0,-7.5 1.20313,-3.09375 5.79688,-0.5 C6,-0.296875 6.29688,0 6.59375,0 C6.70313,0 6.79688,0 6.90625,-0.09375"/>
<path class="Bracket" transform="matrix(3.59646,0,0,0.992126,335.88,1167.52)" d="M6.90625,-0.09375 C7.5,-0.5 7.09375,-1.09375 7,-1.5 C6.79688,-2.09375 6.40625,-2.5 5.90625,-2.70313 C2.90625,-3.79688 1.70313,-6 1.5,-9 C1.40625,-12.2969 1.59375,-15.5938 2,-18.7969 C2.59375,-23.7969 3.09375,-28.7969 3.79688,-33.7969 C4.29688,-37.4063 4.70313,-41 4.70313,-44.7031 C4.70313,-47.2969 4.5,-50 3,-52.4063 C2.79688,-52.7031 2.59375,-52.9063 3,-53.2031 C4.20313,-54.2969 4.70313,-55.7969 5.09375,-57.2969 C5.70313,-59.7031 6,-62.2031 6,-64.7031 C6,-66 5.90625,-67.4063 5.79688,-68.7969 C5.5,-73.9063 4.09375,-78.8125 3.40625,-83.8125 C3.20313,-85 3.09375,-86.3125 3.09375,-87.5 C3.09375,-89.6094 3.40625,-91.8125 4.20313,-93.9063 C4.70313,-95.3125 5.40625,-96.8125 6.79688,-97.3125 C7.70313,-97.7031 7.79688,-98.1094 7.79688,-98.9063 C7.79688,-99.2031 7.59375,-99.6094 7.29688,-99.8125 C6.79688,-100 6.29688,-99.6094 5.90625,-99.3125 C5.5,-99 5.20313,-98.6094 4.90625,-98.3125 C3.59375,-96.8125 3,-95 2.59375,-93.2031 C2.20313,-91.6094 2.09375,-90 2.09375,-88.4063 C2.09375,-85.8125 2.5,-83.1094 3,-80.5 C3.79688,-75.7969 4.90625,-71.1094 4.90625,-66.2969 C4.90625,-65.2969 4.90625,-64.4063 4.79688,-63.5 C4.5,-61.4063 4.20313,-59.2969 3.5,-57.2969 C3,-56 2.20313,-55.1094 0.90625,-54.6094 C0.296875,-54.2969 0,-53.7969 0,-53.2031 C0,-52.7031 0.203125,-52.2031 0.796875,-51.9063 C3.20313,-50.6094 3.59375,-48.2031 3.59375,-45.7969 C3.59375,-40.7031 2.70313,-35.7969 2,-30.7969 C1.29688,-25 0.40625,-19.2031 0.09375,-13.4063 L0.09375,-12.2969 C0,-7.5 1.20313,-3.09375 5.79688,-0.5 C6,-0.296875 6.29688,0 6.59375,0 C6.70313,0 6.79688,0 6.90625,-0.09375"/>
</svg>
