<svg xmlns="http://www.w3.org/2000/svg" viewBox="0 0 1080 1080"><defs><style>.cls-1,.cls-2{fill:#fff;}.cls-2,.cls-3{stroke:#000;stroke-miterlimit:10;stroke-width:12px;}.cls-3{fill:none;}</style></defs><g id="Capa_10" data-name="Capa 10"><path d="M631.93,223.77a21.28,21.28,0,0,0-4.07-8.2,34.21,34.21,0,0,0-11-8.67,43.44,43.44,0,0,0-5.89-2.48c-.65-.23-.71-.47-.48-1.12a37.09,37.09,0,0,0,2.89-10.61,25,25,0,0,0-1.47-12.33,22.89,22.89,0,0,0-7.2-9.5,34.54,34.54,0,0,0-12.09-6.19c-.53-.18-.71-.41-.59-.88a29.12,29.12,0,0,0,1-5.55,19.41,19.41,0,0,0-1.41-10.5c-2.12-4.6-5.84-7.31-10.5-9a26.62,26.62,0,0,0-8.61-1.6c-.36,0-.65.06-.89-.35a17.74,17.74,0,0,0,1.6-6.37,24.7,24.7,0,0,0-2.6-11.15c-2.77-5.9-7.08-10.68-11.74-15.16-2-2-4.13-3.83-6.19-5.66A49,49,0,0,0,540,90.06a46.6,46.6,0,0,0-12.86-4.19,14.52,14.52,0,0,0-6.78,0,2,2,0,0,0-1.42,2.42,5.92,5.92,0,0,0,.65,1.71c.71,1.53,2,2.47,3.13,3.71a5.67,5.67,0,0,1,.53,7.38c-1.36,1.88-2.83,3.65-4.31,5.48a32.72,32.72,0,0,0-5.13,9.32c-.94,2.89-1.24,5.84.35,8.67a24.13,24.13,0,0,0,1.54,2.12c-1.89.83-3.72,1.48-5.49,2.3-6.07,2.78-11.56,6.2-15.51,11.8a21.48,21.48,0,0,0-3.95,13,24,24,0,0,0,2.06,9.26,28.3,28.3,0,0,1,1.18,2.71c-1.12.36-2.18.77-3.24,1.12a32.7,32.7,0,0,0-8.44,4.37A22.5,22.5,0,0,0,477,176.7a17.26,17.26,0,0,0-3,6.08,30.37,30.37,0,0,0,.36,16.4,54.91,54.91,0,0,0,1.89,5.48c-1.07.24-1.89.35-2.78.59a27.86,27.86,0,0,0-9.73,4.6,23.63,23.63,0,0,0-8.26,11.39,29.36,29.36,0,0,0-1.65,12.56c.06.35.06.77.12,1.12,20.31-12.63,57.92-18.46,89-18.46s64.15,5.4,88.77,18.34A24,24,0,0,0,631.93,223.77ZM522.69,189.6a13.39,13.39,0,0,1-1.63,2.19c-3.51,3.58-8.16,3.46-11.43-.36-2.67-3.19-3.58-6.93-3.62-11.19.12-4,1.07-8,4.14-11.15,3.3-3.34,7.84-3.22,11,.28a15.64,15.64,0,0,1,3.82,10A17.84,17.84,0,0,1,522.69,189.6Zm53.1,1.91a7.15,7.15,0,0,1-10.66,0,14.85,14.85,0,0,1-4-9.24c-.47-4.62.28-9,3.23-12.78,3.42-4.42,8.8-4.42,12.3,0a13.79,13.79,0,0,1,1.71,2.75,20.77,20.77,0,0,1,1.63,8.76A15.43,15.43,0,0,1,575.79,191.51Z"/></g><g id="Capa_1" data-name="Capa 1"><path class="cls-1" d="M543,978.38c-39.5,0-77.78-10-113.8-29.66-34.63-18.92-65.7-46-92.33-80.36-54.49-70.38-84.5-163.85-84.5-263.18,0-78.16,18.6-153,53.79-216.41,34.61-62.38,82.44-109,138.31-134.81,2.17-1,4.42-2,6.64-2.94a231.38,231.38,0,0,1,183.6-.1c1.95.83,4,1.69,6.09,2.71,56.06,25.67,104.05,72.24,138.8,134.69,35.34,63.5,54,138.49,54,216.86,0,99.33-30,192.8-84.49,263.18-26.64,34.4-57.71,61.44-92.33,80.36C620.77,968.4,582.48,978.38,543,978.38Z"/><path d="M543,239.48a225.06,225.06,0,0,1,88.77,18.34c1.94.83,3.89,1.65,5.84,2.6C747.42,310.67,826.11,446,826.11,605.18c0,202-126.76,365.7-283.12,365.7S259.86,807.14,259.86,605.18c0-158.73,78.33-293.86,187.75-344.41,2.12-1,4.25-1.95,6.37-2.83a225.24,225.24,0,0,1,89-18.46m0-15a240,240,0,0,0-94.85,19.64c-2.28.95-4.59,2-6.87,3.06-28.62,13.23-55.42,32-79.65,55.69-23.81,23.32-44.68,51-62,82.26-35.8,64.53-54.73,140.62-54.73,220a471.48,471.48,0,0,0,23,147c14.79,45.18,36,85.81,63.07,120.76,27.27,35.23,59.12,62.94,94.66,82.35,37.13,20.29,76.63,30.58,117.4,30.58s80.26-10.29,117.39-30.58c35.54-19.41,67.39-47.12,94.67-82.35,27.05-35,48.27-75.58,63.07-120.76a471.77,471.77,0,0,0,23-147c0-79.65-19-155.9-55-220.51-17.43-31.31-38.39-59-62.29-82.3C699.55,278.68,672.68,260,644,246.85c-2.23-1.08-4.34-2-6.38-2.84A239.84,239.84,0,0,0,543,224.48Z"/></g><g id="Capa_3" data-name="Capa 3"><ellipse class="cls-2" cx="542.99" cy="605.18" rx="265.43" ry="342.11"/></g><g id="Capa_4" data-name="Capa 4"><line class="cls-3" x1="286.41" y1="687.76" x2="799.57" y2="687.76"/></g><g id="Capa_5" data-name="Capa 5"><line class="cls-3" x1="280.51" y1="646.47" x2="805.47" y2="646.47"/></g><g id="Capa_6" data-name="Capa 6"><line class="cls-3" x1="280.51" y1="605.18" x2="808.41" y2="605.18"/></g><g id="Capa_7" data-name="Capa 7"><line class="cls-3" x1="280.51" y1="563.89" x2="805.47" y2="563.89"/></g><g id="Capa_8" data-name="Capa 8"><line class="cls-3" x1="283.46" y1="522.6" x2="802.52" y2="522.6"/></g><g id="Capa_9" data-name="Capa 9"><path d="M333.46,528.51,332.2,585c7.85-9,9.73-9.73,16.95-9.73,11.77,0,19.78,8.32,19.78,20.4,0,17.43-17.74,25.11-31.39,36.1l-11,8.79V528.51Zm-1.26,86.32c0,5.65.47,10.2,1.57,13.5,14.91-11.93,22.29-22.76,22.29-32.34,0-7.53-4.55-13.8-11.62-13.8-5.49,0-8,6.12-11,10.67C332.67,604.32,332.2,611.69,332.2,614.83Z"/></g></svg>