<?xml version="1.0" encoding="UTF-8" standalone="no"?>
<svg width="3060px" height="3960px" viewBox="0 0 3060 3960"
 xmlns="http://www.w3.org/2000/svg" xmlns:xlink="http://www.w3.org/1999/xlink" version="1.2" baseProfile="tiny">
<title>Cifrado (3)</title>
<desc>Generated by MuseScore 3.6.2</desc>
<polyline class="StaffLines" fill="none" stroke="#000000" stroke-width="3.22" stroke-linejoin="bevel" points="433.398,386.199 2763.78,386.199"/>
<polyline class="StaffLines" fill="none" stroke="#000000" stroke-width="3.22" stroke-linejoin="bevel" points="433.398,423.399 2763.78,423.399"/>
<polyline class="StaffLines" fill="none" stroke="#000000" stroke-width="3.22" stroke-linejoin="bevel" points="433.398,460.599 2763.78,460.599"/>
<polyline class="StaffLines" fill="none" stroke="#000000" stroke-width="3.22" stroke-linejoin="bevel" points="433.398,497.799 2763.78,497.799"/>
<polyline class="StaffLines" fill="none" stroke="#000000" stroke-width="3.22" stroke-linejoin="bevel" points="433.398,534.999 2763.78,534.999"/>
<polyline class="StaffLines" fill="none" stroke="#000000" stroke-width="3.22" stroke-linejoin="bevel" points="433.398,572.199 2763.78,572.199"/>
<polyline class="StaffLines" fill="none" stroke="#000000" stroke-width="3.22" stroke-linejoin="bevel" points="320.398,944.199 1612.11,944.199"/>
<polyline class="StaffLines" fill="none" stroke="#000000" stroke-width="3.22" stroke-linejoin="bevel" points="320.398,968.999 1612.11,968.999"/>
<polyline class="StaffLines" fill="none" stroke="#000000" stroke-width="3.22" stroke-linejoin="bevel" points="320.398,993.799 1612.11,993.799"/>
<polyline class="StaffLines" fill="none" stroke="#000000" stroke-width="3.22" stroke-linejoin="bevel" points="320.398,1018.6 1612.11,1018.6"/>
<polyline class="StaffLines" fill="none" stroke="#000000" stroke-width="3.22" stroke-linejoin="bevel" points="320.398,1043.4 1612.11,1043.4"/>
<path class="MeasureNumber" d="M425.133,336.599 L421.508,336.599 L421.508,312.52 L414.227,315.192 L414.227,311.911 L424.57,308.02 L425.133,308.02 L425.133,336.599 M449.117,324.099 C448.357,324.994 447.453,325.716 446.406,326.263 C445.359,326.809 444.211,327.083 442.961,327.083 C441.315,327.083 439.885,326.679 438.672,325.872 C437.458,325.065 436.518,323.929 435.852,322.466 C435.185,321.002 434.852,319.385 434.852,317.614 C434.852,315.708 435.213,313.994 435.937,312.474 C436.661,310.953 437.687,309.789 439.016,308.981 C440.344,308.174 441.893,307.77 443.664,307.77 C446.477,307.77 448.693,308.822 450.312,310.927 C451.932,313.031 452.742,315.895 452.742,319.52 L452.742,320.583 C452.742,326.114 451.648,330.153 449.461,332.7 C447.273,335.247 443.971,336.552 439.555,336.614 L438.852,336.614 L438.852,333.552 L439.617,333.552 C442.596,333.5 444.888,332.724 446.492,331.224 C448.096,329.724 448.971,327.349 449.117,324.099 M443.539,324.099 C444.758,324.099 445.878,323.726 446.898,322.981 C447.919,322.237 448.664,321.317 449.133,320.224 L449.133,318.786 C449.133,316.411 448.617,314.481 447.586,312.997 C446.555,311.513 445.253,310.77 443.68,310.77 C442.096,310.77 440.823,311.38 439.859,312.599 C438.896,313.817 438.414,315.421 438.414,317.411 C438.414,319.359 438.878,320.96 439.805,322.216 C440.732,323.471 441.977,324.099 443.539,324.099"/>
<path class="MeasureNumber" d="M322.398,894.599 L303.758,894.599 L303.758,892.005 L313.602,881.068 C315.06,879.412 316.068,878.065 316.625,877.029 C317.182,875.992 317.461,874.922 317.461,873.818 C317.461,872.328 317.01,871.11 316.109,870.162 C315.208,869.214 314.008,868.74 312.508,868.74 C310.716,868.74 309.323,869.25 308.328,870.271 C307.333,871.292 306.836,872.714 306.836,874.537 L303.211,874.537 C303.211,871.922 304.055,869.808 305.742,868.193 C307.43,866.578 309.685,865.771 312.508,865.771 C315.154,865.771 317.245,866.464 318.781,867.849 C320.318,869.235 321.086,871.078 321.086,873.38 C321.086,876.183 319.305,879.516 315.742,883.38 L308.117,891.646 L322.398,891.646 L322.398,894.599 M337.633,894.599 L334.008,894.599 L334.008,870.521 L326.727,873.193 L326.727,869.912 L337.07,866.021 L337.633,866.021 L337.633,894.599 "/>
<path class="InstrumentName" d="M245.473,481.605 L245.473,502.714 C243.619,503.037 241.911,503.264 240.348,503.394 C238.786,503.524 237.176,503.589 235.52,503.589 C227.916,503.589 222.226,501.769 218.45,498.128 C214.674,494.488 212.775,488.798 212.755,481.058 C212.755,473.256 214.653,467.501 218.45,463.792 C222.247,460.084 227.598,458.23 234.505,458.23 C237.796,458.23 241.114,458.673 244.458,459.558 L244.458,463.808 C242.739,463.329 241.098,462.985 239.536,462.777 C237.973,462.568 236.395,462.464 234.801,462.464 C229.26,462.464 225.049,463.915 222.169,466.816 C219.288,469.717 217.848,474.475 217.848,481.089 C217.848,485.391 218.494,488.891 219.786,491.589 C221.078,494.287 223.002,496.261 225.559,497.511 C228.117,498.761 231.348,499.386 235.255,499.386 C237.265,499.386 239.135,499.266 240.864,499.027 L240.864,481.605 L245.473,481.605 M264.145,503.746 C260.926,503.746 258.393,502.834 256.544,501.011 C254.695,499.188 253.77,496.277 253.77,492.277 L253.77,470.652 L258.567,470.652 L258.567,492.042 C258.567,494.678 259.153,496.571 260.325,497.722 C261.497,498.873 263.13,499.449 265.223,499.449 C266.828,499.449 268.434,499.089 270.044,498.371 C271.653,497.652 272.999,496.574 274.083,495.136 L274.083,470.652 L278.88,470.652 L278.88,503.199 L274.833,503.199 L274.473,499.636 L274.161,499.636 C272.828,500.99 271.304,502.014 269.591,502.707 C267.877,503.399 266.062,503.746 264.145,503.746 M288.13,503.199 L288.13,470.652 L292.926,470.652 L292.926,503.199 L288.13,503.199 M290.536,463.605 C289.453,463.605 288.619,463.339 288.036,462.808 C287.453,462.277 287.161,461.532 287.161,460.574 C287.161,459.615 287.458,458.865 288.051,458.324 C288.645,457.782 289.473,457.511 290.536,457.511 C291.588,457.511 292.406,457.782 292.989,458.324 C293.572,458.865 293.864,459.615 293.864,460.574 C293.864,461.532 293.572,462.277 292.989,462.808 C292.406,463.339 291.588,463.605 290.536,463.605 M315.598,499.605 C316.734,499.605 318.062,499.443 319.583,499.121 L319.583,503.167 C317.885,503.563 316.218,503.761 314.583,503.761 C307.562,503.761 304.051,500.162 304.051,492.964 L304.051,474.605 L297.895,474.605 L297.895,470.652 L304.051,470.652 L304.833,458.808 L308.848,458.808 L308.848,470.652 L319.083,470.652 L319.083,474.605 L308.848,474.605 L308.848,492.214 C308.848,494.881 309.393,496.779 310.481,497.91 C311.57,499.04 313.275,499.605 315.598,499.605 M327.505,503.589 C326.484,503.589 325.653,503.29 325.012,502.691 C324.372,502.092 324.051,501.282 324.051,500.261 C324.051,499.24 324.367,498.425 324.997,497.816 C325.627,497.207 326.463,496.902 327.505,496.902 C328.536,496.902 329.372,497.212 330.012,497.832 C330.653,498.451 330.973,499.261 330.973,500.261 C330.973,501.261 330.653,502.066 330.012,502.675 C329.372,503.285 328.536,503.589 327.505,503.589 M359.505,499.058 L382.411,499.058 L382.411,503.199 L354.661,503.199 L354.661,458.808 L382.114,458.808 L382.114,462.933 L359.505,462.933 L359.505,478.355 L379.208,478.355 L379.208,482.464 L359.505,482.464 L359.505,499.058 M389.13,503.199 L389.13,454.714 L393.926,454.714 L393.926,503.199 L389.13,503.199 M405.505,503.589 C404.484,503.589 403.653,503.29 403.012,502.691 C402.372,502.092 402.051,501.282 402.051,500.261 C402.051,499.24 402.367,498.425 402.997,497.816 C403.627,497.207 404.463,496.902 405.505,496.902 C406.536,496.902 407.372,497.212 408.012,497.832 C408.653,498.451 408.973,499.261 408.973,500.261 C408.973,501.261 408.653,502.066 408.012,502.675 C407.372,503.285 406.536,503.589 405.505,503.589"/>
<path class="InstrumentName" d="M246.833,970.909 L251.661,970.909 L235.817,1015.3 L228.739,1015.3 L212.926,970.909 L218.083,970.909 L232.426,1011.55 L246.833,970.909 M266.255,1015.86 C261.89,1015.86 258.492,1014.49 256.059,1011.74 C253.627,1008.99 252.411,1004.76 252.411,999.065 C252.411,993.367 253.622,989.138 256.044,986.377 C258.466,983.617 261.869,982.237 266.255,982.237 C270.65,982.237 274.059,983.607 276.481,986.346 C278.903,989.086 280.114,993.315 280.114,999.034 C280.114,1004.72 278.893,1008.95 276.45,1011.71 C274.007,1014.48 270.609,1015.86 266.255,1015.86 M266.255,1011.97 C269.171,1011.97 271.39,1010.99 272.911,1009.02 C274.432,1007.05 275.192,1003.75 275.192,999.127 C275.192,994.43 274.432,991.096 272.911,989.127 C271.39,987.159 269.171,986.174 266.255,986.174 C263.348,986.174 261.13,987.154 259.598,989.112 C258.067,991.07 257.301,994.362 257.301,998.987 C257.301,1003.66 258.062,1007 259.583,1008.99 C261.104,1010.98 263.328,1011.97 266.255,1011.97 M288.505,1015.69 C287.484,1015.69 286.653,1015.39 286.012,1014.79 C285.372,1014.19 285.051,1013.38 285.051,1012.36 C285.051,1011.34 285.367,1010.53 285.997,1009.92 C286.627,1009.31 287.463,1009 288.505,1009 C289.536,1009 290.372,1009.31 291.012,1009.93 C291.653,1010.55 291.973,1011.36 291.973,1012.36 C291.973,1013.36 291.653,1014.17 291.012,1014.78 C290.372,1015.39 289.536,1015.69 288.505,1015.69"/>
<polyline class="BarLine" fill="none" stroke="#000000" stroke-width="3.97" stroke-linejoin="bevel" points="435.382,384.587 435.382,573.811"/>
<polyline class="BarLine" fill="none" stroke="#000000" stroke-width="12.40" stroke-linejoin="bevel" points="630.845,384.587 630.845,573.811"/>
<polyline class="BarLine" fill="none" stroke="#000000" stroke-width="3.97" stroke-linejoin="bevel" points="648.949,384.587 648.949,573.811"/>
<path class="BarLine" transform="matrix(0.992001,0,0,0.992001,651.522,441.999)" d="M3.70313,8.20313 C5.59375,7.59375 7.70313,7.40625 9.70313,6.79688 C12.2031,6 14.2969,1.70313 14.2969,-1.59375 C14.2969,-2.59375 14.0938,-3.5 13.7031,-4.20313 C12.7969,-5.59375 12.0938,-7.59375 10.2969,-7.59375 C9.90625,-7.59375 9.40625,-7.5 8.90625,-7.29688 C8.59375,-7.29688 8.29688,-7.40625 7.90625,-7.40625 C6.20313,-7.40625 4.70313,-6.79688 3.09375,-6.59375 C1.29688,-6.40625 0.796875,-5.5 0.296875,-4 C0.09375,-3.09375 0,-2.29688 0,-1.40625 C0,1.20313 0.796875,3.70313 0.90625,6.40625 C0.90625,7.40625 1.70313,8.29688 3,8.29688 C3.20313,8.29688 3.40625,8.29688 3.70313,8.20313"/>
<path class="BarLine" transform="matrix(0.992001,0,0,0.992001,651.522,516.399)" d="M3.70313,8.20313 C5.59375,7.59375 7.70313,7.40625 9.70313,6.79688 C12.2031,6 14.2969,1.70313 14.2969,-1.59375 C14.2969,-2.59375 14.0938,-3.5 13.7031,-4.20313 C12.7969,-5.59375 12.0938,-7.59375 10.2969,-7.59375 C9.90625,-7.59375 9.40625,-7.5 8.90625,-7.29688 C8.59375,-7.29688 8.29688,-7.40625 7.90625,-7.40625 C6.20313,-7.40625 4.70313,-6.79688 3.09375,-6.59375 C1.29688,-6.40625 0.796875,-5.5 0.296875,-4 C0.09375,-3.09375 0,-2.29688 0,-1.40625 C0,1.20313 0.796875,3.70313 0.90625,6.40625 C0.90625,7.40625 1.70313,8.29688 3,8.29688 C3.20313,8.29688 3.40625,8.29688 3.70313,8.20313"/>
<polyline class="BarLine" fill="none" stroke="#000000" stroke-width="3.97" stroke-linejoin="bevel" points="1712.81,384.587 1712.81,573.811"/>
<path class="BarLine" transform="matrix(0.992001,0,0,0.992001,2722.65,441.999)" d="M3.70313,8.20313 C5.59375,7.59375 7.70313,7.40625 9.70313,6.79688 C12.2031,6 14.2969,1.70313 14.2969,-1.59375 C14.2969,-2.59375 14.0938,-3.5 13.7031,-4.20313 C12.7969,-5.59375 12.0938,-7.59375 10.2969,-7.59375 C9.90625,-7.59375 9.40625,-7.5 8.90625,-7.29688 C8.59375,-7.29688 8.29688,-7.40625 7.90625,-7.40625 C6.20313,-7.40625 4.70313,-6.79688 3.09375,-6.59375 C1.29688,-6.40625 0.796875,-5.5 0.296875,-4 C0.09375,-3.09375 0,-2.29688 0,-1.40625 C0,1.20313 0.796875,3.70313 0.90625,6.40625 C0.90625,7.40625 1.70313,8.29688 3,8.29688 C3.20313,8.29688 3.40625,8.29688 3.70313,8.20313"/>
<path class="BarLine" transform="matrix(0.992001,0,0,0.992001,2722.65,516.399)" d="M3.70313,8.20313 C5.59375,7.59375 7.70313,7.40625 9.70313,6.79688 C12.2031,6 14.2969,1.70313 14.2969,-1.59375 C14.2969,-2.59375 14.0938,-3.5 13.7031,-4.20313 C12.7969,-5.59375 12.0938,-7.59375 10.2969,-7.59375 C9.90625,-7.59375 9.40625,-7.5 8.90625,-7.29688 C8.59375,-7.29688 8.29688,-7.40625 7.90625,-7.40625 C6.20313,-7.40625 4.70313,-6.79688 3.09375,-6.59375 C1.29688,-6.40625 0.796875,-5.5 0.296875,-4 C0.09375,-3.09375 0,-2.29688 0,-1.40625 C0,1.20313 0.796875,3.70313 0.90625,6.40625 C0.90625,7.40625 1.70313,8.29688 3,8.29688 C3.20313,8.29688 3.40625,8.29688 3.70313,8.20313"/>
<polyline class="BarLine" fill="none" stroke="#000000" stroke-width="3.97" stroke-linejoin="bevel" points="2739.42,384.587 2739.42,573.811"/>
<polyline class="BarLine" fill="none" stroke="#000000" stroke-width="12.40" stroke-linejoin="bevel" points="2757.52,384.587 2757.52,573.811"/>
<polyline class="BarLine" fill="none" stroke="#000000" stroke-width="3.97" stroke-linejoin="bevel" points="322.382,942.587 322.382,1045.01"/>
<polyline class="BarLine" fill="none" stroke="#000000" stroke-width="3.97" stroke-linejoin="bevel" points="1015.95,942.587 1015.95,1045.01"/>
<polyline class="BarLine" fill="none" stroke="#000000" stroke-width="3.97" stroke-linejoin="bevel" points="1587.8,942.587 1587.8,1045.01"/>
<polyline class="BarLine" fill="none" stroke="#000000" stroke-width="12.40" stroke-linejoin="bevel" points="1605.91,942.587 1605.91,1045.01"/>
<polyline class="Stem" fill="none" stroke="#000000" stroke-width="2.98" stroke-linejoin="bevel" points="812.793,596.999 812.793,671.399"/>
<polyline class="Stem" fill="none" stroke="#000000" stroke-width="2.98" stroke-linejoin="bevel" points="879.216,596.999 879.216,671.399"/>
<polyline class="Stem" fill="none" stroke="#000000" stroke-width="2.98" stroke-linejoin="bevel" points="945.638,596.999 945.638,671.399"/>
<polyline class="Stem" fill="none" stroke="#000000" stroke-width="2.98" stroke-linejoin="bevel" points="1012.06,596.999 1012.06,671.399"/>
<polyline class="Stem" fill="none" stroke="#000000" stroke-width="2.98" stroke-linejoin="bevel" points="1078.48,596.999 1078.48,671.399"/>
<polyline class="Stem" fill="none" stroke="#000000" stroke-width="2.98" stroke-linejoin="bevel" points="1144.91,596.999 1144.91,671.399"/>
<polyline class="Stem" fill="none" stroke="#000000" stroke-width="2.98" stroke-linejoin="bevel" points="1211.33,596.999 1211.33,671.399"/>
<polyline class="Stem" fill="none" stroke="#000000" stroke-width="2.98" stroke-linejoin="bevel" points="1277.75,596.999 1277.75,671.399"/>
<polyline class="Stem" fill="none" stroke="#000000" stroke-width="2.98" stroke-linejoin="bevel" points="1344.18,596.999 1344.18,671.399"/>
<polyline class="Stem" fill="none" stroke="#000000" stroke-width="2.98" stroke-linejoin="bevel" points="1450.45,596.999 1450.45,671.399"/>
<polyline class="Stem" fill="none" stroke="#000000" stroke-width="2.98" stroke-linejoin="bevel" points="1516.87,596.999 1516.87,671.399"/>
<polyline class="Stem" fill="none" stroke="#000000" stroke-width="2.98" stroke-linejoin="bevel" points="1623.15,596.999 1623.15,671.399"/>
<polyline class="Stem" fill="none" stroke="#000000" stroke-width="2.98" stroke-linejoin="bevel" points="1824.62,596.999 1824.62,671.399"/>
<polyline class="Stem" fill="none" stroke="#000000" stroke-width="2.98" stroke-linejoin="bevel" points="1891.04,596.999 1891.04,671.399"/>
<polyline class="Stem" fill="none" stroke="#000000" stroke-width="2.98" stroke-linejoin="bevel" points="1957.46,596.999 1957.46,671.399"/>
<polyline class="Stem" fill="none" stroke="#000000" stroke-width="2.98" stroke-linejoin="bevel" points="2023.89,596.999 2023.89,671.399"/>
<polyline class="Stem" fill="none" stroke="#000000" stroke-width="2.98" stroke-linejoin="bevel" points="2090.31,596.999 2090.31,671.399"/>
<polyline class="Stem" fill="none" stroke="#000000" stroke-width="2.98" stroke-linejoin="bevel" points="2156.73,596.999 2156.73,671.399"/>
<polyline class="Stem" fill="none" stroke="#000000" stroke-width="2.98" stroke-linejoin="bevel" points="2223.16,596.999 2223.16,671.399"/>
<polyline class="Stem" fill="none" stroke="#000000" stroke-width="2.98" stroke-linejoin="bevel" points="2289.58,596.999 2289.58,671.399"/>
<polyline class="Stem" fill="none" stroke="#000000" stroke-width="2.98" stroke-linejoin="bevel" points="2356,596.999 2356,671.399"/>
<polyline class="Stem" fill="none" stroke="#000000" stroke-width="2.98" stroke-linejoin="bevel" points="2462.28,596.999 2462.28,671.399"/>
<polyline class="Stem" fill="none" stroke="#000000" stroke-width="2.98" stroke-linejoin="bevel" points="2528.7,596.999 2528.7,671.399"/>
<polyline class="Stem" fill="none" stroke="#000000" stroke-width="2.98" stroke-linejoin="bevel" points="2634.98,596.999 2634.98,671.399"/>
<path class="Note" fill="#ffffff" fill-rule="evenodd" d="M798.905,479.199 L826.681,479.199 L826.681,516.399 L798.905,516.399 L798.905,479.199 "/>
<path class="Note" d="M805.025,508.783 C805.723,508.783 806.755,509.189 808.119,510.002 C809.484,510.814 810.671,511.221 811.682,511.221 C813.338,511.221 814.736,510.58 815.877,509.299 C817.018,508.017 817.588,506.439 817.588,504.564 C817.588,503.398 817.385,502.366 816.979,501.471 C816.572,500.575 816.054,499.882 815.424,499.392 C814.794,498.903 814.044,498.502 813.174,498.189 C812.304,497.877 811.486,497.676 810.721,497.588 C809.955,497.499 809.14,497.455 808.275,497.455 L808.275,496.861 C809.296,496.507 810.174,496.155 810.908,495.807 C811.643,495.458 812.413,494.991 813.221,494.408 C814.028,493.825 814.65,493.114 815.088,492.275 C815.525,491.437 815.744,490.476 815.744,489.392 C815.744,487.986 815.286,486.833 814.369,485.932 C813.452,485.03 812.26,484.58 810.791,484.58 C809.385,484.58 808.148,484.963 807.08,485.728 C806.012,486.494 805.015,487.7 804.088,489.346 L803.416,489.174 C804.187,487.038 805.242,485.288 806.58,483.924 C807.919,482.559 809.817,481.877 812.275,481.877 C814.348,481.877 816.036,482.447 817.338,483.588 C818.64,484.728 819.291,486.215 819.291,488.049 C819.291,489.278 818.976,490.356 818.346,491.283 C817.716,492.21 816.619,493.2 815.057,494.252 C816.859,495.033 818.27,496.028 819.291,497.236 C820.312,498.445 820.822,500.169 820.822,502.408 C820.822,505.596 819.645,508.145 817.291,510.057 C814.937,511.968 811.973,512.924 808.4,512.924 C806.848,512.924 805.614,512.692 804.697,512.228 C803.781,511.765 803.322,511.142 803.322,510.361 C803.322,509.882 803.479,509.499 803.791,509.213 C804.104,508.926 804.515,508.783 805.025,508.783"/>
<path class="Note" fill="#ffffff" fill-rule="evenodd" d="M865.328,479.199 L893.104,479.199 L893.104,516.399 L865.328,516.399 L865.328,479.199 "/>
<path class="Note" d="M871.448,508.783 C872.146,508.783 873.177,509.189 874.542,510.002 C875.907,510.814 877.094,511.221 878.104,511.221 C879.761,511.221 881.159,510.58 882.3,509.299 C883.44,508.017 884.011,506.439 884.011,504.564 C884.011,503.398 883.808,502.366 883.401,501.471 C882.995,500.575 882.477,499.882 881.847,499.392 C881.216,498.903 880.466,498.502 879.597,498.189 C878.727,497.877 877.909,497.676 877.144,497.588 C876.378,497.499 875.563,497.455 874.698,497.455 L874.698,496.861 C875.719,496.507 876.597,496.155 877.331,495.807 C878.065,495.458 878.836,494.991 879.644,494.408 C880.451,493.825 881.073,493.114 881.511,492.275 C881.948,491.437 882.167,490.476 882.167,489.392 C882.167,487.986 881.709,486.833 880.792,485.932 C879.875,485.03 878.683,484.58 877.214,484.58 C875.808,484.58 874.571,484.963 873.503,485.728 C872.435,486.494 871.438,487.7 870.511,489.346 L869.839,489.174 C870.61,487.038 871.664,485.288 873.003,483.924 C874.341,482.559 876.24,481.877 878.698,481.877 C880.771,481.877 882.459,482.447 883.761,483.588 C885.063,484.728 885.714,486.215 885.714,488.049 C885.714,489.278 885.399,490.356 884.769,491.283 C884.138,492.21 883.042,493.2 881.479,494.252 C883.282,495.033 884.693,496.028 885.714,497.236 C886.735,498.445 887.245,500.169 887.245,502.408 C887.245,505.596 886.068,508.145 883.714,510.057 C881.36,511.968 878.396,512.924 874.823,512.924 C873.271,512.924 872.037,512.692 871.12,512.228 C870.203,511.765 869.745,511.142 869.745,510.361 C869.745,509.882 869.901,509.499 870.214,509.213 C870.526,508.926 870.938,508.783 871.448,508.783"/>
<path class="Note" fill="#ffffff" fill-rule="evenodd" d="M931.75,479.199 L959.526,479.199 L959.526,516.399 L931.75,516.399 L931.75,479.199 "/>
<path class="Note" d="M937.871,508.783 C938.569,508.783 939.6,509.189 940.965,510.002 C942.329,510.814 943.517,511.221 944.527,511.221 C946.184,511.221 947.582,510.58 948.723,509.299 C949.863,508.017 950.434,506.439 950.434,504.564 C950.434,503.398 950.23,502.366 949.824,501.471 C949.418,500.575 948.9,499.882 948.269,499.392 C947.639,498.903 946.889,498.502 946.019,498.189 C945.15,497.877 944.332,497.676 943.566,497.588 C942.801,497.499 941.986,497.455 941.121,497.455 L941.121,496.861 C942.142,496.507 943.019,496.155 943.754,495.807 C944.488,495.458 945.259,494.991 946.066,494.408 C946.874,493.825 947.496,493.114 947.934,492.275 C948.371,491.437 948.59,490.476 948.59,489.392 C948.59,487.986 948.131,486.833 947.215,485.932 C946.298,485.03 945.105,484.58 943.637,484.58 C942.23,484.58 940.993,484.963 939.926,485.728 C938.858,486.494 937.861,487.7 936.934,489.346 L936.262,489.174 C937.032,487.038 938.087,485.288 939.426,483.924 C940.764,482.559 942.663,481.877 945.121,481.877 C947.194,481.877 948.881,482.447 950.184,483.588 C951.486,484.728 952.137,486.215 952.137,488.049 C952.137,489.278 951.822,490.356 951.191,491.283 C950.561,492.21 949.465,493.2 947.902,494.252 C949.704,495.033 951.116,496.028 952.137,497.236 C953.157,498.445 953.668,500.169 953.668,502.408 C953.668,505.596 952.491,508.145 950.137,510.057 C947.782,511.968 944.819,512.924 941.246,512.924 C939.694,512.924 938.46,512.692 937.543,512.228 C936.626,511.765 936.168,511.142 936.168,510.361 C936.168,509.882 936.324,509.499 936.637,509.213 C936.949,508.926 937.361,508.783 937.871,508.783"/>
<path class="Note" fill="#ffffff" fill-rule="evenodd" d="M998.173,479.199 L1025.95,479.199 L1025.95,516.399 L998.173,516.399 L998.173,479.199 "/>
<path class="Note" d="M1004.29,508.783 C1004.99,508.783 1006.02,509.189 1007.39,510.002 C1008.75,510.814 1009.94,511.221 1010.95,511.221 C1012.61,511.221 1014,510.58 1015.15,509.299 C1016.29,508.017 1016.86,506.439 1016.86,504.564 C1016.86,503.398 1016.65,502.366 1016.25,501.471 C1015.84,500.575 1015.32,499.882 1014.69,499.392 C1014.06,498.903 1013.31,498.502 1012.44,498.189 C1011.57,497.877 1010.75,497.676 1009.99,497.588 C1009.22,497.499 1008.41,497.455 1007.54,497.455 L1007.54,496.861 C1008.56,496.507 1009.44,496.155 1010.18,495.807 C1010.91,495.458 1011.68,494.991 1012.49,494.408 C1013.3,493.825 1013.92,493.114 1014.36,492.275 C1014.79,491.437 1015.01,490.476 1015.01,489.392 C1015.01,487.986 1014.55,486.833 1013.64,485.932 C1012.72,485.03 1011.53,484.58 1010.06,484.58 C1008.65,484.58 1007.42,484.963 1006.35,485.728 C1005.28,486.494 1004.28,487.7 1003.36,489.346 L1002.68,489.174 C1003.46,487.038 1004.51,485.288 1005.85,483.924 C1007.19,482.559 1009.09,481.877 1011.54,481.877 C1013.62,481.877 1015.3,482.447 1016.61,483.588 C1017.91,484.728 1018.56,486.215 1018.56,488.049 C1018.56,489.278 1018.24,490.356 1017.61,491.283 C1016.98,492.21 1015.89,493.2 1014.33,494.252 C1016.13,495.033 1017.54,496.028 1018.56,497.236 C1019.58,498.445 1020.09,500.169 1020.09,502.408 C1020.09,505.596 1018.91,508.145 1016.56,510.057 C1014.21,511.968 1011.24,512.924 1007.67,512.924 C1006.12,512.924 1004.88,512.692 1003.97,512.228 C1003.05,511.765 1002.59,511.142 1002.59,510.361 C1002.59,509.882 1002.75,509.499 1003.06,509.213 C1003.37,508.926 1003.78,508.783 1004.29,508.783"/>
<path class="Note" fill="#ffffff" fill-rule="evenodd" d="M1064.6,479.199 L1092.37,479.199 L1092.37,516.399 L1064.6,516.399 L1064.6,479.199 "/>
<path class="Note" d="M1070.72,508.783 C1071.41,508.783 1072.45,509.189 1073.81,510.002 C1075.18,510.814 1076.36,511.221 1077.37,511.221 C1079.03,511.221 1080.43,510.58 1081.57,509.299 C1082.71,508.017 1083.28,506.439 1083.28,504.564 C1083.28,503.398 1083.08,502.366 1082.67,501.471 C1082.26,500.575 1081.75,499.882 1081.12,499.392 C1080.48,498.903 1079.73,498.502 1078.87,498.189 C1078,497.877 1077.18,497.676 1076.41,497.588 C1075.65,497.499 1074.83,497.455 1073.97,497.455 L1073.97,496.861 C1074.99,496.507 1075.87,496.155 1076.6,495.807 C1077.33,495.458 1078.1,494.991 1078.91,494.408 C1079.72,493.825 1080.34,493.114 1080.78,492.275 C1081.22,491.437 1081.44,490.476 1081.44,489.392 C1081.44,487.986 1080.98,486.833 1080.06,485.932 C1079.14,485.03 1077.95,484.58 1076.48,484.58 C1075.08,484.58 1073.84,484.963 1072.77,485.728 C1071.7,486.494 1070.71,487.7 1069.78,489.346 L1069.11,489.174 C1069.88,487.038 1070.93,485.288 1072.27,483.924 C1073.61,482.559 1075.51,481.877 1077.97,481.877 C1080.04,481.877 1081.73,482.447 1083.03,483.588 C1084.33,484.728 1084.98,486.215 1084.98,488.049 C1084.98,489.278 1084.67,490.356 1084.04,491.283 C1083.41,492.21 1082.31,493.2 1080.75,494.252 C1082.55,495.033 1083.96,496.028 1084.98,497.236 C1086,498.445 1086.51,500.169 1086.51,502.408 C1086.51,505.596 1085.34,508.145 1082.98,510.057 C1080.63,511.968 1077.66,512.924 1074.09,512.924 C1072.54,512.924 1071.31,512.692 1070.39,512.228 C1069.47,511.765 1069.01,511.142 1069.01,510.361 C1069.01,509.882 1069.17,509.499 1069.48,509.213 C1069.79,508.926 1070.21,508.783 1070.72,508.783"/>
<path class="Note" fill="#ffffff" fill-rule="evenodd" d="M1131.02,479.199 L1158.79,479.199 L1158.79,516.399 L1131.02,516.399 L1131.02,479.199 "/>
<path class="Note" d="M1137.14,508.783 C1137.84,508.783 1138.87,509.189 1140.23,510.002 C1141.6,510.814 1142.79,511.221 1143.8,511.221 C1145.45,511.221 1146.85,510.58 1147.99,509.299 C1149.13,508.017 1149.7,506.439 1149.7,504.564 C1149.7,503.398 1149.5,502.366 1149.09,501.471 C1148.69,500.575 1148.17,499.882 1147.54,499.392 C1146.91,498.903 1146.16,498.502 1145.29,498.189 C1144.42,497.877 1143.6,497.676 1142.83,497.588 C1142.07,497.499 1141.25,497.455 1140.39,497.455 L1140.39,496.861 C1141.41,496.507 1142.29,496.155 1143.02,495.807 C1143.76,495.458 1144.53,494.991 1145.33,494.408 C1146.14,493.825 1146.76,493.114 1147.2,492.275 C1147.64,491.437 1147.86,490.476 1147.86,489.392 C1147.86,487.986 1147.4,486.833 1146.48,485.932 C1145.57,485.03 1144.37,484.58 1142.91,484.58 C1141.5,484.58 1140.26,484.963 1139.19,485.728 C1138.13,486.494 1137.13,487.7 1136.2,489.346 L1135.53,489.174 C1136.3,487.038 1137.36,485.288 1138.69,483.924 C1140.03,482.559 1141.93,481.877 1144.39,481.877 C1146.46,481.877 1148.15,482.447 1149.45,483.588 C1150.75,484.728 1151.41,486.215 1151.41,488.049 C1151.41,489.278 1151.09,490.356 1150.46,491.283 C1149.83,492.21 1148.73,493.2 1147.17,494.252 C1148.97,495.033 1150.38,496.028 1151.41,497.236 C1152.43,498.445 1152.94,500.169 1152.94,502.408 C1152.94,505.596 1151.76,508.145 1149.41,510.057 C1147.05,511.968 1144.09,512.924 1140.51,512.924 C1138.96,512.924 1137.73,512.692 1136.81,512.228 C1135.89,511.765 1135.44,511.142 1135.44,510.361 C1135.44,509.882 1135.59,509.499 1135.91,509.213 C1136.22,508.926 1136.63,508.783 1137.14,508.783"/>
<path class="Note" fill="#ffffff" fill-rule="evenodd" d="M1197.44,479.199 L1225.22,479.199 L1225.22,516.399 L1197.44,516.399 L1197.44,479.199 "/>
<path class="Note" d="M1203.56,508.783 C1204.26,508.783 1205.29,509.189 1206.66,510.002 C1208.02,510.814 1209.21,511.221 1210.22,511.221 C1211.87,511.221 1213.27,510.58 1214.41,509.299 C1215.55,508.017 1216.12,506.439 1216.12,504.564 C1216.12,503.398 1215.92,502.366 1215.52,501.471 C1215.11,500.575 1214.59,499.882 1213.96,499.392 C1213.33,498.903 1212.58,498.502 1211.71,498.189 C1210.84,497.877 1210.02,497.676 1209.26,497.588 C1208.49,497.499 1207.68,497.455 1206.81,497.455 L1206.81,496.861 C1207.83,496.507 1208.71,496.155 1209.45,495.807 C1210.18,495.458 1210.95,494.991 1211.76,494.408 C1212.56,493.825 1213.19,493.114 1213.62,492.275 C1214.06,491.437 1214.28,490.476 1214.28,489.392 C1214.28,487.986 1213.82,486.833 1212.91,485.932 C1211.99,485.03 1210.8,484.58 1209.33,484.58 C1207.92,484.58 1206.68,484.963 1205.62,485.728 C1204.55,486.494 1203.55,487.7 1202.62,489.346 L1201.95,489.174 C1202.72,487.038 1203.78,485.288 1205.12,483.924 C1206.46,482.559 1208.35,481.877 1210.81,481.877 C1212.89,481.877 1214.57,482.447 1215.87,483.588 C1217.18,484.728 1217.83,486.215 1217.83,488.049 C1217.83,489.278 1217.51,490.356 1216.88,491.283 C1216.25,492.21 1215.16,493.2 1213.59,494.252 C1215.4,495.033 1216.81,496.028 1217.83,497.236 C1218.85,498.445 1219.36,500.169 1219.36,502.408 C1219.36,505.596 1218.18,508.145 1215.83,510.057 C1213.47,511.968 1210.51,512.924 1206.94,512.924 C1205.39,512.924 1204.15,512.692 1203.23,512.228 C1202.32,511.765 1201.86,511.142 1201.86,510.361 C1201.86,509.882 1202.02,509.499 1202.33,509.213 C1202.64,508.926 1203.05,508.783 1203.56,508.783"/>
<path class="Note" fill="#ffffff" fill-rule="evenodd" d="M1263.86,441.999 L1291.64,441.999 L1291.64,479.199 L1263.86,479.199 L1263.86,441.999 "/>
<path class="Note" d="M1284.98,471.403 C1283.12,474.284 1280.66,475.724 1277.59,475.724 C1274.53,475.724 1272.07,474.255 1270.21,471.317 C1268.35,468.38 1267.42,464.599 1267.42,459.974 C1267.42,455.63 1268.35,451.995 1270.21,449.067 C1272.07,446.14 1274.59,444.677 1277.77,444.677 C1280.71,444.677 1283.12,446.117 1284.98,448.997 C1286.84,451.877 1287.77,455.63 1287.77,460.255 C1287.77,464.807 1286.84,468.523 1284.98,471.403 M1277.64,445.849 C1273.71,445.849 1271.75,450.692 1271.75,460.38 C1271.75,469.828 1273.7,474.552 1277.59,474.552 C1281.49,474.552 1283.44,469.812 1283.44,460.333 C1283.44,455.625 1282.94,452.034 1281.95,449.56 C1280.96,447.086 1279.53,445.849 1277.64,445.849"/>
<path class="Note" fill="#ffffff" fill-rule="evenodd" d="M1330.29,441.999 L1358.06,441.999 L1358.06,479.199 L1330.29,479.199 L1330.29,441.999 "/>
<path class="Note" d="M1351.4,471.403 C1349.54,474.284 1347.08,475.724 1344.02,475.724 C1340.95,475.724 1338.49,474.255 1336.63,471.317 C1334.78,468.38 1333.85,464.599 1333.85,459.974 C1333.85,455.63 1334.78,451.995 1336.63,449.067 C1338.49,446.14 1341.01,444.677 1344.19,444.677 C1347.14,444.677 1349.54,446.117 1351.4,448.997 C1353.26,451.877 1354.19,455.63 1354.19,460.255 C1354.19,464.807 1353.26,468.523 1351.4,471.403 M1344.06,445.849 C1340.14,445.849 1338.17,450.692 1338.17,460.38 C1338.17,469.828 1340.12,474.552 1344.02,474.552 C1347.91,474.552 1349.86,469.812 1349.86,460.333 C1349.86,455.625 1349.37,452.034 1348.38,449.56 C1347.39,447.086 1345.95,445.849 1344.06,445.849"/>
<path class="Note" fill="#ffffff" fill-rule="evenodd" d="M1436.56,479.199 L1464.34,479.199 L1464.34,516.399 L1436.56,516.399 L1436.56,479.199 "/>
<path class="Note" d="M1442.68,508.783 C1443.38,508.783 1444.41,509.189 1445.78,510.002 C1447.14,510.814 1448.33,511.221 1449.34,511.221 C1451,511.221 1452.4,510.58 1453.54,509.299 C1454.68,508.017 1455.25,506.439 1455.25,504.564 C1455.25,503.398 1455.04,502.366 1454.64,501.471 C1454.23,500.575 1453.71,499.882 1453.08,499.392 C1452.45,498.903 1451.7,498.502 1450.83,498.189 C1449.96,497.877 1449.15,497.676 1448.38,497.588 C1447.61,497.499 1446.8,497.455 1445.93,497.455 L1445.93,496.861 C1446.96,496.507 1447.83,496.155 1448.57,495.807 C1449.3,495.458 1450.07,494.991 1450.88,494.408 C1451.69,493.825 1452.31,493.114 1452.75,492.275 C1453.18,491.437 1453.4,490.476 1453.4,489.392 C1453.4,487.986 1452.94,486.833 1452.03,485.932 C1451.11,485.03 1449.92,484.58 1448.45,484.58 C1447.04,484.58 1445.81,484.963 1444.74,485.728 C1443.67,486.494 1442.67,487.7 1441.75,489.346 L1441.08,489.174 C1441.85,487.038 1442.9,485.288 1444.24,483.924 C1445.58,482.559 1447.48,481.877 1449.93,481.877 C1452.01,481.877 1453.69,482.447 1455,483.588 C1456.3,484.728 1456.95,486.215 1456.95,488.049 C1456.95,489.278 1456.64,490.356 1456,491.283 C1455.37,492.21 1454.28,493.2 1452.72,494.252 C1454.52,495.033 1455.93,496.028 1456.95,497.236 C1457.97,498.445 1458.48,500.169 1458.48,502.408 C1458.48,505.596 1457.3,508.145 1454.95,510.057 C1452.6,511.968 1449.63,512.924 1446.06,512.924 C1444.51,512.924 1443.27,512.692 1442.36,512.228 C1441.44,511.765 1440.98,511.142 1440.98,510.361 C1440.98,509.882 1441.14,509.499 1441.45,509.213 C1441.76,508.926 1442.17,508.783 1442.68,508.783"/>
<path class="Note" fill="#ffffff" fill-rule="evenodd" d="M1502.99,441.999 L1530.76,441.999 L1530.76,479.199 L1502.99,479.199 L1502.99,441.999 "/>
<path class="Note" d="M1524.1,471.403 C1522.24,474.284 1519.78,475.724 1516.72,475.724 C1513.65,475.724 1511.19,474.255 1509.33,471.317 C1507.47,468.38 1506.54,464.599 1506.54,459.974 C1506.54,455.63 1507.47,451.995 1509.33,449.067 C1511.19,446.14 1513.71,444.677 1516.89,444.677 C1519.84,444.677 1522.24,446.117 1524.1,448.997 C1525.96,451.877 1526.89,455.63 1526.89,460.255 C1526.89,464.807 1525.96,468.523 1524.1,471.403 M1516.76,445.849 C1512.84,445.849 1510.87,450.692 1510.87,460.38 C1510.87,469.828 1512.82,474.552 1516.72,474.552 C1520.61,474.552 1522.56,469.812 1522.56,460.333 C1522.56,455.625 1522.07,452.034 1521.08,449.56 C1520.09,447.086 1518.65,445.849 1516.76,445.849"/>
<path class="Note" fill="#ffffff" fill-rule="evenodd" d="M1609.26,479.199 L1637.04,479.199 L1637.04,516.399 L1609.26,516.399 L1609.26,479.199 "/>
<path class="Note" d="M1630.38,508.603 C1628.52,511.484 1626.06,512.924 1622.99,512.924 C1619.93,512.924 1617.47,511.455 1615.61,508.517 C1613.75,505.58 1612.82,501.799 1612.82,497.174 C1612.82,492.83 1613.75,489.195 1615.61,486.267 C1617.47,483.34 1619.99,481.877 1623.17,481.877 C1626.11,481.877 1628.52,483.317 1630.38,486.197 C1632.24,489.077 1633.17,492.83 1633.17,497.455 C1633.17,502.007 1632.24,505.723 1630.38,508.603 M1623.04,483.049 C1619.11,483.049 1617.15,487.892 1617.15,497.58 C1617.15,507.028 1619.1,511.752 1622.99,511.752 C1626.89,511.752 1628.84,507.012 1628.84,497.533 C1628.84,492.825 1628.34,489.234 1627.35,486.76 C1626.36,484.286 1624.93,483.049 1623.04,483.049"/>
<path class="Note" fill="#ffffff" fill-rule="evenodd" d="M1810.73,516.399 L1838.51,516.399 L1838.51,553.599 L1810.73,553.599 L1810.73,516.399 "/>
<path class="Note" d="M1816.85,545.983 C1817.55,545.983 1818.58,546.389 1819.94,547.202 C1821.31,548.014 1822.5,548.421 1823.51,548.421 C1825.16,548.421 1826.56,547.78 1827.7,546.499 C1828.84,545.218 1829.41,543.639 1829.41,541.764 C1829.41,540.598 1829.21,539.566 1828.8,538.671 C1828.4,537.775 1827.88,537.082 1827.25,536.593 C1826.62,536.103 1825.87,535.702 1825,535.389 C1824.13,535.077 1823.31,534.876 1822.55,534.788 C1821.78,534.699 1820.97,534.655 1820.1,534.655 L1820.1,534.061 C1821.12,533.707 1822,533.356 1822.73,533.007 C1823.47,532.658 1824.24,532.191 1825.05,531.608 C1825.85,531.025 1826.48,530.314 1826.91,529.475 C1827.35,528.637 1827.57,527.676 1827.57,526.593 C1827.57,525.186 1827.11,524.033 1826.19,523.132 C1825.28,522.231 1824.09,521.78 1822.62,521.78 C1821.21,521.78 1819.97,522.163 1818.91,522.928 C1817.84,523.694 1816.84,524.9 1815.91,526.546 L1815.24,526.374 C1816.01,524.238 1817.07,522.488 1818.41,521.124 C1819.74,519.759 1821.64,519.077 1824.1,519.077 C1826.17,519.077 1827.86,519.647 1829.16,520.788 C1830.47,521.928 1831.12,523.415 1831.12,525.249 C1831.12,526.478 1830.8,527.556 1830.17,528.483 C1829.54,529.41 1828.44,530.4 1826.88,531.452 C1828.68,532.233 1830.1,533.228 1831.12,534.436 C1832.14,535.645 1832.65,537.369 1832.65,539.608 C1832.65,542.796 1831.47,545.345 1829.12,547.257 C1826.76,549.168 1823.8,550.124 1820.23,550.124 C1818.67,550.124 1817.44,549.892 1816.52,549.428 C1815.61,548.965 1815.15,548.343 1815.15,547.561 C1815.15,547.082 1815.3,546.699 1815.62,546.413 C1815.93,546.126 1816.34,545.983 1816.85,545.983"/>
<path class="Note" fill="#ffffff" fill-rule="evenodd" d="M1877.15,516.399 L1904.93,516.399 L1904.93,553.599 L1877.15,553.599 L1877.15,516.399 "/>
<path class="Note" d="M1883.27,545.983 C1883.97,545.983 1885,546.389 1886.37,547.202 C1887.73,548.014 1888.92,548.421 1889.93,548.421 C1891.59,548.421 1892.98,547.78 1894.13,546.499 C1895.27,545.218 1895.84,543.639 1895.84,541.764 C1895.84,540.598 1895.63,539.566 1895.23,538.671 C1894.82,537.775 1894.3,537.082 1893.67,536.593 C1893.04,536.103 1892.29,535.702 1891.42,535.389 C1890.55,535.077 1889.73,534.876 1888.97,534.788 C1888.2,534.699 1887.39,534.655 1886.52,534.655 L1886.52,534.061 C1887.54,533.707 1888.42,533.356 1889.16,533.007 C1889.89,532.658 1890.66,532.191 1891.47,531.608 C1892.28,531.025 1892.9,530.314 1893.34,529.475 C1893.77,528.637 1893.99,527.676 1893.99,526.593 C1893.99,525.186 1893.53,524.033 1892.62,523.132 C1891.7,522.231 1890.51,521.78 1889.04,521.78 C1887.63,521.78 1886.4,522.163 1885.33,522.928 C1884.26,523.694 1883.26,524.9 1882.34,526.546 L1881.66,526.374 C1882.44,524.238 1883.49,522.488 1884.83,521.124 C1886.17,519.759 1888.07,519.077 1890.52,519.077 C1892.6,519.077 1894.28,519.647 1895.59,520.788 C1896.89,521.928 1897.54,523.415 1897.54,525.249 C1897.54,526.478 1897.22,527.556 1896.59,528.483 C1895.96,529.41 1894.87,530.4 1893.31,531.452 C1895.11,532.233 1896.52,533.228 1897.54,534.436 C1898.56,535.645 1899.07,537.369 1899.07,539.608 C1899.07,542.796 1897.89,545.345 1895.54,547.257 C1893.19,549.168 1890.22,550.124 1886.65,550.124 C1885.1,550.124 1883.86,549.892 1882.95,549.428 C1882.03,548.965 1881.57,548.343 1881.57,547.561 C1881.57,547.082 1881.73,546.699 1882.04,546.413 C1882.35,546.126 1882.76,545.983 1883.27,545.983"/>
<path class="Note" fill="#ffffff" fill-rule="evenodd" d="M1943.58,516.399 L1971.35,516.399 L1971.35,553.599 L1943.58,553.599 L1943.58,516.399 "/>
<path class="Note" d="M1949.7,545.983 C1950.39,545.983 1951.43,546.389 1952.79,547.202 C1954.16,548.014 1955.34,548.421 1956.35,548.421 C1958.01,548.421 1959.41,547.78 1960.55,546.499 C1961.69,545.218 1962.26,543.639 1962.26,541.764 C1962.26,540.598 1962.06,539.566 1961.65,538.671 C1961.24,537.775 1960.73,537.082 1960.1,536.593 C1959.47,536.103 1958.72,535.702 1957.85,535.389 C1956.98,535.077 1956.16,534.876 1955.39,534.788 C1954.63,534.699 1953.81,534.655 1952.95,534.655 L1952.95,534.061 C1953.97,533.707 1954.85,533.356 1955.58,533.007 C1956.31,532.658 1957.08,532.191 1957.89,531.608 C1958.7,531.025 1959.32,530.314 1959.76,529.475 C1960.2,528.637 1960.42,527.676 1960.42,526.593 C1960.42,525.186 1959.96,524.033 1959.04,523.132 C1958.12,522.231 1956.93,521.78 1955.46,521.78 C1954.06,521.78 1952.82,522.163 1951.75,522.928 C1950.68,523.694 1949.69,524.9 1948.76,526.546 L1948.09,526.374 C1948.86,524.238 1949.91,522.488 1951.25,521.124 C1952.59,519.759 1954.49,519.077 1956.95,519.077 C1959.02,519.077 1960.71,519.647 1962.01,520.788 C1963.31,521.928 1963.96,523.415 1963.96,525.249 C1963.96,526.478 1963.65,527.556 1963.02,528.483 C1962.39,529.41 1961.29,530.4 1959.73,531.452 C1961.53,532.233 1962.94,533.228 1963.96,534.436 C1964.98,535.645 1965.49,537.369 1965.49,539.608 C1965.49,542.796 1964.32,545.345 1961.96,547.257 C1959.61,549.168 1956.64,550.124 1953.07,550.124 C1951.52,550.124 1950.29,549.892 1949.37,549.428 C1948.45,548.965 1947.99,548.343 1947.99,547.561 C1947.99,547.082 1948.15,546.699 1948.46,546.413 C1948.77,546.126 1949.19,545.983 1949.7,545.983"/>
<path class="Note" fill="#ffffff" fill-rule="evenodd" d="M2010,516.399 L2037.78,516.399 L2037.78,553.599 L2010,553.599 L2010,516.399 "/>
<path class="Note" d="M2016.12,545.983 C2016.82,545.983 2017.85,546.389 2019.21,547.202 C2020.58,548.014 2021.77,548.421 2022.78,548.421 C2024.43,548.421 2025.83,547.78 2026.97,546.499 C2028.11,545.218 2028.68,543.639 2028.68,541.764 C2028.68,540.598 2028.48,539.566 2028.07,538.671 C2027.67,537.775 2027.15,537.082 2026.52,536.593 C2025.89,536.103 2025.14,535.702 2024.27,535.389 C2023.4,535.077 2022.58,534.876 2021.81,534.788 C2021.05,534.699 2020.23,534.655 2019.37,534.655 L2019.37,534.061 C2020.39,533.707 2021.27,533.356 2022,533.007 C2022.74,532.658 2023.51,532.191 2024.31,531.608 C2025.12,531.025 2025.74,530.314 2026.18,529.475 C2026.62,528.637 2026.84,527.676 2026.84,526.593 C2026.84,525.186 2026.38,524.033 2025.46,523.132 C2024.55,522.231 2023.35,521.78 2021.89,521.78 C2020.48,521.78 2019.24,522.163 2018.17,522.928 C2017.11,523.694 2016.11,524.9 2015.18,526.546 L2014.51,526.374 C2015.28,524.238 2016.34,522.488 2017.67,521.124 C2019.01,519.759 2020.91,519.077 2023.37,519.077 C2025.44,519.077 2027.13,519.647 2028.43,520.788 C2029.73,521.928 2030.39,523.415 2030.39,525.249 C2030.39,526.478 2030.07,527.556 2029.44,528.483 C2028.81,529.41 2027.71,530.4 2026.15,531.452 C2027.95,532.233 2029.36,533.228 2030.39,534.436 C2031.41,535.645 2031.92,537.369 2031.92,539.608 C2031.92,542.796 2030.74,545.345 2028.39,547.257 C2026.03,549.168 2023.07,550.124 2019.49,550.124 C2017.94,550.124 2016.71,549.892 2015.79,549.428 C2014.87,548.965 2014.42,548.343 2014.42,547.561 C2014.42,547.082 2014.57,546.699 2014.89,546.413 C2015.2,546.126 2015.61,545.983 2016.12,545.983"/>
<path class="Note" fill="#ffffff" fill-rule="evenodd" d="M2076.42,516.399 L2104.2,516.399 L2104.2,553.599 L2076.42,553.599 L2076.42,516.399 "/>
<path class="Note" d="M2082.54,545.983 C2083.24,545.983 2084.27,546.389 2085.64,547.202 C2087,548.014 2088.19,548.421 2089.2,548.421 C2090.85,548.421 2092.25,547.78 2093.39,546.499 C2094.53,545.218 2095.1,543.639 2095.1,541.764 C2095.1,540.598 2094.9,539.566 2094.5,538.671 C2094.09,537.775 2093.57,537.082 2092.94,536.593 C2092.31,536.103 2091.56,535.702 2090.69,535.389 C2089.82,535.077 2089,534.876 2088.24,534.788 C2087.47,534.699 2086.66,534.655 2085.79,534.655 L2085.79,534.061 C2086.81,533.707 2087.69,533.356 2088.43,533.007 C2089.16,532.658 2089.93,532.191 2090.74,531.608 C2091.55,531.025 2092.17,530.314 2092.6,529.475 C2093.04,528.637 2093.26,527.676 2093.26,526.593 C2093.26,525.186 2092.8,524.033 2091.89,523.132 C2090.97,522.231 2089.78,521.78 2088.31,521.78 C2086.9,521.78 2085.66,522.163 2084.6,522.928 C2083.53,523.694 2082.53,524.9 2081.6,526.546 L2080.93,526.374 C2081.7,524.238 2082.76,522.488 2084.1,521.124 C2085.44,519.759 2087.33,519.077 2089.79,519.077 C2091.87,519.077 2093.55,519.647 2094.85,520.788 C2096.16,521.928 2096.81,523.415 2096.81,525.249 C2096.81,526.478 2096.49,527.556 2095.86,528.483 C2095.23,529.41 2094.14,530.4 2092.57,531.452 C2094.38,532.233 2095.79,533.228 2096.81,534.436 C2097.83,535.645 2098.34,537.369 2098.34,539.608 C2098.34,542.796 2097.16,545.345 2094.81,547.257 C2092.45,549.168 2089.49,550.124 2085.92,550.124 C2084.37,550.124 2083.13,549.892 2082.21,549.428 C2081.3,548.965 2080.84,548.343 2080.84,547.561 C2080.84,547.082 2081,546.699 2081.31,546.413 C2081.62,546.126 2082.03,545.983 2082.54,545.983"/>
<path class="Note" fill="#ffffff" fill-rule="evenodd" d="M2142.84,516.399 L2170.62,516.399 L2170.62,553.599 L2142.84,553.599 L2142.84,516.399 "/>
<path class="Note" d="M2148.97,545.983 C2149.66,545.983 2150.69,546.389 2152.06,547.202 C2153.42,548.014 2154.61,548.421 2155.62,548.421 C2157.28,548.421 2158.68,547.78 2159.82,546.499 C2160.96,545.218 2161.53,543.639 2161.53,541.764 C2161.53,540.598 2161.32,539.566 2160.92,538.671 C2160.51,537.775 2159.99,537.082 2159.36,536.593 C2158.73,536.103 2157.98,535.702 2157.11,535.389 C2156.24,535.077 2155.43,534.876 2154.66,534.788 C2153.89,534.699 2153.08,534.655 2152.22,534.655 L2152.22,534.061 C2153.24,533.707 2154.11,533.356 2154.85,533.007 C2155.58,532.658 2156.35,532.191 2157.16,531.608 C2157.97,531.025 2158.59,530.314 2159.03,529.475 C2159.47,528.637 2159.68,527.676 2159.68,526.593 C2159.68,525.186 2159.23,524.033 2158.31,523.132 C2157.39,522.231 2156.2,521.78 2154.73,521.78 C2153.32,521.78 2152.09,522.163 2151.02,522.928 C2149.95,523.694 2148.95,524.9 2148.03,526.546 L2147.36,526.374 C2148.13,524.238 2149.18,522.488 2150.52,521.124 C2151.86,519.759 2153.76,519.077 2156.22,519.077 C2158.29,519.077 2159.98,519.647 2161.28,520.788 C2162.58,521.928 2163.23,523.415 2163.23,525.249 C2163.23,526.478 2162.92,527.556 2162.29,528.483 C2161.66,529.41 2160.56,530.4 2159,531.452 C2160.8,532.233 2162.21,533.228 2163.23,534.436 C2164.25,535.645 2164.76,537.369 2164.76,539.608 C2164.76,542.796 2163.59,545.345 2161.23,547.257 C2158.88,549.168 2155.91,550.124 2152.34,550.124 C2150.79,550.124 2149.55,549.892 2148.64,549.428 C2147.72,548.965 2147.26,548.343 2147.26,547.561 C2147.26,547.082 2147.42,546.699 2147.73,546.413 C2148.04,546.126 2148.45,545.983 2148.97,545.983"/>
<path class="Note" fill="#ffffff" fill-rule="evenodd" d="M2209.27,516.399 L2237.04,516.399 L2237.04,553.599 L2209.27,553.599 L2209.27,516.399 "/>
<path class="Note" d="M2215.39,545.983 C2216.09,545.983 2217.12,546.389 2218.48,547.202 C2219.85,548.014 2221.03,548.421 2222.04,548.421 C2223.7,548.421 2225.1,547.78 2226.24,546.499 C2227.38,545.218 2227.95,543.639 2227.95,541.764 C2227.95,540.598 2227.75,539.566 2227.34,538.671 C2226.93,537.775 2226.42,537.082 2225.79,536.593 C2225.16,536.103 2224.41,535.702 2223.54,535.389 C2222.67,535.077 2221.85,534.876 2221.08,534.788 C2220.32,534.699 2219.5,534.655 2218.64,534.655 L2218.64,534.061 C2219.66,533.707 2220.54,533.356 2221.27,533.007 C2222.01,532.658 2222.78,532.191 2223.58,531.608 C2224.39,531.025 2225.01,530.314 2225.45,529.475 C2225.89,528.637 2226.11,527.676 2226.11,526.593 C2226.11,525.186 2225.65,524.033 2224.73,523.132 C2223.82,522.231 2222.62,521.78 2221.15,521.78 C2219.75,521.78 2218.51,522.163 2217.44,522.928 C2216.38,523.694 2215.38,524.9 2214.45,526.546 L2213.78,526.374 C2214.55,524.238 2215.6,522.488 2216.94,521.124 C2218.28,519.759 2220.18,519.077 2222.64,519.077 C2224.71,519.077 2226.4,519.647 2227.7,520.788 C2229,521.928 2229.65,523.415 2229.65,525.249 C2229.65,526.478 2229.34,527.556 2228.71,528.483 C2228.08,529.41 2226.98,530.4 2225.42,531.452 C2227.22,532.233 2228.63,533.228 2229.65,534.436 C2230.67,535.645 2231.18,537.369 2231.18,539.608 C2231.18,542.796 2230.01,545.345 2227.65,547.257 C2225.3,549.168 2222.34,550.124 2218.76,550.124 C2217.21,550.124 2215.98,549.892 2215.06,549.428 C2214.14,548.965 2213.68,548.343 2213.68,547.561 C2213.68,547.082 2213.84,546.699 2214.15,546.413 C2214.47,546.126 2214.88,545.983 2215.39,545.983"/>
<path class="Note" fill="#ffffff" fill-rule="evenodd" d="M2275.69,479.199 L2303.47,479.199 L2303.47,516.399 L2275.69,516.399 L2275.69,479.199 "/>
<path class="Note" d="M2296.8,508.603 C2294.94,511.484 2292.48,512.924 2289.42,512.924 C2286.36,512.924 2283.9,511.455 2282.04,508.517 C2280.18,505.58 2279.25,501.799 2279.25,497.174 C2279.25,492.83 2280.18,489.195 2282.04,486.267 C2283.9,483.34 2286.42,481.877 2289.59,481.877 C2292.54,481.877 2294.94,483.317 2296.8,486.197 C2298.66,489.077 2299.59,492.83 2299.59,497.455 C2299.59,502.007 2298.66,505.723 2296.8,508.603 M2289.47,483.049 C2285.54,483.049 2283.58,487.892 2283.58,497.58 C2283.58,507.028 2285.52,511.752 2289.42,511.752 C2293.32,511.752 2295.26,507.012 2295.26,497.533 C2295.26,492.825 2294.77,489.234 2293.78,486.76 C2292.79,484.286 2291.35,483.049 2289.47,483.049"/>
<path class="Note" fill="#ffffff" fill-rule="evenodd" d="M2342.11,479.199 L2369.89,479.199 L2369.89,516.399 L2342.11,516.399 L2342.11,479.199 "/>
<path class="Note" d="M2363.23,508.603 C2361.37,511.484 2358.91,512.924 2355.84,512.924 C2352.78,512.924 2350.32,511.455 2348.46,508.517 C2346.6,505.58 2345.67,501.799 2345.67,497.174 C2345.67,492.83 2346.6,489.195 2348.46,486.267 C2350.32,483.34 2352.84,481.877 2356.02,481.877 C2358.96,481.877 2361.37,483.317 2363.23,486.197 C2365.09,489.077 2366.02,492.83 2366.02,497.455 C2366.02,502.007 2365.09,505.723 2363.23,508.603 M2355.89,483.049 C2351.96,483.049 2350,487.892 2350,497.58 C2350,507.028 2351.95,511.752 2355.84,511.752 C2359.74,511.752 2361.69,507.012 2361.69,497.533 C2361.69,492.825 2361.19,489.234 2360.2,486.76 C2359.21,484.286 2357.78,483.049 2355.89,483.049"/>
<path class="Note" fill="#ffffff" fill-rule="evenodd" d="M2448.39,516.399 L2476.17,516.399 L2476.17,553.599 L2448.39,553.599 L2448.39,516.399 "/>
<path class="Note" d="M2454.51,545.983 C2455.21,545.983 2456.24,546.389 2457.6,547.202 C2458.97,548.014 2460.16,548.421 2461.17,548.421 C2462.82,548.421 2464.22,547.78 2465.36,546.499 C2466.5,545.218 2467.07,543.639 2467.07,541.764 C2467.07,540.598 2466.87,539.566 2466.46,538.671 C2466.06,537.775 2465.54,537.082 2464.91,536.593 C2464.28,536.103 2463.53,535.702 2462.66,535.389 C2461.79,535.077 2460.97,534.876 2460.21,534.788 C2459.44,534.699 2458.62,534.655 2457.76,534.655 L2457.76,534.061 C2458.78,533.707 2459.66,533.356 2460.39,533.007 C2461.13,532.658 2461.9,532.191 2462.71,531.608 C2463.51,531.025 2464.14,530.314 2464.57,529.475 C2465.01,528.637 2465.23,527.676 2465.23,526.593 C2465.23,525.186 2464.77,524.033 2463.85,523.132 C2462.94,522.231 2461.74,521.78 2460.28,521.78 C2458.87,521.78 2457.63,522.163 2456.56,522.928 C2455.5,523.694 2454.5,524.9 2453.57,526.546 L2452.9,526.374 C2453.67,524.238 2454.73,522.488 2456.06,521.124 C2457.4,519.759 2459.3,519.077 2461.76,519.077 C2463.83,519.077 2465.52,519.647 2466.82,520.788 C2468.12,521.928 2468.78,523.415 2468.78,525.249 C2468.78,526.478 2468.46,527.556 2467.83,528.483 C2467.2,529.41 2466.1,530.4 2464.54,531.452 C2466.34,532.233 2467.76,533.228 2468.78,534.436 C2469.8,535.645 2470.31,537.369 2470.31,539.608 C2470.31,542.796 2469.13,545.345 2466.78,547.257 C2464.42,549.168 2461.46,550.124 2457.89,550.124 C2456.33,550.124 2455.1,549.892 2454.18,549.428 C2453.27,548.965 2452.81,548.343 2452.81,547.561 C2452.81,547.082 2452.96,546.699 2453.28,546.413 C2453.59,546.126 2454,545.983 2454.51,545.983"/>
<path class="Note" fill="#ffffff" fill-rule="evenodd" d="M2514.81,479.199 L2542.59,479.199 L2542.59,516.399 L2514.81,516.399 L2514.81,479.199 "/>
<path class="Note" d="M2535.93,508.603 C2534.07,511.484 2531.6,512.924 2528.54,512.924 C2525.48,512.924 2523.02,511.455 2521.16,508.517 C2519.3,505.58 2518.37,501.799 2518.37,497.174 C2518.37,492.83 2519.3,489.195 2521.16,486.267 C2523.02,483.34 2525.54,481.877 2528.71,481.877 C2531.66,481.877 2534.07,483.317 2535.93,486.197 C2537.78,489.077 2538.71,492.83 2538.71,497.455 C2538.71,502.007 2537.78,505.723 2535.93,508.603 M2528.59,483.049 C2524.66,483.049 2522.7,487.892 2522.7,497.58 C2522.7,507.028 2524.65,511.752 2528.54,511.752 C2532.44,511.752 2534.39,507.012 2534.39,497.533 C2534.39,492.825 2533.89,489.234 2532.9,486.76 C2531.91,484.286 2530.47,483.049 2528.59,483.049"/>
<path class="Note" fill="#ffffff" fill-rule="evenodd" d="M2621.09,553.599 L2648.87,553.599 L2648.87,590.799 L2621.09,590.799 L2621.09,553.599 "/>
<path class="Note" d="M2627.21,583.183 C2627.91,583.183 2628.94,583.589 2630.3,584.402 C2631.67,585.214 2632.86,585.621 2633.87,585.621 C2635.52,585.621 2636.92,584.98 2638.06,583.699 C2639.2,582.418 2639.77,580.839 2639.77,578.964 C2639.77,577.798 2639.57,576.767 2639.16,575.871 C2638.76,574.975 2638.24,574.282 2637.61,573.793 C2636.98,573.303 2636.23,572.902 2635.36,572.589 C2634.49,572.277 2633.67,572.076 2632.9,571.988 C2632.14,571.899 2631.32,571.855 2630.46,571.855 L2630.46,571.261 C2631.48,570.907 2632.36,570.556 2633.09,570.207 C2633.83,569.858 2634.6,569.392 2635.4,568.808 C2636.21,568.225 2636.83,567.514 2637.27,566.675 C2637.71,565.837 2637.93,564.876 2637.93,563.793 C2637.93,562.386 2637.47,561.233 2636.55,560.332 C2635.64,559.431 2634.44,558.98 2632.98,558.98 C2631.57,558.98 2630.33,559.363 2629.26,560.129 C2628.2,560.894 2627.2,562.1 2626.27,563.746 L2625.6,563.574 C2626.37,561.438 2627.43,559.688 2628.76,558.324 C2630.1,556.959 2632,556.277 2634.46,556.277 C2636.53,556.277 2638.22,556.847 2639.52,557.988 C2640.82,559.129 2641.48,560.615 2641.48,562.449 C2641.48,563.678 2641.16,564.756 2640.53,565.683 C2639.9,566.61 2638.8,567.6 2637.24,568.652 C2639.04,569.433 2640.45,570.428 2641.48,571.636 C2642.5,572.845 2643.01,574.569 2643.01,576.808 C2643.01,579.996 2641.83,582.545 2639.48,584.457 C2637.12,586.368 2634.16,587.324 2630.58,587.324 C2629.03,587.324 2627.8,587.092 2626.88,586.629 C2625.96,586.165 2625.51,585.543 2625.51,584.761 C2625.51,584.282 2625.66,583.899 2625.98,583.613 C2626.29,583.326 2626.7,583.183 2627.21,583.183"/>
<path class="Clef" transform="matrix(0.992001,0,0,0.992001,457.206,479.199)" d="M25.6094,-30.4063 C25.7031,-30.4063 25.7969,-30.4063 26,-30.5 C26.6094,-30.7969 26.7031,-31.4063 26.7031,-32.0938 L26.7031,-32.9063 C26.7969,-38 27.1094,-43.2031 27.1094,-48.4063 C27.1094,-55.5 27.1094,-62.6094 25.9063,-69.6094 L37,-69.6094 C37.6094,-69.7031 38.2969,-69.5 38.9063,-69.5 C39.4063,-69.5 39.7031,-69.6094 39.7969,-69.9063 C40.2031,-71.2031 38.7969,-72.1094 37.9063,-72.9063 C37.7031,-73.1094 37.4063,-73.1094 37.2031,-73.2969 C32.7969,-76.5 27.6094,-76.7031 22.5,-76.7031 C16.5,-76.7031 10.7031,-76.2969 5,-75.7031 C4.59375,-75.7031 4.20313,-75.7969 3.79688,-75.9063 C3.20313,-75.9063 2.59375,-75.6094 2.59375,-74.5 C2.59375,-73.7031 3.29688,-73 4.20313,-72.6094 C7.29688,-71 10.5,-69.5 14.0938,-69.5 C14.7969,-69.5 15.5,-69.6094 16.2031,-69.7031 C16.5,-69.7031 16.9063,-69.7969 17.0938,-69.7969 C18.2969,-69.7969 18.9063,-69.2031 18.9063,-67.7031 L18.9063,-67 C18.2969,-58.5 18.4063,-49.9063 17.9063,-41.4063 C17.5938,-37.5 18.9063,-35 21.9063,-32.9063 L23.7969,-31.6094 C24.4063,-31.0938 24.7969,-30.4063 25.6094,-30.4063 M7.90625,22.2031 C8.29688,22.2031 8.59375,21.9063 8.79688,21.0938 C9.79688,18.1094 11,15.2031 11.9063,12.1094 C12.4063,10.2031 13.5938,9.5 15.4063,9.40625 C20.0938,9.10938 24.9063,8.90625 29.6094,8.5 C32.1094,8.29688 33.5,8.79688 34.6094,11.4063 C36.2031,15.7031 39.9063,18.2969 43.6094,20.9063 C43.7969,20.5 43.7969,20.2031 43.7969,20 C43.7969,19.5 43.7031,19.2031 43.6094,18.7031 C42.7969,15.2969 40.9063,12.4063 39.5,9.29688 C35.7031,1 32.1094,-7.40625 28.2969,-15.5938 C26.7031,-19 24.4063,-22.0938 21.7969,-24.7969 C20.7031,-25.7969 20,-26.2969 19.2969,-26.4063 C18.5938,-26.4063 18.0938,-25.7969 17.4063,-24.4063 C10.7969,-11.9063 5.20313,1.20313 0.296875,14.5 C0.09375,14.9063 0,15.4063 0,15.7969 C0,16.7031 0.5,17.2969 1.29688,17.9063 C3.09375,19.4063 5.20313,20.4063 7.09375,21.7969 C7.40625,22.0938 7.70313,22.2031 7.90625,22.2031 M29.5,-0.40625 C28,-1.20313 26.5,-1.40625 25,-1.40625 C23,-1.40625 21,-1 19,-1 L17.0938,-1 L23.5938,-14.2969 C25.6094,-9.5 27.4063,-5.20313 29.5,-0.40625 M17,76.8125 C17.7969,76.8125 18.7031,76.8125 19.5,76.7031 C27.7969,76 35.5,71.9063 35.5,61.7031 C35.5,56.5 35,51.7031 31.5,47.7969 C31.2031,47.6094 31.1094,47.2969 31.1094,47.1094 C31.1094,46.9063 31.2031,46.6094 31.5,46.2969 C34.9063,43 35.2031,38.7969 35,34.5 C34.7031,26.6094 30.2969,21.4063 22.5,20 C21.7969,19.9063 21.0938,19.9063 20.5,19.9063 L19.5938,19.9063 C15.5,19.9063 11.7031,21.2969 8,22.9063 C7.09375,23.2969 6.5,24.2031 6.5,25.4063 L6.5,25.7031 C6.70313,27.2031 6.70313,28.7031 6.70313,30.2031 C6.20313,40 4.90625,49.7969 5.09375,59.6094 C5.09375,61 5.40625,62.4063 5.40625,63.7969 C5.40625,64.6094 5.29688,65.2969 5,66 C4.59375,67 4.40625,67.9063 4.40625,68.9063 C4.40625,69.4063 4.5,70 4.59375,70.5 C5.79688,76.8125 5.79688,76.8125 12,76.7031 C13.7031,76.7031 15.2969,76.7031 17,76.8125 M11.2031,43.2031 C10.7969,43.2031 10.5,43.1094 10.2031,42.9063 C9.79688,42.5 9.70313,42.1094 9.70313,41.7031 C9.70313,40.9063 10,39.9063 10,39.2031 C10,38.9063 10,38.7031 9.90625,38.5 L9.90625,37.9063 C10,32.4063 9.90625,32.2969 15.2969,31.2969 C16.5938,31 18,30.7969 19.2969,30.9063 C22.7969,30.9063 26.1094,32 29,34.5 C29.6094,35 29.7969,35.4063 29.7969,35.7969 C29.7969,36.2031 29.4063,36.6094 28.7969,37 C24.7969,40.2031 19.9063,41 15.2031,42.2031 C15.0938,42.2031 15,42.2969 14.9063,42.2969 C13.7031,42.2969 12.2969,43.2031 11.2031,43.2031 M10.7031,66.2031 C9.40625,66.2031 9,65.7969 9,64.7969 L9,60.1094 L8.90625,60.1094 C9,58.2031 8.59375,56.1094 9.40625,54.7031 C10.0938,53.4063 12.5,53.9063 14.0938,53.4063 C15.5,53.1094 16.7969,52.9063 18,52.9063 C22.9063,52.9063 26.7969,55.9063 30.6094,59.2031 C31,59.6094 31.2031,59.9063 31.2031,60.2031 C31.2031,60.7031 30.7969,61 30.2969,61.4063 C27.9063,63.5 25.2031,64.9063 22.0938,65.4063 C18.2969,66 14.5,66.2031 10.7031,66.2031"/>
<path class="Clef" transform="matrix(0.992001,0,0,0.992001,344.206,1018.6)" d="M23.7969,55.9063 C24.2969,55.9063 24.7969,55.7969 25.4063,55.6094 C26.6094,55.2031 27.6094,54.6094 28.4063,53.7031 C36.7031,45 40.1094,34.5 40.4063,22.7969 C40.4063,21.9063 40.5,20.4063 40.5,20.4063 C40.5,20.4063 41.9063,19.5938 42.5,19.4063 C45.7969,17.7969 49,16 51.9063,13.7031 C59.5,7.59375 63.9063,-0.703125 65.9063,-9.90625 C66.2969,-11.4063 66.4063,-12.9063 66.4063,-14.2969 C66.4063,-20.5938 62.9063,-25.2031 54.9063,-26.7031 C52.9063,-27.1094 50.9063,-27.2969 48.9063,-27.2969 C43.9063,-27.2969 39.1094,-26 34.6094,-23.2969 C34,-23 33.4063,-22.5938 33.4063,-22.5938 L30.7969,-32.2969 C30.7031,-32.7969 30.7031,-33.7031 30.7031,-33.7031 C30.7031,-33.7031 40.9063,-51.7969 42.2969,-61.1094 C42.7969,-63.7969 43,-66.5 43,-69.2031 C43,-71.2969 42.9063,-73.2969 42.6094,-75.2969 C41.6094,-82.5 38.9063,-89.3125 37.1094,-96.3125 C36.6094,-98.4063 35.9063,-100.906 33.5,-100.906 C31.7031,-100.906 30.4063,-99.2031 29.2969,-97.7031 C24.2031,-90.6094 21.7031,-82.5 21.2031,-73.7969 C21.0938,-72.4063 21.0938,-71 21.0938,-69.6094 C21.0938,-61.5 22.4063,-53.4063 23.5,-45.4063 C23.5,-44.7969 23.7031,-44.2031 23.7969,-43.7031 C19.2969,-37.2969 14.2969,-31.2969 10,-24.7031 C7,-20 3.70313,-15.2969 1.59375,-10 C0.5,-7.40625 0,-4.40625 0,-1.40625 C0,4.79688 2.09375,11.0938 5.70313,14.5938 C7.79688,16.5938 11.0938,18.7969 14.4063,20 C19,21.7031 23.5938,22.7969 28.5,22.7969 C29.9063,22.7969 31.4063,22.7031 32.9063,22.5 L34.1094,22.2969 C34.1094,22.2969 34.2031,23.2031 34.1094,23.7031 C33,29.7031 31.5,35.6094 27.9063,40.6094 C26,43.2031 24.2031,46.1094 20.4063,46.4063 C19.2969,46.5 18.7969,47.2031 18.7969,48.1094 C18.7969,48.5 18.9063,48.7969 19,49.2031 C19.5938,50.7031 20.2969,52.2969 21,53.7969 C21.5938,55.2031 22.5938,55.9063 23.7969,55.9063 M27.7969,-49.7969 C27,-54.6094 26.5,-59.2969 26.5,-64 C26.5,-72.7031 28.2969,-81.2031 33.4063,-89.3125 C34.6094,-85.6094 35.2031,-81.9063 35.2031,-78.1094 C35.2031,-76.2031 35,-74.2031 34.7031,-72.2031 C33.4063,-64.4063 31.6094,-56.7969 27.7969,-49.7969 M17.5,9.40625 C16.0938,9.29688 14.9063,8.79688 13.5938,8.40625 C11,7.5 8.79688,6.5 8.09375,4.79688 C7.79688,4 7.70313,3.09375 7.70313,2.20313 C7.70313,1.09375 7.90625,-0.09375 8.09375,-1.29688 C8.20313,-1.90625 8.79688,-3.59375 9,-3.90625 C12.9063,-10.7969 17.5938,-17.0938 22.5,-23.4063 L26.7031,-28.9063 L27.4063,-26.7031 C28.2031,-24.2031 28.9063,-20.2031 28.9063,-20.2031 C28.9063,-20.2031 26.1094,-16.5938 24.2969,-14.7969 C19.2969,-9.90625 16.9063,-3.79688 16.9063,2.90625 C16.9063,4.59375 17.0938,6.29688 17.4063,8.09375 C17.5,8.5 17.5,8.79688 17.5,9.40625 M39.1094,6.29688 C38.2969,-0.203125 36.7969,-5.40625 35.4063,-11.7031 C35.2969,-12.4063 35.2969,-12.9063 35.6094,-13.2969 C38.2031,-13.7969 40.7031,-14 43.2969,-14 C45.7969,-14 48.2031,-13.7969 50.7031,-13.2969 C53.7031,-12.7031 56.7031,-12.2031 59,-9.79688 C59.2031,-9.59375 59.4063,-9.40625 59.6094,-9.29688 C55.6094,-1.29688 49.7031,4.70313 41.2969,8.40625 L39.5,9.09375 L39.1094,6.29688 M28.5,11.0938 C25,11.0938 21.5938,10.2031 21.5938,10.2031 C21.5938,10.2031 21.2969,8.79688 21.2969,6.79688 C21.2969,5.5 21.4063,3.90625 21.7969,2.29688 C22.7969,-2.5 26.2031,-5.90625 29.7969,-9.09375 C30.1094,-9.40625 30.4063,-9.59375 30.6094,-9.59375 C31,-9.59375 31.1094,-9.20313 31.2031,-8.5 C32.1094,-2.59375 33.6094,3.20313 34,9.09375 C34.1094,9.70313 34,10.5938 34,10.5938 C34,10.5938 31.4063,11.2969 28.5,11.0938"/>
<path class="KeySig" transform="matrix(0.992001,0,0,0.992001,448.165,944.199)" d="M14,38.4063 C14.7969,38.2969 15,37.2031 15.2031,36.5 C15.5938,35.2031 15.7031,33.9063 15.7031,32.7031 C15.7031,31.6094 15.5938,30.6094 15.5938,29.5 C15.5938,28.7969 15.5938,27.9063 15.7031,27.2031 C15.9063,25.2031 16.0938,23.2031 16.2031,21.2031 L20.5938,20.2969 C20.7969,24.5 21.5938,28.6094 23,32.6094 C23.0938,33.1094 23.5,33.7031 24.0938,33.7031 C24.7031,33.7969 24.9063,33.1094 25.2031,32.6094 C25.9063,31.5 26,30.2031 26,29 C26.1094,28.1094 26.1094,27.2969 26.1094,26.5 C26.1094,24.0938 25.9063,21.5938 25.7969,19.2031 L31.6094,18 C37.1094,16.9063 37.7969,16.0938 38.2031,10.7969 C38.2031,9.5 38.2969,8.59375 38.2031,7.59375 C38.1094,6.29688 37.6094,5.40625 36.5,5.40625 L36.2969,5.40625 C35.9063,5.40625 35.6094,5.40625 35.2031,5.5 C32.9063,6.09375 30.4063,6.59375 28,7 L26.2969,7.29688 C26.4063,5.90625 26.4063,4.40625 26.5,2.90625 C26.6094,-0.296875 26.7031,-3.5 26.7031,-6.70313 C29.5,-7.40625 32.2031,-8.20313 34.9063,-9.09375 C36.4063,-9.59375 37.7031,-10.4063 38.1094,-12 C38.5,-13.7969 39,-15.5 39,-17.2969 C39,-18.2969 38.9063,-19.4063 38.5,-20.4063 C38.1094,-21.4063 37.7969,-21.9063 37.2031,-21.9063 L37,-21.9063 C36.7031,-21.9063 36.2969,-21.9063 35.9063,-21.7031 C32.7969,-20.4063 29.7031,-19.4063 26.5,-18.5 L26.2031,-23.9063 C26,-28.2031 25.7969,-32.6094 24.9063,-36.9063 C24.7031,-37.4063 24.7969,-38.2969 24.2031,-38.2969 L24.0938,-38.2969 L23.7969,-38.2969 C23,-38.1094 22,-37.7969 21.9063,-36.7031 L21.9063,-34.7969 C21.9063,-28.9063 22.0938,-23.0938 22.2031,-17.2969 L16.9063,-16.0938 C16.9063,-19.0938 16.7969,-22.0938 16.5938,-25.0938 C16.5,-26.6094 16.5,-28 15.7031,-29.5 C13.5,-28.4063 13.7969,-26.5 13.7969,-24.9063 C13.5938,-21.7031 13.5,-18.5938 13.4063,-15.5 C10.5938,-14.9063 7.79688,-14.5 5,-14 C0.90625,-13.2969 0.296875,-12.7031 0.296875,-8.20313 C0,-7.09375 0.796875,-5.79688 0.703125,-4.59375 C0.5,-2.70313 1,-2.09375 2.29688,-2 C2.59375,-2 2.90625,-2.09375 3.29688,-2.20313 C6.59375,-2.70313 9.79688,-3.20313 13,-3.79688 L12.7031,5.20313 C12.5938,6.90625 12.4063,8.5 12.2031,10.0938 C8.5,10.7969 4.79688,11.5 1.09375,12.4063 C-1,12.9063 -2.20313,13.7031 -2.20313,16.0938 C-2.20313,18.5 -1.29688,20.7031 -1.20313,23 C-1.20313,24.0938 -0.90625,24.5938 -0.09375,24.7031 C0.09375,24.7031 0.40625,24.5938 0.796875,24.5 C4.40625,23.7031 8,23 11.5938,22.2031 C11.5,23.5 11.5,24.7969 11.5,26.2031 C11.5,29.7031 11.9063,33.1094 13.0938,36.5 C13.2969,37.2031 13.0938,38.4063 14,38.4063 M16.7031,9.20313 C16.7969,7 16.7969,4.79688 16.9063,2.59375 C17,0.203125 17,-2.09375 17,-4.5 C18.7031,-4.79688 20.2969,-5.09375 21.9063,-5.5 C21.4063,-0.90625 21.2031,3.70313 20.9063,8.29688 L16.7031,9.20313 "/>
<path class="Rest" transform="matrix(0.992001,0,0,0.992001,719.997,906.999)" d="M42.2031,48.9063 C43.2031,49.2031 44,48.2969 44.5,47.5 C45.7969,45.7969 46,43.7969 46.2969,41.7969 C47.4063,32.2969 47.2031,22.7031 47.6094,13.2031 L47.6094,12.2031 C51.1094,11.5 54.4063,10.2969 57.7031,8.79688 C62.6094,6.5 63.4063,5.29688 63.2969,0 C63.2969,-2.5 62.7969,-3.59375 61.5,-3.70313 C60.9063,-3.70313 60,-3.40625 58.9063,-2.79688 L58.2031,-2.5 C54.7969,-1 51.2969,0.203125 47.7031,0.90625 C47.7031,-3.5 47.5,-7.90625 47.2969,-12.2969 C47.1094,-16 47,-19.7969 46.7031,-23.5 C46.6094,-24.2969 46.7031,-25.9063 45.4063,-25.9063 C44.2031,-25.9063 43.2969,-25.0938 43.2031,-23.5938 C43.1094,-21.7969 42.6094,-20 42.7031,-18.2031 C42.7969,-11.5938 43,-5 43,1.5 C41.7969,1.59375 40.6094,1.59375 39.5,1.5 C33.4063,1.09375 27.4063,0.09375 21.2031,0.203125 C19,0.203125 16.7969,0.296875 14.5938,0.59375 C16.7969,-3.59375 18.5938,-7.5 20.9063,-11.2969 C26.2031,-20 31.9063,-28.6094 35.6094,-38.2969 C36.5,-40.6094 37.2031,-42.9063 37.2031,-45.2969 C37.2031,-46 37.1094,-46.7031 37,-47.4063 C36.9063,-48 36.9063,-49.1094 36.1094,-49.1094 C35.2969,-49.2031 34.2969,-48.9063 33.7969,-48.1094 C33.5,-47.5 33.1094,-47 32.9063,-46.4063 C31.5,-41.9063 29,-38 26.7031,-34 C23.7969,-29.1094 20.5,-24.4063 17.5938,-19.5 C13.5,-12.5938 10.0938,-5.40625 5.09375,0.90625 C3.5,2.90625 2,5 2,7.5 C2,8.40625 2.20313,9.29688 2.59375,10.2031 C3,11.0938 3.5,12 3.5,12.9063 C3.59375,14.4063 3.90625,14.9063 4.70313,15 C5.09375,15 5.70313,14.7969 6.40625,14.4063 C10.7969,12.5 15.2969,11.5 20,11.5 C26.2031,11.5 32.4063,12.5 38.6094,12.9063 C39.2969,13 40,13 40.7031,13.0938 C41.4063,13.0938 42.1094,13.0938 42.7969,12.9063 C42.6094,18.5938 42.5,24.2969 42.1094,30 C41.9063,34.4063 41.4063,38.7969 41.4063,43.4063 C41.4063,44.5 41.4063,45.5 41.5,46.5 C41.5,47.4063 41.4063,48.6094 42.2031,48.9063"/>
<polyline class="Rest" fill="none" stroke="#000000" stroke-width="17.36" stroke-linecap="square" stroke-linejoin="bevel" points="525.285,993.799 975.523,993.799"/>
<polyline class="Rest" fill="none" stroke="#000000" stroke-width="4.96" stroke-linecap="square" stroke-linejoin="bevel" points="516.605,968.999 516.605,1018.6"/>
<polyline class="Rest" fill="none" stroke="#000000" stroke-width="4.96" stroke-linecap="square" stroke-linejoin="bevel" points="984.203,968.999 984.203,1018.6"/>
<path class="Rest" transform="matrix(0.992001,0,0,0.992001,1255.08,906.999)" d="M18.2969,36.4063 C20.5938,36.4063 22.5938,35.7969 24.7969,35.4063 C25.6094,35.2969 26,34.7969 26,34 C26.1094,32.7969 26.4063,31.6094 26.4063,30.4063 L28.2031,-17.0938 C28.2969,-18.4063 28.2969,-19.5938 28.2969,-20.9063 C28.2969,-24.2031 28.1094,-27.5 27.7969,-30.9063 C27.4063,-34.1094 23.5,-36.6094 20,-36.6094 C19.2031,-36.6094 18.2969,-36.5 17.5938,-36.1094 C17.2969,-35.9063 17,-35.6094 16.7031,-35.2969 C13.2969,-30.9063 8.79688,-28.7031 3.40625,-28.4063 C2.29688,-28.2969 2,-28 2,-27.5 C2,-27.2031 2.09375,-26.7969 2.20313,-26.4063 C2.5,-25.4063 3.40625,-25.2969 4.09375,-25.2031 C6.59375,-24.7031 9,-24.2031 11.4063,-24.2031 C12.7031,-24.2031 14.0938,-24.4063 15.4063,-24.7969 C15.7969,-25 16.2031,-25 16.5,-25.0938 C17.2031,-25.0938 17.5,-24.5 17.5,-23.2031 C17.5,-16.7969 17.2969,-10.4063 16.9063,-4.09375 C15.9063,8.59375 16.2031,21.2969 15.2031,34 C15.0938,35.7969 16.0938,36.4063 18.2969,36.4063"/>
<path class="Rest" transform="matrix(0.992001,0,0,0.992001,1285.14,906.999)" d="M6.90625,37.7031 C7.70313,38.2031 8.40625,37.5 9,37 C11.7031,34.7969 14.7969,33 17.7031,31.1094 C19.5938,29.9063 21.5,29.5 23.5,29.5 C24.7031,29.5 26,29.6094 27.2031,29.9063 C29.4063,30.4063 31.5,31.2969 33.7031,32.1094 C37.5,33.5 41.2969,34.5 45,34.5 C49.4063,34.5 53.7031,33.2969 57.9063,30.6094 C62.9063,27.4063 66.5,23.2031 66,16.7969 C66,16 66,14.9063 65.4063,14.5938 C64.7031,14.2031 63.9063,14.7969 63.2969,15.2969 C62.1094,16.2969 60.9063,17.2031 59.7969,18.2969 C58,20.0938 56.1094,21.2031 53.7969,22 C51.5,22.7969 49.2031,23.2031 46.9063,23.2031 C43,23.2031 39.1094,22.0938 35.4063,20.5 C32.2969,19.2969 29.2031,18.2969 25.7969,18.2969 C24.2969,18.2969 22.7969,18.5 21.2031,18.9063 C22.0938,17.7969 22.5,17.2969 23,16.7969 C26.7969,13 30.4063,9.09375 34,5.09375 C41.2969,-3 46.1094,-12.5 46.9063,-23.5938 C47,-24.2969 47,-25 47,-25.6094 C47,-32 44.2969,-35.2969 38.6094,-37.2031 C36.5,-37.9063 34.5,-38.2031 32.5,-38.2031 C28.4063,-38.2031 24.5,-37 20.5938,-35.2969 C15.2969,-33 11.7031,-28.6094 7.70313,-24.5938 C4.5,-21.4063 2,-18.0938 2,-13.7031 C2,-13 2,-12.2031 2.20313,-11.4063 C2.29688,-10.9063 2,-10.2031 2,-9.70313 C2,-9.20313 2.20313,-8.70313 3,-8.70313 C3.79688,-8.70313 4.5,-9.59375 5.09375,-10.2031 C5.5,-10.5938 5.70313,-11 6,-11.2969 C9.29688,-15.2031 12.7031,-18.9063 16.5,-22.2031 C20.2969,-25.5 25,-27 29.5,-27 C33.2969,-27 36.9063,-25.9063 39.9063,-23.7031 C41,-22.9063 42.1094,-22 42.1094,-20.7031 C42.1094,-20.2969 41.9063,-19.7969 41.7031,-19.2969 C40,-15.0938 37.7969,-11 34.7969,-7.40625 C30.5,-2.29688 25.7969,2.40625 21.0938,7.20313 C16,12.5 11.5938,18.4063 7.70313,24.7031 C6.40625,26.7969 5.79688,28.7969 5.79688,31 C5.79688,31.7969 5.90625,32.6094 6,33.4063 C6.09375,34.1094 6.09375,34.9063 6.09375,35.7031 C6.20313,36.5 6.29688,37.2969 6.90625,37.7031"/>
<polyline class="Rest" fill="none" stroke="#000000" stroke-width="17.36" stroke-linecap="square" stroke-linejoin="bevel" points="1056.37,993.799 1547.38,993.799"/>
<polyline class="Rest" fill="none" stroke="#000000" stroke-width="4.96" stroke-linecap="square" stroke-linejoin="bevel" points="1047.69,968.999 1047.69,1018.6"/>
<polyline class="Rest" fill="none" stroke="#000000" stroke-width="4.96" stroke-linecap="square" stroke-linejoin="bevel" points="1556.06,968.999 1556.06,1018.6"/>
<path class="Beam" fill-rule="evenodd" d="M811.305,665.199 L947.126,665.199 L947.126,677.599 L811.305,677.599 L811.305,665.199 "/>
<path class="Beam" fill-rule="evenodd" d="M811.305,646.599 L947.126,646.599 L947.126,658.999 L811.305,658.999 L811.305,646.599 "/>
<path class="Beam" fill-rule="evenodd" d="M1010.57,665.199 L1212.82,665.199 L1212.82,677.599 L1010.57,677.599 L1010.57,665.199 "/>
<path class="Beam" fill-rule="evenodd" d="M1010.57,646.599 L1212.82,646.599 L1212.82,658.999 L1010.57,658.999 L1010.57,646.599 "/>
<path class="Beam" fill-rule="evenodd" d="M1276.26,665.199 L1451.94,665.199 L1451.94,677.599 L1276.26,677.599 L1276.26,665.199 "/>
<path class="Beam" fill-rule="evenodd" d="M1276.26,646.599 L1309,646.599 L1309,658.999 L1276.26,658.999 L1276.26,646.599 "/>
<path class="Beam" fill-rule="evenodd" d="M1451.94,646.599 L1419.2,646.599 L1419.2,658.999 L1451.94,658.999 L1451.94,646.599 "/>
<path class="Beam" fill-rule="evenodd" d="M1515.39,665.199 L1624.64,665.199 L1624.64,677.599 L1515.39,677.599 L1515.39,665.199 "/>
<path class="Beam" fill-rule="evenodd" d="M1823.13,665.199 L1958.95,665.199 L1958.95,677.599 L1823.13,677.599 L1823.13,665.199 "/>
<path class="Beam" fill-rule="evenodd" d="M1823.13,646.599 L1958.95,646.599 L1958.95,658.999 L1823.13,658.999 L1823.13,646.599 "/>
<path class="Beam" fill-rule="evenodd" d="M2022.4,665.199 L2224.64,665.199 L2224.64,677.599 L2022.4,677.599 L2022.4,665.199 "/>
<path class="Beam" fill-rule="evenodd" d="M2022.4,646.599 L2224.64,646.599 L2224.64,658.999 L2022.4,658.999 L2022.4,646.599 "/>
<path class="Beam" fill-rule="evenodd" d="M2288.09,665.199 L2463.77,665.199 L2463.77,677.599 L2288.09,677.599 L2288.09,665.199 "/>
<path class="Beam" fill-rule="evenodd" d="M2288.09,646.599 L2320.83,646.599 L2320.83,658.999 L2288.09,658.999 L2288.09,646.599 "/>
<path class="Beam" fill-rule="evenodd" d="M2463.77,646.599 L2431.03,646.599 L2431.03,658.999 L2463.77,658.999 L2463.77,646.599 "/>
<path class="Beam" fill-rule="evenodd" d="M2527.21,665.199 L2636.46,665.199 L2636.46,677.599 L2527.21,677.599 L2527.21,665.199 "/>
<path class="Jump" d="M1339.7,789.669 C1336.38,789.669 1332.87,789.46 1329.16,789.044 L1329.16,745.638 C1331.01,745.273 1332.94,744.986 1334.96,744.778 C1336.98,744.57 1338.92,744.466 1340.77,744.466 C1348.14,744.466 1353.67,746.33 1357.37,750.059 C1361.07,753.789 1362.91,759.471 1362.91,767.106 C1362.91,774.846 1360.99,780.541 1357.14,784.192 C1353.29,787.843 1347.48,789.669 1339.7,789.669 M1340.66,785.497 C1344.54,785.497 1347.75,784.867 1350.29,783.606 C1352.83,782.346 1354.74,780.361 1356.01,777.653 C1357.28,774.945 1357.91,771.429 1357.91,767.106 C1357.91,760.71 1356.52,756.033 1353.74,753.075 C1350.96,750.117 1346.69,748.638 1340.93,748.638 C1338.83,748.638 1336.52,748.825 1334.02,749.2 L1334.02,785.106 C1336.02,785.367 1338.24,785.497 1340.66,785.497 M1371.01,789.7 C1369.99,789.7 1369.16,789.401 1368.52,788.802 C1367.88,788.203 1367.56,787.393 1367.56,786.372 C1367.56,785.351 1367.87,784.536 1368.5,783.927 C1369.13,783.317 1369.97,783.013 1371.01,783.013 C1372.04,783.013 1372.88,783.322 1373.52,783.942 C1374.16,784.562 1374.48,785.372 1374.48,786.372 C1374.48,787.372 1374.16,788.177 1373.52,788.786 C1372.88,789.395 1372.04,789.7 1371.01,789.7 M1391.96,789.872 C1390.16,789.872 1388.31,789.718 1386.41,789.411 C1384.51,789.104 1382.71,788.658 1381.01,788.075 L1381.01,783.872 C1382.81,784.497 1384.66,784.96 1386.55,785.263 C1388.44,785.565 1390.26,785.716 1392.02,785.716 C1399.24,785.716 1402.85,783.002 1402.85,777.575 C1402.85,776.075 1402.56,774.82 1401.97,773.809 C1401.38,772.799 1400.45,771.95 1399.18,771.263 C1397.91,770.575 1396.19,769.95 1394.01,769.388 L1391.6,768.763 C1387.8,767.783 1384.97,766.317 1383.11,764.364 C1381.25,762.411 1380.32,759.846 1380.32,756.669 C1380.32,754.106 1380.92,751.901 1382.11,750.052 C1383.3,748.203 1385.07,746.789 1387.42,745.809 C1389.77,744.83 1392.68,744.341 1396.13,744.341 C1397.85,744.341 1399.55,744.455 1401.24,744.684 C1402.92,744.914 1404.45,745.247 1405.82,745.684 L1405.82,749.888 C1402.82,748.971 1399.64,748.513 1396.27,748.513 C1392.53,748.513 1389.76,749.187 1387.95,750.536 C1386.15,751.885 1385.24,753.83 1385.24,756.372 C1385.24,757.83 1385.51,759.059 1386.04,760.059 C1386.57,761.059 1387.43,761.906 1388.6,762.598 C1389.78,763.291 1391.39,763.903 1393.43,764.434 L1395.84,765.044 C1399.95,766.085 1402.97,767.585 1404.89,769.544 C1406.81,771.502 1407.77,774.08 1407.77,777.278 C1407.77,779.934 1407.15,782.203 1405.91,784.083 C1404.68,785.963 1402.88,787.398 1400.52,788.388 C1398.16,789.377 1395.31,789.872 1391.96,789.872 M1417.01,789.7 C1415.99,789.7 1415.16,789.401 1414.52,788.802 C1413.88,788.203 1413.56,787.393 1413.56,786.372 C1413.56,785.351 1413.87,784.536 1414.5,783.927 C1415.13,783.317 1415.97,783.013 1417.01,783.013 C1418.04,783.013 1418.88,783.322 1419.52,783.942 C1420.16,784.562 1420.48,785.372 1420.48,786.372 C1420.48,787.372 1420.16,788.177 1419.52,788.786 C1418.88,789.395 1418.04,789.7 1417.01,789.7 M1453.32,756.247 C1456.16,756.247 1458.5,756.617 1460.31,757.356 C1462.13,758.096 1463.5,759.328 1464.42,761.052 C1465.34,762.776 1465.81,765.085 1465.81,767.981 L1465.81,789.309 L1461.77,789.309 L1461.41,785.684 L1461.09,785.684 C1460.05,786.997 1458.7,788.02 1457.06,788.755 C1455.41,789.489 1453.62,789.856 1451.7,789.856 C1449.68,789.856 1447.93,789.5 1446.45,788.786 C1444.97,788.072 1443.83,787.046 1443.05,785.708 C1442.26,784.369 1441.87,782.789 1441.87,780.966 C1441.87,778.091 1442.81,775.867 1444.69,774.294 C1446.57,772.721 1449.56,771.736 1453.65,771.341 L1461.09,770.528 L1461.09,767.747 C1461.09,765.799 1460.78,764.276 1460.17,763.177 C1459.56,762.078 1458.65,761.304 1457.45,760.856 C1456.24,760.408 1454.65,760.184 1452.7,760.184 C1451.35,760.184 1449.91,760.304 1448.38,760.544 C1446.85,760.783 1445.36,761.153 1443.9,761.653 L1443.9,757.684 C1445.24,757.226 1446.76,756.872 1448.46,756.622 C1450.16,756.372 1451.78,756.247 1453.32,756.247 M1452.9,786.122 C1454.44,786.122 1455.92,785.804 1457.34,785.169 C1458.77,784.533 1460.01,783.533 1461.09,782.169 L1461.09,773.763 L1453.98,774.544 C1451.44,774.804 1449.59,775.427 1448.45,776.411 C1447.3,777.395 1446.73,778.763 1446.73,780.513 C1446.73,782.356 1447.25,783.752 1448.28,784.7 C1449.32,785.648 1450.86,786.122 1452.9,786.122 M1474.63,789.309 L1474.63,740.825 L1479.43,740.825 L1479.43,789.309 L1474.63,789.309 M1531.41,749.075 L1509.02,749.075 L1509.02,764.794 L1528.48,764.794 L1528.48,768.997 L1509.02,768.997 L1509.02,789.309 L1504.16,789.309 L1504.16,744.919 L1531.41,744.919 L1531.41,749.075 M1537.63,789.309 L1537.63,756.763 L1542.43,756.763 L1542.43,789.309 L1537.63,789.309 M1540.04,749.716 C1538.96,749.716 1538.12,749.45 1537.54,748.919 C1536.96,748.388 1536.66,747.643 1536.66,746.684 C1536.66,745.726 1536.96,744.976 1537.56,744.434 C1538.15,743.893 1538.98,743.622 1540.04,743.622 C1541.09,743.622 1541.91,743.893 1542.49,744.434 C1543.08,744.976 1543.37,745.726 1543.37,746.684 C1543.37,747.643 1543.08,748.388 1542.49,748.919 C1541.91,749.45 1541.09,749.716 1540.04,749.716 M1551.63,756.763 L1555.68,756.763 L1556.01,760.45 L1556.34,760.45 C1557.68,759.085 1559.23,758.044 1560.98,757.325 C1562.73,756.606 1564.59,756.247 1566.57,756.247 C1569.83,756.247 1572.39,757.164 1574.24,758.997 C1576.08,760.83 1577.01,763.763 1577.01,767.794 L1577.01,789.309 L1572.21,789.309 L1572.21,768.013 C1572.21,765.356 1571.63,763.447 1570.45,762.286 C1569.28,761.125 1567.6,760.544 1565.4,760.544 C1563.78,760.544 1562.17,760.893 1560.55,761.591 C1558.93,762.289 1557.56,763.377 1556.43,764.856 L1556.43,789.309 L1551.63,789.309 L1551.63,756.763 M1609.63,774.638 L1588.79,774.638 C1588.86,777.377 1589.32,779.578 1590.15,781.239 C1590.98,782.901 1592.2,784.101 1593.8,784.841 C1595.4,785.58 1597.44,785.95 1599.91,785.95 C1602.27,785.95 1604.97,785.507 1608.01,784.622 L1608.01,788.559 C1605.05,789.434 1602.16,789.872 1599.34,789.872 C1594.16,789.872 1590.3,788.533 1587.74,785.856 C1585.19,783.179 1583.91,778.898 1583.91,773.013 C1583.91,767.44 1585.07,763.252 1587.38,760.45 C1589.7,757.648 1592.93,756.247 1597.09,756.247 C1601.15,756.247 1604.26,757.643 1606.41,760.434 C1608.56,763.226 1609.63,767.46 1609.63,773.138 L1609.63,774.638 M1597.02,759.763 C1594.41,759.763 1592.4,760.661 1591,762.458 C1589.6,764.255 1588.86,767.216 1588.79,771.341 L1605.01,771.341 C1604.93,767.205 1604.22,764.242 1602.89,762.45 C1601.56,760.658 1599.61,759.763 1597.02,759.763"/>
<path class="StaffText" d="M1065.57,844.709 L1054.07,829.381 C1053.24,829.423 1052.58,829.444 1052.11,829.444 C1050.44,829.444 1048.72,829.376 1046.95,829.241 L1046.95,844.709 L1042.95,844.709 L1042.95,808.319 C1046.37,807.652 1049.66,807.319 1052.82,807.319 C1057.72,807.319 1061.35,808.209 1063.72,809.991 C1066.09,811.772 1067.28,814.538 1067.28,818.288 C1067.29,821.142 1066.52,823.452 1064.98,825.217 C1063.44,826.983 1061.16,828.199 1058.15,828.866 L1070.12,844.709 L1065.57,844.709 M1046.95,825.944 C1047.97,826.038 1048.84,826.103 1049.57,826.139 C1050.29,826.176 1051.14,826.194 1052.12,826.194 C1056.06,826.194 1058.93,825.561 1060.72,824.295 C1062.52,823.03 1063.42,821.043 1063.42,818.334 C1063.42,816.491 1063.06,815.001 1062.35,813.866 C1061.63,812.73 1060.52,811.902 1059,811.381 C1057.49,810.86 1055.51,810.6 1053.07,810.6 C1051.88,810.6 1050.81,810.642 1049.89,810.725 C1048.96,810.808 1047.98,810.939 1046.95,811.116 L1046.95,825.944 M1094.5,832.491 L1077.14,832.491 C1077.2,834.772 1077.58,836.603 1078.27,837.983 C1078.96,839.363 1079.98,840.363 1081.31,840.983 C1082.64,841.603 1084.34,841.913 1086.4,841.913 C1088.37,841.913 1090.62,841.543 1093.15,840.803 L1093.15,844.084 C1090.68,844.814 1088.28,845.178 1085.93,845.178 C1081.61,845.178 1078.39,844.064 1076.26,841.834 C1074.14,839.605 1073.07,836.038 1073.07,831.131 C1073.07,826.485 1074.04,822.996 1075.97,820.663 C1077.89,818.329 1080.59,817.163 1084.06,817.163 C1087.43,817.163 1090.02,818.327 1091.81,820.655 C1093.6,822.983 1094.5,826.512 1094.5,831.241 L1094.5,832.491 M1084,820.084 C1081.82,820.084 1080.15,820.834 1078.98,822.334 C1077.81,823.834 1077.2,826.303 1077.14,829.741 L1090.65,829.741 C1090.58,826.293 1089.99,823.821 1088.89,822.327 C1087.78,820.832 1086.15,820.084 1084,820.084 M1111.07,845.178 C1107.15,845.178 1104.17,844.045 1102.13,841.78 C1100.09,839.514 1099.07,835.975 1099.07,831.163 C1099.07,826.35 1100.17,822.814 1102.36,820.553 C1104.56,818.293 1107.79,817.163 1112.07,817.163 C1114.1,817.163 1115.95,817.397 1117.65,817.866 L1117.65,821.272 C1115.87,820.814 1114.16,820.584 1112.53,820.584 C1110.39,820.584 1108.64,820.928 1107.29,821.616 C1105.93,822.303 1104.91,823.413 1104.24,824.944 C1103.57,826.475 1103.23,828.517 1103.23,831.069 C1103.23,833.652 1103.54,835.73 1104.17,837.303 C1104.79,838.876 1105.72,840.017 1106.96,840.725 C1108.19,841.433 1109.76,841.788 1111.65,841.788 C1113.4,841.788 1115.4,841.413 1117.65,840.663 L1117.65,844.053 C1115.54,844.803 1113.35,845.178 1111.07,845.178 M1122.51,844.709 L1122.51,817.584 L1126.5,817.584 L1126.5,844.709 L1122.51,844.709 M1124.51,811.725 C1123.61,811.725 1122.91,811.504 1122.43,811.061 C1121.94,810.618 1121.7,809.996 1121.7,809.194 C1121.7,808.392 1121.95,807.767 1122.44,807.319 C1122.94,806.871 1123.63,806.647 1124.51,806.647 C1125.39,806.647 1126.07,806.871 1126.55,807.319 C1127.04,807.767 1127.28,808.392 1127.28,809.194 C1127.28,809.996 1127.04,810.618 1126.55,811.061 C1126.07,811.504 1125.39,811.725 1124.51,811.725 M1145.73,841.709 C1146.68,841.709 1147.79,841.574 1149.06,841.303 L1149.06,844.678 C1147.64,845.012 1146.25,845.178 1144.87,845.178 C1139.03,845.178 1136.11,842.183 1136.11,836.194 L1136.11,820.897 L1130.98,820.897 L1130.98,817.584 L1136.11,817.584 L1136.76,807.725 L1140.11,807.725 L1140.11,817.584 L1148.62,817.584 L1148.62,820.897 L1140.11,820.897 L1140.11,835.569 C1140.11,837.777 1140.56,839.353 1141.47,840.295 C1142.37,841.238 1143.79,841.709 1145.73,841.709 M1161.57,817.163 C1163.94,817.163 1165.88,817.472 1167.39,818.092 C1168.91,818.712 1170.05,819.738 1170.82,821.17 C1171.6,822.603 1171.98,824.527 1171.98,826.944 L1171.98,844.709 L1168.62,844.709 L1168.32,841.678 L1168.06,841.678 C1167.18,842.782 1166.06,843.639 1164.68,844.248 C1163.31,844.858 1161.82,845.163 1160.23,845.163 C1158.54,845.163 1157.08,844.866 1155.86,844.272 C1154.63,843.678 1153.68,842.824 1153.02,841.709 C1152.36,840.595 1152.03,839.277 1152.03,837.756 C1152.03,835.36 1152.81,833.509 1154.38,832.202 C1155.95,830.894 1158.44,830.074 1161.86,829.741 L1168.06,829.069 L1168.06,826.741 C1168.06,825.126 1167.8,823.86 1167.29,822.944 C1166.78,822.027 1166.02,821.381 1165.01,821.006 C1164,820.631 1162.68,820.444 1161.06,820.444 C1159.93,820.444 1158.74,820.543 1157.47,820.741 C1156.19,820.939 1154.95,821.246 1153.73,821.663 L1153.73,818.366 C1154.85,817.98 1156.11,817.683 1157.53,817.475 C1158.94,817.267 1160.29,817.163 1161.57,817.163 M1161.23,842.053 C1162.51,842.053 1163.74,841.788 1164.93,841.256 C1166.11,840.725 1167.15,839.892 1168.06,838.756 L1168.06,831.756 L1162.12,832.413 C1160.01,832.631 1158.47,833.15 1157.51,833.967 C1156.55,834.785 1156.07,835.923 1156.07,837.381 C1156.07,838.913 1156.51,840.074 1157.38,840.866 C1158.25,841.657 1159.53,842.053 1161.23,842.053 M1188.75,845.178 C1186.68,845.178 1184.85,844.72 1183.25,843.803 C1181.66,842.887 1180.39,841.426 1179.47,839.42 C1178.54,837.415 1178.07,834.845 1178.07,831.709 C1178.07,826.866 1179.23,823.23 1181.54,820.803 C1183.84,818.376 1187.26,817.163 1191.78,817.163 C1193.08,817.163 1194.54,817.288 1196.17,817.538 L1196.17,804.319 L1200.17,804.319 L1200.17,844.709 L1196.75,844.709 L1196.48,841.756 L1196.23,841.756 C1195.38,842.808 1194.31,843.642 1193.03,844.256 C1191.75,844.871 1190.32,845.178 1188.75,845.178 M1189.68,841.741 C1190.94,841.741 1192.15,841.459 1193.3,840.897 C1194.45,840.334 1195.41,839.496 1196.17,838.381 L1196.17,820.913 C1195.54,820.777 1194.83,820.665 1194.03,820.577 C1193.23,820.488 1192.45,820.444 1191.7,820.444 C1188.48,820.444 1186.08,821.306 1184.51,823.03 C1182.94,824.754 1182.15,827.522 1182.15,831.334 C1182.15,835.116 1182.81,837.795 1184.11,839.373 C1185.42,840.952 1187.28,841.741 1189.68,841.741 M1217.61,845.178 C1213.97,845.178 1211.14,844.032 1209.11,841.741 C1207.09,839.449 1206.07,835.933 1206.07,831.194 C1206.07,826.444 1207.08,822.918 1209.1,820.616 C1211.11,818.314 1213.95,817.163 1217.61,817.163 C1221.27,817.163 1224.11,818.306 1226.13,820.592 C1228.14,822.879 1229.15,826.402 1229.15,831.163 C1229.15,835.892 1228.13,839.41 1226.1,841.717 C1224.06,844.025 1221.23,845.178 1217.61,845.178 M1217.61,841.928 C1220.03,841.928 1221.88,841.108 1223.14,839.467 C1224.41,837.827 1225.04,835.084 1225.04,831.241 C1225.04,827.324 1224.41,824.545 1223.14,822.905 C1221.88,821.264 1220.03,820.444 1217.61,820.444 C1215.19,820.444 1213.34,821.259 1212.07,822.889 C1210.79,824.519 1210.15,827.262 1210.15,831.116 C1210.15,835.012 1210.79,837.788 1212.05,839.444 C1213.32,841.1 1215.17,841.928 1217.61,841.928 M1253.98,845.178 C1251.23,845.178 1248.72,844.814 1246.45,844.084 L1246.45,840.866 C1248.94,841.616 1251.45,841.991 1253.98,841.991 C1258.45,841.991 1260.68,840.475 1260.68,837.444 C1260.68,836.204 1260.36,835.259 1259.72,834.608 C1259.07,833.957 1258,833.465 1256.5,833.131 L1252.82,832.381 C1250.41,831.871 1248.66,831.014 1247.57,829.811 C1246.49,828.608 1245.95,827.012 1245.95,825.022 C1245.95,823.47 1246.34,822.103 1247.13,820.92 C1247.92,819.738 1249.11,818.816 1250.72,818.155 C1252.32,817.493 1254.31,817.163 1256.68,817.163 C1258.86,817.163 1260.99,817.428 1263.07,817.959 L1263.07,821.209 C1261.98,820.918 1260.93,820.704 1259.93,820.569 C1258.93,820.433 1257.88,820.366 1256.78,820.366 C1254.33,820.366 1252.55,820.777 1251.44,821.6 C1250.33,822.423 1249.78,823.527 1249.78,824.913 C1249.78,826.027 1250.08,826.926 1250.7,827.608 C1251.31,828.29 1252.36,828.793 1253.82,829.116 L1257.5,829.866 C1259.97,830.376 1261.75,831.225 1262.86,832.413 C1263.97,833.6 1264.53,835.209 1264.53,837.241 C1264.53,839.741 1263.62,841.689 1261.8,843.084 C1259.98,844.48 1257.38,845.178 1253.98,845.178 M1280.61,845.178 C1276.97,845.178 1274.14,844.032 1272.11,841.741 C1270.09,839.449 1269.07,835.933 1269.07,831.194 C1269.07,826.444 1270.08,822.918 1272.1,820.616 C1274.11,818.314 1276.95,817.163 1280.61,817.163 C1284.27,817.163 1287.11,818.306 1289.13,820.592 C1291.14,822.879 1292.15,826.402 1292.15,831.163 C1292.15,835.892 1291.13,839.41 1289.1,841.717 C1287.06,844.025 1284.23,845.178 1280.61,845.178 M1280.61,841.928 C1283.03,841.928 1284.88,841.108 1286.14,839.467 C1287.41,837.827 1288.04,835.084 1288.04,831.241 C1288.04,827.324 1287.41,824.545 1286.14,822.905 C1284.88,821.264 1283.03,820.444 1280.61,820.444 C1278.19,820.444 1276.34,821.259 1275.07,822.889 C1273.79,824.519 1273.15,827.262 1273.15,831.116 C1273.15,835.012 1273.79,837.788 1275.05,839.444 C1276.32,841.1 1278.17,841.928 1280.61,841.928 M1306.87,845.178 C1305.44,845.178 1304.01,845.074 1302.56,844.866 C1301.11,844.657 1299.76,844.355 1298.51,843.959 L1298.51,804.319 L1302.5,804.319 L1302.5,820.397 L1302.75,820.397 C1303.6,819.397 1304.67,818.608 1305.95,818.03 C1307.23,817.452 1308.66,817.163 1310.25,817.163 C1312.24,817.163 1314,817.618 1315.55,818.53 C1317.1,819.441 1318.33,820.9 1319.24,822.905 C1320.15,824.91 1320.61,827.485 1320.61,830.631 C1320.61,840.329 1316.03,845.178 1306.87,845.178 M1307.18,841.913 C1310.31,841.913 1312.65,841.045 1314.2,839.311 C1315.75,837.577 1316.53,834.803 1316.53,830.991 C1316.53,827.209 1315.87,824.535 1314.55,822.967 C1313.23,821.4 1311.4,820.616 1309.06,820.616 C1307.77,820.616 1306.54,820.881 1305.39,821.413 C1304.23,821.944 1303.27,822.73 1302.5,823.772 L1302.5,841.288 C1303.87,841.704 1305.43,841.913 1307.18,841.913 M1326.51,817.584 L1329.86,817.584 L1330.18,821.209 L1330.43,821.209 C1331.33,819.959 1332.48,818.998 1333.89,818.327 C1335.29,817.655 1336.78,817.319 1338.36,817.319 C1339.08,817.319 1339.81,817.387 1340.53,817.522 L1340.53,821.241 C1339.81,821.126 1339.03,821.069 1338.18,821.069 C1336.77,821.069 1335.35,821.397 1333.92,822.053 C1332.49,822.709 1331.35,823.657 1330.5,824.897 L1330.5,844.709 L1326.51,844.709 L1326.51,817.584 M1363.5,832.491 L1346.14,832.491 C1346.2,834.772 1346.58,836.603 1347.27,837.983 C1347.96,839.363 1348.98,840.363 1350.31,840.983 C1351.64,841.603 1353.34,841.913 1355.4,841.913 C1357.37,841.913 1359.62,841.543 1362.15,840.803 L1362.15,844.084 C1359.68,844.814 1357.28,845.178 1354.93,845.178 C1350.61,845.178 1347.39,844.064 1345.26,841.834 C1343.14,839.605 1342.07,836.038 1342.07,831.131 C1342.07,826.485 1343.04,822.996 1344.97,820.663 C1346.89,818.329 1349.59,817.163 1353.06,817.163 C1356.43,817.163 1359.02,818.327 1360.81,820.655 C1362.6,822.983 1363.5,826.512 1363.5,831.241 L1363.5,832.491 M1353,820.084 C1350.82,820.084 1349.15,820.834 1347.98,822.334 C1346.81,823.834 1346.2,826.303 1346.14,829.741 L1359.65,829.741 C1359.58,826.293 1358.99,823.821 1357.89,822.327 C1356.78,820.832 1355.15,820.084 1353,820.084 M1381.51,817.584 L1384.86,817.584 L1385.18,821.209 L1385.43,821.209 C1386.33,819.959 1387.48,818.998 1388.89,818.327 C1390.29,817.655 1391.78,817.319 1393.36,817.319 C1394.08,817.319 1394.81,817.387 1395.53,817.522 L1395.53,821.241 C1394.81,821.126 1394.03,821.069 1393.18,821.069 C1391.77,821.069 1390.35,821.397 1388.92,822.053 C1387.49,822.709 1386.35,823.657 1385.5,824.897 L1385.5,844.709 L1381.51,844.709 L1381.51,817.584 M1399.51,844.709 L1399.51,817.584 L1403.5,817.584 L1403.5,844.709 L1399.51,844.709 M1401.51,811.725 C1400.61,811.725 1399.91,811.504 1399.43,811.061 C1398.94,810.618 1398.7,809.996 1398.7,809.194 C1398.7,808.392 1398.95,807.767 1399.44,807.319 C1399.94,806.871 1400.63,806.647 1401.51,806.647 C1402.39,806.647 1403.07,806.871 1403.55,807.319 C1404.04,807.767 1404.28,808.392 1404.28,809.194 C1404.28,809.996 1404.04,810.618 1403.55,811.061 C1403.07,811.504 1402.39,811.725 1401.51,811.725 M1422.73,841.709 C1423.68,841.709 1424.79,841.574 1426.06,841.303 L1426.06,844.678 C1424.64,845.012 1423.25,845.178 1421.87,845.178 C1416.03,845.178 1413.11,842.183 1413.11,836.194 L1413.11,820.897 L1407.98,820.897 L1407.98,817.584 L1413.11,817.584 L1413.76,807.725 L1417.11,807.725 L1417.11,817.584 L1425.62,817.584 L1425.62,820.897 L1417.11,820.897 L1417.11,835.569 C1417.11,837.777 1417.56,839.353 1418.47,840.295 C1419.37,841.238 1420.79,841.709 1422.73,841.709 M1457.42,817.163 C1459.95,817.163 1461.94,817.926 1463.4,819.452 C1464.86,820.978 1465.59,823.413 1465.59,826.756 L1465.59,844.709 L1461.59,844.709 L1461.59,826.944 C1461.59,824.746 1461.14,823.163 1460.25,822.194 C1459.35,821.225 1458.1,820.741 1456.48,820.741 C1455.31,820.741 1454.14,821.019 1452.97,821.577 C1451.79,822.134 1450.78,823.012 1449.95,824.209 C1450.05,824.959 1450.11,825.777 1450.11,826.663 L1450.11,844.709 L1446.15,844.709 L1446.15,826.944 C1446.15,824.725 1445.72,823.137 1444.86,822.178 C1443.99,821.22 1442.76,820.741 1441.15,820.741 C1439.93,820.741 1438.73,821.048 1437.53,821.663 C1436.33,822.277 1435.32,823.209 1434.5,824.459 L1434.5,844.709 L1430.51,844.709 L1430.51,817.584 L1433.87,817.584 L1434.15,820.663 L1434.43,820.663 C1435.47,819.517 1436.65,818.647 1437.98,818.053 C1439.31,817.459 1440.75,817.163 1442.28,817.163 C1445.56,817.163 1447.81,818.465 1449.04,821.069 C1450.23,819.715 1451.55,818.725 1453,818.1 C1454.44,817.475 1455.92,817.163 1457.42,817.163 M1482.61,845.178 C1478.97,845.178 1476.14,844.032 1474.11,841.741 C1472.09,839.449 1471.07,835.933 1471.07,831.194 C1471.07,826.444 1472.08,822.918 1474.1,820.616 C1476.11,818.314 1478.95,817.163 1482.61,817.163 C1486.27,817.163 1489.11,818.306 1491.13,820.592 C1493.14,822.879 1494.15,826.402 1494.15,831.163 C1494.15,835.892 1493.13,839.41 1491.1,841.717 C1489.06,844.025 1486.23,845.178 1482.61,845.178 M1482.61,841.928 C1485.03,841.928 1486.88,841.108 1488.14,839.467 C1489.41,837.827 1490.04,835.084 1490.04,831.241 C1490.04,827.324 1489.41,824.545 1488.14,822.905 C1486.88,821.264 1485.03,820.444 1482.61,820.444 C1480.19,820.444 1478.34,821.259 1477.07,822.889 C1475.79,824.519 1475.15,827.262 1475.15,831.116 C1475.15,835.012 1475.79,837.788 1477.05,839.444 C1478.32,841.1 1480.17,841.928 1482.61,841.928 M1521.75,845.178 C1519.68,845.178 1517.85,844.72 1516.25,843.803 C1514.66,842.887 1513.39,841.426 1512.47,839.42 C1511.54,837.415 1511.07,834.845 1511.07,831.709 C1511.07,826.866 1512.23,823.23 1514.54,820.803 C1516.84,818.376 1520.26,817.163 1524.78,817.163 C1526.08,817.163 1527.54,817.288 1529.17,817.538 L1529.17,804.319 L1533.17,804.319 L1533.17,844.709 L1529.75,844.709 L1529.48,841.756 L1529.23,841.756 C1528.38,842.808 1527.31,843.642 1526.03,844.256 C1524.75,844.871 1523.32,845.178 1521.75,845.178 M1522.68,841.741 C1523.94,841.741 1525.15,841.459 1526.3,840.897 C1527.45,840.334 1528.41,839.496 1529.17,838.381 L1529.17,820.913 C1528.54,820.777 1527.83,820.665 1527.03,820.577 C1526.23,820.488 1525.45,820.444 1524.7,820.444 C1521.48,820.444 1519.08,821.306 1517.51,823.03 C1515.94,824.754 1515.15,827.522 1515.15,831.334 C1515.15,835.116 1515.81,837.795 1517.11,839.373 C1518.42,840.952 1520.28,841.741 1522.68,841.741 M1560.5,832.491 L1543.14,832.491 C1543.2,834.772 1543.58,836.603 1544.27,837.983 C1544.96,839.363 1545.98,840.363 1547.31,840.983 C1548.64,841.603 1550.34,841.913 1552.4,841.913 C1554.37,841.913 1556.62,841.543 1559.15,840.803 L1559.15,844.084 C1556.68,844.814 1554.28,845.178 1551.93,845.178 C1547.61,845.178 1544.39,844.064 1542.26,841.834 C1540.14,839.605 1539.07,836.038 1539.07,831.131 C1539.07,826.485 1540.04,822.996 1541.97,820.663 C1543.89,818.329 1546.59,817.163 1550.06,817.163 C1553.43,817.163 1556.02,818.327 1557.81,820.655 C1559.6,822.983 1560.5,826.512 1560.5,831.241 L1560.5,832.491 M1550,820.084 C1547.82,820.084 1546.15,820.834 1544.98,822.334 C1543.81,823.834 1543.2,826.303 1543.14,829.741 L1556.65,829.741 C1556.58,826.293 1555.99,823.821 1554.89,822.327 C1553.78,820.832 1552.15,820.084 1550,820.084 M1605.42,817.163 C1607.95,817.163 1609.94,817.926 1611.4,819.452 C1612.86,820.978 1613.59,823.413 1613.59,826.756 L1613.59,844.709 L1609.59,844.709 L1609.59,826.944 C1609.59,824.746 1609.14,823.163 1608.25,822.194 C1607.35,821.225 1606.1,820.741 1604.48,820.741 C1603.31,820.741 1602.14,821.019 1600.97,821.577 C1599.79,822.134 1598.78,823.012 1597.95,824.209 C1598.05,824.959 1598.11,825.777 1598.11,826.663 L1598.11,844.709 L1594.15,844.709 L1594.15,826.944 C1594.15,824.725 1593.72,823.137 1592.86,822.178 C1591.99,821.22 1590.76,820.741 1589.15,820.741 C1587.93,820.741 1586.73,821.048 1585.53,821.663 C1584.33,822.277 1583.32,823.209 1582.5,824.459 L1582.5,844.709 L1578.51,844.709 L1578.51,817.584 L1581.87,817.584 L1582.15,820.663 L1582.43,820.663 C1583.47,819.517 1584.65,818.647 1585.98,818.053 C1587.31,817.459 1588.75,817.163 1590.28,817.163 C1593.56,817.163 1595.81,818.465 1597.04,821.069 C1598.23,819.715 1599.55,818.725 1601,818.1 C1602.44,817.475 1603.92,817.163 1605.42,817.163 M1628.86,845.163 C1626.17,845.163 1624.05,844.405 1622.51,842.889 C1620.97,841.373 1620.2,838.949 1620.2,835.616 L1620.2,817.584 L1624.2,817.584 L1624.2,835.413 C1624.2,837.61 1624.69,839.189 1625.66,840.147 C1626.63,841.105 1628,841.584 1629.75,841.584 C1631.08,841.584 1632.42,841.285 1633.76,840.686 C1635.11,840.087 1636.23,839.189 1637.12,837.991 L1637.12,817.584 L1641.12,817.584 L1641.12,844.709 L1637.75,844.709 L1637.45,841.741 L1637.2,841.741 C1636.08,842.866 1634.81,843.717 1633.39,844.295 C1631.96,844.873 1630.45,845.163 1628.86,845.163 M1648.51,817.584 L1651.86,817.584 L1652.18,821.209 L1652.43,821.209 C1653.33,819.959 1654.48,818.998 1655.89,818.327 C1657.29,817.655 1658.78,817.319 1660.36,817.319 C1661.08,817.319 1661.81,817.387 1662.53,817.522 L1662.53,821.241 C1661.81,821.126 1661.03,821.069 1660.18,821.069 C1658.77,821.069 1657.35,821.397 1655.92,822.053 C1654.49,822.709 1653.35,823.657 1652.5,824.897 L1652.5,844.709 L1648.51,844.709 L1648.51,817.584 M1673.78,856.209 C1672.48,856.209 1671.12,856.105 1669.7,855.897 C1668.28,855.689 1666.99,855.381 1665.81,854.975 L1665.81,851.631 C1668.52,852.485 1671.11,852.913 1673.57,852.913 C1675.57,852.913 1677.2,852.637 1678.45,852.084 C1679.7,851.532 1680.63,850.639 1681.25,849.405 C1681.86,848.17 1682.17,846.522 1682.17,844.459 L1682.17,841.834 L1681.92,841.834 C1681.07,842.834 1680.01,843.621 1678.73,844.194 C1677.45,844.767 1676.02,845.053 1674.43,845.053 C1672.47,845.053 1670.7,844.6 1669.15,843.694 C1667.6,842.788 1666.37,841.34 1665.45,839.35 C1664.53,837.36 1664.07,834.808 1664.07,831.694 C1664.07,826.86 1665.23,823.235 1667.54,820.819 C1669.84,818.402 1673.27,817.183 1677.82,817.163 C1679.23,817.163 1680.67,817.272 1682.14,817.491 C1683.62,817.709 1684.96,818.012 1686.17,818.397 L1686.17,843.834 C1686.17,846.772 1685.71,849.147 1684.79,850.959 C1683.88,852.772 1682.51,854.1 1680.7,854.944 C1678.89,855.788 1676.58,856.209 1673.78,856.209 M1675.62,841.631 C1676.89,841.631 1678.11,841.368 1679.28,840.842 C1680.44,840.316 1681.41,839.538 1682.17,838.506 L1682.17,820.991 C1680.68,820.626 1679.12,820.444 1677.5,820.444 C1674.38,820.444 1672.05,821.308 1670.49,823.038 C1668.93,824.767 1668.15,827.527 1668.15,831.319 C1668.15,835.1 1668.81,837.764 1670.11,839.311 C1671.42,840.858 1673.26,841.631 1675.62,841.631 M1701.57,817.163 C1703.94,817.163 1705.88,817.472 1707.39,818.092 C1708.91,818.712 1710.05,819.738 1710.82,821.17 C1711.6,822.603 1711.98,824.527 1711.98,826.944 L1711.98,844.709 L1708.62,844.709 L1708.32,841.678 L1708.06,841.678 C1707.18,842.782 1706.06,843.639 1704.68,844.248 C1703.31,844.858 1701.82,845.163 1700.23,845.163 C1698.54,845.163 1697.08,844.866 1695.86,844.272 C1694.63,843.678 1693.68,842.824 1693.02,841.709 C1692.36,840.595 1692.03,839.277 1692.03,837.756 C1692.03,835.36 1692.81,833.509 1694.38,832.202 C1695.95,830.894 1698.44,830.074 1701.86,829.741 L1708.06,829.069 L1708.06,826.741 C1708.06,825.126 1707.8,823.86 1707.29,822.944 C1706.78,822.027 1706.02,821.381 1705.01,821.006 C1704,820.631 1702.68,820.444 1701.06,820.444 C1699.93,820.444 1698.74,820.543 1697.47,820.741 C1696.19,820.939 1694.95,821.246 1693.73,821.663 L1693.73,818.366 C1694.85,817.98 1696.11,817.683 1697.53,817.475 C1698.94,817.267 1700.29,817.163 1701.57,817.163 M1701.23,842.053 C1702.51,842.053 1703.74,841.788 1704.93,841.256 C1706.11,840.725 1707.15,839.892 1708.06,838.756 L1708.06,831.756 L1702.12,832.413 C1700.01,832.631 1698.47,833.15 1697.51,833.967 C1696.55,834.785 1696.07,835.923 1696.07,837.381 C1696.07,838.913 1696.51,840.074 1697.38,840.866 C1698.25,841.657 1699.53,842.053 1701.23,842.053"/>
<path class="Page" d="M2751.39,3802.28 L2754.09,3802.28 C2755.8,3802.26 2757.15,3801.81 2758.13,3800.94 C2759.1,3800.06 2759.59,3798.89 2759.59,3797.41 C2759.59,3794.08 2757.93,3792.41 2754.61,3792.41 C2753.05,3792.41 2751.8,3792.85 2750.87,3793.74 C2749.93,3794.63 2749.47,3795.81 2749.47,3797.28 L2745.86,3797.28 C2745.86,3795.03 2746.68,3793.16 2748.33,3791.67 C2749.97,3790.18 2752.07,3789.44 2754.61,3789.44 C2757.29,3789.44 2759.39,3790.15 2760.91,3791.56 C2762.44,3792.98 2763.2,3794.96 2763.2,3797.49 C2763.2,3798.73 2762.8,3799.92 2762,3801.08 C2761.2,3802.24 2760.11,3803.1 2758.73,3803.67 C2760.3,3804.17 2761.5,3805 2762.35,3806.14 C2763.2,3807.29 2763.63,3808.68 2763.63,3810.33 C2763.63,3812.88 2762.79,3814.91 2761.13,3816.41 C2759.46,3817.91 2757.29,3818.66 2754.63,3818.66 C2751.96,3818.66 2749.79,3817.93 2748.12,3816.49 C2746.45,3815.04 2745.61,3813.13 2745.61,3810.77 L2749.23,3810.77 C2749.23,3812.27 2749.72,3813.47 2750.7,3814.36 C2751.68,3815.26 2752.99,3815.71 2754.63,3815.71 C2756.38,3815.71 2757.71,3815.25 2758.63,3814.34 C2759.55,3813.43 2760.02,3812.12 2760.02,3810.41 C2760.02,3808.76 2759.51,3807.5 2758.49,3806.61 C2757.48,3805.73 2756.01,3805.27 2754.09,3805.24 L2751.39,3805.24 L2751.39,3802.28 "/>
</svg>
