<svg id="Capa_2" data-name="Capa 2" xmlns="http://www.w3.org/2000/svg" viewBox="0 0 100 100"><defs><style>.cls-1{fill:#37bbed;}.cls-2{fill:#fff;}</style></defs><circle class="cls-1" cx="50" cy="50" r="47.5"/><path class="cls-1" d="M50,4A46,46,0,1,1,4,50,46,46,0,0,1,50,4m0-3A49,49,0,1,0,99,50,49.05,49.05,0,0,0,50,1Z"/><path class="cls-2" d="M50,18A32,32,0,1,1,18,50,32,32,0,0,1,50,18M50,4A46,46,0,1,0,96,50,46,46,0,0,0,50,4Z"/><path class="cls-2" d="M68.3,61.28a4.2,4.2,0,0,1-.33.92,4.1,4.1,0,0,1-2.11,2,10.52,10.52,0,0,1-2.32.7,25.85,25.85,0,0,1-2.64.4c-.71.08-1.44.13-2.16.19a25.94,25.94,0,0,1-3.41.15c-.91,0-1.81-.07-2.72-.15l-1.73-.14c-.55,0-1.1-.13-1.65-.19-.81-.08-1.6-.23-2.39-.35-.42-.07-.83-.16-1.23-.25a8.18,8.18,0,0,0-2.21-.09,17.27,17.27,0,0,0-2.67.43c-.76.17-1.49.4-2.23.64a4.63,4.63,0,0,1-1.22.19,8,8,0,0,1-1.9-.08,4.73,4.73,0,0,1-2.32-1.05A4.59,4.59,0,0,1,32,63.06,7.24,7.24,0,0,1,31.54,61a6.33,6.33,0,0,1,.34-2.59A4.87,4.87,0,0,1,33.59,56a5.66,5.66,0,0,1,2-1,5.52,5.52,0,0,1,.58-.14c-.14-.39-.29-.75-.39-1.12a6.3,6.3,0,0,1-.07-3.39,3.89,3.89,0,0,1,.6-1.25A5.41,5.41,0,0,1,37.42,48a6.23,6.23,0,0,1,1.74-.89l.68-.24-.25-.56a4.88,4.88,0,0,1-.43-1.91A4.53,4.53,0,0,1,40,41.73a7.6,7.6,0,0,1,3.21-2.45c.37-.17.75-.3,1.13-.47-.11-.15-.23-.29-.32-.44a2.15,2.15,0,0,1-.06-1.79A6.5,6.5,0,0,1,45,34.65c.3-.38.6-.75.89-1.13A1.17,1.17,0,0,0,45.77,32a3.74,3.74,0,0,1-.65-.77,2.09,2.09,0,0,1-.13-.35.42.42,0,0,1,.3-.5,2.92,2.92,0,0,1,1.41,0,9.59,9.59,0,0,1,2.65.87A10.67,10.67,0,0,1,52,33c.43.39.87.77,1.28,1.16a11.17,11.17,0,0,1,2.43,3.15,5.25,5.25,0,0,1,.54,2.3,3.72,3.72,0,0,1-.33,1.32c0,.08.11.07.17.07a5.73,5.73,0,0,1,1.79.33A3.51,3.51,0,0,1,60,43.17a4.23,4.23,0,0,1,.3,2.17,6.21,6.21,0,0,1-.22,1.14c0,.1,0,.15.13.18a7.07,7.07,0,0,1,2.5,1.28,4.92,4.92,0,0,1,1.49,2,5.23,5.23,0,0,1,.3,2.54,8.41,8.41,0,0,1-.6,2.21c-.05.12,0,.18.1.23a8,8,0,0,1,1.22.5,7.11,7.11,0,0,1,2.28,1.8,4.55,4.55,0,0,1,.84,1.69A5,5,0,0,1,68.3,61.28Z"/></svg>