<?xml version="1.0" encoding="utf-8"?>
<!-- Generator: Adobe Illustrator 25.4.1, SVG Export Plug-In . SVG Version: 6.00 Build 0)  -->
<svg version="1.1" id="Layer_1" xmlns="http://www.w3.org/2000/svg" xmlns:xlink="http://www.w3.org/1999/xlink" x="0px" y="0px"
	 viewBox="0 0 2000 2000" style="enable-background:new 0 0 2000 2000;" xml:space="preserve">
<style type="text/css">
	.st0{fill:#FFFFFF;}
</style>
<path class="st0" d="M1000,1.3C448.4,1.3,1.3,448.4,1.3,1000s447.1,998.7,998.7,998.7s998.7-447.1,998.7-998.7S1551.6,1.3,1000,1.3z
	 M1559,1230.5c-0.9,46.4-9.7,92.3-26,135.8c-28.9,75.8-88.7,135.6-164.5,164.5c-43.5,16.3-89.4,25.1-135.8,26.1
	c-59.7,3.3-78.7,3.3-230.5,3.3s-170.8-0.7-230.5-3.3c-46.4-1-92.3-9.8-135.8-26.1c-75.8-28.9-135.6-88.7-164.5-164.5
	c-16.8-42.7-26.3-87.9-28.2-133.7c-3.3-59.7-3.3-78.7-3.3-230.5s0.7-170.8,3.3-230.5c1-46.4,9.8-92.3,26.1-135.8
	c28.9-75.8,88.7-135.6,164.5-164.5c43.5-16.3,89.4-25.1,135.8-26.1c59.7-3.3,78.7-3.3,230.5-3.3l2.1-2.1
	c151.8,0,170.8,0.7,230.5,3.3c46.4,1,92.3,9.8,135.8,26.1c75.8,28.9,135.7,88.7,164.5,164.5c16.3,43.5,25.1,89.4,26,135.8
	c3.3,59.7,3.3,78.7,3.3,230.5S1561.6,1170.8,1559,1230.5z"/>
<path class="st0" d="M1455.2,774.2c-0.3-35.5-6.8-70.6-19.3-103.9c-18.9-48.6-57.4-87.1-106-106c-33.2-12.4-68.4-19-103.9-19.3
	c-59-3.3-76.8-3.3-226.1-3.3v0.9c-149.2,0-167.1,0.5-226.1,3.3c-35.5,0.3-70.6,6.8-103.9,19.3c-48,18.9-85.9,56.9-104.8,104.8
	c-12.4,33.2-19,68.4-19.3,103.9c-3.3,59-3.3,76.8-3.3,226.1s0.5,167.1,3.3,226.1c0.3,35.5,6.8,70.6,19.3,103.9
	c18.6,48.5,56.6,87,104.8,106.2c33.2,12.4,68.4,19,103.9,19.3c59,3.3,76.6,3.3,226.1,3.3s167.1-0.5,226.1-3.3
	c35.5-0.3,70.6-6.8,103.9-19.3c48.6-18.9,87.1-57.4,106-106c12.4-33.2,19-68.4,19.3-103.9c3.3-59,3.3-76.8,3.3-226
	S1458,833.2,1455.2,774.2z M1000,1287.2c-158.6,0-287.2-128.6-287.2-287.2S841.4,712.8,1000,712.8c158.6,0,287.2,128.6,287.2,287.2
	C1287.2,1158.6,1158.6,1287.2,1000,1287.2L1000,1287.2z M1298.4,768.8c-37.1,0-67.2-30.1-67.2-67.2c0-37.1,30.1-67.2,67.2-67.2
	c37.1,0,67.2,30.1,67.2,67.2c0,0,0,0,0,0C1365.6,738.7,1335.5,768.8,1298.4,768.8L1298.4,768.8z"/>
<path class="st0" d="M1186.3,1000c0,102.9-83.4,186.3-186.3,186.3c-102.9,0-186.3-83.4-186.3-186.3s83.4-186.3,186.3-186.3
	S1186.3,897.1,1186.3,1000z"/>
</svg>
