<?xml version="1.0" encoding="UTF-8" standalone="no"?>
<svg width="3060px" height="3960px" viewBox="0 0 3060 3960"
 xmlns="http://www.w3.org/2000/svg" xmlns:xlink="http://www.w3.org/1999/xlink" version="1.2" baseProfile="tiny">
<title>Saxofón tenor (2)</title>
<desc>Generated by MuseScore 3.6.2</desc>
<polyline class="StaffLines" fill="none" stroke="#000000" stroke-width="3.22" stroke-linejoin="bevel" points="212.598,386.22 2847.4,386.22"/>
<polyline class="StaffLines" fill="none" stroke="#000000" stroke-width="3.22" stroke-linejoin="bevel" points="212.598,411.024 2847.4,411.024"/>
<polyline class="StaffLines" fill="none" stroke="#000000" stroke-width="3.22" stroke-linejoin="bevel" points="212.598,435.827 2847.4,435.827"/>
<polyline class="StaffLines" fill="none" stroke="#000000" stroke-width="3.22" stroke-linejoin="bevel" points="212.598,460.63 2847.4,460.63"/>
<polyline class="StaffLines" fill="none" stroke="#000000" stroke-width="3.22" stroke-linejoin="bevel" points="212.598,485.433 2847.4,485.433"/>
<polyline class="StaffLines" fill="none" stroke="#000000" stroke-width="3.22" stroke-linejoin="bevel" points="212.598,1068.31 2847.4,1068.31"/>
<polyline class="StaffLines" fill="none" stroke="#000000" stroke-width="3.22" stroke-linejoin="bevel" points="212.598,1093.11 2847.4,1093.11"/>
<polyline class="StaffLines" fill="none" stroke="#000000" stroke-width="3.22" stroke-linejoin="bevel" points="212.598,1117.91 2847.4,1117.91"/>
<polyline class="StaffLines" fill="none" stroke="#000000" stroke-width="3.22" stroke-linejoin="bevel" points="212.598,1142.72 2847.4,1142.72"/>
<polyline class="StaffLines" fill="none" stroke="#000000" stroke-width="3.22" stroke-linejoin="bevel" points="212.598,1167.52 2847.4,1167.52"/>
<path class="MeasureNumber" d="M226.895,319.583 C228.729,319.583 230.265,319.901 231.505,320.536 C232.744,321.171 233.606,322.132 234.091,323.419 C234.575,324.705 234.614,326.302 234.208,328.208 C233.812,330.093 233.093,331.692 232.052,333.005 C231.01,334.317 229.742,335.309 228.247,335.981 C226.752,336.653 225.114,336.989 223.333,336.989 C216.468,336.989 214.046,332.25 216.067,322.77 C218.348,312.01 223.671,306.63 232.036,306.63 C234.182,306.63 235.921,306.921 237.255,307.505 L236.677,310.208 C235.979,309.906 235.187,309.679 234.302,309.528 C233.416,309.377 232.505,309.302 231.567,309.302 C228.401,309.302 225.828,310.299 223.848,312.294 C221.869,314.289 220.411,317.453 219.473,321.786 C220.484,321.099 221.648,320.559 222.966,320.169 C224.283,319.778 225.593,319.583 226.895,319.583 M223.927,334.411 C225.718,334.411 227.26,333.908 228.552,332.903 C229.843,331.898 230.708,330.375 231.145,328.333 C231.583,326.25 231.328,324.698 230.38,323.677 C229.432,322.656 227.916,322.145 225.833,322.145 C224.687,322.145 223.497,322.333 222.262,322.708 C221.028,323.083 219.916,323.651 218.927,324.411 C218.281,328.036 218.403,330.609 219.294,332.13 C220.184,333.651 221.729,334.411 223.927,334.411 M249.895,319.583 C251.729,319.583 253.265,319.901 254.505,320.536 C255.744,321.171 256.606,322.132 257.091,323.419 C257.575,324.705 257.614,326.302 257.208,328.208 C256.812,330.093 256.093,331.692 255.052,333.005 C254.01,334.317 252.742,335.309 251.247,335.981 C249.752,336.653 248.114,336.989 246.333,336.989 C239.468,336.989 237.046,332.25 239.067,322.77 C241.348,312.01 246.671,306.63 255.036,306.63 C257.182,306.63 258.921,306.921 260.255,307.505 L259.677,310.208 C258.979,309.906 258.187,309.679 257.302,309.528 C256.416,309.377 255.505,309.302 254.567,309.302 C251.401,309.302 248.828,310.299 246.848,312.294 C244.869,314.289 243.411,317.453 242.473,321.786 C243.484,321.099 244.648,320.559 245.966,320.169 C247.283,319.778 248.593,319.583 249.895,319.583 M246.927,334.411 C248.718,334.411 250.26,333.908 251.552,332.903 C252.843,331.898 253.708,330.375 254.145,328.333 C254.583,326.25 254.328,324.698 253.38,323.677 C252.432,322.656 250.916,322.145 248.833,322.145 C247.687,322.145 246.497,322.333 245.262,322.708 C244.028,323.083 242.916,323.651 241.927,324.411 C241.281,328.036 241.403,330.609 242.294,332.13 C243.184,333.651 244.729,334.411 246.927,334.411"/>
<path class="MeasureNumber" d="M231.77,1003.64 C233.739,1004.45 235.065,1005.45 235.747,1006.64 C236.429,1007.83 236.583,1009.3 236.208,1011.08 C235.864,1012.68 235.164,1014.09 234.106,1015.29 C233.049,1016.5 231.677,1017.44 229.989,1018.09 C228.302,1018.75 226.364,1019.08 224.177,1019.08 C221.854,1019.08 219.963,1018.77 218.505,1018.15 C217.046,1017.53 216.039,1016.63 215.481,1015.47 C214.924,1014.3 214.817,1012.9 215.161,1011.28 C215.536,1009.51 216.359,1007.96 217.63,1006.62 C218.901,1005.29 220.515,1004.25 222.473,1003.51 C220.984,1002.7 219.992,1001.72 219.497,1000.58 C219.002,999.43 218.927,998.05 219.27,996.435 C219.604,994.873 220.27,993.508 221.27,992.341 C222.27,991.175 223.562,990.279 225.145,989.654 C226.729,989.029 228.526,988.716 230.536,988.716 C232.494,988.716 234.119,989.016 235.411,989.615 C236.703,990.214 237.606,991.076 238.122,992.201 C238.637,993.326 238.734,994.659 238.411,996.201 C238.057,997.847 237.322,999.297 236.208,1000.55 C235.093,1001.81 233.614,1002.84 231.77,1003.64 M222.458,996.341 C222.218,997.435 222.247,998.354 222.544,999.099 C222.841,999.844 223.473,1000.5 224.442,1001.07 C225.411,1001.64 226.817,1002.15 228.661,1002.62 L229.286,1002.79 C231.13,1002.02 232.539,1001.14 233.512,1000.14 C234.486,999.138 235.13,997.904 235.442,996.435 C235.796,994.737 235.499,993.443 234.552,992.552 C233.604,991.662 232.072,991.216 229.958,991.216 C227.864,991.216 226.174,991.67 224.887,992.576 C223.601,993.482 222.791,994.737 222.458,996.341 M224.739,1016.58 C227.052,1016.58 228.924,1016.12 230.356,1015.2 C231.789,1014.28 232.687,1012.97 233.052,1011.26 C233.281,1010.17 233.239,1009.26 232.927,1008.52 C232.614,1007.79 231.976,1007.15 231.012,1006.62 C230.049,1006.09 228.661,1005.6 226.848,1005.14 C226.036,1004.92 225.322,1004.71 224.708,1004.51 C222.979,1005.11 221.562,1005.97 220.458,1007.09 C219.354,1008.22 218.651,1009.51 218.348,1010.98 C217.953,1012.8 218.294,1014.19 219.372,1015.15 C220.45,1016.1 222.239,1016.58 224.739,1016.58 M251.27,1003.31 C253.281,1003.73 254.697,1004.57 255.52,1005.83 C256.343,1007.09 256.546,1008.71 256.13,1010.7 C255.557,1013.37 254.208,1015.43 252.083,1016.89 C249.958,1018.35 247.156,1019.08 243.677,1019.08 C241.166,1019.08 238.869,1018.7 236.786,1017.94 L237.348,1015.29 C238.411,1015.67 239.531,1015.95 240.708,1016.15 C241.885,1016.34 243.036,1016.44 244.161,1016.44 C246.682,1016.44 248.684,1015.94 250.169,1014.95 C251.653,1013.96 252.598,1012.5 253.005,1010.56 C253.401,1008.72 253.096,1007.3 252.091,1006.32 C251.085,1005.33 249.333,1004.84 246.833,1004.84 L243.286,1004.84 L243.848,1002.17 L245.786,1002.17 C248.421,1002.17 250.518,1001.68 252.075,1000.7 C253.632,999.722 254.609,998.305 255.005,996.451 C255.359,994.784 255.083,993.518 254.177,992.654 C253.27,991.789 251.755,991.357 249.63,991.357 C247.38,991.357 245.14,991.722 242.911,992.451 L243.473,989.81 C244.473,989.466 245.591,989.198 246.825,989.005 C248.059,988.813 249.27,988.716 250.458,988.716 C253.479,988.716 255.656,989.37 256.989,990.677 C258.322,991.985 258.734,993.836 258.223,996.232 C257.859,997.951 257.067,999.427 255.848,1000.66 C254.63,1001.9 253.104,1002.78 251.27,1003.31"/>
<polyline class="BarLine" fill="none" stroke="#000000" stroke-width="3.97" stroke-linejoin="bevel" points="668.768,384.608 668.768,487.045"/>
<polyline class="BarLine" fill="none" stroke="#000000" stroke-width="3.97" stroke-linejoin="bevel" points="1052.69,384.608 1052.69,487.045"/>
<polyline class="BarLine" fill="none" stroke="#000000" stroke-width="3.97" stroke-linejoin="bevel" points="1333.24,384.608 1333.24,487.045"/>
<polyline class="BarLine" fill="none" stroke="#000000" stroke-width="3.97" stroke-linejoin="bevel" points="1590.05,384.608 1590.05,487.045"/>
<polyline class="BarLine" fill="none" stroke="#000000" stroke-width="3.97" stroke-linejoin="bevel" points="1820.57,384.608 1820.57,487.045"/>
<polyline class="BarLine" fill="none" stroke="#000000" stroke-width="3.97" stroke-linejoin="bevel" points="2237.23,384.608 2237.23,487.045"/>
<polyline class="BarLine" fill="none" stroke="#000000" stroke-width="3.97" stroke-linejoin="bevel" points="2461.49,384.608 2461.49,487.045"/>
<polyline class="BarLine" fill="none" stroke="#000000" stroke-width="3.97" stroke-linejoin="bevel" points="2845.42,384.608 2845.42,487.045"/>
<polyline class="BarLine" fill="none" stroke="#000000" stroke-width="3.97" stroke-linejoin="bevel" points="973.753,1066.69 973.753,1169.13"/>
<polyline class="BarLine" fill="none" stroke="#000000" stroke-width="3.97" stroke-linejoin="bevel" points="1482.39,1066.69 1482.39,1169.13"/>
<polyline class="BarLine" fill="none" stroke="#000000" stroke-width="3.97" stroke-linejoin="bevel" points="1994.65,1066.69 1994.65,1169.13"/>
<polyline class="BarLine" fill="none" stroke="#000000" stroke-width="3.97" stroke-linejoin="bevel" points="2008.53,1066.69 2008.53,1169.13"/>
<polyline class="BarLine" fill="none" stroke="#000000" stroke-width="3.97" stroke-linejoin="bevel" points="2823.1,1066.69 2823.1,1169.13"/>
<polyline class="BarLine" fill="none" stroke="#000000" stroke-width="12.40" stroke-linejoin="bevel" points="2841.2,1066.69 2841.2,1169.13"/>
<polyline class="LedgerLine" fill="none" stroke="#000000" stroke-width="3.97" stroke-linejoin="bevel" points="912.508,361.417 965.486,361.417"/>
<polyline class="LedgerLine" fill="none" stroke="#000000" stroke-width="3.97" stroke-linejoin="bevel" points="970.447,361.417 1023.42,361.417"/>
<polyline class="LedgerLine" fill="none" stroke="#000000" stroke-width="3.97" stroke-linejoin="bevel" points="2705.23,361.417 2758.21,361.417"/>
<polyline class="LedgerLine" fill="none" stroke="#000000" stroke-width="3.97" stroke-linejoin="bevel" points="2763.17,361.417 2816.15,361.417"/>
<polyline class="Stem" fill="none" stroke="#000000" stroke-width="2.98" stroke-linejoin="bevel" points="819.426,390.903 819.426,460.63"/>
<polyline class="Stem" fill="none" stroke="#000000" stroke-width="2.98" stroke-linejoin="bevel" points="871.672,378.502 871.672,454.429"/>
<polyline class="Stem" fill="none" stroke="#000000" stroke-width="2.98" stroke-linejoin="bevel" points="923.918,366.1 923.918,435.827"/>
<polyline class="Stem" fill="none" stroke="#000000" stroke-width="2.98" stroke-linejoin="bevel" points="981.856,353.699 981.856,429.626"/>
<polyline class="Stem" fill="none" stroke="#000000" stroke-width="2.98" stroke-linejoin="bevel" points="1088.41,378.502 1088.41,460.63"/>
<polyline class="Stem" fill="none" stroke="#000000" stroke-width="2.98" stroke-linejoin="bevel" points="1146.41,390.903 1146.41,473.031"/>
<polyline class="Stem" fill="none" stroke="#000000" stroke-width="2.98" stroke-linejoin="bevel" points="1204.41,403.305 1204.41,485.433"/>
<polyline class="Stem" fill="none" stroke="#000000" stroke-width="2.98" stroke-linejoin="bevel" points="1262.41,428.108 1262.41,504.035"/>
<polyline class="Stem" fill="none" stroke="#000000" stroke-width="2.98" stroke-linejoin="bevel" points="1928.56,440.51 1928.56,510.236"/>
<polyline class="Stem" fill="none" stroke="#000000" stroke-width="2.98" stroke-linejoin="bevel" points="1973.71,428.108 1973.71,504.035"/>
<polyline class="Stem" fill="none" stroke="#000000" stroke-width="2.98" stroke-linejoin="bevel" points="2049.01,403.305 2049.01,485.433"/>
<polyline class="Stem" fill="none" stroke="#000000" stroke-width="2.98" stroke-linejoin="bevel" points="2121.25,440.51 2121.25,510.236"/>
<polyline class="Stem" fill="none" stroke="#000000" stroke-width="2.98" stroke-linejoin="bevel" points="2166.4,428.108 2166.4,504.035"/>
<polyline class="Stem" fill="none" stroke="#000000" stroke-width="2.98" stroke-linejoin="bevel" points="2612.15,390.903 2612.15,460.63"/>
<polyline class="Stem" fill="none" stroke="#000000" stroke-width="2.98" stroke-linejoin="bevel" points="2664.4,378.502 2664.4,454.429"/>
<polyline class="Stem" fill="none" stroke="#000000" stroke-width="2.98" stroke-linejoin="bevel" points="2716.64,366.1 2716.64,435.827"/>
<polyline class="Stem" fill="none" stroke="#000000" stroke-width="2.98" stroke-linejoin="bevel" points="2774.58,353.699 2774.58,429.626"/>
<polyline class="Stem" fill="none" stroke="#000000" stroke-width="2.98" stroke-linejoin="bevel" points="477.093,1060.59 477.093,1142.72"/>
<polyline class="Stem" fill="none" stroke="#000000" stroke-width="2.98" stroke-linejoin="bevel" points="601.134,1072.99 601.134,1155.12"/>
<polyline class="Stem" fill="none" stroke="#000000" stroke-width="2.98" stroke-linejoin="bevel" points="725.175,1085.39 725.175,1167.52"/>
<polyline class="Stem" fill="none" stroke="#000000" stroke-width="2.98" stroke-linejoin="bevel" points="849.216,1110.19 849.216,1186.12"/>
<path class="Note" transform="matrix(0.992126,0,0,0.992126,817.938,386.22)" d="M7.79688,16.2031 C8.5,16.2969 9.09375,16.4063 9.79688,16.4063 C19.4063,16.4063 33.7031,3.29688 33.4063,-7.20313 C33.1094,-9.79688 33.2031,-13.2969 28,-15.4063 C26.5,-16.0938 24.9063,-16.4063 23.2031,-16.4063 C12.5,-16.4063 0.90625,-4.09375 0.09375,4.09375 C0.09375,4.70313 0,5.29688 0,5.90625 C0,10.9063 2.20313,14.9063 7.79688,16.2031"/>
<path class="Note" transform="matrix(0.992126,0,0,0.992126,870.184,373.819)" d="M7.79688,16.2031 C8.5,16.2969 9.09375,16.4063 9.79688,16.4063 C19.4063,16.4063 33.7031,3.29688 33.4063,-7.20313 C33.1094,-9.79688 33.2031,-13.2969 28,-15.4063 C26.5,-16.0938 24.9063,-16.4063 23.2031,-16.4063 C12.5,-16.4063 0.90625,-4.09375 0.09375,4.09375 C0.09375,4.70313 0,5.29688 0,5.90625 C0,10.9063 2.20313,14.9063 7.79688,16.2031"/>
<path class="Note" transform="matrix(0.992126,0,0,0.992126,922.43,361.417)" d="M7.79688,16.2031 C8.5,16.2969 9.09375,16.4063 9.79688,16.4063 C19.4063,16.4063 33.7031,3.29688 33.4063,-7.20313 C33.1094,-9.79688 33.2031,-13.2969 28,-15.4063 C26.5,-16.0938 24.9063,-16.4063 23.2031,-16.4063 C12.5,-16.4063 0.90625,-4.09375 0.09375,4.09375 C0.09375,4.70313 0,5.29688 0,5.90625 C0,10.9063 2.20313,14.9063 7.79688,16.2031"/>
<path class="Note" transform="matrix(0.992126,0,0,0.992126,980.368,349.016)" d="M7.79688,16.2031 C8.5,16.2969 9.09375,16.4063 9.79688,16.4063 C19.4063,16.4063 33.7031,3.29688 33.4063,-7.20313 C33.1094,-9.79688 33.2031,-13.2969 28,-15.4063 C26.5,-16.0938 24.9063,-16.4063 23.2031,-16.4063 C12.5,-16.4063 0.90625,-4.09375 0.09375,4.09375 C0.09375,4.70313 0,5.29688 0,5.90625 C0,10.9063 2.20313,14.9063 7.79688,16.2031"/>
<path class="Note" transform="matrix(0.992126,0,0,0.992126,1086.92,373.819)" d="M7.79688,16.2031 C8.5,16.2969 9.09375,16.4063 9.79688,16.4063 C19.4063,16.4063 33.7031,3.29688 33.4063,-7.20313 C33.1094,-9.79688 33.2031,-13.2969 28,-15.4063 C26.5,-16.0938 24.9063,-16.4063 23.2031,-16.4063 C12.5,-16.4063 0.90625,-4.09375 0.09375,4.09375 C0.09375,4.70313 0,5.29688 0,5.90625 C0,10.9063 2.20313,14.9063 7.79688,16.2031"/>
<path class="Note" transform="matrix(0.992126,0,0,0.992126,1144.92,386.22)" d="M7.79688,16.2031 C8.5,16.2969 9.09375,16.4063 9.79688,16.4063 C19.4063,16.4063 33.7031,3.29688 33.4063,-7.20313 C33.1094,-9.79688 33.2031,-13.2969 28,-15.4063 C26.5,-16.0938 24.9063,-16.4063 23.2031,-16.4063 C12.5,-16.4063 0.90625,-4.09375 0.09375,4.09375 C0.09375,4.70313 0,5.29688 0,5.90625 C0,10.9063 2.20313,14.9063 7.79688,16.2031"/>
<path class="Note" transform="matrix(0.992126,0,0,0.992126,1202.92,398.622)" d="M7.79688,16.2031 C8.5,16.2969 9.09375,16.4063 9.79688,16.4063 C19.4063,16.4063 33.7031,3.29688 33.4063,-7.20313 C33.1094,-9.79688 33.2031,-13.2969 28,-15.4063 C26.5,-16.0938 24.9063,-16.4063 23.2031,-16.4063 C12.5,-16.4063 0.90625,-4.09375 0.09375,4.09375 C0.09375,4.70313 0,5.29688 0,5.90625 C0,10.9063 2.20313,14.9063 7.79688,16.2031"/>
<path class="Note" transform="matrix(0.992126,0,0,0.992126,1260.92,423.425)" d="M7.79688,16.2031 C8.5,16.2969 9.09375,16.4063 9.79688,16.4063 C19.4063,16.4063 33.7031,3.29688 33.4063,-7.20313 C33.1094,-9.79688 33.2031,-13.2969 28,-15.4063 C26.5,-16.0938 24.9063,-16.4063 23.2031,-16.4063 C12.5,-16.4063 0.90625,-4.09375 0.09375,4.09375 C0.09375,4.70313 0,5.29688 0,5.90625 C0,10.9063 2.20313,14.9063 7.79688,16.2031"/>
<path class="Note" transform="matrix(0.992126,0,0,0.992126,1927.07,435.827)" d="M7.79688,16.2031 C8.5,16.2969 9.09375,16.4063 9.79688,16.4063 C19.4063,16.4063 33.7031,3.29688 33.4063,-7.20313 C33.1094,-9.79688 33.2031,-13.2969 28,-15.4063 C26.5,-16.0938 24.9063,-16.4063 23.2031,-16.4063 C12.5,-16.4063 0.90625,-4.09375 0.09375,4.09375 C0.09375,4.70313 0,5.29688 0,5.90625 C0,10.9063 2.20313,14.9063 7.79688,16.2031"/>
<path class="Note" transform="matrix(0.992126,0,0,0.992126,1972.22,423.425)" d="M7.79688,16.2031 C8.5,16.2969 9.09375,16.4063 9.79688,16.4063 C19.4063,16.4063 33.7031,3.29688 33.4063,-7.20313 C33.1094,-9.79688 33.2031,-13.2969 28,-15.4063 C26.5,-16.0938 24.9063,-16.4063 23.2031,-16.4063 C12.5,-16.4063 0.90625,-4.09375 0.09375,4.09375 C0.09375,4.70313 0,5.29688 0,5.90625 C0,10.9063 2.20313,14.9063 7.79688,16.2031"/>
<path class="Note" transform="matrix(0.992126,0,0,0.992126,2047.52,398.622)" d="M7.79688,16.2031 C8.5,16.2969 9.09375,16.4063 9.79688,16.4063 C19.4063,16.4063 33.7031,3.29688 33.4063,-7.20313 C33.1094,-9.79688 33.2031,-13.2969 28,-15.4063 C26.5,-16.0938 24.9063,-16.4063 23.2031,-16.4063 C12.5,-16.4063 0.90625,-4.09375 0.09375,4.09375 C0.09375,4.70313 0,5.29688 0,5.90625 C0,10.9063 2.20313,14.9063 7.79688,16.2031"/>
<path class="Note" transform="matrix(0.992126,0,0,0.992126,2119.76,435.827)" d="M7.79688,16.2031 C8.5,16.2969 9.09375,16.4063 9.79688,16.4063 C19.4063,16.4063 33.7031,3.29688 33.4063,-7.20313 C33.1094,-9.79688 33.2031,-13.2969 28,-15.4063 C26.5,-16.0938 24.9063,-16.4063 23.2031,-16.4063 C12.5,-16.4063 0.90625,-4.09375 0.09375,4.09375 C0.09375,4.70313 0,5.29688 0,5.90625 C0,10.9063 2.20313,14.9063 7.79688,16.2031"/>
<path class="Note" transform="matrix(0.992126,0,0,0.992126,2164.91,423.425)" d="M7.79688,16.2031 C8.5,16.2969 9.09375,16.4063 9.79688,16.4063 C19.4063,16.4063 33.7031,3.29688 33.4063,-7.20313 C33.1094,-9.79688 33.2031,-13.2969 28,-15.4063 C26.5,-16.0938 24.9063,-16.4063 23.2031,-16.4063 C12.5,-16.4063 0.90625,-4.09375 0.09375,4.09375 C0.09375,4.70313 0,5.29688 0,5.90625 C0,10.9063 2.20313,14.9063 7.79688,16.2031"/>
<path class="Note" transform="matrix(0.992126,0,0,0.992126,2610.66,386.22)" d="M7.79688,16.2031 C8.5,16.2969 9.09375,16.4063 9.79688,16.4063 C19.4063,16.4063 33.7031,3.29688 33.4063,-7.20313 C33.1094,-9.79688 33.2031,-13.2969 28,-15.4063 C26.5,-16.0938 24.9063,-16.4063 23.2031,-16.4063 C12.5,-16.4063 0.90625,-4.09375 0.09375,4.09375 C0.09375,4.70313 0,5.29688 0,5.90625 C0,10.9063 2.20313,14.9063 7.79688,16.2031"/>
<path class="Note" transform="matrix(0.992126,0,0,0.992126,2662.91,373.819)" d="M7.79688,16.2031 C8.5,16.2969 9.09375,16.4063 9.79688,16.4063 C19.4063,16.4063 33.7031,3.29688 33.4063,-7.20313 C33.1094,-9.79688 33.2031,-13.2969 28,-15.4063 C26.5,-16.0938 24.9063,-16.4063 23.2031,-16.4063 C12.5,-16.4063 0.90625,-4.09375 0.09375,4.09375 C0.09375,4.70313 0,5.29688 0,5.90625 C0,10.9063 2.20313,14.9063 7.79688,16.2031"/>
<path class="Note" transform="matrix(0.992126,0,0,0.992126,2715.16,361.417)" d="M7.79688,16.2031 C8.5,16.2969 9.09375,16.4063 9.79688,16.4063 C19.4063,16.4063 33.7031,3.29688 33.4063,-7.20313 C33.1094,-9.79688 33.2031,-13.2969 28,-15.4063 C26.5,-16.0938 24.9063,-16.4063 23.2031,-16.4063 C12.5,-16.4063 0.90625,-4.09375 0.09375,4.09375 C0.09375,4.70313 0,5.29688 0,5.90625 C0,10.9063 2.20313,14.9063 7.79688,16.2031"/>
<path class="Note" transform="matrix(0.992126,0,0,0.992126,2773.09,349.016)" d="M7.79688,16.2031 C8.5,16.2969 9.09375,16.4063 9.79688,16.4063 C19.4063,16.4063 33.7031,3.29688 33.4063,-7.20313 C33.1094,-9.79688 33.2031,-13.2969 28,-15.4063 C26.5,-16.0938 24.9063,-16.4063 23.2031,-16.4063 C12.5,-16.4063 0.90625,-4.09375 0.09375,4.09375 C0.09375,4.70313 0,5.29688 0,5.90625 C0,10.9063 2.20313,14.9063 7.79688,16.2031"/>
<path class="Note" transform="matrix(0.992126,0,0,0.992126,475.605,1055.91)" d="M7.79688,16.2031 C8.5,16.2969 9.09375,16.4063 9.79688,16.4063 C19.4063,16.4063 33.7031,3.29688 33.4063,-7.20313 C33.1094,-9.79688 33.2031,-13.2969 28,-15.4063 C26.5,-16.0938 24.9063,-16.4063 23.2031,-16.4063 C12.5,-16.4063 0.90625,-4.09375 0.09375,4.09375 C0.09375,4.70313 0,5.29688 0,5.90625 C0,10.9063 2.20313,14.9063 7.79688,16.2031"/>
<path class="Note" transform="matrix(0.992126,0,0,0.992126,599.646,1068.31)" d="M7.79688,16.2031 C8.5,16.2969 9.09375,16.4063 9.79688,16.4063 C19.4063,16.4063 33.7031,3.29688 33.4063,-7.20313 C33.1094,-9.79688 33.2031,-13.2969 28,-15.4063 C26.5,-16.0938 24.9063,-16.4063 23.2031,-16.4063 C12.5,-16.4063 0.90625,-4.09375 0.09375,4.09375 C0.09375,4.70313 0,5.29688 0,5.90625 C0,10.9063 2.20313,14.9063 7.79688,16.2031"/>
<path class="Note" transform="matrix(0.992126,0,0,0.992126,723.687,1080.71)" d="M7.79688,16.2031 C8.5,16.2969 9.09375,16.4063 9.79688,16.4063 C19.4063,16.4063 33.7031,3.29688 33.4063,-7.20313 C33.1094,-9.79688 33.2031,-13.2969 28,-15.4063 C26.5,-16.0938 24.9063,-16.4063 23.2031,-16.4063 C12.5,-16.4063 0.90625,-4.09375 0.09375,4.09375 C0.09375,4.70313 0,5.29688 0,5.90625 C0,10.9063 2.20313,14.9063 7.79688,16.2031"/>
<path class="Note" transform="matrix(0.992126,0,0,0.992126,847.727,1105.51)" d="M7.79688,16.2031 C8.5,16.2969 9.09375,16.4063 9.79688,16.4063 C19.4063,16.4063 33.7031,3.29688 33.4063,-7.20313 C33.1094,-9.79688 33.2031,-13.2969 28,-15.4063 C26.5,-16.0938 24.9063,-16.4063 23.2031,-16.4063 C12.5,-16.4063 0.90625,-4.09375 0.09375,4.09375 C0.09375,4.70313 0,5.29688 0,5.90625 C0,10.9063 2.20313,14.9063 7.79688,16.2031"/>
<path class="Clef" transform="matrix(0.992126,0,0,0.992126,232.441,460.63)" d="M23.7969,55.9063 C24.2969,55.9063 24.7969,55.7969 25.4063,55.6094 C26.6094,55.2031 27.6094,54.6094 28.4063,53.7031 C36.7031,45 40.1094,34.5 40.4063,22.7969 C40.4063,21.9063 40.5,20.4063 40.5,20.4063 C40.5,20.4063 41.9063,19.5938 42.5,19.4063 C45.7969,17.7969 49,16 51.9063,13.7031 C59.5,7.59375 63.9063,-0.703125 65.9063,-9.90625 C66.2969,-11.4063 66.4063,-12.9063 66.4063,-14.2969 C66.4063,-20.5938 62.9063,-25.2031 54.9063,-26.7031 C52.9063,-27.1094 50.9063,-27.2969 48.9063,-27.2969 C43.9063,-27.2969 39.1094,-26 34.6094,-23.2969 C34,-23 33.4063,-22.5938 33.4063,-22.5938 L30.7969,-32.2969 C30.7031,-32.7969 30.7031,-33.7031 30.7031,-33.7031 C30.7031,-33.7031 40.9063,-51.7969 42.2969,-61.1094 C42.7969,-63.7969 43,-66.5 43,-69.2031 C43,-71.2969 42.9063,-73.2969 42.6094,-75.2969 C41.6094,-82.5 38.9063,-89.3125 37.1094,-96.3125 C36.6094,-98.4063 35.9063,-100.906 33.5,-100.906 C31.7031,-100.906 30.4063,-99.2031 29.2969,-97.7031 C24.2031,-90.6094 21.7031,-82.5 21.2031,-73.7969 C21.0938,-72.4063 21.0938,-71 21.0938,-69.6094 C21.0938,-61.5 22.4063,-53.4063 23.5,-45.4063 C23.5,-44.7969 23.7031,-44.2031 23.7969,-43.7031 C19.2969,-37.2969 14.2969,-31.2969 10,-24.7031 C7,-20 3.70313,-15.2969 1.59375,-10 C0.5,-7.40625 0,-4.40625 0,-1.40625 C0,4.79688 2.09375,11.0938 5.70313,14.5938 C7.79688,16.5938 11.0938,18.7969 14.4063,20 C19,21.7031 23.5938,22.7969 28.5,22.7969 C29.9063,22.7969 31.4063,22.7031 32.9063,22.5 L34.1094,22.2969 C34.1094,22.2969 34.2031,23.2031 34.1094,23.7031 C33,29.7031 31.5,35.6094 27.9063,40.6094 C26,43.2031 24.2031,46.1094 20.4063,46.4063 C19.2969,46.5 18.7969,47.2031 18.7969,48.1094 C18.7969,48.5 18.9063,48.7969 19,49.2031 C19.5938,50.7031 20.2969,52.2969 21,53.7969 C21.5938,55.2031 22.5938,55.9063 23.7969,55.9063 M27.7969,-49.7969 C27,-54.6094 26.5,-59.2969 26.5,-64 C26.5,-72.7031 28.2969,-81.2031 33.4063,-89.3125 C34.6094,-85.6094 35.2031,-81.9063 35.2031,-78.1094 C35.2031,-76.2031 35,-74.2031 34.7031,-72.2031 C33.4063,-64.4063 31.6094,-56.7969 27.7969,-49.7969 M17.5,9.40625 C16.0938,9.29688 14.9063,8.79688 13.5938,8.40625 C11,7.5 8.79688,6.5 8.09375,4.79688 C7.79688,4 7.70313,3.09375 7.70313,2.20313 C7.70313,1.09375 7.90625,-0.09375 8.09375,-1.29688 C8.20313,-1.90625 8.79688,-3.59375 9,-3.90625 C12.9063,-10.7969 17.5938,-17.0938 22.5,-23.4063 L26.7031,-28.9063 L27.4063,-26.7031 C28.2031,-24.2031 28.9063,-20.2031 28.9063,-20.2031 C28.9063,-20.2031 26.1094,-16.5938 24.2969,-14.7969 C19.2969,-9.90625 16.9063,-3.79688 16.9063,2.90625 C16.9063,4.59375 17.0938,6.29688 17.4063,8.09375 C17.5,8.5 17.5,8.79688 17.5,9.40625 M39.1094,6.29688 C38.2969,-0.203125 36.7969,-5.40625 35.4063,-11.7031 C35.2969,-12.4063 35.2969,-12.9063 35.6094,-13.2969 C38.2031,-13.7969 40.7031,-14 43.2969,-14 C45.7969,-14 48.2031,-13.7969 50.7031,-13.2969 C53.7031,-12.7031 56.7031,-12.2031 59,-9.79688 C59.2031,-9.59375 59.4063,-9.40625 59.6094,-9.29688 C55.6094,-1.29688 49.7031,4.70313 41.2969,8.40625 L39.5,9.09375 L39.1094,6.29688 M28.5,11.0938 C25,11.0938 21.5938,10.2031 21.5938,10.2031 C21.5938,10.2031 21.2969,8.79688 21.2969,6.79688 C21.2969,5.5 21.4063,3.90625 21.7969,2.29688 C22.7969,-2.5 26.2031,-5.90625 29.7969,-9.09375 C30.1094,-9.40625 30.4063,-9.59375 30.6094,-9.59375 C31,-9.59375 31.1094,-9.20313 31.2031,-8.5 C32.1094,-2.59375 33.6094,3.20313 34,9.09375 C34.1094,9.70313 34,10.5938 34,10.5938 C34,10.5938 31.4063,11.2969 28.5,11.0938"/>
<path class="Clef" transform="matrix(0.992126,0,0,0.992126,232.441,1142.72)" d="M23.7969,55.9063 C24.2969,55.9063 24.7969,55.7969 25.4063,55.6094 C26.6094,55.2031 27.6094,54.6094 28.4063,53.7031 C36.7031,45 40.1094,34.5 40.4063,22.7969 C40.4063,21.9063 40.5,20.4063 40.5,20.4063 C40.5,20.4063 41.9063,19.5938 42.5,19.4063 C45.7969,17.7969 49,16 51.9063,13.7031 C59.5,7.59375 63.9063,-0.703125 65.9063,-9.90625 C66.2969,-11.4063 66.4063,-12.9063 66.4063,-14.2969 C66.4063,-20.5938 62.9063,-25.2031 54.9063,-26.7031 C52.9063,-27.1094 50.9063,-27.2969 48.9063,-27.2969 C43.9063,-27.2969 39.1094,-26 34.6094,-23.2969 C34,-23 33.4063,-22.5938 33.4063,-22.5938 L30.7969,-32.2969 C30.7031,-32.7969 30.7031,-33.7031 30.7031,-33.7031 C30.7031,-33.7031 40.9063,-51.7969 42.2969,-61.1094 C42.7969,-63.7969 43,-66.5 43,-69.2031 C43,-71.2969 42.9063,-73.2969 42.6094,-75.2969 C41.6094,-82.5 38.9063,-89.3125 37.1094,-96.3125 C36.6094,-98.4063 35.9063,-100.906 33.5,-100.906 C31.7031,-100.906 30.4063,-99.2031 29.2969,-97.7031 C24.2031,-90.6094 21.7031,-82.5 21.2031,-73.7969 C21.0938,-72.4063 21.0938,-71 21.0938,-69.6094 C21.0938,-61.5 22.4063,-53.4063 23.5,-45.4063 C23.5,-44.7969 23.7031,-44.2031 23.7969,-43.7031 C19.2969,-37.2969 14.2969,-31.2969 10,-24.7031 C7,-20 3.70313,-15.2969 1.59375,-10 C0.5,-7.40625 0,-4.40625 0,-1.40625 C0,4.79688 2.09375,11.0938 5.70313,14.5938 C7.79688,16.5938 11.0938,18.7969 14.4063,20 C19,21.7031 23.5938,22.7969 28.5,22.7969 C29.9063,22.7969 31.4063,22.7031 32.9063,22.5 L34.1094,22.2969 C34.1094,22.2969 34.2031,23.2031 34.1094,23.7031 C33,29.7031 31.5,35.6094 27.9063,40.6094 C26,43.2031 24.2031,46.1094 20.4063,46.4063 C19.2969,46.5 18.7969,47.2031 18.7969,48.1094 C18.7969,48.5 18.9063,48.7969 19,49.2031 C19.5938,50.7031 20.2969,52.2969 21,53.7969 C21.5938,55.2031 22.5938,55.9063 23.7969,55.9063 M27.7969,-49.7969 C27,-54.6094 26.5,-59.2969 26.5,-64 C26.5,-72.7031 28.2969,-81.2031 33.4063,-89.3125 C34.6094,-85.6094 35.2031,-81.9063 35.2031,-78.1094 C35.2031,-76.2031 35,-74.2031 34.7031,-72.2031 C33.4063,-64.4063 31.6094,-56.7969 27.7969,-49.7969 M17.5,9.40625 C16.0938,9.29688 14.9063,8.79688 13.5938,8.40625 C11,7.5 8.79688,6.5 8.09375,4.79688 C7.79688,4 7.70313,3.09375 7.70313,2.20313 C7.70313,1.09375 7.90625,-0.09375 8.09375,-1.29688 C8.20313,-1.90625 8.79688,-3.59375 9,-3.90625 C12.9063,-10.7969 17.5938,-17.0938 22.5,-23.4063 L26.7031,-28.9063 L27.4063,-26.7031 C28.2031,-24.2031 28.9063,-20.2031 28.9063,-20.2031 C28.9063,-20.2031 26.1094,-16.5938 24.2969,-14.7969 C19.2969,-9.90625 16.9063,-3.79688 16.9063,2.90625 C16.9063,4.59375 17.0938,6.29688 17.4063,8.09375 C17.5,8.5 17.5,8.79688 17.5,9.40625 M39.1094,6.29688 C38.2969,-0.203125 36.7969,-5.40625 35.4063,-11.7031 C35.2969,-12.4063 35.2969,-12.9063 35.6094,-13.2969 C38.2031,-13.7969 40.7031,-14 43.2969,-14 C45.7969,-14 48.2031,-13.7969 50.7031,-13.2969 C53.7031,-12.7031 56.7031,-12.2031 59,-9.79688 C59.2031,-9.59375 59.4063,-9.40625 59.6094,-9.29688 C55.6094,-1.29688 49.7031,4.70313 41.2969,8.40625 L39.5,9.09375 L39.1094,6.29688 M28.5,11.0938 C25,11.0938 21.5938,10.2031 21.5938,10.2031 C21.5938,10.2031 21.2969,8.79688 21.2969,6.79688 C21.2969,5.5 21.4063,3.90625 21.7969,2.29688 C22.7969,-2.5 26.2031,-5.90625 29.7969,-9.09375 C30.1094,-9.40625 30.4063,-9.59375 30.6094,-9.59375 C31,-9.59375 31.1094,-9.20313 31.2031,-8.5 C32.1094,-2.59375 33.6094,3.20313 34,9.09375 C34.1094,9.70313 34,10.5938 34,10.5938 C34,10.5938 31.4063,11.2969 28.5,11.0938"/>
<path class="KeySig" transform="matrix(0.992126,0,0,0.992126,374.912,373.819)" d="M14,38.4063 C14.7969,38.2969 15,37.2031 15.2031,36.5 C15.5938,35.2031 15.7031,33.9063 15.7031,32.7031 C15.7031,31.6094 15.5938,30.6094 15.5938,29.5 C15.5938,28.7969 15.5938,27.9063 15.7031,27.2031 C15.9063,25.2031 16.0938,23.2031 16.2031,21.2031 L20.5938,20.2969 C20.7969,24.5 21.5938,28.6094 23,32.6094 C23.0938,33.1094 23.5,33.7031 24.0938,33.7031 C24.7031,33.7969 24.9063,33.1094 25.2031,32.6094 C25.9063,31.5 26,30.2031 26,29 C26.1094,28.1094 26.1094,27.2969 26.1094,26.5 C26.1094,24.0938 25.9063,21.5938 25.7969,19.2031 L31.6094,18 C37.1094,16.9063 37.7969,16.0938 38.2031,10.7969 C38.2031,9.5 38.2969,8.59375 38.2031,7.59375 C38.1094,6.29688 37.6094,5.40625 36.5,5.40625 L36.2969,5.40625 C35.9063,5.40625 35.6094,5.40625 35.2031,5.5 C32.9063,6.09375 30.4063,6.59375 28,7 L26.2969,7.29688 C26.4063,5.90625 26.4063,4.40625 26.5,2.90625 C26.6094,-0.296875 26.7031,-3.5 26.7031,-6.70313 C29.5,-7.40625 32.2031,-8.20313 34.9063,-9.09375 C36.4063,-9.59375 37.7031,-10.4063 38.1094,-12 C38.5,-13.7969 39,-15.5 39,-17.2969 C39,-18.2969 38.9063,-19.4063 38.5,-20.4063 C38.1094,-21.4063 37.7969,-21.9063 37.2031,-21.9063 L37,-21.9063 C36.7031,-21.9063 36.2969,-21.9063 35.9063,-21.7031 C32.7969,-20.4063 29.7031,-19.4063 26.5,-18.5 L26.2031,-23.9063 C26,-28.2031 25.7969,-32.6094 24.9063,-36.9063 C24.7031,-37.4063 24.7969,-38.2969 24.2031,-38.2969 L24.0938,-38.2969 L23.7969,-38.2969 C23,-38.1094 22,-37.7969 21.9063,-36.7031 L21.9063,-34.7969 C21.9063,-28.9063 22.0938,-23.0938 22.2031,-17.2969 L16.9063,-16.0938 C16.9063,-19.0938 16.7969,-22.0938 16.5938,-25.0938 C16.5,-26.6094 16.5,-28 15.7031,-29.5 C13.5,-28.4063 13.7969,-26.5 13.7969,-24.9063 C13.5938,-21.7031 13.5,-18.5938 13.4063,-15.5 C10.5938,-14.9063 7.79688,-14.5 5,-14 C0.90625,-13.2969 0.296875,-12.7031 0.296875,-8.20313 C0,-7.09375 0.796875,-5.79688 0.703125,-4.59375 C0.5,-2.70313 1,-2.09375 2.29688,-2 C2.59375,-2 2.90625,-2.09375 3.29688,-2.20313 C6.59375,-2.70313 9.79688,-3.20313 13,-3.79688 L12.7031,5.20313 C12.5938,6.90625 12.4063,8.5 12.2031,10.0938 C8.5,10.7969 4.79688,11.5 1.09375,12.4063 C-1,12.9063 -2.20313,13.7031 -2.20313,16.0938 C-2.20313,18.5 -1.29688,20.7031 -1.20313,23 C-1.20313,24.0938 -0.90625,24.5938 -0.09375,24.7031 C0.09375,24.7031 0.40625,24.5938 0.796875,24.5 C4.40625,23.7031 8,23 11.5938,22.2031 C11.5,23.5 11.5,24.7969 11.5,26.2031 C11.5,29.7031 11.9063,33.1094 13.0938,36.5 C13.2969,37.2031 13.0938,38.4063 14,38.4063 M16.7031,9.20313 C16.7969,7 16.7969,4.79688 16.9063,2.59375 C17,0.203125 17,-2.09375 17,-4.5 C18.7031,-4.79688 20.2969,-5.09375 21.9063,-5.5 C21.4063,-0.90625 21.2031,3.70313 20.9063,8.29688 L16.7031,9.20313 "/>
<path class="KeySig" transform="matrix(0.992126,0,0,0.992126,350.109,423.425)" d="M14,38.4063 C14.7969,38.2969 15,37.2031 15.2031,36.5 C15.5938,35.2031 15.7031,33.9063 15.7031,32.7031 C15.7031,31.6094 15.5938,30.6094 15.5938,29.5 C15.5938,28.7969 15.5938,27.9063 15.7031,27.2031 C15.9063,25.2031 16.0938,23.2031 16.2031,21.2031 L20.5938,20.2969 C20.7969,24.5 21.5938,28.6094 23,32.6094 C23.0938,33.1094 23.5,33.7031 24.0938,33.7031 C24.7031,33.7969 24.9063,33.1094 25.2031,32.6094 C25.9063,31.5 26,30.2031 26,29 C26.1094,28.1094 26.1094,27.2969 26.1094,26.5 C26.1094,24.0938 25.9063,21.5938 25.7969,19.2031 L31.6094,18 C37.1094,16.9063 37.7969,16.0938 38.2031,10.7969 C38.2031,9.5 38.2969,8.59375 38.2031,7.59375 C38.1094,6.29688 37.6094,5.40625 36.5,5.40625 L36.2969,5.40625 C35.9063,5.40625 35.6094,5.40625 35.2031,5.5 C32.9063,6.09375 30.4063,6.59375 28,7 L26.2969,7.29688 C26.4063,5.90625 26.4063,4.40625 26.5,2.90625 C26.6094,-0.296875 26.7031,-3.5 26.7031,-6.70313 C29.5,-7.40625 32.2031,-8.20313 34.9063,-9.09375 C36.4063,-9.59375 37.7031,-10.4063 38.1094,-12 C38.5,-13.7969 39,-15.5 39,-17.2969 C39,-18.2969 38.9063,-19.4063 38.5,-20.4063 C38.1094,-21.4063 37.7969,-21.9063 37.2031,-21.9063 L37,-21.9063 C36.7031,-21.9063 36.2969,-21.9063 35.9063,-21.7031 C32.7969,-20.4063 29.7031,-19.4063 26.5,-18.5 L26.2031,-23.9063 C26,-28.2031 25.7969,-32.6094 24.9063,-36.9063 C24.7031,-37.4063 24.7969,-38.2969 24.2031,-38.2969 L24.0938,-38.2969 L23.7969,-38.2969 C23,-38.1094 22,-37.7969 21.9063,-36.7031 L21.9063,-34.7969 C21.9063,-28.9063 22.0938,-23.0938 22.2031,-17.2969 L16.9063,-16.0938 C16.9063,-19.0938 16.7969,-22.0938 16.5938,-25.0938 C16.5,-26.6094 16.5,-28 15.7031,-29.5 C13.5,-28.4063 13.7969,-26.5 13.7969,-24.9063 C13.5938,-21.7031 13.5,-18.5938 13.4063,-15.5 C10.5938,-14.9063 7.79688,-14.5 5,-14 C0.90625,-13.2969 0.296875,-12.7031 0.296875,-8.20313 C0,-7.09375 0.796875,-5.79688 0.703125,-4.59375 C0.5,-2.70313 1,-2.09375 2.29688,-2 C2.59375,-2 2.90625,-2.09375 3.29688,-2.20313 C6.59375,-2.70313 9.79688,-3.20313 13,-3.79688 L12.7031,5.20313 C12.5938,6.90625 12.4063,8.5 12.2031,10.0938 C8.5,10.7969 4.79688,11.5 1.09375,12.4063 C-1,12.9063 -2.20313,13.7031 -2.20313,16.0938 C-2.20313,18.5 -1.29688,20.7031 -1.20313,23 C-1.20313,24.0938 -0.90625,24.5938 -0.09375,24.7031 C0.09375,24.7031 0.40625,24.5938 0.796875,24.5 C4.40625,23.7031 8,23 11.5938,22.2031 C11.5,23.5 11.5,24.7969 11.5,26.2031 C11.5,29.7031 11.9063,33.1094 13.0938,36.5 C13.2969,37.2031 13.0938,38.4063 14,38.4063 M16.7031,9.20313 C16.7969,7 16.7969,4.79688 16.9063,2.59375 C17,0.203125 17,-2.09375 17,-4.5 C18.7031,-4.79688 20.2969,-5.09375 21.9063,-5.5 C21.4063,-0.90625 21.2031,3.70313 20.9063,8.29688 L16.7031,9.20313 "/>
<path class="KeySig" transform="matrix(0.992126,0,0,0.992126,325.305,386.22)" d="M14,38.4063 C14.7969,38.2969 15,37.2031 15.2031,36.5 C15.5938,35.2031 15.7031,33.9063 15.7031,32.7031 C15.7031,31.6094 15.5938,30.6094 15.5938,29.5 C15.5938,28.7969 15.5938,27.9063 15.7031,27.2031 C15.9063,25.2031 16.0938,23.2031 16.2031,21.2031 L20.5938,20.2969 C20.7969,24.5 21.5938,28.6094 23,32.6094 C23.0938,33.1094 23.5,33.7031 24.0938,33.7031 C24.7031,33.7969 24.9063,33.1094 25.2031,32.6094 C25.9063,31.5 26,30.2031 26,29 C26.1094,28.1094 26.1094,27.2969 26.1094,26.5 C26.1094,24.0938 25.9063,21.5938 25.7969,19.2031 L31.6094,18 C37.1094,16.9063 37.7969,16.0938 38.2031,10.7969 C38.2031,9.5 38.2969,8.59375 38.2031,7.59375 C38.1094,6.29688 37.6094,5.40625 36.5,5.40625 L36.2969,5.40625 C35.9063,5.40625 35.6094,5.40625 35.2031,5.5 C32.9063,6.09375 30.4063,6.59375 28,7 L26.2969,7.29688 C26.4063,5.90625 26.4063,4.40625 26.5,2.90625 C26.6094,-0.296875 26.7031,-3.5 26.7031,-6.70313 C29.5,-7.40625 32.2031,-8.20313 34.9063,-9.09375 C36.4063,-9.59375 37.7031,-10.4063 38.1094,-12 C38.5,-13.7969 39,-15.5 39,-17.2969 C39,-18.2969 38.9063,-19.4063 38.5,-20.4063 C38.1094,-21.4063 37.7969,-21.9063 37.2031,-21.9063 L37,-21.9063 C36.7031,-21.9063 36.2969,-21.9063 35.9063,-21.7031 C32.7969,-20.4063 29.7031,-19.4063 26.5,-18.5 L26.2031,-23.9063 C26,-28.2031 25.7969,-32.6094 24.9063,-36.9063 C24.7031,-37.4063 24.7969,-38.2969 24.2031,-38.2969 L24.0938,-38.2969 L23.7969,-38.2969 C23,-38.1094 22,-37.7969 21.9063,-36.7031 L21.9063,-34.7969 C21.9063,-28.9063 22.0938,-23.0938 22.2031,-17.2969 L16.9063,-16.0938 C16.9063,-19.0938 16.7969,-22.0938 16.5938,-25.0938 C16.5,-26.6094 16.5,-28 15.7031,-29.5 C13.5,-28.4063 13.7969,-26.5 13.7969,-24.9063 C13.5938,-21.7031 13.5,-18.5938 13.4063,-15.5 C10.5938,-14.9063 7.79688,-14.5 5,-14 C0.90625,-13.2969 0.296875,-12.7031 0.296875,-8.20313 C0,-7.09375 0.796875,-5.79688 0.703125,-4.59375 C0.5,-2.70313 1,-2.09375 2.29688,-2 C2.59375,-2 2.90625,-2.09375 3.29688,-2.20313 C6.59375,-2.70313 9.79688,-3.20313 13,-3.79688 L12.7031,5.20313 C12.5938,6.90625 12.4063,8.5 12.2031,10.0938 C8.5,10.7969 4.79688,11.5 1.09375,12.4063 C-1,12.9063 -2.20313,13.7031 -2.20313,16.0938 C-2.20313,18.5 -1.29688,20.7031 -1.20313,23 C-1.20313,24.0938 -0.90625,24.5938 -0.09375,24.7031 C0.09375,24.7031 0.40625,24.5938 0.796875,24.5 C4.40625,23.7031 8,23 11.5938,22.2031 C11.5,23.5 11.5,24.7969 11.5,26.2031 C11.5,29.7031 11.9063,33.1094 13.0938,36.5 C13.2969,37.2031 13.0938,38.4063 14,38.4063 M16.7031,9.20313 C16.7969,7 16.7969,4.79688 16.9063,2.59375 C17,0.203125 17,-2.09375 17,-4.5 C18.7031,-4.79688 20.2969,-5.09375 21.9063,-5.5 C21.4063,-0.90625 21.2031,3.70313 20.9063,8.29688 L16.7031,9.20313 "/>
<path class="KeySig" transform="matrix(0.992126,0,0,0.992126,374.912,1055.91)" d="M14,38.4063 C14.7969,38.2969 15,37.2031 15.2031,36.5 C15.5938,35.2031 15.7031,33.9063 15.7031,32.7031 C15.7031,31.6094 15.5938,30.6094 15.5938,29.5 C15.5938,28.7969 15.5938,27.9063 15.7031,27.2031 C15.9063,25.2031 16.0938,23.2031 16.2031,21.2031 L20.5938,20.2969 C20.7969,24.5 21.5938,28.6094 23,32.6094 C23.0938,33.1094 23.5,33.7031 24.0938,33.7031 C24.7031,33.7969 24.9063,33.1094 25.2031,32.6094 C25.9063,31.5 26,30.2031 26,29 C26.1094,28.1094 26.1094,27.2969 26.1094,26.5 C26.1094,24.0938 25.9063,21.5938 25.7969,19.2031 L31.6094,18 C37.1094,16.9063 37.7969,16.0938 38.2031,10.7969 C38.2031,9.5 38.2969,8.59375 38.2031,7.59375 C38.1094,6.29688 37.6094,5.40625 36.5,5.40625 L36.2969,5.40625 C35.9063,5.40625 35.6094,5.40625 35.2031,5.5 C32.9063,6.09375 30.4063,6.59375 28,7 L26.2969,7.29688 C26.4063,5.90625 26.4063,4.40625 26.5,2.90625 C26.6094,-0.296875 26.7031,-3.5 26.7031,-6.70313 C29.5,-7.40625 32.2031,-8.20313 34.9063,-9.09375 C36.4063,-9.59375 37.7031,-10.4063 38.1094,-12 C38.5,-13.7969 39,-15.5 39,-17.2969 C39,-18.2969 38.9063,-19.4063 38.5,-20.4063 C38.1094,-21.4063 37.7969,-21.9063 37.2031,-21.9063 L37,-21.9063 C36.7031,-21.9063 36.2969,-21.9063 35.9063,-21.7031 C32.7969,-20.4063 29.7031,-19.4063 26.5,-18.5 L26.2031,-23.9063 C26,-28.2031 25.7969,-32.6094 24.9063,-36.9063 C24.7031,-37.4063 24.7969,-38.2969 24.2031,-38.2969 L24.0938,-38.2969 L23.7969,-38.2969 C23,-38.1094 22,-37.7969 21.9063,-36.7031 L21.9063,-34.7969 C21.9063,-28.9063 22.0938,-23.0938 22.2031,-17.2969 L16.9063,-16.0938 C16.9063,-19.0938 16.7969,-22.0938 16.5938,-25.0938 C16.5,-26.6094 16.5,-28 15.7031,-29.5 C13.5,-28.4063 13.7969,-26.5 13.7969,-24.9063 C13.5938,-21.7031 13.5,-18.5938 13.4063,-15.5 C10.5938,-14.9063 7.79688,-14.5 5,-14 C0.90625,-13.2969 0.296875,-12.7031 0.296875,-8.20313 C0,-7.09375 0.796875,-5.79688 0.703125,-4.59375 C0.5,-2.70313 1,-2.09375 2.29688,-2 C2.59375,-2 2.90625,-2.09375 3.29688,-2.20313 C6.59375,-2.70313 9.79688,-3.20313 13,-3.79688 L12.7031,5.20313 C12.5938,6.90625 12.4063,8.5 12.2031,10.0938 C8.5,10.7969 4.79688,11.5 1.09375,12.4063 C-1,12.9063 -2.20313,13.7031 -2.20313,16.0938 C-2.20313,18.5 -1.29688,20.7031 -1.20313,23 C-1.20313,24.0938 -0.90625,24.5938 -0.09375,24.7031 C0.09375,24.7031 0.40625,24.5938 0.796875,24.5 C4.40625,23.7031 8,23 11.5938,22.2031 C11.5,23.5 11.5,24.7969 11.5,26.2031 C11.5,29.7031 11.9063,33.1094 13.0938,36.5 C13.2969,37.2031 13.0938,38.4063 14,38.4063 M16.7031,9.20313 C16.7969,7 16.7969,4.79688 16.9063,2.59375 C17,0.203125 17,-2.09375 17,-4.5 C18.7031,-4.79688 20.2969,-5.09375 21.9063,-5.5 C21.4063,-0.90625 21.2031,3.70313 20.9063,8.29688 L16.7031,9.20313 "/>
<path class="KeySig" transform="matrix(0.992126,0,0,0.992126,350.109,1105.51)" d="M14,38.4063 C14.7969,38.2969 15,37.2031 15.2031,36.5 C15.5938,35.2031 15.7031,33.9063 15.7031,32.7031 C15.7031,31.6094 15.5938,30.6094 15.5938,29.5 C15.5938,28.7969 15.5938,27.9063 15.7031,27.2031 C15.9063,25.2031 16.0938,23.2031 16.2031,21.2031 L20.5938,20.2969 C20.7969,24.5 21.5938,28.6094 23,32.6094 C23.0938,33.1094 23.5,33.7031 24.0938,33.7031 C24.7031,33.7969 24.9063,33.1094 25.2031,32.6094 C25.9063,31.5 26,30.2031 26,29 C26.1094,28.1094 26.1094,27.2969 26.1094,26.5 C26.1094,24.0938 25.9063,21.5938 25.7969,19.2031 L31.6094,18 C37.1094,16.9063 37.7969,16.0938 38.2031,10.7969 C38.2031,9.5 38.2969,8.59375 38.2031,7.59375 C38.1094,6.29688 37.6094,5.40625 36.5,5.40625 L36.2969,5.40625 C35.9063,5.40625 35.6094,5.40625 35.2031,5.5 C32.9063,6.09375 30.4063,6.59375 28,7 L26.2969,7.29688 C26.4063,5.90625 26.4063,4.40625 26.5,2.90625 C26.6094,-0.296875 26.7031,-3.5 26.7031,-6.70313 C29.5,-7.40625 32.2031,-8.20313 34.9063,-9.09375 C36.4063,-9.59375 37.7031,-10.4063 38.1094,-12 C38.5,-13.7969 39,-15.5 39,-17.2969 C39,-18.2969 38.9063,-19.4063 38.5,-20.4063 C38.1094,-21.4063 37.7969,-21.9063 37.2031,-21.9063 L37,-21.9063 C36.7031,-21.9063 36.2969,-21.9063 35.9063,-21.7031 C32.7969,-20.4063 29.7031,-19.4063 26.5,-18.5 L26.2031,-23.9063 C26,-28.2031 25.7969,-32.6094 24.9063,-36.9063 C24.7031,-37.4063 24.7969,-38.2969 24.2031,-38.2969 L24.0938,-38.2969 L23.7969,-38.2969 C23,-38.1094 22,-37.7969 21.9063,-36.7031 L21.9063,-34.7969 C21.9063,-28.9063 22.0938,-23.0938 22.2031,-17.2969 L16.9063,-16.0938 C16.9063,-19.0938 16.7969,-22.0938 16.5938,-25.0938 C16.5,-26.6094 16.5,-28 15.7031,-29.5 C13.5,-28.4063 13.7969,-26.5 13.7969,-24.9063 C13.5938,-21.7031 13.5,-18.5938 13.4063,-15.5 C10.5938,-14.9063 7.79688,-14.5 5,-14 C0.90625,-13.2969 0.296875,-12.7031 0.296875,-8.20313 C0,-7.09375 0.796875,-5.79688 0.703125,-4.59375 C0.5,-2.70313 1,-2.09375 2.29688,-2 C2.59375,-2 2.90625,-2.09375 3.29688,-2.20313 C6.59375,-2.70313 9.79688,-3.20313 13,-3.79688 L12.7031,5.20313 C12.5938,6.90625 12.4063,8.5 12.2031,10.0938 C8.5,10.7969 4.79688,11.5 1.09375,12.4063 C-1,12.9063 -2.20313,13.7031 -2.20313,16.0938 C-2.20313,18.5 -1.29688,20.7031 -1.20313,23 C-1.20313,24.0938 -0.90625,24.5938 -0.09375,24.7031 C0.09375,24.7031 0.40625,24.5938 0.796875,24.5 C4.40625,23.7031 8,23 11.5938,22.2031 C11.5,23.5 11.5,24.7969 11.5,26.2031 C11.5,29.7031 11.9063,33.1094 13.0938,36.5 C13.2969,37.2031 13.0938,38.4063 14,38.4063 M16.7031,9.20313 C16.7969,7 16.7969,4.79688 16.9063,2.59375 C17,0.203125 17,-2.09375 17,-4.5 C18.7031,-4.79688 20.2969,-5.09375 21.9063,-5.5 C21.4063,-0.90625 21.2031,3.70313 20.9063,8.29688 L16.7031,9.20313 "/>
<path class="KeySig" transform="matrix(0.992126,0,0,0.992126,325.305,1068.31)" d="M14,38.4063 C14.7969,38.2969 15,37.2031 15.2031,36.5 C15.5938,35.2031 15.7031,33.9063 15.7031,32.7031 C15.7031,31.6094 15.5938,30.6094 15.5938,29.5 C15.5938,28.7969 15.5938,27.9063 15.7031,27.2031 C15.9063,25.2031 16.0938,23.2031 16.2031,21.2031 L20.5938,20.2969 C20.7969,24.5 21.5938,28.6094 23,32.6094 C23.0938,33.1094 23.5,33.7031 24.0938,33.7031 C24.7031,33.7969 24.9063,33.1094 25.2031,32.6094 C25.9063,31.5 26,30.2031 26,29 C26.1094,28.1094 26.1094,27.2969 26.1094,26.5 C26.1094,24.0938 25.9063,21.5938 25.7969,19.2031 L31.6094,18 C37.1094,16.9063 37.7969,16.0938 38.2031,10.7969 C38.2031,9.5 38.2969,8.59375 38.2031,7.59375 C38.1094,6.29688 37.6094,5.40625 36.5,5.40625 L36.2969,5.40625 C35.9063,5.40625 35.6094,5.40625 35.2031,5.5 C32.9063,6.09375 30.4063,6.59375 28,7 L26.2969,7.29688 C26.4063,5.90625 26.4063,4.40625 26.5,2.90625 C26.6094,-0.296875 26.7031,-3.5 26.7031,-6.70313 C29.5,-7.40625 32.2031,-8.20313 34.9063,-9.09375 C36.4063,-9.59375 37.7031,-10.4063 38.1094,-12 C38.5,-13.7969 39,-15.5 39,-17.2969 C39,-18.2969 38.9063,-19.4063 38.5,-20.4063 C38.1094,-21.4063 37.7969,-21.9063 37.2031,-21.9063 L37,-21.9063 C36.7031,-21.9063 36.2969,-21.9063 35.9063,-21.7031 C32.7969,-20.4063 29.7031,-19.4063 26.5,-18.5 L26.2031,-23.9063 C26,-28.2031 25.7969,-32.6094 24.9063,-36.9063 C24.7031,-37.4063 24.7969,-38.2969 24.2031,-38.2969 L24.0938,-38.2969 L23.7969,-38.2969 C23,-38.1094 22,-37.7969 21.9063,-36.7031 L21.9063,-34.7969 C21.9063,-28.9063 22.0938,-23.0938 22.2031,-17.2969 L16.9063,-16.0938 C16.9063,-19.0938 16.7969,-22.0938 16.5938,-25.0938 C16.5,-26.6094 16.5,-28 15.7031,-29.5 C13.5,-28.4063 13.7969,-26.5 13.7969,-24.9063 C13.5938,-21.7031 13.5,-18.5938 13.4063,-15.5 C10.5938,-14.9063 7.79688,-14.5 5,-14 C0.90625,-13.2969 0.296875,-12.7031 0.296875,-8.20313 C0,-7.09375 0.796875,-5.79688 0.703125,-4.59375 C0.5,-2.70313 1,-2.09375 2.29688,-2 C2.59375,-2 2.90625,-2.09375 3.29688,-2.20313 C6.59375,-2.70313 9.79688,-3.20313 13,-3.79688 L12.7031,5.20313 C12.5938,6.90625 12.4063,8.5 12.2031,10.0938 C8.5,10.7969 4.79688,11.5 1.09375,12.4063 C-1,12.9063 -2.20313,13.7031 -2.20313,16.0938 C-2.20313,18.5 -1.29688,20.7031 -1.20313,23 C-1.20313,24.0938 -0.90625,24.5938 -0.09375,24.7031 C0.09375,24.7031 0.40625,24.5938 0.796875,24.5 C4.40625,23.7031 8,23 11.5938,22.2031 C11.5,23.5 11.5,24.7969 11.5,26.2031 C11.5,29.7031 11.9063,33.1094 13.0938,36.5 C13.2969,37.2031 13.0938,38.4063 14,38.4063 M16.7031,9.20313 C16.7969,7 16.7969,4.79688 16.9063,2.59375 C17,0.203125 17,-2.09375 17,-4.5 C18.7031,-4.79688 20.2969,-5.09375 21.9063,-5.5 C21.4063,-0.90625 21.2031,3.70313 20.9063,8.29688 L16.7031,9.20313 "/>
<path class="Rest" transform="matrix(0.992126,0,0,0.992126,509.771,349.016)" d="M42.2031,48.9063 C43.2031,49.2031 44,48.2969 44.5,47.5 C45.7969,45.7969 46,43.7969 46.2969,41.7969 C47.4063,32.2969 47.2031,22.7031 47.6094,13.2031 L47.6094,12.2031 C51.1094,11.5 54.4063,10.2969 57.7031,8.79688 C62.6094,6.5 63.4063,5.29688 63.2969,0 C63.2969,-2.5 62.7969,-3.59375 61.5,-3.70313 C60.9063,-3.70313 60,-3.40625 58.9063,-2.79688 L58.2031,-2.5 C54.7969,-1 51.2969,0.203125 47.7031,0.90625 C47.7031,-3.5 47.5,-7.90625 47.2969,-12.2969 C47.1094,-16 47,-19.7969 46.7031,-23.5 C46.6094,-24.2969 46.7031,-25.9063 45.4063,-25.9063 C44.2031,-25.9063 43.2969,-25.0938 43.2031,-23.5938 C43.1094,-21.7969 42.6094,-20 42.7031,-18.2031 C42.7969,-11.5938 43,-5 43,1.5 C41.7969,1.59375 40.6094,1.59375 39.5,1.5 C33.4063,1.09375 27.4063,0.09375 21.2031,0.203125 C19,0.203125 16.7969,0.296875 14.5938,0.59375 C16.7969,-3.59375 18.5938,-7.5 20.9063,-11.2969 C26.2031,-20 31.9063,-28.6094 35.6094,-38.2969 C36.5,-40.6094 37.2031,-42.9063 37.2031,-45.2969 C37.2031,-46 37.1094,-46.7031 37,-47.4063 C36.9063,-48 36.9063,-49.1094 36.1094,-49.1094 C35.2969,-49.2031 34.2969,-48.9063 33.7969,-48.1094 C33.5,-47.5 33.1094,-47 32.9063,-46.4063 C31.5,-41.9063 29,-38 26.7031,-34 C23.7969,-29.1094 20.5,-24.4063 17.5938,-19.5 C13.5,-12.5938 10.0938,-5.40625 5.09375,0.90625 C3.5,2.90625 2,5 2,7.5 C2,8.40625 2.20313,9.29688 2.59375,10.2031 C3,11.0938 3.5,12 3.5,12.9063 C3.59375,14.4063 3.90625,14.9063 4.70313,15 C5.09375,15 5.70313,14.7969 6.40625,14.4063 C10.7969,12.5 15.2969,11.5 20,11.5 C26.2031,11.5 32.4063,12.5 38.6094,12.9063 C39.2969,13 40,13 40.7031,13.0938 C41.4063,13.0938 42.1094,13.0938 42.7969,12.9063 C42.6094,18.5938 42.5,24.2969 42.1094,30 C41.9063,34.4063 41.4063,38.7969 41.4063,43.4063 C41.4063,44.5 41.4063,45.5 41.5,46.5 C41.5,47.4063 41.4063,48.6094 42.2031,48.9063"/>
<polyline class="Rest" fill="none" stroke="#000000" stroke-width="17.36" stroke-linecap="square" stroke-linejoin="bevel" points="452.042,435.827 628.339,435.827"/>
<polyline class="Rest" fill="none" stroke="#000000" stroke-width="4.96" stroke-linecap="square" stroke-linejoin="bevel" points="443.361,411.024 443.361,460.63"/>
<polyline class="Rest" fill="none" stroke="#000000" stroke-width="4.96" stroke-linecap="square" stroke-linejoin="bevel" points="637.02,411.024 637.02,460.63"/>
<path class="Rest" transform="matrix(0.992126,0,0,0.992126,702.996,435.827)" d="M6.79688,0 L38.6094,0 C41.1094,0 43.7031,0 46.2031,-0.09375 C50,-0.203125 51.6094,-2 51.7969,-5.70313 C52,-7.90625 51.4063,-10 51.1094,-12.0938 C50.6094,-14.9063 49.2031,-16.0938 46.5,-16.0938 C44.2031,-16.0938 41.9063,-15.9063 39.6094,-15.9063 C34.6094,-15.9063 29.6094,-16.2031 24.7031,-16.2031 L5.09375,-16.2031 C1.29688,-16.2031 0,-15.2969 0,-12.4063 C0,-11.9063 0,-11.4063 0.09375,-10.7031 C0.296875,-9.40625 0.40625,-8 0.40625,-6.59375 C0.203125,-1.90625 2,0 6.79688,0"/>
<path class="Rest" transform="matrix(0.992126,0,0,0.992126,1367.5,435.827)" d="M10.5,41.4063 C11.2969,40.9063 11.2031,39.9063 11.4063,39.1094 C11.4063,38.7031 11.2031,38.2969 11.0938,37.9063 C10.2969,34.4063 9.40625,31 8.59375,27.5 C8.5,27.1094 8.5,26.7031 8.5,26.4063 C8.5,23 11,18.9063 13.7969,17.7031 C14.5,17.2969 15.0938,17.5938 15.7969,17.7969 C19,18.7969 20.7031,21.5 22.5,24 C23,24.7031 23.7031,25.6094 24.5,25.6094 C24.7031,25.6094 24.7969,25.6094 25,25.5 C25.9063,25.0938 26.2969,24.2031 26.2969,23.2969 L26.2031,22.5938 C25.7969,20.2969 25.4063,17.9063 23.9063,16.0938 C20.9063,12.5 19.2969,8.09375 17.2969,4 C17,3.40625 16.7969,2.90625 16.7969,2.5 C16.7969,1.79688 17.2031,1.20313 17.9063,0.5 C19.7031,-1.40625 21.5938,-3.09375 22.7969,-5.40625 C23.9063,-7.20313 24.5938,-9.09375 24.5938,-11 C24.5938,-12.2969 24.2969,-13.5938 23.4063,-15 C20.4063,-20 17.2969,-24.9063 14.7969,-30.2031 C13.0938,-33.7969 11,-37.2031 8,-39.9063 C7.29688,-40.6094 6.40625,-41.5 5.40625,-41.5 C5,-41.5 4.59375,-41.4063 4.09375,-41.1094 C3.09375,-40.5 2.70313,-39.7031 2.70313,-39 C2.70313,-38.2031 3.09375,-37.4063 3.70313,-36.6094 C6.79688,-32.6094 8.70313,-27.9063 11.7031,-23.9063 C12.5938,-22.7969 13,-22 13,-21.2969 C13,-20.4063 12.2031,-19.7031 10.5938,-18.7031 C8.5,-17.5 6.29688,-16.2969 4.29688,-14.7969 C3.29688,-14.0938 2.79688,-13.2969 2.79688,-12.5 C2.79688,-12 3,-11.5 3.20313,-11 C4.20313,-8.70313 5.5,-6.59375 6.90625,-4.5 C9.09375,-1.40625 11.0938,2 12.7031,5.5 C12,6.09375 11.4063,5.90625 10.7969,6 C4,6.90625 -0.5,12 0,18.0938 C0.703125,25.4063 3.40625,32.2031 6.70313,38.7031 C7.09375,39.5 7.59375,40.2969 8.59375,40.6094 C9.20313,40.7969 9.59375,41.5 10.0938,41.5 C10.2031,41.5 10.4063,41.5 10.5,41.4063"/>
<path class="Rest" transform="matrix(0.992126,0,0,0.992126,1428.77,435.827)" d="M10.5,41.4063 C11.2969,40.9063 11.2031,39.9063 11.4063,39.1094 C11.4063,38.7031 11.2031,38.2969 11.0938,37.9063 C10.2969,34.4063 9.40625,31 8.59375,27.5 C8.5,27.1094 8.5,26.7031 8.5,26.4063 C8.5,23 11,18.9063 13.7969,17.7031 C14.5,17.2969 15.0938,17.5938 15.7969,17.7969 C19,18.7969 20.7031,21.5 22.5,24 C23,24.7031 23.7031,25.6094 24.5,25.6094 C24.7031,25.6094 24.7969,25.6094 25,25.5 C25.9063,25.0938 26.2969,24.2031 26.2969,23.2969 L26.2031,22.5938 C25.7969,20.2969 25.4063,17.9063 23.9063,16.0938 C20.9063,12.5 19.2969,8.09375 17.2969,4 C17,3.40625 16.7969,2.90625 16.7969,2.5 C16.7969,1.79688 17.2031,1.20313 17.9063,0.5 C19.7031,-1.40625 21.5938,-3.09375 22.7969,-5.40625 C23.9063,-7.20313 24.5938,-9.09375 24.5938,-11 C24.5938,-12.2969 24.2969,-13.5938 23.4063,-15 C20.4063,-20 17.2969,-24.9063 14.7969,-30.2031 C13.0938,-33.7969 11,-37.2031 8,-39.9063 C7.29688,-40.6094 6.40625,-41.5 5.40625,-41.5 C5,-41.5 4.59375,-41.4063 4.09375,-41.1094 C3.09375,-40.5 2.70313,-39.7031 2.70313,-39 C2.70313,-38.2031 3.09375,-37.4063 3.70313,-36.6094 C6.79688,-32.6094 8.70313,-27.9063 11.7031,-23.9063 C12.5938,-22.7969 13,-22 13,-21.2969 C13,-20.4063 12.2031,-19.7031 10.5938,-18.7031 C8.5,-17.5 6.29688,-16.2969 4.29688,-14.7969 C3.29688,-14.0938 2.79688,-13.2969 2.79688,-12.5 C2.79688,-12 3,-11.5 3.20313,-11 C4.20313,-8.70313 5.5,-6.59375 6.90625,-4.5 C9.09375,-1.40625 11.0938,2 12.7031,5.5 C12,6.09375 11.4063,5.90625 10.7969,6 C4,6.90625 -0.5,12 0,18.0938 C0.703125,25.4063 3.40625,32.2031 6.70313,38.7031 C7.09375,39.5 7.59375,40.2969 8.59375,40.6094 C9.20313,40.7969 9.59375,41.5 10.0938,41.5 C10.2031,41.5 10.4063,41.5 10.5,41.4063"/>
<path class="Rest" transform="matrix(0.992126,0,0,0.992126,1490.04,435.827)" d="M6.79688,0 L38.6094,0 C41.1094,0 43.7031,0 46.2031,-0.09375 C50,-0.203125 51.6094,-2 51.7969,-5.70313 C52,-7.90625 51.4063,-10 51.1094,-12.0938 C50.6094,-14.9063 49.2031,-16.0938 46.5,-16.0938 C44.2031,-16.0938 41.9063,-15.9063 39.6094,-15.9063 C34.6094,-15.9063 29.6094,-16.2031 24.7031,-16.2031 L5.09375,-16.2031 C1.29688,-16.2031 0,-15.2969 0,-12.4063 C0,-11.9063 0,-11.4063 0.09375,-10.7031 C0.296875,-9.40625 0.40625,-8 0.40625,-6.59375 C0.203125,-1.90625 2,0 6.79688,0"/>
<path class="Rest" transform="matrix(0.992126,0,0,0.992126,1678.27,349.016)" d="M27.1094,36 C32.6094,35.2031 38.1094,34.2969 43.1094,31.7969 C52.2969,27.1094 56.5,19.5 56.5,9.29688 C56.5,1.09375 52.1094,-4 45.2969,-4.09375 C43.7031,-4.09375 42.1094,-3.79688 40.2969,-3.29688 C27.2031,0.59375 19.2031,9.59375 16.2031,23.2031 C12.5938,21.7969 9.90625,19.2969 8,15.7969 C7.20313,14.2969 6.79688,12.7031 6.79688,11.0938 C6.79688,10 7,8.79688 7.40625,7.59375 C8.59375,4.09375 10.0938,0.796875 11.5938,-2.59375 C16.4063,-13.0938 24.0938,-20.2969 35.2969,-23.5938 C36.7969,-24.0938 38.4063,-24.5 39.9063,-24.5 C41.7031,-24.5 43.4063,-24 45,-22.7031 C45.4063,-22.2969 45.9063,-22.2031 46.2031,-22.2031 C46.7969,-22.2031 47.2969,-22.5938 47.7031,-23.2969 C48.4063,-24.9063 48.7969,-26.5 48.7969,-28.1094 C48.7969,-29.7969 48.4063,-31.2969 47.5,-32.7969 C46.1094,-35 43.7969,-36.2031 41.2031,-36.2969 C40.7969,-36.2969 40.4063,-36.2969 40,-36.2031 C32.7969,-35.2969 26.4063,-32.2969 20.5938,-28 C15.0938,-23.9063 11.4063,-18.2969 8,-12.2969 C4.20313,-5.70313 2,1.20313 2,8.40625 C2,12 2.5,15.5938 3.70313,19.2969 C5.70313,26 9.09375,31.5 15.7031,34.5 C18.4063,35.7031 21.2031,36.2969 24.0938,36.2969 C25.0938,36.2969 26.1094,36.2031 27.1094,36 M24.4063,24.7969 C23.4063,24.7031 22.2031,25.2031 21.7031,24.4063 C21.0938,23.5938 22.2031,22.7031 22.5938,21.9063 C25.9063,15.4063 31.1094,11 37.7031,8.29688 C39.6094,7.5 41.4063,7.09375 43.2031,7.20313 C45.5,7.20313 47.7031,7.79688 49.7969,9.20313 C50.7969,9.90625 51.4063,10.5938 51.4063,11.5938 C51.4063,12.2031 51.2031,12.7969 50.7031,13.5938 C47.9063,17.9063 44,20.7969 39.1094,22.2969 C34.5,23.7031 29.7031,24.5938 24.9063,24.7969 L24.4063,24.7969 "/>
<polyline class="Rest" fill="none" stroke="#000000" stroke-width="17.36" stroke-linecap="square" stroke-linejoin="bevel" points="1630.48,435.827 1780.14,435.827"/>
<polyline class="Rest" fill="none" stroke="#000000" stroke-width="4.96" stroke-linecap="square" stroke-linejoin="bevel" points="1621.8,411.024 1621.8,460.63"/>
<polyline class="Rest" fill="none" stroke="#000000" stroke-width="4.96" stroke-linecap="square" stroke-linejoin="bevel" points="1788.82,411.024 1788.82,460.63"/>
<path class="Rest" transform="matrix(0.992126,0,0,0.992126,1854.83,435.827)" d="M10.5,41.4063 C11.2969,40.9063 11.2031,39.9063 11.4063,39.1094 C11.4063,38.7031 11.2031,38.2969 11.0938,37.9063 C10.2969,34.4063 9.40625,31 8.59375,27.5 C8.5,27.1094 8.5,26.7031 8.5,26.4063 C8.5,23 11,18.9063 13.7969,17.7031 C14.5,17.2969 15.0938,17.5938 15.7969,17.7969 C19,18.7969 20.7031,21.5 22.5,24 C23,24.7031 23.7031,25.6094 24.5,25.6094 C24.7031,25.6094 24.7969,25.6094 25,25.5 C25.9063,25.0938 26.2969,24.2031 26.2969,23.2969 L26.2031,22.5938 C25.7969,20.2969 25.4063,17.9063 23.9063,16.0938 C20.9063,12.5 19.2969,8.09375 17.2969,4 C17,3.40625 16.7969,2.90625 16.7969,2.5 C16.7969,1.79688 17.2031,1.20313 17.9063,0.5 C19.7031,-1.40625 21.5938,-3.09375 22.7969,-5.40625 C23.9063,-7.20313 24.5938,-9.09375 24.5938,-11 C24.5938,-12.2969 24.2969,-13.5938 23.4063,-15 C20.4063,-20 17.2969,-24.9063 14.7969,-30.2031 C13.0938,-33.7969 11,-37.2031 8,-39.9063 C7.29688,-40.6094 6.40625,-41.5 5.40625,-41.5 C5,-41.5 4.59375,-41.4063 4.09375,-41.1094 C3.09375,-40.5 2.70313,-39.7031 2.70313,-39 C2.70313,-38.2031 3.09375,-37.4063 3.70313,-36.6094 C6.79688,-32.6094 8.70313,-27.9063 11.7031,-23.9063 C12.5938,-22.7969 13,-22 13,-21.2969 C13,-20.4063 12.2031,-19.7031 10.5938,-18.7031 C8.5,-17.5 6.29688,-16.2969 4.29688,-14.7969 C3.29688,-14.0938 2.79688,-13.2969 2.79688,-12.5 C2.79688,-12 3,-11.5 3.20313,-11 C4.20313,-8.70313 5.5,-6.59375 6.90625,-4.5 C9.09375,-1.40625 11.0938,2 12.7031,5.5 C12,6.09375 11.4063,5.90625 10.7969,6 C4,6.90625 -0.5,12 0,18.0938 C0.703125,25.4063 3.40625,32.2031 6.70313,38.7031 C7.09375,39.5 7.59375,40.2969 8.59375,40.6094 C9.20313,40.7969 9.59375,41.5 10.0938,41.5 C10.2031,41.5 10.4063,41.5 10.5,41.4063"/>
<path class="Rest" transform="matrix(0.992126,0,0,0.992126,2317.59,349.016)" d="M6.90625,37.7031 C7.70313,38.2031 8.40625,37.5 9,37 C11.7031,34.7969 14.7969,33 17.7031,31.1094 C19.5938,29.9063 21.5,29.5 23.5,29.5 C24.7031,29.5 26,29.6094 27.2031,29.9063 C29.4063,30.4063 31.5,31.2969 33.7031,32.1094 C37.5,33.5 41.2969,34.5 45,34.5 C49.4063,34.5 53.7031,33.2969 57.9063,30.6094 C62.9063,27.4063 66.5,23.2031 66,16.7969 C66,16 66,14.9063 65.4063,14.5938 C64.7031,14.2031 63.9063,14.7969 63.2969,15.2969 C62.1094,16.2969 60.9063,17.2031 59.7969,18.2969 C58,20.0938 56.1094,21.2031 53.7969,22 C51.5,22.7969 49.2031,23.2031 46.9063,23.2031 C43,23.2031 39.1094,22.0938 35.4063,20.5 C32.2969,19.2969 29.2031,18.2969 25.7969,18.2969 C24.2969,18.2969 22.7969,18.5 21.2031,18.9063 C22.0938,17.7969 22.5,17.2969 23,16.7969 C26.7969,13 30.4063,9.09375 34,5.09375 C41.2969,-3 46.1094,-12.5 46.9063,-23.5938 C47,-24.2969 47,-25 47,-25.6094 C47,-32 44.2969,-35.2969 38.6094,-37.2031 C36.5,-37.9063 34.5,-38.2031 32.5,-38.2031 C28.4063,-38.2031 24.5,-37 20.5938,-35.2969 C15.2969,-33 11.7031,-28.6094 7.70313,-24.5938 C4.5,-21.4063 2,-18.0938 2,-13.7031 C2,-13 2,-12.2031 2.20313,-11.4063 C2.29688,-10.9063 2,-10.2031 2,-9.70313 C2,-9.20313 2.20313,-8.70313 3,-8.70313 C3.79688,-8.70313 4.5,-9.59375 5.09375,-10.2031 C5.5,-10.5938 5.70313,-11 6,-11.2969 C9.29688,-15.2031 12.7031,-18.9063 16.5,-22.2031 C20.2969,-25.5 25,-27 29.5,-27 C33.2969,-27 36.9063,-25.9063 39.9063,-23.7031 C41,-22.9063 42.1094,-22 42.1094,-20.7031 C42.1094,-20.2969 41.9063,-19.7969 41.7031,-19.2969 C40,-15.0938 37.7969,-11 34.7969,-7.40625 C30.5,-2.29688 25.7969,2.40625 21.0938,7.20313 C16,12.5 11.5938,18.4063 7.70313,24.7031 C6.40625,26.7969 5.79688,28.7969 5.79688,31 C5.79688,31.7969 5.90625,32.6094 6,33.4063 C6.09375,34.1094 6.09375,34.9063 6.09375,35.7031 C6.20313,36.5 6.29688,37.2969 6.90625,37.7031"/>
<polyline class="Rest" fill="none" stroke="#000000" stroke-width="17.36" stroke-linecap="square" stroke-linejoin="bevel" points="2277.66,435.827 2421.06,435.827"/>
<polyline class="Rest" fill="none" stroke="#000000" stroke-width="4.96" stroke-linecap="square" stroke-linejoin="bevel" points="2268.98,411.024 2268.98,460.63"/>
<polyline class="Rest" fill="none" stroke="#000000" stroke-width="4.96" stroke-linecap="square" stroke-linejoin="bevel" points="2429.75,411.024 2429.75,460.63"/>
<path class="Rest" transform="matrix(0.992126,0,0,0.992126,2495.72,435.827)" d="M6.79688,0 L38.6094,0 C41.1094,0 43.7031,0 46.2031,-0.09375 C50,-0.203125 51.6094,-2 51.7969,-5.70313 C52,-7.90625 51.4063,-10 51.1094,-12.0938 C50.6094,-14.9063 49.2031,-16.0938 46.5,-16.0938 C44.2031,-16.0938 41.9063,-15.9063 39.6094,-15.9063 C34.6094,-15.9063 29.6094,-16.2031 24.7031,-16.2031 L5.09375,-16.2031 C1.29688,-16.2031 0,-15.2969 0,-12.4063 C0,-11.9063 0,-11.4063 0.09375,-10.7031 C0.296875,-9.40625 0.40625,-8 0.40625,-6.59375 C0.203125,-1.90625 2,0 6.79688,0"/>
<path class="Rest" transform="matrix(0.992126,0,0,0.992126,1008.01,1117.91)" d="M10.5,41.4063 C11.2969,40.9063 11.2031,39.9063 11.4063,39.1094 C11.4063,38.7031 11.2031,38.2969 11.0938,37.9063 C10.2969,34.4063 9.40625,31 8.59375,27.5 C8.5,27.1094 8.5,26.7031 8.5,26.4063 C8.5,23 11,18.9063 13.7969,17.7031 C14.5,17.2969 15.0938,17.5938 15.7969,17.7969 C19,18.7969 20.7031,21.5 22.5,24 C23,24.7031 23.7031,25.6094 24.5,25.6094 C24.7031,25.6094 24.7969,25.6094 25,25.5 C25.9063,25.0938 26.2969,24.2031 26.2969,23.2969 L26.2031,22.5938 C25.7969,20.2969 25.4063,17.9063 23.9063,16.0938 C20.9063,12.5 19.2969,8.09375 17.2969,4 C17,3.40625 16.7969,2.90625 16.7969,2.5 C16.7969,1.79688 17.2031,1.20313 17.9063,0.5 C19.7031,-1.40625 21.5938,-3.09375 22.7969,-5.40625 C23.9063,-7.20313 24.5938,-9.09375 24.5938,-11 C24.5938,-12.2969 24.2969,-13.5938 23.4063,-15 C20.4063,-20 17.2969,-24.9063 14.7969,-30.2031 C13.0938,-33.7969 11,-37.2031 8,-39.9063 C7.29688,-40.6094 6.40625,-41.5 5.40625,-41.5 C5,-41.5 4.59375,-41.4063 4.09375,-41.1094 C3.09375,-40.5 2.70313,-39.7031 2.70313,-39 C2.70313,-38.2031 3.09375,-37.4063 3.70313,-36.6094 C6.79688,-32.6094 8.70313,-27.9063 11.7031,-23.9063 C12.5938,-22.7969 13,-22 13,-21.2969 C13,-20.4063 12.2031,-19.7031 10.5938,-18.7031 C8.5,-17.5 6.29688,-16.2969 4.29688,-14.7969 C3.29688,-14.0938 2.79688,-13.2969 2.79688,-12.5 C2.79688,-12 3,-11.5 3.20313,-11 C4.20313,-8.70313 5.5,-6.59375 6.90625,-4.5 C9.09375,-1.40625 11.0938,2 12.7031,5.5 C12,6.09375 11.4063,5.90625 10.7969,6 C4,6.90625 -0.5,12 0,18.0938 C0.703125,25.4063 3.40625,32.2031 6.70313,38.7031 C7.09375,39.5 7.59375,40.2969 8.59375,40.6094 C9.20313,40.7969 9.59375,41.5 10.0938,41.5 C10.2031,41.5 10.4063,41.5 10.5,41.4063"/>
<path class="Rest" transform="matrix(0.992126,0,0,0.992126,1139.23,1117.91)" d="M10.5,41.4063 C11.2969,40.9063 11.2031,39.9063 11.4063,39.1094 C11.4063,38.7031 11.2031,38.2969 11.0938,37.9063 C10.2969,34.4063 9.40625,31 8.59375,27.5 C8.5,27.1094 8.5,26.7031 8.5,26.4063 C8.5,23 11,18.9063 13.7969,17.7031 C14.5,17.2969 15.0938,17.5938 15.7969,17.7969 C19,18.7969 20.7031,21.5 22.5,24 C23,24.7031 23.7031,25.6094 24.5,25.6094 C24.7031,25.6094 24.7969,25.6094 25,25.5 C25.9063,25.0938 26.2969,24.2031 26.2969,23.2969 L26.2031,22.5938 C25.7969,20.2969 25.4063,17.9063 23.9063,16.0938 C20.9063,12.5 19.2969,8.09375 17.2969,4 C17,3.40625 16.7969,2.90625 16.7969,2.5 C16.7969,1.79688 17.2031,1.20313 17.9063,0.5 C19.7031,-1.40625 21.5938,-3.09375 22.7969,-5.40625 C23.9063,-7.20313 24.5938,-9.09375 24.5938,-11 C24.5938,-12.2969 24.2969,-13.5938 23.4063,-15 C20.4063,-20 17.2969,-24.9063 14.7969,-30.2031 C13.0938,-33.7969 11,-37.2031 8,-39.9063 C7.29688,-40.6094 6.40625,-41.5 5.40625,-41.5 C5,-41.5 4.59375,-41.4063 4.09375,-41.1094 C3.09375,-40.5 2.70313,-39.7031 2.70313,-39 C2.70313,-38.2031 3.09375,-37.4063 3.70313,-36.6094 C6.79688,-32.6094 8.70313,-27.9063 11.7031,-23.9063 C12.5938,-22.7969 13,-22 13,-21.2969 C13,-20.4063 12.2031,-19.7031 10.5938,-18.7031 C8.5,-17.5 6.29688,-16.2969 4.29688,-14.7969 C3.29688,-14.0938 2.79688,-13.2969 2.79688,-12.5 C2.79688,-12 3,-11.5 3.20313,-11 C4.20313,-8.70313 5.5,-6.59375 6.90625,-4.5 C9.09375,-1.40625 11.0938,2 12.7031,5.5 C12,6.09375 11.4063,5.90625 10.7969,6 C4,6.90625 -0.5,12 0,18.0938 C0.703125,25.4063 3.40625,32.2031 6.70313,38.7031 C7.09375,39.5 7.59375,40.2969 8.59375,40.6094 C9.20313,40.7969 9.59375,41.5 10.0938,41.5 C10.2031,41.5 10.4063,41.5 10.5,41.4063"/>
<path class="Rest" transform="matrix(0.992126,0,0,0.992126,1270.45,1117.91)" d="M6.79688,0 L38.6094,0 C41.1094,0 43.7031,0 46.2031,-0.09375 C50,-0.203125 51.6094,-2 51.7969,-5.70313 C52,-7.90625 51.4063,-10 51.1094,-12.0938 C50.6094,-14.9063 49.2031,-16.0938 46.5,-16.0938 C44.2031,-16.0938 41.9063,-15.9063 39.6094,-15.9063 C34.6094,-15.9063 29.6094,-16.2031 24.7031,-16.2031 L5.09375,-16.2031 C1.29688,-16.2031 0,-15.2969 0,-12.4063 C0,-11.9063 0,-11.4063 0.09375,-10.7031 C0.296875,-9.40625 0.40625,-8 0.40625,-6.59375 C0.203125,-1.90625 2,0 6.79688,0"/>
<path class="Rest" transform="matrix(0.992126,0,0,0.992126,1710.56,1031.1)" d="M9.20313,37.2031 C11.7031,38.4063 14.5,38.7969 17.2969,38.9063 C24.4063,38.9063 31.5,35.7031 35.2031,32.1094 C40.7969,26.7031 44.6094,20.0938 47,12.7031 C47.7969,10.4063 48.2031,8.09375 48.2031,5.90625 C48.2031,-0.796875 44.6094,-6.5 37.5,-9.59375 C34.7969,-10.7031 32.1094,-11.5938 29.2969,-12 C28.2969,-12.0938 27.7969,-12.2969 27.7969,-13 C27.7969,-13.2031 27.9063,-13.5938 28.1094,-14 C28.9063,-15.7969 29.6094,-17.7031 29.7031,-19.7031 C29.9063,-21.2969 30.7031,-21.7031 32.6094,-21.7031 C39.5,-21.7031 46,-23.7969 52.6094,-25.7969 C57,-27.2031 58.2969,-30 58.2969,-34 C58.2969,-37.5 57.9063,-38.9063 56.4063,-38.9063 C55.6094,-38.9063 54.5,-38.6094 53,-37.9063 C52.9063,-37.9063 52.7031,-37.7969 52.6094,-37.7031 C46.2031,-35.1094 39.6094,-33.6094 32.2969,-33.6094 C31.4063,-33.6094 29.5,-33.7969 27.5,-33.6094 C26.2031,-33.5 25.4063,-32.9063 24.5,-31.5 C22.4063,-28.1094 21.0938,-24.4063 19.5,-20.7969 C18.2031,-17.7031 17,-14.7031 17,-11.4063 C17,-11 17.0938,-10.5 17.0938,-10 C17.2969,-8 16.9063,-6.20313 16.2031,-4.40625 C15.7969,-3.5 15.5938,-2.79688 15.5938,-2.40625 C15.5938,-1.5 16.4063,-1.29688 18.2969,-1 C22.5938,-0.5 26.9063,0 30.9063,1.79688 C34.7969,3.59375 38,6.20313 39.5,10.5 C39.7969,11.2031 39.9063,11.7969 39.9063,12.5 C39.9063,15.0938 38,17 36.6094,19.0938 C33.6094,23.2031 29.1094,25.5 24.0938,25.5 C22.0938,25.5 20.0938,25.2031 18.0938,24.4063 C14.2969,23.0938 10.7031,21.2969 6.59375,20.7969 C5.09375,20.5938 4.5,21 3.79688,22.2969 C2,25.5 2.79688,29.1094 2,32.5 C1.79688,33.5 2.5,34.7031 3.90625,35.1094 C5.70313,35.7031 7.5,36.4063 9.20313,37.2031"/>
<polyline class="Rest" fill="none" stroke="#000000" stroke-width="17.36" stroke-linecap="square" stroke-linejoin="bevel" points="1522.82,1117.91 1954.22,1117.91"/>
<polyline class="Rest" fill="none" stroke="#000000" stroke-width="4.96" stroke-linecap="square" stroke-linejoin="bevel" points="1514.13,1093.11 1514.13,1142.72"/>
<polyline class="Rest" fill="none" stroke="#000000" stroke-width="4.96" stroke-linecap="square" stroke-linejoin="bevel" points="1962.9,1093.11 1962.9,1142.72"/>
<path class="Rest" transform="matrix(0.992126,0,0,0.992126,2360.99,1031.1)" d="M15,37.5 C18.2969,38.6094 21.5,39.2031 24.5938,39.2031 C30.9063,39.2031 36.7969,36.7969 42,32.2969 C48.4063,26.6094 50.6094,19.0938 50.6094,11.2031 C50.6094,9.40625 50.5,7.5 50.2969,5.70313 C49.7031,0.09375 46.5,-4.29688 40.9063,-6.59375 C39.4063,-7.09375 37.9063,-7.5 36.2969,-7.90625 C42.1094,-14.7969 47,-21.9063 52.1094,-29 C53.4063,-30.7969 54,-32.7969 54,-34.9063 C54,-35.7031 53.9063,-36.6094 53.7031,-37.5 C53.4063,-38.7031 52.9063,-39.2031 52.1094,-39.2031 C51.7969,-39.2031 51.5,-39.1094 51.1094,-39 C48.9063,-38.4063 46.7031,-38.2969 44.5,-38.2969 C39,-38.2969 33.4063,-38.5 27.9063,-38.5 L24,-38.5 C17.9063,-38.5 11.7969,-38.5 5.79688,-37.9063 C3.79688,-37.7031 2.79688,-36.9063 2.5,-34.7969 C2.09375,-32.7969 2.20313,-30.7031 2,-28.6094 C1.90625,-27.2969 2.20313,-26.7031 3.59375,-26.7031 L3.90625,-26.7031 C7.40625,-27 11,-27.2031 14.5938,-27.2031 L41.7969,-27.2031 C36.2969,-19.7969 30.9063,-13.2969 24.5938,-7.5 C20.7969,-4 17.0938,-0.796875 17.0938,4.5 C17.0938,5.40625 17.2031,6.40625 17.5,7.5 L17.5,7.70313 C17.4063,8.5 17.4063,9.40625 18.2969,9.79688 C19,10.0938 19.7031,9.70313 20.2031,9.20313 C22.7969,6.59375 26.2031,5.79688 29.5,5 C30.7031,4.70313 31.9063,4.5 33,4.5 C35.9063,4.5 38.7031,5.5 41.1094,7.5 C42.7031,8.70313 44.7969,10.2031 44.7969,12.4063 C44.7969,12.7969 44.7031,13.0938 44.6094,13.5 C42.7969,19.2969 39.5,23.9063 33.7031,26.1094 C30.7969,27.2031 27.9063,27.7031 25.0938,27.7031 C20.0938,27.7031 15.2031,26.1094 10.5,23.5938 C8.5,22.4063 6.79688,21.5 6.09375,19.0938 C6,18.5938 5.90625,17.2969 4.90625,17.2969 C4.70313,17.2969 4.59375,17.2969 4.40625,17.4063 C3.29688,17.7031 2.5,18.5 2.5,20 C2.29688,23.2969 3.09375,26.2031 3.79688,29.4063 C4.20313,31.1094 5.40625,32.5 7,33.5 C9.59375,35 12.0938,36.5 15,37.5"/>
<path class="Rest" transform="matrix(0.992126,0,0,0.992126,2416.55,1031.1)" d="M27.1094,36 C32.6094,35.2031 38.1094,34.2969 43.1094,31.7969 C52.2969,27.1094 56.5,19.5 56.5,9.29688 C56.5,1.09375 52.1094,-4 45.2969,-4.09375 C43.7031,-4.09375 42.1094,-3.79688 40.2969,-3.29688 C27.2031,0.59375 19.2031,9.59375 16.2031,23.2031 C12.5938,21.7969 9.90625,19.2969 8,15.7969 C7.20313,14.2969 6.79688,12.7031 6.79688,11.0938 C6.79688,10 7,8.79688 7.40625,7.59375 C8.59375,4.09375 10.0938,0.796875 11.5938,-2.59375 C16.4063,-13.0938 24.0938,-20.2969 35.2969,-23.5938 C36.7969,-24.0938 38.4063,-24.5 39.9063,-24.5 C41.7031,-24.5 43.4063,-24 45,-22.7031 C45.4063,-22.2969 45.9063,-22.2031 46.2031,-22.2031 C46.7969,-22.2031 47.2969,-22.5938 47.7031,-23.2969 C48.4063,-24.9063 48.7969,-26.5 48.7969,-28.1094 C48.7969,-29.7969 48.4063,-31.2969 47.5,-32.7969 C46.1094,-35 43.7969,-36.2031 41.2031,-36.2969 C40.7969,-36.2969 40.4063,-36.2969 40,-36.2031 C32.7969,-35.2969 26.4063,-32.2969 20.5938,-28 C15.0938,-23.9063 11.4063,-18.2969 8,-12.2969 C4.20313,-5.70313 2,1.20313 2,8.40625 C2,12 2.5,15.5938 3.70313,19.2969 C5.70313,26 9.09375,31.5 15.7031,34.5 C18.4063,35.7031 21.2031,36.2969 24.0938,36.2969 C25.0938,36.2969 26.1094,36.2031 27.1094,36 M24.4063,24.7969 C23.4063,24.7031 22.2031,25.2031 21.7031,24.4063 C21.0938,23.5938 22.2031,22.7031 22.5938,21.9063 C25.9063,15.4063 31.1094,11 37.7031,8.29688 C39.6094,7.5 41.4063,7.09375 43.2031,7.20313 C45.5,7.20313 47.7031,7.79688 49.7969,9.20313 C50.7969,9.90625 51.4063,10.5938 51.4063,11.5938 C51.4063,12.2031 51.2031,12.7969 50.7031,13.5938 C47.9063,17.9063 44,20.7969 39.1094,22.2969 C34.5,23.7031 29.7031,24.5938 24.9063,24.7969 L24.4063,24.7969 "/>
<polyline class="Rest" fill="none" stroke="#000000" stroke-width="17.36" stroke-linecap="square" stroke-linejoin="bevel" points="2048.96,1117.91 2782.67,1117.91"/>
<polyline class="Rest" fill="none" stroke="#000000" stroke-width="4.96" stroke-linecap="square" stroke-linejoin="bevel" points="2040.28,1093.11 2040.28,1142.72"/>
<polyline class="Rest" fill="none" stroke="#000000" stroke-width="4.96" stroke-linecap="square" stroke-linejoin="bevel" points="2791.35,1093.11 2791.35,1142.72"/>
<path class="Articulation" transform="matrix(0.992126,0,0,0.992126,881.279,356.751)" d="M6.79688,0 C7.59375,0 8.5,-0.5 9.20313,-1.59375 C10.4063,-3.5 11.2031,-5.5 11.2031,-7.79688 C11.2031,-8.59375 11.2031,-9.5 11,-10.2969 C10.7031,-11.5938 9.09375,-11.5938 8.70313,-12.9063 C8.09375,-14.9063 5.90625,-15 4.40625,-15.5938 C3.09375,-15.4063 2.09375,-15.2031 1.59375,-13.7031 C0.796875,-11.2969 0.796875,-8.79688 0.203125,-6.29688 C0,-5.5 0.296875,-4.79688 1.29688,-4.59375 C2.79688,-4.29688 3.70313,-3.20313 4.5,-1.90625 C5.29688,-0.59375 6.09375,0 6.79688,0"/>
<path class="Articulation" transform="matrix(0.992126,0,0,0.992126,991.464,331.948)" d="M6.79688,0 C7.59375,0 8.5,-0.5 9.20313,-1.59375 C10.4063,-3.5 11.2031,-5.5 11.2031,-7.79688 C11.2031,-8.59375 11.2031,-9.5 11,-10.2969 C10.7031,-11.5938 9.09375,-11.5938 8.70313,-12.9063 C8.09375,-14.9063 5.90625,-15 4.40625,-15.5938 C3.09375,-15.4063 2.09375,-15.2031 1.59375,-13.7031 C0.796875,-11.2969 0.796875,-8.79688 0.203125,-6.29688 C0,-5.5 0.296875,-4.79688 1.29688,-4.59375 C2.79688,-4.29688 3.70313,-3.20313 4.5,-1.90625 C5.29688,-0.59375 6.09375,0 6.79688,0"/>
<path class="Articulation" transform="matrix(0.992126,0,0,0.992126,2176,406.358)" d="M6.79688,0 C7.59375,0 8.5,-0.5 9.20313,-1.59375 C10.4063,-3.5 11.2031,-5.5 11.2031,-7.79688 C11.2031,-8.59375 11.2031,-9.5 11,-10.2969 C10.7031,-11.5938 9.09375,-11.5938 8.70313,-12.9063 C8.09375,-14.9063 5.90625,-15 4.40625,-15.5938 C3.09375,-15.4063 2.09375,-15.2031 1.59375,-13.7031 C0.796875,-11.2969 0.796875,-8.79688 0.203125,-6.29688 C0,-5.5 0.296875,-4.79688 1.29688,-4.59375 C2.79688,-4.29688 3.70313,-3.20313 4.5,-1.90625 C5.29688,-0.59375 6.09375,0 6.79688,0"/>
<path class="Articulation" transform="matrix(0.992126,0,0,0.992126,2674,356.751)" d="M6.79688,0 C7.59375,0 8.5,-0.5 9.20313,-1.59375 C10.4063,-3.5 11.2031,-5.5 11.2031,-7.79688 C11.2031,-8.59375 11.2031,-9.5 11,-10.2969 C10.7031,-11.5938 9.09375,-11.5938 8.70313,-12.9063 C8.09375,-14.9063 5.90625,-15 4.40625,-15.5938 C3.09375,-15.4063 2.09375,-15.2031 1.59375,-13.7031 C0.796875,-11.2969 0.796875,-8.79688 0.203125,-6.29688 C0,-5.5 0.296875,-4.79688 1.29688,-4.59375 C2.79688,-4.29688 3.70313,-3.20313 4.5,-1.90625 C5.29688,-0.59375 6.09375,0 6.79688,0"/>
<path class="Articulation" transform="matrix(0.992126,0,0,0.992126,2784.19,331.948)" d="M6.79688,0 C7.59375,0 8.5,-0.5 9.20313,-1.59375 C10.4063,-3.5 11.2031,-5.5 11.2031,-7.79688 C11.2031,-8.59375 11.2031,-9.5 11,-10.2969 C10.7031,-11.5938 9.09375,-11.5938 8.70313,-12.9063 C8.09375,-14.9063 5.90625,-15 4.40625,-15.5938 C3.09375,-15.4063 2.09375,-15.2031 1.59375,-13.7031 C0.796875,-11.2969 0.796875,-8.79688 0.203125,-6.29688 C0,-5.5 0.296875,-4.79688 1.29688,-4.59375 C2.79688,-4.29688 3.70313,-3.20313 4.5,-1.90625 C5.29688,-0.59375 6.09375,0 6.79688,0"/>
<path class="Beam" fill-rule="evenodd" d="M817.938,454.386 L873.16,447.832 L873.16,460.32 L817.938,466.874 L817.938,454.386 "/>
<path class="Beam" fill-rule="evenodd" d="M922.43,429.591 L983.345,423.071 L983.345,435.544 L922.43,442.063 L922.43,429.591 "/>
<path class="Beam" fill-rule="evenodd" d="M1927.07,503.977 L1975.2,497.368 L1975.2,509.886 L1927.07,516.495 L1927.07,503.977 "/>
<path class="Beam" fill-rule="evenodd" d="M2119.76,503.977 L2167.88,497.368 L2167.88,509.886 L2119.76,516.495 L2119.76,503.977 "/>
<path class="Beam" fill-rule="evenodd" d="M2610.66,454.386 L2665.89,447.832 L2665.89,460.32 L2610.66,466.874 L2610.66,454.386 "/>
<path class="Beam" fill-rule="evenodd" d="M2715.16,429.591 L2776.07,423.071 L2776.07,435.544 L2715.16,442.063 L2715.16,429.591 "/>
<path class="Jump" d="M2598.69,1019.03 C2595.65,1019.03 2592.43,1018.84 2589.03,1018.45 L2589.03,978.67 C2590.72,978.336 2592.49,978.073 2594.35,977.88 C2596.2,977.688 2597.98,977.591 2599.68,977.591 C2606.43,977.591 2611.5,979.302 2614.89,982.724 C2618.28,986.146 2619.97,991.357 2619.97,998.357 C2619.97,1005.45 2618.21,1010.67 2614.68,1014.01 C2611.16,1017.36 2605.83,1019.03 2598.69,1019.03 M2599.57,1015.22 C2603.13,1015.22 2606.07,1014.64 2608.4,1013.48 C2610.73,1012.33 2612.47,1010.51 2613.64,1008.02 C2614.8,1005.54 2615.38,1002.32 2615.38,998.357 C2615.38,992.492 2614.11,988.203 2611.56,985.49 C2609.01,982.776 2605.1,981.42 2599.82,981.42 C2597.89,981.42 2595.78,981.591 2593.49,981.935 L2593.49,1014.86 C2595.32,1015.1 2597.35,1015.22 2599.57,1015.22 M2627.72,1019.06 C2626.78,1019.06 2626.02,1018.78 2625.43,1018.23 C2624.84,1017.68 2624.55,1016.94 2624.55,1016.01 C2624.55,1015.08 2624.84,1014.33 2625.42,1013.76 C2626,1013.2 2626.76,1012.92 2627.72,1012.92 C2628.67,1012.92 2629.44,1013.21 2630.03,1013.78 C2630.62,1014.35 2630.91,1015.1 2630.91,1016.01 C2630.91,1016.93 2630.62,1017.67 2630.03,1018.22 C2629.44,1018.78 2628.67,1019.06 2627.72,1019.06 M2647.1,1019.22 C2645.45,1019.22 2643.76,1019.08 2642.01,1018.79 C2640.27,1018.51 2638.62,1018.11 2637.07,1017.58 L2637.07,1013.72 C2638.71,1014.29 2640.4,1014.71 2642.14,1014.99 C2643.87,1015.27 2645.55,1015.4 2647.16,1015.4 C2653.77,1015.4 2657.08,1012.92 2657.08,1007.95 C2657.08,1006.58 2656.81,1005.42 2656.27,1004.5 C2655.73,1003.57 2654.87,1002.79 2653.71,1002.16 C2652.54,1001.53 2650.96,1000.96 2648.97,1000.45 L2646.77,999.873 C2643.29,998.966 2640.7,997.62 2638.99,995.834 C2637.28,994.047 2636.43,991.696 2636.43,988.779 C2636.43,986.435 2636.97,984.417 2638.07,982.724 C2639.16,981.032 2640.78,979.735 2642.93,978.834 C2645.08,977.933 2647.75,977.482 2650.93,977.482 C2652.5,977.482 2654.06,977.589 2655.6,977.802 C2657.14,978.016 2658.54,978.321 2659.8,978.716 L2659.8,982.576 C2657.05,981.732 2654.13,981.31 2651.05,981.31 C2647.62,981.31 2645.08,981.927 2643.43,983.162 C2641.77,984.396 2640.94,986.18 2640.94,988.513 C2640.94,989.847 2641.18,990.972 2641.67,991.888 C2642.15,992.805 2642.94,993.581 2644.02,994.216 C2645.1,994.852 2646.58,995.414 2648.44,995.904 L2650.64,996.451 C2654.43,997.409 2657.19,998.787 2658.95,1000.58 C2660.7,1002.38 2661.58,1004.74 2661.58,1007.67 C2661.58,1010.11 2661.01,1012.19 2659.88,1013.91 C2658.74,1015.64 2657.09,1016.95 2654.93,1017.86 C2652.77,1018.76 2650.16,1019.22 2647.1,1019.22 M2669.72,1019.06 C2668.78,1019.06 2668.02,1018.78 2667.43,1018.23 C2666.84,1017.68 2666.55,1016.94 2666.55,1016.01 C2666.55,1015.08 2666.84,1014.33 2667.42,1013.76 C2668,1013.2 2668.76,1012.92 2669.72,1012.92 C2670.67,1012.92 2671.44,1013.21 2672.03,1013.78 C2672.62,1014.35 2672.91,1015.1 2672.91,1016.01 C2672.91,1016.93 2672.62,1017.67 2672.03,1018.22 C2671.44,1018.78 2670.67,1019.06 2669.72,1019.06 M2702.43,988.404 C2705.03,988.404 2707.17,988.742 2708.83,989.42 C2710.5,990.097 2711.75,991.224 2712.6,992.802 C2713.44,994.38 2713.86,996.498 2713.86,999.154 L2713.86,1018.7 L2710.18,1018.7 L2709.85,1015.37 L2709.55,1015.37 C2708.59,1016.58 2707.36,1017.52 2705.85,1018.19 C2704.34,1018.86 2702.7,1019.2 2700.94,1019.2 C2699.09,1019.2 2697.48,1018.88 2696.13,1018.22 C2694.77,1017.57 2693.74,1016.63 2693.01,1015.4 C2692.29,1014.17 2691.93,1012.73 2691.93,1011.06 C2691.93,1008.41 2692.79,1006.37 2694.51,1004.94 C2696.24,1003.5 2698.97,1002.6 2702.72,1002.23 L2709.55,1001.48 L2709.55,998.935 C2709.55,997.154 2709.27,995.758 2708.71,994.748 C2708.16,993.737 2707.32,993.026 2706.21,992.615 C2705.11,992.203 2703.65,991.998 2701.85,991.998 C2700.62,991.998 2699.3,992.11 2697.9,992.334 C2696.5,992.558 2695.13,992.893 2693.8,993.341 L2693.8,989.716 C2695.02,989.3 2696.41,988.977 2697.97,988.748 C2699.53,988.518 2701.02,988.404 2702.43,988.404 M2702.03,1015.78 C2703.45,1015.78 2704.81,1015.49 2706.11,1014.9 C2707.42,1014.32 2708.56,1013.4 2709.55,1012.15 L2709.55,1004.45 L2703.03,1005.17 C2700.7,1005.41 2699.01,1005.98 2697.96,1006.88 C2696.9,1007.78 2696.38,1009.03 2696.38,1010.64 C2696.38,1012.33 2696.86,1013.6 2697.81,1014.47 C2698.76,1015.34 2700.17,1015.78 2702.03,1015.78 M2721.55,1018.7 L2721.55,974.263 L2725.94,974.263 L2725.94,1018.7 L2721.55,1018.7 M2773,981.826 L2752.49,981.826 L2752.49,996.232 L2770.32,996.232 L2770.32,1000.09 L2752.49,1000.09 L2752.49,1018.7 L2748.03,1018.7 L2748.03,978.013 L2773,978.013 L2773,981.826 M2778.55,1018.7 L2778.55,988.873 L2782.94,988.873 L2782.94,1018.7 L2778.55,1018.7 M2780.75,982.404 C2779.75,982.404 2778.99,982.162 2778.46,981.677 C2777.93,981.193 2777.66,980.508 2777.66,979.623 C2777.66,978.748 2777.93,978.063 2778.47,977.568 C2779.01,977.073 2779.77,976.826 2780.75,976.826 C2781.72,976.826 2782.47,977.073 2783,977.568 C2783.53,978.063 2783.8,978.748 2783.8,979.623 C2783.8,980.508 2783.53,981.193 2783,981.677 C2782.47,982.162 2781.72,982.404 2780.75,982.404 M2791.55,988.873 L2795.25,988.873 L2795.57,992.248 L2795.86,992.248 C2797.09,990.998 2798.51,990.045 2800.11,989.388 C2801.72,988.732 2803.43,988.404 2805.24,988.404 C2808.23,988.404 2810.57,989.242 2812.26,990.92 C2813.95,992.597 2814.8,995.284 2814.8,998.982 L2814.8,1018.7 L2810.41,1018.7 L2810.41,999.185 C2810.41,996.748 2809.87,994.995 2808.8,993.927 C2807.73,992.86 2806.18,992.326 2804.16,992.326 C2802.68,992.326 2801.2,992.649 2799.71,993.295 C2798.23,993.94 2796.97,994.94 2795.94,996.295 L2795.94,1018.7 L2791.55,1018.7 L2791.55,988.873 M2844.55,1005.25 L2825.44,1005.25 C2825.51,1007.77 2825.93,1009.79 2826.69,1011.31 C2827.45,1012.83 2828.56,1013.93 2830.03,1014.61 C2831.49,1015.28 2833.36,1015.62 2835.63,1015.62 C2837.8,1015.62 2840.27,1015.22 2843.07,1014.4 L2843.07,1018.01 C2840.35,1018.82 2837.7,1019.22 2835.11,1019.22 C2830.36,1019.22 2826.82,1017.99 2824.48,1015.54 C2822.14,1013.08 2820.97,1009.16 2820.97,1003.76 C2820.97,998.649 2822.03,994.81 2824.15,992.248 C2826.27,989.685 2829.24,988.404 2833.05,988.404 C2836.77,988.404 2839.62,989.683 2841.59,992.24 C2843.56,994.797 2844.55,998.675 2844.55,1003.87 L2844.55,1005.25 M2832.99,991.623 C2830.59,991.623 2828.75,992.446 2827.47,994.091 C2826.19,995.737 2825.51,998.451 2825.44,1002.23 L2840.32,1002.23 C2840.23,998.44 2839.58,995.724 2838.36,994.084 C2837.14,992.443 2835.35,991.623 2832.99,991.623"/>
<path class="RehearsalMark" fill="none" stroke="#000000" stroke-width="3.97" stroke-linecap="square" stroke-linejoin="miter" stroke-miterlimit="2" fill-rule="evenodd" d="M374.897,237.783 L456.669,237.783 L456.669,319.554 L374.897,319.554 L374.897,237.783 "/>
<path class="RehearsalMark" d="M425.892,277.809 C428.903,278.455 431.246,279.796 432.923,281.832 C434.6,283.869 435.439,286.543 435.439,289.856 C435.439,293.116 434.606,295.846 432.939,298.043 C431.272,300.241 428.587,301.911 424.884,303.051 C421.181,304.192 416.304,304.762 410.251,304.762 C408.095,304.762 405.699,304.668 403.064,304.481 C400.429,304.293 398.033,304.054 395.876,303.762 L395.876,254.247 C398.293,253.715 400.949,253.288 403.845,252.965 C406.741,252.642 409.543,252.481 412.251,252.481 C419.804,252.481 425.322,253.65 428.806,255.989 C432.291,258.327 434.033,261.898 434.033,266.7 C434.033,269.418 433.319,271.765 431.892,273.739 C430.465,275.713 428.465,277.069 425.892,277.809 M413.673,260.668 C411.371,260.668 409.106,260.872 406.876,261.278 L406.876,273.872 L414.126,273.872 C417.481,273.872 419.876,273.338 421.314,272.27 C422.751,271.202 423.47,269.543 423.47,267.293 C423.47,265.721 423.147,264.452 422.501,263.489 C421.856,262.525 420.822,261.814 419.4,261.356 C417.978,260.898 416.069,260.668 413.673,260.668 M413.22,296.543 C416.189,296.543 418.53,296.286 420.244,295.77 C421.957,295.254 423.181,294.478 423.916,293.442 C424.65,292.405 425.017,291.059 425.017,289.403 C425.017,286.924 424.254,285.119 422.728,283.989 C421.202,282.859 418.699,282.293 415.22,282.293 L406.876,282.293 L406.876,296.262 C408.606,296.45 410.72,296.543 413.22,296.543"/>
<path class="RehearsalMark" fill="none" stroke="#000000" stroke-width="3.97" stroke-linecap="square" stroke-linejoin="miter" stroke-miterlimit="2" fill-rule="evenodd" d="M1969.63,927.512 L2051.41,927.512 L2051.41,1009.28 L1969.63,1009.28 L1969.63,927.512 "/>
<path class="RehearsalMark" d="M2018.08,994.554 C2009.34,994.554 2002.71,992.445 1998.18,988.226 C1993.64,984.007 1991.38,977.424 1991.38,968.476 C1991.38,959.778 1993.71,953.221 1998.39,948.804 C2003.06,944.387 2009.81,942.179 2018.64,942.179 C2022.57,942.179 2026.22,942.58 2029.58,943.382 L2029.58,952.632 C2026.24,951.851 2022.88,951.46 2019.5,951.46 C2015.77,951.46 2012.71,952.036 2010.32,953.187 C2007.93,954.338 2006.14,956.15 2004.96,958.624 C2003.77,961.098 2003.18,964.335 2003.18,968.335 C2003.18,972.429 2003.76,975.718 2004.94,978.202 C2006.12,980.687 2007.87,982.486 2010.19,983.601 C2012.51,984.715 2015.49,985.273 2019.13,985.273 C2022.39,985.273 2025.87,984.731 2029.58,983.648 L2029.58,992.929 C2027.93,993.439 2026.1,993.838 2024.11,994.124 C2022.12,994.411 2020.11,994.554 2018.08,994.554"/>
<path class="Page" d="M240.672,247.208 L240.672,254.598 L213.906,254.598 L213.906,249.786 L225.188,235.739 C226.896,233.593 228.107,231.768 228.82,230.262 C229.534,228.757 229.891,227.338 229.891,226.005 C229.891,224.13 229.305,222.757 228.133,221.887 C226.961,221.018 225.063,220.583 222.438,220.583 C220.865,220.583 219.289,220.726 217.711,221.012 C216.133,221.299 214.693,221.687 213.391,222.177 L213.391,214.895 C214.651,214.458 216.214,214.096 218.078,213.809 C219.943,213.523 221.708,213.38 223.375,213.38 C228.51,213.38 232.357,214.328 234.914,216.223 C237.471,218.119 238.75,221.088 238.75,225.13 C238.729,227.265 238.279,229.369 237.398,231.442 C236.518,233.515 235.021,235.833 232.906,238.395 L225.703,247.208 L240.672,247.208 "/>
</svg>
