<svg id="Capa_2" data-name="Capa 2" xmlns="http://www.w3.org/2000/svg" viewBox="0 0 1603 483"><defs><style>.cls-1,.cls-2,.cls-6{fill:#fff;}.cls-2,.cls-3,.cls-4{stroke:#000;stroke-miterlimit:10;}.cls-2{stroke-width:3.96px;}.cls-3,.cls-4,.cls-5{fill:none;}.cls-3{stroke-width:5.28px;}.cls-4{stroke-width:3.17px;}.cls-6{font-size:262.22px;font-family:EncodeSans-SemiBold, Encode Sans;font-weight:600;}.cls-7{letter-spacing:0.01em;}.cls-8,.cls-9{font-family:EncodeSans-ExtraBold, Encode Sans;font-weight:800;fill:#000;}.cls-8{letter-spacing:-0.01em;}</style></defs><path d="M129.31,115.35c0-.11,0-.24,0-.36s0-.1,0-.14a14.4,14.4,0,0,1,.8-6.27,11.87,11.87,0,0,1,4.14-5.71,13.74,13.74,0,0,1,4.63-2.23c-.13-.38-.26-.77-.36-1.17a14.83,14.83,0,0,1-.15-8,9,9,0,0,1,1.54-3.15,11,11,0,0,1,2.67-2.75,16.28,16.28,0,0,1,4.09-2.11l.11,0a12.18,12.18,0,0,1-1-4.55,11,11,0,0,1,2-6.6,17.82,17.82,0,0,1,7.47-5.71l1-.43a6,6,0,0,1-.11-4.64,16,16,0,0,1,2.51-4.56l.39-.49c.54-.66,1-1.28,1.51-1.93a1.25,1.25,0,0,0-.14-1.64c-.13-.15-.27-.28-.4-.41a5.14,5.14,0,0,1-1.22-1.59,3.59,3.59,0,0,1-.39-1.06,2.22,2.22,0,0,1,1.57-2.61,5.72,5.72,0,0,1,1.65-.23,12,12,0,0,1,1.95.2,22.07,22.07,0,0,1,6.11,2,22.9,22.9,0,0,1,6,4l.41.37c.79.69,1.61,1.41,2.39,2.2A24.6,24.6,0,0,1,184,62.85a12.27,12.27,0,0,1,1.29,5.59,7.92,7.92,0,0,1-.26,1.74,14.1,14.1,0,0,1,2.9.69,8.88,8.88,0,0,1,5.47,4.71,9.92,9.92,0,0,1,.75,5.4,14.2,14.2,0,0,1-.26,1.74,16.27,16.27,0,0,1,5,2.74,11.38,11.38,0,0,1,3.61,4.79,12.3,12.3,0,0,1,.74,6.14,15.83,15.83,0,0,1-1,4.2,14.11,14.11,0,0,1,1.93.86,16.51,16.51,0,0,1,5.32,4.21,10.8,10.8,0,0,1,2.06,4.17,11.82,11.82,0,0,1-.07,5.54l-.34,1.55-1.46-.62a98.76,98.76,0,0,0-78.5,0l-1.55.66Z"/><path d="M161.59,48.27a11.41,11.41,0,0,1,1.74.18,21.06,21.06,0,0,1,5.75,1.87,21.9,21.9,0,0,1,5.68,3.78c.92.82,1.87,1.63,2.77,2.53a23.54,23.54,0,0,1,5.25,6.78,11,11,0,0,1,1.16,5,7.82,7.82,0,0,1-.71,2.85.29.29,0,0,0,.29.16h.1a12.09,12.09,0,0,1,3.86.71,7.65,7.65,0,0,1,4.7,4,8.82,8.82,0,0,1,.63,4.7,13.18,13.18,0,0,1-.45,2.48c-.05.21,0,.32.26.4A15.36,15.36,0,0,1,198,86.48a10.13,10.13,0,0,1,3.22,4.25,11.1,11.1,0,0,1,.66,5.51,16.83,16.83,0,0,1-1.29,4.75c-.11.29-.08.4.21.5a19.66,19.66,0,0,1,2.64,1.11,15.24,15.24,0,0,1,4.93,3.88,9.68,9.68,0,0,1,1.83,3.67,10.81,10.81,0,0,1-.08,4.93,100.26,100.26,0,0,0-79.54,0c0-.15,0-.34-.05-.5a12.91,12.91,0,0,1,.74-5.62,10.53,10.53,0,0,1,3.69-5.09,12.37,12.37,0,0,1,4.35-2.06c.4-.1.77-.16,1.24-.26-.31-.85-.63-1.64-.84-2.46a13.63,13.63,0,0,1-.16-7.33,7.73,7.73,0,0,1,1.32-2.72,10.12,10.12,0,0,1,2.38-2.46,14.83,14.83,0,0,1,3.77-1.95c.47-.16.95-.34,1.45-.5A11.29,11.29,0,0,0,148,83a10.85,10.85,0,0,1-.92-4.15,9.58,9.58,0,0,1,1.77-5.8,16.28,16.28,0,0,1,6.94-5.28c.79-.37,1.61-.66,2.45-1a11.19,11.19,0,0,1-.68-.95,4.62,4.62,0,0,1-.16-3.88,14.86,14.86,0,0,1,2.29-4.17c.66-.82,1.32-1.61,1.93-2.45a2.53,2.53,0,0,0-.24-3.3A7.14,7.14,0,0,1,160,50.3a3,3,0,0,1-.29-.77.91.91,0,0,1,.64-1.08,4.42,4.42,0,0,1,1.29-.18m0-2.64a6.8,6.8,0,0,0-2,.29,3.55,3.55,0,0,0-2.47,4.15,5.6,5.6,0,0,0,.52,1.43,6.84,6.84,0,0,0,1.46,1.89l.34.34,0,0c-.44.61-.93,1.21-1.44,1.84l-.37.46,0,0,0,0a17.43,17.43,0,0,0-2.7,4.92,8,8,0,0,0-.31,4.36,18.94,18.94,0,0,0-7.9,6.12,12.22,12.22,0,0,0-2.25,7.36,13.47,13.47,0,0,0,.62,3.78,16.76,16.76,0,0,0-3.28,1.84,12.78,12.78,0,0,0-3,3.06,10.44,10.44,0,0,0-1.73,3.6,16.11,16.11,0,0,0,.15,8.64,14.42,14.42,0,0,0-3.78,2,13.15,13.15,0,0,0-4.6,6.35,15.56,15.56,0,0,0-.87,6.72v.21c0,.16,0,.32.06.47l.54,3.33,3.1-1.33a97.47,97.47,0,0,1,77.46,0l2.92,1.25.69-3.11a13.17,13.17,0,0,0,.07-6.11,12.12,12.12,0,0,0-2.31-4.69,17.67,17.67,0,0,0-5.74-4.56c-.3-.17-.6-.32-.89-.45a17.23,17.23,0,0,0,.69-3.35,13.65,13.65,0,0,0-.84-6.75,12.72,12.72,0,0,0-4-5.31,16.79,16.79,0,0,0-4.36-2.55q.06-.37.09-.78a11.14,11.14,0,0,0-.85-6.06,10.3,10.3,0,0,0-6.22-5.41c-.63-.21-1.24-.38-1.82-.52,0-.21,0-.42,0-.64a13.44,13.44,0,0,0-1.41-6.17,25.93,25.93,0,0,0-5.79-7.55c-.81-.81-1.64-1.54-2.44-2.25l-.41-.36a24.36,24.36,0,0,0-6.31-4.2,23.41,23.41,0,0,0-6.48-2.1,13.62,13.62,0,0,0-2.15-.21Z"/><path class="cls-1" d="M187,91a6.88,6.88,0,0,1-1.87,4.74,3.19,3.19,0,0,1-4.77,0,6.58,6.58,0,0,1-1.8-4.13A7.6,7.6,0,0,1,180,85.85a3.3,3.3,0,0,1,5.5,0,5.93,5.93,0,0,1,.77,1.23A9.29,9.29,0,0,1,187,91Z"/><path class="cls-1" d="M153.89,90.67a7.09,7.09,0,0,1,1.85-5,3.2,3.2,0,0,1,4.92.12,7,7,0,0,1,1.7,4.45,8,8,0,0,1-1,4.6,6.23,6.23,0,0,1-.73,1,3.25,3.25,0,0,1-5.11-.16A7.46,7.46,0,0,1,153.89,90.67Z"/><ellipse class="cls-2" cx="170.43" cy="270.49" rx="118.75" ry="153.06"/><path class="cls-3" d="M297.1,270.49c0,90.35-56.71,163.61-126.67,163.61S43.76,360.84,43.76,270.49c0-71,35.05-131.47,84-154.09,1-.45,1.9-.87,2.85-1.27a100.26,100.26,0,0,1,79.54,0c.87.37,1.74.74,2.61,1.16C261.89,138.73,297.1,199.29,297.1,270.49Z"/><line class="cls-4" x1="53" y1="270.49" x2="289.18" y2="270.49"/><line class="cls-4" x1="53" y1="288.96" x2="287.86" y2="288.96"/><line class="cls-4" x1="55.64" y1="307.43" x2="285.22" y2="307.43"/><line class="cls-4" x1="53" y1="252.01" x2="287.86" y2="252.01"/><line class="cls-4" x1="54.32" y1="233.54" x2="286.54" y2="233.54"/><rect class="cls-5" x="0.22" width="337.78" height="482.92"/><path d="M77.77,243.57l-.46,21c2.91-3.32,3.61-3.61,6.29-3.61C88,261,91,264,91,268.52c0,6.48-6.59,9.33-11.66,13.42l-4.08,3.26V243.57Zm-.46,32.07a16.52,16.52,0,0,0,.58,5c5.54-4.43,8.28-8.45,8.28-12,0-2.8-1.69-5.13-4.31-5.13-2,0-3,2.28-4.09,4C77.48,271.73,77.31,274.47,77.31,275.64Z"/><text class="cls-6" transform="translate(337.68 322.22)">ba<tspan class="cls-7" x="299.05" y="0">r</tspan><tspan x="402.62" y="0">ba</tspan><tspan class="cls-8" x="701.68" y="0">c</tspan><tspan class="cls-9" x="830.29" y="0">oaj</tspan></text></svg>