<?xml version="1.0" encoding="UTF-8" standalone="no"?>
<svg width="3060px" height="3960px" viewBox="0 0 3060 3960"
 xmlns="http://www.w3.org/2000/svg" xmlns:xlink="http://www.w3.org/1999/xlink" version="1.2" baseProfile="tiny">
<title>Piano (4)</title>
<desc>Generated by MuseScore 4.2.1</desc>
<path class="" fill="#ffffff" fill-rule="evenodd" d="M0,0 L3060,0 L3060,3960 L0,3960 L0,0 "/>
<polyline class="StaffLines" fill="none" stroke="#000000" stroke-width="3.22" stroke-linejoin="bevel" points="212.598,426.167 2847.4,426.167"/>
<polyline class="StaffLines" fill="none" stroke="#000000" stroke-width="3.22" stroke-linejoin="bevel" points="212.598,450.967 2847.4,450.967"/>
<polyline class="StaffLines" fill="none" stroke="#000000" stroke-width="3.22" stroke-linejoin="bevel" points="212.598,475.767 2847.4,475.767"/>
<polyline class="StaffLines" fill="none" stroke="#000000" stroke-width="3.22" stroke-linejoin="bevel" points="212.598,500.567 2847.4,500.567"/>
<polyline class="StaffLines" fill="none" stroke="#000000" stroke-width="3.22" stroke-linejoin="bevel" points="212.598,525.367 2847.4,525.367"/>
<path class="MeasureNumber" d="M214.817,363.629 L218.661,348.129 L232.145,348.129 L231.989,349.16 L219.473,349.16 L216.473,361.238 C217.4,360.415 218.385,359.796 219.426,359.379 C220.468,358.962 221.932,358.728 223.817,358.676 C226.098,358.613 227.854,359.389 229.083,361.004 C230.312,362.619 230.729,364.785 230.333,367.504 C229.874,370.514 228.843,372.845 227.239,374.496 C225.635,376.147 223.39,376.973 220.505,376.973 C218.275,376.973 216.479,376.311 215.114,374.988 C213.749,373.665 213.286,371.728 213.723,369.176 L213.77,369.082 L214.708,369.082 C214.354,371.415 214.713,373.139 215.786,374.254 C216.859,375.369 218.484,375.926 220.661,375.926 C223.098,375.926 225.033,375.217 226.466,373.801 C227.898,372.384 228.822,370.296 229.239,367.535 C229.614,365.056 229.32,363.147 228.356,361.809 C227.393,360.47 225.838,359.801 223.692,359.801 C221.682,359.801 220.002,360.152 218.653,360.856 C217.304,361.559 216.281,362.587 215.583,363.941 L214.817,363.629 M241.52,375.926 C243.729,375.926 245.627,375.178 247.216,373.684 C248.804,372.189 249.791,370.165 250.176,367.613 L251.005,362.02 C250.088,363.374 248.911,364.418 247.473,365.152 C246.036,365.887 244.479,366.254 242.801,366.254 C240.437,366.254 238.583,365.379 237.239,363.629 C235.895,361.879 235.411,359.759 235.786,357.27 C236.203,354.478 237.338,352.189 239.192,350.402 C241.046,348.616 243.229,347.723 245.739,347.723 C248.208,347.723 250.132,348.595 251.512,350.34 C252.893,352.085 253.338,354.556 252.848,357.754 L251.395,367.582 C250.926,370.613 249.794,372.936 247.997,374.551 C246.2,376.165 243.989,376.973 241.364,376.973 C240.468,376.973 239.551,376.866 238.614,376.652 C237.676,376.439 236.744,376.134 235.817,375.738 L236.286,374.77 C237.088,375.186 237.887,375.483 238.684,375.66 C239.481,375.837 240.426,375.926 241.52,375.926 M242.958,365.223 C244.812,365.223 246.481,364.691 247.966,363.629 C249.45,362.566 250.572,361.29 251.333,359.801 L251.645,357.77 C252.104,354.78 251.768,352.533 250.637,351.027 C249.507,349.522 247.843,348.77 245.645,348.77 C243.551,348.77 241.671,349.619 240.005,351.316 C238.338,353.014 237.333,354.999 236.989,357.27 C236.645,359.551 237.002,361.447 238.059,362.957 C239.117,364.467 240.749,365.223 242.958,365.223"/>
<path class="TieSegment" stroke="#000000" stroke-width="2.48" stroke-linecap="round" stroke-linejoin="round" fill-rule="evenodd" d="M2365.11,509.398 C2383.12,519.452 2437.15,519.452 2455.16,509.398 C2437.15,524.977 2383.12,524.977 2365.11,509.398"/>
<path class="TieSegment" stroke="#000000" stroke-width="2.48" stroke-linecap="round" stroke-linejoin="round" fill-rule="evenodd" d="M1369.08,509.398 C1387.09,519.452 1441.12,519.452 1459.13,509.398 C1441.12,524.977 1387.09,524.977 1369.08,509.398"/>
<polyline class="BarLine" fill="none" stroke="#000000" stroke-width="3.97" stroke-linejoin="bevel" points="2823.1,424.555 2823.1,526.979"/>
<polyline class="BarLine" fill="none" stroke="#000000" stroke-width="12.40" stroke-linejoin="bevel" points="2841.2,424.555 2841.2,526.979"/>
<polyline class="BarLine" fill="none" stroke="#000000" stroke-width="3.97" stroke-linejoin="bevel" points="1660.8,424.555 1660.8,526.979"/>
<polyline class="Stem" fill="none" stroke="#000000" stroke-width="2.98" stroke-linejoin="bevel" points="1381.68,481.024 1381.68,407.566"/>
<polyline class="Stem" fill="none" stroke="#000000" stroke-width="2.98" stroke-linejoin="bevel" points="2235.19,493.424 2235.19,407.566"/>
<polyline class="Stem" fill="none" stroke="#000000" stroke-width="2.98" stroke-linejoin="bevel" points="431.575,481.024 431.575,407.566"/>
<polyline class="Stem" fill="none" stroke="#000000" stroke-width="2.98" stroke-linejoin="bevel" points="1144.15,481.024 1144.15,407.566"/>
<polyline class="Stem" fill="none" stroke="#000000" stroke-width="2.98" stroke-linejoin="bevel" points="1476.69,481.024 1476.69,407.566"/>
<polyline class="Stem" fill="none" stroke="#000000" stroke-width="2.98" stroke-linejoin="bevel" points="526.585,481.024 526.585,407.566"/>
<polyline class="Stem" fill="none" stroke="#000000" stroke-width="2.98" stroke-linejoin="bevel" points="2140.18,481.024 2140.18,407.566"/>
<polyline class="Stem" fill="none" stroke="#000000" stroke-width="2.98" stroke-linejoin="bevel" points="621.596,481.024 621.596,407.566"/>
<polyline class="Stem" fill="none" stroke="#000000" stroke-width="2.98" stroke-linejoin="bevel" points="1997.66,493.424 1997.66,418.131"/>
<polyline class="Stem" fill="none" stroke="#000000" stroke-width="2.98" stroke-linejoin="bevel" points="2757.75,518.224 2757.75,413.734"/>
<polyline class="Stem" fill="none" stroke="#000000" stroke-width="2.98" stroke-linejoin="bevel" points="716.606,493.424 716.606,407.566"/>
<polyline class="Stem" fill="none" stroke="#000000" stroke-width="2.98" stroke-linejoin="bevel" points="1286.67,493.424 1286.67,407.566"/>
<polyline class="Stem" fill="none" stroke="#000000" stroke-width="2.98" stroke-linejoin="bevel" points="2662.74,493.424 2662.74,411.689"/>
<polyline class="Stem" fill="none" stroke="#000000" stroke-width="2.98" stroke-linejoin="bevel" points="811.616,481.024 811.616,407.614"/>
<polyline class="Stem" fill="none" stroke="#000000" stroke-width="2.98" stroke-linejoin="bevel" points="2567.73,481.024 2567.73,409.644"/>
<polyline class="Stem" fill="none" stroke="#000000" stroke-width="2.98" stroke-linejoin="bevel" points="2472.72,481.024 2472.72,407.599"/>
<polyline class="Stem" fill="none" stroke="#000000" stroke-width="2.98" stroke-linejoin="bevel" points="906.627,481.024 906.627,410.666"/>
<polyline class="Stem" fill="none" stroke="#000000" stroke-width="2.98" stroke-linejoin="bevel" points="2377.71,481.024 2377.71,407.566"/>
<polyline class="Stem" fill="none" stroke="#000000" stroke-width="2.98" stroke-linejoin="bevel" points="1001.64,493.424 1001.64,413.719"/>
<path class="Note" transform="matrix(0.992001,0,0,0.992001,2536.08,488.167)" d="M7.79688,16.2031 C8.5,16.2969 9.09375,16.4063 9.79688,16.4063 C19.4063,16.4063 33.7031,3.29688 33.4063,-7.20313 C33.1094,-9.79688 33.2031,-13.2969 28,-15.4063 C26.5,-16.0938 24.9063,-16.4063 23.2031,-16.4063 C12.5,-16.4063 0.90625,-4.09375 0.09375,4.09375 C0.09375,4.70313 0,5.29688 0,5.90625 C0,10.9063 2.20313,14.9063 7.79688,16.2031"/>
<path class="Note" transform="matrix(0.992001,0,0,0.992001,2631.09,500.567)" d="M7.79688,16.2031 C8.5,16.2969 9.09375,16.4063 9.79688,16.4063 C19.4063,16.4063 33.7031,3.29688 33.4063,-7.20313 C33.1094,-9.79688 33.2031,-13.2969 28,-15.4063 C26.5,-16.0938 24.9063,-16.4063 23.2031,-16.4063 C12.5,-16.4063 0.90625,-4.09375 0.09375,4.09375 C0.09375,4.70313 0,5.29688 0,5.90625 C0,10.9063 2.20313,14.9063 7.79688,16.2031"/>
<path class="Note" transform="matrix(0.992001,0,0,0.992001,399.932,488.167)" d="M7.79688,16.2031 C8.5,16.2969 9.09375,16.4063 9.79688,16.4063 C19.4063,16.4063 33.7031,3.29688 33.4063,-7.20313 C33.1094,-9.79688 33.2031,-13.2969 28,-15.4063 C26.5,-16.0938 24.9063,-16.4063 23.2031,-16.4063 C12.5,-16.4063 0.90625,-4.09375 0.09375,4.09375 C0.09375,4.70313 0,5.29688 0,5.90625 C0,10.9063 2.20313,14.9063 7.79688,16.2031"/>
<path class="Note" transform="matrix(0.992001,0,0,0.992001,2726.1,525.367)" d="M7.79688,16.2031 C8.5,16.2969 9.09375,16.4063 9.79688,16.4063 C19.4063,16.4063 33.7031,3.29688 33.4063,-7.20313 C33.1094,-9.79688 33.2031,-13.2969 28,-15.4063 C26.5,-16.0938 24.9063,-16.4063 23.2031,-16.4063 C12.5,-16.4063 0.90625,-4.09375 0.09375,4.09375 C0.09375,4.70313 0,5.29688 0,5.90625 C0,10.9063 2.20313,14.9063 7.79688,16.2031"/>
<path class="Note" transform="matrix(0.992001,0,0,0.992001,494.942,488.167)" d="M7.79688,16.2031 C8.5,16.2969 9.09375,16.4063 9.79688,16.4063 C19.4063,16.4063 33.7031,3.29688 33.4063,-7.20313 C33.1094,-9.79688 33.2031,-13.2969 28,-15.4063 C26.5,-16.0938 24.9063,-16.4063 23.2031,-16.4063 C12.5,-16.4063 0.90625,-4.09375 0.09375,4.09375 C0.09375,4.70313 0,5.29688 0,5.90625 C0,10.9063 2.20313,14.9063 7.79688,16.2031"/>
<path class="Note" transform="matrix(0.992001,0,0,0.992001,589.952,488.167)" d="M7.79688,16.2031 C8.5,16.2969 9.09375,16.4063 9.79688,16.4063 C19.4063,16.4063 33.7031,3.29688 33.4063,-7.20313 C33.1094,-9.79688 33.2031,-13.2969 28,-15.4063 C26.5,-16.0938 24.9063,-16.4063 23.2031,-16.4063 C12.5,-16.4063 0.90625,-4.09375 0.09375,4.09375 C0.09375,4.70313 0,5.29688 0,5.90625 C0,10.9063 2.20313,14.9063 7.79688,16.2031"/>
<path class="Note" transform="matrix(0.992001,0,0,0.992001,684.963,500.567)" d="M7.79688,16.2031 C8.5,16.2969 9.09375,16.4063 9.79688,16.4063 C19.4063,16.4063 33.7031,3.29688 33.4063,-7.20313 C33.1094,-9.79688 33.2031,-13.2969 28,-15.4063 C26.5,-16.0938 24.9063,-16.4063 23.2031,-16.4063 C12.5,-16.4063 0.90625,-4.09375 0.09375,4.09375 C0.09375,4.70313 0,5.29688 0,5.90625 C0,10.9063 2.20313,14.9063 7.79688,16.2031"/>
<path class="Note" transform="matrix(0.992001,0,0,0.992001,779.973,488.167)" d="M7.79688,16.2031 C8.5,16.2969 9.09375,16.4063 9.79688,16.4063 C19.4063,16.4063 33.7031,3.29688 33.4063,-7.20313 C33.1094,-9.79688 33.2031,-13.2969 28,-15.4063 C26.5,-16.0938 24.9063,-16.4063 23.2031,-16.4063 C12.5,-16.4063 0.90625,-4.09375 0.09375,4.09375 C0.09375,4.70313 0,5.29688 0,5.90625 C0,10.9063 2.20313,14.9063 7.79688,16.2031"/>
<path class="Note" transform="matrix(0.992001,0,0,0.992001,874.983,488.167)" d="M7.79688,16.2031 C8.5,16.2969 9.09375,16.4063 9.79688,16.4063 C19.4063,16.4063 33.7031,3.29688 33.4063,-7.20313 C33.1094,-9.79688 33.2031,-13.2969 28,-15.4063 C26.5,-16.0938 24.9063,-16.4063 23.2031,-16.4063 C12.5,-16.4063 0.90625,-4.09375 0.09375,4.09375 C0.09375,4.70313 0,5.29688 0,5.90625 C0,10.9063 2.20313,14.9063 7.79688,16.2031"/>
<path class="Note" transform="matrix(0.992001,0,0,0.992001,969.994,500.567)" d="M7.79688,16.2031 C8.5,16.2969 9.09375,16.4063 9.79688,16.4063 C19.4063,16.4063 33.7031,3.29688 33.4063,-7.20313 C33.1094,-9.79688 33.2031,-13.2969 28,-15.4063 C26.5,-16.0938 24.9063,-16.4063 23.2031,-16.4063 C12.5,-16.4063 0.90625,-4.09375 0.09375,4.09375 C0.09375,4.70313 0,5.29688 0,5.90625 C0,10.9063 2.20313,14.9063 7.79688,16.2031"/>
<path class="Note" transform="matrix(0.992001,0,0,0.992001,1255.02,500.567)" d="M7.79688,16.2031 C8.5,16.2969 9.09375,16.4063 9.79688,16.4063 C19.4063,16.4063 33.7031,3.29688 33.4063,-7.20313 C33.1094,-9.79688 33.2031,-13.2969 28,-15.4063 C26.5,-16.0938 24.9063,-16.4063 23.2031,-16.4063 C12.5,-16.4063 0.90625,-4.09375 0.09375,4.09375 C0.09375,4.70313 0,5.29688 0,5.90625 C0,10.9063 2.20313,14.9063 7.79688,16.2031"/>
<path class="Note" transform="matrix(0.992001,0,0,0.992001,1350.04,488.167)" d="M7.79688,16.2031 C8.5,16.2969 9.09375,16.4063 9.79688,16.4063 C19.4063,16.4063 33.7031,3.29688 33.4063,-7.20313 C33.1094,-9.79688 33.2031,-13.2969 28,-15.4063 C26.5,-16.0938 24.9063,-16.4063 23.2031,-16.4063 C12.5,-16.4063 0.90625,-4.09375 0.09375,4.09375 C0.09375,4.70313 0,5.29688 0,5.90625 C0,10.9063 2.20313,14.9063 7.79688,16.2031"/>
<path class="Note" transform="matrix(0.992001,0,0,0.992001,1112.51,488.167)" d="M7.79688,16.2031 C8.5,16.2969 9.09375,16.4063 9.79688,16.4063 C19.4063,16.4063 33.7031,3.29688 33.4063,-7.20313 C33.1094,-9.79688 33.2031,-13.2969 28,-15.4063 C26.5,-16.0938 24.9063,-16.4063 23.2031,-16.4063 C12.5,-16.4063 0.90625,-4.09375 0.09375,4.09375 C0.09375,4.70313 0,5.29688 0,5.90625 C0,10.9063 2.20313,14.9063 7.79688,16.2031"/>
<path class="Note" transform="matrix(0.992001,0,0,0.992001,1445.05,488.167)" d="M7.79688,16.2031 C8.5,16.2969 9.09375,16.4063 9.79688,16.4063 C19.4063,16.4063 33.7031,3.29688 33.4063,-7.20313 C33.1094,-9.79688 33.2031,-13.2969 28,-15.4063 C26.5,-16.0938 24.9063,-16.4063 23.2031,-16.4063 C12.5,-16.4063 0.90625,-4.09375 0.09375,4.09375 C0.09375,4.70313 0,5.29688 0,5.90625 C0,10.9063 2.20313,14.9063 7.79688,16.2031"/>
<path class="Note" transform="matrix(0.992001,0,0,0.992001,1966.02,500.567)" d="M7.79688,16.2031 C8.5,16.2969 9.09375,16.4063 9.79688,16.4063 C19.4063,16.4063 33.7031,3.29688 33.4063,-7.20313 C33.1094,-9.79688 33.2031,-13.2969 28,-15.4063 C26.5,-16.0938 24.9063,-16.4063 23.2031,-16.4063 C12.5,-16.4063 0.90625,-4.09375 0.09375,4.09375 C0.09375,4.70313 0,5.29688 0,5.90625 C0,10.9063 2.20313,14.9063 7.79688,16.2031"/>
<path class="Note" transform="matrix(0.992001,0,0,0.992001,2108.54,488.167)" d="M7.79688,16.2031 C8.5,16.2969 9.09375,16.4063 9.79688,16.4063 C19.4063,16.4063 33.7031,3.29688 33.4063,-7.20313 C33.1094,-9.79688 33.2031,-13.2969 28,-15.4063 C26.5,-16.0938 24.9063,-16.4063 23.2031,-16.4063 C12.5,-16.4063 0.90625,-4.09375 0.09375,4.09375 C0.09375,4.70313 0,5.29688 0,5.90625 C0,10.9063 2.20313,14.9063 7.79688,16.2031"/>
<path class="Note" transform="matrix(0.992001,0,0,0.992001,2203.55,500.567)" d="M7.79688,16.2031 C8.5,16.2969 9.09375,16.4063 9.79688,16.4063 C19.4063,16.4063 33.7031,3.29688 33.4063,-7.20313 C33.1094,-9.79688 33.2031,-13.2969 28,-15.4063 C26.5,-16.0938 24.9063,-16.4063 23.2031,-16.4063 C12.5,-16.4063 0.90625,-4.09375 0.09375,4.09375 C0.09375,4.70313 0,5.29688 0,5.90625 C0,10.9063 2.20313,14.9063 7.79688,16.2031"/>
<path class="Note" transform="matrix(0.992001,0,0,0.992001,2346.06,488.167)" d="M7.79688,16.2031 C8.5,16.2969 9.09375,16.4063 9.79688,16.4063 C19.4063,16.4063 33.7031,3.29688 33.4063,-7.20313 C33.1094,-9.79688 33.2031,-13.2969 28,-15.4063 C26.5,-16.0938 24.9063,-16.4063 23.2031,-16.4063 C12.5,-16.4063 0.90625,-4.09375 0.09375,4.09375 C0.09375,4.70313 0,5.29688 0,5.90625 C0,10.9063 2.20313,14.9063 7.79688,16.2031"/>
<path class="Note" transform="matrix(0.992001,0,0,0.992001,2441.07,488.167)" d="M7.79688,16.2031 C8.5,16.2969 9.09375,16.4063 9.79688,16.4063 C19.4063,16.4063 33.7031,3.29688 33.4063,-7.20313 C33.1094,-9.79688 33.2031,-13.2969 28,-15.4063 C26.5,-16.0938 24.9063,-16.4063 23.2031,-16.4063 C12.5,-16.4063 0.90625,-4.09375 0.09375,4.09375 C0.09375,4.70313 0,5.29688 0,5.90625 C0,10.9063 2.20313,14.9063 7.79688,16.2031"/>
<path class="Clef" transform="matrix(0.992001,0,0,0.992001,231.198,500.567)" d="M23.7969,55.9063 C24.2969,55.9063 24.7969,55.7969 25.4063,55.6094 C26.6094,55.2031 27.6094,54.6094 28.4063,53.7031 C36.7031,45 40.1094,34.5 40.4063,22.7969 C40.4063,21.9063 40.5,20.4063 40.5,20.4063 C40.5,20.4063 41.9063,19.5938 42.5,19.4063 C45.7969,17.7969 49,16 51.9063,13.7031 C59.5,7.59375 63.9063,-0.703125 65.9063,-9.90625 C66.2969,-11.4063 66.4063,-12.9063 66.4063,-14.2969 C66.4063,-20.5938 62.9063,-25.2031 54.9063,-26.7031 C52.9063,-27.1094 50.9063,-27.2969 48.9063,-27.2969 C43.9063,-27.2969 39.1094,-26 34.6094,-23.2969 C34,-23 33.4063,-22.5938 33.4063,-22.5938 L30.7969,-32.2969 C30.7031,-32.7969 30.7031,-33.7031 30.7031,-33.7031 C30.7031,-33.7031 40.9063,-51.7969 42.2969,-61.1094 C42.7969,-63.7969 43,-66.5 43,-69.2031 C43,-71.2969 42.9063,-73.2969 42.6094,-75.2969 C41.6094,-82.5 38.9063,-89.3125 37.1094,-96.3125 C36.6094,-98.4063 35.9063,-100.906 33.5,-100.906 C31.7031,-100.906 30.4063,-99.2031 29.2969,-97.7031 C24.2031,-90.6094 21.7031,-82.5 21.2031,-73.7969 C21.0938,-72.4063 21.0938,-71 21.0938,-69.6094 C21.0938,-61.5 22.4063,-53.4063 23.5,-45.4063 C23.5,-44.7969 23.7031,-44.2031 23.7969,-43.7031 C19.2969,-37.2969 14.2969,-31.2969 10,-24.7031 C7,-20 3.70313,-15.2969 1.59375,-10 C0.5,-7.40625 0,-4.40625 0,-1.40625 C0,4.79688 2.09375,11.0938 5.70313,14.5938 C7.79688,16.5938 11.0938,18.7969 14.4063,20 C19,21.7031 23.5938,22.7969 28.5,22.7969 C29.9063,22.7969 31.4063,22.7031 32.9063,22.5 L34.1094,22.2969 C34.1094,22.2969 34.2031,23.2031 34.1094,23.7031 C33,29.7031 31.5,35.6094 27.9063,40.6094 C26,43.2031 24.2031,46.1094 20.4063,46.4063 C19.2969,46.5 18.7969,47.2031 18.7969,48.1094 C18.7969,48.5 18.9063,48.7969 19,49.2031 C19.5938,50.7031 20.2969,52.2969 21,53.7969 C21.5938,55.2031 22.5938,55.9063 23.7969,55.9063 M27.7969,-49.7969 C27,-54.6094 26.5,-59.2969 26.5,-64 C26.5,-72.7031 28.2969,-81.2031 33.4063,-89.3125 C34.6094,-85.6094 35.2031,-81.9063 35.2031,-78.1094 C35.2031,-76.2031 35,-74.2031 34.7031,-72.2031 C33.4063,-64.4063 31.6094,-56.7969 27.7969,-49.7969 M17.5,9.40625 C16.0938,9.29688 14.9063,8.79688 13.5938,8.40625 C11,7.5 8.79688,6.5 8.09375,4.79688 C7.79688,4 7.70313,3.09375 7.70313,2.20313 C7.70313,1.09375 7.90625,-0.09375 8.09375,-1.29688 C8.20313,-1.90625 8.79688,-3.59375 9,-3.90625 C12.9063,-10.7969 17.5938,-17.0938 22.5,-23.4063 L26.7031,-28.9063 L27.4063,-26.7031 C28.2031,-24.2031 28.9063,-20.2031 28.9063,-20.2031 C28.9063,-20.2031 26.1094,-16.5938 24.2969,-14.7969 C19.2969,-9.90625 16.9063,-3.79688 16.9063,2.90625 C16.9063,4.59375 17.0938,6.29688 17.4063,8.09375 C17.5,8.5 17.5,8.79688 17.5,9.40625 M39.1094,6.29688 C38.2969,-0.203125 36.7969,-5.40625 35.4063,-11.7031 C35.2969,-12.4063 35.2969,-12.9063 35.6094,-13.2969 C38.2031,-13.7969 40.7031,-14 43.2969,-14 C45.7969,-14 48.2031,-13.7969 50.7031,-13.2969 C53.7031,-12.7031 56.7031,-12.2031 59,-9.79688 C59.2031,-9.59375 59.4063,-9.40625 59.6094,-9.29688 C55.6094,-1.29688 49.7031,4.70313 41.2969,8.40625 L39.5,9.09375 L39.1094,6.29688 M28.5,11.0938 C25,11.0938 21.5938,10.2031 21.5938,10.2031 C21.5938,10.2031 21.2969,8.79688 21.2969,6.79688 C21.2969,5.5 21.4063,3.90625 21.7969,2.29688 C22.7969,-2.5 26.2031,-5.90625 29.7969,-9.09375 C30.1094,-9.40625 30.4063,-9.59375 30.6094,-9.59375 C31,-9.59375 31.1094,-9.20313 31.2031,-8.5 C32.1094,-2.59375 33.6094,3.20313 34,9.09375 C34.1094,9.70313 34,10.5938 34,10.5938 C34,10.5938 31.4063,11.2969 28.5,11.0938"/>
<path class="KeySig" transform="matrix(0.992001,0,0,0.992001,299.251,426.167)" d="M14,38.4063 C14.7969,38.2969 15,37.2031 15.2031,36.5 C15.5938,35.2031 15.7031,33.9063 15.7031,32.7031 C15.7031,31.6094 15.5938,30.6094 15.5938,29.5 C15.5938,28.7969 15.5938,27.9063 15.7031,27.2031 C15.9063,25.2031 16.0938,23.2031 16.2031,21.2031 L20.5938,20.2969 C20.7969,24.5 21.5938,28.6094 23,32.6094 C23.0938,33.1094 23.5,33.7031 24.0938,33.7031 C24.7031,33.7969 24.9063,33.1094 25.2031,32.6094 C25.9063,31.5 26,30.2031 26,29 C26.1094,28.1094 26.1094,27.2969 26.1094,26.5 C26.1094,24.0938 25.9063,21.5938 25.7969,19.2031 L31.6094,18 C37.1094,16.9063 37.7969,16.0938 38.2031,10.7969 C38.2031,9.5 38.2969,8.59375 38.2031,7.59375 C38.1094,6.29688 37.6094,5.40625 36.5,5.40625 L36.2969,5.40625 C35.9063,5.40625 35.6094,5.40625 35.2031,5.5 C32.9063,6.09375 30.4063,6.59375 28,7 L26.2969,7.29688 C26.4063,5.90625 26.4063,4.40625 26.5,2.90625 C26.6094,-0.296875 26.7031,-3.5 26.7031,-6.70313 C29.5,-7.40625 32.2031,-8.20313 34.9063,-9.09375 C36.4063,-9.59375 37.7031,-10.4063 38.1094,-12 C38.5,-13.7969 39,-15.5 39,-17.2969 C39,-18.2969 38.9063,-19.4063 38.5,-20.4063 C38.1094,-21.4063 37.7969,-21.9063 37.2031,-21.9063 L37,-21.9063 C36.7031,-21.9063 36.2969,-21.9063 35.9063,-21.7031 C32.7969,-20.4063 29.7031,-19.4063 26.5,-18.5 L26.2031,-23.9063 C26,-28.2031 25.7969,-32.6094 24.9063,-36.9063 C24.7031,-37.4063 24.7969,-38.2969 24.2031,-38.2969 L24.0938,-38.2969 L23.7969,-38.2969 C23,-38.1094 22,-37.7969 21.9063,-36.7031 L21.9063,-34.7969 C21.9063,-28.9063 22.0938,-23.0938 22.2031,-17.2969 L16.9063,-16.0938 C16.9063,-19.0938 16.7969,-22.0938 16.5938,-25.0938 C16.5,-26.6094 16.5,-28 15.7031,-29.5 C13.5,-28.4063 13.7969,-26.5 13.7969,-24.9063 C13.5938,-21.7031 13.5,-18.5938 13.4063,-15.5 C10.5938,-14.9063 7.79688,-14.5 5,-14 C0.90625,-13.2969 0.296875,-12.7031 0.296875,-8.20313 C0,-7.09375 0.796875,-5.79688 0.703125,-4.59375 C0.5,-2.70313 1,-2.09375 2.29688,-2 C2.59375,-2 2.90625,-2.09375 3.29688,-2.20313 C6.59375,-2.70313 9.79688,-3.20313 13,-3.79688 L12.7031,5.20313 C12.5938,6.90625 12.4063,8.5 12.2031,10.0938 C8.5,10.7969 4.79688,11.5 1.09375,12.4063 C-1,12.9063 -2.20313,13.7031 -2.20313,16.0938 C-2.20313,18.5 -1.29688,20.7031 -1.20313,23 C-1.20313,24.0938 -0.90625,24.5938 -0.09375,24.7031 C0.09375,24.7031 0.40625,24.5938 0.796875,24.5 C4.40625,23.7031 8,23 11.5938,22.2031 C11.5,23.5 11.5,24.7969 11.5,26.2031 C11.5,29.7031 11.9063,33.1094 13.0938,36.5 C13.2969,37.2031 13.0938,38.4063 14,38.4063 M16.7031,9.20313 C16.7969,7 16.7969,4.79688 16.9063,2.59375 C17,0.203125 17,-2.09375 17,-4.5 C18.7031,-4.79688 20.2969,-5.09375 21.9063,-5.5 C21.4063,-0.90625 21.2031,3.70313 20.9063,8.29688 L16.7031,9.20313 "/>
<path class="Rest" transform="matrix(0.992001,0,0,0.992001,1695.03,475.767)" d="M10.5,41.4063 C11.2969,40.9063 11.2031,39.9063 11.4063,39.1094 C11.4063,38.7031 11.2031,38.2969 11.0938,37.9063 C10.2969,34.4063 9.40625,31 8.59375,27.5 C8.5,27.1094 8.5,26.7031 8.5,26.4063 C8.5,23 11,18.9063 13.7969,17.7031 C14.5,17.2969 15.0938,17.5938 15.7969,17.7969 C19,18.7969 20.7031,21.5 22.5,24 C23,24.7031 23.7031,25.6094 24.5,25.6094 C24.7031,25.6094 24.7969,25.6094 25,25.5 C25.9063,25.0938 26.2969,24.2031 26.2969,23.2969 L26.2031,22.5938 C25.7969,20.2969 25.4063,17.9063 23.9063,16.0938 C20.9063,12.5 19.2969,8.09375 17.2969,4 C17,3.40625 16.7969,2.90625 16.7969,2.5 C16.7969,1.79688 17.2031,1.20313 17.9063,0.5 C19.7031,-1.40625 21.5938,-3.09375 22.7969,-5.40625 C23.9063,-7.20313 24.5938,-9.09375 24.5938,-11 C24.5938,-12.2969 24.2969,-13.5938 23.4063,-15 C20.4063,-20 17.2969,-24.9063 14.7969,-30.2031 C13.0938,-33.7969 11,-37.2031 8,-39.9063 C7.29688,-40.6094 6.40625,-41.5 5.40625,-41.5 C5,-41.5 4.59375,-41.4063 4.09375,-41.1094 C3.09375,-40.5 2.70313,-39.7031 2.70313,-39 C2.70313,-38.2031 3.09375,-37.4063 3.70313,-36.6094 C6.79688,-32.6094 8.70313,-27.9063 11.7031,-23.9063 C12.5938,-22.7969 13,-22 13,-21.2969 C13,-20.4063 12.2031,-19.7031 10.5938,-18.7031 C8.5,-17.5 6.29688,-16.2969 4.29688,-14.7969 C3.29688,-14.0938 2.79688,-13.2969 2.79688,-12.5 C2.79688,-12 3,-11.5 3.20313,-11 C4.20313,-8.70313 5.5,-6.59375 6.90625,-4.5 C9.09375,-1.40625 11.0938,2 12.7031,5.5 C12,6.09375 11.4063,5.90625 10.7969,6 C4,6.90625 -0.5,12 0,18.0938 C0.703125,25.4063 3.40625,32.2031 6.70313,38.7031 C7.09375,39.5 7.59375,40.2969 8.59375,40.6094 C9.20313,40.7969 9.59375,41.5 10.0938,41.5 C10.2031,41.5 10.4063,41.5 10.5,41.4063"/>
<path class="Beam" fill-rule="evenodd" d="M430.087,401.366 L718.094,401.366 L718.094,413.766 L430.087,413.766 L430.087,401.366 "/>
<path class="Beam" fill-rule="evenodd" d="M430.087,419.966 L718.094,419.966 L718.094,432.367 L430.087,432.367 L430.087,419.966 "/>
<path class="Beam" fill-rule="evenodd" d="M1142.66,401.366 L1383.17,401.366 L1383.17,413.766 L1142.66,413.766 L1142.66,401.366 "/>
<path class="Beam" fill-rule="evenodd" d="M1285.18,419.966 L1383.17,419.966 L1383.17,432.367 L1285.18,432.367 L1285.18,419.966 "/>
<path class="Beam" fill-rule="evenodd" d="M2138.69,401.366 L2379.19,401.366 L2379.19,413.766 L2138.69,413.766 L2138.69,401.366 "/>
<path class="Beam" fill-rule="evenodd" d="M2138.69,419.966 L2165.97,419.966 L2165.97,432.367 L2138.69,432.367 L2138.69,419.966 "/>
<path class="Beam" fill-rule="evenodd" d="M2379.19,419.966 L2351.91,419.966 L2351.91,432.367 L2379.19,432.367 L2379.19,419.966 "/>
<path class="Beam" fill-rule="evenodd" d="M2471.23,401.365 L2759.24,407.565 L2759.24,419.968 L2471.23,413.768 L2471.23,401.365 "/>
<path class="Beam" fill-rule="evenodd" d="M2471.23,419.965 L2759.24,426.165 L2759.24,438.568 L2471.23,432.368 L2471.23,419.965 "/>
<path class="Beam" fill-rule="evenodd" d="M810.128,401.363 L1003.13,407.563 L1003.13,419.97 L810.128,413.77 L810.128,401.363 "/>
<path class="Beam" fill-rule="evenodd" d="M810.128,419.963 L908.115,423.111 L908.115,435.518 L810.128,432.37 L810.128,419.963 "/>
<path class="Hook" transform="matrix(0.992001,0,0,0.992001,1996.18,413.766)" d="M18.4063,81.3125 C20.9063,78.5 23.2969,75.5 24.4063,71.9063 C25.6094,68 26.1094,64.1094 26.1094,60.2031 C26.1094,57.6094 25.9063,55 25.5,52.4063 C24.2969,43.9063 21.5938,36.1094 16.2031,29.2969 C13.7969,26.2969 11.5,23.2031 9.09375,20.2031 C6.29688,16.5938 4.59375,13.2969 4.5,8.70313 C4.5,7.79688 4.29688,6.29688 4.29688,5.20313 C4.29688,3.40625 3.59375,1.70313 2.90625,0 L2.40625,0 C0.40625,0.90625 0,2.5 0,4.40625 L0,10 C0,17.7031 2,24.7031 6.70313,30.9063 C8.59375,33.2031 10.4063,35.7031 12.2969,38 C17.0938,43.7031 20.7031,50.1094 21.4063,57.7031 C21.5,59.1094 22,60.5 22,61.7969 C22,62.5 21.9063,63.2031 21.5938,63.7969 C20.5938,66 19.5938,68.2969 17.7969,69.7969 C16.2031,71.1094 15.7969,72.6094 15.7969,74.2031 C15.7969,75 15.9063,75.9063 16,76.8125 C16.0938,78.1094 16.5938,79.4063 16.7031,80.7031 C16.7969,81.5 17.0938,81.9063 17.4063,81.9063 C17.7031,81.9063 18,81.7031 18.4063,81.3125"/>
<path class="Lyrics" d="M1959.91,573.345 L1960.09,578.673 C1960.9,576.829 1962.07,575.4 1963.59,574.384 C1965.12,573.368 1967,572.86 1969.24,572.86 C1972.12,572.86 1974.28,573.769 1975.72,575.587 C1977.16,577.405 1977.88,580.282 1977.88,584.22 L1977.88,599.767 L1976.56,599.767 L1976.56,584.173 C1976.56,580.506 1975.9,577.923 1974.59,576.423 C1973.29,574.923 1971.51,574.173 1969.26,574.173 C1966.49,574.173 1964.37,574.98 1962.91,576.595 C1961.44,578.209 1960.51,580.288 1960.1,582.829 L1960.1,599.767 L1958.79,599.767 L1958.79,586.235 L1958.71,586.235 C1958.71,585.933 1958.71,585.623 1958.71,585.306 C1958.71,584.988 1958.74,584.663 1958.79,584.329 L1958.79,573.345 L1959.91,573.345 M1983.71,586.048 C1983.71,582.173 1984.78,579.006 1986.92,576.548 C1989.06,574.09 1991.84,572.86 1995.26,572.86 C1998.7,572.86 2001.49,574.09 2003.63,576.548 C2005.77,579.006 2006.84,582.173 2006.84,586.048 L2006.84,587.064 C2006.84,590.959 2005.77,594.137 2003.63,596.595 C2001.49,599.053 1998.71,600.282 1995.31,600.282 C1991.87,600.282 1989.08,599.053 1986.93,596.595 C1984.78,594.137 1983.71,590.959 1983.71,587.064 L1983.71,586.048 M1985.02,587.064 C1985.02,590.387 1985.95,593.199 1987.81,595.501 C1989.67,597.803 1992.17,598.954 1995.31,598.954 C1998.4,598.954 2000.87,597.801 2002.73,595.493 C2004.58,593.186 2005.51,590.376 2005.51,587.064 L2005.51,586.048 C2005.51,582.808 2004.57,580.019 2002.7,577.681 C2000.83,575.342 1998.35,574.173 1995.26,574.173 C1992.15,574.173 1989.67,575.342 1987.81,577.681 C1985.95,580.019 1985.02,582.808 1985.02,586.048 L1985.02,587.064 "/>
<path class="Lyrics" d="M2120.49,593.298 C2120.49,591.902 2119.89,590.629 2118.7,589.478 C2117.5,588.327 2115.41,587.428 2112.43,586.782 C2109.3,586.116 2107.02,585.256 2105.61,584.204 C2104.2,583.152 2103.49,581.595 2103.49,579.532 C2103.49,577.637 2104.29,576.051 2105.88,574.775 C2107.48,573.498 2109.63,572.86 2112.34,572.86 C2115.25,572.86 2117.55,573.545 2119.22,574.915 C2120.89,576.285 2121.69,578.069 2121.62,580.267 L2121.56,580.407 L2120.45,580.407 C2120.45,578.678 2119.72,577.207 2118.26,575.993 C2116.8,574.78 2114.83,574.173 2112.34,574.173 C2109.86,574.173 2107.99,574.707 2106.72,575.775 C2105.45,576.842 2104.82,578.079 2104.82,579.485 C2104.82,580.86 2105.36,582.038 2106.43,583.017 C2107.5,583.996 2109.63,584.85 2112.82,585.579 C2115.77,586.267 2118,587.199 2119.52,588.376 C2121.05,589.553 2121.81,591.199 2121.81,593.314 C2121.81,595.387 2120.96,597.066 2119.27,598.353 C2117.57,599.639 2115.33,600.282 2112.52,600.282 C2109.45,600.282 2107.04,599.595 2105.29,598.22 C2103.54,596.845 2102.72,595.173 2102.84,593.204 L2102.88,593.048 L2103.96,593.048 C2104.09,595.131 2104.98,596.637 2106.64,597.564 C2108.3,598.491 2110.26,598.954 2112.52,598.954 C2114.97,598.954 2116.91,598.387 2118.34,597.251 C2119.78,596.116 2120.49,594.798 2120.49,593.298 M2145.88,594.876 C2144.97,596.48 2143.6,597.782 2141.8,598.782 C2139.99,599.782 2137.8,600.282 2135.23,600.282 C2132.78,600.282 2130.85,599.61 2129.45,598.267 C2128.05,596.923 2127.35,595.11 2127.35,592.829 C2127.35,590.621 2128.4,588.767 2130.49,587.267 C2132.57,585.767 2135.19,585.017 2138.34,585.017 L2145.88,585.017 L2145.88,581.157 C2145.88,578.959 2145.18,577.246 2143.77,576.017 C2142.35,574.788 2140.37,574.173 2137.82,574.173 C2135.43,574.173 2133.5,574.748 2132.05,575.9 C2130.59,577.051 2129.87,578.538 2129.87,580.36 L2128.76,580.36 L2128.71,580.235 C2128.62,578.173 2129.42,576.428 2131.11,575.001 C2132.8,573.574 2135.04,572.86 2137.82,572.86 C2140.65,572.86 2142.93,573.577 2144.63,575.009 C2146.34,576.441 2147.2,578.506 2147.2,581.204 L2147.2,594.439 C2147.2,595.366 2147.25,596.269 2147.35,597.15 C2147.46,598.03 2147.63,598.902 2147.88,599.767 L2146.41,599.767 C2146.21,598.61 2146.07,597.743 2145.99,597.165 C2145.92,596.587 2145.88,595.965 2145.88,595.298 L2145.88,594.876 M2135.23,598.985 C2137.85,598.985 2140.07,598.407 2141.88,597.251 C2143.7,596.095 2145.03,594.444 2145.88,592.298 L2145.88,586.36 L2138.41,586.36 C2135.68,586.36 2133.37,586.991 2131.49,588.251 C2129.6,589.512 2128.66,591.069 2128.66,592.923 C2128.66,594.704 2129.26,596.16 2130.46,597.29 C2131.66,598.42 2133.25,598.985 2135.23,598.985"/>
<path class="Lyrics" d="M958.544,586.532 C958.544,582.355 959.421,579.032 961.177,576.564 C962.932,574.095 965.372,572.86 968.497,572.86 C970.549,572.86 972.328,573.321 973.833,574.243 C975.338,575.165 976.539,576.423 977.434,578.017 L977.434,561.673 L978.747,561.673 L978.747,581.485 C978.747,581.517 978.747,581.54 978.747,581.556 C978.747,581.571 978.747,581.579 978.747,581.579 L978.747,592.345 C978.747,592.376 978.747,592.4 978.747,592.415 C978.747,592.431 978.747,592.449 978.747,592.47 L978.747,599.767 L977.466,599.767 L977.466,595.689 C976.58,597.105 975.372,598.225 973.841,599.048 C972.309,599.871 970.518,600.282 968.466,600.282 C965.351,600.282 962.919,599.095 961.169,596.72 C959.419,594.345 958.544,591.121 958.544,587.048 L958.544,586.532 M959.903,587.048 C959.903,590.694 960.624,593.59 962.067,595.735 C963.51,597.881 965.627,598.954 968.419,598.954 C970.721,598.954 972.627,598.439 974.137,597.407 C975.648,596.376 976.747,594.996 977.434,593.267 L977.434,580.767 C976.789,578.902 975.76,577.337 974.348,576.071 C972.937,574.806 970.981,574.173 968.481,574.173 C965.679,574.173 963.549,575.319 962.091,577.61 C960.632,579.902 959.903,582.876 959.903,586.532 L959.903,587.048 M996.012,600.282 C992.908,600.282 990.286,599.077 988.145,596.665 C986.005,594.254 984.934,591.22 984.934,587.564 L984.934,586.001 C984.934,582.178 985.994,579.032 988.114,576.564 C990.234,574.095 992.908,572.86 996.137,572.86 C999.065,572.86 1001.4,573.824 1003.14,575.751 C1004.88,577.678 1005.75,580.314 1005.75,583.657 L1005.75,585.673 L986.247,585.673 L986.247,586.001 L986.247,587.564 C986.247,590.782 987.158,593.485 988.981,595.673 C990.804,597.86 993.148,598.954 996.012,598.954 C997.596,598.954 999.114,598.663 1000.57,598.079 C1002.02,597.496 1003.21,596.715 1004.12,595.735 L1004.82,596.767 C1003.9,597.788 1002.7,598.629 1001.24,599.29 C999.776,599.952 998.033,600.282 996.012,600.282 M996.137,574.173 C993.398,574.173 991.153,575.123 989.403,577.025 C987.653,578.926 986.664,581.324 986.434,584.22 L986.512,584.36 L1004.43,584.36 L1004.43,583.548 C1004.43,580.84 1003.69,578.6 1002.22,576.829 C1000.74,575.058 998.71,574.173 996.137,574.173 M1014.39,599.767 L1013.07,599.767 L1013.07,561.673 L1014.39,561.673 L1014.39,599.767 "/>
<path class="Lyrics" d="M1280.37,594.876 C1279.45,596.48 1278.09,597.782 1276.29,598.782 C1274.48,599.782 1272.29,600.282 1269.72,600.282 C1267.27,600.282 1265.34,599.61 1263.94,598.267 C1262.54,596.923 1261.84,595.11 1261.84,592.829 C1261.84,590.621 1262.88,588.767 1264.97,587.267 C1267.06,585.767 1269.68,585.017 1272.82,585.017 L1280.37,585.017 L1280.37,581.157 C1280.37,578.959 1279.67,577.246 1278.25,576.017 C1276.84,574.788 1274.86,574.173 1272.31,574.173 C1269.91,574.173 1267.99,574.748 1266.54,575.9 C1265.08,577.051 1264.36,578.538 1264.36,580.36 L1263.25,580.36 L1263.2,580.235 C1263.11,578.173 1263.91,576.428 1265.6,575.001 C1267.29,573.574 1269.53,572.86 1272.31,572.86 C1275.14,572.86 1277.41,573.577 1279.12,575.009 C1280.83,576.441 1281.68,578.506 1281.68,581.204 L1281.68,594.439 C1281.68,595.366 1281.74,596.269 1281.84,597.15 C1281.94,598.03 1282.12,598.902 1282.37,599.767 L1280.9,599.767 C1280.69,598.61 1280.55,597.743 1280.48,597.165 C1280.41,596.587 1280.37,595.965 1280.37,595.298 L1280.37,594.876 M1269.72,598.985 C1272.34,598.985 1274.56,598.407 1276.37,597.251 C1278.18,596.095 1279.52,594.444 1280.37,592.298 L1280.37,586.36 L1272.9,586.36 C1270.16,586.36 1267.85,586.991 1265.97,588.251 C1264.09,589.512 1263.15,591.069 1263.15,592.923 C1263.15,594.704 1263.75,596.16 1264.95,597.29 C1266.15,598.42 1267.74,598.985 1269.72,598.985"/>
<path class="Lyrics" d="M2204.5,587.048 C2204.5,591.121 2203.62,594.345 2201.86,596.72 C2200.1,599.095 2197.68,600.282 2194.6,600.282 C2192.52,600.282 2190.72,599.866 2189.18,599.032 C2187.65,598.199 2186.45,597.084 2185.58,595.689 L2185.41,599.767 L2184.28,599.767 L2184.28,592.564 C2184.28,592.512 2184.28,592.47 2184.28,592.439 C2184.28,592.407 2184.28,592.376 2184.28,592.345 L2184.28,581.579 C2184.28,581.558 2184.28,581.545 2184.28,581.54 C2184.28,581.535 2184.28,581.48 2184.28,581.376 L2184.28,561.673 L2185.63,561.673 L2185.63,577.985 C2186.51,576.392 2187.7,575.139 2189.2,574.228 C2190.69,573.316 2192.47,572.86 2194.53,572.86 C2197.65,572.86 2200.09,574.095 2201.85,576.564 C2203.62,579.032 2204.5,582.355 2204.5,586.532 L2204.5,587.048 M2203.13,586.532 C2203.13,582.876 2202.4,579.902 2200.93,577.61 C2199.47,575.319 2197.35,574.173 2194.57,574.173 C2192.06,574.173 2190.1,574.801 2188.69,576.056 C2187.28,577.311 2186.26,578.86 2185.63,580.704 L2185.63,593.345 C2186.29,595.053 2187.39,596.415 2188.9,597.431 C2190.42,598.446 2192.32,598.954 2194.61,598.954 C2197.39,598.954 2199.51,597.881 2200.96,595.735 C2202.4,593.59 2203.13,590.694 2203.13,587.048 L2203.13,586.532 M2220.57,600.282 C2217.46,600.282 2214.84,599.077 2212.7,596.665 C2210.56,594.254 2209.49,591.22 2209.49,587.564 L2209.49,586.001 C2209.49,582.178 2210.55,579.032 2212.67,576.564 C2214.79,574.095 2217.46,572.86 2220.69,572.86 C2223.62,572.86 2225.95,573.824 2227.69,575.751 C2229.43,577.678 2230.3,580.314 2230.3,583.657 L2230.3,585.673 L2210.8,585.673 L2210.8,586.001 L2210.8,587.564 C2210.8,590.782 2211.71,593.485 2213.53,595.673 C2215.36,597.86 2217.7,598.954 2220.57,598.954 C2222.15,598.954 2223.67,598.663 2225.12,598.079 C2226.57,597.496 2227.76,596.715 2228.68,595.735 L2229.38,596.767 C2228.45,597.788 2227.26,598.629 2225.79,599.29 C2224.33,599.952 2222.59,600.282 2220.57,600.282 M2220.69,574.173 C2217.95,574.173 2215.71,575.123 2213.96,577.025 C2212.21,578.926 2211.22,581.324 2210.99,584.22 L2211.07,584.36 L2228.99,584.36 L2228.99,583.548 C2228.99,580.84 2228.25,578.6 2226.77,576.829 C2225.29,575.058 2223.26,574.173 2220.69,574.173 M2238.44,573.345 L2238.61,578.673 C2239.43,576.829 2240.59,575.4 2242.12,574.384 C2243.65,573.368 2245.53,572.86 2247.77,572.86 C2250.64,572.86 2252.8,573.769 2254.25,575.587 C2255.69,577.405 2256.41,580.282 2256.41,584.22 L2256.41,599.767 L2255.08,599.767 L2255.08,584.173 C2255.08,580.506 2254.43,577.923 2253.12,576.423 C2251.81,574.923 2250.03,574.173 2247.78,574.173 C2245.01,574.173 2242.9,574.98 2241.43,576.595 C2239.97,578.209 2239.03,580.288 2238.63,582.829 L2238.63,599.767 L2237.32,599.767 L2237.32,586.235 L2237.24,586.235 C2237.24,585.933 2237.24,585.623 2237.24,585.306 C2237.24,584.988 2237.26,584.663 2237.32,584.329 L2237.32,573.345 L2238.44,573.345 "/>
<path class="Lyrics" d="M886.393,574.298 L884.69,574.157 C882.325,574.157 880.406,574.918 878.932,576.439 C877.458,577.959 876.502,579.965 876.065,582.454 L876.065,599.767 L874.752,599.767 L874.752,573.345 L875.83,573.345 L876.065,577.939 L876.065,578.845 C876.794,576.959 877.885,575.491 879.338,574.439 C880.791,573.387 882.575,572.86 884.69,572.86 C885.065,572.86 885.411,572.889 885.729,572.946 C886.046,573.004 886.315,573.064 886.533,573.126 L886.393,574.298 M907.33,594.876 C906.414,596.48 905.052,597.782 903.244,598.782 C901.437,599.782 899.247,600.282 896.674,600.282 C894.226,600.282 892.302,599.61 890.901,598.267 C889.5,596.923 888.799,595.11 888.799,592.829 C888.799,590.621 889.843,588.767 891.932,587.267 C894.02,585.767 896.638,585.017 899.783,585.017 L907.33,585.017 L907.33,581.157 C907.33,578.959 906.625,577.246 905.213,576.017 C903.802,574.788 901.82,574.173 899.268,574.173 C896.872,574.173 894.947,574.748 893.494,575.9 C892.041,577.051 891.315,578.538 891.315,580.36 L890.205,580.36 L890.158,580.235 C890.065,578.173 890.864,576.428 892.557,575.001 C894.25,573.574 896.487,572.86 899.268,572.86 C902.101,572.86 904.372,573.577 906.08,575.009 C907.789,576.441 908.643,578.506 908.643,581.204 L908.643,594.439 C908.643,595.366 908.695,596.269 908.799,597.15 C908.903,598.03 909.08,598.902 909.33,599.767 L907.862,599.767 C907.653,598.61 907.513,597.743 907.44,597.165 C907.367,596.587 907.33,595.965 907.33,595.298 L907.33,594.876 M896.674,598.985 C899.299,598.985 901.518,598.407 903.33,597.251 C905.143,596.095 906.476,594.444 907.33,592.298 L907.33,586.36 L899.862,586.36 C897.122,586.36 894.812,586.991 892.932,588.251 C891.052,589.512 890.112,591.069 890.112,592.923 C890.112,594.704 890.71,596.16 891.908,597.29 C893.106,598.42 894.695,598.985 896.674,598.985"/>
<path class="Lyrics" d="M2325.61,586.532 C2325.61,582.355 2326.49,579.032 2328.25,576.564 C2330,574.095 2332.44,572.86 2335.57,572.86 C2337.62,572.86 2339.4,573.321 2340.9,574.243 C2342.41,575.165 2343.61,576.423 2344.5,578.017 L2344.5,561.673 L2345.82,561.673 L2345.82,581.485 C2345.82,581.517 2345.82,581.54 2345.82,581.556 C2345.82,581.571 2345.82,581.579 2345.82,581.579 L2345.82,592.345 C2345.82,592.376 2345.82,592.4 2345.82,592.415 C2345.82,592.431 2345.82,592.449 2345.82,592.47 L2345.82,599.767 L2344.53,599.767 L2344.53,595.689 C2343.65,597.105 2342.44,598.225 2340.91,599.048 C2339.38,599.871 2337.59,600.282 2335.53,600.282 C2332.42,600.282 2329.99,599.095 2328.24,596.72 C2326.49,594.345 2325.61,591.121 2325.61,587.048 L2325.61,586.532 M2326.97,587.048 C2326.97,590.694 2327.69,593.59 2329.14,595.735 C2330.58,597.881 2332.7,598.954 2335.49,598.954 C2337.79,598.954 2339.7,598.439 2341.21,597.407 C2342.72,596.376 2343.82,594.996 2344.5,593.267 L2344.5,580.767 C2343.86,578.902 2342.83,577.337 2341.42,576.071 C2340.01,574.806 2338.05,574.173 2335.55,574.173 C2332.75,574.173 2330.62,575.319 2329.16,577.61 C2327.7,579.902 2326.97,582.876 2326.97,586.532 L2326.97,587.048 M2351.75,586.048 C2351.75,582.173 2352.82,579.006 2354.96,576.548 C2357.1,574.09 2359.88,572.86 2363.3,572.86 C2366.74,572.86 2369.53,574.09 2371.67,576.548 C2373.81,579.006 2374.88,582.173 2374.88,586.048 L2374.88,587.064 C2374.88,590.959 2373.81,594.137 2371.67,596.595 C2369.53,599.053 2366.75,600.282 2363.35,600.282 C2359.91,600.282 2357.12,599.053 2354.97,596.595 C2352.83,594.137 2351.75,590.959 2351.75,587.064 L2351.75,586.048 M2353.07,587.064 C2353.07,590.387 2354,593.199 2355.85,595.501 C2357.71,597.803 2360.21,598.954 2363.35,598.954 C2366.44,598.954 2368.91,597.801 2370.77,595.493 C2372.62,593.186 2373.55,590.376 2373.55,587.064 L2373.55,586.048 C2373.55,582.808 2372.62,580.019 2370.75,577.681 C2368.88,575.342 2366.39,574.173 2363.3,574.173 C2360.2,574.173 2357.71,575.342 2355.85,577.681 C2354,580.019 2353.07,582.808 2353.07,586.048 L2353.07,587.064 M2381.96,573.345 L2382.13,578.673 C2382.94,576.829 2384.11,575.4 2385.64,574.384 C2387.16,573.368 2389.04,572.86 2391.28,572.86 C2394.16,572.86 2396.32,573.769 2397.76,575.587 C2399.2,577.405 2399.93,580.282 2399.93,584.22 L2399.93,599.767 L2398.6,599.767 L2398.6,584.173 C2398.6,580.506 2397.94,577.923 2396.64,576.423 C2395.33,574.923 2393.55,574.173 2391.3,574.173 C2388.53,574.173 2386.41,574.98 2384.95,576.595 C2383.48,578.209 2382.55,580.288 2382.14,582.829 L2382.14,599.767 L2380.83,599.767 L2380.83,586.235 L2380.75,586.235 C2380.75,585.933 2380.75,585.623 2380.75,585.306 C2380.75,584.988 2380.78,584.663 2380.83,584.329 L2380.83,573.345 L2381.96,573.345 "/>
<path class="Lyrics" d="M791.429,593.298 C791.429,591.902 790.83,590.629 789.632,589.478 C788.434,588.327 786.346,587.428 783.367,586.782 C780.231,586.116 777.958,585.256 776.546,584.204 C775.135,583.152 774.429,581.595 774.429,579.532 C774.429,577.637 775.226,576.051 776.82,574.775 C778.414,573.498 780.565,572.86 783.273,572.86 C786.19,572.86 788.484,573.545 790.156,574.915 C791.828,576.285 792.627,578.069 792.554,580.267 L792.492,580.407 L791.382,580.407 C791.382,578.678 790.653,577.207 789.195,575.993 C787.737,574.78 785.763,574.173 783.273,574.173 C780.794,574.173 778.921,574.707 777.656,575.775 C776.39,576.842 775.757,578.079 775.757,579.485 C775.757,580.86 776.294,582.038 777.367,583.017 C778.44,583.996 780.57,584.85 783.757,585.579 C786.705,586.267 788.94,587.199 790.461,588.376 C791.981,589.553 792.742,591.199 792.742,593.314 C792.742,595.387 791.895,597.066 790.203,598.353 C788.51,599.639 786.263,600.282 783.461,600.282 C780.388,600.282 777.976,599.595 776.226,598.22 C774.476,596.845 773.658,595.173 773.773,593.204 L773.82,593.048 L774.898,593.048 C775.023,595.131 775.916,596.637 777.578,597.564 C779.239,598.491 781.2,598.954 783.461,598.954 C785.908,598.954 787.849,598.387 789.281,597.251 C790.713,596.116 791.429,594.798 791.429,593.298 M817.945,595.126 C817.112,596.751 815.929,598.017 814.398,598.923 C812.867,599.829 811.013,600.282 808.836,600.282 C806.117,600.282 803.989,599.316 802.453,597.384 C800.916,595.452 800.148,592.459 800.148,588.407 L800.148,573.345 L801.461,573.345 L801.461,588.47 C801.461,592.043 802.119,594.683 803.437,596.392 C804.755,598.1 806.539,598.954 808.789,598.954 C811.466,598.954 813.541,598.301 815.015,596.993 C816.489,595.686 817.445,593.959 817.882,591.814 L817.882,573.345 L819.257,573.345 L819.257,588.907 C819.257,589.116 819.257,589.316 819.257,589.509 C819.257,589.702 819.257,589.928 819.257,590.189 L819.257,599.767 L818.132,599.767 L817.945,595.126 "/>
<path class="Lyrics" d="M2528.63,586.532 C2528.63,582.355 2529.51,579.032 2531.27,576.564 C2533.02,574.095 2535.46,572.86 2538.59,572.86 C2540.64,572.86 2542.42,573.321 2543.92,574.243 C2545.43,575.165 2546.63,576.423 2547.52,578.017 L2547.52,561.673 L2548.84,561.673 L2548.84,581.485 C2548.84,581.517 2548.84,581.54 2548.84,581.556 C2548.84,581.571 2548.84,581.579 2548.84,581.579 L2548.84,592.345 C2548.84,592.376 2548.84,592.4 2548.84,592.415 C2548.84,592.431 2548.84,592.449 2548.84,592.47 L2548.84,599.767 L2547.56,599.767 L2547.56,595.689 C2546.67,597.105 2545.46,598.225 2543.93,599.048 C2542.4,599.871 2540.61,600.282 2538.56,600.282 C2535.44,600.282 2533.01,599.095 2531.26,596.72 C2529.51,594.345 2528.63,591.121 2528.63,587.048 L2528.63,586.532 M2529.99,587.048 C2529.99,590.694 2530.71,593.59 2532.16,595.735 C2533.6,597.881 2535.72,598.954 2538.51,598.954 C2540.81,598.954 2542.72,598.439 2544.23,597.407 C2545.74,596.376 2546.84,594.996 2547.52,593.267 L2547.52,580.767 C2546.88,578.902 2545.85,577.337 2544.44,576.071 C2543.03,574.806 2541.07,574.173 2538.57,574.173 C2535.77,574.173 2533.64,575.319 2532.18,577.61 C2530.72,579.902 2529.99,582.876 2529.99,586.532 L2529.99,587.048 M2566.1,600.282 C2563,600.282 2560.38,599.077 2558.23,596.665 C2556.09,594.254 2555.02,591.22 2555.02,587.564 L2555.02,586.001 C2555.02,582.178 2556.08,579.032 2558.2,576.564 C2560.32,574.095 2563,572.86 2566.23,572.86 C2569.15,572.86 2571.49,573.824 2573.23,575.751 C2574.97,577.678 2575.84,580.314 2575.84,583.657 L2575.84,585.673 L2556.34,585.673 L2556.34,586.001 L2556.34,587.564 C2556.34,590.782 2557.25,593.485 2559.07,595.673 C2560.89,597.86 2563.24,598.954 2566.1,598.954 C2567.69,598.954 2569.2,598.663 2570.66,598.079 C2572.11,597.496 2573.29,596.715 2574.21,595.735 L2574.91,596.767 C2573.99,597.788 2572.79,598.629 2571.33,599.29 C2569.87,599.952 2568.12,600.282 2566.1,600.282 M2566.23,574.173 C2563.49,574.173 2561.24,575.123 2559.49,577.025 C2557.74,578.926 2556.75,581.324 2556.52,584.22 L2556.6,584.36 L2574.52,584.36 L2574.52,583.548 C2574.52,580.84 2573.78,578.6 2572.31,576.829 C2570.83,575.058 2568.8,574.173 2566.23,574.173"/>
<path class="Lyrics" d="M699.419,587.048 C699.419,591.121 698.539,594.345 696.778,596.72 C695.018,599.095 692.596,600.282 689.513,600.282 C687.44,600.282 685.635,599.866 684.099,599.032 C682.562,598.199 681.362,597.084 680.497,595.689 L680.325,599.767 L679.2,599.767 L679.2,592.564 C679.2,592.512 679.2,592.47 679.2,592.439 C679.2,592.407 679.2,592.376 679.2,592.345 L679.2,581.579 C679.2,581.558 679.2,581.545 679.2,581.54 C679.2,581.535 679.2,581.48 679.2,581.376 L679.2,561.673 L680.544,561.673 L680.544,577.985 C681.429,576.392 682.619,575.139 684.114,574.228 C685.609,573.316 687.388,572.86 689.45,572.86 C692.565,572.86 695.005,574.095 696.77,576.564 C698.536,579.032 699.419,582.355 699.419,586.532 L699.419,587.048 M698.044,586.532 C698.044,582.876 697.312,579.902 695.849,577.61 C694.385,575.319 692.263,574.173 689.481,574.173 C686.971,574.173 685.013,574.801 683.606,576.056 C682.2,577.311 681.179,578.86 680.544,580.704 L680.544,593.345 C681.211,595.053 682.302,596.415 683.817,597.431 C685.333,598.446 687.237,598.954 689.528,598.954 C692.31,598.954 694.424,597.881 695.872,595.735 C697.32,593.59 698.044,590.694 698.044,587.048 L698.044,586.532 M722.81,594.876 C721.893,596.48 720.531,597.782 718.724,598.782 C716.916,599.782 714.726,600.282 712.153,600.282 C709.705,600.282 707.781,599.61 706.38,598.267 C704.979,596.923 704.278,595.11 704.278,592.829 C704.278,590.621 705.323,588.767 707.411,587.267 C709.5,585.767 712.117,585.017 715.263,585.017 L722.81,585.017 L722.81,581.157 C722.81,578.959 722.104,577.246 720.692,576.017 C719.281,574.788 717.299,574.173 714.747,574.173 C712.351,574.173 710.427,574.748 708.974,575.9 C707.52,577.051 706.794,578.538 706.794,580.36 L705.685,580.36 L705.638,580.235 C705.544,578.173 706.343,576.428 708.036,575.001 C709.729,573.574 711.966,572.86 714.747,572.86 C717.58,572.86 719.851,573.577 721.56,575.009 C723.268,576.441 724.122,578.506 724.122,581.204 L724.122,594.439 C724.122,595.366 724.174,596.269 724.278,597.15 C724.382,598.03 724.56,598.902 724.81,599.767 L723.341,599.767 C723.132,598.61 722.992,597.743 722.919,597.165 C722.846,596.587 722.81,595.965 722.81,595.298 L722.81,594.876 M712.153,598.985 C714.778,598.985 716.997,598.407 718.81,597.251 C720.622,596.095 721.955,594.444 722.81,592.298 L722.81,586.36 L715.341,586.36 C712.601,586.36 710.291,586.991 708.411,588.251 C706.531,589.512 705.591,591.069 705.591,592.923 C705.591,594.704 706.19,596.16 707.388,597.29 C708.586,598.42 710.174,598.985 712.153,598.985"/>
<path class="Lyrics" d="M1126.97,587.048 C1126.97,591.121 1126.09,594.345 1124.32,596.72 C1122.56,599.095 1120.14,600.282 1117.06,600.282 C1114.99,600.282 1113.18,599.866 1111.65,599.032 C1110.11,598.199 1108.91,597.084 1108.04,595.689 L1107.87,599.767 L1106.75,599.767 L1106.75,592.564 C1106.75,592.512 1106.75,592.47 1106.75,592.439 C1106.75,592.407 1106.75,592.376 1106.75,592.345 L1106.75,581.579 C1106.75,581.558 1106.75,581.545 1106.75,581.54 C1106.75,581.535 1106.75,581.48 1106.75,581.376 L1106.75,561.673 L1108.09,561.673 L1108.09,577.985 C1108.98,576.392 1110.17,575.139 1111.66,574.228 C1113.16,573.316 1114.93,572.86 1117,572.86 C1120.11,572.86 1122.55,574.095 1124.32,576.564 C1126.08,579.032 1126.97,582.355 1126.97,586.532 L1126.97,587.048 M1125.59,586.532 C1125.59,582.876 1124.86,579.902 1123.4,577.61 C1121.93,575.319 1119.81,574.173 1117.03,574.173 C1114.52,574.173 1112.56,574.801 1111.15,576.056 C1109.75,577.311 1108.73,578.86 1108.09,580.704 L1108.09,593.345 C1108.76,595.053 1109.85,596.415 1111.36,597.431 C1112.88,598.446 1114.78,598.954 1117.07,598.954 C1119.86,598.954 1121.97,597.881 1123.42,595.735 C1124.87,593.59 1125.59,590.694 1125.59,587.048 L1125.59,586.532 M1150.36,594.876 C1149.44,596.48 1148.08,597.782 1146.27,598.782 C1144.46,599.782 1142.27,600.282 1139.7,600.282 C1137.25,600.282 1135.33,599.61 1133.93,598.267 C1132.53,596.923 1131.82,595.11 1131.82,592.829 C1131.82,590.621 1132.87,588.767 1134.96,587.267 C1137.05,585.767 1139.66,585.017 1142.81,585.017 L1150.36,585.017 L1150.36,581.157 C1150.36,578.959 1149.65,577.246 1148.24,576.017 C1146.83,574.788 1144.85,574.173 1142.29,574.173 C1139.9,574.173 1137.97,574.748 1136.52,575.9 C1135.07,577.051 1134.34,578.538 1134.34,580.36 L1133.23,580.36 L1133.18,580.235 C1133.09,578.173 1133.89,576.428 1135.58,575.001 C1137.28,573.574 1139.51,572.86 1142.29,572.86 C1145.13,572.86 1147.4,573.577 1149.11,575.009 C1150.81,576.441 1151.67,578.506 1151.67,581.204 L1151.67,594.439 C1151.67,595.366 1151.72,596.269 1151.82,597.15 C1151.93,598.03 1152.11,598.902 1152.36,599.767 L1150.89,599.767 C1150.68,598.61 1150.54,597.743 1150.47,597.165 C1150.39,596.587 1150.36,595.965 1150.36,595.298 L1150.36,594.876 M1139.7,598.985 C1142.32,598.985 1144.54,598.407 1146.36,597.251 C1148.17,596.095 1149.5,594.444 1150.36,592.298 L1150.36,586.36 L1142.89,586.36 C1140.15,586.36 1137.84,586.991 1135.96,588.251 C1134.08,589.512 1133.14,591.069 1133.14,592.923 C1133.14,594.704 1133.74,596.16 1134.93,597.29 C1136.13,598.42 1137.72,598.985 1139.7,598.985"/>
<path class="Lyrics" d="M2644.05,587.048 C2644.05,591.121 2643.17,594.345 2641.41,596.72 C2639.65,599.095 2637.23,600.282 2634.14,600.282 C2632.09,600.282 2630.31,599.876 2628.78,599.064 C2627.26,598.251 2626.06,597.142 2625.17,595.735 L2625.17,609.923 L2623.83,609.923 L2623.83,592.532 C2623.83,592.491 2623.83,592.454 2623.83,592.423 C2623.83,592.392 2623.83,592.355 2623.83,592.314 L2623.83,581.579 C2623.83,581.558 2623.83,581.545 2623.83,581.54 C2623.83,581.535 2623.83,581.48 2623.83,581.376 L2623.83,573.345 L2624.88,573.345 L2625.16,578.017 C2626.03,576.423 2627.23,575.165 2628.75,574.243 C2630.26,573.321 2632.04,572.86 2634.08,572.86 C2637.2,572.86 2639.64,574.095 2641.4,576.564 C2643.17,579.032 2644.05,582.355 2644.05,586.532 L2644.05,587.048 M2642.71,586.532 C2642.71,582.876 2641.97,579.902 2640.5,577.61 C2639.02,575.319 2636.89,574.173 2634.11,574.173 C2631.6,574.173 2629.64,574.801 2628.24,576.056 C2626.83,577.311 2625.81,578.86 2625.17,580.704 L2625.17,593.314 C2625.84,595.043 2626.93,596.415 2628.45,597.431 C2629.96,598.446 2631.87,598.954 2634.16,598.954 C2636.94,598.954 2639.06,597.881 2640.52,595.735 C2641.98,593.59 2642.71,590.694 2642.71,587.048 L2642.71,586.532 M2648.78,586.048 C2648.78,582.173 2649.85,579.006 2652,576.548 C2654.14,574.09 2656.91,572.86 2660.33,572.86 C2663.77,572.86 2666.56,574.09 2668.7,576.548 C2670.84,579.006 2671.91,582.173 2671.91,586.048 L2671.91,587.064 C2671.91,590.959 2670.84,594.137 2668.7,596.595 C2666.56,599.053 2663.78,600.282 2660.38,600.282 C2656.94,600.282 2654.15,599.053 2652,596.595 C2649.86,594.137 2648.78,590.959 2648.78,587.064 L2648.78,586.048 M2650.1,587.064 C2650.1,590.387 2651.03,593.199 2652.89,595.501 C2654.75,597.803 2657.24,598.954 2660.38,598.954 C2663.47,598.954 2665.95,597.801 2667.8,595.493 C2669.65,593.186 2670.58,590.376 2670.58,587.064 L2670.58,586.048 C2670.58,582.808 2669.65,580.019 2667.78,577.681 C2665.91,575.342 2663.42,574.173 2660.33,574.173 C2657.23,574.173 2654.75,575.342 2652.89,577.681 C2651.03,580.019 2650.1,582.808 2650.1,586.048 L2650.1,587.064 "/>
<path class="Lyrics" d="M593.346,599.767 L592.034,599.767 L592.034,561.673 L593.346,561.673 L593.346,599.767 M619.299,594.876 C618.383,596.48 617.021,597.782 615.213,598.782 C613.406,599.782 611.216,600.282 608.643,600.282 C606.195,600.282 604.271,599.61 602.87,598.267 C601.468,596.923 600.768,595.11 600.768,592.829 C600.768,590.621 601.812,588.767 603.901,587.267 C605.989,585.767 608.606,585.017 611.752,585.017 L619.299,585.017 L619.299,581.157 C619.299,578.959 618.593,577.246 617.182,576.017 C615.771,574.788 613.789,574.173 611.237,574.173 C608.841,574.173 606.916,574.748 605.463,575.9 C604.01,577.051 603.284,578.538 603.284,580.36 L602.174,580.36 L602.127,580.235 C602.034,578.173 602.833,576.428 604.526,575.001 C606.218,573.574 608.455,572.86 611.237,572.86 C614.07,572.86 616.341,573.577 618.049,575.009 C619.758,576.441 620.612,578.506 620.612,581.204 L620.612,594.439 C620.612,595.366 620.664,596.269 620.768,597.15 C620.872,598.03 621.049,598.902 621.299,599.767 L619.83,599.767 C619.622,598.61 619.481,597.743 619.409,597.165 C619.336,596.587 619.299,595.965 619.299,595.298 L619.299,594.876 M608.643,598.985 C611.268,598.985 613.487,598.407 615.299,597.251 C617.112,596.095 618.445,594.444 619.299,592.298 L619.299,586.36 L611.83,586.36 C609.091,586.36 606.781,586.991 604.901,588.251 C603.021,589.512 602.08,591.069 602.08,592.923 C602.08,594.704 602.679,596.16 603.877,597.29 C605.075,598.42 606.664,598.985 608.643,598.985"/>
<path class="Lyrics" d="M1346.44,574.298 L1344.74,574.157 C1342.38,574.157 1340.46,574.918 1338.98,576.439 C1337.51,577.959 1336.55,579.965 1336.12,582.454 L1336.12,599.767 L1334.8,599.767 L1334.8,573.345 L1335.88,573.345 L1336.12,577.939 L1336.12,578.845 C1336.85,576.959 1337.94,575.491 1339.39,574.439 C1340.84,573.387 1342.63,572.86 1344.74,572.86 C1345.12,572.86 1345.46,572.889 1345.78,572.946 C1346.1,573.004 1346.37,573.064 1346.59,573.126 L1346.44,574.298 M1362.44,574.298 L1360.74,574.157 C1358.38,574.157 1356.46,574.918 1354.98,576.439 C1353.51,577.959 1352.55,579.965 1352.12,582.454 L1352.12,599.767 L1350.8,599.767 L1350.8,573.345 L1351.88,573.345 L1352.12,577.939 L1352.12,578.845 C1352.85,576.959 1353.94,575.491 1355.39,574.439 C1356.84,573.387 1358.63,572.86 1360.74,572.86 C1361.12,572.86 1361.46,572.889 1361.78,572.946 C1362.1,573.004 1362.37,573.064 1362.59,573.126 L1362.44,574.298 M1368.43,599.767 L1367.12,599.767 L1367.12,573.345 L1368.43,573.345 L1368.43,599.767 M1368.43,565.048 L1367.12,565.048 L1367.12,561.673 L1368.43,561.673 L1368.43,565.048 M1375.73,586.048 C1375.73,582.173 1376.8,579.006 1378.94,576.548 C1381.08,574.09 1383.86,572.86 1387.27,572.86 C1390.71,572.86 1393.5,574.09 1395.64,576.548 C1397.78,579.006 1398.85,582.173 1398.85,586.048 L1398.85,587.064 C1398.85,590.959 1397.78,594.137 1395.64,596.595 C1393.5,599.053 1390.73,600.282 1387.32,600.282 C1383.88,600.282 1381.09,599.053 1378.94,596.595 C1376.8,594.137 1375.73,590.959 1375.73,587.064 L1375.73,586.048 M1377.04,587.064 C1377.04,590.387 1377.97,593.199 1379.83,595.501 C1381.69,597.803 1384.18,598.954 1387.32,598.954 C1390.41,598.954 1392.89,597.801 1394.74,595.493 C1396.6,593.186 1397.52,590.376 1397.52,587.064 L1397.52,586.048 C1397.52,582.808 1396.59,580.019 1394.72,577.681 C1392.85,575.342 1390.37,574.173 1387.27,574.173 C1384.17,574.173 1381.69,575.342 1379.83,577.681 C1377.97,580.019 1377.04,582.808 1377.04,586.048 L1377.04,587.064 "/>
<path class="Lyrics" d="M2712,573.345 L2712.17,578.673 C2712.98,576.829 2714.15,575.4 2715.68,574.384 C2717.2,573.368 2719.09,572.86 2721.33,572.86 C2724.2,572.86 2726.36,573.769 2727.8,575.587 C2729.25,577.405 2729.97,580.282 2729.97,584.22 L2729.97,599.767 L2728.64,599.767 L2728.64,584.173 C2728.64,580.506 2727.98,577.923 2726.68,576.423 C2725.37,574.923 2723.59,574.173 2721.34,574.173 C2718.57,574.173 2716.45,574.98 2714.99,576.595 C2713.53,578.209 2712.59,580.288 2712.19,582.829 L2712.19,599.767 L2710.87,599.767 L2710.87,586.235 L2710.79,586.235 C2710.79,585.933 2710.79,585.623 2710.79,585.306 C2710.79,584.988 2710.82,584.663 2710.87,584.329 L2710.87,573.345 L2712,573.345 M2747.12,600.282 C2744.02,600.282 2741.4,599.077 2739.26,596.665 C2737.11,594.254 2736.04,591.22 2736.04,587.564 L2736.04,586.001 C2736.04,582.178 2737.1,579.032 2739.22,576.564 C2741.34,574.095 2744.02,572.86 2747.25,572.86 C2750.17,572.86 2752.51,573.824 2754.25,575.751 C2755.99,577.678 2756.86,580.314 2756.86,583.657 L2756.86,585.673 L2737.36,585.673 L2737.36,586.001 L2737.36,587.564 C2737.36,590.782 2738.27,593.485 2740.09,595.673 C2741.91,597.86 2744.26,598.954 2747.12,598.954 C2748.71,598.954 2750.22,598.663 2751.68,598.079 C2753.13,597.496 2754.32,596.715 2755.23,595.735 L2755.94,596.767 C2755.01,597.788 2753.81,598.629 2752.35,599.29 C2750.89,599.952 2749.14,600.282 2747.12,600.282 M2747.25,574.173 C2744.51,574.173 2742.26,575.123 2740.51,577.025 C2738.76,578.926 2737.77,581.324 2737.54,584.22 L2737.62,584.36 L2755.54,584.36 L2755.54,583.548 C2755.54,580.84 2754.81,578.6 2753.33,576.829 C2751.85,575.058 2749.82,574.173 2747.25,574.173 M2775.51,574.298 L2773.81,574.157 C2771.45,574.157 2769.53,574.918 2768.05,576.439 C2766.58,577.959 2765.62,579.965 2765.19,582.454 L2765.19,599.767 L2763.87,599.767 L2763.87,573.345 L2764.95,573.345 L2765.19,577.939 L2765.19,578.845 C2765.91,576.959 2767.01,575.491 2768.46,574.439 C2769.91,573.387 2771.7,572.86 2773.81,572.86 C2774.19,572.86 2774.53,572.889 2774.85,572.946 C2775.17,573.004 2775.44,573.064 2775.65,573.126 L2775.51,574.298 "/>
<path class="Lyrics" d="M488.492,586.532 C488.492,582.355 489.37,579.032 491.125,576.564 C492.88,574.095 495.32,572.86 498.445,572.86 C500.497,572.86 502.276,573.321 503.781,574.243 C505.286,575.165 506.487,576.423 507.383,578.017 L507.383,561.673 L508.695,561.673 L508.695,581.485 C508.695,581.517 508.695,581.54 508.695,581.556 C508.695,581.571 508.695,581.579 508.695,581.579 L508.695,592.345 C508.695,592.376 508.695,592.4 508.695,592.415 C508.695,592.431 508.695,592.449 508.695,592.47 L508.695,599.767 L507.414,599.767 L507.414,595.689 C506.528,597.105 505.32,598.225 503.789,599.048 C502.258,599.871 500.466,600.282 498.414,600.282 C495.299,600.282 492.867,599.095 491.117,596.72 C489.367,594.345 488.492,591.121 488.492,587.048 L488.492,586.532 M489.851,587.048 C489.851,590.694 490.573,593.59 492.015,595.735 C493.458,597.881 495.575,598.954 498.367,598.954 C500.669,598.954 502.575,598.439 504.086,597.407 C505.596,596.376 506.695,594.996 507.383,593.267 L507.383,580.767 C506.737,578.902 505.708,577.337 504.297,576.071 C502.885,574.806 500.929,574.173 498.429,574.173 C495.627,574.173 493.497,575.319 492.039,577.61 C490.581,579.902 489.851,582.876 489.851,586.532 L489.851,587.048 M533.289,594.876 C532.372,596.48 531.01,597.782 529.203,598.782 C527.396,599.782 525.206,600.282 522.633,600.282 C520.185,600.282 518.26,599.61 516.859,598.267 C515.458,596.923 514.758,595.11 514.758,592.829 C514.758,590.621 515.802,588.767 517.89,587.267 C519.979,585.767 522.596,585.017 525.742,585.017 L533.289,585.017 L533.289,581.157 C533.289,578.959 532.583,577.246 531.172,576.017 C529.76,574.788 527.778,574.173 525.226,574.173 C522.831,574.173 520.906,574.748 519.453,575.9 C518,577.051 517.273,578.538 517.273,580.36 L516.164,580.36 L516.117,580.235 C516.023,578.173 516.823,576.428 518.515,575.001 C520.208,573.574 522.445,572.86 525.226,572.86 C528.06,572.86 530.331,573.577 532.039,575.009 C533.747,576.441 534.601,578.506 534.601,581.204 L534.601,594.439 C534.601,595.366 534.653,596.269 534.758,597.15 C534.862,598.03 535.039,598.902 535.289,599.767 L533.82,599.767 C533.612,598.61 533.471,597.743 533.398,597.165 C533.325,596.587 533.289,595.965 533.289,595.298 L533.289,594.876 M522.633,598.985 C525.258,598.985 527.476,598.407 529.289,597.251 C531.101,596.095 532.435,594.444 533.289,592.298 L533.289,586.36 L525.82,586.36 C523.081,586.36 520.771,586.991 518.89,588.251 C517.01,589.512 516.07,591.069 516.07,592.923 C516.07,594.704 516.669,596.16 517.867,597.29 C519.065,598.42 520.653,598.985 522.633,598.985"/>
<path class="Lyrics" d="M401.935,566.22 L401.935,573.345 L408.419,573.345 L408.419,574.689 L401.935,574.689 L401.935,592.954 C401.935,595.121 402.299,596.663 403.028,597.579 C403.758,598.496 404.726,598.954 405.935,598.954 C406.372,598.954 406.763,598.939 407.107,598.907 C407.45,598.876 407.924,598.819 408.528,598.735 L408.763,599.939 C408.357,600.064 407.935,600.152 407.497,600.204 C407.06,600.256 406.565,600.282 406.013,600.282 C404.232,600.282 402.883,599.704 401.966,598.548 C401.049,597.392 400.591,595.527 400.591,592.954 L400.591,574.689 L395.7,574.689 L395.7,573.345 L400.591,573.345 L400.591,566.22 L401.935,566.22 M413.122,586.048 C413.122,582.173 414.193,579.006 416.333,576.548 C418.474,574.09 421.252,572.86 424.669,572.86 C428.107,572.86 430.896,574.09 433.036,576.548 C435.177,579.006 436.247,582.173 436.247,586.048 L436.247,587.064 C436.247,590.959 435.177,594.137 433.036,596.595 C430.896,599.053 428.122,600.282 424.716,600.282 C421.278,600.282 418.487,599.053 416.341,596.595 C414.195,594.137 413.122,590.959 413.122,587.064 L413.122,586.048 M414.435,587.064 C414.435,590.387 415.364,593.199 417.224,595.501 C419.083,597.803 421.581,598.954 424.716,598.954 C427.81,598.954 430.284,597.801 432.138,595.493 C433.992,593.186 434.919,590.376 434.919,587.064 L434.919,586.048 C434.919,582.808 433.984,580.019 432.114,577.681 C430.245,575.342 427.763,574.173 424.669,574.173 C421.565,574.173 419.083,575.342 417.224,577.681 C415.364,580.019 414.435,582.808 414.435,586.048 L414.435,587.064 "/>
<path class="Jump" d="M2591.77,376.566 L2591.77,337.457 L2603.4,337.457 C2607.89,337.457 2611.7,339.069 2614.83,342.293 C2617.97,345.517 2619.54,349.629 2619.54,354.629 L2619.54,359.41 C2619.54,364.421 2617.97,368.533 2614.83,371.746 C2611.7,374.96 2607.89,376.566 2603.4,376.566 L2591.77,376.566 M2593.22,338.91 L2593.22,375.113 L2603.4,375.113 C2607.46,375.113 2610.92,373.629 2613.79,370.66 C2616.65,367.691 2618.08,363.941 2618.08,359.41 L2618.08,354.551 C2618.08,350.072 2616.65,346.345 2613.79,343.371 C2610.92,340.397 2607.46,338.91 2603.4,338.91 L2593.22,338.91 M2627.35,376.566 L2625.04,376.566 L2625.04,373.082 L2627.35,373.082 L2627.35,376.566 M2663.86,364.582 L2663.93,364.754 C2664,368.764 2662.79,371.829 2660.29,373.949 C2657.79,376.069 2654.5,377.129 2650.41,377.129 C2646.14,377.129 2642.72,375.548 2640.14,372.387 C2637.56,369.225 2636.27,365.077 2636.27,359.941 L2636.27,354.082 C2636.27,348.967 2637.56,344.824 2640.14,341.652 C2642.72,338.481 2646.14,336.895 2650.41,336.895 C2654.5,336.895 2657.79,337.96 2660.29,340.09 C2662.79,342.22 2664,345.264 2663.93,349.223 L2663.86,349.395 L2662.63,349.395 C2662.63,345.863 2661.53,343.139 2659.34,341.223 C2657.15,339.306 2654.17,338.348 2650.41,338.348 C2646.6,338.348 2643.53,339.79 2641.2,342.676 C2638.87,345.561 2637.71,349.348 2637.71,354.035 L2637.71,359.941 C2637.71,364.691 2638.87,368.501 2641.2,371.371 C2643.53,374.241 2646.6,375.676 2650.41,375.676 C2654.17,375.676 2657.15,374.754 2659.34,372.91 C2661.53,371.066 2662.63,368.29 2662.63,364.582 L2663.86,364.582 M2674.35,376.566 L2672.04,376.566 L2672.04,373.082 L2674.35,373.082 L2674.35,376.566 M2715.26,371.191 C2714.25,372.952 2712.75,374.382 2710.76,375.481 C2708.78,376.579 2706.37,377.129 2703.54,377.129 C2700.84,377.129 2698.72,376.389 2697.18,374.91 C2695.64,373.431 2694.86,371.441 2694.86,368.941 C2694.86,366.504 2696.02,364.462 2698.32,362.816 C2700.62,361.171 2703.5,360.348 2706.96,360.348 L2715.26,360.348 L2715.26,356.098 C2715.26,353.681 2714.48,351.798 2712.93,350.449 C2711.38,349.1 2709.19,348.426 2706.38,348.426 C2703.76,348.426 2701.64,349.059 2700.04,350.324 C2698.43,351.59 2697.63,353.223 2697.63,355.223 L2696.43,355.223 L2696.36,355.082 C2696.26,352.822 2697.14,350.905 2699.01,349.332 C2700.87,347.759 2703.33,346.973 2706.38,346.973 C2709.51,346.973 2712.01,347.759 2713.88,349.332 C2715.76,350.905 2716.69,353.181 2716.69,356.16 L2716.69,370.707 C2716.69,371.728 2716.75,372.723 2716.87,373.691 C2716.99,374.66 2717.19,375.619 2717.46,376.566 L2715.83,376.566 C2715.6,375.296 2715.45,374.342 2715.37,373.707 C2715.29,373.072 2715.26,372.384 2715.26,371.645 L2715.26,371.191 M2703.54,375.707 C2706.42,375.707 2708.86,375.072 2710.86,373.801 C2712.85,372.53 2714.32,370.712 2715.26,368.348 L2715.26,361.816 L2707.04,361.816 C2704.03,361.816 2701.49,362.512 2699.42,363.902 C2697.35,365.293 2696.32,367.009 2696.32,369.051 C2696.32,370.999 2696.98,372.595 2698.29,373.84 C2699.61,375.085 2701.36,375.707 2703.54,375.707 M2727.82,376.566 L2726.36,376.566 L2726.36,334.676 L2727.82,334.676 L2727.82,376.566 M2771.44,357.332 L2752.22,357.332 L2752.22,376.566 L2750.77,376.566 L2750.77,337.457 L2774.19,337.457 L2774.19,338.91 L2752.22,338.91 L2752.22,355.832 L2771.44,355.832 L2771.44,357.332 M2782.82,376.566 L2781.36,376.566 L2781.36,347.504 L2782.82,347.504 L2782.82,376.566 M2782.82,338.379 L2781.36,338.379 L2781.36,334.676 L2782.82,334.676 L2782.82,338.379 M2793.26,347.504 L2793.44,353.363 C2794.34,351.342 2795.63,349.772 2797.31,348.652 C2798.99,347.533 2801.06,346.973 2803.51,346.973 C2806.67,346.973 2809.05,347.97 2810.64,349.965 C2812.23,351.96 2813.02,355.124 2813.02,359.457 L2813.02,376.566 L2811.57,376.566 L2811.57,359.41 C2811.57,355.379 2810.85,352.54 2809.4,350.895 C2807.96,349.249 2806.01,348.426 2803.54,348.426 C2800.5,348.426 2798.17,349.311 2796.55,351.082 C2794.94,352.853 2793.91,355.134 2793.46,357.926 L2793.46,376.566 L2792.02,376.566 L2792.02,361.691 L2791.93,361.691 C2791.93,361.348 2791.93,361.001 2791.93,360.652 C2791.93,360.303 2791.96,359.952 2792.02,359.598 L2792.02,347.504 L2793.26,347.504 M2833.19,377.129 C2829.78,377.129 2826.89,375.803 2824.54,373.152 C2822.18,370.501 2821.01,367.165 2821.01,363.145 L2821.01,361.426 C2821.01,357.217 2822.17,353.757 2824.51,351.043 C2826.84,348.329 2829.78,346.973 2833.33,346.973 C2836.55,346.973 2839.12,348.033 2841.04,350.152 C2842.95,352.272 2843.91,355.171 2843.91,358.848 L2843.91,361.066 L2822.46,361.066 L2822.46,361.426 L2822.46,363.145 C2822.46,366.686 2823.46,369.66 2825.47,372.066 C2827.47,374.473 2830.05,375.676 2833.19,375.676 C2834.93,375.676 2836.6,375.356 2838.2,374.715 C2839.8,374.074 2841.1,373.212 2842.11,372.129 L2842.9,373.27 C2841.88,374.395 2840.56,375.319 2838.94,376.043 C2837.33,376.767 2835.41,377.129 2833.19,377.129 M2833.33,348.426 C2830.32,348.426 2827.85,349.467 2825.93,351.551 C2824,353.634 2822.91,356.27 2822.66,359.457 L2822.74,359.613 L2842.46,359.613 L2842.46,358.738 C2842.46,355.749 2841.64,353.283 2840.01,351.34 C2838.38,349.397 2836.16,348.426 2833.33,348.426"/>
<path class="Harmony" d="M420.947,330.057 C419.244,330.057 417.244,330.12 415.103,330.276 C414.728,330.338 414.135,330.338 413.182,330.416 C412.807,330.495 412.291,330.416 411.557,330.198 C410.963,330.057 410.51,329.823 410.213,329.526 C409.775,329.166 409.478,328.416 409.26,327.385 C409.103,326.495 409.041,325.541 409.041,324.495 L409.041,323.979 C409.041,323.323 409.103,322.213 409.182,320.651 C409.26,319.682 409.4,318.87 409.478,318.057 C409.557,317.541 409.775,317.104 410.15,316.729 C410.51,316.354 410.963,316.135 411.478,316.057 C411.994,315.995 412.51,316.057 412.963,316.057 C413.4,316.057 414.072,316.135 414.728,316.213 C415.4,316.291 415.916,316.291 416.213,316.291 L417.4,316.291 C418.728,316.291 420.572,316.291 423.025,316.432 C425.463,316.51 427.541,316.588 429.088,316.588 L430.494,316.588 C430.791,316.588 431.307,316.651 431.9,316.651 L433.385,316.651 C433.76,316.651 434.197,316.651 434.713,316.51 C435.228,316.354 435.603,316.135 435.978,315.916 C436.557,315.541 437.01,314.885 437.385,313.916 C437.744,312.948 437.963,311.995 437.963,311.104 L437.963,310.807 C437.963,309.995 437.822,309.26 437.447,308.51 C437.088,307.698 436.416,307.182 435.603,306.963 C434.635,306.666 433.463,306.51 432.197,306.51 L431.463,306.51 C430.353,306.51 429.166,306.588 427.838,306.666 C426.197,306.745 425.025,306.807 424.353,306.807 C423.088,306.807 421.541,306.745 419.619,306.588 C417.697,306.448 415.994,306.37 414.51,306.291 C413.322,306.213 412.072,306.291 410.666,306.291 L409.619,306.291 C407.635,306.291 406.072,306.37 404.822,306.588 C404.291,306.666 403.853,306.885 403.478,307.104 C403.119,307.323 402.885,307.62 402.603,307.995 C402.307,308.37 402.01,308.807 401.853,309.323 C401.713,309.854 401.635,310.37 401.557,310.807 C401.478,311.26 401.416,311.838 401.338,312.51 C401.26,313.182 401.26,313.698 401.26,314.135 C401.26,314.588 401.338,315.104 401.338,315.76 L401.338,317.166 C401.338,326.416 401.26,332.713 401.119,336.041 C401.041,338.12 400.9,340.854 400.822,344.338 C400.666,347.666 400.603,349.963 400.603,351.291 C400.666,351.885 400.666,352.245 400.666,352.479 C400.822,353.432 400.9,354.401 400.9,355.291 C400.9,355.807 400.9,356.245 400.822,356.62 C400.744,356.698 400.822,357.135 400.822,357.948 L400.822,361.432 C400.744,362.541 401.197,363.198 402.01,363.495 C402.744,363.729 403.182,363.87 403.26,363.87 L403.557,363.87 C405.182,363.495 406.291,363.135 406.963,362.682 C407.775,362.088 408.369,361.354 408.744,360.463 C409.103,359.573 409.338,358.541 409.4,357.432 C409.478,356.995 409.478,356.463 409.478,355.948 C409.557,355.291 409.478,354.541 409.4,353.885 C409.182,352.401 409.041,351.135 408.963,350.104 C408.807,348.182 408.744,346.916 408.666,346.401 C408.588,346.041 408.588,345.745 408.588,345.37 C408.588,344.557 408.666,343.823 408.807,343.073 C409.041,341.963 409.4,341.073 409.916,340.338 C410.15,340.041 410.369,339.745 410.744,339.604 C411.103,339.448 411.557,339.37 411.916,339.307 C412.291,339.229 412.728,339.151 413.26,339.151 C413.775,339.151 414.213,339.151 414.588,339.229 L415.916,339.37 C415.994,339.448 416.51,339.526 417.4,339.526 L419.994,339.448 C420.213,339.448 421.76,339.526 424.65,339.604 L425.322,339.604 C426.869,339.604 428.416,339.37 430.119,339.01 C430.494,338.932 430.869,338.26 431.385,337.01 C431.822,335.901 432.057,335.088 432.057,334.416 L432.057,333.901 C432.057,333.229 431.9,332.573 431.603,331.901 C431.228,331.088 430.572,330.573 429.76,330.338 L427.01,330.338 L425.463,330.338 C423.322,330.12 421.838,330.057 421.025,330.057 L420.947,330.057 "/>
<path class="Harmony" d="M444.603,340.182 C444.603,343.963 444.525,346.557 444.463,347.807 C444.385,347.885 444.307,349.37 444.228,352.104 C444.166,352.776 444.088,354.323 444.01,356.916 C444.01,357.057 443.869,357.651 443.572,358.698 C443.275,359.729 443.197,360.323 443.197,360.682 L443.197,361.213 C443.275,361.948 443.275,362.541 443.353,363.057 C443.416,363.432 443.791,363.651 444.525,363.651 C444.76,363.651 445.338,363.495 446.088,363.135 C446.822,362.76 447.572,362.323 448.447,361.791 C449.338,361.276 450.088,360.76 450.744,360.323 C451.416,359.87 451.713,359.432 451.791,359.213 C452.307,357.354 452.525,355.432 452.525,353.354 L452.525,352.995 L452.525,351.807 C452.447,351.588 452.447,351.291 452.447,350.916 C452.525,349.885 452.603,348.323 452.744,346.338 C452.9,344.182 453.338,342.12 454.072,340.182 C454.744,338.338 456.15,336.791 458.228,335.604 L458.744,335.604 C458.963,335.604 459.041,335.604 459.103,335.526 C459.182,335.448 459.338,335.448 459.4,335.448 L460.807,335.448 C461.338,335.448 461.697,335.823 461.853,336.416 L461.853,339.666 L461.853,342.698 C461.775,343.823 461.619,345.213 461.557,346.854 C461.478,348.479 461.4,350.026 461.338,351.588 C461.26,353.135 461.103,354.479 461.041,355.588 L460.885,357.291 L459.932,358.245 L459.932,364.838 C461.619,364.838 463.26,364.604 464.728,364.245 C466.213,363.87 467.619,363.057 469.025,361.87 C469.463,358.541 469.838,355.057 470.135,351.432 C470.432,347.807 470.65,344.338 470.807,341.01 C471.4,340.557 471.916,340.041 472.275,339.37 C472.65,338.713 473.025,338.12 473.463,337.526 C473.916,336.932 474.353,336.495 474.947,336.041 C475.541,335.604 476.275,335.448 477.244,335.448 C477.9,335.448 478.432,335.604 478.791,336.041 C479.166,336.495 479.385,337.01 479.541,337.604 C479.682,338.198 479.76,338.776 479.838,339.448 C479.9,340.12 479.9,340.713 479.9,341.229 C479.9,345.073 479.76,348.916 479.385,352.698 C479.01,356.463 478.869,360.323 478.869,364.166 C480.947,364.166 482.713,363.729 484.119,362.838 C485.525,361.948 486.869,360.76 488.041,359.213 C488.275,357.354 488.494,355.729 488.635,354.245 C488.791,352.776 488.853,351.291 488.932,349.807 C489.01,348.323 489.01,346.854 489.01,345.448 L489.01,340.557 L489.01,338.854 C489.01,338.041 489.01,337.151 488.932,336.26 C488.853,335.385 488.853,334.495 488.853,333.682 L488.853,331.979 C488.494,330.338 487.603,329.166 486.338,328.416 C485.088,327.682 483.682,327.307 482.275,327.307 C481.166,327.307 480.135,327.604 479.244,328.057 C478.353,328.495 477.682,329.088 477.025,329.682 C476.353,330.276 475.619,330.87 474.947,331.307 C474.275,331.745 473.541,331.979 472.728,331.979 C471.994,331.979 471.463,331.745 471.103,331.166 C470.728,330.573 470.432,329.979 470.057,329.229 C469.697,328.495 469.182,327.901 468.51,327.307 C467.838,326.713 466.728,326.416 465.322,326.416 C464.072,326.416 462.963,326.713 462.072,327.307 C461.182,327.901 460.213,328.495 459.4,329.229 C458.588,329.979 457.775,330.573 457.041,331.166 C456.291,331.745 455.478,331.979 454.525,331.979 L453.635,331.979 C453.635,331.745 453.557,331.385 453.478,330.87 C453.416,330.338 453.26,329.76 453.197,329.229 C453.041,328.416 453.197,328.416 453.041,327.604 C452.963,327.088 452.822,326.713 452.744,326.573 C452.744,326.416 452.603,326.276 452.369,326.135 C452.15,325.979 451.932,325.76 451.791,325.682 L451.713,325.682 L451.416,325.604 C450.822,325.604 450.228,325.76 449.557,326.135 C448.9,326.495 448.307,327.01 447.791,327.604 C447.275,328.198 446.744,328.791 446.307,329.385 C445.869,329.979 445.572,330.573 445.494,331.088 C445.416,331.463 445.338,332.041 445.197,332.87 C445.057,333.682 444.978,334.635 444.9,335.604 C444.822,336.557 444.76,337.448 444.682,338.338 C444.603,339.229 444.603,339.823 444.603,340.182 M515.072,336.26 C514.478,340.041 514.025,342.041 513.666,342.338 C513.588,342.416 513.51,342.854 513.291,343.823 L512.994,344.854 C512.775,346.104 512.619,346.698 512.478,346.698 C512.4,347.745 512.025,348.776 511.369,349.807 C510.26,351.432 509.51,352.541 509.15,353.073 C508.338,354.245 506.557,354.838 503.744,354.838 L503.447,354.838 C503.01,354.76 502.635,354.479 502.478,354.104 C502.338,353.729 502.26,353.291 502.197,352.776 L502.197,352.026 L502.197,351.37 C502.26,350.838 502.26,350.557 502.26,350.401 C502.26,348.104 502.478,346.041 502.932,344.041 C503.369,342.041 504.119,340.416 505.15,339.01 C506.182,337.604 507.447,336.416 509.15,335.604 C510.853,334.791 512.916,334.416 515.369,334.416 C515.291,334.635 515.213,335.307 515.072,336.26 M500.197,364.166 C502.197,363.057 504.182,361.729 506.041,360.245 C506.119,360.245 506.775,359.948 508.103,359.354 C508.775,358.979 509.447,358.838 509.963,358.838 C510.26,358.838 510.557,358.916 510.775,358.979 L510.697,365.495 C511.072,365.495 511.369,365.432 511.728,365.354 C512.619,365.135 513.213,364.979 513.588,364.838 L514.994,364.166 C514.994,363.791 515.588,363.276 516.775,362.76 C517.51,362.166 518.182,361.651 518.76,361.354 C519.353,361.057 519.807,360.385 520.244,359.276 C520.4,358.979 520.463,358.62 520.4,358.104 L520.166,355.807 C520.103,355.291 520.103,354.916 520.103,354.541 C520.166,353.885 520.244,353.432 520.244,353.354 C520.322,352.995 520.244,352.541 520.025,352.026 C520.025,351.963 520.166,351.37 520.463,350.26 L520.994,348.698 C521.135,348.182 521.51,346.776 522.025,344.338 C522.541,341.885 522.838,340.12 523.057,339.01 C523.275,337.901 523.51,337.151 523.572,336.932 C523.65,336.557 523.728,335.963 523.807,335.151 C523.869,334.338 523.947,333.448 524.088,332.495 C524.244,331.526 524.385,330.635 524.541,329.823 C524.682,329.01 524.76,328.495 524.76,328.12 C524.682,327.901 524.541,327.682 524.244,327.463 C523.947,327.245 523.728,327.01 523.572,326.948 C522.978,326.791 521.947,326.573 520.541,326.276 C519.135,325.979 518.244,325.76 517.885,325.76 C516.182,325.979 514.103,326.416 511.728,327.245 C509.072,328.12 506.697,329.166 504.713,330.338 C503.588,331.01 501.666,333.01 498.853,336.338 C498.119,337.151 497.447,338.416 496.791,339.963 C496.416,340.932 495.9,342.041 495.385,343.229 C495.01,344.041 494.635,345.291 494.119,346.995 C493.9,347.666 493.603,348.479 493.307,349.51 C493.307,349.588 493.166,350.026 492.791,350.916 C492.791,351.135 492.713,351.432 492.572,352.026 C492.416,352.62 492.197,352.916 492.057,352.995 C491.978,353.135 491.9,353.51 491.9,354.026 C491.978,354.245 491.978,354.479 491.978,354.698 L491.978,356.463 C491.978,356.995 492.057,357.651 492.119,358.698 C492.197,359.729 492.353,360.245 492.416,360.323 C492.416,360.385 492.65,360.682 493.01,361.057 C493.385,361.432 493.76,361.87 494.197,362.385 C494.635,362.901 495.228,363.354 495.682,363.791 C496.119,364.245 496.494,364.604 496.853,364.838 C496.932,364.901 496.932,364.901 497.01,364.901 L497.307,364.901 C498.338,364.901 499.307,364.682 500.197,364.166 M535.635,313.026 C535.635,313.995 535.853,314.729 536.307,315.463 C536.744,316.213 537.557,316.588 538.744,316.588 C540.15,316.588 541.697,316.135 543.182,315.323 C544.666,314.51 545.4,313.245 545.4,311.62 C545.4,310.666 545.041,309.698 544.369,308.666 C543.697,307.62 542.885,307.104 541.932,307.104 C541.775,307.104 541.557,307.104 541.338,307.182 C541.119,307.26 540.963,307.26 540.885,307.26 C540.744,307.323 540.525,307.401 540.072,307.557 C539.635,307.698 539.182,307.854 538.666,308.073 L537.338,308.588 C536.963,308.729 536.744,308.885 536.666,308.963 C536.072,309.323 535.791,309.995 535.713,310.885 C535.635,311.776 535.635,312.432 535.635,313.026 M521.791,381.338 C521.572,381.713 521.494,382.073 521.494,382.448 C521.432,383.26 521.728,383.854 522.385,384.229 C522.603,384.291 522.9,384.37 523.135,384.448 C523.353,384.51 523.65,384.51 524.01,384.448 C524.307,384.37 524.682,384.291 524.978,384.151 C525.275,383.995 525.416,383.854 525.494,383.776 L529.713,381.713 C531.119,381.041 532.447,380.307 533.635,379.416 C534.822,378.526 535.853,377.416 536.744,376.229 C537.635,375.041 538.228,373.573 538.588,371.713 C538.666,371.198 538.885,370.463 539.041,369.416 C539.182,368.385 539.338,367.354 539.557,366.307 L540.15,363.573 C540.291,362.76 540.369,362.245 540.369,362.088 L540.291,359.573 C540.369,358.463 540.525,357.057 540.666,355.213 L541.182,350.104 C541.4,348.401 541.557,346.995 541.697,345.807 L541.932,344.041 L542.744,343.229 L542.807,341.666 C542.885,340.557 543.041,339.307 543.103,337.823 L543.338,333.151 C543.4,331.604 543.478,330.276 543.557,329.229 L543.557,328.354 C543.557,327.166 543.041,326.573 541.932,326.573 C541.478,326.573 540.963,326.713 540.447,327.01 C539.932,327.307 539.338,327.682 538.666,328.057 C538.01,328.416 537.478,328.87 536.963,329.229 C536.447,329.604 536.01,329.979 535.791,330.198 C535.197,330.87 534.822,331.682 534.603,332.713 C534.385,333.745 534.15,334.854 534.088,335.963 C534.01,336.713 534.01,337.448 534.01,338.198 C534.01,338.557 534.088,339.01 534.088,339.448 L534.088,340.479 C534.088,341.151 534.088,341.823 534.01,342.338 C534.01,342.479 533.932,342.995 533.853,343.885 C533.791,344.776 533.713,345.666 533.635,346.62 C533.557,347.588 533.416,348.479 533.338,349.37 C533.26,350.26 533.197,350.776 533.197,350.916 C533.197,351.135 533.26,351.588 533.26,352.245 C533.26,352.916 533.26,353.354 533.197,353.51 C533.119,354.323 533.041,355.291 533.041,356.463 C533.041,357.651 532.9,358.698 532.822,359.807 C532.744,359.87 532.603,360.682 532.525,362.088 L531.713,362.838 C531.713,363.276 531.635,363.948 531.572,364.76 C531.494,365.573 531.416,366.541 531.275,367.416 C531.119,368.307 531.041,369.12 530.978,369.932 C530.9,370.76 530.744,371.338 530.682,371.713 C530.682,372.088 530.603,372.745 530.385,373.635 C530.166,374.526 530.01,374.979 529.869,375.12 C529.197,376.37 528.228,377.26 527.057,377.854 C525.869,378.448 524.9,378.963 524.244,379.338 C523.572,379.713 522.76,380.37 521.791,381.338"/>
<path class="Harmony" d="M568.728,324.057 C568.213,325.76 567.182,328.87 565.557,333.526 C563.932,338.198 562.885,341.666 562.291,343.823 C560.885,348.916 560.228,353.948 560.15,359.057 C560.15,360.62 560.369,361.87 560.744,362.838 C561.119,363.729 561.994,364.166 563.4,364.245 L563.775,364.245 C564.963,364.245 565.853,363.948 566.51,363.354 C567.182,362.682 567.853,361.791 568.447,360.541 C568.963,359.354 569.26,358.026 569.322,356.62 C569.4,355.135 569.478,353.807 569.478,352.62 L569.478,351.432 C569.478,351.135 569.557,349.666 569.697,346.916 C569.775,345.51 570.072,343.666 570.666,341.229 C571.025,339.526 571.619,337.901 572.213,336.198 C572.807,334.495 573.619,332.416 574.65,329.979 C574.885,329.526 575.244,328.87 575.697,328.057 C576.135,327.245 576.728,326.354 577.463,325.463 C578.213,324.573 578.572,323.604 578.728,322.573 C578.869,321.541 579.103,320.573 579.463,319.916 C579.838,319.245 579.978,318.354 579.978,317.401 L579.978,316.354 L579.978,314.51 C579.916,313.62 579.76,312.807 579.4,312.135 C579.103,311.62 578.65,311.26 578.057,311.182 C577.916,311.104 577.76,311.104 577.619,311.104 C577.244,311.104 576.807,311.182 576.432,311.323 C575.916,311.541 575.322,311.776 574.65,312.135 C573.994,312.51 573.478,312.729 573.182,312.807 C570.369,313.776 567.4,314.213 564.291,314.213 C562.666,314.213 561.182,314.073 559.932,313.698 C559.713,313.62 559.041,313.323 558.072,312.885 C557.26,312.51 556.603,312.135 555.932,311.916 C555.26,311.62 554.603,311.479 553.853,311.479 C553.119,311.479 552.525,311.776 552.01,312.291 C551.869,312.51 551.635,312.666 551.494,312.885 C551.338,313.104 551.197,313.245 551.119,313.401 C551.057,313.541 550.9,313.776 550.76,314.135 C550.603,314.51 550.603,314.729 550.603,314.807 C550.525,315.245 550.463,315.541 550.385,315.62 C550.01,316.432 549.713,317.401 549.65,318.432 C549.572,319.166 549.416,319.916 549.353,320.729 C549.275,320.87 549.275,320.948 549.275,321.026 C549.275,321.916 550.088,322.651 551.791,323.323 C553.932,324.135 555.197,324.573 555.557,324.729 C555.635,324.791 556.088,324.791 556.9,324.791 C557.713,324.791 558.822,324.791 560.228,324.729 L563.932,324.573 C565.775,324.573 567.338,324.432 568.728,324.057 M578.682,375.338 C578.9,375.495 579.119,375.791 579.494,376.151 C579.869,376.526 580.166,376.901 580.385,377.198 C580.603,377.495 580.9,377.635 581.275,377.776 C581.494,377.854 581.713,377.932 581.932,377.932 C582.088,377.932 582.228,377.932 582.385,377.854 C582.76,377.776 583.416,377.557 584.307,377.198 C585.197,376.823 585.932,376.088 586.447,375.12 C588.01,371.12 591.635,362.682 597.478,349.885 C602.588,338.713 605.619,332.041 606.588,329.76 C607.697,327.463 608.947,324.573 610.432,321.088 C610.51,321.026 610.65,320.276 610.869,319.026 C611.103,317.76 611.4,316.729 611.76,315.916 C611.838,315.541 611.838,315.182 611.916,314.807 C611.978,314.432 612.135,314.213 612.213,313.995 C612.275,313.776 612.353,313.541 612.432,313.401 C612.51,313.245 612.51,313.104 612.51,312.948 C612.51,312.807 612.572,312.666 612.65,312.588 C612.728,312.51 612.728,312.432 612.728,312.37 C612.728,312.291 612.728,312.291 612.807,312.213 L612.869,312.135 L612.869,312.073 L612.869,311.916 C612.869,309.916 612.432,308.291 611.541,307.104 C610.947,306.291 610.275,305.854 609.463,305.854 C609.103,305.854 608.807,305.932 608.432,306.073 C606.65,306.807 605.103,309.323 603.697,313.62 L578.682,375.338 M630.4,339.823 C627.885,344.698 626.557,350.479 626.416,357.057 C626.338,357.573 626.338,358.026 626.338,358.463 C626.338,362.026 626.853,363.948 627.885,364.166 C628.26,364.245 628.557,364.245 628.853,364.245 L628.994,364.245 C630.103,364.245 631.15,363.651 632.041,362.463 C632.478,361.791 632.994,360.838 633.666,359.651 C633.885,359.213 634.182,357.948 634.478,355.948 C634.619,354.995 634.697,354.182 634.697,353.651 C634.619,353.432 634.619,353.213 634.619,353.073 C634.557,352.838 634.557,352.323 634.557,351.588 L634.557,350.26 C634.619,348.854 634.697,347.807 634.853,346.995 C635.135,345.448 635.51,343.963 635.963,342.557 C636.478,340.776 637.135,339.073 637.807,337.37 C638.478,335.682 639.213,333.823 639.885,331.901 C640.541,329.979 641.135,328.057 641.728,326.057 C642.103,324.651 642.322,323.385 642.322,322.276 C642.322,321.76 642.322,321.245 642.244,320.807 C641.947,319.245 641.51,317.916 641.057,316.807 C640.619,315.698 639.65,314.651 638.103,313.62 C636.541,312.588 634.853,311.776 632.916,311.26 C632.338,311.104 631.666,311.026 630.932,311.026 C628.932,311.026 626.416,311.62 623.369,312.729 C620.26,313.838 618.119,315.838 616.869,318.651 C615.603,321.62 614.932,324.573 614.932,327.541 L614.932,327.76 L614.932,332.12 C615.307,333.385 615.603,334.276 615.9,334.854 L616.932,336.932 C617.447,337.901 618.041,338.713 618.853,339.307 C619.744,339.885 620.713,340.26 621.744,340.479 C622.557,340.635 623.307,340.713 623.963,340.713 L624.478,340.713 C625.228,340.635 626.26,340.479 627.588,340.26 C628.932,340.041 629.807,339.885 630.4,339.823 M625.228,320.354 C627.588,319.245 629.291,318.729 630.338,318.729 C630.557,318.729 630.697,318.729 630.853,318.807 C633.15,319.62 634.4,320.807 634.619,322.276 C634.853,323.088 634.994,323.979 634.994,324.87 C634.994,325.979 634.775,327.01 634.4,328.12 C633.666,329.979 632.4,331.307 630.697,332.041 C629.15,332.713 628.182,333.088 627.666,333.229 C627.369,333.307 627.072,333.385 626.713,333.385 L626.635,333.385 C625.228,333.385 623.9,332.416 622.791,330.495 C622.197,329.463 621.9,328.416 621.9,327.307 C621.822,326.713 621.9,326.135 622.119,325.541 C623.01,322.651 624.041,320.87 625.228,320.354"/>
<path class="VoltaSegment" d="M381.872,332.942 L356.185,332.942 L356.185,329.911 L369.81,314.239 C372.132,311.552 373.747,309.341 374.653,307.607 C375.56,305.872 376.013,304.213 376.013,302.63 C376.013,300.036 375.385,298.07 374.13,296.732 C372.875,295.393 370.882,294.724 368.153,294.724 C365.278,294.724 363.073,295.549 361.536,297.2 C360,298.851 359.231,301.401 359.231,304.849 L356.028,304.849 L355.653,303.739 C355.549,300.146 356.651,297.122 358.958,294.669 C361.265,292.216 364.33,290.989 368.153,290.989 C371.664,290.989 374.479,292.013 376.599,294.06 C378.718,296.107 379.778,298.963 379.778,302.63 C379.778,305.015 379.039,307.396 377.56,309.771 C376.08,312.146 374.039,314.849 371.435,317.88 L359.653,330.255 L359.575,330.13 L381.872,329.208 L381.872,332.942 M393.247,332.942 L388.638,332.942 L388.638,327.161 L393.247,327.161 L393.247,332.942 "/>
<polyline class="VoltaSegment" fill="none" stroke="#000000" stroke-width="3.97" stroke-linejoin="miter" stroke-miterlimit="2" points="340.117,332.942 340.117,278.382 1660.8,278.382"/>
<path class="NoteDot" transform="matrix(0.992001,0,0,0.992001,1733.54,463.367)" d="M0.90625,5.70313 C1,5.70313 1,5.70313 1.09375,5.59375 C3.20313,5.29688 5.20313,5.29688 7.29688,5.09375 C8.40625,5 9.09375,4.20313 9.09375,3.29688 C9.29688,1.70313 9.59375,0 9.59375,-1.79688 C9.59375,-2.29688 9.59375,-2.79688 9.5,-3.29688 C9.29688,-4.90625 8.70313,-5.70313 7.5,-5.70313 C7.20313,-5.70313 6.90625,-5.70313 6.59375,-5.59375 C5.20313,-5.40625 3.70313,-5.20313 2.29688,-4.90625 C1.40625,-4.70313 0.40625,-4.29688 0.296875,-3.20313 C0.09375,-0.59375 0,2 0,4.59375 C0,5.09375 0.09375,5.70313 0.90625,5.70313"/>
<path class="Page" d="M236.125,237.958 L236.125,221.02 C236.125,220.192 236.234,216.63 236.453,212.661 L232.656,212.661 L212.641,237.583 L212.641,241.645 L227.484,241.645 L227.484,243.676 C227.484,247.083 227.484,247.301 227.109,247.864 C226.656,248.411 225.5,248.63 222.922,248.63 L222.313,248.63 L222.313,251.598 L241.063,251.598 L241.063,248.63 L240.469,248.63 C238.047,248.567 236.891,248.348 236.5,247.864 C236.125,247.255 236.125,247.083 236.125,243.676 L236.125,241.645 L241.625,241.645 L241.625,237.958 L236.125,237.958 M227.484,237.958 L216.656,237.958 L227.484,224.208 L227.484,237.958 "/>
</svg>
