<svg id="Capa_2" data-name="Capa 2" xmlns="http://www.w3.org/2000/svg" viewBox="0 0 128 183"><defs><style>.cls-1{fill:#fff;}.cls-2,.cls-3,.cls-4{fill:none;stroke:#fff;stroke-miterlimit:10;}.cls-2{stroke-width:1.5px;}.cls-3{stroke-width:2px;}.cls-4{stroke-width:1.2px;}</style></defs><path class="cls-1" d="M60.65,18.4a4.91,4.91,0,0,1,.66.06,8,8,0,0,1,2.18.71,8.31,8.31,0,0,1,2.15,1.43c.35.31.71.62,1,1a8.88,8.88,0,0,1,2,2.57A4.16,4.16,0,0,1,69.12,26a3,3,0,0,1-.27,1.08.11.11,0,0,0,.11.07h0a4.54,4.54,0,0,1,1.46.27A2.89,2.89,0,0,1,72.24,29a3.3,3.3,0,0,1,.24,1.78,5,5,0,0,1-.17.94c0,.08,0,.12.1.15a5.87,5.87,0,0,1,2,1,3.87,3.87,0,0,1,1.22,1.61,4.24,4.24,0,0,1,.25,2.09,6.33,6.33,0,0,1-.49,1.8c0,.11,0,.15.08.19a7.29,7.29,0,0,1,1,.42,5.81,5.81,0,0,1,1.87,1.47,3.63,3.63,0,0,1,.69,1.39,4.08,4.08,0,0,1,0,1.87,38,38,0,0,0-30.14,0c0-.06,0-.13,0-.19a5,5,0,0,1,.28-2.13,4,4,0,0,1,1.4-1.93,4.73,4.73,0,0,1,1.65-.78l.47-.1a9.33,9.33,0,0,1-.32-.93,5.15,5.15,0,0,1-.06-2.78,2.9,2.9,0,0,1,.5-1,3.79,3.79,0,0,1,.9-.93,5.55,5.55,0,0,1,1.43-.74l.55-.19a4.89,4.89,0,0,0-.2-.46A4.08,4.08,0,0,1,55.14,30a3.64,3.64,0,0,1,.67-2.2,6.18,6.18,0,0,1,2.63-2c.3-.14.61-.25.93-.39a4.06,4.06,0,0,1-.26-.36,1.76,1.76,0,0,1-.06-1.47A5.54,5.54,0,0,1,59.92,22c.25-.31.5-.61.73-.93a1,1,0,0,0-.09-1.25,2.65,2.65,0,0,1-.53-.63,1,1,0,0,1-.11-.29.34.34,0,0,1,.24-.41,1.65,1.65,0,0,1,.49-.06m0-1a2.45,2.45,0,0,0-.78.11,1.34,1.34,0,0,0-.93,1.58,2,2,0,0,0,.2.53,2.6,2.6,0,0,0,.55.72l.13.13h0c-.18.25-.37.48-.55.71l-.14.17a6.37,6.37,0,0,0-1,1.88A3.06,3.06,0,0,0,58,24.88a7.17,7.17,0,0,0-3,2.32A4.61,4.61,0,0,0,54.14,30a4.93,4.93,0,0,0,.24,1.43,6.42,6.42,0,0,0-1.26.71A4.56,4.56,0,0,0,52,33.28a4,4,0,0,0-.66,1.36,6.11,6.11,0,0,0,.06,3.28,5.31,5.31,0,0,0-1.43.77,5,5,0,0,0-1.75,2.4,6,6,0,0,0-.33,2.55v.07c0,.07,0,.13,0,.19l.21,1.26,1.17-.51a37,37,0,0,1,29.36,0l1.1.48L80,43.93a4.92,4.92,0,0,0,0-2.32,4.65,4.65,0,0,0-.87-1.77A6.66,6.66,0,0,0,77,38.1l-.33-.16a6.15,6.15,0,0,0,.27-1.27,5.31,5.31,0,0,0-.32-2.56,4.81,4.81,0,0,0-1.52-2,6.35,6.35,0,0,0-1.65-1c0-.1,0-.2,0-.3a4.25,4.25,0,0,0-.33-2.29,3.91,3.91,0,0,0-2.36-2.05c-.23-.08-.46-.14-.69-.2a1.94,1.94,0,0,0,0-.24,5.18,5.18,0,0,0-.53-2.34,10,10,0,0,0-2.21-2.87c-.29-.29-.61-.57-.91-.84l-.17-.14a9.07,9.07,0,0,0-2.38-1.59,8.75,8.75,0,0,0-2.46-.79,4.83,4.83,0,0,0-.81-.08Z"/><ellipse class="cls-2" cx="64" cy="102.6" rx="45" ry="58"/><path class="cls-3" d="M112,102.6c0,34.24-21.49,62-48,62s-48-27.76-48-62c0-26.91,13.28-49.82,31.83-58.39l1.08-.48a38,38,0,0,1,30.14,0c.33.14.66.28,1,.44C98.66,52.67,112,75.62,112,102.6Z"/><line class="cls-4" x1="19.5" y1="102.6" x2="109" y2="102.6"/><line class="cls-4" x1="19.5" y1="109.6" x2="108.5" y2="109.6"/><line class="cls-4" x1="20.5" y1="116.6" x2="107.5" y2="116.6"/><line class="cls-4" x1="19.5" y1="95.6" x2="108.5" y2="95.6"/><line class="cls-4" x1="20" y1="88.6" x2="108" y2="88.6"/><path class="cls-1" d="M30.47,92.1l-.18,8c1.11-1.26,1.38-1.37,2.39-1.37a2.69,2.69,0,0,1,2.79,2.87c0,2.45-2.5,3.54-4.42,5.08l-1.55,1.24V92.1Zm-.18,12.16a6.14,6.14,0,0,0,.23,1.9c2.1-1.68,3.13-3.21,3.13-4.56A1.75,1.75,0,0,0,32,99.66c-.77,0-1.13.86-1.55,1.5C30.36,102.78,30.29,103.81,30.29,104.26Z"/></svg>