<?xml version="1.0" encoding="UTF-8" standalone="no"?>
<svg width="2977.23px" height="4208.46px" viewBox="0 0 2977.23 4208.46"
 xmlns="http://www.w3.org/2000/svg" xmlns:xlink="http://www.w3.org/1999/xlink" version="1.2" baseProfile="tiny">
<title>Guía teclado (3)</title>
<desc>Generated by MuseScore 3.6.2</desc>
<polyline class="StaffLines" fill="none" stroke="#000000" stroke-width="3.25" stroke-linejoin="bevel" points="212.598,387.609 2764.63,387.609"/>
<polyline class="StaffLines" fill="none" stroke="#000000" stroke-width="3.25" stroke-linejoin="bevel" points="212.598,412.611 2764.63,412.611"/>
<polyline class="StaffLines" fill="none" stroke="#000000" stroke-width="3.25" stroke-linejoin="bevel" points="212.598,437.613 2764.63,437.613"/>
<polyline class="StaffLines" fill="none" stroke="#000000" stroke-width="3.25" stroke-linejoin="bevel" points="212.598,462.614 2764.63,462.614"/>
<polyline class="StaffLines" fill="none" stroke="#000000" stroke-width="3.25" stroke-linejoin="bevel" points="212.598,487.616 2764.63,487.616"/>
<path class="MeasureNumber" d="M219.723,321.622 L222.067,321.653 C223.786,321.653 225.234,321.2 226.411,320.294 C227.588,319.388 228.265,318.158 228.442,316.606 C228.609,315.096 228.328,313.908 227.598,313.044 C226.869,312.179 225.807,311.731 224.411,311.7 C222.932,311.679 221.674,312.114 220.637,313.005 C219.601,313.895 218.963,315.096 218.723,316.606 L215.239,316.622 C215.458,314.278 216.455,312.375 218.231,310.911 C220.007,309.447 222.124,308.731 224.583,308.763 C226.968,308.815 228.841,309.559 230.2,310.997 C231.559,312.434 232.151,314.33 231.973,316.684 C231.859,318.028 231.346,319.252 230.434,320.356 C229.523,321.46 228.26,322.377 226.645,323.106 C227.927,323.627 228.887,324.453 229.528,325.583 C230.169,326.713 230.437,328.033 230.333,329.544 C230.124,332.106 229.106,334.169 227.278,335.731 C225.45,337.294 223.223,338.049 220.598,337.997 C218.171,337.945 216.234,337.19 214.786,335.731 C213.338,334.273 212.666,332.393 212.77,330.091 L216.302,330.106 C216.229,331.565 216.583,332.739 217.364,333.63 C218.145,334.52 219.276,334.992 220.755,335.044 C222.421,335.096 223.809,334.622 224.919,333.622 C226.028,332.622 226.661,331.278 226.817,329.591 C226.963,328.049 226.611,326.843 225.762,325.973 C224.914,325.104 223.651,324.643 221.973,324.591 L219.255,324.575 L219.723,321.622 M249.677,325.106 C248.708,326.117 247.684,326.875 246.606,327.38 C245.528,327.885 244.453,328.122 243.38,328.091 C241.89,328.07 240.614,327.648 239.552,326.825 C238.489,326.002 237.713,324.875 237.223,323.442 C236.734,322.01 236.567,320.45 236.723,318.763 C236.89,316.888 237.416,315.169 238.302,313.606 C239.187,312.044 240.343,310.835 241.77,309.981 C243.197,309.127 244.77,308.726 246.489,308.778 C248.76,308.83 250.539,309.651 251.825,311.239 C253.111,312.828 253.807,314.955 253.911,317.622 C253.953,319.018 253.791,320.752 253.427,322.825 C252.562,327.69 250.864,331.356 248.333,333.825 C245.802,336.294 242.552,337.57 238.583,337.653 L237.708,337.653 L238.02,334.575 L238.739,334.575 C241.541,334.523 243.835,333.742 245.622,332.231 C247.408,330.721 248.76,328.346 249.677,325.106 M244.13,325.106 C245.317,325.158 246.458,324.822 247.552,324.098 C248.645,323.375 249.541,322.403 250.239,321.184 L250.395,319.747 L250.458,318.169 C250.406,316.148 250.031,314.591 249.333,313.497 C248.635,312.403 247.635,311.83 246.333,311.778 C244.718,311.716 243.341,312.338 242.2,313.645 C241.059,314.953 240.401,316.591 240.223,318.559 C240.13,319.351 240.143,320.158 240.262,320.981 C240.382,321.804 240.614,322.528 240.958,323.153 C241.666,324.414 242.723,325.065 244.13,325.106"/>
<polyline class="BarLine" fill="none" stroke="#000000" stroke-width="4.00" stroke-linejoin="bevel" points="214.599,385.984 214.599,489.241"/>
<polyline class="BarLine" fill="none" stroke="#000000" stroke-width="4.00" stroke-linejoin="bevel" points="558.298,385.984 558.298,489.241"/>
<polyline class="BarLine" fill="none" stroke="#000000" stroke-width="4.00" stroke-linejoin="bevel" points="758.692,385.984 758.692,489.241"/>
<polyline class="BarLine" fill="none" stroke="#000000" stroke-width="4.00" stroke-linejoin="bevel" points="959.086,385.984 959.086,489.241"/>
<polyline class="BarLine" fill="none" stroke="#000000" stroke-width="4.00" stroke-linejoin="bevel" points="1159.48,385.984 1159.48,489.241"/>
<path class="Clef" d="M260.397,518.52 C260.897,518.52 261.397,518.411 262.006,518.224 C263.209,517.817 264.209,517.224 265.006,516.317 C273.303,507.614 276.709,497.114 277.006,485.411 C277.006,484.52 277.1,483.02 277.1,483.02 C277.1,483.02 278.506,482.208 279.1,482.02 C282.397,480.411 285.6,478.614 288.506,476.317 C296.1,470.208 300.506,461.911 302.506,452.708 C302.897,451.208 303.006,449.708 303.006,448.317 C303.006,442.02 299.506,437.411 291.506,435.911 C289.506,435.505 287.506,435.317 285.506,435.317 C280.506,435.317 275.709,436.614 271.209,439.317 C270.6,439.614 270.006,440.02 270.006,440.02 L267.397,430.317 C267.303,429.817 267.303,428.911 267.303,428.911 C267.303,428.911 277.506,410.817 278.897,401.505 C279.397,398.817 279.6,396.114 279.6,393.411 C279.6,391.317 279.506,389.317 279.209,387.317 C278.209,380.114 275.506,373.302 273.709,366.302 C273.209,364.208 272.506,361.708 270.1,361.708 C268.303,361.708 267.006,363.411 265.897,364.911 C260.803,372.005 258.303,380.114 257.803,388.817 C257.694,390.208 257.694,391.614 257.694,393.005 C257.694,401.114 259.006,409.208 260.1,417.208 C260.1,417.817 260.303,418.411 260.397,418.911 C255.897,425.317 250.897,431.317 246.6,437.911 C243.6,442.614 240.303,447.317 238.194,452.614 C237.1,455.208 236.6,458.208 236.6,461.208 C236.6,467.411 238.694,473.708 242.303,477.208 C244.397,479.208 247.694,481.411 251.006,482.614 C255.6,484.317 260.194,485.411 265.1,485.411 C266.506,485.411 268.006,485.317 269.506,485.114 L270.709,484.911 C270.709,484.911 270.803,485.817 270.709,486.317 C269.6,492.317 268.1,498.224 264.506,503.224 C262.6,505.817 260.803,508.724 257.006,509.02 C255.897,509.114 255.397,509.817 255.397,510.724 C255.397,511.114 255.506,511.411 255.6,511.817 C256.194,513.317 256.897,514.911 257.6,516.411 C258.194,517.817 259.194,518.52 260.397,518.52 M264.397,412.817 C263.6,408.005 263.1,403.317 263.1,398.614 C263.1,389.911 264.897,381.411 270.006,373.302 C271.209,377.005 271.803,380.708 271.803,384.505 C271.803,386.411 271.6,388.411 271.303,390.411 C270.006,398.208 268.209,405.817 264.397,412.817 M254.1,472.02 C252.694,471.911 251.506,471.411 250.194,471.02 C247.6,470.114 245.397,469.114 244.694,467.411 C244.397,466.614 244.303,465.708 244.303,464.817 C244.303,463.708 244.506,462.52 244.694,461.317 C244.803,460.708 245.397,459.02 245.6,458.708 C249.506,451.817 254.194,445.52 259.1,439.208 L263.303,433.708 L264.006,435.911 C264.803,438.411 265.506,442.411 265.506,442.411 C265.506,442.411 262.709,446.02 260.897,447.817 C255.897,452.708 253.506,458.817 253.506,465.52 C253.506,467.208 253.694,468.911 254.006,470.708 C254.1,471.114 254.1,471.411 254.1,472.02 M275.709,468.911 C274.897,462.411 273.397,457.208 272.006,450.911 C271.897,450.208 271.897,449.708 272.209,449.317 C274.803,448.817 277.303,448.614 279.897,448.614 C282.397,448.614 284.803,448.817 287.303,449.317 C290.303,449.911 293.303,450.411 295.6,452.817 C295.803,453.02 296.006,453.208 296.209,453.317 C292.209,461.317 286.303,467.317 277.897,471.02 L276.1,471.708 L275.709,468.911 M265.1,473.708 C261.6,473.708 258.194,472.817 258.194,472.817 C258.194,472.817 257.897,471.411 257.897,469.411 C257.897,468.114 258.006,466.52 258.397,464.911 C259.397,460.114 262.803,456.708 266.397,453.52 C266.709,453.208 267.006,453.02 267.209,453.02 C267.6,453.02 267.709,453.411 267.803,454.114 C268.709,460.02 270.209,465.817 270.6,471.708 C270.709,472.317 270.6,473.208 270.6,473.208 C270.6,473.208 268.006,473.911 265.1,473.708"/>
<path class="KeySig" d="M341.106,458.409 C341.403,458.409 341.81,458.206 342.31,457.706 C343.606,456.613 345.106,455.519 346.513,454.519 C355.31,448.206 360.013,439.706 360.013,428.816 C360.013,427.409 360.013,426.113 359.81,424.706 C359.31,419.816 356.513,417.019 352.31,417.019 C351.403,417.019 350.403,417.206 349.31,417.519 C347.903,417.909 346.513,418.613 345.106,419.206 L345.013,419.316 L345.013,416.706 C345.013,412.909 345.2,409.113 345.403,405.316 C345.403,403.113 345.606,401.003 345.606,398.816 C345.606,396.706 345.403,394.503 344.903,392.409 C344.7,391.706 344.7,390.409 343.7,390.409 L343.606,390.409 C342.513,390.503 341.7,391.409 341.7,392.816 C341.606,395.613 341.31,398.503 341.403,401.316 L341.403,404.409 C341.403,410.316 341.106,416.206 340.903,422.113 C340.606,430.613 339.2,438.909 339.2,447.409 C339.2,450.706 339.403,454.206 340.31,457.519 C340.513,458.113 340.7,458.409 341.106,458.409 M343.81,444.909 C344.013,442.316 344.106,439.613 344.403,436.816 C344.606,434.613 344.7,432.409 344.7,430.206 L345.106,430.019 C347.013,429.206 348.903,428.206 351.013,428.206 C351.7,428.206 352.513,428.409 353.31,428.706 C354.903,429.316 355.7,430.113 355.606,431.206 C355.606,431.816 355.513,432.409 355.106,433.206 C352.513,438.316 348.31,441.706 343.81,444.909"/>
<path class="Page" d="M2752.25,4050.74 L2754.95,4050.74 C2756.66,4050.72 2758.01,4050.27 2758.98,4049.4 C2759.96,4048.52 2760.45,4047.34 2760.45,4045.87 C2760.45,4042.53 2758.79,4040.87 2755.47,4040.87 C2753.91,4040.87 2752.66,4041.31 2751.73,4042.2 C2750.79,4043.09 2750.33,4044.27 2750.33,4045.74 L2746.72,4045.74 C2746.72,4043.49 2747.54,4041.62 2749.19,4040.13 C2750.83,4038.64 2752.93,4037.9 2755.47,4037.9 C2758.15,4037.9 2760.25,4038.6 2761.77,4040.02 C2763.3,4041.44 2764.06,4043.41 2764.06,4045.94 C2764.06,4047.18 2763.66,4048.38 2762.86,4049.54 C2762.06,4050.69 2760.97,4051.56 2759.59,4052.13 C2761.16,4052.63 2762.36,4053.45 2763.21,4054.6 C2764.06,4055.75 2764.48,4057.14 2764.48,4058.79 C2764.48,4061.34 2763.65,4063.37 2761.98,4064.87 C2760.32,4066.37 2758.15,4067.12 2755.48,4067.12 C2752.82,4067.12 2750.65,4066.39 2748.98,4064.94 C2747.3,4063.5 2746.47,4061.59 2746.47,4059.22 L2750.09,4059.22 C2750.09,4060.72 2750.58,4061.92 2751.56,4062.82 C2752.54,4063.71 2753.85,4064.16 2755.48,4064.16 C2757.23,4064.16 2758.57,4063.71 2759.49,4062.79 C2760.41,4061.88 2760.88,4060.57 2760.88,4058.87 C2760.88,4057.22 2760.37,4055.95 2759.35,4055.07 C2758.34,4054.18 2756.87,4053.72 2754.95,4053.69 L2752.25,4053.69 L2752.25,4050.74 "/>
</svg>
