<?xml version="1.0" encoding="UTF-8" standalone="no"?>
<svg width="2977.23px" height="4208.46px" viewBox="0 0 2977.23 4208.46"
 xmlns="http://www.w3.org/2000/svg" xmlns:xlink="http://www.w3.org/1999/xlink" version="1.2" baseProfile="tiny">
<title>Voz (3)</title>
<desc>Generated by MuseScore 3.6.2</desc>
<polyline class="StaffLines" fill="none" stroke="#000000" stroke-width="3.25" stroke-linejoin="bevel" points="247.599,464.583 2764.63,464.583"/>
<polyline class="StaffLines" fill="none" stroke="#000000" stroke-width="3.25" stroke-linejoin="bevel" points="247.599,489.584 2764.63,489.584"/>
<polyline class="StaffLines" fill="none" stroke="#000000" stroke-width="3.25" stroke-linejoin="bevel" points="247.599,514.586 2764.63,514.586"/>
<polyline class="StaffLines" fill="none" stroke="#000000" stroke-width="3.25" stroke-linejoin="bevel" points="247.599,539.587 2764.63,539.587"/>
<polyline class="StaffLines" fill="none" stroke="#000000" stroke-width="3.25" stroke-linejoin="bevel" points="247.599,564.589 2764.63,564.589"/>
<polyline class="StaffLines" fill="none" stroke="#000000" stroke-width="3.25" stroke-linejoin="bevel" points="247.599,727.099 2764.63,727.099"/>
<polyline class="StaffLines" fill="none" stroke="#000000" stroke-width="3.25" stroke-linejoin="bevel" points="247.599,752.101 2764.63,752.101"/>
<polyline class="StaffLines" fill="none" stroke="#000000" stroke-width="3.25" stroke-linejoin="bevel" points="247.599,777.102 2764.63,777.102"/>
<polyline class="StaffLines" fill="none" stroke="#000000" stroke-width="3.25" stroke-linejoin="bevel" points="247.599,802.104 2764.63,802.104"/>
<polyline class="StaffLines" fill="none" stroke="#000000" stroke-width="3.25" stroke-linejoin="bevel" points="247.599,827.105 2764.63,827.105"/>
<path class="MeasureNumber" d="M254.724,398.595 L257.067,398.626 C258.786,398.626 260.234,398.173 261.411,397.267 C262.588,396.361 263.265,395.131 263.442,393.579 C263.609,392.069 263.328,390.881 262.599,390.017 C261.87,389.152 260.807,388.704 259.411,388.673 C257.932,388.652 256.674,389.087 255.638,389.978 C254.601,390.868 253.963,392.069 253.724,393.579 L250.239,393.595 C250.458,391.251 251.456,389.348 253.232,387.884 C255.008,386.421 257.125,385.704 259.583,385.736 C261.969,385.788 263.841,386.533 265.2,387.97 C266.56,389.408 267.151,391.303 266.974,393.658 C266.859,395.001 266.346,396.225 265.435,397.329 C264.523,398.434 263.26,399.35 261.646,400.079 C262.927,400.6 263.888,401.426 264.528,402.556 C265.169,403.686 265.437,405.006 265.333,406.517 C265.125,409.079 264.107,411.142 262.278,412.704 C260.45,414.267 258.224,415.022 255.599,414.97 C253.172,414.918 251.234,414.163 249.786,412.704 C248.338,411.246 247.666,409.366 247.771,407.064 L251.302,407.079 C251.229,408.538 251.583,409.712 252.364,410.603 C253.146,411.493 254.276,411.965 255.755,412.017 C257.422,412.069 258.81,411.595 259.919,410.595 C261.028,409.595 261.661,408.251 261.817,406.564 C261.963,405.022 261.612,403.816 260.763,402.947 C259.914,402.077 258.651,401.616 256.974,401.564 L254.255,401.548 L254.724,398.595 M284.677,402.079 C283.708,403.09 282.685,403.848 281.607,404.353 C280.528,404.858 279.453,405.095 278.38,405.064 C276.89,405.043 275.614,404.621 274.552,403.798 C273.489,402.975 272.713,401.848 272.224,400.415 C271.734,398.983 271.567,397.423 271.724,395.736 C271.89,393.861 272.416,392.142 273.302,390.579 C274.187,389.017 275.344,387.809 276.771,386.954 C278.198,386.1 279.771,385.699 281.489,385.751 C283.76,385.803 285.539,386.624 286.825,388.212 C288.112,389.801 288.807,391.928 288.911,394.595 C288.953,395.991 288.791,397.725 288.427,399.798 C287.562,404.663 285.864,408.329 283.333,410.798 C280.802,413.267 277.552,414.543 273.583,414.626 L272.708,414.626 L273.021,411.548 L273.739,411.548 C276.541,411.496 278.836,410.715 280.622,409.204 C282.409,407.694 283.76,405.319 284.677,402.079 M279.13,402.079 C280.317,402.131 281.458,401.796 282.552,401.072 C283.646,400.348 284.541,399.376 285.239,398.158 L285.396,396.72 L285.458,395.142 C285.406,393.121 285.031,391.564 284.333,390.47 C283.635,389.376 282.635,388.803 281.333,388.751 C279.719,388.689 278.341,389.311 277.2,390.618 C276.06,391.926 275.401,393.564 275.224,395.533 C275.13,396.324 275.143,397.131 275.263,397.954 C275.383,398.777 275.614,399.501 275.958,400.126 C276.666,401.387 277.724,402.038 279.13,402.079"/>
<polyline class="BarLine" fill="none" stroke="#000000" stroke-width="4.00" stroke-linejoin="bevel" points="249.599,725.474 249.599,828.73"/>
<polyline class="BarLine" fill="none" stroke="#000000" stroke-width="4.00" stroke-linejoin="bevel" points="583.585,725.474 583.585,828.73"/>
<polyline class="BarLine" fill="none" stroke="#000000" stroke-width="4.00" stroke-linejoin="bevel" points="768.898,725.474 768.898,828.73"/>
<polyline class="BarLine" fill="none" stroke="#000000" stroke-width="4.00" stroke-linejoin="bevel" points="954.211,725.474 954.211,828.73"/>
<polyline class="BarLine" fill="none" stroke="#000000" stroke-width="4.00" stroke-linejoin="bevel" points="1139.52,725.474 1139.52,828.73"/>
<polyline class="BarLine" fill="none" stroke="#000000" stroke-width="4.00" stroke-linejoin="bevel" points="1324.84,725.474 1324.84,828.73"/>
<polyline class="BarLine" fill="none" stroke="#000000" stroke-width="4.00" stroke-linejoin="bevel" points="1510.15,725.474 1510.15,828.73"/>
<polyline class="BarLine" fill="none" stroke="#000000" stroke-width="4.00" stroke-linejoin="bevel" points="1695.46,725.474 1695.46,828.73"/>
<polyline class="BarLine" fill="none" stroke="#000000" stroke-width="4.00" stroke-linejoin="bevel" points="1880.78,725.474 1880.78,828.73"/>
<polyline class="BarLine" fill="none" stroke="#000000" stroke-width="4.00" stroke-linejoin="bevel" points="2144.52,725.474 2144.52,828.73"/>
<polyline class="BarLine" fill="none" stroke="#000000" stroke-width="4.00" stroke-linejoin="bevel" points="2329.83,725.474 2329.83,828.73"/>
<polyline class="BarLine" fill="none" stroke="#000000" stroke-width="4.00" stroke-linejoin="bevel" points="2569.57,725.474 2569.57,828.73"/>
<polyline class="BarLine" fill="none" stroke="#000000" stroke-width="4.00" stroke-linejoin="bevel" points="2740.13,725.474 2740.13,828.73"/>
<polyline class="BarLine" fill="none" stroke="#000000" stroke-width="12.50" stroke-linejoin="bevel" points="2758.38,725.474 2758.38,828.73"/>
<polyline class="BarLine" fill="none" stroke="#000000" stroke-width="4.00" stroke-linejoin="bevel" points="249.599,462.957 249.599,727.099"/>
<polyline class="BarLine" fill="none" stroke="#000000" stroke-width="4.00" stroke-linejoin="bevel" points="583.585,462.957 583.585,566.214"/>
<polyline class="BarLine" fill="none" stroke="#000000" stroke-width="4.00" stroke-linejoin="bevel" points="768.898,462.957 768.898,566.214"/>
<polyline class="BarLine" fill="none" stroke="#000000" stroke-width="4.00" stroke-linejoin="bevel" points="954.211,462.957 954.211,566.214"/>
<polyline class="BarLine" fill="none" stroke="#000000" stroke-width="4.00" stroke-linejoin="bevel" points="1139.52,462.957 1139.52,566.214"/>
<polyline class="BarLine" fill="none" stroke="#000000" stroke-width="4.00" stroke-linejoin="bevel" points="1324.84,462.957 1324.84,566.214"/>
<polyline class="BarLine" fill="none" stroke="#000000" stroke-width="4.00" stroke-linejoin="bevel" points="1510.15,462.957 1510.15,566.214"/>
<polyline class="BarLine" fill="none" stroke="#000000" stroke-width="4.00" stroke-linejoin="bevel" points="1695.46,462.957 1695.46,566.214"/>
<polyline class="BarLine" fill="none" stroke="#000000" stroke-width="4.00" stroke-linejoin="bevel" points="1880.78,462.957 1880.78,566.214"/>
<polyline class="BarLine" fill="none" stroke="#000000" stroke-width="4.00" stroke-linejoin="bevel" points="2144.52,462.957 2144.52,566.214"/>
<polyline class="BarLine" fill="none" stroke="#000000" stroke-width="4.00" stroke-linejoin="bevel" points="2329.83,462.957 2329.83,566.214"/>
<polyline class="BarLine" fill="none" stroke="#000000" stroke-width="4.00" stroke-linejoin="bevel" points="2569.57,462.957 2569.57,566.214"/>
<polyline class="BarLine" fill="none" stroke="#000000" stroke-width="4.00" stroke-linejoin="bevel" points="2740.13,462.957 2740.13,566.214"/>
<polyline class="BarLine" fill="none" stroke="#000000" stroke-width="12.50" stroke-linejoin="bevel" points="2758.38,462.957 2758.38,566.214"/>
<path class="Clef" d="M295.365,595.494 C295.865,595.494 296.365,595.384 296.975,595.197 C298.178,594.79 299.178,594.197 299.975,593.29 C308.272,584.587 311.678,574.087 311.975,562.384 C311.975,561.494 312.069,559.994 312.069,559.994 C312.069,559.994 313.475,559.181 314.069,558.994 C317.365,557.384 320.569,555.587 323.475,553.29 C331.069,547.181 335.475,538.884 337.475,529.681 C337.865,528.181 337.975,526.681 337.975,525.29 C337.975,518.994 334.475,514.384 326.475,512.884 C324.475,512.478 322.475,512.29 320.475,512.29 C315.475,512.29 310.678,513.587 306.178,516.29 C305.569,516.587 304.975,516.994 304.975,516.994 L302.365,507.29 C302.272,506.79 302.272,505.884 302.272,505.884 C302.272,505.884 312.475,487.79 313.865,478.478 C314.365,475.79 314.569,473.087 314.569,470.384 C314.569,468.29 314.475,466.29 314.178,464.29 C313.178,457.087 310.475,450.275 308.678,443.275 C308.178,441.181 307.475,438.681 305.069,438.681 C303.272,438.681 301.975,440.384 300.865,441.884 C295.772,448.978 293.272,457.087 292.772,465.79 C292.662,467.181 292.662,468.587 292.662,469.978 C292.662,478.087 293.975,486.181 295.069,494.181 C295.069,494.79 295.272,495.384 295.365,495.884 C290.865,502.29 285.865,508.29 281.569,514.884 C278.569,519.587 275.272,524.29 273.162,529.587 C272.069,532.181 271.569,535.181 271.569,538.181 C271.569,544.384 273.662,550.681 277.272,554.181 C279.365,556.181 282.662,558.384 285.975,559.587 C290.569,561.29 295.162,562.384 300.069,562.384 C301.475,562.384 302.975,562.29 304.475,562.087 L305.678,561.884 C305.678,561.884 305.772,562.79 305.678,563.29 C304.569,569.29 303.069,575.197 299.475,580.197 C297.569,582.79 295.772,585.697 291.975,585.994 C290.865,586.087 290.365,586.79 290.365,587.697 C290.365,588.087 290.475,588.384 290.569,588.79 C291.162,590.29 291.865,591.884 292.569,593.384 C293.162,594.79 294.162,595.494 295.365,595.494 M299.365,489.79 C298.569,484.978 298.069,480.29 298.069,475.587 C298.069,466.884 299.865,458.384 304.975,450.275 C306.178,453.978 306.772,457.681 306.772,461.478 C306.772,463.384 306.569,465.384 306.272,467.384 C304.975,475.181 303.178,482.79 299.365,489.79 M289.069,548.994 C287.662,548.884 286.475,548.384 285.162,547.994 C282.569,547.087 280.365,546.087 279.662,544.384 C279.365,543.587 279.272,542.681 279.272,541.79 C279.272,540.681 279.475,539.494 279.662,538.29 C279.772,537.681 280.365,535.994 280.569,535.681 C284.475,528.79 289.162,522.494 294.069,516.181 L298.272,510.681 L298.975,512.884 C299.772,515.384 300.475,519.384 300.475,519.384 C300.475,519.384 297.678,522.994 295.865,524.79 C290.865,529.681 288.475,535.79 288.475,542.494 C288.475,544.181 288.662,545.884 288.975,547.681 C289.069,548.087 289.069,548.384 289.069,548.994 M310.678,545.884 C309.865,539.384 308.365,534.181 306.975,527.884 C306.865,527.181 306.865,526.681 307.178,526.29 C309.772,525.79 312.272,525.587 314.865,525.587 C317.365,525.587 319.772,525.79 322.272,526.29 C325.272,526.884 328.272,527.384 330.569,529.79 C330.772,529.994 330.975,530.181 331.178,530.29 C327.178,538.29 321.272,544.29 312.865,547.994 L311.069,548.681 L310.678,545.884 M300.069,550.681 C296.569,550.681 293.162,549.79 293.162,549.79 C293.162,549.79 292.865,548.384 292.865,546.384 C292.865,545.087 292.975,543.494 293.365,541.884 C294.365,537.087 297.772,533.681 301.365,530.494 C301.678,530.181 301.975,529.994 302.178,529.994 C302.569,529.994 302.678,530.384 302.772,531.087 C303.678,536.994 305.178,542.79 305.569,548.681 C305.678,549.29 305.569,550.181 305.569,550.181 C305.569,550.181 302.975,550.884 300.069,550.681"/>
<path class="KeySig" d="M364.879,535.383 C365.176,535.383 365.582,535.179 366.082,534.679 C367.379,533.586 368.879,532.492 370.285,531.492 C379.082,525.179 383.785,516.679 383.785,505.789 C383.785,504.383 383.785,503.086 383.582,501.679 C383.082,496.789 380.285,493.992 376.082,493.992 C375.176,493.992 374.176,494.179 373.082,494.492 C371.676,494.883 370.285,495.586 368.879,496.179 L368.785,496.289 L368.785,493.679 C368.785,489.883 368.973,486.086 369.176,482.289 C369.176,480.086 369.379,477.976 369.379,475.789 C369.379,473.679 369.176,471.476 368.676,469.383 C368.473,468.679 368.473,467.383 367.473,467.383 L367.379,467.383 C366.285,467.476 365.473,468.383 365.473,469.789 C365.379,472.586 365.082,475.476 365.176,478.289 L365.176,481.383 C365.176,487.289 364.879,493.179 364.676,499.086 C364.379,507.586 362.973,515.883 362.973,524.383 C362.973,527.679 363.176,531.179 364.082,534.492 C364.285,535.086 364.473,535.383 364.879,535.383 M367.582,521.883 C367.785,519.289 367.879,516.586 368.176,513.789 C368.379,511.586 368.473,509.383 368.473,507.179 L368.879,506.992 C370.785,506.179 372.676,505.179 374.785,505.179 C375.473,505.179 376.285,505.383 377.082,505.679 C378.676,506.289 379.473,507.086 379.379,508.179 C379.379,508.789 379.285,509.383 378.879,510.179 C376.285,515.289 372.082,518.679 367.582,521.883"/>
<path class="Rest" d="M482.344,764.101 L482.344,764.007 L502.25,764.007 C504.844,764.007 507.438,762.194 507.547,760.101 C507.547,759.304 507.641,758.507 507.641,757.804 C507.641,756.304 507.547,754.898 507.047,753.507 C506.547,752.101 505.844,751.398 504.344,750.898 C503.75,750.694 503.25,750.694 502.75,750.694 C501.641,750.694 500.75,750.898 499.641,750.898 C487.75,750.898 475.844,750.898 464.047,750.804 C462.438,750.694 461.047,751.304 459.641,751.601 C458.438,751.804 458.235,752.507 458.235,753.304 C458.235,753.898 458.344,754.507 458.344,755.101 C458.344,756.101 457.844,757.101 457.735,757.898 C457.641,762.304 458.141,764.101 462.938,764.101 L482.344,764.101 "/>
<path class="Rest" d="M675.904,764.101 L675.904,764.007 L695.81,764.007 C698.404,764.007 700.998,762.194 701.107,760.101 C701.107,759.304 701.201,758.507 701.201,757.804 C701.201,756.304 701.107,754.898 700.607,753.507 C700.107,752.101 699.404,751.398 697.904,750.898 C697.31,750.694 696.81,750.694 696.31,750.694 C695.201,750.694 694.31,750.898 693.201,750.898 C681.31,750.898 669.404,750.898 657.607,750.804 C655.998,750.694 654.607,751.304 653.201,751.601 C651.998,751.804 651.794,752.507 651.794,753.304 C651.794,753.898 651.904,754.507 651.904,755.101 C651.904,756.101 651.404,757.101 651.294,757.898 C651.201,762.304 651.701,764.101 656.498,764.101 L675.904,764.101 "/>
<path class="Rest" d="M861.217,764.101 L861.217,764.007 L881.123,764.007 C883.717,764.007 886.311,762.194 886.42,760.101 C886.42,759.304 886.514,758.507 886.514,757.804 C886.514,756.304 886.42,754.898 885.92,753.507 C885.42,752.101 884.717,751.398 883.217,750.898 C882.623,750.694 882.123,750.694 881.623,750.694 C880.514,750.694 879.623,750.898 878.514,750.898 C866.623,750.898 854.717,750.898 842.92,750.804 C841.311,750.694 839.92,751.304 838.514,751.601 C837.311,751.804 837.108,752.507 837.108,753.304 C837.108,753.898 837.217,754.507 837.217,755.101 C837.217,756.101 836.717,757.101 836.608,757.898 C836.514,762.304 837.014,764.101 841.811,764.101 L861.217,764.101 "/>
<path class="Rest" d="M1046.53,764.101 L1046.53,764.007 L1066.44,764.007 C1069.03,764.007 1071.62,762.194 1071.73,760.101 C1071.73,759.304 1071.83,758.507 1071.83,757.804 C1071.83,756.304 1071.73,754.898 1071.23,753.507 C1070.73,752.101 1070.03,751.398 1068.53,750.898 C1067.94,750.694 1067.44,750.694 1066.94,750.694 C1065.83,750.694 1064.94,750.898 1063.83,750.898 C1051.94,750.898 1040.03,750.898 1028.23,750.804 C1026.62,750.694 1025.23,751.304 1023.83,751.601 C1022.62,751.804 1022.42,752.507 1022.42,753.304 C1022.42,753.898 1022.53,754.507 1022.53,755.101 C1022.53,756.101 1022.03,757.101 1021.92,757.898 C1021.83,762.304 1022.33,764.101 1027.12,764.101 L1046.53,764.101 "/>
<path class="Rest" d="M1231.84,764.101 L1231.84,764.007 L1251.75,764.007 C1254.34,764.007 1256.94,762.194 1257.05,760.101 C1257.05,759.304 1257.14,758.507 1257.14,757.804 C1257.14,756.304 1257.05,754.898 1256.55,753.507 C1256.05,752.101 1255.34,751.398 1253.84,750.898 C1253.25,750.694 1252.75,750.694 1252.25,750.694 C1251.14,750.694 1250.25,750.898 1249.14,750.898 C1237.25,750.898 1225.34,750.898 1213.55,750.804 C1211.94,750.694 1210.55,751.304 1209.14,751.601 C1207.94,751.804 1207.73,752.507 1207.73,753.304 C1207.73,753.898 1207.84,754.507 1207.84,755.101 C1207.84,756.101 1207.34,757.101 1207.23,757.898 C1207.14,762.304 1207.64,764.101 1212.44,764.101 L1231.84,764.101 "/>
<path class="Rest" d="M1417.16,764.101 L1417.16,764.007 L1437.06,764.007 C1439.66,764.007 1442.25,762.194 1442.36,760.101 C1442.36,759.304 1442.45,758.507 1442.45,757.804 C1442.45,756.304 1442.36,754.898 1441.86,753.507 C1441.36,752.101 1440.66,751.398 1439.16,750.898 C1438.56,750.694 1438.06,750.694 1437.56,750.694 C1436.45,750.694 1435.56,750.898 1434.45,750.898 C1422.56,750.898 1410.66,750.898 1398.86,750.804 C1397.25,750.694 1395.86,751.304 1394.45,751.601 C1393.25,751.804 1393.05,752.507 1393.05,753.304 C1393.05,753.898 1393.16,754.507 1393.16,755.101 C1393.16,756.101 1392.66,757.101 1392.55,757.898 C1392.45,762.304 1392.95,764.101 1397.75,764.101 L1417.16,764.101 "/>
<path class="Rest" d="M1602.47,764.101 L1602.47,764.007 L1622.38,764.007 C1624.97,764.007 1627.56,762.194 1627.67,760.101 C1627.67,759.304 1627.77,758.507 1627.77,757.804 C1627.77,756.304 1627.67,754.898 1627.17,753.507 C1626.67,752.101 1625.97,751.398 1624.47,750.898 C1623.88,750.694 1623.38,750.694 1622.88,750.694 C1621.77,750.694 1620.88,750.898 1619.77,750.898 C1607.88,750.898 1595.97,750.898 1584.17,750.804 C1582.56,750.694 1581.17,751.304 1579.77,751.601 C1578.56,751.804 1578.36,752.507 1578.36,753.304 C1578.36,753.898 1578.47,754.507 1578.47,755.101 C1578.47,756.101 1577.97,757.101 1577.86,757.898 C1577.77,762.304 1578.27,764.101 1583.06,764.101 L1602.47,764.101 "/>
<path class="Rest" d="M1787.78,764.101 L1787.78,764.007 L1807.69,764.007 C1810.28,764.007 1812.88,762.194 1812.99,760.101 C1812.99,759.304 1813.08,758.507 1813.08,757.804 C1813.08,756.304 1812.99,754.898 1812.49,753.507 C1811.99,752.101 1811.28,751.398 1809.78,750.898 C1809.19,750.694 1808.69,750.694 1808.19,750.694 C1807.08,750.694 1806.19,750.898 1805.08,750.898 C1793.19,750.898 1781.28,750.898 1769.49,750.804 C1767.88,750.694 1766.49,751.304 1765.08,751.601 C1763.88,751.804 1763.67,752.507 1763.67,753.304 C1763.67,753.898 1763.78,754.507 1763.78,755.101 C1763.78,756.101 1763.28,757.101 1763.17,757.898 C1763.08,762.304 1763.58,764.101 1768.38,764.101 L1787.78,764.101 "/>
<path class="Rest" d="M2012.31,764.101 L2012.31,764.007 L2032.22,764.007 C2034.81,764.007 2037.4,762.194 2037.51,760.101 C2037.51,759.304 2037.61,758.507 2037.61,757.804 C2037.61,756.304 2037.51,754.898 2037.01,753.507 C2036.51,752.101 2035.81,751.398 2034.31,750.898 C2033.72,750.694 2033.22,750.694 2032.72,750.694 C2031.61,750.694 2030.72,750.898 2029.61,750.898 C2017.72,750.898 2005.81,750.898 1994.01,750.804 C1992.4,750.694 1991.01,751.304 1989.61,751.601 C1988.4,751.804 1988.2,752.507 1988.2,753.304 C1988.2,753.898 1988.31,754.507 1988.31,755.101 C1988.31,756.101 1987.81,757.101 1987.7,757.898 C1987.61,762.304 1988.11,764.101 1992.9,764.101 L2012.31,764.101 "/>
<path class="Rest" d="M2236.84,764.101 L2236.84,764.007 L2256.74,764.007 C2259.34,764.007 2261.93,762.194 2262.04,760.101 C2262.04,759.304 2262.13,758.507 2262.13,757.804 C2262.13,756.304 2262.04,754.898 2261.54,753.507 C2261.04,752.101 2260.34,751.398 2258.84,750.898 C2258.24,750.694 2257.74,750.694 2257.24,750.694 C2256.13,750.694 2255.24,750.898 2254.13,750.898 C2242.24,750.898 2230.34,750.898 2218.54,750.804 C2216.93,750.694 2215.54,751.304 2214.13,751.601 C2212.93,751.804 2212.73,752.507 2212.73,753.304 C2212.73,753.898 2212.84,754.507 2212.84,755.101 C2212.84,756.101 2212.34,757.101 2212.23,757.898 C2212.13,762.304 2212.63,764.101 2217.43,764.101 L2236.84,764.101 "/>
<path class="Rest" d="M2449.37,764.101 L2449.37,764.007 L2469.27,764.007 C2471.87,764.007 2474.46,762.194 2474.57,760.101 C2474.57,759.304 2474.66,758.507 2474.66,757.804 C2474.66,756.304 2474.57,754.898 2474.07,753.507 C2473.57,752.101 2472.87,751.398 2471.37,750.898 C2470.77,750.694 2470.27,750.694 2469.77,750.694 C2468.66,750.694 2467.77,750.898 2466.66,750.898 C2454.77,750.898 2442.87,750.898 2431.07,750.804 C2429.46,750.694 2428.07,751.304 2426.66,751.601 C2425.46,751.804 2425.26,752.507 2425.26,753.304 C2425.26,753.898 2425.37,754.507 2425.37,755.101 C2425.37,756.101 2424.87,757.101 2424.76,757.898 C2424.66,762.304 2425.16,764.101 2429.96,764.101 L2449.37,764.101 "/>
<path class="Rest" d="M2654.51,764.101 L2654.51,764.007 L2674.42,764.007 C2677.01,764.007 2679.61,762.194 2679.72,760.101 C2679.72,759.304 2679.81,758.507 2679.81,757.804 C2679.81,756.304 2679.72,754.898 2679.22,753.507 C2678.72,752.101 2678.01,751.398 2676.51,750.898 C2675.92,750.694 2675.42,750.694 2674.92,750.694 C2673.81,750.694 2672.92,750.898 2671.81,750.898 C2659.92,750.898 2648.01,750.898 2636.22,750.804 C2634.61,750.694 2633.22,751.304 2631.81,751.601 C2630.61,751.804 2630.4,752.507 2630.4,753.304 C2630.4,753.898 2630.51,754.507 2630.51,755.101 C2630.51,756.101 2630.01,757.101 2629.9,757.898 C2629.81,762.304 2630.31,764.101 2635.11,764.101 L2654.51,764.101 "/>
<path class="Rest" d="M482.344,501.584 L482.344,501.49 L502.25,501.49 C504.844,501.49 507.438,499.678 507.547,497.584 C507.547,496.787 507.641,495.99 507.641,495.287 C507.641,493.787 507.547,492.381 507.047,490.99 C506.547,489.584 505.844,488.881 504.344,488.381 C503.75,488.178 503.25,488.178 502.75,488.178 C501.641,488.178 500.75,488.381 499.641,488.381 C487.75,488.381 475.844,488.381 464.047,488.287 C462.438,488.178 461.047,488.787 459.641,489.084 C458.438,489.287 458.235,489.99 458.235,490.787 C458.235,491.381 458.344,491.99 458.344,492.584 C458.344,493.584 457.844,494.584 457.735,495.381 C457.641,499.787 458.141,501.584 462.938,501.584 L482.344,501.584 "/>
<path class="Rest" d="M675.904,501.584 L675.904,501.49 L695.81,501.49 C698.404,501.49 700.998,499.678 701.107,497.584 C701.107,496.787 701.201,495.99 701.201,495.287 C701.201,493.787 701.107,492.381 700.607,490.99 C700.107,489.584 699.404,488.881 697.904,488.381 C697.31,488.178 696.81,488.178 696.31,488.178 C695.201,488.178 694.31,488.381 693.201,488.381 C681.31,488.381 669.404,488.381 657.607,488.287 C655.998,488.178 654.607,488.787 653.201,489.084 C651.998,489.287 651.794,489.99 651.794,490.787 C651.794,491.381 651.904,491.99 651.904,492.584 C651.904,493.584 651.404,494.584 651.294,495.381 C651.201,499.787 651.701,501.584 656.498,501.584 L675.904,501.584 "/>
<path class="Rest" d="M861.217,501.584 L861.217,501.49 L881.123,501.49 C883.717,501.49 886.311,499.678 886.42,497.584 C886.42,496.787 886.514,495.99 886.514,495.287 C886.514,493.787 886.42,492.381 885.92,490.99 C885.42,489.584 884.717,488.881 883.217,488.381 C882.623,488.178 882.123,488.178 881.623,488.178 C880.514,488.178 879.623,488.381 878.514,488.381 C866.623,488.381 854.717,488.381 842.92,488.287 C841.311,488.178 839.92,488.787 838.514,489.084 C837.311,489.287 837.108,489.99 837.108,490.787 C837.108,491.381 837.217,491.99 837.217,492.584 C837.217,493.584 836.717,494.584 836.608,495.381 C836.514,499.787 837.014,501.584 841.811,501.584 L861.217,501.584 "/>
<path class="Rest" d="M1046.53,501.584 L1046.53,501.49 L1066.44,501.49 C1069.03,501.49 1071.62,499.678 1071.73,497.584 C1071.73,496.787 1071.83,495.99 1071.83,495.287 C1071.83,493.787 1071.73,492.381 1071.23,490.99 C1070.73,489.584 1070.03,488.881 1068.53,488.381 C1067.94,488.178 1067.44,488.178 1066.94,488.178 C1065.83,488.178 1064.94,488.381 1063.83,488.381 C1051.94,488.381 1040.03,488.381 1028.23,488.287 C1026.62,488.178 1025.23,488.787 1023.83,489.084 C1022.62,489.287 1022.42,489.99 1022.42,490.787 C1022.42,491.381 1022.53,491.99 1022.53,492.584 C1022.53,493.584 1022.03,494.584 1021.92,495.381 C1021.83,499.787 1022.33,501.584 1027.12,501.584 L1046.53,501.584 "/>
<path class="Rest" d="M1231.84,501.584 L1231.84,501.49 L1251.75,501.49 C1254.34,501.49 1256.94,499.678 1257.05,497.584 C1257.05,496.787 1257.14,495.99 1257.14,495.287 C1257.14,493.787 1257.05,492.381 1256.55,490.99 C1256.05,489.584 1255.34,488.881 1253.84,488.381 C1253.25,488.178 1252.75,488.178 1252.25,488.178 C1251.14,488.178 1250.25,488.381 1249.14,488.381 C1237.25,488.381 1225.34,488.381 1213.55,488.287 C1211.94,488.178 1210.55,488.787 1209.14,489.084 C1207.94,489.287 1207.73,489.99 1207.73,490.787 C1207.73,491.381 1207.84,491.99 1207.84,492.584 C1207.84,493.584 1207.34,494.584 1207.23,495.381 C1207.14,499.787 1207.64,501.584 1212.44,501.584 L1231.84,501.584 "/>
<path class="Rest" d="M1417.16,501.584 L1417.16,501.49 L1437.06,501.49 C1439.66,501.49 1442.25,499.678 1442.36,497.584 C1442.36,496.787 1442.45,495.99 1442.45,495.287 C1442.45,493.787 1442.36,492.381 1441.86,490.99 C1441.36,489.584 1440.66,488.881 1439.16,488.381 C1438.56,488.178 1438.06,488.178 1437.56,488.178 C1436.45,488.178 1435.56,488.381 1434.45,488.381 C1422.56,488.381 1410.66,488.381 1398.86,488.287 C1397.25,488.178 1395.86,488.787 1394.45,489.084 C1393.25,489.287 1393.05,489.99 1393.05,490.787 C1393.05,491.381 1393.16,491.99 1393.16,492.584 C1393.16,493.584 1392.66,494.584 1392.55,495.381 C1392.45,499.787 1392.95,501.584 1397.75,501.584 L1417.16,501.584 "/>
<path class="Rest" d="M1602.47,501.584 L1602.47,501.49 L1622.38,501.49 C1624.97,501.49 1627.56,499.678 1627.67,497.584 C1627.67,496.787 1627.77,495.99 1627.77,495.287 C1627.77,493.787 1627.67,492.381 1627.17,490.99 C1626.67,489.584 1625.97,488.881 1624.47,488.381 C1623.88,488.178 1623.38,488.178 1622.88,488.178 C1621.77,488.178 1620.88,488.381 1619.77,488.381 C1607.88,488.381 1595.97,488.381 1584.17,488.287 C1582.56,488.178 1581.17,488.787 1579.77,489.084 C1578.56,489.287 1578.36,489.99 1578.36,490.787 C1578.36,491.381 1578.47,491.99 1578.47,492.584 C1578.47,493.584 1577.97,494.584 1577.86,495.381 C1577.77,499.787 1578.27,501.584 1583.06,501.584 L1602.47,501.584 "/>
<path class="Rest" d="M1787.78,501.584 L1787.78,501.49 L1807.69,501.49 C1810.28,501.49 1812.88,499.678 1812.99,497.584 C1812.99,496.787 1813.08,495.99 1813.08,495.287 C1813.08,493.787 1812.99,492.381 1812.49,490.99 C1811.99,489.584 1811.28,488.881 1809.78,488.381 C1809.19,488.178 1808.69,488.178 1808.19,488.178 C1807.08,488.178 1806.19,488.381 1805.08,488.381 C1793.19,488.381 1781.28,488.381 1769.49,488.287 C1767.88,488.178 1766.49,488.787 1765.08,489.084 C1763.88,489.287 1763.67,489.99 1763.67,490.787 C1763.67,491.381 1763.78,491.99 1763.78,492.584 C1763.78,493.584 1763.28,494.584 1763.17,495.381 C1763.08,499.787 1763.58,501.584 1768.38,501.584 L1787.78,501.584 "/>
<path class="Rest" d="M2012.31,501.584 L2012.31,501.49 L2032.22,501.49 C2034.81,501.49 2037.4,499.678 2037.51,497.584 C2037.51,496.787 2037.61,495.99 2037.61,495.287 C2037.61,493.787 2037.51,492.381 2037.01,490.99 C2036.51,489.584 2035.81,488.881 2034.31,488.381 C2033.72,488.178 2033.22,488.178 2032.72,488.178 C2031.61,488.178 2030.72,488.381 2029.61,488.381 C2017.72,488.381 2005.81,488.381 1994.01,488.287 C1992.4,488.178 1991.01,488.787 1989.61,489.084 C1988.4,489.287 1988.2,489.99 1988.2,490.787 C1988.2,491.381 1988.31,491.99 1988.31,492.584 C1988.31,493.584 1987.81,494.584 1987.7,495.381 C1987.61,499.787 1988.11,501.584 1992.9,501.584 L2012.31,501.584 "/>
<path class="Rest" d="M2236.84,501.584 L2236.84,501.49 L2256.74,501.49 C2259.34,501.49 2261.93,499.678 2262.04,497.584 C2262.04,496.787 2262.13,495.99 2262.13,495.287 C2262.13,493.787 2262.04,492.381 2261.54,490.99 C2261.04,489.584 2260.34,488.881 2258.84,488.381 C2258.24,488.178 2257.74,488.178 2257.24,488.178 C2256.13,488.178 2255.24,488.381 2254.13,488.381 C2242.24,488.381 2230.34,488.381 2218.54,488.287 C2216.93,488.178 2215.54,488.787 2214.13,489.084 C2212.93,489.287 2212.73,489.99 2212.73,490.787 C2212.73,491.381 2212.84,491.99 2212.84,492.584 C2212.84,493.584 2212.34,494.584 2212.23,495.381 C2212.13,499.787 2212.63,501.584 2217.43,501.584 L2236.84,501.584 "/>
<path class="Rest" d="M2449.37,501.584 L2449.37,501.49 L2469.27,501.49 C2471.87,501.49 2474.46,499.678 2474.57,497.584 C2474.57,496.787 2474.66,495.99 2474.66,495.287 C2474.66,493.787 2474.57,492.381 2474.07,490.99 C2473.57,489.584 2472.87,488.881 2471.37,488.381 C2470.77,488.178 2470.27,488.178 2469.77,488.178 C2468.66,488.178 2467.77,488.381 2466.66,488.381 C2454.77,488.381 2442.87,488.381 2431.07,488.287 C2429.46,488.178 2428.07,488.787 2426.66,489.084 C2425.46,489.287 2425.26,489.99 2425.26,490.787 C2425.26,491.381 2425.37,491.99 2425.37,492.584 C2425.37,493.584 2424.87,494.584 2424.76,495.381 C2424.66,499.787 2425.16,501.584 2429.96,501.584 L2449.37,501.584 "/>
<path class="Rest" d="M2654.51,501.584 L2654.51,501.49 L2674.42,501.49 C2677.01,501.49 2679.61,499.678 2679.72,497.584 C2679.72,496.787 2679.81,495.99 2679.81,495.287 C2679.81,493.787 2679.72,492.381 2679.22,490.99 C2678.72,489.584 2678.01,488.881 2676.51,488.381 C2675.92,488.178 2675.42,488.178 2674.92,488.178 C2673.81,488.178 2672.92,488.381 2671.81,488.381 C2659.92,488.381 2648.01,488.381 2636.22,488.287 C2634.61,488.178 2633.22,488.787 2631.81,489.084 C2630.61,489.287 2630.4,489.99 2630.4,490.787 C2630.4,491.381 2630.51,491.99 2630.51,492.584 C2630.51,493.584 2630.01,494.584 2629.9,495.381 C2629.81,499.787 2630.31,501.584 2635.11,501.584 L2654.51,501.584 "/>
<path class="Jump" d="M2495.68,313.985 C2491.8,313.985 2488.08,313.766 2484.54,313.329 L2484.54,273.797 C2486.45,273.37 2488.54,273.037 2490.82,272.797 C2493.11,272.558 2495.32,272.438 2497.46,272.438 C2504.92,272.438 2510.52,274.138 2514.26,277.54 C2518,280.941 2519.87,286.172 2519.87,293.235 C2519.87,298.068 2518.98,302.016 2517.21,305.079 C2515.43,308.141 2512.76,310.391 2509.21,311.829 C2505.65,313.266 2501.14,313.985 2495.68,313.985 M2498.01,306.704 C2500.91,306.704 2503.28,306.256 2505.14,305.36 C2506.99,304.464 2508.38,303.024 2509.29,301.04 C2510.21,299.055 2510.67,296.443 2510.67,293.204 C2510.67,289.995 2510.2,287.396 2509.28,285.407 C2508.35,283.417 2506.96,281.964 2505.11,281.047 C2503.26,280.131 2500.92,279.672 2498.07,279.672 C2496.63,279.672 2495.11,279.813 2493.51,280.094 L2493.51,306.516 C2494.68,306.641 2496.18,306.704 2498.01,306.704 M2527.56,314.047 C2525.82,314.047 2524.43,313.571 2523.39,312.618 C2522.36,311.665 2521.84,310.365 2521.84,308.719 C2521.84,307.084 2522.35,305.784 2523.38,304.821 C2524.4,303.857 2525.8,303.375 2527.56,303.375 C2529.3,303.375 2530.68,303.862 2531.71,304.836 C2532.73,305.81 2533.25,307.105 2533.25,308.719 C2533.25,310.323 2532.73,311.612 2531.69,312.586 C2530.65,313.56 2529.28,314.047 2527.56,314.047 M2548.75,314.094 C2546.77,314.094 2544.79,313.943 2542.82,313.641 C2540.86,313.339 2539.03,312.917 2537.36,312.375 L2537.36,305.11 C2539.06,305.662 2540.94,306.097 2542.98,306.415 C2545.02,306.732 2546.93,306.891 2548.71,306.891 C2551.34,306.891 2553.24,306.493 2554.41,305.696 C2555.58,304.899 2556.17,303.724 2556.17,302.172 C2556.17,301.308 2555.99,300.586 2555.63,300.008 C2555.27,299.43 2554.67,298.925 2553.83,298.493 C2552.99,298.06 2551.81,297.646 2550.28,297.25 L2547.23,296.454 C2543.61,295.547 2540.89,294.138 2539.1,292.227 C2537.3,290.316 2536.4,287.818 2536.4,284.735 C2536.4,280.797 2537.83,277.75 2540.69,275.594 C2543.55,273.438 2547.78,272.36 2553.37,272.36 C2555.14,272.36 2556.86,272.467 2558.52,272.68 C2560.18,272.894 2561.68,273.183 2563.01,273.547 L2563.01,280.829 C2561.71,280.422 2560.26,280.11 2558.65,279.891 C2557.05,279.672 2555.45,279.563 2553.86,279.563 C2550.81,279.563 2548.63,279.972 2547.32,280.79 C2546,281.607 2545.34,282.766 2545.34,284.266 C2545.34,285.089 2545.5,285.777 2545.81,286.329 C2546.12,286.881 2546.65,287.357 2547.39,287.758 C2548.13,288.159 2549.17,288.542 2550.51,288.907 L2553.59,289.688 C2557.55,290.678 2560.46,292.125 2562.32,294.032 C2564.18,295.938 2565.11,298.448 2565.11,301.563 C2565.11,304.146 2564.45,306.383 2563.15,308.274 C2561.85,310.165 2559.97,311.607 2557.53,312.602 C2555.08,313.597 2552.15,314.094 2548.75,314.094 M2574.56,314.047 C2572.82,314.047 2571.43,313.571 2570.39,312.618 C2569.36,311.665 2568.84,310.365 2568.84,308.719 C2568.84,307.084 2569.35,305.784 2570.38,304.821 C2571.4,303.857 2572.8,303.375 2574.56,303.375 C2576.3,303.375 2577.68,303.862 2578.71,304.836 C2579.73,305.81 2580.25,307.105 2580.25,308.719 C2580.25,310.323 2579.73,311.612 2578.69,312.586 C2577.65,313.56 2576.28,314.047 2574.56,314.047 M2609.75,283.032 C2613.03,283.032 2615.68,283.435 2617.69,284.243 C2619.71,285.05 2621.2,286.373 2622.18,288.211 C2623.15,290.05 2623.64,292.547 2623.64,295.704 L2623.64,313.579 L2616.37,313.579 L2615.76,310.61 L2615.36,310.61 C2614.47,311.797 2613.34,312.68 2611.96,313.258 C2610.59,313.836 2609.06,314.125 2607.39,314.125 C2605.37,314.125 2603.62,313.763 2602.15,313.04 C2600.68,312.316 2599.56,311.3 2598.78,309.993 C2598.01,308.685 2597.62,307.157 2597.62,305.407 C2597.62,302.532 2598.62,300.305 2600.63,298.727 C2602.63,297.149 2605.8,296.224 2610.14,295.954 L2615.03,295.547 L2615.03,295.157 C2615.03,293.761 2614.8,292.67 2614.36,291.883 C2613.91,291.097 2613.19,290.534 2612.21,290.196 C2611.22,289.857 2609.88,289.688 2608.18,289.688 C2606.95,289.688 2605.61,289.787 2604.15,289.985 C2602.69,290.183 2601.31,290.485 2600.01,290.891 L2600.01,284.297 C2601.44,283.891 2603.02,283.579 2604.77,283.36 C2606.51,283.141 2608.17,283.032 2609.75,283.032 M2610.26,308.032 C2611.13,308.032 2611.97,307.878 2612.79,307.571 C2613.62,307.263 2614.36,306.782 2615.03,306.125 L2615.03,300.485 L2611.01,300.797 C2609.36,300.922 2608.15,301.3 2607.4,301.93 C2606.65,302.56 2606.28,303.448 2606.28,304.594 C2606.28,305.709 2606.62,306.56 2607.29,307.149 C2607.97,307.737 2608.96,308.032 2610.26,308.032 M2630.15,313.579 L2630.15,269.141 L2638.96,269.141 L2638.96,313.579 L2630.15,313.579 M2688.09,280.172 L2668.51,280.172 L2668.51,290.063 L2685.28,290.063 L2685.28,297.36 L2668.51,297.36 L2668.51,313.579 L2659.54,313.579 L2659.54,272.891 L2688.09,272.891 L2688.09,280.172 M2692.15,313.579 L2692.15,283.5 L2700.96,283.5 L2700.96,313.579 L2692.15,313.579 M2696.56,279.125 C2694.75,279.125 2693.39,278.732 2692.48,277.946 C2691.57,277.159 2691.12,276.032 2691.12,274.563 C2691.12,273.073 2691.57,271.935 2692.46,271.149 C2693.36,270.362 2694.72,269.969 2696.56,269.969 C2698.37,269.969 2699.73,270.362 2700.63,271.149 C2701.53,271.935 2701.98,273.073 2701.98,274.563 C2701.98,276.032 2701.53,277.159 2700.63,277.946 C2699.73,278.732 2698.37,279.125 2696.56,279.125 M2707.15,283.5 L2714.39,283.5 L2715,286.547 L2715.4,286.547 C2716.51,285.412 2717.81,284.542 2719.32,283.938 C2720.82,283.334 2722.46,283.032 2724.23,283.032 C2727.41,283.032 2729.91,283.985 2731.75,285.891 C2733.58,287.797 2734.5,290.787 2734.5,294.86 L2734.5,313.579 L2725.68,313.579 L2725.68,295.375 C2725.68,293.636 2725.33,292.404 2724.61,291.68 C2723.9,290.956 2722.84,290.594 2721.45,290.594 C2720.41,290.594 2719.39,290.805 2718.4,291.227 C2717.41,291.649 2716.6,292.261 2715.96,293.063 L2715.96,313.579 L2707.15,313.579 L2707.15,283.5 M2766.84,301.094 L2748.59,301.094 C2748.67,302.709 2749.01,303.98 2749.61,304.907 C2750.21,305.834 2751.14,306.503 2752.41,306.915 C2753.68,307.326 2755.4,307.532 2757.57,307.532 C2759.87,307.532 2762.4,307.209 2765.17,306.563 L2765.17,313.141 C2762.23,313.818 2759.29,314.157 2756.34,314.157 C2752.51,314.157 2749.38,313.612 2746.95,312.524 C2744.52,311.435 2742.72,309.745 2741.54,307.454 C2740.37,305.162 2739.78,302.183 2739.78,298.516 C2739.78,295.214 2740.32,292.404 2741.42,290.086 C2742.51,287.769 2744.1,286.013 2746.19,284.821 C2748.28,283.628 2750.81,283.032 2753.78,283.032 C2758.03,283.032 2761.27,284.375 2763.5,287.063 C2765.72,289.75 2766.84,293.657 2766.84,298.782 L2766.84,301.094 M2753.67,288.579 C2752,288.579 2750.75,289.149 2749.9,290.29 C2749.06,291.43 2748.61,293.339 2748.56,296.016 L2758.65,296.016 C2758.59,293.318 2758.15,291.404 2757.35,290.274 C2756.54,289.144 2755.31,288.579 2753.67,288.579"/>
<path class="RehearsalMark" fill="none" stroke="#000000" stroke-width="4.00" stroke-linecap="square" stroke-linejoin="miter" stroke-miterlimit="2" fill-rule="evenodd" d="M148.483,216.599 L603.484,216.599 L603.484,299.601 L148.483,299.601 L148.483,216.599 "/>
<path class="RehearsalMark" d="M163.64,284.1 L163.64,232.287 L175.046,232.287 L175.046,284.1 L163.64,284.1 M218.624,232.287 L229.374,232.287 L229.374,284.1 L217.89,284.1 L195.39,249.412 L195.39,284.1 L184.64,284.1 L184.64,232.287 L196.124,232.287 L218.624,266.99 L218.624,232.287 M250.78,284.1 L250.78,241.787 L234.437,241.787 L234.437,232.287 L278.546,232.287 L278.546,241.787 L262.234,241.787 L262.234,284.1 L250.78,284.1 M294.905,275.006 L320.421,275.006 L320.421,284.1 L283.64,284.1 L283.64,232.287 L320.077,232.287 L320.077,241.396 L294.905,241.396 L294.905,253.053 L316.515,253.053 L316.515,262.146 L294.905,262.146 L294.905,275.006 M358.155,284.1 L344.937,265.1 L344.296,265.1 C342.661,265.1 340.853,265.037 338.874,264.912 L338.874,284.1 L327.64,284.1 L327.64,233.443 C330.109,232.912 332.744,232.482 335.546,232.154 C338.348,231.826 341.114,231.662 343.843,231.662 C351.332,231.662 356.944,233.021 360.679,235.74 C364.413,238.459 366.28,242.641 366.28,248.287 C366.28,251.975 365.387,255.079 363.601,257.6 C361.814,260.12 359.244,262.011 355.89,263.271 L370.593,284.1 L358.155,284.1 M338.874,256.303 C340.832,256.511 342.713,256.615 344.515,256.615 C348.296,256.615 351.085,255.964 352.882,254.662 C354.679,253.36 355.577,251.245 355.577,248.318 C355.577,245.454 354.718,243.363 352.999,242.045 C351.28,240.727 348.614,240.068 344.999,240.068 C342.947,240.068 340.905,240.24 338.874,240.584 L338.874,256.303 M375.64,284.1 L375.64,232.287 L387.046,232.287 L387.046,274.615 L410.859,274.615 L410.859,284.1 L375.64,284.1 M436.265,284.771 C428.754,284.771 423.231,282.956 419.694,279.326 C416.158,275.696 414.39,270.12 414.39,262.6 L414.39,232.287 L425.843,232.287 L425.843,263.725 C425.843,267.787 426.694,270.751 428.398,272.615 C430.101,274.48 432.723,275.412 436.265,275.412 C439.817,275.412 442.444,274.48 444.148,272.615 C445.851,270.751 446.702,267.787 446.702,263.725 L446.702,232.287 L457.937,232.287 L457.937,262.6 C457.937,270.12 456.187,275.696 452.687,279.326 C449.187,282.956 443.713,284.771 436.265,284.771 M480.812,284.631 C475.864,284.631 471.14,284.35 466.64,283.787 L466.64,233.443 C469.067,232.912 471.734,232.495 474.64,232.193 C477.546,231.891 480.364,231.74 483.093,231.74 C492.593,231.74 499.723,233.904 504.484,238.232 C509.244,242.561 511.624,249.214 511.624,258.193 C511.624,264.36 510.491,269.391 508.226,273.287 C505.96,277.183 502.564,280.048 498.038,281.881 C493.512,283.714 487.77,284.631 480.812,284.631 M483.796,275.35 C487.484,275.35 490.504,274.777 492.859,273.631 C495.213,272.485 496.973,270.654 498.14,268.139 C499.306,265.623 499.89,262.298 499.89,258.162 C499.89,254.079 499.301,250.771 498.124,248.24 C496.947,245.709 495.179,243.86 492.819,242.693 C490.46,241.527 487.473,240.943 483.859,240.943 C482.015,240.943 480.077,241.115 478.046,241.459 L478.046,275.1 C479.546,275.266 481.463,275.35 483.796,275.35 M519.64,284.1 L519.64,232.287 L531.046,232.287 L531.046,284.1 L519.64,284.1 M563.359,284.771 C558.338,284.771 554.002,283.795 550.351,281.842 C546.7,279.889 543.877,276.93 541.882,272.967 C539.887,269.003 538.89,264.079 538.89,258.193 C538.89,252.318 539.887,247.396 541.882,243.428 C543.877,239.459 546.7,236.501 550.351,234.553 C554.002,232.605 558.338,231.631 563.359,231.631 C568.379,231.631 572.715,232.61 576.366,234.568 C580.017,236.527 582.835,239.49 584.819,243.459 C586.804,247.428 587.796,252.339 587.796,258.193 C587.796,264.058 586.796,268.972 584.796,272.936 C582.796,276.899 579.97,279.863 576.319,281.826 C572.668,283.79 568.348,284.771 563.359,284.771 M563.359,275.553 C567.484,275.553 570.632,274.188 572.804,271.459 C574.976,268.73 576.062,264.391 576.062,258.443 C576.062,252.277 574.97,247.8 572.788,245.014 C570.606,242.227 567.463,240.834 563.359,240.834 C559.223,240.834 556.064,242.199 553.882,244.928 C551.7,247.657 550.609,252.001 550.609,257.959 C550.609,264.136 551.694,268.613 553.866,271.389 C556.038,274.165 559.202,275.553 563.359,275.553"/>
<path class="Harmony" d="M478.017,402.079 L473.361,388.907 L456.189,388.907 L451.533,402.079 L447.048,402.079 L461.658,361.391 L467.955,361.391 L482.548,402.079 L478.017,402.079 M457.501,385.141 L472.017,385.141 L464.767,364.625 L457.501,385.141 "/>
<path class="Harmony" d="M486.111,361.391 L510.001,361.391 L510.001,363.86 L495.08,402.079 L490.423,402.079 L505.064,365.235 L486.111,365.235 L486.111,361.391 "/>
<path class="Harmony" d="M627.134,402.407 C624.092,402.407 620.873,402.214 617.478,401.829 L617.478,362.047 C619.165,361.714 620.936,361.451 622.79,361.258 C624.644,361.066 626.42,360.969 628.118,360.969 C634.868,360.969 639.939,362.68 643.329,366.102 C646.72,369.524 648.415,374.735 648.415,381.735 C648.415,388.829 646.652,394.047 643.126,397.391 C639.6,400.735 634.269,402.407 627.134,402.407 M628.009,398.594 C631.571,398.594 634.517,398.016 636.845,396.86 C639.173,395.704 640.918,393.883 642.079,391.399 C643.241,388.915 643.821,385.693 643.821,381.735 C643.821,375.87 642.548,371.581 640.001,368.868 C637.454,366.154 633.54,364.797 628.259,364.797 C626.332,364.797 624.222,364.969 621.931,365.313 L621.931,398.235 C623.764,398.474 625.79,398.594 628.009,398.594"/>
<path class="Harmony" d="M688.103,371.782 C690.884,371.782 693.077,372.62 694.681,374.297 C696.285,375.974 697.087,378.652 697.087,382.329 L697.087,402.079 L692.696,402.079 L692.696,382.532 C692.696,380.115 692.202,378.373 691.212,377.305 C690.222,376.237 688.837,375.704 687.056,375.704 C685.774,375.704 684.488,376.011 683.196,376.625 C681.905,377.24 680.8,378.209 679.884,379.532 C679.988,380.355 680.04,381.25 680.04,382.219 L680.04,402.079 L675.696,402.079 L675.696,382.532 C675.696,380.094 675.22,378.347 674.267,377.29 C673.314,376.232 671.957,375.704 670.196,375.704 C668.863,375.704 667.537,376.045 666.22,376.727 C664.902,377.409 663.79,378.438 662.884,379.813 L662.884,402.079 L658.493,402.079 L658.493,372.25 L662.196,372.25 L662.509,375.625 L662.806,375.625 C663.941,374.365 665.243,373.409 666.712,372.758 C668.181,372.107 669.759,371.782 671.446,371.782 C675.05,371.782 677.53,373.209 678.884,376.063 C680.186,374.584 681.636,373.5 683.235,372.813 C684.834,372.125 686.457,371.782 688.103,371.782"/>
<path class="Harmony" d="M833.884,402.079 L829.228,388.907 L812.056,388.907 L807.4,402.079 L802.916,402.079 L817.525,361.391 L823.822,361.391 L838.416,402.079 L833.884,402.079 M813.369,385.141 L827.884,385.141 L820.634,364.625 L813.369,385.141 "/>
<path class="Harmony" d="M841.978,361.391 L865.869,361.391 L865.869,363.86 L850.947,402.079 L846.291,402.079 L860.931,365.235 L841.978,365.235 L841.978,361.391 "/>
<path class="Harmony" d="M997.76,402.407 C994.718,402.407 991.5,402.214 988.104,401.829 L988.104,362.047 C989.791,361.714 991.562,361.451 993.416,361.258 C995.27,361.066 997.046,360.969 998.744,360.969 C1005.49,360.969 1010.56,362.68 1013.96,366.102 C1017.35,369.524 1019.04,374.735 1019.04,381.735 C1019.04,388.829 1017.28,394.047 1013.75,397.391 C1010.23,400.735 1004.9,402.407 997.76,402.407 M998.635,398.594 C1002.2,398.594 1005.14,398.016 1007.47,396.86 C1009.8,395.704 1011.54,393.883 1012.71,391.399 C1013.87,388.915 1014.45,385.693 1014.45,381.735 C1014.45,375.87 1013.17,371.581 1010.63,368.868 C1008.08,366.154 1004.17,364.797 998.885,364.797 C996.958,364.797 994.848,364.969 992.557,365.313 L992.557,398.235 C994.39,398.474 996.416,398.594 998.635,398.594"/>
<path class="Harmony" d="M1058.73,371.782 C1061.51,371.782 1063.7,372.62 1065.31,374.297 C1066.91,375.974 1067.71,378.652 1067.71,382.329 L1067.71,402.079 L1063.32,402.079 L1063.32,382.532 C1063.32,380.115 1062.83,378.373 1061.84,377.305 C1060.85,376.237 1059.46,375.704 1057.68,375.704 C1056.4,375.704 1055.11,376.011 1053.82,376.625 C1052.53,377.24 1051.43,378.209 1050.51,379.532 C1050.61,380.355 1050.67,381.25 1050.67,382.219 L1050.67,402.079 L1046.32,402.079 L1046.32,382.532 C1046.32,380.094 1045.85,378.347 1044.89,377.29 C1043.94,376.232 1042.58,375.704 1040.82,375.704 C1039.49,375.704 1038.16,376.045 1036.85,376.727 C1035.53,377.409 1034.42,378.438 1033.51,379.813 L1033.51,402.079 L1029.12,402.079 L1029.12,372.25 L1032.82,372.25 L1033.13,375.625 L1033.43,375.625 C1034.57,374.365 1035.87,373.409 1037.34,372.758 C1038.81,372.107 1040.38,371.782 1042.07,371.782 C1045.68,371.782 1048.16,373.209 1049.51,376.063 C1050.81,374.584 1052.26,373.5 1053.86,372.813 C1055.46,372.125 1057.08,371.782 1058.73,371.782"/>
<path class="Harmony" d="M1203.67,382.282 L1203.67,401.641 C1201.96,401.933 1200.39,402.138 1198.96,402.258 C1197.52,402.378 1196.05,402.438 1194.53,402.438 C1187.57,402.438 1182.36,400.769 1178.89,397.43 C1175.43,394.092 1173.69,388.875 1173.67,381.782 C1173.67,374.636 1175.41,369.362 1178.89,365.961 C1182.36,362.56 1187.27,360.86 1193.6,360.86 C1196.63,360.86 1199.67,361.266 1202.73,362.079 L1202.73,365.969 C1201.16,365.532 1199.65,365.217 1198.22,365.024 C1196.79,364.831 1195.34,364.735 1193.87,364.735 C1188.8,364.735 1184.94,366.066 1182.3,368.727 C1179.66,371.388 1178.34,375.75 1178.34,381.813 C1178.34,385.75 1178.93,388.959 1180.11,391.438 C1181.29,393.917 1183.06,395.73 1185.4,396.875 C1187.74,398.021 1190.71,398.594 1194.29,398.594 C1196.14,398.594 1197.85,398.48 1199.43,398.25 L1199.43,382.282 L1203.67,382.282 "/>
<path class="Harmony" d="M1244.04,371.782 C1246.82,371.782 1249.02,372.62 1250.62,374.297 C1252.22,375.974 1253.03,378.652 1253.03,382.329 L1253.03,402.079 L1248.64,402.079 L1248.64,382.532 C1248.64,380.115 1248.14,378.373 1247.15,377.305 C1246.16,376.237 1244.78,375.704 1242.99,375.704 C1241.71,375.704 1240.43,376.011 1239.14,376.625 C1237.84,377.24 1236.74,378.209 1235.82,379.532 C1235.93,380.355 1235.98,381.25 1235.98,382.219 L1235.98,402.079 L1231.64,402.079 L1231.64,382.532 C1231.64,380.094 1231.16,378.347 1230.21,377.29 C1229.25,376.232 1227.9,375.704 1226.14,375.704 C1224.8,375.704 1223.48,376.045 1222.16,376.727 C1220.84,377.409 1219.73,378.438 1218.82,379.813 L1218.82,402.079 L1214.43,402.079 L1214.43,372.25 L1218.14,372.25 L1218.45,375.625 L1218.74,375.625 C1219.88,374.365 1221.18,373.409 1222.65,372.758 C1224.12,372.107 1225.7,371.782 1227.39,371.782 C1230.99,371.782 1233.47,373.209 1234.82,376.063 C1236.13,374.584 1237.58,373.5 1239.17,372.813 C1240.77,372.125 1242.4,371.782 1244.04,371.782"/>
<path class="Harmony" d="M1388.98,382.282 L1388.98,401.641 C1387.27,401.933 1385.7,402.138 1384.27,402.258 C1382.84,402.378 1381.36,402.438 1379.84,402.438 C1372.88,402.438 1367.67,400.769 1364.21,397.43 C1360.74,394.092 1359,388.875 1358.98,381.782 C1358.98,374.636 1360.72,369.362 1364.2,365.961 C1367.68,362.56 1372.58,360.86 1378.92,360.86 C1381.94,360.86 1384.98,361.266 1388.04,362.079 L1388.04,365.969 C1386.47,365.532 1384.97,365.217 1383.53,365.024 C1382.1,364.831 1380.65,364.735 1379.18,364.735 C1374.11,364.735 1370.25,366.066 1367.61,368.727 C1364.97,371.388 1363.65,375.75 1363.65,381.813 C1363.65,385.75 1364.24,388.959 1365.43,391.438 C1366.61,393.917 1368.37,395.73 1370.71,396.875 C1373.06,398.021 1376.02,398.594 1379.6,398.594 C1381.45,398.594 1383.16,398.48 1384.75,398.25 L1384.75,382.282 L1388.98,382.282 "/>
<path class="Harmony" d="M1420.89,390.907 L1415.51,393.297 L1415.51,402.079 L1413.2,402.079 L1413.2,394.344 L1403.59,398.641 L1403.59,407.719 L1401.28,407.719 L1401.28,399.688 L1395.9,402.079 L1395.9,397.563 L1401.28,395.172 L1401.28,381.907 L1395.9,384.297 L1395.9,379.782 L1401.28,377.391 L1401.28,368.61 L1403.59,368.61 L1403.59,376.344 L1413.2,372.047 L1413.2,362.704 L1415.51,362.704 L1415.51,371 L1420.89,368.61 L1420.89,373.125 L1415.51,375.516 L1415.51,388.782 L1420.89,386.391 L1420.89,390.907 M1413.2,389.829 L1413.2,376.563 L1403.59,380.86 L1403.59,394.125 L1413.2,389.829 "/>
<path class="Harmony" d="M1440.92,402.594 C1438.65,402.594 1436.63,402.092 1434.87,401.086 C1433.11,400.081 1431.72,398.474 1430.7,396.266 C1429.68,394.058 1429.17,391.23 1429.17,387.782 C1429.17,382.448 1430.44,378.448 1432.98,375.782 C1435.52,373.115 1439.28,371.782 1444.25,371.782 C1445.67,371.782 1447.28,371.917 1449.07,372.188 L1449.07,357.641 L1453.48,357.641 L1453.48,402.079 L1449.71,402.079 L1449.42,398.829 L1449.14,398.829 C1448.2,399.985 1447.02,400.902 1445.61,401.579 C1444.2,402.256 1442.64,402.594 1440.92,402.594 M1441.93,398.813 C1443.33,398.813 1444.66,398.506 1445.93,397.891 C1447.19,397.277 1448.24,396.355 1449.07,395.125 L1449.07,375.907 C1448.39,375.761 1447.6,375.636 1446.72,375.532 C1445.84,375.428 1444.99,375.375 1444.15,375.375 C1440.62,375.375 1437.99,376.326 1436.25,378.227 C1434.52,380.128 1433.65,383.178 1433.65,387.375 C1433.65,391.532 1434.37,394.477 1435.82,396.211 C1437.26,397.946 1439.3,398.813 1441.93,398.813 M1461.75,402.079 L1461.75,372.25 L1466.14,372.25 L1466.14,402.079 L1461.75,402.079 M1463.95,365.782 C1462.95,365.782 1462.18,365.54 1461.65,365.055 C1461.12,364.571 1460.85,363.886 1460.85,363 C1460.85,362.125 1461.13,361.441 1461.67,360.946 C1462.21,360.451 1462.97,360.204 1463.95,360.204 C1464.92,360.204 1465.67,360.451 1466.2,360.946 C1466.73,361.441 1467,362.125 1467,363 C1467,363.886 1466.73,364.571 1466.2,365.055 C1465.67,365.54 1464.92,365.782 1463.95,365.782 M1504.35,371.782 C1507.14,371.782 1509.33,372.62 1510.93,374.297 C1512.54,375.974 1513.34,378.652 1513.34,382.329 L1513.34,402.079 L1508.95,402.079 L1508.95,382.532 C1508.95,380.115 1508.45,378.373 1507.46,377.305 C1506.47,376.237 1505.09,375.704 1503.31,375.704 C1502.03,375.704 1500.74,376.011 1499.45,376.625 C1498.16,377.24 1497.05,378.209 1496.14,379.532 C1496.24,380.355 1496.29,381.25 1496.29,382.219 L1496.29,402.079 L1491.95,402.079 L1491.95,382.532 C1491.95,380.094 1491.47,378.347 1490.52,377.29 C1489.57,376.232 1488.21,375.704 1486.45,375.704 C1485.12,375.704 1483.79,376.045 1482.47,376.727 C1481.15,377.409 1480.04,378.438 1479.14,379.813 L1479.14,402.079 L1474.75,402.079 L1474.75,372.25 L1478.45,372.25 L1478.76,375.625 L1479.06,375.625 C1480.19,374.365 1481.5,373.409 1482.96,372.758 C1484.43,372.107 1486.01,371.782 1487.7,371.782 C1491.3,371.782 1493.78,373.209 1495.14,376.063 C1496.44,374.584 1497.89,373.5 1499.49,372.813 C1501.09,372.125 1502.71,371.782 1504.35,371.782"/>
<path class="Harmony" d="M1575.14,402.079 L1570.48,388.907 L1553.31,388.907 L1548.65,402.079 L1544.17,402.079 L1558.78,361.391 L1565.07,361.391 L1579.67,402.079 L1575.14,402.079 M1554.62,385.141 L1569.14,385.141 L1561.89,364.625 L1554.62,385.141 "/>
<path class="Harmony" d="M1583.23,361.391 L1607.12,361.391 L1607.12,363.86 L1592.2,402.079 L1587.54,402.079 L1602.18,365.235 L1583.23,365.235 L1583.23,361.391 "/>
<path class="Harmony" d="M1620.18,402.594 C1617.15,402.594 1614.39,402.193 1611.9,401.391 L1611.9,397.844 C1614.63,398.667 1617.39,399.079 1620.18,399.079 C1625.09,399.079 1627.54,397.412 1627.54,394.079 C1627.54,392.724 1627.19,391.688 1626.49,390.969 C1625.79,390.25 1624.61,389.709 1622.95,389.344 L1618.92,388.516 C1616.25,387.954 1614.32,387.011 1613.14,385.688 C1611.95,384.365 1611.36,382.605 1611.36,380.407 C1611.36,378.709 1611.79,377.209 1612.64,375.907 C1613.5,374.605 1614.82,373.592 1616.59,372.868 C1618.36,372.144 1620.55,371.782 1623.15,371.782 C1625.55,371.782 1627.89,372.073 1630.18,372.657 L1630.18,376.235 C1628.98,375.902 1627.82,375.662 1626.72,375.516 C1625.62,375.37 1624.47,375.297 1623.26,375.297 C1620.56,375.297 1618.61,375.75 1617.39,376.657 C1616.17,377.563 1615.56,378.777 1615.56,380.297 C1615.56,381.527 1615.9,382.516 1616.57,383.266 C1617.25,384.016 1618.4,384.568 1620.01,384.922 L1624.06,385.75 C1626.77,386.313 1628.73,387.245 1629.95,388.547 C1631.17,389.849 1631.78,391.62 1631.78,393.86 C1631.78,396.61 1630.78,398.753 1628.78,400.29 C1626.78,401.826 1623.91,402.594 1620.18,402.594 M1647.23,402.579 C1644.28,402.579 1641.96,401.743 1640.27,400.071 C1638.58,398.399 1637.73,395.73 1637.73,392.063 L1637.73,372.25 L1642.12,372.25 L1642.12,391.844 C1642.12,394.271 1642.66,396.011 1643.73,397.063 C1644.8,398.115 1646.3,398.641 1648.23,398.641 C1649.7,398.641 1651.17,398.31 1652.64,397.649 C1654.12,396.987 1655.35,396 1656.34,394.688 L1656.34,372.25 L1660.75,372.25 L1660.75,402.079 L1657.03,402.079 L1656.7,398.813 L1656.42,398.813 C1655.19,400.053 1653.79,400.99 1652.22,401.625 C1650.65,402.261 1648.99,402.579 1647.23,402.579 M1676.18,402.594 C1673.15,402.594 1670.39,402.193 1667.9,401.391 L1667.9,397.844 C1670.63,398.667 1673.39,399.079 1676.18,399.079 C1681.09,399.079 1683.54,397.412 1683.54,394.079 C1683.54,392.724 1683.19,391.688 1682.49,390.969 C1681.79,390.25 1680.61,389.709 1678.95,389.344 L1674.92,388.516 C1672.25,387.954 1670.32,387.011 1669.14,385.688 C1667.95,384.365 1667.36,382.605 1667.36,380.407 C1667.36,378.709 1667.79,377.209 1668.64,375.907 C1669.5,374.605 1670.82,373.592 1672.59,372.868 C1674.36,372.144 1676.55,371.782 1679.15,371.782 C1681.55,371.782 1683.89,372.073 1686.18,372.657 L1686.18,376.235 C1684.98,375.902 1683.82,375.662 1682.72,375.516 C1681.62,375.37 1680.47,375.297 1679.26,375.297 C1676.56,375.297 1674.61,375.75 1673.39,376.657 C1672.17,377.563 1671.56,378.777 1671.56,380.297 C1671.56,381.527 1671.9,382.516 1672.57,383.266 C1673.25,384.016 1674.4,384.568 1676.01,384.922 L1680.06,385.75 C1682.77,386.313 1684.73,387.245 1685.95,388.547 C1687.17,389.849 1687.78,391.62 1687.78,393.86 C1687.78,396.61 1686.78,398.753 1684.78,400.29 C1682.78,401.826 1679.91,402.594 1676.18,402.594"/>
<path class="Harmony" d="M1760.45,402.079 L1755.79,388.907 L1738.62,388.907 L1733.97,402.079 L1729.48,402.079 L1744.09,361.391 L1750.39,361.391 L1764.98,402.079 L1760.45,402.079 M1739.93,385.141 L1754.45,385.141 L1747.2,364.625 L1739.93,385.141 "/>
<path class="Harmony" d="M1768.54,361.391 L1792.43,361.391 L1792.43,363.86 L1777.51,402.079 L1772.86,402.079 L1787.5,365.235 L1768.54,365.235 L1768.54,361.391 "/>
<path class="Harmony" d="M1933.34,402.594 C1927.43,402.594 1922.89,400.959 1919.7,397.688 C1916.51,394.417 1914.92,389.125 1914.92,381.813 C1914.92,374.646 1916.54,369.362 1919.79,365.961 C1923.03,362.56 1927.7,360.86 1933.78,360.86 C1936.75,360.86 1939.68,361.256 1942.58,362.047 L1942.58,365.954 C1939.77,365.141 1936.9,364.735 1933.95,364.735 C1930.77,364.735 1928.14,365.295 1926.04,366.415 C1923.94,367.534 1922.34,369.342 1921.25,371.836 C1920.17,374.331 1919.62,377.62 1919.62,381.704 C1919.62,385.902 1920.17,389.25 1921.27,391.75 C1922.37,394.25 1923.95,396.037 1926,397.11 C1928.05,398.183 1930.61,398.719 1933.67,398.719 C1935.17,398.719 1936.63,398.602 1938.05,398.368 C1939.47,398.133 1940.98,397.74 1942.58,397.188 L1942.58,401.094 C1939.72,402.094 1936.64,402.594 1933.34,402.594"/>
<path class="Harmony" d="M1980.29,371.782 C1983.08,371.782 1985.27,372.62 1986.87,374.297 C1988.48,375.974 1989.28,378.652 1989.28,382.329 L1989.28,402.079 L1984.89,402.079 L1984.89,382.532 C1984.89,380.115 1984.39,378.373 1983.4,377.305 C1982.41,376.237 1981.03,375.704 1979.25,375.704 C1977.97,375.704 1976.68,376.011 1975.39,376.625 C1974.1,377.24 1972.99,378.209 1972.08,379.532 C1972.18,380.355 1972.23,381.25 1972.23,382.219 L1972.23,402.079 L1967.89,402.079 L1967.89,382.532 C1967.89,380.094 1967.41,378.347 1966.46,377.29 C1965.5,376.232 1964.15,375.704 1962.39,375.704 C1961.05,375.704 1959.73,376.045 1958.41,376.727 C1957.09,377.409 1955.98,378.438 1955.08,379.813 L1955.08,402.079 L1950.68,402.079 L1950.68,372.25 L1954.39,372.25 L1954.7,375.625 L1955,375.625 C1956.13,374.365 1957.43,373.409 1958.9,372.758 C1960.37,372.107 1961.95,371.782 1963.64,371.782 C1967.24,371.782 1969.72,373.209 1971.08,376.063 C1972.38,374.584 1973.83,373.5 1975.43,372.813 C1977.03,372.125 1978.65,371.782 1980.29,371.782"/>
<path class="Harmony" d="M2038.57,402.407 C2035.53,402.407 2032.31,402.214 2028.91,401.829 L2028.91,362.047 C2030.6,361.714 2032.37,361.451 2034.23,361.258 C2036.08,361.066 2037.86,360.969 2039.55,360.969 C2046.3,360.969 2051.38,362.68 2054.77,366.102 C2058.16,369.524 2059.85,374.735 2059.85,381.735 C2059.85,388.829 2058.09,394.047 2054.56,397.391 C2051.04,400.735 2045.71,402.407 2038.57,402.407 M2039.45,398.594 C2043.01,398.594 2045.95,398.016 2048.28,396.86 C2050.61,395.704 2052.35,393.883 2053.52,391.399 C2054.68,388.915 2055.26,385.693 2055.26,381.735 C2055.26,375.87 2053.98,371.581 2051.44,368.868 C2048.89,366.154 2044.98,364.797 2039.7,364.797 C2037.77,364.797 2035.66,364.969 2033.37,365.313 L2033.37,398.235 C2035.2,398.474 2037.23,398.594 2039.45,398.594"/>
<path class="Harmony" d="M2066.1,361.391 L2089.99,361.391 L2089.99,363.86 L2075.07,402.079 L2070.41,402.079 L2085.05,365.235 L2066.1,365.235 L2066.1,361.391 "/>
<path class="Harmony" d="M2208.66,382.282 L2208.66,401.641 C2206.95,401.933 2205.38,402.138 2203.95,402.258 C2202.52,402.378 2201.04,402.438 2199.52,402.438 C2192.56,402.438 2187.35,400.769 2183.89,397.43 C2180.42,394.092 2178.68,388.875 2178.66,381.782 C2178.66,374.636 2180.4,369.362 2183.88,365.961 C2187.36,362.56 2192.27,360.86 2198.6,360.86 C2201.62,360.86 2204.66,361.266 2207.72,362.079 L2207.72,365.969 C2206.15,365.532 2204.65,365.217 2203.22,365.024 C2201.78,364.831 2200.33,364.735 2198.86,364.735 C2193.79,364.735 2189.93,366.066 2187.29,368.727 C2184.65,371.388 2183.33,375.75 2183.33,381.813 C2183.33,385.75 2183.92,388.959 2185.11,391.438 C2186.29,393.917 2188.05,395.73 2190.4,396.875 C2192.74,398.021 2195.7,398.594 2199.29,398.594 C2201.13,398.594 2202.84,398.48 2204.43,398.25 L2204.43,382.282 L2208.66,382.282 "/>
<path class="Harmony" d="M2249.04,371.782 C2251.82,371.782 2254.01,372.62 2255.61,374.297 C2257.22,375.974 2258.02,378.652 2258.02,382.329 L2258.02,402.079 L2253.63,402.079 L2253.63,382.532 C2253.63,380.115 2253.14,378.373 2252.15,377.305 C2251.16,376.237 2249.77,375.704 2247.99,375.704 C2246.71,375.704 2245.42,376.011 2244.13,376.625 C2242.84,377.24 2241.73,378.209 2240.82,379.532 C2240.92,380.355 2240.97,381.25 2240.97,382.219 L2240.97,402.079 L2236.63,402.079 L2236.63,382.532 C2236.63,380.094 2236.15,378.347 2235.2,377.29 C2234.25,376.232 2232.89,375.704 2231.13,375.704 C2229.8,375.704 2228.47,376.045 2227.15,376.727 C2225.84,377.409 2224.72,378.438 2223.82,379.813 L2223.82,402.079 L2219.43,402.079 L2219.43,372.25 L2223.13,372.25 L2223.44,375.625 L2223.74,375.625 C2224.87,374.365 2226.18,373.409 2227.65,372.758 C2229.11,372.107 2230.69,371.782 2232.38,371.782 C2235.98,371.782 2238.46,373.209 2239.82,376.063 C2241.12,374.584 2242.57,373.5 2244.17,372.813 C2245.77,372.125 2247.39,371.782 2249.04,371.782"/>
<path class="Harmony" d="M2368.16,398.282 L2389.16,398.282 L2389.16,402.079 L2363.72,402.079 L2363.72,361.391 L2388.9,361.391 L2388.9,365.172 L2368.16,365.172 L2368.16,379.313 L2386.22,379.313 L2386.22,383.079 L2368.16,383.079 L2368.16,398.282 "/>
<path class="Harmony" d="M2393.91,361.391 L2417.8,361.391 L2417.8,363.86 L2402.88,402.079 L2398.22,402.079 L2412.87,365.235 L2393.91,365.235 L2393.91,361.391 "/>
<path class="Harmony" d="M2497.06,402.079 L2492.41,388.907 L2475.24,388.907 L2470.58,402.079 L2466.09,402.079 L2480.7,361.391 L2487,361.391 L2501.59,402.079 L2497.06,402.079 M2476.55,385.141 L2491.06,385.141 L2483.81,364.625 L2476.55,385.141 "/>
<path class="Harmony" d="M2505.16,361.391 L2529.05,361.391 L2529.05,363.86 L2514.13,402.079 L2509.47,402.079 L2524.11,365.235 L2505.16,365.235 L2505.16,361.391 "/>
<path class="Harmony" d="M2613.12,402.407 C2610.08,402.407 2606.86,402.214 2603.47,401.829 L2603.47,362.047 C2605.15,361.714 2606.93,361.451 2608.78,361.258 C2610.63,361.066 2612.41,360.969 2614.11,360.969 C2620.86,360.969 2625.93,362.68 2629.32,366.102 C2632.71,369.524 2634.4,374.735 2634.4,381.735 C2634.4,388.829 2632.64,394.047 2629.12,397.391 C2625.59,400.735 2620.26,402.407 2613.12,402.407 M2614,398.594 C2617.56,398.594 2620.51,398.016 2622.83,396.86 C2625.16,395.704 2626.91,393.883 2628.07,391.399 C2629.23,388.915 2629.81,385.693 2629.81,381.735 C2629.81,375.87 2628.54,371.581 2625.99,368.868 C2623.44,366.154 2619.53,364.797 2614.25,364.797 C2612.32,364.797 2610.21,364.969 2607.92,365.313 L2607.92,398.235 C2609.75,398.474 2611.78,398.594 2614,398.594"/>
<path class="Harmony" d="M2674.09,371.782 C2676.87,371.782 2679.07,372.62 2680.67,374.297 C2682.27,375.974 2683.08,378.652 2683.08,382.329 L2683.08,402.079 L2678.69,402.079 L2678.69,382.532 C2678.69,380.115 2678.19,378.373 2677.2,377.305 C2676.21,376.237 2674.83,375.704 2673.04,375.704 C2671.76,375.704 2670.48,376.011 2669.19,376.625 C2667.89,377.24 2666.79,378.209 2665.87,379.532 C2665.98,380.355 2666.03,381.25 2666.03,382.219 L2666.03,402.079 L2661.69,402.079 L2661.69,382.532 C2661.69,380.094 2661.21,378.347 2660.26,377.29 C2659.3,376.232 2657.95,375.704 2656.19,375.704 C2654.85,375.704 2653.53,376.045 2652.21,376.727 C2650.89,377.409 2649.78,378.438 2648.87,379.813 L2648.87,402.079 L2644.48,402.079 L2644.48,372.25 L2648.19,372.25 L2648.5,375.625 L2648.79,375.625 C2649.93,374.365 2651.23,373.409 2652.7,372.758 C2654.17,372.107 2655.75,371.782 2657.44,371.782 C2661.04,371.782 2663.52,373.209 2664.87,376.063 C2666.18,374.584 2667.63,373.5 2669.22,372.813 C2670.82,372.125 2672.45,371.782 2674.09,371.782"/>
<path class="Page" d="M2752.25,4050.74 L2754.95,4050.74 C2756.66,4050.72 2758.01,4050.27 2758.98,4049.4 C2759.96,4048.52 2760.45,4047.34 2760.45,4045.87 C2760.45,4042.53 2758.79,4040.87 2755.47,4040.87 C2753.91,4040.87 2752.66,4041.31 2751.73,4042.2 C2750.79,4043.09 2750.33,4044.27 2750.33,4045.74 L2746.72,4045.74 C2746.72,4043.49 2747.54,4041.62 2749.19,4040.13 C2750.83,4038.64 2752.93,4037.9 2755.47,4037.9 C2758.15,4037.9 2760.25,4038.6 2761.77,4040.02 C2763.3,4041.44 2764.06,4043.41 2764.06,4045.94 C2764.06,4047.18 2763.66,4048.38 2762.86,4049.54 C2762.06,4050.69 2760.97,4051.56 2759.59,4052.13 C2761.16,4052.63 2762.36,4053.45 2763.21,4054.6 C2764.06,4055.75 2764.48,4057.14 2764.48,4058.79 C2764.48,4061.34 2763.65,4063.37 2761.98,4064.87 C2760.32,4066.37 2758.15,4067.12 2755.48,4067.12 C2752.82,4067.12 2750.65,4066.39 2748.98,4064.94 C2747.3,4063.5 2746.47,4061.59 2746.47,4059.22 L2750.09,4059.22 C2750.09,4060.72 2750.58,4061.92 2751.56,4062.82 C2752.54,4063.71 2753.85,4064.16 2755.48,4064.16 C2757.23,4064.16 2758.57,4063.71 2759.49,4062.79 C2760.41,4061.88 2760.88,4060.57 2760.88,4058.87 C2760.88,4057.22 2760.37,4055.95 2759.35,4055.07 C2758.34,4054.18 2756.87,4053.72 2754.95,4053.69 L2752.25,4053.69 L2752.25,4050.74 "/>
<polyline class="Bracket" fill="none" stroke="#000000" stroke-width="12.50" stroke-linejoin="bevel" points="232.598,452.082 232.598,839.606"/>
<path class="Bracket" d="M227.847,458.332 C230.144,458.238 232.551,458.332 234.847,458.332 L237.254,458.332 C255.847,458.332 269.551,448.832 275.847,432.223 C276.644,430.129 277.144,428.035 277.144,425.926 C277.144,424.832 277.051,423.723 276.754,422.629 C276.551,421.629 276.254,421.332 275.754,421.332 C275.457,421.332 274.957,421.535 274.457,421.832 C273.754,422.223 273.457,423.035 273.144,423.723 C272.347,425.926 271.644,428.129 270.457,430.129 C265.254,438.832 258.144,444.926 247.847,446.926 C244.254,447.629 240.644,447.832 237.051,447.832 C234.441,447.832 231.754,447.629 229.051,447.629 C227.551,447.629 226.644,448.238 226.441,450.035 C226.347,450.832 226.347,451.629 226.347,452.535 C226.347,453.926 226.441,455.535 226.347,456.926 C226.347,458.035 226.847,458.332 227.847,458.332"/>
<path class="Bracket" d="M274.644,872.653 C275.847,872.653 275.551,871.465 275.754,870.762 C275.847,870.356 275.957,869.965 275.957,869.559 C275.957,869.262 275.847,868.965 275.847,868.653 C275.347,864.262 274.144,860.059 272.254,856.059 C268.254,847.45 261.957,840.95 253.551,836.262 C249.347,833.856 244.847,833.356 240.644,833.356 C239.551,833.356 238.441,833.45 237.441,833.45 C233.754,833.45 230.941,833.559 228.144,833.45 C227.144,833.45 226.347,833.653 226.347,834.653 L226.347,834.95 C226.441,835.559 226.551,836.262 226.551,836.856 C226.551,837.653 226.441,838.45 226.441,839.356 C226.441,840.059 226.441,840.856 226.644,841.559 C227.051,843.45 227.941,844.059 229.441,843.856 C232.551,843.356 235.754,843.45 238.847,843.262 C253.551,842.762 262.644,849.762 269.457,862.465 C270.847,865.059 271.847,867.856 272.347,870.762 C272.644,872.059 273.551,872.653 274.644,872.653"/>
<polyline class="Bracket" fill="none" stroke="#000000" stroke-width="3.25" stroke-linecap="square" stroke-linejoin="bevel" points="214.347,464.583 214.347,827.105"/>
<polyline class="Bracket" fill="none" stroke="#000000" stroke-width="3.25" stroke-linecap="square" stroke-linejoin="bevel" points="214.347,464.583 230.098,464.583"/>
<polyline class="Bracket" fill="none" stroke="#000000" stroke-width="3.25" stroke-linecap="square" stroke-linejoin="bevel" points="214.347,827.105 230.098,827.105"/>
</svg>
