<?xml version="1.0" encoding="UTF-8" standalone="no"?>
<svg width="3060px" height="3960px" viewBox="0 0 3060 3960"
 xmlns="http://www.w3.org/2000/svg" xmlns:xlink="http://www.w3.org/1999/xlink" version="1.2" baseProfile="tiny">
<title>Trombón 1 (2)</title>
<desc>Generated by MuseScore Studio 4.3.1</desc>
<path class="" fill="#ffffff" fill-rule="evenodd" d="M0,0 L3060,0 L3060,3960 L0,3960 L0,0 "/>
<polyline class="StaffLines" fill="none" stroke="#000000" stroke-width="3.22" stroke-linejoin="bevel" points="212.598,426.203 2847.4,426.203"/>
<polyline class="StaffLines" fill="none" stroke="#000000" stroke-width="3.22" stroke-linejoin="bevel" points="212.598,451.003 2847.4,451.003"/>
<polyline class="StaffLines" fill="none" stroke="#000000" stroke-width="3.22" stroke-linejoin="bevel" points="212.598,475.803 2847.4,475.803"/>
<polyline class="StaffLines" fill="none" stroke="#000000" stroke-width="3.22" stroke-linejoin="bevel" points="212.598,500.603 2847.4,500.603"/>
<polyline class="StaffLines" fill="none" stroke="#000000" stroke-width="3.22" stroke-linejoin="bevel" points="212.598,525.403 2847.4,525.403"/>
<polyline class="StaffLines" fill="none" stroke="#000000" stroke-width="3.22" stroke-linejoin="bevel" points="212.598,1033.8 2847.4,1033.8"/>
<polyline class="StaffLines" fill="none" stroke="#000000" stroke-width="3.22" stroke-linejoin="bevel" points="212.598,1058.6 2847.4,1058.6"/>
<polyline class="StaffLines" fill="none" stroke="#000000" stroke-width="3.22" stroke-linejoin="bevel" points="212.598,1083.4 2847.4,1083.4"/>
<polyline class="StaffLines" fill="none" stroke="#000000" stroke-width="3.22" stroke-linejoin="bevel" points="212.598,1108.2 2847.4,1108.2"/>
<polyline class="StaffLines" fill="none" stroke="#000000" stroke-width="3.22" stroke-linejoin="bevel" points="212.598,1133 2847.4,1133"/>
<path class="MeasureNumber" d="M219.52,375.962 C221.729,375.962 223.627,375.215 225.216,373.72 C226.804,372.225 227.791,370.202 228.176,367.65 L229.005,362.056 C228.088,363.41 226.911,364.454 225.473,365.189 C224.036,365.923 222.479,366.29 220.801,366.29 C218.437,366.29 216.583,365.415 215.239,363.665 C213.895,361.915 213.411,359.795 213.786,357.306 C214.203,354.514 215.338,352.225 217.192,350.439 C219.046,348.652 221.229,347.759 223.739,347.759 C226.208,347.759 228.132,348.631 229.512,350.376 C230.893,352.121 231.338,354.592 230.848,357.79 L229.395,367.618 C228.926,370.65 227.794,372.972 225.997,374.587 C224.2,376.202 221.989,377.009 219.364,377.009 C218.468,377.009 217.551,376.902 216.614,376.689 C215.676,376.475 214.744,376.17 213.817,375.775 L214.286,374.806 C215.088,375.222 215.887,375.519 216.684,375.696 C217.481,375.873 218.426,375.962 219.52,375.962 M220.958,365.259 C222.812,365.259 224.481,364.728 225.966,363.665 C227.45,362.603 228.572,361.327 229.333,359.837 L229.645,357.806 C230.104,354.816 229.768,352.569 228.637,351.064 C227.507,349.558 225.843,348.806 223.645,348.806 C221.551,348.806 219.671,349.655 218.005,351.353 C216.338,353.051 215.333,355.035 214.989,357.306 C214.645,359.587 215.002,361.483 216.059,362.993 C217.117,364.504 218.749,365.259 220.958,365.259 M243.067,376.603 L242.02,376.603 L246.192,348.775 L238.77,350.29 L238.911,349.4 L247.411,347.759 L243.067,376.603 "/>
<path class="MeasureNumber" d="M219.52,983.563 C221.729,983.563 223.627,982.815 225.216,981.321 C226.804,979.826 227.791,977.802 228.176,975.25 L229.005,969.657 C228.088,971.011 226.911,972.055 225.473,972.789 C224.036,973.524 222.479,973.891 220.801,973.891 C218.437,973.891 216.583,973.016 215.239,971.266 C213.895,969.516 213.411,967.396 213.786,964.907 C214.203,962.115 215.338,959.826 217.192,958.039 C219.046,956.253 221.229,955.36 223.739,955.36 C226.208,955.36 228.132,956.232 229.512,957.977 C230.893,959.722 231.338,962.193 230.848,965.391 L229.395,975.219 C228.926,978.25 227.794,980.573 225.997,982.188 C224.2,983.802 221.989,984.61 219.364,984.61 C218.468,984.61 217.551,984.503 216.614,984.289 C215.676,984.076 214.744,983.771 213.817,983.375 L214.286,982.407 C215.088,982.823 215.887,983.12 216.684,983.297 C217.481,983.474 218.426,983.563 219.52,983.563 M220.958,972.86 C222.812,972.86 224.481,972.328 225.966,971.266 C227.45,970.203 228.572,968.927 229.333,967.438 L229.645,965.407 C230.104,962.417 229.768,960.17 228.637,958.664 C227.507,957.159 225.843,956.407 223.645,956.407 C221.551,956.407 219.671,957.255 218.005,958.953 C216.338,960.651 215.333,962.636 214.989,964.907 C214.645,967.188 215.002,969.084 216.059,970.594 C217.117,972.104 218.749,972.86 220.958,972.86 M236.817,971.266 L240.661,955.766 L254.145,955.766 L253.989,956.797 L241.473,956.797 L238.473,968.875 C239.4,968.052 240.385,967.433 241.426,967.016 C242.468,966.599 243.932,966.365 245.817,966.313 C248.098,966.25 249.854,967.026 251.083,968.641 C252.312,970.255 252.729,972.422 252.333,975.141 C251.874,978.151 250.843,980.482 249.239,982.133 C247.635,983.784 245.39,984.61 242.505,984.61 C240.275,984.61 238.479,983.948 237.114,982.625 C235.749,981.302 235.286,979.365 235.723,976.813 L235.77,976.719 L236.708,976.719 C236.354,979.052 236.713,980.776 237.786,981.891 C238.859,983.005 240.484,983.563 242.661,983.563 C245.098,983.563 247.033,982.854 248.466,981.438 C249.898,980.021 250.822,977.933 251.239,975.172 C251.614,972.693 251.32,970.784 250.356,969.446 C249.393,968.107 247.838,967.438 245.692,967.438 C243.682,967.438 242.002,967.789 240.653,968.492 C239.304,969.196 238.281,970.224 237.583,971.578 L236.817,971.266 "/>
<path class="TieSegment" stroke="#000000" stroke-width="2.48" stroke-linecap="round" stroke-linejoin="round" fill-rule="evenodd" d="M2126.76,404.972 C2134.87,389.99 2159.21,389.99 2167.33,404.972 C2159.21,393.206 2134.87,393.206 2126.76,404.972"/>
<path class="TieSegment" stroke="#000000" stroke-width="2.48" stroke-linecap="round" stroke-linejoin="round" fill-rule="evenodd" d="M1537.38,355.371 C1548.23,337.903 1580.75,337.903 1591.59,355.371 C1580.75,341.756 1548.23,341.756 1537.38,355.371"/>
<path class="TieSegment" stroke="#000000" stroke-width="2.48" stroke-linecap="round" stroke-linejoin="round" fill-rule="evenodd" d="M939.731,404.972 C947.846,389.99 972.188,389.99 980.303,404.972 C972.188,393.206 947.846,393.206 939.731,404.972"/>
<path class="TieSegment" stroke="#000000" stroke-width="2.48" stroke-linecap="round" stroke-linejoin="round" fill-rule="evenodd" d="M1339.31,1012.57 C1358.83,989.443 1417.41,989.443 1436.94,1012.57 C1417.41,995.322 1358.83,995.322 1339.31,1012.57"/>
<path class="TieSegment" stroke="#000000" stroke-width="2.48" stroke-linecap="round" stroke-linejoin="round" fill-rule="evenodd" d="M2032.25,938.172 C2051.78,915.043 2110.36,915.043 2129.88,938.172 C2110.36,920.922 2051.78,920.922 2032.25,938.172"/>
<polyline class="BarLine" fill="none" stroke="#000000" stroke-width="3.97" stroke-linejoin="bevel" points="1716.79,424.591 1716.79,527.015"/>
<polyline class="BarLine" fill="none" stroke="#000000" stroke-width="12.40" stroke-linejoin="bevel" points="493.513,424.591 493.513,527.015"/>
<polyline class="BarLine" fill="none" stroke="#000000" stroke-width="3.97" stroke-linejoin="bevel" points="511.617,424.591 511.617,527.015"/>
<path class="BarLine" transform="matrix(0.992001,0,0,0.992001,517.569,463.403)" d="M3.70313,8.20313 C5.59375,7.59375 7.70313,7.40625 9.70313,6.79688 C12.2031,6 14.2969,1.70313 14.2969,-1.59375 C14.2969,-2.59375 14.0938,-3.5 13.7031,-4.20313 C12.7969,-5.59375 12.0938,-7.59375 10.2969,-7.59375 C9.90625,-7.59375 9.40625,-7.5 8.90625,-7.29688 C8.59375,-7.29688 8.29688,-7.40625 7.90625,-7.40625 C6.20313,-7.40625 4.70313,-6.79688 3.09375,-6.59375 C1.29688,-6.40625 0.796875,-5.5 0.296875,-4 C0.09375,-3.09375 0,-2.29688 0,-1.40625 C0,1.20313 0.796875,3.70313 0.90625,6.40625 C0.90625,7.40625 1.70313,8.29688 3,8.29688 C3.20313,8.29688 3.40625,8.29688 3.70313,8.20313"/>
<path class="BarLine" transform="matrix(0.992001,0,0,0.992001,517.569,488.203)" d="M3.70313,8.20313 C5.59375,7.59375 7.70313,7.40625 9.70313,6.79688 C12.2031,6 14.2969,1.70313 14.2969,-1.59375 C14.2969,-2.59375 14.0938,-3.5 13.7031,-4.20313 C12.7969,-5.59375 12.0938,-7.59375 10.2969,-7.59375 C9.90625,-7.59375 9.40625,-7.5 8.90625,-7.29688 C8.59375,-7.29688 8.29688,-7.40625 7.90625,-7.40625 C6.20313,-7.40625 4.70313,-6.79688 3.09375,-6.59375 C1.29688,-6.40625 0.796875,-5.5 0.296875,-4 C0.09375,-3.09375 0,-2.29688 0,-1.40625 C0,1.20313 0.796875,3.70313 0.90625,6.40625 C0.90625,7.40625 1.70313,8.29688 3,8.29688 C3.20313,8.29688 3.40625,8.29688 3.70313,8.20313"/>
<path class="BarLine" transform="matrix(0.992001,0,0,0.992001,2802.96,463.403)" d="M3.70313,8.20313 C5.59375,7.59375 7.70313,7.40625 9.70313,6.79688 C12.2031,6 14.2969,1.70313 14.2969,-1.59375 C14.2969,-2.59375 14.0938,-3.5 13.7031,-4.20313 C12.7969,-5.59375 12.0938,-7.59375 10.2969,-7.59375 C9.90625,-7.59375 9.40625,-7.5 8.90625,-7.29688 C8.59375,-7.29688 8.29688,-7.40625 7.90625,-7.40625 C6.20313,-7.40625 4.70313,-6.79688 3.09375,-6.59375 C1.29688,-6.40625 0.796875,-5.5 0.296875,-4 C0.09375,-3.09375 0,-2.29688 0,-1.40625 C0,1.20313 0.796875,3.70313 0.90625,6.40625 C0.90625,7.40625 1.70313,8.29688 3,8.29688 C3.20313,8.29688 3.40625,8.29688 3.70313,8.20313"/>
<path class="BarLine" transform="matrix(0.992001,0,0,0.992001,2802.96,488.203)" d="M3.70313,8.20313 C5.59375,7.59375 7.70313,7.40625 9.70313,6.79688 C12.2031,6 14.2969,1.70313 14.2969,-1.59375 C14.2969,-2.59375 14.0938,-3.5 13.7031,-4.20313 C12.7969,-5.59375 12.0938,-7.59375 10.2969,-7.59375 C9.90625,-7.59375 9.40625,-7.5 8.90625,-7.29688 C8.59375,-7.29688 8.29688,-7.40625 7.90625,-7.40625 C6.20313,-7.40625 4.70313,-6.79688 3.09375,-6.59375 C1.29688,-6.40625 0.796875,-5.5 0.296875,-4 C0.09375,-3.09375 0,-2.29688 0,-1.40625 C0,1.20313 0.796875,3.70313 0.90625,6.40625 C0.90625,7.40625 1.70313,8.29688 3,8.29688 C3.20313,8.29688 3.40625,8.29688 3.70313,8.20313"/>
<polyline class="BarLine" fill="none" stroke="#000000" stroke-width="3.97" stroke-linejoin="bevel" points="2823.1,424.591 2823.1,527.015"/>
<polyline class="BarLine" fill="none" stroke="#000000" stroke-width="12.40" stroke-linejoin="bevel" points="2841.2,424.591 2841.2,527.015"/>
<polyline class="BarLine" fill="none" stroke="#000000" stroke-width="3.97" stroke-linejoin="bevel" points="1722.5,1032.19 1722.5,1134.62"/>
<polyline class="BarLine" fill="none" stroke="#000000" stroke-width="3.97" stroke-linejoin="bevel" points="2293.27,424.591 2293.27,527.015"/>
<polyline class="BarLine" fill="none" stroke="#000000" stroke-width="3.97" stroke-linejoin="bevel" points="1106.25,424.591 1106.25,527.015"/>
<polyline class="BarLine" fill="none" stroke="#000000" stroke-width="3.97" stroke-linejoin="bevel" points="2823.1,1032.19 2823.1,1134.62"/>
<polyline class="BarLine" fill="none" stroke="#000000" stroke-width="12.40" stroke-linejoin="bevel" points="2841.2,1032.19 2841.2,1134.62"/>
<path class="Accidental" transform="matrix(0.992001,0,0,0.992001,1975.91,959.403)" d="M17.7031,45.6094 C18.7969,45.6094 19.0938,44.2031 19.5,43.2969 C19.5938,42.7031 19.7969,42.2031 19.7969,41.6094 C20,34.7031 20.0938,27.7969 20.2969,20.7969 C20.2969,17.5938 20.0938,14.4063 20.0938,11.2031 C20.2969,4.5 20.5938,-2.20313 20.7969,-8.90625 C20.7969,-8.90625 21,-10.4063 21.0938,-11.7031 L21.0938,-12 L21.2031,-13.2031 L21.2031,-13.7969 L21.2969,-15.5938 C21.2969,-15.9063 21.5,-17.0938 21.0938,-18 C20.5938,-19 21,-21.2031 18.9063,-20.7031 C14.2031,-19.4063 9.29688,-18.9063 4.40625,-18.5 C4.70313,-24.2031 5,-30 5,-35.7031 C5,-37.6094 5,-39.4063 4.90625,-41.2969 C4.90625,-43 4.59375,-44.6094 3.90625,-46.2031 C0.59375,-45.2031 1.20313,-42.2031 1.20313,-40.2031 C1.29688,-30.1094 0.5,-20.0938 0.203125,-10 C0.09375,-6.5 0,-3 0,0.5 C0,3.5 0.09375,6.40625 0.203125,9.29688 C0.203125,11.2969 0.5,13.2969 0.5,15.2031 C0.5,16.9063 1.20313,17.4063 2.40625,17.4063 C2.70313,17.4063 3,17.4063 3.40625,17.2969 L15.5,15.5 L16,15.4063 L16,24.9063 C16,28.5 15.5,32.2031 15.5,35.7969 C15.5,38.2031 15.7031,40.6094 16.4063,43 C16.7031,44 16.4063,45.6094 17.7031,45.6094 M4,4.40625 C3.90625,1 3.70313,-2.29688 3.79688,-5.59375 L3.90625,-6.90625 C4.5,-6.90625 5.20313,-6.79688 5.90625,-6.90625 C9.29688,-7.20313 12.7031,-7.40625 16.0938,-7.5 L16.7031,-7.59375 L16.4063,-4.59375 C16.2969,-2 16.0938,0.703125 16.0938,3.29688 C12.0938,4.40625 8,5.09375 4,5.59375 L4,4.40625 "/>
<path class="Accidental" transform="matrix(0.992001,0,0,0.992001,2437.02,438.603)" d="M17.7031,45.6094 C18.7969,45.6094 19.0938,44.2031 19.5,43.2969 C19.5938,42.7031 19.7969,42.2031 19.7969,41.6094 C20,34.7031 20.0938,27.7969 20.2969,20.7969 C20.2969,17.5938 20.0938,14.4063 20.0938,11.2031 C20.2969,4.5 20.5938,-2.20313 20.7969,-8.90625 C20.7969,-8.90625 21,-10.4063 21.0938,-11.7031 L21.0938,-12 L21.2031,-13.2031 L21.2031,-13.7969 L21.2969,-15.5938 C21.2969,-15.9063 21.5,-17.0938 21.0938,-18 C20.5938,-19 21,-21.2031 18.9063,-20.7031 C14.2031,-19.4063 9.29688,-18.9063 4.40625,-18.5 C4.70313,-24.2031 5,-30 5,-35.7031 C5,-37.6094 5,-39.4063 4.90625,-41.2969 C4.90625,-43 4.59375,-44.6094 3.90625,-46.2031 C0.59375,-45.2031 1.20313,-42.2031 1.20313,-40.2031 C1.29688,-30.1094 0.5,-20.0938 0.203125,-10 C0.09375,-6.5 0,-3 0,0.5 C0,3.5 0.09375,6.40625 0.203125,9.29688 C0.203125,11.2969 0.5,13.2969 0.5,15.2031 C0.5,16.9063 1.20313,17.4063 2.40625,17.4063 C2.70313,17.4063 3,17.4063 3.40625,17.2969 L15.5,15.5 L16,15.4063 L16,24.9063 C16,28.5 15.5,32.2031 15.5,35.7969 C15.5,38.2031 15.7031,40.6094 16.4063,43 C16.7031,44 16.4063,45.6094 17.7031,45.6094 M4,4.40625 C3.90625,1 3.70313,-2.29688 3.79688,-5.59375 L3.90625,-6.90625 C4.5,-6.90625 5.20313,-6.79688 5.90625,-6.90625 C9.29688,-7.20313 12.7031,-7.40625 16.0938,-7.5 L16.7031,-7.59375 L16.4063,-4.59375 C16.2969,-2 16.0938,0.703125 16.0938,3.29688 C12.0938,4.40625 8,5.09375 4,5.59375 L4,4.40625 "/>
<path class="Accidental" transform="matrix(0.992001,0,0,0.992001,1124.35,351.803)" d="M17.7031,45.6094 C18.7969,45.6094 19.0938,44.2031 19.5,43.2969 C19.5938,42.7031 19.7969,42.2031 19.7969,41.6094 C20,34.7031 20.0938,27.7969 20.2969,20.7969 C20.2969,17.5938 20.0938,14.4063 20.0938,11.2031 C20.2969,4.5 20.5938,-2.20313 20.7969,-8.90625 C20.7969,-8.90625 21,-10.4063 21.0938,-11.7031 L21.0938,-12 L21.2031,-13.2031 L21.2031,-13.7969 L21.2969,-15.5938 C21.2969,-15.9063 21.5,-17.0938 21.0938,-18 C20.5938,-19 21,-21.2031 18.9063,-20.7031 C14.2031,-19.4063 9.29688,-18.9063 4.40625,-18.5 C4.70313,-24.2031 5,-30 5,-35.7031 C5,-37.6094 5,-39.4063 4.90625,-41.2969 C4.90625,-43 4.59375,-44.6094 3.90625,-46.2031 C0.59375,-45.2031 1.20313,-42.2031 1.20313,-40.2031 C1.29688,-30.1094 0.5,-20.0938 0.203125,-10 C0.09375,-6.5 0,-3 0,0.5 C0,3.5 0.09375,6.40625 0.203125,9.29688 C0.203125,11.2969 0.5,13.2969 0.5,15.2031 C0.5,16.9063 1.20313,17.4063 2.40625,17.4063 C2.70313,17.4063 3,17.4063 3.40625,17.2969 L15.5,15.5 L16,15.4063 L16,24.9063 C16,28.5 15.5,32.2031 15.5,35.7969 C15.5,38.2031 15.7031,40.6094 16.4063,43 C16.7031,44 16.4063,45.6094 17.7031,45.6094 M4,4.40625 C3.90625,1 3.70313,-2.29688 3.79688,-5.59375 L3.90625,-6.90625 C4.5,-6.90625 5.20313,-6.79688 5.90625,-6.90625 C9.29688,-7.20313 12.7031,-7.40625 16.0938,-7.5 L16.7031,-7.59375 L16.4063,-4.59375 C16.2969,-2 16.0938,0.703125 16.0938,3.29688 C12.0938,4.40625 8,5.09375 4,5.59375 L4,4.40625 "/>
<polyline class="LedgerLine" fill="none" stroke="#000000" stroke-width="3.97" stroke-linejoin="bevel" points="1354.86,376.603 1407.84,376.603"/>
<polyline class="LedgerLine" fill="none" stroke="#000000" stroke-width="3.97" stroke-linejoin="bevel" points="2011.95,376.603 2064.92,376.603"/>
<polyline class="LedgerLine" fill="none" stroke="#000000" stroke-width="3.97" stroke-linejoin="bevel" points="1422.58,401.403 1475.55,401.403"/>
<polyline class="LedgerLine" fill="none" stroke="#000000" stroke-width="3.97" stroke-linejoin="bevel" points="1422.58,376.603 1475.55,376.603"/>
<polyline class="LedgerLine" fill="none" stroke="#000000" stroke-width="3.97" stroke-linejoin="bevel" points="554.072,401.403 607.043,401.403"/>
<polyline class="LedgerLine" fill="none" stroke="#000000" stroke-width="3.97" stroke-linejoin="bevel" points="1508.42,401.403 1561.39,401.403"/>
<polyline class="LedgerLine" fill="none" stroke="#000000" stroke-width="3.97" stroke-linejoin="bevel" points="1508.42,376.603 1561.39,376.603"/>
<polyline class="LedgerLine" fill="none" stroke="#000000" stroke-width="3.97" stroke-linejoin="bevel" points="1876.53,401.403 1929.5,401.403"/>
<polyline class="LedgerLine" fill="none" stroke="#000000" stroke-width="3.97" stroke-linejoin="bevel" points="1567.59,401.403 1620.56,401.403"/>
<polyline class="LedgerLine" fill="none" stroke="#000000" stroke-width="3.97" stroke-linejoin="bevel" points="621.785,401.403 674.757,401.403"/>
<polyline class="LedgerLine" fill="none" stroke="#000000" stroke-width="3.97" stroke-linejoin="bevel" points="1567.59,376.603 1620.56,376.603"/>
<polyline class="LedgerLine" fill="none" stroke="#000000" stroke-width="3.97" stroke-linejoin="bevel" points="757.213,401.403 810.184,401.403"/>
<polyline class="LedgerLine" fill="none" stroke="#000000" stroke-width="3.97" stroke-linejoin="bevel" points="1741.1,401.403 1794.07,401.403"/>
<polyline class="LedgerLine" fill="none" stroke="#000000" stroke-width="3.97" stroke-linejoin="bevel" points="689.499,401.403 742.47,401.403"/>
<polyline class="LedgerLine" fill="none" stroke="#000000" stroke-width="3.97" stroke-linejoin="bevel" points="1808.81,401.403 1861.78,401.403"/>
<polyline class="LedgerLine" fill="none" stroke="#000000" stroke-width="3.97" stroke-linejoin="bevel" points="499.713,1009 552.684,1009"/>
<polyline class="LedgerLine" fill="none" stroke="#000000" stroke-width="3.97" stroke-linejoin="bevel" points="653.6,1009 706.571,1009"/>
<polyline class="LedgerLine" fill="none" stroke="#000000" stroke-width="3.97" stroke-linejoin="bevel" points="807.487,1009 860.458,1009"/>
<polyline class="LedgerLine" fill="none" stroke="#000000" stroke-width="3.97" stroke-linejoin="bevel" points="961.374,1009 1014.35,1009"/>
<polyline class="LedgerLine" fill="none" stroke="#000000" stroke-width="3.97" stroke-linejoin="bevel" points="1115.26,1009 1168.23,1009"/>
<polyline class="LedgerLine" fill="none" stroke="#000000" stroke-width="3.97" stroke-linejoin="bevel" points="824.927,401.403 877.898,401.403"/>
<polyline class="LedgerLine" fill="none" stroke="#000000" stroke-width="3.97" stroke-linejoin="bevel" points="824.927,376.603 877.898,376.603"/>
<polyline class="LedgerLine" fill="none" stroke="#000000" stroke-width="3.97" stroke-linejoin="bevel" points="1115.26,984.203 1168.23,984.203"/>
<polyline class="LedgerLine" fill="none" stroke="#000000" stroke-width="3.97" stroke-linejoin="bevel" points="1608.01,1009 1660.98,1009"/>
<polyline class="LedgerLine" fill="none" stroke="#000000" stroke-width="3.97" stroke-linejoin="bevel" points="1608.01,984.203 1660.98,984.203"/>
<polyline class="LedgerLine" fill="none" stroke="#000000" stroke-width="3.97" stroke-linejoin="bevel" points="1944.24,401.403 1997.21,401.403"/>
<polyline class="LedgerLine" fill="none" stroke="#000000" stroke-width="3.97" stroke-linejoin="bevel" points="1746.81,1009 1799.78,1009"/>
<polyline class="LedgerLine" fill="none" stroke="#000000" stroke-width="3.97" stroke-linejoin="bevel" points="1746.81,984.203 1799.78,984.203"/>
<polyline class="LedgerLine" fill="none" stroke="#000000" stroke-width="3.97" stroke-linejoin="bevel" points="1746.81,959.403 1799.78,959.403"/>
<polyline class="LedgerLine" fill="none" stroke="#000000" stroke-width="3.97" stroke-linejoin="bevel" points="1900.7,1009 1953.67,1009"/>
<polyline class="LedgerLine" fill="none" stroke="#000000" stroke-width="3.97" stroke-linejoin="bevel" points="1900.7,984.203 1953.67,984.203"/>
<polyline class="LedgerLine" fill="none" stroke="#000000" stroke-width="3.97" stroke-linejoin="bevel" points="2003.29,1009 2056.26,1009"/>
<polyline class="LedgerLine" fill="none" stroke="#000000" stroke-width="3.97" stroke-linejoin="bevel" points="2003.29,984.203 2056.26,984.203"/>
<polyline class="LedgerLine" fill="none" stroke="#000000" stroke-width="3.97" stroke-linejoin="bevel" points="2003.29,959.403 2056.26,959.403"/>
<polyline class="LedgerLine" fill="none" stroke="#000000" stroke-width="3.97" stroke-linejoin="bevel" points="2105.88,1009 2158.85,1009"/>
<polyline class="LedgerLine" fill="none" stroke="#000000" stroke-width="3.97" stroke-linejoin="bevel" points="2105.88,984.203 2158.85,984.203"/>
<polyline class="LedgerLine" fill="none" stroke="#000000" stroke-width="3.97" stroke-linejoin="bevel" points="1151.72,401.403 1204.69,401.403"/>
<polyline class="LedgerLine" fill="none" stroke="#000000" stroke-width="3.97" stroke-linejoin="bevel" points="1151.72,376.603 1204.69,376.603"/>
<polyline class="LedgerLine" fill="none" stroke="#000000" stroke-width="3.97" stroke-linejoin="bevel" points="1151.72,351.803 1204.69,351.803"/>
<polyline class="LedgerLine" fill="none" stroke="#000000" stroke-width="3.97" stroke-linejoin="bevel" points="2105.88,959.403 2158.85,959.403"/>
<polyline class="LedgerLine" fill="none" stroke="#000000" stroke-width="3.97" stroke-linejoin="bevel" points="2208.47,1009 2261.44,1009"/>
<polyline class="LedgerLine" fill="none" stroke="#000000" stroke-width="3.97" stroke-linejoin="bevel" points="2208.47,984.203 2261.44,984.203"/>
<polyline class="LedgerLine" fill="none" stroke="#000000" stroke-width="3.97" stroke-linejoin="bevel" points="2311.06,1009 2364.03,1009"/>
<polyline class="LedgerLine" fill="none" stroke="#000000" stroke-width="3.97" stroke-linejoin="bevel" points="1219.44,401.403 1272.41,401.403"/>
<polyline class="LedgerLine" fill="none" stroke="#000000" stroke-width="3.97" stroke-linejoin="bevel" points="1219.44,376.603 1272.41,376.603"/>
<polyline class="LedgerLine" fill="none" stroke="#000000" stroke-width="3.97" stroke-linejoin="bevel" points="1219.44,351.803 1272.41,351.803"/>
<polyline class="LedgerLine" fill="none" stroke="#000000" stroke-width="3.97" stroke-linejoin="bevel" points="2311.06,984.203 2364.03,984.203"/>
<polyline class="LedgerLine" fill="none" stroke="#000000" stroke-width="3.97" stroke-linejoin="bevel" points="2311.06,959.403 2364.03,959.403"/>
<polyline class="LedgerLine" fill="none" stroke="#000000" stroke-width="3.97" stroke-linejoin="bevel" points="1287.15,401.403 1340.12,401.403"/>
<polyline class="LedgerLine" fill="none" stroke="#000000" stroke-width="3.97" stroke-linejoin="bevel" points="1287.15,376.603 1340.12,376.603"/>
<polyline class="LedgerLine" fill="none" stroke="#000000" stroke-width="3.97" stroke-linejoin="bevel" points="2011.95,401.403 2064.92,401.403"/>
<polyline class="LedgerLine" fill="none" stroke="#000000" stroke-width="3.97" stroke-linejoin="bevel" points="1354.86,401.403 1407.84,401.403"/>
<polyline class="Stem" fill="none" stroke="#000000" stroke-width="2.98" stroke-linejoin="bevel" points="1126.67,990.056 1126.67,1083.59"/>
<polyline class="Stem" fill="none" stroke="#000000" stroke-width="2.98" stroke-linejoin="bevel" points="2014.7,965.256 2014.7,1077.2"/>
<polyline class="Stem" fill="none" stroke="#000000" stroke-width="2.98" stroke-linejoin="bevel" points="1887.93,407.255 1887.93,475.803"/>
<polyline class="Stem" fill="none" stroke="#000000" stroke-width="2.98" stroke-linejoin="bevel" points="565.48,407.255 565.48,475.803"/>
<polyline class="Stem" fill="none" stroke="#000000" stroke-width="2.98" stroke-linejoin="bevel" points="2109.2,432.056 2109.2,500.499"/>
<polyline class="Stem" fill="none" stroke="#000000" stroke-width="2.98" stroke-linejoin="bevel" points="2465.88,444.456 2465.88,523.336"/>
<polyline class="Stem" fill="none" stroke="#000000" stroke-width="2.98" stroke-linejoin="bevel" points="633.193,407.255 633.193,475.803"/>
<polyline class="Stem" fill="none" stroke="#000000" stroke-width="2.98" stroke-linejoin="bevel" points="1163.13,357.655 1163.13,469.648"/>
<polyline class="Stem" fill="none" stroke="#000000" stroke-width="2.98" stroke-linejoin="bevel" points="972.782,1002.46 972.782,1083.4"/>
<polyline class="Stem" fill="none" stroke="#000000" stroke-width="2.98" stroke-linejoin="bevel" points="700.907,407.255 700.907,475.803"/>
<polyline class="Stem" fill="none" stroke="#000000" stroke-width="2.98" stroke-linejoin="bevel" points="818.895,1014.86 818.895,1083.4"/>
<polyline class="Stem" fill="none" stroke="#000000" stroke-width="2.98" stroke-linejoin="bevel" points="2023.36,382.455 2023.36,494.507"/>
<polyline class="Stem" fill="none" stroke="#000000" stroke-width="2.98" stroke-linejoin="bevel" points="768.621,394.855 768.621,475.803"/>
<polyline class="Stem" fill="none" stroke="#000000" stroke-width="2.98" stroke-linejoin="bevel" points="1230.85,357.655 1230.85,471.684"/>
<polyline class="Stem" fill="none" stroke="#000000" stroke-width="2.98" stroke-linejoin="bevel" points="1955.65,394.855 1955.65,475.803"/>
<polyline class="Stem" fill="none" stroke="#000000" stroke-width="2.98" stroke-linejoin="bevel" points="836.335,382.455 836.335,494.507"/>
<polyline class="Stem" fill="none" stroke="#000000" stroke-width="2.98" stroke-linejoin="bevel" points="2222.45,432.056 2222.45,500.603"/>
<polyline class="Stem" fill="none" stroke="#000000" stroke-width="2.98" stroke-linejoin="bevel" points="2154.73,432.056 2154.73,500.603"/>
<polyline class="Stem" fill="none" stroke="#000000" stroke-width="2.98" stroke-linejoin="bevel" points="2328.98,419.655 2328.98,519.247"/>
<polyline class="Stem" fill="none" stroke="#000000" stroke-width="2.98" stroke-linejoin="bevel" points="922.174,432.056 922.174,500.499"/>
<polyline class="Stem" fill="none" stroke="#000000" stroke-width="2.98" stroke-linejoin="bevel" points="1820.22,407.255 1820.22,475.803"/>
<polyline class="Stem" fill="none" stroke="#000000" stroke-width="2.98" stroke-linejoin="bevel" points="967.705,432.056 967.705,500.603"/>
<polyline class="Stem" fill="none" stroke="#000000" stroke-width="2.98" stroke-linejoin="bevel" points="1752.51,407.255 1752.51,475.803"/>
<polyline class="Stem" fill="none" stroke="#000000" stroke-width="2.98" stroke-linejoin="bevel" points="2396.7,419.655 2396.7,521.27"/>
<polyline class="Stem" fill="none" stroke="#000000" stroke-width="2.98" stroke-linejoin="bevel" points="665.008,1014.86 665.008,1083.4"/>
<polyline class="Stem" fill="none" stroke="#000000" stroke-width="2.98" stroke-linejoin="bevel" points="1035.42,432.056 1035.42,500.603"/>
<polyline class="Stem" fill="none" stroke="#000000" stroke-width="2.98" stroke-linejoin="bevel" points="1321.75,1039.66 1321.75,1108.02"/>
<polyline class="Stem" fill="none" stroke="#000000" stroke-width="2.98" stroke-linejoin="bevel" points="1424.34,1039.66 1424.34,1108.16"/>
<polyline class="Stem" fill="none" stroke="#000000" stroke-width="2.98" stroke-linejoin="bevel" points="1619.42,990.056 1619.42,1102.05"/>
<polyline class="Stem" fill="none" stroke="#000000" stroke-width="2.98" stroke-linejoin="bevel" points="1433.99,382.455 1433.99,469.603"/>
<polyline class="Stem" fill="none" stroke="#000000" stroke-width="2.98" stroke-linejoin="bevel" points="1758.22,952.856 1758.22,1077.2"/>
<polyline class="Stem" fill="none" stroke="#000000" stroke-width="2.98" stroke-linejoin="bevel" points="2533.6,444.456 2533.6,525.358"/>
<polyline class="Stem" fill="none" stroke="#000000" stroke-width="2.98" stroke-linejoin="bevel" points="1912.1,990.056 1912.1,1077.2"/>
<polyline class="Stem" fill="none" stroke="#000000" stroke-width="2.98" stroke-linejoin="bevel" points="2601.31,432.056 2601.31,513.003"/>
<polyline class="Stem" fill="none" stroke="#000000" stroke-width="2.98" stroke-linejoin="bevel" points="1519.83,382.455 1519.83,469.603"/>
<polyline class="Stem" fill="none" stroke="#000000" stroke-width="2.98" stroke-linejoin="bevel" points="1579,382.455 1579,471.438"/>
<polyline class="Stem" fill="none" stroke="#000000" stroke-width="2.98" stroke-linejoin="bevel" points="1366.27,370.055 1366.27,475.758"/>
<polyline class="Stem" fill="none" stroke="#000000" stroke-width="2.98" stroke-linejoin="bevel" points="2117.29,965.256 2117.29,1077.2"/>
<polyline class="Stem" fill="none" stroke="#000000" stroke-width="2.98" stroke-linejoin="bevel" points="2219.88,990.056 2219.88,1077.2"/>
<polyline class="Stem" fill="none" stroke="#000000" stroke-width="2.98" stroke-linejoin="bevel" points="2322.47,952.856 2322.47,1077.2"/>
<polyline class="Stem" fill="none" stroke="#000000" stroke-width="2.98" stroke-linejoin="bevel" points="511.121,1014.86 511.121,1083.4"/>
<polyline class="Stem" fill="none" stroke="#000000" stroke-width="2.98" stroke-linejoin="bevel" points="1298.56,370.055 1298.56,473.721"/>
<path class="Hook" transform="matrix(0.992001,0,0,0.992001,1577.51,475.803)" d="M18.4063,-81.3125 C18,-81.7031 17.7031,-81.9063 17.4063,-81.9063 C17.0938,-81.9063 16.7969,-81.5 16.7031,-80.7031 C16.5938,-79.4063 16.0938,-78.1094 16,-76.8125 C15.9063,-75.9063 15.7969,-75 15.7969,-74.2031 C15.7969,-72.6094 16.2031,-71.1094 17.7969,-69.7969 C19.5938,-68.2969 20.5938,-66 21.5938,-63.7969 C21.9063,-63.2031 22,-62.5 22,-61.7969 C22,-60.5 21.5,-59.1094 21.4063,-57.7031 C20.7031,-50.1094 17.0938,-43.7031 12.2969,-38 C10.4063,-35.7031 8.59375,-33.2031 6.70313,-30.9063 C2,-24.7031 0,-17.7031 0,-10 L0,-4.40625 C0,-2.5 0.40625,-0.90625 2.40625,0 L2.90625,0 C3.59375,-1.70313 4.29688,-3.40625 4.29688,-5.20313 C4.29688,-6.29688 4.09375,-7.20313 4.09375,-8.09375 C4.20313,-12.7031 6.29688,-16.5938 9.09375,-20.2031 C11.5,-23.2031 13.7969,-26.2969 16.2031,-29.2969 C21.5938,-36.1094 24.2969,-43.9063 25.5,-52.4063 C25.9063,-55 26.1094,-57.6094 26.1094,-60.2031 C26.1094,-64.1094 25.6094,-68 24.4063,-71.9063 C23.2969,-75.5 20.9063,-78.5 18.4063,-81.3125"/>
<path class="Note" transform="matrix(0.992001,0,0,0.992001,2220.96,426.203)" d="M7.79688,16.2031 C8.5,16.2969 9.09375,16.4063 9.79688,16.4063 C19.4063,16.4063 33.7031,3.29688 33.4063,-7.20313 C33.1094,-9.79688 33.2031,-13.2969 28,-15.4063 C26.5,-16.0938 24.9063,-16.4063 23.2031,-16.4063 C12.5,-16.4063 0.90625,-4.09375 0.09375,4.09375 C0.09375,4.70313 0,5.29688 0,5.90625 C0,10.9063 2.20313,14.9063 7.79688,16.2031"/>
<path class="Note" transform="matrix(0.992001,0,0,0.992001,817.407,1009)" d="M7.79688,16.2031 C8.5,16.2969 9.09375,16.4063 9.79688,16.4063 C19.4063,16.4063 33.7031,3.29688 33.4063,-7.20313 C33.1094,-9.79688 33.2031,-13.2969 28,-15.4063 C26.5,-16.0938 24.9063,-16.4063 23.2031,-16.4063 C12.5,-16.4063 0.90625,-4.09375 0.09375,4.09375 C0.09375,4.70313 0,5.29688 0,5.90625 C0,10.9063 2.20313,14.9063 7.79688,16.2031"/>
<path class="Note" transform="matrix(0.992001,0,0,0.992001,971.294,996.603)" d="M7.79688,16.2031 C8.5,16.2969 9.09375,16.4063 9.79688,16.4063 C19.4063,16.4063 33.7031,3.29688 33.4063,-7.20313 C33.1094,-9.79688 33.2031,-13.2969 28,-15.4063 C26.5,-16.0938 24.9063,-16.4063 23.2031,-16.4063 C12.5,-16.4063 0.90625,-4.09375 0.09375,4.09375 C0.09375,4.70313 0,5.29688 0,5.90625 C0,10.9063 2.20313,14.9063 7.79688,16.2031"/>
<path class="Note" transform="matrix(0.992001,0,0,0.992001,509.633,1009)" d="M7.79688,16.2031 C8.5,16.2969 9.09375,16.4063 9.79688,16.4063 C19.4063,16.4063 33.7031,3.29688 33.4063,-7.20313 C33.1094,-9.79688 33.2031,-13.2969 28,-15.4063 C26.5,-16.0938 24.9063,-16.4063 23.2031,-16.4063 C12.5,-16.4063 0.90625,-4.09375 0.09375,4.09375 C0.09375,4.70313 0,5.29688 0,5.90625 C0,10.9063 2.20313,14.9063 7.79688,16.2031"/>
<path class="Note" transform="matrix(0.992001,0,0,0.992001,1125.18,984.203)" d="M7.79688,16.2031 C8.5,16.2969 9.09375,16.4063 9.79688,16.4063 C19.4063,16.4063 33.7031,3.29688 33.4063,-7.20313 C33.1094,-9.79688 33.2031,-13.2969 28,-15.4063 C26.5,-16.0938 24.9063,-16.4063 23.2031,-16.4063 C12.5,-16.4063 0.90625,-4.09375 0.09375,4.09375 C0.09375,4.70313 0,5.29688 0,5.90625 C0,10.9063 2.20313,14.9063 7.79688,16.2031"/>
<path class="Note" transform="matrix(0.992001,0,0,0.992001,2107.71,426.203)" d="M7.79688,16.2031 C8.5,16.2969 9.09375,16.4063 9.79688,16.4063 C19.4063,16.4063 33.7031,3.29688 33.4063,-7.20313 C33.1094,-9.79688 33.2031,-13.2969 28,-15.4063 C26.5,-16.0938 24.9063,-16.4063 23.2031,-16.4063 C12.5,-16.4063 0.90625,-4.09375 0.09375,4.09375 C0.09375,4.70313 0,5.29688 0,5.90625 C0,10.9063 2.20313,14.9063 7.79688,16.2031"/>
<path class="Note" transform="matrix(0.992001,0,0,0.992001,2021.87,376.603)" d="M7.79688,16.2031 C8.5,16.2969 9.09375,16.4063 9.79688,16.4063 C19.4063,16.4063 33.7031,3.29688 33.4063,-7.20313 C33.1094,-9.79688 33.2031,-13.2969 28,-15.4063 C26.5,-16.0938 24.9063,-16.4063 23.2031,-16.4063 C12.5,-16.4063 0.90625,-4.09375 0.09375,4.09375 C0.09375,4.70313 0,5.29688 0,5.90625 C0,10.9063 2.20313,14.9063 7.79688,16.2031"/>
<path class="Note" transform="matrix(0.992001,0,0,0.992001,563.992,401.403)" d="M7.79688,16.2031 C8.5,16.2969 9.09375,16.4063 9.79688,16.4063 C19.4063,16.4063 33.7031,3.29688 33.4063,-7.20313 C33.1094,-9.79688 33.2031,-13.2969 28,-15.4063 C26.5,-16.0938 24.9063,-16.4063 23.2031,-16.4063 C12.5,-16.4063 0.90625,-4.09375 0.09375,4.09375 C0.09375,4.70313 0,5.29688 0,5.90625 C0,10.9063 2.20313,14.9063 7.79688,16.2031"/>
<path class="Note" transform="matrix(0.992001,0,0,0.992001,1422.85,1033.8)" d="M7.79688,16.2031 C8.5,16.2969 9.09375,16.4063 9.79688,16.4063 C19.4063,16.4063 33.7031,3.29688 33.4063,-7.20313 C33.1094,-9.79688 33.2031,-13.2969 28,-15.4063 C26.5,-16.0938 24.9063,-16.4063 23.2031,-16.4063 C12.5,-16.4063 0.90625,-4.09375 0.09375,4.09375 C0.09375,4.70313 0,5.29688 0,5.90625 C0,10.9063 2.20313,14.9063 7.79688,16.2031"/>
<path class="Note" transform="matrix(0.992001,0,0,0.992001,631.705,401.403)" d="M7.79688,16.2031 C8.5,16.2969 9.09375,16.4063 9.79688,16.4063 C19.4063,16.4063 33.7031,3.29688 33.4063,-7.20313 C33.1094,-9.79688 33.2031,-13.2969 28,-15.4063 C26.5,-16.0938 24.9063,-16.4063 23.2031,-16.4063 C12.5,-16.4063 0.90625,-4.09375 0.09375,4.09375 C0.09375,4.70313 0,5.29688 0,5.90625 C0,10.9063 2.20313,14.9063 7.79688,16.2031"/>
<path class="Note" transform="matrix(0.992001,0,0,0.992001,1818.73,401.403)" d="M7.79688,16.2031 C8.5,16.2969 9.09375,16.4063 9.79688,16.4063 C19.4063,16.4063 33.7031,3.29688 33.4063,-7.20313 C33.1094,-9.79688 33.2031,-13.2969 28,-15.4063 C26.5,-16.0938 24.9063,-16.4063 23.2031,-16.4063 C12.5,-16.4063 0.90625,-4.09375 0.09375,4.09375 C0.09375,4.70313 0,5.29688 0,5.90625 C0,10.9063 2.20313,14.9063 7.79688,16.2031"/>
<path class="Note" transform="matrix(0.992001,0,0,0.992001,2153.24,426.203)" d="M7.79688,16.2031 C8.5,16.2969 9.09375,16.4063 9.79688,16.4063 C19.4063,16.4063 33.7031,3.29688 33.4063,-7.20313 C33.1094,-9.79688 33.2031,-13.2969 28,-15.4063 C26.5,-16.0938 24.9063,-16.4063 23.2031,-16.4063 C12.5,-16.4063 0.90625,-4.09375 0.09375,4.09375 C0.09375,4.70313 0,5.29688 0,5.90625 C0,10.9063 2.20313,14.9063 7.79688,16.2031"/>
<path class="Note" transform="matrix(0.992001,0,0,0.992001,1617.93,984.203)" d="M7.79688,16.2031 C8.5,16.2969 9.09375,16.4063 9.79688,16.4063 C19.4063,16.4063 33.7031,3.29688 33.4063,-7.20313 C33.1094,-9.79688 33.2031,-13.2969 28,-15.4063 C26.5,-16.0938 24.9063,-16.4063 23.2031,-16.4063 C12.5,-16.4063 0.90625,-4.09375 0.09375,4.09375 C0.09375,4.70313 0,5.29688 0,5.90625 C0,10.9063 2.20313,14.9063 7.79688,16.2031"/>
<path class="Note" transform="matrix(0.992001,0,0,0.992001,1432.5,376.603)" d="M7.79688,16.2031 C8.5,16.2969 9.09375,16.4063 9.79688,16.4063 C19.4063,16.4063 33.7031,3.29688 33.4063,-7.20313 C33.1094,-9.79688 33.2031,-13.2969 28,-15.4063 C26.5,-16.0938 24.9063,-16.4063 23.2031,-16.4063 C12.5,-16.4063 0.90625,-4.09375 0.09375,4.09375 C0.09375,4.70313 0,5.29688 0,5.90625 C0,10.9063 2.20313,14.9063 7.79688,16.2031"/>
<path class="Note" transform="matrix(0.992001,0,0,0.992001,1886.45,401.403)" d="M7.79688,16.2031 C8.5,16.2969 9.09375,16.4063 9.79688,16.4063 C19.4063,16.4063 33.7031,3.29688 33.4063,-7.20313 C33.1094,-9.79688 33.2031,-13.2969 28,-15.4063 C26.5,-16.0938 24.9063,-16.4063 23.2031,-16.4063 C12.5,-16.4063 0.90625,-4.09375 0.09375,4.09375 C0.09375,4.70313 0,5.29688 0,5.90625 C0,10.9063 2.20313,14.9063 7.79688,16.2031"/>
<path class="Note" transform="matrix(0.992001,0,0,0.992001,699.419,401.403)" d="M7.79688,16.2031 C8.5,16.2969 9.09375,16.4063 9.79688,16.4063 C19.4063,16.4063 33.7031,3.29688 33.4063,-7.20313 C33.1094,-9.79688 33.2031,-13.2969 28,-15.4063 C26.5,-16.0938 24.9063,-16.4063 23.2031,-16.4063 C12.5,-16.4063 0.90625,-4.09375 0.09375,4.09375 C0.09375,4.70313 0,5.29688 0,5.90625 C0,10.9063 2.20313,14.9063 7.79688,16.2031"/>
<path class="Note" transform="matrix(0.992001,0,0,0.992001,2464.39,438.603)" d="M7.79688,16.2031 C8.5,16.2969 9.09375,16.4063 9.79688,16.4063 C19.4063,16.4063 33.7031,3.29688 33.4063,-7.20313 C33.1094,-9.79688 33.2031,-13.2969 28,-15.4063 C26.5,-16.0938 24.9063,-16.4063 23.2031,-16.4063 C12.5,-16.4063 0.90625,-4.09375 0.09375,4.09375 C0.09375,4.70313 0,5.29688 0,5.90625 C0,10.9063 2.20313,14.9063 7.79688,16.2031"/>
<path class="Note" transform="matrix(0.992001,0,0,0.992001,1577.51,376.603)" d="M7.79688,16.2031 C8.5,16.2969 9.09375,16.4063 9.79688,16.4063 C19.4063,16.4063 33.7031,3.29688 33.4063,-7.20313 C33.1094,-9.79688 33.2031,-13.2969 28,-15.4063 C26.5,-16.0938 24.9063,-16.4063 23.2031,-16.4063 C12.5,-16.4063 0.90625,-4.09375 0.09375,4.09375 C0.09375,4.70313 0,5.29688 0,5.90625 C0,10.9063 2.20313,14.9063 7.79688,16.2031"/>
<path class="Note" transform="matrix(0.992001,0,0,0.992001,966.217,426.203)" d="M7.79688,16.2031 C8.5,16.2969 9.09375,16.4063 9.79688,16.4063 C19.4063,16.4063 33.7031,3.29688 33.4063,-7.20313 C33.1094,-9.79688 33.2031,-13.2969 28,-15.4063 C26.5,-16.0938 24.9063,-16.4063 23.2031,-16.4063 C12.5,-16.4063 0.90625,-4.09375 0.09375,4.09375 C0.09375,4.70313 0,5.29688 0,5.90625 C0,10.9063 2.20313,14.9063 7.79688,16.2031"/>
<path class="Note" transform="matrix(0.992001,0,0,0.992001,1756.73,947.003)" d="M7.79688,16.2031 C8.5,16.2969 9.09375,16.4063 9.79688,16.4063 C19.4063,16.4063 33.7031,3.29688 33.4063,-7.20313 C33.1094,-9.79688 33.2031,-13.2969 28,-15.4063 C26.5,-16.0938 24.9063,-16.4063 23.2031,-16.4063 C12.5,-16.4063 0.90625,-4.09375 0.09375,4.09375 C0.09375,4.70313 0,5.29688 0,5.90625 C0,10.9063 2.20313,14.9063 7.79688,16.2031"/>
<path class="Note" transform="matrix(0.992001,0,0,0.992001,767.133,389.003)" d="M7.79688,16.2031 C8.5,16.2969 9.09375,16.4063 9.79688,16.4063 C19.4063,16.4063 33.7031,3.29688 33.4063,-7.20313 C33.1094,-9.79688 33.2031,-13.2969 28,-15.4063 C26.5,-16.0938 24.9063,-16.4063 23.2031,-16.4063 C12.5,-16.4063 0.90625,-4.09375 0.09375,4.09375 C0.09375,4.70313 0,5.29688 0,5.90625 C0,10.9063 2.20313,14.9063 7.79688,16.2031"/>
<path class="Note" transform="matrix(0.992001,0,0,0.992001,2532.11,438.603)" d="M7.79688,16.2031 C8.5,16.2969 9.09375,16.4063 9.79688,16.4063 C19.4063,16.4063 33.7031,3.29688 33.4063,-7.20313 C33.1094,-9.79688 33.2031,-13.2969 28,-15.4063 C26.5,-16.0938 24.9063,-16.4063 23.2031,-16.4063 C12.5,-16.4063 0.90625,-4.09375 0.09375,4.09375 C0.09375,4.70313 0,5.29688 0,5.90625 C0,10.9063 2.20313,14.9063 7.79688,16.2031"/>
<path class="Note" transform="matrix(0.992001,0,0,0.992001,834.847,376.603)" d="M7.79688,16.2031 C8.5,16.2969 9.09375,16.4063 9.79688,16.4063 C19.4063,16.4063 33.7031,3.29688 33.4063,-7.20313 C33.1094,-9.79688 33.2031,-13.2969 28,-15.4063 C26.5,-16.0938 24.9063,-16.4063 23.2031,-16.4063 C12.5,-16.4063 0.90625,-4.09375 0.09375,4.09375 C0.09375,4.70313 0,5.29688 0,5.90625 C0,10.9063 2.20313,14.9063 7.79688,16.2031"/>
<path class="Note" transform="matrix(0.992001,0,0,0.992001,1910.62,984.203)" d="M7.79688,16.2031 C8.5,16.2969 9.09375,16.4063 9.79688,16.4063 C19.4063,16.4063 33.7031,3.29688 33.4063,-7.20313 C33.1094,-9.79688 33.2031,-13.2969 28,-15.4063 C26.5,-16.0938 24.9063,-16.4063 23.2031,-16.4063 C12.5,-16.4063 0.90625,-4.09375 0.09375,4.09375 C0.09375,4.70313 0,5.29688 0,5.90625 C0,10.9063 2.20313,14.9063 7.79688,16.2031"/>
<path class="Note" transform="matrix(0.992001,0,0,0.992001,2395.21,413.803)" d="M7.79688,16.2031 C8.5,16.2969 9.09375,16.4063 9.79688,16.4063 C19.4063,16.4063 33.7031,3.29688 33.4063,-7.20313 C33.1094,-9.79688 33.2031,-13.2969 28,-15.4063 C26.5,-16.0938 24.9063,-16.4063 23.2031,-16.4063 C12.5,-16.4063 0.90625,-4.09375 0.09375,4.09375 C0.09375,4.70313 0,5.29688 0,5.90625 C0,10.9063 2.20313,14.9063 7.79688,16.2031"/>
<path class="Note" transform="matrix(0.992001,0,0,0.992001,920.686,426.203)" d="M7.79688,16.2031 C8.5,16.2969 9.09375,16.4063 9.79688,16.4063 C19.4063,16.4063 33.7031,3.29688 33.4063,-7.20313 C33.1094,-9.79688 33.2031,-13.2969 28,-15.4063 C26.5,-16.0938 24.9063,-16.4063 23.2031,-16.4063 C12.5,-16.4063 0.90625,-4.09375 0.09375,4.09375 C0.09375,4.70313 0,5.29688 0,5.90625 C0,10.9063 2.20313,14.9063 7.79688,16.2031"/>
<path class="Note" transform="matrix(0.992001,0,0,0.992001,2013.21,959.403)" d="M7.79688,16.2031 C8.5,16.2969 9.09375,16.4063 9.79688,16.4063 C19.4063,16.4063 33.7031,3.29688 33.4063,-7.20313 C33.1094,-9.79688 33.2031,-13.2969 28,-15.4063 C26.5,-16.0938 24.9063,-16.4063 23.2031,-16.4063 C12.5,-16.4063 0.90625,-4.09375 0.09375,4.09375 C0.09375,4.70313 0,5.29688 0,5.90625 C0,10.9063 2.20313,14.9063 7.79688,16.2031"/>
<path class="Note" transform="matrix(0.992001,0,0,0.992001,1954.16,389.003)" d="M7.79688,16.2031 C8.5,16.2969 9.09375,16.4063 9.79688,16.4063 C19.4063,16.4063 33.7031,3.29688 33.4063,-7.20313 C33.1094,-9.79688 33.2031,-13.2969 28,-15.4063 C26.5,-16.0938 24.9063,-16.4063 23.2031,-16.4063 C12.5,-16.4063 0.90625,-4.09375 0.09375,4.09375 C0.09375,4.70313 0,5.29688 0,5.90625 C0,10.9063 2.20313,14.9063 7.79688,16.2031"/>
<path class="Note" transform="matrix(0.992001,0,0,0.992001,1033.93,426.203)" d="M7.79688,16.2031 C8.5,16.2969 9.09375,16.4063 9.79688,16.4063 C19.4063,16.4063 33.7031,3.29688 33.4063,-7.20313 C33.1094,-9.79688 33.2031,-13.2969 28,-15.4063 C26.5,-16.0938 24.9063,-16.4063 23.2031,-16.4063 C12.5,-16.4063 0.90625,-4.09375 0.09375,4.09375 C0.09375,4.70313 0,5.29688 0,5.90625 C0,10.9063 2.20313,14.9063 7.79688,16.2031"/>
<path class="Note" transform="matrix(0.992001,0,0,0.992001,1161.64,351.803)" d="M7.79688,16.2031 C8.5,16.2969 9.09375,16.4063 9.79688,16.4063 C19.4063,16.4063 33.7031,3.29688 33.4063,-7.20313 C33.1094,-9.79688 33.2031,-13.2969 28,-15.4063 C26.5,-16.0938 24.9063,-16.4063 23.2031,-16.4063 C12.5,-16.4063 0.90625,-4.09375 0.09375,4.09375 C0.09375,4.70313 0,5.29688 0,5.90625 C0,10.9063 2.20313,14.9063 7.79688,16.2031"/>
<path class="Note" transform="matrix(0.992001,0,0,0.992001,1364.78,364.203)" d="M7.79688,16.2031 C8.5,16.2969 9.09375,16.4063 9.79688,16.4063 C19.4063,16.4063 33.7031,3.29688 33.4063,-7.20313 C33.1094,-9.79688 33.2031,-13.2969 28,-15.4063 C26.5,-16.0938 24.9063,-16.4063 23.2031,-16.4063 C12.5,-16.4063 0.90625,-4.09375 0.09375,4.09375 C0.09375,4.70313 0,5.29688 0,5.90625 C0,10.9063 2.20313,14.9063 7.79688,16.2031"/>
<path class="Note" transform="matrix(0.992001,0,0,0.992001,1518.34,376.603)" d="M7.79688,16.2031 C8.5,16.2969 9.09375,16.4063 9.79688,16.4063 C19.4063,16.4063 33.7031,3.29688 33.4063,-7.20313 C33.1094,-9.79688 33.2031,-13.2969 28,-15.4063 C26.5,-16.0938 24.9063,-16.4063 23.2031,-16.4063 C12.5,-16.4063 0.90625,-4.09375 0.09375,4.09375 C0.09375,4.70313 0,5.29688 0,5.90625 C0,10.9063 2.20313,14.9063 7.79688,16.2031"/>
<path class="Note" transform="matrix(0.992001,0,0,0.992001,2115.8,959.403)" d="M7.79688,16.2031 C8.5,16.2969 9.09375,16.4063 9.79688,16.4063 C19.4063,16.4063 33.7031,3.29688 33.4063,-7.20313 C33.1094,-9.79688 33.2031,-13.2969 28,-15.4063 C26.5,-16.0938 24.9063,-16.4063 23.2031,-16.4063 C12.5,-16.4063 0.90625,-4.09375 0.09375,4.09375 C0.09375,4.70313 0,5.29688 0,5.90625 C0,10.9063 2.20313,14.9063 7.79688,16.2031"/>
<path class="Note" transform="matrix(0.992001,0,0,0.992001,2327.5,413.803)" d="M7.79688,16.2031 C8.5,16.2969 9.09375,16.4063 9.79688,16.4063 C19.4063,16.4063 33.7031,3.29688 33.4063,-7.20313 C33.1094,-9.79688 33.2031,-13.2969 28,-15.4063 C26.5,-16.0938 24.9063,-16.4063 23.2031,-16.4063 C12.5,-16.4063 0.90625,-4.09375 0.09375,4.09375 C0.09375,4.70313 0,5.29688 0,5.90625 C0,10.9063 2.20313,14.9063 7.79688,16.2031"/>
<path class="Note" transform="matrix(0.992001,0,0,0.992001,2599.82,426.203)" d="M7.79688,16.2031 C8.5,16.2969 9.09375,16.4063 9.79688,16.4063 C19.4063,16.4063 33.7031,3.29688 33.4063,-7.20313 C33.1094,-9.79688 33.2031,-13.2969 28,-15.4063 C26.5,-16.0938 24.9063,-16.4063 23.2031,-16.4063 C12.5,-16.4063 0.90625,-4.09375 0.09375,4.09375 C0.09375,4.70313 0,5.29688 0,5.90625 C0,10.9063 2.20313,14.9063 7.79688,16.2031"/>
<path class="Note" transform="matrix(0.992001,0,0,0.992001,2218.39,984.203)" d="M7.79688,16.2031 C8.5,16.2969 9.09375,16.4063 9.79688,16.4063 C19.4063,16.4063 33.7031,3.29688 33.4063,-7.20313 C33.1094,-9.79688 33.2031,-13.2969 28,-15.4063 C26.5,-16.0938 24.9063,-16.4063 23.2031,-16.4063 C12.5,-16.4063 0.90625,-4.09375 0.09375,4.09375 C0.09375,4.70313 0,5.29688 0,5.90625 C0,10.9063 2.20313,14.9063 7.79688,16.2031"/>
<path class="Note" transform="matrix(0.992001,0,0,0.992001,1229.36,351.803)" d="M7.79688,16.2031 C8.5,16.2969 9.09375,16.4063 9.79688,16.4063 C19.4063,16.4063 33.7031,3.29688 33.4063,-7.20313 C33.1094,-9.79688 33.2031,-13.2969 28,-15.4063 C26.5,-16.0938 24.9063,-16.4063 23.2031,-16.4063 C12.5,-16.4063 0.90625,-4.09375 0.09375,4.09375 C0.09375,4.70313 0,5.29688 0,5.90625 C0,10.9063 2.20313,14.9063 7.79688,16.2031"/>
<path class="Note" transform="matrix(0.992001,0,0,0.992001,1751.02,401.403)" d="M7.79688,16.2031 C8.5,16.2969 9.09375,16.4063 9.79688,16.4063 C19.4063,16.4063 33.7031,3.29688 33.4063,-7.20313 C33.1094,-9.79688 33.2031,-13.2969 28,-15.4063 C26.5,-16.0938 24.9063,-16.4063 23.2031,-16.4063 C12.5,-16.4063 0.90625,-4.09375 0.09375,4.09375 C0.09375,4.70313 0,5.29688 0,5.90625 C0,10.9063 2.20313,14.9063 7.79688,16.2031"/>
<path class="Note" transform="matrix(0.992001,0,0,0.992001,2320.98,947.003)" d="M7.79688,16.2031 C8.5,16.2969 9.09375,16.4063 9.79688,16.4063 C19.4063,16.4063 33.7031,3.29688 33.4063,-7.20313 C33.1094,-9.79688 33.2031,-13.2969 28,-15.4063 C26.5,-16.0938 24.9063,-16.4063 23.2031,-16.4063 C12.5,-16.4063 0.90625,-4.09375 0.09375,4.09375 C0.09375,4.70313 0,5.29688 0,5.90625 C0,10.9063 2.20313,14.9063 7.79688,16.2031"/>
<path class="Note" transform="matrix(0.992001,0,0,0.992001,1297.07,364.203)" d="M7.79688,16.2031 C8.5,16.2969 9.09375,16.4063 9.79688,16.4063 C19.4063,16.4063 33.7031,3.29688 33.4063,-7.20313 C33.1094,-9.79688 33.2031,-13.2969 28,-15.4063 C26.5,-16.0938 24.9063,-16.4063 23.2031,-16.4063 C12.5,-16.4063 0.90625,-4.09375 0.09375,4.09375 C0.09375,4.70313 0,5.29688 0,5.90625 C0,10.9063 2.20313,14.9063 7.79688,16.2031"/>
<path class="Note" transform="matrix(0.992001,0,0,0.992001,663.52,1009)" d="M7.79688,16.2031 C8.5,16.2969 9.09375,16.4063 9.79688,16.4063 C19.4063,16.4063 33.7031,3.29688 33.4063,-7.20313 C33.1094,-9.79688 33.2031,-13.2969 28,-15.4063 C26.5,-16.0938 24.9063,-16.4063 23.2031,-16.4063 C12.5,-16.4063 0.90625,-4.09375 0.09375,4.09375 C0.09375,4.70313 0,5.29688 0,5.90625 C0,10.9063 2.20313,14.9063 7.79688,16.2031"/>
<path class="Note" transform="matrix(0.992001,0,0,0.992001,1320.26,1033.8)" d="M7.79688,16.2031 C8.5,16.2969 9.09375,16.4063 9.79688,16.4063 C19.4063,16.4063 33.7031,3.29688 33.4063,-7.20313 C33.1094,-9.79688 33.2031,-13.2969 28,-15.4063 C26.5,-16.0938 24.9063,-16.4063 23.2031,-16.4063 C12.5,-16.4063 0.90625,-4.09375 0.09375,4.09375 C0.09375,4.70313 0,5.29688 0,5.90625 C0,10.9063 2.20313,14.9063 7.79688,16.2031"/>
<path class="Clef" transform="matrix(0.992001,0,0,0.992001,231.198,451.003)" d="M27.9063,49 C41.1094,47.1094 49.7031,39.2969 55.7969,28.1094 C59.7969,20.7031 60.7031,12.7031 60.7969,3.70313 C60.7969,2.20313 60.6094,-0.09375 60.2969,-2.29688 C58.7031,-15.0938 50.2031,-21.5938 38.9063,-21.5938 C38.1094,-21.5938 37.2031,-21.5938 36.4063,-21.5 C25.9063,-20.5938 16.5938,-16.7969 9.09375,-9.29688 C5.79688,-6 2.59375,-2.70313 1.20313,2 C0.796875,3.5 0.59375,4.90625 0.59375,6.20313 C0.59375,10.7031 3,14.2969 7.79688,16.5 C8.09375,16.5938 8.29688,16.7969 8.59375,16.9063 C10.0938,17.7031 11.5,18.0938 12.9063,18.0938 C14.9063,18.0938 16.7969,17.2969 18.5938,15.7969 C22.5938,12.5938 24.4063,8.59375 24.4063,4.09375 C24.4063,2.5 24.2031,0.90625 23.7969,-0.703125 C23.7031,-1.29688 23.5938,-1.90625 23.5938,-2.5 C23.5938,-5.20313 25.2031,-7.09375 28.4063,-7.29688 C29.2031,-7.40625 29.9063,-7.40625 30.6094,-7.40625 C35.4063,-7.40625 39.7969,-6 43.2969,-2.5 C47.7969,1.90625 50.2969,7.59375 51.7031,13.9063 C51.9063,14.5938 51.9063,15.4063 51.9063,16 C51.9063,18.2969 51.1094,20.2969 49.7969,22.4063 C47.7969,25.7031 45.4063,28.5 42.2031,30.9063 C36,35.6094 28.7969,37.6094 21.2969,37.6094 L14.7969,37.6094 C10.7031,37.6094 6.70313,37.4063 2.70313,36.2031 C1.20313,35.7031 0,36.9063 0,38.2969 C0,38.6094 0,38.9063 0.09375,39.2031 C0.40625,40.2969 0.703125,41.4063 1.20313,42.4063 C2.40625,45 3.5,47.5 7,48.2031 C11.4063,49.1094 15.5938,49.6094 20,49.6094 C22.5938,49.6094 25.2031,49.4063 27.9063,49 M70.7031,-6.40625 C72.2969,-6.29688 74.2031,-6.70313 75,-8.20313 C76.2969,-10.4063 77.6094,-12.5 77.6094,-15.2031 C77.6094,-15.9063 77.5,-16.7031 77.3125,-17.5 C76.5,-20.5938 74.2031,-19.2031 72.6094,-20 C71.4063,-20.5938 71.1094,-19 70.6094,-18.2031 C68.7031,-15.2969 69.2031,-11.7969 68.2969,-8.59375 C68,-7.5 68.5,-6.29688 70,-6.29688 L70.7031,-6.40625 M67.5,19.5 C71.1094,19.4063 74.2969,14.5938 74.2969,10.2969 C74.2969,7.29688 72.6094,7.79688 71.2031,7.29688 C69.7031,6.70313 69.2969,7.90625 68.7031,8.79688 C66.9063,11.4063 66.9063,14.5 65.9063,17.2969 C65.5,18.4063 65.9063,19.5 67.2969,19.5 L67.5,19.5 "/>
<path class="Clef" transform="matrix(0.992001,0,0,0.992001,231.198,1058.6)" d="M27.9063,49 C41.1094,47.1094 49.7031,39.2969 55.7969,28.1094 C59.7969,20.7031 60.7031,12.7031 60.7969,3.70313 C60.7969,2.20313 60.6094,-0.09375 60.2969,-2.29688 C58.7031,-15.0938 50.2031,-21.5938 38.9063,-21.5938 C38.1094,-21.5938 37.2031,-21.5938 36.4063,-21.5 C25.9063,-20.5938 16.5938,-16.7969 9.09375,-9.29688 C5.79688,-6 2.59375,-2.70313 1.20313,2 C0.796875,3.5 0.59375,4.90625 0.59375,6.20313 C0.59375,10.7031 3,14.2969 7.79688,16.5 C8.09375,16.5938 8.29688,16.7969 8.59375,16.9063 C10.0938,17.7031 11.5,18.0938 12.9063,18.0938 C14.9063,18.0938 16.7969,17.2969 18.5938,15.7969 C22.5938,12.5938 24.4063,8.59375 24.4063,4.09375 C24.4063,2.5 24.2031,0.90625 23.7969,-0.703125 C23.7031,-1.29688 23.5938,-1.90625 23.5938,-2.5 C23.5938,-5.20313 25.2031,-7.09375 28.4063,-7.29688 C29.2031,-7.40625 29.9063,-7.40625 30.6094,-7.40625 C35.4063,-7.40625 39.7969,-6 43.2969,-2.5 C47.7969,1.90625 50.2969,7.59375 51.7031,13.9063 C51.9063,14.5938 51.9063,15.4063 51.9063,16 C51.9063,18.2969 51.1094,20.2969 49.7969,22.4063 C47.7969,25.7031 45.4063,28.5 42.2031,30.9063 C36,35.6094 28.7969,37.6094 21.2969,37.6094 L14.7969,37.6094 C10.7031,37.6094 6.70313,37.4063 2.70313,36.2031 C1.20313,35.7031 0,36.9063 0,38.2969 C0,38.6094 0,38.9063 0.09375,39.2031 C0.40625,40.2969 0.703125,41.4063 1.20313,42.4063 C2.40625,45 3.5,47.5 7,48.2031 C11.4063,49.1094 15.5938,49.6094 20,49.6094 C22.5938,49.6094 25.2031,49.4063 27.9063,49 M70.7031,-6.40625 C72.2969,-6.29688 74.2031,-6.70313 75,-8.20313 C76.2969,-10.4063 77.6094,-12.5 77.6094,-15.2031 C77.6094,-15.9063 77.5,-16.7031 77.3125,-17.5 C76.5,-20.5938 74.2031,-19.2031 72.6094,-20 C71.4063,-20.5938 71.1094,-19 70.6094,-18.2031 C68.7031,-15.2969 69.2031,-11.7969 68.2969,-8.59375 C68,-7.5 68.5,-6.29688 70,-6.29688 L70.7031,-6.40625 M67.5,19.5 C71.1094,19.4063 74.2969,14.5938 74.2969,10.2969 C74.2969,7.29688 72.6094,7.79688 71.2031,7.29688 C69.7031,6.70313 69.2969,7.90625 68.7031,8.79688 C66.9063,11.4063 66.9063,14.5 65.9063,17.2969 C65.5,18.4063 65.9063,19.5 67.2969,19.5 L67.5,19.5 "/>
<path class="KeySig" transform="matrix(0.992001,0,0,0.992001,335.157,451.003)" d="M14,38.4063 C14.7969,38.2969 15,37.2031 15.2031,36.5 C15.5938,35.2031 15.7031,33.9063 15.7031,32.7031 C15.7031,31.6094 15.5938,30.6094 15.5938,29.5 C15.5938,28.7969 15.5938,27.9063 15.7031,27.2031 C15.9063,25.2031 16.0938,23.2031 16.2031,21.2031 L20.5938,20.2969 C20.7969,24.5 21.5938,28.6094 23,32.6094 C23.0938,33.1094 23.5,33.7031 24.0938,33.7031 C24.7031,33.7969 24.9063,33.1094 25.2031,32.6094 C25.9063,31.5 26,30.2031 26,29 C26.1094,28.1094 26.1094,27.2969 26.1094,26.5 C26.1094,24.0938 25.9063,21.5938 25.7969,19.2031 L31.6094,18 C37.1094,16.9063 37.7969,16.0938 38.2031,10.7969 C38.2031,9.5 38.2969,8.59375 38.2031,7.59375 C38.1094,6.29688 37.6094,5.40625 36.5,5.40625 L36.2969,5.40625 C35.9063,5.40625 35.6094,5.40625 35.2031,5.5 C32.9063,6.09375 30.4063,6.59375 28,7 L26.2969,7.29688 C26.4063,5.90625 26.4063,4.40625 26.5,2.90625 C26.6094,-0.296875 26.7031,-3.5 26.7031,-6.70313 C29.5,-7.40625 32.2031,-8.20313 34.9063,-9.09375 C36.4063,-9.59375 37.7031,-10.4063 38.1094,-12 C38.5,-13.7969 39,-15.5 39,-17.2969 C39,-18.2969 38.9063,-19.4063 38.5,-20.4063 C38.1094,-21.4063 37.7969,-21.9063 37.2031,-21.9063 L37,-21.9063 C36.7031,-21.9063 36.2969,-21.9063 35.9063,-21.7031 C32.7969,-20.4063 29.7031,-19.4063 26.5,-18.5 L26.2031,-23.9063 C26,-28.2031 25.7969,-32.6094 24.9063,-36.9063 C24.7031,-37.4063 24.7969,-38.2969 24.2031,-38.2969 L24.0938,-38.2969 L23.7969,-38.2969 C23,-38.1094 22,-37.7969 21.9063,-36.7031 L21.9063,-34.7969 C21.9063,-28.9063 22.0938,-23.0938 22.2031,-17.2969 L16.9063,-16.0938 C16.9063,-19.0938 16.7969,-22.0938 16.5938,-25.0938 C16.5,-26.6094 16.5,-28 15.7031,-29.5 C13.5,-28.4063 13.7969,-26.5 13.7969,-24.9063 C13.5938,-21.7031 13.5,-18.5938 13.4063,-15.5 C10.5938,-14.9063 7.79688,-14.5 5,-14 C0.90625,-13.2969 0.296875,-12.7031 0.296875,-8.20313 C0,-7.09375 0.796875,-5.79688 0.703125,-4.59375 C0.5,-2.70313 1,-2.09375 2.29688,-2 C2.59375,-2 2.90625,-2.09375 3.29688,-2.20313 C6.59375,-2.70313 9.79688,-3.20313 13,-3.79688 L12.7031,5.20313 C12.5938,6.90625 12.4063,8.5 12.2031,10.0938 C8.5,10.7969 4.79688,11.5 1.09375,12.4063 C-1,12.9063 -2.20313,13.7031 -2.20313,16.0938 C-2.20313,18.5 -1.29688,20.7031 -1.20313,23 C-1.20313,24.0938 -0.90625,24.5938 -0.09375,24.7031 C0.09375,24.7031 0.40625,24.5938 0.796875,24.5 C4.40625,23.7031 8,23 11.5938,22.2031 C11.5,23.5 11.5,24.7969 11.5,26.2031 C11.5,29.7031 11.9063,33.1094 13.0938,36.5 C13.2969,37.2031 13.0938,38.4063 14,38.4063 M16.7031,9.20313 C16.7969,7 16.7969,4.79688 16.9063,2.59375 C17,0.203125 17,-2.09375 17,-4.5 C18.7031,-4.79688 20.2969,-5.09375 21.9063,-5.5 C21.4063,-0.90625 21.2031,3.70313 20.9063,8.29688 L16.7031,9.20313 "/>
<path class="KeySig" transform="matrix(0.992001,0,0,0.992001,371.148,488.203)" d="M14,38.4063 C14.7969,38.2969 15,37.2031 15.2031,36.5 C15.5938,35.2031 15.7031,33.9063 15.7031,32.7031 C15.7031,31.6094 15.5938,30.6094 15.5938,29.5 C15.5938,28.7969 15.5938,27.9063 15.7031,27.2031 C15.9063,25.2031 16.0938,23.2031 16.2031,21.2031 L20.5938,20.2969 C20.7969,24.5 21.5938,28.6094 23,32.6094 C23.0938,33.1094 23.5,33.7031 24.0938,33.7031 C24.7031,33.7969 24.9063,33.1094 25.2031,32.6094 C25.9063,31.5 26,30.2031 26,29 C26.1094,28.1094 26.1094,27.2969 26.1094,26.5 C26.1094,24.0938 25.9063,21.5938 25.7969,19.2031 L31.6094,18 C37.1094,16.9063 37.7969,16.0938 38.2031,10.7969 C38.2031,9.5 38.2969,8.59375 38.2031,7.59375 C38.1094,6.29688 37.6094,5.40625 36.5,5.40625 L36.2969,5.40625 C35.9063,5.40625 35.6094,5.40625 35.2031,5.5 C32.9063,6.09375 30.4063,6.59375 28,7 L26.2969,7.29688 C26.4063,5.90625 26.4063,4.40625 26.5,2.90625 C26.6094,-0.296875 26.7031,-3.5 26.7031,-6.70313 C29.5,-7.40625 32.2031,-8.20313 34.9063,-9.09375 C36.4063,-9.59375 37.7031,-10.4063 38.1094,-12 C38.5,-13.7969 39,-15.5 39,-17.2969 C39,-18.2969 38.9063,-19.4063 38.5,-20.4063 C38.1094,-21.4063 37.7969,-21.9063 37.2031,-21.9063 L37,-21.9063 C36.7031,-21.9063 36.2969,-21.9063 35.9063,-21.7031 C32.7969,-20.4063 29.7031,-19.4063 26.5,-18.5 L26.2031,-23.9063 C26,-28.2031 25.7969,-32.6094 24.9063,-36.9063 C24.7031,-37.4063 24.7969,-38.2969 24.2031,-38.2969 L24.0938,-38.2969 L23.7969,-38.2969 C23,-38.1094 22,-37.7969 21.9063,-36.7031 L21.9063,-34.7969 C21.9063,-28.9063 22.0938,-23.0938 22.2031,-17.2969 L16.9063,-16.0938 C16.9063,-19.0938 16.7969,-22.0938 16.5938,-25.0938 C16.5,-26.6094 16.5,-28 15.7031,-29.5 C13.5,-28.4063 13.7969,-26.5 13.7969,-24.9063 C13.5938,-21.7031 13.5,-18.5938 13.4063,-15.5 C10.5938,-14.9063 7.79688,-14.5 5,-14 C0.90625,-13.2969 0.296875,-12.7031 0.296875,-8.20313 C0,-7.09375 0.796875,-5.79688 0.703125,-4.59375 C0.5,-2.70313 1,-2.09375 2.29688,-2 C2.59375,-2 2.90625,-2.09375 3.29688,-2.20313 C6.59375,-2.70313 9.79688,-3.20313 13,-3.79688 L12.7031,5.20313 C12.5938,6.90625 12.4063,8.5 12.2031,10.0938 C8.5,10.7969 4.79688,11.5 1.09375,12.4063 C-1,12.9063 -2.20313,13.7031 -2.20313,16.0938 C-2.20313,18.5 -1.29688,20.7031 -1.20313,23 C-1.20313,24.0938 -0.90625,24.5938 -0.09375,24.7031 C0.09375,24.7031 0.40625,24.5938 0.796875,24.5 C4.40625,23.7031 8,23 11.5938,22.2031 C11.5,23.5 11.5,24.7969 11.5,26.2031 C11.5,29.7031 11.9063,33.1094 13.0938,36.5 C13.2969,37.2031 13.0938,38.4063 14,38.4063 M16.7031,9.20313 C16.7969,7 16.7969,4.79688 16.9063,2.59375 C17,0.203125 17,-2.09375 17,-4.5 C18.7031,-4.79688 20.2969,-5.09375 21.9063,-5.5 C21.4063,-0.90625 21.2031,3.70313 20.9063,8.29688 L16.7031,9.20313 "/>
<path class="KeySig" transform="matrix(0.992001,0,0,0.992001,408.937,438.603)" d="M14,38.4063 C14.7969,38.2969 15,37.2031 15.2031,36.5 C15.5938,35.2031 15.7031,33.9063 15.7031,32.7031 C15.7031,31.6094 15.5938,30.6094 15.5938,29.5 C15.5938,28.7969 15.5938,27.9063 15.7031,27.2031 C15.9063,25.2031 16.0938,23.2031 16.2031,21.2031 L20.5938,20.2969 C20.7969,24.5 21.5938,28.6094 23,32.6094 C23.0938,33.1094 23.5,33.7031 24.0938,33.7031 C24.7031,33.7969 24.9063,33.1094 25.2031,32.6094 C25.9063,31.5 26,30.2031 26,29 C26.1094,28.1094 26.1094,27.2969 26.1094,26.5 C26.1094,24.0938 25.9063,21.5938 25.7969,19.2031 L31.6094,18 C37.1094,16.9063 37.7969,16.0938 38.2031,10.7969 C38.2031,9.5 38.2969,8.59375 38.2031,7.59375 C38.1094,6.29688 37.6094,5.40625 36.5,5.40625 L36.2969,5.40625 C35.9063,5.40625 35.6094,5.40625 35.2031,5.5 C32.9063,6.09375 30.4063,6.59375 28,7 L26.2969,7.29688 C26.4063,5.90625 26.4063,4.40625 26.5,2.90625 C26.6094,-0.296875 26.7031,-3.5 26.7031,-6.70313 C29.5,-7.40625 32.2031,-8.20313 34.9063,-9.09375 C36.4063,-9.59375 37.7031,-10.4063 38.1094,-12 C38.5,-13.7969 39,-15.5 39,-17.2969 C39,-18.2969 38.9063,-19.4063 38.5,-20.4063 C38.1094,-21.4063 37.7969,-21.9063 37.2031,-21.9063 L37,-21.9063 C36.7031,-21.9063 36.2969,-21.9063 35.9063,-21.7031 C32.7969,-20.4063 29.7031,-19.4063 26.5,-18.5 L26.2031,-23.9063 C26,-28.2031 25.7969,-32.6094 24.9063,-36.9063 C24.7031,-37.4063 24.7969,-38.2969 24.2031,-38.2969 L24.0938,-38.2969 L23.7969,-38.2969 C23,-38.1094 22,-37.7969 21.9063,-36.7031 L21.9063,-34.7969 C21.9063,-28.9063 22.0938,-23.0938 22.2031,-17.2969 L16.9063,-16.0938 C16.9063,-19.0938 16.7969,-22.0938 16.5938,-25.0938 C16.5,-26.6094 16.5,-28 15.7031,-29.5 C13.5,-28.4063 13.7969,-26.5 13.7969,-24.9063 C13.5938,-21.7031 13.5,-18.5938 13.4063,-15.5 C10.5938,-14.9063 7.79688,-14.5 5,-14 C0.90625,-13.2969 0.296875,-12.7031 0.296875,-8.20313 C0,-7.09375 0.796875,-5.79688 0.703125,-4.59375 C0.5,-2.70313 1,-2.09375 2.29688,-2 C2.59375,-2 2.90625,-2.09375 3.29688,-2.20313 C6.59375,-2.70313 9.79688,-3.20313 13,-3.79688 L12.7031,5.20313 C12.5938,6.90625 12.4063,8.5 12.2031,10.0938 C8.5,10.7969 4.79688,11.5 1.09375,12.4063 C-1,12.9063 -2.20313,13.7031 -2.20313,16.0938 C-2.20313,18.5 -1.29688,20.7031 -1.20313,23 C-1.20313,24.0938 -0.90625,24.5938 -0.09375,24.7031 C0.09375,24.7031 0.40625,24.5938 0.796875,24.5 C4.40625,23.7031 8,23 11.5938,22.2031 C11.5,23.5 11.5,24.7969 11.5,26.2031 C11.5,29.7031 11.9063,33.1094 13.0938,36.5 C13.2969,37.2031 13.0938,38.4063 14,38.4063 M16.7031,9.20313 C16.7969,7 16.7969,4.79688 16.9063,2.59375 C17,0.203125 17,-2.09375 17,-4.5 C18.7031,-4.79688 20.2969,-5.09375 21.9063,-5.5 C21.4063,-0.90625 21.2031,3.70313 20.9063,8.29688 L16.7031,9.20313 "/>
<path class="KeySig" transform="matrix(0.992001,0,0,0.992001,335.157,1058.6)" d="M14,38.4063 C14.7969,38.2969 15,37.2031 15.2031,36.5 C15.5938,35.2031 15.7031,33.9063 15.7031,32.7031 C15.7031,31.6094 15.5938,30.6094 15.5938,29.5 C15.5938,28.7969 15.5938,27.9063 15.7031,27.2031 C15.9063,25.2031 16.0938,23.2031 16.2031,21.2031 L20.5938,20.2969 C20.7969,24.5 21.5938,28.6094 23,32.6094 C23.0938,33.1094 23.5,33.7031 24.0938,33.7031 C24.7031,33.7969 24.9063,33.1094 25.2031,32.6094 C25.9063,31.5 26,30.2031 26,29 C26.1094,28.1094 26.1094,27.2969 26.1094,26.5 C26.1094,24.0938 25.9063,21.5938 25.7969,19.2031 L31.6094,18 C37.1094,16.9063 37.7969,16.0938 38.2031,10.7969 C38.2031,9.5 38.2969,8.59375 38.2031,7.59375 C38.1094,6.29688 37.6094,5.40625 36.5,5.40625 L36.2969,5.40625 C35.9063,5.40625 35.6094,5.40625 35.2031,5.5 C32.9063,6.09375 30.4063,6.59375 28,7 L26.2969,7.29688 C26.4063,5.90625 26.4063,4.40625 26.5,2.90625 C26.6094,-0.296875 26.7031,-3.5 26.7031,-6.70313 C29.5,-7.40625 32.2031,-8.20313 34.9063,-9.09375 C36.4063,-9.59375 37.7031,-10.4063 38.1094,-12 C38.5,-13.7969 39,-15.5 39,-17.2969 C39,-18.2969 38.9063,-19.4063 38.5,-20.4063 C38.1094,-21.4063 37.7969,-21.9063 37.2031,-21.9063 L37,-21.9063 C36.7031,-21.9063 36.2969,-21.9063 35.9063,-21.7031 C32.7969,-20.4063 29.7031,-19.4063 26.5,-18.5 L26.2031,-23.9063 C26,-28.2031 25.7969,-32.6094 24.9063,-36.9063 C24.7031,-37.4063 24.7969,-38.2969 24.2031,-38.2969 L24.0938,-38.2969 L23.7969,-38.2969 C23,-38.1094 22,-37.7969 21.9063,-36.7031 L21.9063,-34.7969 C21.9063,-28.9063 22.0938,-23.0938 22.2031,-17.2969 L16.9063,-16.0938 C16.9063,-19.0938 16.7969,-22.0938 16.5938,-25.0938 C16.5,-26.6094 16.5,-28 15.7031,-29.5 C13.5,-28.4063 13.7969,-26.5 13.7969,-24.9063 C13.5938,-21.7031 13.5,-18.5938 13.4063,-15.5 C10.5938,-14.9063 7.79688,-14.5 5,-14 C0.90625,-13.2969 0.296875,-12.7031 0.296875,-8.20313 C0,-7.09375 0.796875,-5.79688 0.703125,-4.59375 C0.5,-2.70313 1,-2.09375 2.29688,-2 C2.59375,-2 2.90625,-2.09375 3.29688,-2.20313 C6.59375,-2.70313 9.79688,-3.20313 13,-3.79688 L12.7031,5.20313 C12.5938,6.90625 12.4063,8.5 12.2031,10.0938 C8.5,10.7969 4.79688,11.5 1.09375,12.4063 C-1,12.9063 -2.20313,13.7031 -2.20313,16.0938 C-2.20313,18.5 -1.29688,20.7031 -1.20313,23 C-1.20313,24.0938 -0.90625,24.5938 -0.09375,24.7031 C0.09375,24.7031 0.40625,24.5938 0.796875,24.5 C4.40625,23.7031 8,23 11.5938,22.2031 C11.5,23.5 11.5,24.7969 11.5,26.2031 C11.5,29.7031 11.9063,33.1094 13.0938,36.5 C13.2969,37.2031 13.0938,38.4063 14,38.4063 M16.7031,9.20313 C16.7969,7 16.7969,4.79688 16.9063,2.59375 C17,0.203125 17,-2.09375 17,-4.5 C18.7031,-4.79688 20.2969,-5.09375 21.9063,-5.5 C21.4063,-0.90625 21.2031,3.70313 20.9063,8.29688 L16.7031,9.20313 "/>
<path class="KeySig" transform="matrix(0.992001,0,0,0.992001,371.148,1095.8)" d="M14,38.4063 C14.7969,38.2969 15,37.2031 15.2031,36.5 C15.5938,35.2031 15.7031,33.9063 15.7031,32.7031 C15.7031,31.6094 15.5938,30.6094 15.5938,29.5 C15.5938,28.7969 15.5938,27.9063 15.7031,27.2031 C15.9063,25.2031 16.0938,23.2031 16.2031,21.2031 L20.5938,20.2969 C20.7969,24.5 21.5938,28.6094 23,32.6094 C23.0938,33.1094 23.5,33.7031 24.0938,33.7031 C24.7031,33.7969 24.9063,33.1094 25.2031,32.6094 C25.9063,31.5 26,30.2031 26,29 C26.1094,28.1094 26.1094,27.2969 26.1094,26.5 C26.1094,24.0938 25.9063,21.5938 25.7969,19.2031 L31.6094,18 C37.1094,16.9063 37.7969,16.0938 38.2031,10.7969 C38.2031,9.5 38.2969,8.59375 38.2031,7.59375 C38.1094,6.29688 37.6094,5.40625 36.5,5.40625 L36.2969,5.40625 C35.9063,5.40625 35.6094,5.40625 35.2031,5.5 C32.9063,6.09375 30.4063,6.59375 28,7 L26.2969,7.29688 C26.4063,5.90625 26.4063,4.40625 26.5,2.90625 C26.6094,-0.296875 26.7031,-3.5 26.7031,-6.70313 C29.5,-7.40625 32.2031,-8.20313 34.9063,-9.09375 C36.4063,-9.59375 37.7031,-10.4063 38.1094,-12 C38.5,-13.7969 39,-15.5 39,-17.2969 C39,-18.2969 38.9063,-19.4063 38.5,-20.4063 C38.1094,-21.4063 37.7969,-21.9063 37.2031,-21.9063 L37,-21.9063 C36.7031,-21.9063 36.2969,-21.9063 35.9063,-21.7031 C32.7969,-20.4063 29.7031,-19.4063 26.5,-18.5 L26.2031,-23.9063 C26,-28.2031 25.7969,-32.6094 24.9063,-36.9063 C24.7031,-37.4063 24.7969,-38.2969 24.2031,-38.2969 L24.0938,-38.2969 L23.7969,-38.2969 C23,-38.1094 22,-37.7969 21.9063,-36.7031 L21.9063,-34.7969 C21.9063,-28.9063 22.0938,-23.0938 22.2031,-17.2969 L16.9063,-16.0938 C16.9063,-19.0938 16.7969,-22.0938 16.5938,-25.0938 C16.5,-26.6094 16.5,-28 15.7031,-29.5 C13.5,-28.4063 13.7969,-26.5 13.7969,-24.9063 C13.5938,-21.7031 13.5,-18.5938 13.4063,-15.5 C10.5938,-14.9063 7.79688,-14.5 5,-14 C0.90625,-13.2969 0.296875,-12.7031 0.296875,-8.20313 C0,-7.09375 0.796875,-5.79688 0.703125,-4.59375 C0.5,-2.70313 1,-2.09375 2.29688,-2 C2.59375,-2 2.90625,-2.09375 3.29688,-2.20313 C6.59375,-2.70313 9.79688,-3.20313 13,-3.79688 L12.7031,5.20313 C12.5938,6.90625 12.4063,8.5 12.2031,10.0938 C8.5,10.7969 4.79688,11.5 1.09375,12.4063 C-1,12.9063 -2.20313,13.7031 -2.20313,16.0938 C-2.20313,18.5 -1.29688,20.7031 -1.20313,23 C-1.20313,24.0938 -0.90625,24.5938 -0.09375,24.7031 C0.09375,24.7031 0.40625,24.5938 0.796875,24.5 C4.40625,23.7031 8,23 11.5938,22.2031 C11.5,23.5 11.5,24.7969 11.5,26.2031 C11.5,29.7031 11.9063,33.1094 13.0938,36.5 C13.2969,37.2031 13.0938,38.4063 14,38.4063 M16.7031,9.20313 C16.7969,7 16.7969,4.79688 16.9063,2.59375 C17,0.203125 17,-2.09375 17,-4.5 C18.7031,-4.79688 20.2969,-5.09375 21.9063,-5.5 C21.4063,-0.90625 21.2031,3.70313 20.9063,8.29688 L16.7031,9.20313 "/>
<path class="KeySig" transform="matrix(0.992001,0,0,0.992001,408.937,1046.2)" d="M14,38.4063 C14.7969,38.2969 15,37.2031 15.2031,36.5 C15.5938,35.2031 15.7031,33.9063 15.7031,32.7031 C15.7031,31.6094 15.5938,30.6094 15.5938,29.5 C15.5938,28.7969 15.5938,27.9063 15.7031,27.2031 C15.9063,25.2031 16.0938,23.2031 16.2031,21.2031 L20.5938,20.2969 C20.7969,24.5 21.5938,28.6094 23,32.6094 C23.0938,33.1094 23.5,33.7031 24.0938,33.7031 C24.7031,33.7969 24.9063,33.1094 25.2031,32.6094 C25.9063,31.5 26,30.2031 26,29 C26.1094,28.1094 26.1094,27.2969 26.1094,26.5 C26.1094,24.0938 25.9063,21.5938 25.7969,19.2031 L31.6094,18 C37.1094,16.9063 37.7969,16.0938 38.2031,10.7969 C38.2031,9.5 38.2969,8.59375 38.2031,7.59375 C38.1094,6.29688 37.6094,5.40625 36.5,5.40625 L36.2969,5.40625 C35.9063,5.40625 35.6094,5.40625 35.2031,5.5 C32.9063,6.09375 30.4063,6.59375 28,7 L26.2969,7.29688 C26.4063,5.90625 26.4063,4.40625 26.5,2.90625 C26.6094,-0.296875 26.7031,-3.5 26.7031,-6.70313 C29.5,-7.40625 32.2031,-8.20313 34.9063,-9.09375 C36.4063,-9.59375 37.7031,-10.4063 38.1094,-12 C38.5,-13.7969 39,-15.5 39,-17.2969 C39,-18.2969 38.9063,-19.4063 38.5,-20.4063 C38.1094,-21.4063 37.7969,-21.9063 37.2031,-21.9063 L37,-21.9063 C36.7031,-21.9063 36.2969,-21.9063 35.9063,-21.7031 C32.7969,-20.4063 29.7031,-19.4063 26.5,-18.5 L26.2031,-23.9063 C26,-28.2031 25.7969,-32.6094 24.9063,-36.9063 C24.7031,-37.4063 24.7969,-38.2969 24.2031,-38.2969 L24.0938,-38.2969 L23.7969,-38.2969 C23,-38.1094 22,-37.7969 21.9063,-36.7031 L21.9063,-34.7969 C21.9063,-28.9063 22.0938,-23.0938 22.2031,-17.2969 L16.9063,-16.0938 C16.9063,-19.0938 16.7969,-22.0938 16.5938,-25.0938 C16.5,-26.6094 16.5,-28 15.7031,-29.5 C13.5,-28.4063 13.7969,-26.5 13.7969,-24.9063 C13.5938,-21.7031 13.5,-18.5938 13.4063,-15.5 C10.5938,-14.9063 7.79688,-14.5 5,-14 C0.90625,-13.2969 0.296875,-12.7031 0.296875,-8.20313 C0,-7.09375 0.796875,-5.79688 0.703125,-4.59375 C0.5,-2.70313 1,-2.09375 2.29688,-2 C2.59375,-2 2.90625,-2.09375 3.29688,-2.20313 C6.59375,-2.70313 9.79688,-3.20313 13,-3.79688 L12.7031,5.20313 C12.5938,6.90625 12.4063,8.5 12.2031,10.0938 C8.5,10.7969 4.79688,11.5 1.09375,12.4063 C-1,12.9063 -2.20313,13.7031 -2.20313,16.0938 C-2.20313,18.5 -1.29688,20.7031 -1.20313,23 C-1.20313,24.0938 -0.90625,24.5938 -0.09375,24.7031 C0.09375,24.7031 0.40625,24.5938 0.796875,24.5 C4.40625,23.7031 8,23 11.5938,22.2031 C11.5,23.5 11.5,24.7969 11.5,26.2031 C11.5,29.7031 11.9063,33.1094 13.0938,36.5 C13.2969,37.2031 13.0938,38.4063 14,38.4063 M16.7031,9.20313 C16.7969,7 16.7969,4.79688 16.9063,2.59375 C17,0.203125 17,-2.09375 17,-4.5 C18.7031,-4.79688 20.2969,-5.09375 21.9063,-5.5 C21.4063,-0.90625 21.2031,3.70313 20.9063,8.29688 L16.7031,9.20313 "/>
<path class="Rest" transform="matrix(0.992001,0,0,0.992001,1645.22,475.803)" d="M11.4063,26 C13.2031,25.9063 14.0938,24.7969 14.7031,23.5938 C16.5,20.2969 17.9063,16.7969 19.2031,13.2031 C23.0938,2.5 24.9063,-8.90625 28.5,-19.7969 C28.7031,-20.4063 28.9063,-21.0938 28.9063,-21.7969 L28.9063,-22.2969 C28.7969,-23.7031 28.5,-24.5938 27.2969,-24.5938 C27,-24.5938 26.7969,-24.5938 26.5,-24.5 C24.0938,-24.0938 21.9063,-23.0938 20.2969,-21.5938 C17.7969,-19.2031 15,-17.4063 12.0938,-15.5938 C11.7031,-15.4063 11.2969,-15.2031 10.9063,-15.2031 C10.5,-15.2031 10.0938,-15.4063 9.70313,-15.7969 C9.29688,-16.2031 9.09375,-16.7031 9.09375,-17.0938 C9.09375,-17.5 9.20313,-17.7969 9.40625,-18.2031 C9.79688,-18.9063 10.2031,-19.7969 10.2031,-20.7031 C10.2031,-22.4063 10.7031,-24.5938 8.79688,-25.5 C7.90625,-25.9063 7.09375,-26.1094 6.5,-26.1094 C5.20313,-26.1094 4.40625,-25.2031 3.29688,-23.2969 C1.40625,-20 0.796875,-16.2969 0.203125,-12.5938 C0.09375,-11.7969 0,-11.0938 0,-10.4063 C0,-5.79688 2.40625,-1.70313 7.59375,-1.70313 C8.79688,-1.70313 10.2969,-1.90625 11.9063,-2.5 C14.7969,-3.59375 17.2031,-5.20313 20.0938,-7 C17.7969,4.29688 13.4063,14.7969 11.4063,26"/>
<path class="Rest" transform="matrix(0.992001,0,0,0.992001,2474.87,1083.4)" d="M6.79688,0 L38.6094,0 C41.1094,0 43.7031,0 46.2031,-0.09375 C50,-0.203125 51.6094,-2 51.7969,-5.70313 C52,-7.90625 51.4063,-10 51.1094,-12.0938 C50.6094,-14.9063 49.2031,-16.0938 46.5,-16.0938 C44.2031,-16.0938 41.9063,-15.9063 39.6094,-15.9063 C34.6094,-15.9063 29.6094,-16.2031 24.7031,-16.2031 L5.09375,-16.2031 C1.29688,-16.2031 0,-15.2969 0,-12.4063 C0,-11.9063 0,-11.4063 0.09375,-10.7031 C0.296875,-9.40625 0.40625,-8 0.40625,-6.59375 C0.203125,-1.90625 2,0 6.79688,0"/>
<path class="Rest" transform="matrix(0.992001,0,0,0.992001,2701.39,475.803)" d="M10.5,41.4063 C11.2969,40.9063 11.2031,39.9063 11.4063,39.1094 C11.4063,38.7031 11.2031,38.2969 11.0938,37.9063 C10.2969,34.4063 9.40625,31 8.59375,27.5 C8.5,27.1094 8.5,26.7031 8.5,26.4063 C8.5,23 11,18.9063 13.7969,17.7031 C14.5,17.2969 15.0938,17.5938 15.7969,17.7969 C19,18.7969 20.7031,21.5 22.5,24 C23,24.7031 23.7031,25.6094 24.5,25.6094 C24.7031,25.6094 24.7969,25.6094 25,25.5 C25.9063,25.0938 26.2969,24.2031 26.2969,23.2969 L26.2031,22.5938 C25.7969,20.2969 25.4063,17.9063 23.9063,16.0938 C20.9063,12.5 19.2969,8.09375 17.2969,4 C17,3.40625 16.7969,2.90625 16.7969,2.5 C16.7969,1.79688 17.2031,1.20313 17.9063,0.5 C19.7031,-1.40625 21.5938,-3.09375 22.7969,-5.40625 C23.9063,-7.20313 24.5938,-9.09375 24.5938,-11 C24.5938,-12.2969 24.2969,-13.5938 23.4063,-15 C20.4063,-20 17.2969,-24.9063 14.7969,-30.2031 C13.0938,-33.7969 11,-37.2031 8,-39.9063 C7.29688,-40.6094 6.40625,-41.5 5.40625,-41.5 C5,-41.5 4.59375,-41.4063 4.09375,-41.1094 C3.09375,-40.5 2.70313,-39.7031 2.70313,-39 C2.70313,-38.2031 3.09375,-37.4063 3.70313,-36.6094 C6.79688,-32.6094 8.70313,-27.9063 11.7031,-23.9063 C12.5938,-22.7969 13,-22 13,-21.2969 C13,-20.4063 12.2031,-19.7031 10.5938,-18.7031 C8.5,-17.5 6.29688,-16.2969 4.29688,-14.7969 C3.29688,-14.0938 2.79688,-13.2969 2.79688,-12.5 C2.79688,-12 3,-11.5 3.20313,-11 C4.20313,-8.70313 5.5,-6.59375 6.90625,-4.5 C9.09375,-1.40625 11.0938,2 12.7031,5.5 C12,6.09375 11.4063,5.90625 10.7969,6 C4,6.90625 -0.5,12 0,18.0938 C0.703125,25.4063 3.40625,32.2031 6.70313,38.7031 C7.09375,39.5 7.59375,40.2969 8.59375,40.6094 C9.20313,40.7969 9.59375,41.5 10.0938,41.5 C10.2031,41.5 10.4063,41.5 10.5,41.4063"/>
<path class="Articulation" transform="matrix(0.992001,0,0,0.992001,2032.97,350.411)" d="M6.79688,0 C7.59375,0 8.5,-0.5 9.20313,-1.59375 C10.4063,-3.5 11.2031,-5.5 11.2031,-7.79688 C11.2031,-8.59375 11.2031,-9.5 11,-10.2969 C10.7031,-11.5938 9.09375,-11.5938 8.70313,-12.9063 C8.09375,-14.9063 5.90625,-15 4.40625,-15.5938 C3.09375,-15.4063 2.09375,-15.2031 1.59375,-13.7031 C0.796875,-11.2969 0.796875,-8.79688 0.203125,-6.29688 C0,-5.5 0.296875,-4.79688 1.29688,-4.59375 C2.79688,-4.29688 3.70313,-3.20313 4.5,-1.90625 C5.29688,-0.59375 6.09375,0 6.79688,0"/>
<path class="Articulation" transform="matrix(0.992001,0,0,0.992001,2118.81,400.012)" d="M6.79688,0 C7.59375,0 8.5,-0.5 9.20313,-1.59375 C10.4063,-3.5 11.2031,-5.5 11.2031,-7.79688 C11.2031,-8.59375 11.2031,-9.5 11,-10.2969 C10.7031,-11.5938 9.09375,-11.5938 8.70313,-12.9063 C8.09375,-14.9063 5.90625,-15 4.40625,-15.5938 C3.09375,-15.4063 2.09375,-15.2031 1.59375,-13.7031 C0.796875,-11.2969 0.796875,-8.79688 0.203125,-6.29688 C0,-5.5 0.296875,-4.79688 1.29688,-4.59375 C2.79688,-4.29688 3.70313,-3.20313 4.5,-1.90625 C5.29688,-0.59375 6.09375,0 6.79688,0"/>
<path class="Articulation" transform="matrix(0.992001,0,0,0.992001,674.614,982.812)" d="M6.79688,0 C7.59375,0 8.5,-0.5 9.20313,-1.59375 C10.4063,-3.5 11.2031,-5.5 11.2031,-7.79688 C11.2031,-8.59375 11.2031,-9.5 11,-10.2969 C10.7031,-11.5938 9.09375,-11.5938 8.70313,-12.9063 C8.09375,-14.9063 5.90625,-15 4.40625,-15.5938 C3.09375,-15.4063 2.09375,-15.2031 1.59375,-13.7031 C0.796875,-11.2969 0.796875,-8.79688 0.203125,-6.29688 C0,-5.5 0.296875,-4.79688 1.29688,-4.59375 C2.79688,-4.29688 3.70313,-3.20313 4.5,-1.90625 C5.29688,-0.59375 6.09375,0 6.79688,0"/>
<path class="Articulation" transform="matrix(0.992001,0,0,0.992001,1308.17,338.011)" d="M6.79688,0 C7.59375,0 8.5,-0.5 9.20313,-1.59375 C10.4063,-3.5 11.2031,-5.5 11.2031,-7.79688 C11.2031,-8.59375 11.2031,-9.5 11,-10.2969 C10.7031,-11.5938 9.09375,-11.5938 8.70313,-12.9063 C8.09375,-14.9063 5.90625,-15 4.40625,-15.5938 C3.09375,-15.4063 2.09375,-15.2031 1.59375,-13.7031 C0.796875,-11.2969 0.796875,-8.79688 0.203125,-6.29688 C0,-5.5 0.296875,-4.79688 1.29688,-4.59375 C2.79688,-4.29688 3.70313,-3.20313 4.5,-1.90625 C5.29688,-0.59375 6.09375,0 6.79688,0"/>
<path class="Articulation" transform="matrix(0.992001,0,0,0.992001,2232.05,400.012)" d="M6.79688,0 C7.59375,0 8.5,-0.5 9.20313,-1.59375 C10.4063,-3.5 11.2031,-5.5 11.2031,-7.79688 C11.2031,-8.59375 11.2031,-9.5 11,-10.2969 C10.7031,-11.5938 9.09375,-11.5938 8.70313,-12.9063 C8.09375,-14.9063 5.90625,-15 4.40625,-15.5938 C3.09375,-15.4063 2.09375,-15.2031 1.59375,-13.7031 C0.796875,-11.2969 0.796875,-8.79688 0.203125,-6.29688 C0,-5.5 0.296875,-4.79688 1.29688,-4.59375 C2.79688,-4.29688 3.70313,-3.20313 4.5,-1.90625 C5.29688,-0.59375 6.09375,0 6.79688,0"/>
<path class="Articulation" transform="matrix(0.992001,0,0,0.992001,2338.59,387.612)" d="M6.79688,0 C7.59375,0 8.5,-0.5 9.20313,-1.59375 C10.4063,-3.5 11.2031,-5.5 11.2031,-7.79688 C11.2031,-8.59375 11.2031,-9.5 11,-10.2969 C10.7031,-11.5938 9.09375,-11.5938 8.70313,-12.9063 C8.09375,-14.9063 5.90625,-15 4.40625,-15.5938 C3.09375,-15.4063 2.09375,-15.2031 1.59375,-13.7031 C0.796875,-11.2969 0.796875,-8.79688 0.203125,-6.29688 C0,-5.5 0.296875,-4.79688 1.29688,-4.59375 C2.79688,-4.29688 3.70313,-3.20313 4.5,-1.90625 C5.29688,-0.59375 6.09375,0 6.79688,0"/>
<path class="Articulation" transform="matrix(0.992001,0,0,0.992001,828.501,982.812)" d="M6.79688,0 C7.59375,0 8.5,-0.5 9.20313,-1.59375 C10.4063,-3.5 11.2031,-5.5 11.2031,-7.79688 C11.2031,-8.59375 11.2031,-9.5 11,-10.2969 C10.7031,-11.5938 9.09375,-11.5938 8.70313,-12.9063 C8.09375,-14.9063 5.90625,-15 4.40625,-15.5938 C3.09375,-15.4063 2.09375,-15.2031 1.59375,-13.7031 C0.796875,-11.2969 0.796875,-8.79688 0.203125,-6.29688 C0,-5.5 0.296875,-4.79688 1.29688,-4.59375 C2.79688,-4.29688 3.70313,-3.20313 4.5,-1.90625 C5.29688,-0.59375 6.09375,0 6.79688,0"/>
<path class="Articulation" transform="matrix(0.992001,0,0,0.992001,2406.3,387.612)" d="M6.79688,0 C7.59375,0 8.5,-0.5 9.20313,-1.59375 C10.4063,-3.5 11.2031,-5.5 11.2031,-7.79688 C11.2031,-8.59375 11.2031,-9.5 11,-10.2969 C10.7031,-11.5938 9.09375,-11.5938 8.70313,-12.9063 C8.09375,-14.9063 5.90625,-15 4.40625,-15.5938 C3.09375,-15.4063 2.09375,-15.2031 1.59375,-13.7031 C0.796875,-11.2969 0.796875,-8.79688 0.203125,-6.29688 C0,-5.5 0.296875,-4.79688 1.29688,-4.59375 C2.79688,-4.29688 3.70313,-3.20313 4.5,-1.90625 C5.29688,-0.59375 6.09375,0 6.79688,0"/>
<path class="Articulation" transform="matrix(0.992001,0,0,0.992001,2475.49,412.412)" d="M6.79688,0 C7.59375,0 8.5,-0.5 9.20313,-1.59375 C10.4063,-3.5 11.2031,-5.5 11.2031,-7.79688 C11.2031,-8.59375 11.2031,-9.5 11,-10.2969 C10.7031,-11.5938 9.09375,-11.5938 8.70313,-12.9063 C8.09375,-14.9063 5.90625,-15 4.40625,-15.5938 C3.09375,-15.4063 2.09375,-15.2031 1.59375,-13.7031 C0.796875,-11.2969 0.796875,-8.79688 0.203125,-6.29688 C0,-5.5 0.296875,-4.79688 1.29688,-4.59375 C2.79688,-4.29688 3.70313,-3.20313 4.5,-1.90625 C5.29688,-0.59375 6.09375,0 6.79688,0"/>
<path class="Articulation" transform="matrix(0.992001,0,0,0.992001,2024.3,933.212)" d="M6.79688,0 C7.59375,0 8.5,-0.5 9.20313,-1.59375 C10.4063,-3.5 11.2031,-5.5 11.2031,-7.79688 C11.2031,-8.59375 11.2031,-9.5 11,-10.2969 C10.7031,-11.5938 9.09375,-11.5938 8.70313,-12.9063 C8.09375,-14.9063 5.90625,-15 4.40625,-15.5938 C3.09375,-15.4063 2.09375,-15.2031 1.59375,-13.7031 C0.796875,-11.2969 0.796875,-8.79688 0.203125,-6.29688 C0,-5.5 0.296875,-4.79688 1.29688,-4.59375 C2.79688,-4.29688 3.70313,-3.20313 4.5,-1.90625 C5.29688,-0.59375 6.09375,0 6.79688,0"/>
<path class="Articulation" transform="matrix(0.992001,0,0,0.992001,575.086,375.212)" d="M6.79688,0 C7.59375,0 8.5,-0.5 9.20313,-1.59375 C10.4063,-3.5 11.2031,-5.5 11.2031,-7.79688 C11.2031,-8.59375 11.2031,-9.5 11,-10.2969 C10.7031,-11.5938 9.09375,-11.5938 8.70313,-12.9063 C8.09375,-14.9063 5.90625,-15 4.40625,-15.5938 C3.09375,-15.4063 2.09375,-15.2031 1.59375,-13.7031 C0.796875,-11.2969 0.796875,-8.79688 0.203125,-6.29688 C0,-5.5 0.296875,-4.79688 1.29688,-4.59375 C2.79688,-4.29688 3.70313,-3.20313 4.5,-1.90625 C5.29688,-0.59375 6.09375,0 6.79688,0"/>
<path class="Articulation" transform="matrix(0.992001,0,0,0.992001,982.388,970.412)" d="M6.79688,0 C7.59375,0 8.5,-0.5 9.20313,-1.59375 C10.4063,-3.5 11.2031,-5.5 11.2031,-7.79688 C11.2031,-8.59375 11.2031,-9.5 11,-10.2969 C10.7031,-11.5938 9.09375,-11.5938 8.70313,-12.9063 C8.09375,-14.9063 5.90625,-15 4.40625,-15.5938 C3.09375,-15.4063 2.09375,-15.2031 1.59375,-13.7031 C0.796875,-11.2969 0.796875,-8.79688 0.203125,-6.29688 C0,-5.5 0.296875,-4.79688 1.29688,-4.59375 C2.79688,-4.29688 3.70313,-3.20313 4.5,-1.90625 C5.29688,-0.59375 6.09375,0 6.79688,0"/>
<path class="Articulation" transform="matrix(0.992001,0,0,0.992001,642.8,375.212)" d="M6.79688,0 C7.59375,0 8.5,-0.5 9.20313,-1.59375 C10.4063,-3.5 11.2031,-5.5 11.2031,-7.79688 C11.2031,-8.59375 11.2031,-9.5 11,-10.2969 C10.7031,-11.5938 9.09375,-11.5938 8.70313,-12.9063 C8.09375,-14.9063 5.90625,-15 4.40625,-15.5938 C3.09375,-15.4063 2.09375,-15.2031 1.59375,-13.7031 C0.796875,-11.2969 0.796875,-8.79688 0.203125,-6.29688 C0,-5.5 0.296875,-4.79688 1.29688,-4.59375 C2.79688,-4.29688 3.70313,-3.20313 4.5,-1.90625 C5.29688,-0.59375 6.09375,0 6.79688,0"/>
<path class="Articulation" transform="matrix(0.992001,0,0,0.992001,2543.2,412.412)" d="M6.79688,0 C7.59375,0 8.5,-0.5 9.20313,-1.59375 C10.4063,-3.5 11.2031,-5.5 11.2031,-7.79688 C11.2031,-8.59375 11.2031,-9.5 11,-10.2969 C10.7031,-11.5938 9.09375,-11.5938 8.70313,-12.9063 C8.09375,-14.9063 5.90625,-15 4.40625,-15.5938 C3.09375,-15.4063 2.09375,-15.2031 1.59375,-13.7031 C0.796875,-11.2969 0.796875,-8.79688 0.203125,-6.29688 C0,-5.5 0.296875,-4.79688 1.29688,-4.59375 C2.79688,-4.29688 3.70313,-3.20313 4.5,-1.90625 C5.29688,-0.59375 6.09375,0 6.79688,0"/>
<path class="Articulation" transform="matrix(0.992001,0,0,0.992001,710.513,375.212)" d="M6.79688,0 C7.59375,0 8.5,-0.5 9.20313,-1.59375 C10.4063,-3.5 11.2031,-5.5 11.2031,-7.79688 C11.2031,-8.59375 11.2031,-9.5 11,-10.2969 C10.7031,-11.5938 9.09375,-11.5938 8.70313,-12.9063 C8.09375,-14.9063 5.90625,-15 4.40625,-15.5938 C3.09375,-15.4063 2.09375,-15.2031 1.59375,-13.7031 C0.796875,-11.2969 0.796875,-8.79688 0.203125,-6.29688 C0,-5.5 0.296875,-4.79688 1.29688,-4.59375 C2.79688,-4.29688 3.70313,-3.20313 4.5,-1.90625 C5.29688,-0.59375 6.09375,0 6.79688,0"/>
<path class="Articulation" transform="matrix(0.992001,0,0,0.992001,1136.28,958.012)" d="M6.79688,0 C7.59375,0 8.5,-0.5 9.20313,-1.59375 C10.4063,-3.5 11.2031,-5.5 11.2031,-7.79688 C11.2031,-8.59375 11.2031,-9.5 11,-10.2969 C10.7031,-11.5938 9.09375,-11.5938 8.70313,-12.9063 C8.09375,-14.9063 5.90625,-15 4.40625,-15.5938 C3.09375,-15.4063 2.09375,-15.2031 1.59375,-13.7031 C0.796875,-11.2969 0.796875,-8.79688 0.203125,-6.29688 C0,-5.5 0.296875,-4.79688 1.29688,-4.59375 C2.79688,-4.29688 3.70313,-3.20313 4.5,-1.90625 C5.29688,-0.59375 6.09375,0 6.79688,0"/>
<path class="Articulation" transform="matrix(0.992001,0,0,0.992001,778.227,362.811)" d="M6.79688,0 C7.59375,0 8.5,-0.5 9.20313,-1.59375 C10.4063,-3.5 11.2031,-5.5 11.2031,-7.79688 C11.2031,-8.59375 11.2031,-9.5 11,-10.2969 C10.7031,-11.5938 9.09375,-11.5938 8.70313,-12.9063 C8.09375,-14.9063 5.90625,-15 4.40625,-15.5938 C3.09375,-15.4063 2.09375,-15.2031 1.59375,-13.7031 C0.796875,-11.2969 0.796875,-8.79688 0.203125,-6.29688 C0,-5.5 0.296875,-4.79688 1.29688,-4.59375 C2.79688,-4.29688 3.70313,-3.20313 4.5,-1.90625 C5.29688,-0.59375 6.09375,0 6.79688,0"/>
<path class="Articulation" transform="matrix(0.992001,0,0,0.992001,2576.51,389.995)" d="M54.7031,9.90625 C52.2969,10 50.7969,9.20313 49.2031,8.29688 C43,4.70313 39.4063,-1.09375 36.2031,-7.20313 C33.7969,-11.5938 31.5,-16 28.4063,-19.9063 C25.7969,-23.2031 22.7969,-26 18.7031,-27.4063 C16,-28.2031 13.2969,-29.2031 11.4063,-27.1094 C7.59375,-22.7031 5,-17.2031 2.59375,-11.2031 C1.90625,-9.5 0.5,-8.20313 -1,-7.20313 C-1.5,-6.90625 -2,-6.29688 -2.5,-6.79688 C-3.09375,-7.20313 -2.79688,-7.90625 -2.5,-8.5 C-0.703125,-12.9063 1.70313,-18.2969 3.90625,-22.4063 C5.79688,-25.9063 8.59375,-28.1094 12,-31 C15.9063,-34.2031 21.2031,-33.9063 25.7031,-31.7031 C31.2969,-29 34.6094,-24.0938 37.7969,-19.0938 C40.4063,-14.9063 42.6094,-10.5938 45,-6.40625 C47.6094,-2 50.9063,1.59375 55.2969,4.20313 C58.2969,5.90625 60.1094,5.59375 62.7969,3.40625 C66.6094,0.203125 71.1094,-5.90625 72.4063,-9.70313 C73,-11.4063 76.6094,-14.2031 77.3125,-13.5 C77.8125,-13 77.5,-12.4063 77.3125,-11.9063 C73.2969,-2.5 67.5,4.5 59.9063,8.40625 C58.1094,9.29688 56.2031,9.79688 54.7031,9.90625"/>
<path class="Articulation" transform="matrix(0.992001,0,0,0.992001,845.941,350.411)" d="M6.79688,0 C7.59375,0 8.5,-0.5 9.20313,-1.59375 C10.4063,-3.5 11.2031,-5.5 11.2031,-7.79688 C11.2031,-8.59375 11.2031,-9.5 11,-10.2969 C10.7031,-11.5938 9.09375,-11.5938 8.70313,-12.9063 C8.09375,-14.9063 5.90625,-15 4.40625,-15.5938 C3.09375,-15.4063 2.09375,-15.2031 1.59375,-13.7031 C0.796875,-11.2969 0.796875,-8.79688 0.203125,-6.29688 C0,-5.5 0.296875,-4.79688 1.29688,-4.59375 C2.79688,-4.29688 3.70313,-3.20313 4.5,-1.90625 C5.29688,-0.59375 6.09375,0 6.79688,0"/>
<path class="Articulation" transform="matrix(0.992001,0,0,0.992001,931.78,400.012)" d="M6.79688,0 C7.59375,0 8.5,-0.5 9.20313,-1.59375 C10.4063,-3.5 11.2031,-5.5 11.2031,-7.79688 C11.2031,-8.59375 11.2031,-9.5 11,-10.2969 C10.7031,-11.5938 9.09375,-11.5938 8.70313,-12.9063 C8.09375,-14.9063 5.90625,-15 4.40625,-15.5938 C3.09375,-15.4063 2.09375,-15.2031 1.59375,-13.7031 C0.796875,-11.2969 0.796875,-8.79688 0.203125,-6.29688 C0,-5.5 0.296875,-4.79688 1.29688,-4.59375 C2.79688,-4.29688 3.70313,-3.20313 4.5,-1.90625 C5.29688,-0.59375 6.09375,0 6.79688,0"/>
<path class="Articulation" transform="matrix(0.992001,0,0,0.992001,1045.02,400.012)" d="M6.79688,0 C7.59375,0 8.5,-0.5 9.20313,-1.59375 C10.4063,-3.5 11.2031,-5.5 11.2031,-7.79688 C11.2031,-8.59375 11.2031,-9.5 11,-10.2969 C10.7031,-11.5938 9.09375,-11.5938 8.70313,-12.9063 C8.09375,-14.9063 5.90625,-15 4.40625,-15.5938 C3.09375,-15.4063 2.09375,-15.2031 1.59375,-13.7031 C0.796875,-11.2969 0.796875,-8.79688 0.203125,-6.29688 C0,-5.5 0.296875,-4.79688 1.29688,-4.59375 C2.79688,-4.29688 3.70313,-3.20313 4.5,-1.90625 C5.29688,-0.59375 6.09375,0 6.79688,0"/>
<path class="Articulation" transform="matrix(0.992001,0,0,0.992001,1331.35,1007.61)" d="M6.79688,0 C7.59375,0 8.5,-0.5 9.20313,-1.59375 C10.4063,-3.5 11.2031,-5.5 11.2031,-7.79688 C11.2031,-8.59375 11.2031,-9.5 11,-10.2969 C10.7031,-11.5938 9.09375,-11.5938 8.70313,-12.9063 C8.09375,-14.9063 5.90625,-15 4.40625,-15.5938 C3.09375,-15.4063 2.09375,-15.2031 1.59375,-13.7031 C0.796875,-11.2969 0.796875,-8.79688 0.203125,-6.29688 C0,-5.5 0.296875,-4.79688 1.29688,-4.59375 C2.79688,-4.29688 3.70313,-3.20313 4.5,-1.90625 C5.29688,-0.59375 6.09375,0 6.79688,0"/>
<path class="Articulation" transform="matrix(0.992001,0,0,0.992001,1172.74,325.611)" d="M6.79688,0 C7.59375,0 8.5,-0.5 9.20313,-1.59375 C10.4063,-3.5 11.2031,-5.5 11.2031,-7.79688 C11.2031,-8.59375 11.2031,-9.5 11,-10.2969 C10.7031,-11.5938 9.09375,-11.5938 8.70313,-12.9063 C8.09375,-14.9063 5.90625,-15 4.40625,-15.5938 C3.09375,-15.4063 2.09375,-15.2031 1.59375,-13.7031 C0.796875,-11.2969 0.796875,-8.79688 0.203125,-6.29688 C0,-5.5 0.296875,-4.79688 1.29688,-4.59375 C2.79688,-4.29688 3.70313,-3.20313 4.5,-1.90625 C5.29688,-0.59375 6.09375,0 6.79688,0"/>
<path class="Articulation" transform="matrix(0.992001,0,0,0.992001,1762.11,375.212)" d="M6.79688,0 C7.59375,0 8.5,-0.5 9.20313,-1.59375 C10.4063,-3.5 11.2031,-5.5 11.2031,-7.79688 C11.2031,-8.59375 11.2031,-9.5 11,-10.2969 C10.7031,-11.5938 9.09375,-11.5938 8.70313,-12.9063 C8.09375,-14.9063 5.90625,-15 4.40625,-15.5938 C3.09375,-15.4063 2.09375,-15.2031 1.59375,-13.7031 C0.796875,-11.2969 0.796875,-8.79688 0.203125,-6.29688 C0,-5.5 0.296875,-4.79688 1.29688,-4.59375 C2.79688,-4.29688 3.70313,-3.20313 4.5,-1.90625 C5.29688,-0.59375 6.09375,0 6.79688,0"/>
<path class="Articulation" transform="matrix(0.992001,0,0,0.992001,2332.08,920.812)" d="M6.79688,0 C7.59375,0 8.5,-0.5 9.20313,-1.59375 C10.4063,-3.5 11.2031,-5.5 11.2031,-7.79688 C11.2031,-8.59375 11.2031,-9.5 11,-10.2969 C10.7031,-11.5938 9.09375,-11.5938 8.70313,-12.9063 C8.09375,-14.9063 5.90625,-15 4.40625,-15.5938 C3.09375,-15.4063 2.09375,-15.2031 1.59375,-13.7031 C0.796875,-11.2969 0.796875,-8.79688 0.203125,-6.29688 C0,-5.5 0.296875,-4.79688 1.29688,-4.59375 C2.79688,-4.29688 3.70313,-3.20313 4.5,-1.90625 C5.29688,-0.59375 6.09375,0 6.79688,0"/>
<path class="Articulation" transform="matrix(0.992001,0,0,0.992001,1240.45,325.611)" d="M6.79688,0 C7.59375,0 8.5,-0.5 9.20313,-1.59375 C10.4063,-3.5 11.2031,-5.5 11.2031,-7.79688 C11.2031,-8.59375 11.2031,-9.5 11,-10.2969 C10.7031,-11.5938 9.09375,-11.5938 8.70313,-12.9063 C8.09375,-14.9063 5.90625,-15 4.40625,-15.5938 C3.09375,-15.4063 2.09375,-15.2031 1.59375,-13.7031 C0.796875,-11.2969 0.796875,-8.79688 0.203125,-6.29688 C0,-5.5 0.296875,-4.79688 1.29688,-4.59375 C2.79688,-4.29688 3.70313,-3.20313 4.5,-1.90625 C5.29688,-0.59375 6.09375,0 6.79688,0"/>
<path class="Articulation" transform="matrix(0.992001,0,0,0.992001,1375.88,338.011)" d="M6.79688,0 C7.59375,0 8.5,-0.5 9.20313,-1.59375 C10.4063,-3.5 11.2031,-5.5 11.2031,-7.79688 C11.2031,-8.59375 11.2031,-9.5 11,-10.2969 C10.7031,-11.5938 9.09375,-11.5938 8.70313,-12.9063 C8.09375,-14.9063 5.90625,-15 4.40625,-15.5938 C3.09375,-15.4063 2.09375,-15.2031 1.59375,-13.7031 C0.796875,-11.2969 0.796875,-8.79688 0.203125,-6.29688 C0,-5.5 0.296875,-4.79688 1.29688,-4.59375 C2.79688,-4.29688 3.70313,-3.20313 4.5,-1.90625 C5.29688,-0.59375 6.09375,0 6.79688,0"/>
<path class="Articulation" transform="matrix(0.992001,0,0,0.992001,1443.59,350.411)" d="M6.79688,0 C7.59375,0 8.5,-0.5 9.20313,-1.59375 C10.4063,-3.5 11.2031,-5.5 11.2031,-7.79688 C11.2031,-8.59375 11.2031,-9.5 11,-10.2969 C10.7031,-11.5938 9.09375,-11.5938 8.70313,-12.9063 C8.09375,-14.9063 5.90625,-15 4.40625,-15.5938 C3.09375,-15.4063 2.09375,-15.2031 1.59375,-13.7031 C0.796875,-11.2969 0.796875,-8.79688 0.203125,-6.29688 C0,-5.5 0.296875,-4.79688 1.29688,-4.59375 C2.79688,-4.29688 3.70313,-3.20313 4.5,-1.90625 C5.29688,-0.59375 6.09375,0 6.79688,0"/>
<path class="Articulation" transform="matrix(0.992001,0,0,0.992001,1529.43,350.411)" d="M6.79688,0 C7.59375,0 8.5,-0.5 9.20313,-1.59375 C10.4063,-3.5 11.2031,-5.5 11.2031,-7.79688 C11.2031,-8.59375 11.2031,-9.5 11,-10.2969 C10.7031,-11.5938 9.09375,-11.5938 8.70313,-12.9063 C8.09375,-14.9063 5.90625,-15 4.40625,-15.5938 C3.09375,-15.4063 2.09375,-15.2031 1.59375,-13.7031 C0.796875,-11.2969 0.796875,-8.79688 0.203125,-6.29688 C0,-5.5 0.296875,-4.79688 1.29688,-4.59375 C2.79688,-4.29688 3.70313,-3.20313 4.5,-1.90625 C5.29688,-0.59375 6.09375,0 6.79688,0"/>
<path class="Articulation" transform="matrix(0.992001,0,0,0.992001,1829.83,375.212)" d="M6.79688,0 C7.59375,0 8.5,-0.5 9.20313,-1.59375 C10.4063,-3.5 11.2031,-5.5 11.2031,-7.79688 C11.2031,-8.59375 11.2031,-9.5 11,-10.2969 C10.7031,-11.5938 9.09375,-11.5938 8.70313,-12.9063 C8.09375,-14.9063 5.90625,-15 4.40625,-15.5938 C3.09375,-15.4063 2.09375,-15.2031 1.59375,-13.7031 C0.796875,-11.2969 0.796875,-8.79688 0.203125,-6.29688 C0,-5.5 0.296875,-4.79688 1.29688,-4.59375 C2.79688,-4.29688 3.70313,-3.20313 4.5,-1.90625 C5.29688,-0.59375 6.09375,0 6.79688,0"/>
<path class="Articulation" transform="matrix(0.992001,0,0,0.992001,1897.54,375.212)" d="M6.79688,0 C7.59375,0 8.5,-0.5 9.20313,-1.59375 C10.4063,-3.5 11.2031,-5.5 11.2031,-7.79688 C11.2031,-8.59375 11.2031,-9.5 11,-10.2969 C10.7031,-11.5938 9.09375,-11.5938 8.70313,-12.9063 C8.09375,-14.9063 5.90625,-15 4.40625,-15.5938 C3.09375,-15.4063 2.09375,-15.2031 1.59375,-13.7031 C0.796875,-11.2969 0.796875,-8.79688 0.203125,-6.29688 C0,-5.5 0.296875,-4.79688 1.29688,-4.59375 C2.79688,-4.29688 3.70313,-3.20313 4.5,-1.90625 C5.29688,-0.59375 6.09375,0 6.79688,0"/>
<path class="Articulation" transform="matrix(0.992001,0,0,0.992001,520.727,982.812)" d="M6.79688,0 C7.59375,0 8.5,-0.5 9.20313,-1.59375 C10.4063,-3.5 11.2031,-5.5 11.2031,-7.79688 C11.2031,-8.59375 11.2031,-9.5 11,-10.2969 C10.7031,-11.5938 9.09375,-11.5938 8.70313,-12.9063 C8.09375,-14.9063 5.90625,-15 4.40625,-15.5938 C3.09375,-15.4063 2.09375,-15.2031 1.59375,-13.7031 C0.796875,-11.2969 0.796875,-8.79688 0.203125,-6.29688 C0,-5.5 0.296875,-4.79688 1.29688,-4.59375 C2.79688,-4.29688 3.70313,-3.20313 4.5,-1.90625 C5.29688,-0.59375 6.09375,0 6.79688,0"/>
<path class="Articulation" transform="matrix(0.992001,0,0,0.992001,1965.25,362.811)" d="M6.79688,0 C7.59375,0 8.5,-0.5 9.20313,-1.59375 C10.4063,-3.5 11.2031,-5.5 11.2031,-7.79688 C11.2031,-8.59375 11.2031,-9.5 11,-10.2969 C10.7031,-11.5938 9.09375,-11.5938 8.70313,-12.9063 C8.09375,-14.9063 5.90625,-15 4.40625,-15.5938 C3.09375,-15.4063 2.09375,-15.2031 1.59375,-13.7031 C0.796875,-11.2969 0.796875,-8.79688 0.203125,-6.29688 C0,-5.5 0.296875,-4.79688 1.29688,-4.59375 C2.79688,-4.29688 3.70313,-3.20313 4.5,-1.90625 C5.29688,-0.59375 6.09375,0 6.79688,0"/>
<path class="Articulation" transform="matrix(0.992001,0,0,0.992001,1767.82,920.812)" d="M6.79688,0 C7.59375,0 8.5,-0.5 9.20313,-1.59375 C10.4063,-3.5 11.2031,-5.5 11.2031,-7.79688 C11.2031,-8.59375 11.2031,-9.5 11,-10.2969 C10.7031,-11.5938 9.09375,-11.5938 8.70313,-12.9063 C8.09375,-14.9063 5.90625,-15 4.40625,-15.5938 C3.09375,-15.4063 2.09375,-15.2031 1.59375,-13.7031 C0.796875,-11.2969 0.796875,-8.79688 0.203125,-6.29688 C0,-5.5 0.296875,-4.79688 1.29688,-4.59375 C2.79688,-4.29688 3.70313,-3.20313 4.5,-1.90625 C5.29688,-0.59375 6.09375,0 6.79688,0"/>
<path class="Beam" fill-rule="evenodd" d="M834.847,488.188 L923.662,494.388 L923.662,506.818 L834.847,500.618 L834.847,488.188 "/>
<path class="Beam" fill-rule="evenodd" d="M923.662,475.788 L896.382,473.883 L896.382,486.314 L923.662,488.218 L923.662,475.788 "/>
<path class="Beam" fill-rule="evenodd" d="M563.992,469.603 L770.109,469.603 L770.109,482.003 L563.992,482.003 L563.992,469.603 "/>
<path class="Beam" fill-rule="evenodd" d="M1751.02,469.603 L1957.14,469.603 L1957.14,482.003 L1751.02,482.003 L1751.02,469.603 "/>
<path class="Beam" fill-rule="evenodd" d="M1125.18,1077.16 L1323.24,1101.96 L1323.24,1114.45 L1125.18,1089.65 L1125.18,1077.16 "/>
<path class="Beam" fill-rule="evenodd" d="M1323.24,1083.36 L1295.96,1079.94 L1295.96,1092.44 L1323.24,1095.85 L1323.24,1083.36 "/>
<path class="Beam" fill-rule="evenodd" d="M2115.8,1071 L2323.96,1071 L2323.96,1083.4 L2115.8,1083.4 L2115.8,1071 "/>
<path class="Beam" fill-rule="evenodd" d="M2115.8,1052.4 L2221.37,1052.4 L2221.37,1064.8 L2115.8,1064.8 L2115.8,1052.4 "/>
<path class="Beam" fill-rule="evenodd" d="M1432.5,463.403 L1521.31,463.403 L1521.31,475.803 L1432.5,475.803 L1432.5,463.403 "/>
<path class="Beam" fill-rule="evenodd" d="M1521.31,444.803 L1494.03,444.803 L1494.03,457.203 L1521.31,457.203 L1521.31,444.803 "/>
<path class="Beam" fill-rule="evenodd" d="M1756.73,1071 L2016.18,1071 L2016.18,1083.4 L1756.73,1083.4 L1756.73,1071 "/>
<path class="Beam" fill-rule="evenodd" d="M1910.62,1052.4 L2016.18,1052.4 L2016.18,1064.8 L1910.62,1064.8 L1910.62,1052.4 "/>
<path class="Beam" fill-rule="evenodd" d="M2153.24,494.403 L2223.93,494.403 L2223.93,506.803 L2153.24,506.803 L2153.24,494.403 "/>
<path class="Beam" fill-rule="evenodd" d="M1422.85,1102 L1620.91,1095.8 L1620.91,1108.21 L1422.85,1114.41 L1422.85,1102 "/>
<path class="Beam" fill-rule="evenodd" d="M1620.91,1077.2 L1593.63,1078.05 L1593.63,1090.46 L1620.91,1089.61 L1620.91,1077.2 "/>
<path class="Beam" fill-rule="evenodd" d="M1161.64,463.4 L1367.76,469.6 L1367.76,482.006 L1161.64,475.806 L1161.64,463.4 "/>
<path class="Beam" fill-rule="evenodd" d="M2327.5,513 L2535.08,519.2 L2535.08,531.606 L2327.5,525.406 L2327.5,513 "/>
<path class="Beam" fill-rule="evenodd" d="M2021.87,488.188 L2110.69,494.388 L2110.69,506.818 L2021.87,500.618 L2021.87,488.188 "/>
<path class="Beam" fill-rule="evenodd" d="M2110.69,475.788 L2083.41,473.883 L2083.41,486.314 L2110.69,488.218 L2110.69,475.788 "/>
<path class="Beam" fill-rule="evenodd" d="M966.217,494.403 L1036.91,494.403 L1036.91,506.803 L966.217,506.803 L966.217,494.403 "/>
<path class="Beam" fill-rule="evenodd" d="M509.633,1077.2 L974.27,1077.2 L974.27,1089.6 L509.633,1089.6 L509.633,1077.2 "/>
<path class="VoltaSegment" d="M1747.49,334.942 L1743.75,334.942 L1743.75,296.942 L1733.86,299.036 L1733.86,295.442 L1747.49,292.739 L1747.49,334.942 M1769.91,334.942 L1765.3,334.942 L1765.3,329.161 L1769.91,329.161 L1769.91,334.942 "/>
<polyline class="VoltaSegment" fill="none" stroke="#000000" stroke-width="3.97" stroke-linejoin="miter" stroke-miterlimit="2" points="1718.78,334.942 1718.78,280.382 2829.05,280.382 2829.05,334.942"/>
<path class="VoltaSegment" d="M491.573,933.119 L465.886,933.119 L465.886,930.088 L479.511,914.416 C481.834,911.729 483.448,909.518 484.355,907.783 C485.261,906.049 485.714,904.39 485.714,902.807 C485.714,900.213 485.086,898.247 483.831,896.908 C482.576,895.57 480.584,894.9 477.855,894.9 C474.98,894.9 472.774,895.726 471.237,897.377 C469.701,899.028 468.933,901.578 468.933,905.025 L465.73,905.025 L465.355,903.916 C465.251,900.322 466.352,897.299 468.659,894.846 C470.967,892.393 474.032,891.166 477.855,891.166 C481.365,891.166 484.18,892.19 486.3,894.236 C488.42,896.283 489.48,899.14 489.48,902.807 C489.48,905.192 488.74,907.572 487.261,909.947 C485.782,912.322 483.74,915.025 481.136,918.057 L469.355,930.432 L469.277,930.307 L491.573,929.385 L491.573,933.119 M502.948,933.119 L498.339,933.119 L498.339,927.338 L502.948,927.338 L502.948,933.119 "/>
<polyline class="VoltaSegment" fill="none" stroke="#000000" stroke-width="3.97" stroke-linejoin="miter" stroke-miterlimit="2" points="449.818,933.119 449.818,878.559 2823.1,878.559"/>
<path class="NoteDot" transform="matrix(0.992001,0,0,0.992001,2067.4,364.203)" d="M0.90625,5.70313 C1,5.70313 1,5.70313 1.09375,5.59375 C3.20313,5.29688 5.20313,5.29688 7.29688,5.09375 C8.40625,5 9.09375,4.20313 9.09375,3.29688 C9.29688,1.70313 9.59375,0 9.59375,-1.79688 C9.59375,-2.29688 9.59375,-2.79688 9.5,-3.29688 C9.29688,-4.90625 8.70313,-5.70313 7.5,-5.70313 C7.20313,-5.70313 6.90625,-5.70313 6.59375,-5.59375 C5.20313,-5.40625 3.70313,-5.20313 2.29688,-4.90625 C1.40625,-4.70313 0.40625,-4.29688 0.296875,-3.20313 C0.09375,-0.59375 0,2 0,4.59375 C0,5.09375 0.09375,5.70313 0.90625,5.70313"/>
<path class="NoteDot" transform="matrix(0.992001,0,0,0.992001,1478.03,364.203)" d="M0.90625,5.70313 C1,5.70313 1,5.70313 1.09375,5.59375 C3.20313,5.29688 5.20313,5.29688 7.29688,5.09375 C8.40625,5 9.09375,4.20313 9.09375,3.29688 C9.29688,1.70313 9.59375,0 9.59375,-1.79688 C9.59375,-2.29688 9.59375,-2.79688 9.5,-3.29688 C9.29688,-4.90625 8.70313,-5.70313 7.5,-5.70313 C7.20313,-5.70313 6.90625,-5.70313 6.59375,-5.59375 C5.20313,-5.40625 3.70313,-5.20313 2.29688,-4.90625 C1.40625,-4.70313 0.40625,-4.29688 0.296875,-3.20313 C0.09375,-0.59375 0,2 0,4.59375 C0,5.09375 0.09375,5.70313 0.90625,5.70313"/>
<path class="NoteDot" transform="matrix(0.992001,0,0,0.992001,880.378,364.203)" d="M0.90625,5.70313 C1,5.70313 1,5.70313 1.09375,5.59375 C3.20313,5.29688 5.20313,5.29688 7.29688,5.09375 C8.40625,5 9.09375,4.20313 9.09375,3.29688 C9.29688,1.70313 9.59375,0 9.59375,-1.79688 C9.59375,-2.29688 9.59375,-2.79688 9.5,-3.29688 C9.29688,-4.90625 8.70313,-5.70313 7.5,-5.70313 C7.20313,-5.70313 6.90625,-5.70313 6.59375,-5.59375 C5.20313,-5.40625 3.70313,-5.20313 2.29688,-4.90625 C1.40625,-4.70313 0.40625,-4.29688 0.296875,-3.20313 C0.09375,-0.59375 0,2 0,4.59375 C0,5.09375 0.09375,5.70313 0.90625,5.70313"/>
<path class="NoteDot" transform="matrix(0.992001,0,0,0.992001,1468.38,1021.4)" d="M0.90625,5.70313 C1,5.70313 1,5.70313 1.09375,5.59375 C3.20313,5.29688 5.20313,5.29688 7.29688,5.09375 C8.40625,5 9.09375,4.20313 9.09375,3.29688 C9.29688,1.70313 9.59375,0 9.59375,-1.79688 C9.59375,-2.29688 9.59375,-2.79688 9.5,-3.29688 C9.29688,-4.90625 8.70313,-5.70313 7.5,-5.70313 C7.20313,-5.70313 6.90625,-5.70313 6.59375,-5.59375 C5.20313,-5.40625 3.70313,-5.20313 2.29688,-4.90625 C1.40625,-4.70313 0.40625,-4.29688 0.296875,-3.20313 C0.09375,-0.59375 0,2 0,4.59375 C0,5.09375 0.09375,5.70313 0.90625,5.70313"/>
<path class="NoteDot" transform="matrix(0.992001,0,0,0.992001,1170.71,971.803)" d="M0.90625,5.70313 C1,5.70313 1,5.70313 1.09375,5.59375 C3.20313,5.29688 5.20313,5.29688 7.29688,5.09375 C8.40625,5 9.09375,4.20313 9.09375,3.29688 C9.29688,1.70313 9.59375,0 9.59375,-1.79688 C9.59375,-2.29688 9.59375,-2.79688 9.5,-3.29688 C9.29688,-4.90625 8.70313,-5.70313 7.5,-5.70313 C7.20313,-5.70313 6.90625,-5.70313 6.59375,-5.59375 C5.20313,-5.40625 3.70313,-5.20313 2.29688,-4.90625 C1.40625,-4.70313 0.40625,-4.29688 0.296875,-3.20313 C0.09375,-0.59375 0,2 0,4.59375 C0,5.09375 0.09375,5.70313 0.90625,5.70313"/>
<path class="Page" d="M237.828,237.973 L237.219,240.723 C236.719,242.926 236.391,243.63 235.953,243.911 C235.406,244.301 235.297,244.301 231.828,244.348 L221.219,244.348 C223.141,242.692 224.578,241.661 226.719,240.223 C234.469,235.223 236.063,234.005 237.656,231.973 C239.531,229.505 240.625,226.583 240.625,224.005 C240.625,218.114 234.859,213.661 227.109,213.661 C219.625,213.661 213.844,218.505 213.844,224.77 C213.844,228.614 216,231.098 219.297,231.098 C222.156,231.098 223.969,229.286 223.969,226.426 C223.969,224.051 222.922,222.676 220.391,221.473 C219.781,221.192 219.516,220.864 219.516,220.426 C219.516,218.661 222.484,216.801 225.234,216.801 C229.078,216.801 231.281,219.161 231.281,223.239 C231.281,227.801 229.516,231.036 223.688,237.255 C217.531,243.801 215.391,246.27 212.641,250.239 L212.641,252.817 C214.063,252.661 214.672,252.598 215.5,252.598 L236.172,252.598 C237.219,252.598 237.875,252.661 239.531,252.817 L240.797,237.973 L237.828,237.973 "/>
</svg>
