<?xml version="1.0" encoding="utf-8"?>
<!-- Generator: Adobe Illustrator 25.4.1, SVG Export Plug-In . SVG Version: 6.00 Build 0)  -->
<svg version="1.1" id="Layer_1" xmlns="http://www.w3.org/2000/svg" xmlns:xlink="http://www.w3.org/1999/xlink" x="0px" y="0px"
	 viewBox="0 0 2237 2237" style="enable-background:new 0 0 2237 2237;" xml:space="preserve">
<style type="text/css">
	.st0{fill-rule:evenodd;clip-rule:evenodd;fill:#FFFFFF;}
</style>
<path class="st0" d="M1118.5,0C502.5,0,0,502.5,0,1118.5S502.5,2237,1118.5,2237S2237,1734.6,2237,1118.5S1734.6,0,1118.5,0z
	 M1627.3,1635.1c-19.5,30-59.7,38.6-89.7,19.1c0,0,0,0,0,0c-145.8-94.8-296.3-147.3-458.8-166.7c-165-19.6-343.4-5.1-542.4,34.2
	c-35.1,7.6-69.7-14.6-77.3-49.7c-7.6-35.1,14.6-69.7,49.7-77.3c0.9-0.2,1.8-0.4,2.8-0.5c211.7-41.8,403.1-57,582.6-35.7
	c181.9,21.6,350.6,80.6,514.2,187C1638.2,1564.9,1646.8,1605.1,1627.3,1635.1z M1771,1299.7c-20.5,37.3-67.4,51-104.7,30.5
	c0,0,0,0,0,0c-188.9-103.7-374.6-162.6-562.7-182.9c-188.8-20.4-381.5-2.2-583.4,48.3c-41.3,10.3-83.2-14.8-93.6-56.1
	s14.8-83.2,56.1-93.6c219-54.8,429.2-74.4,637.1-51.9c208.6,22.5,413.4,87.3,620.6,201C1777.9,1215.5,1791.5,1262.4,1771,1299.7
	C1771,1299.7,1771,1299.7,1771,1299.7z M1797.2,992c-215.2-104.7-428-164.1-644.1-184.6c-217.3-20.6-439.1-2-670.7,49.5
	c-52.4,11.6-104.3-21.5-115.9-74s21.5-104.3,74-115.9c251.1-55.8,492.7-75.8,730.9-53.3c239.5,22.7,474.3,88,710.4,202.9
	c48.6,23,69.3,81.1,46.2,129.7s-81.1,69.3-129.7,46.2C1798,992.4,1797.6,992.2,1797.2,992z"/>
</svg>
