<?xml version="1.0" encoding="utf-8"?>
<!-- Generator: Adobe Illustrator 25.4.1, SVG Export Plug-In . SVG Version: 6.00 Build 0)  -->
<svg version="1.1" id="Layer_1" xmlns="http://www.w3.org/2000/svg" xmlns:xlink="http://www.w3.org/1999/xlink" x="0px" y="0px"
	 viewBox="0 0 5000 5000" style="enable-background:new 0 0 5000 5000;" xml:space="preserve">
<style type="text/css">
	.st0{fill:#FFFFFF;}
</style>
<path class="st0" d="M2499.8,0.1C1118.9,0.1-0.5,1119.5-0.5,2500.4s1119.4,2500.3,2500.3,2500.3S5000,3881.2,5000,2500.4
	S3880.6,0.1,2499.8,0.1z M3080.8,1824.9l-0.1,80.5h-0.1V2987c0,257.9-101.6,503.1-283.9,685.5s-427.6,283.9-685.4,283.9
	s-503.1-101.5-685.4-283.9S1142,3244.9,1142,2987c-0.3-257.1,101.9-503.8,283.9-685.4c182.3-182.3,427.5-283.9,685.4-283.9h179.9
	v509.6h-179.9c-253.9,0-459.8,205.9-459.8,459.8s205.9,459.8,459.8,459.8c121.9,0,238.9-48.4,325.1-134.7
	c86.5-86.6,134.6-202.7,134.6-324.1V1044.4h507.4l25.4,47c79,146.4,185.6,285.2,317.7,387.7c102.2,79.2,217.8,135.1,345.6,157.5
	l90.3,15.8l-96.9,491.3l-86.8-15.5c-103.4-18.5-204.9-49.8-299.9-94.6C3264.8,1982.2,3163.6,1912.7,3080.8,1824.9L3080.8,1824.9z"/>
</svg>
