<?xml version="1.0" encoding="utf-8"?>
<!-- Generator: Adobe Illustrator 25.4.1, SVG Export Plug-In . SVG Version: 6.00 Build 0)  -->
<svg version="1.1" id="Layer_1" xmlns="http://www.w3.org/2000/svg" xmlns:xlink="http://www.w3.org/1999/xlink" x="0px" y="0px"
	 viewBox="0 0 2000 2000" style="enable-background:new 0 0 2000 2000;" xml:space="preserve">
<style type="text/css">
	.st0{fill:#FFFFFF;}
</style>
<path class="st0" d="M1000,0C447.7,0,0,447.7,0,1000s447.7,1000,1000,1000s1000-447.7,1000-1000S1552.3,0,1000,0z M1638.8,1320.9
	c-15.5,57.5-60.4,102.4-117.9,117.9c-104,27.9-520.9,27.9-520.9,27.9s-417,0-520.9-27.9c-57.5-15.5-102.4-60.4-117.9-117.9
	C333.3,1217,333.3,1000,333.3,1000s0-217,27.9-320.9c15.5-57.5,60.4-102.4,117.9-117.9c104-27.9,520.9-27.9,520.9-27.9
	s417,0,520.9,27.9c57.5,15.5,102.4,60.4,117.9,117.9c27.9,104,27.9,320.9,27.9,320.9S1666.7,1217,1638.8,1320.9z"/>
<polygon class="st0" points="1213.1,1000 866.7,1200 866.7,800 "/>
</svg>
